<svg xmlns="http://www.w3.org/2000/svg" viewBox="0 0 1440 120" preserveAspectRatio="none">
  <path fill="#ffffff" d="M0,64 C80,78 160,88 280,82 C400,76 440,58 560,52 C680,46 760,62 880,68 C1000,74 1080,56 1200,60 C1320,64 1380,72 1440,76 L1440,120 L0,120 Z"/>
  <path fill="#ffffff" opacity="0.6" d="M0,80 C120,90 200,98 360,92 C520,86 600,70 760,76 C920,82 1000,94 1160,88 C1280,84 1360,78 1440,82 L1440,120 L0,120 Z"/>
  <path fill="#ffffff" opacity="0.3" d="M0,96 C180,104 300,108 480,102 C660,96 720,86 900,92 C1080,98 1200,106 1320,100 C1380,97 1410,94 1440,92 L1440,120 L0,120 Z"/>
</svg>
