<svg width="35" height="35" viewBox="0 0 35 35" fill="none" xmlns="http://www.w3.org/2000/svg">
<g clip-path="url(#clip0_1_370)">
<path d="M12.592 34.7201L15.2879 31.1121H18.2338C18.5788 31.1121 18.8576 30.8322 18.8576 30.4883C18.8576 30.1433 18.5788 29.8645 18.2338 29.8645H16.2204L18.7978 26.4156H20.8016C21.1455 26.4156 21.4265 26.1368 21.4265 25.7918C21.4265 25.4468 21.1456 25.168 20.8016 25.168H19.7303L23.6097 19.9759C23.6097 19.9759 28.5625 19.9759 29.8282 19.9759C31.094 19.9759 33.6797 18.6002 33.6797 17.5C33.6797 16.3998 31.0939 15.0241 29.8281 15.0241C28.5624 15.0241 23.6095 15.0241 23.6095 15.0241L19.7301 9.83199H20.8015C21.1454 9.83199 21.4263 9.55322 21.4263 9.20821C21.4263 8.8632 21.1454 8.58443 20.8015 8.58443H18.7976L16.2213 5.1355H18.2337C18.5787 5.1355 18.8575 4.85563 18.8575 4.51172C18.8575 4.1678 18.5787 3.88794 18.2337 3.88794H15.2878L12.592 0.279863C12.4596 0.103633 12.2534 0 12.0344 0H10.3211C10.084 0 9.86505 0.119629 9.73578 0.318281C9.60761 0.514814 9.5884 0.76583 9.68451 0.980547L11.0293 3.88794H10.0882C9.74433 3.88794 9.46556 4.1678 9.46556 4.51172C9.46556 4.85563 9.74433 5.1355 10.0882 5.1355H11.6071L13.2018 8.58443H11.9233C11.5783 8.58443 11.2995 8.8632 11.2995 9.20821C11.2995 9.55322 11.5783 9.83199 11.9233 9.83199H13.7796L16.3997 15.4941L7.65082 15.9875C6.94904 15.9875 6.40114 15.7194 5.97602 15.1181C5.10122 13.8833 3.68919 11.7279 3.68919 11.7279C3.49266 11.4523 3.1391 11.3348 2.81651 11.4373C2.4929 11.541 2.27388 11.8411 2.27388 12.1808L2.99808 16.5835H2.23649C1.73022 16.5835 1.32006 16.9937 1.32006 17.4999C1.32006 18.0062 1.73022 18.4164 2.23649 18.4164H2.99808L2.27388 22.8191C2.27388 23.1588 2.49283 23.4579 2.81651 23.5625C3.1391 23.6651 3.49266 23.5475 3.68919 23.272C3.68919 23.272 5.10122 21.1155 5.97602 19.8808C6.40114 19.2805 6.94904 19.0124 7.65082 19.0124L16.3997 19.5059L13.7796 25.1679H11.9233C11.5783 25.1679 11.2995 25.4467 11.2995 25.7917C11.2995 26.1367 11.5783 26.4155 11.9233 26.4155H13.2018L11.6071 29.8644H10.0882C9.74433 29.8644 9.46556 30.1432 9.46556 30.4882C9.46556 30.8321 9.74433 31.112 10.0882 31.112H11.0293L9.68451 34.0184C9.5884 34.2341 9.60761 34.4841 9.73578 34.6816C9.86505 34.8803 10.084 34.9999 10.3211 34.9999H12.0344C12.2534 35 12.4596 34.8964 12.592 34.7201ZM29.9382 16.0324C30.7478 16.0324 31.4047 16.6893 31.4047 17.5C31.4047 18.3096 30.7478 18.9676 29.9382 18.9676V16.0324Z" fill="#F49B9B"/>
</g>
<defs>
<clipPath id="clip0_1_370">
<rect width="35" height="35" fill="white" transform="matrix(0 1 -1 0 35 0)"/>
</clipPath>
</defs>
</svg>
