<svg width="342" height="405" viewBox="0 0 342 405" fill="none" xmlns="http://www.w3.org/2000/svg">
<g filter="url(#filter0_d_1_101)">
<path d="M156.579 306.15C158.105 308.006 157.692 312.076 154.282 315.247C151.044 318.246 146.28 319.331 140.988 319.802C139.719 319.916 139.647 319.445 140.232 318.403C142.985 313.576 142.586 311.291 145.325 308.092C148.063 304.893 154.611 303.722 156.565 306.15H156.579ZM146.908 301.366C148.933 300.552 150.36 297.581 149.076 294.04C147.878 290.741 145.039 288.07 141.487 285.8C140.403 285.114 139.647 284.7 139.676 287.014C139.747 291.155 138.478 292.812 139.733 296.253C141.002 299.695 144.868 302.18 146.894 301.366H146.908ZM123.857 303.165C120.819 305.964 120.947 308.22 117.709 312.605C117.01 313.547 117.038 314.018 118.279 314.047C123.486 314.204 128.25 313.69 131.745 311.162C135.425 308.478 136.281 304.565 135.026 302.58C133.385 299.995 126.895 300.366 123.871 303.165H123.857ZM126.296 296.71C128.336 296.125 130.019 293.383 129.106 289.827C128.264 286.514 125.782 283.643 122.559 281.102C121.575 280.33 120.876 279.859 120.69 282.101C120.362 286.114 118.964 287.599 119.849 291.055C120.747 294.511 124.242 297.296 126.282 296.696L126.296 296.71ZM105.285 295.911C101.975 298.238 101.819 300.452 98.1241 304.293C97.3253 305.122 97.2825 305.579 98.4949 305.764C103.53 306.564 108.223 306.678 111.932 304.665C115.84 302.523 117.181 298.838 116.197 296.753C114.942 294.04 108.58 293.583 105.285 295.911ZM108.594 289.87C110.634 289.513 112.545 287.057 112.046 283.515C111.59 280.23 109.493 277.189 106.654 274.375C105.784 273.518 105.156 272.99 104.743 275.146C103.987 278.988 102.475 280.273 102.974 283.715C103.473 287.156 106.554 290.227 108.594 289.87ZM89.1518 286.5C85.6286 288.313 85.1721 290.427 81.0783 293.668C80.1939 294.368 80.094 294.797 81.2352 295.154C86.0137 296.61 90.5355 297.353 94.4154 295.896C98.4949 294.354 100.292 290.955 99.6218 288.799C98.766 286 92.6609 284.7 89.1518 286.514V286.5ZM93.3313 281.044C95.3425 280.93 97.4679 278.774 97.3966 275.304C97.3253 272.076 95.6563 268.906 93.2314 265.864C92.4897 264.936 91.9476 264.35 91.2915 266.392C90.1361 270.02 88.5242 271.091 88.6098 274.461C88.6954 277.831 91.3343 281.159 93.3313 281.044ZM75.4011 275.204C71.7352 276.46 70.9934 278.445 66.5715 281.002C65.6158 281.558 65.4589 281.958 66.5145 282.458C70.9364 284.543 75.2157 285.9 79.1669 285.029C83.332 284.1 85.543 281.073 85.2149 278.888C84.7727 276.06 79.0527 273.933 75.4011 275.204ZM80.3508 270.491C82.2907 270.619 84.6015 268.792 84.9439 265.436C85.2577 262.308 84.0167 259.052 82.034 255.839C81.4349 254.854 80.9784 254.225 80.1083 256.11C78.5535 259.466 76.8846 260.309 76.5565 263.579C76.2427 266.849 78.3823 270.362 80.3365 270.491H80.3508ZM62.9199 262.294C59.1969 262.994 58.1984 264.807 53.5482 266.649C52.5497 267.049 52.3358 267.421 53.2915 268.049C57.2712 270.691 61.2224 272.619 65.1594 272.347C69.3245 272.048 71.8921 269.434 71.8778 267.264C71.8493 264.465 66.6286 261.594 62.9056 262.294H62.9199ZM68.54 258.424C70.4086 258.781 72.8478 257.296 73.5895 254.097C74.2742 251.126 73.4612 247.828 71.9349 244.486C71.4784 243.472 71.1075 242.801 70.0377 244.514C68.1406 247.57 66.4146 248.185 65.7157 251.298C65.0167 254.411 66.6714 258.067 68.54 258.424ZM52.4927 248.027C48.7982 248.17 47.5715 249.784 42.8215 250.912C41.7945 251.155 41.5377 251.483 42.3651 252.226C45.8313 255.353 49.3831 257.781 53.2487 258.067C57.3283 258.367 60.1811 256.196 60.4664 254.111C60.8515 251.398 56.1871 247.885 52.4927 248.027ZM58.6406 245.1C60.3951 245.671 62.9341 244.514 64.0182 241.515C65.0167 238.716 64.6316 235.446 63.5475 232.047C63.2194 231.019 62.9484 230.334 61.7217 231.862C59.525 234.589 57.799 234.975 56.7577 237.902C55.7164 240.816 56.8861 244.543 58.6406 245.1ZM44.1766 232.69C40.582 232.333 39.1699 233.718 34.4341 234.147C33.4071 234.247 33.1218 234.518 33.8208 235.36C36.7449 238.859 39.8546 241.687 43.549 242.501C47.4431 243.358 50.51 241.644 51.0663 239.659C51.7937 237.088 47.7855 233.047 44.1909 232.69H44.1766ZM50.6954 230.748C52.3215 231.49 54.9034 230.662 56.2727 227.892C57.5422 225.307 57.5422 222.108 56.8718 218.709C56.6721 217.681 56.4867 216.981 55.1316 218.324C52.7209 220.709 51.0092 220.894 49.6684 223.593C48.3418 226.292 49.055 230.005 50.6811 230.748H50.6954ZM37.9289 216.539C34.4912 215.71 32.9506 216.881 28.3005 216.681C27.302 216.639 26.9739 216.867 27.5445 217.767C29.9266 221.537 32.5512 224.679 36.0175 225.95C39.6834 227.278 42.8643 226.035 43.6631 224.179C44.7044 221.794 41.3523 217.353 37.9146 216.539H37.9289ZM44.6616 215.567C46.1594 216.453 48.7269 215.924 50.353 213.383C51.8508 211.026 52.1789 207.927 51.8793 204.571C51.7937 203.557 51.6796 202.872 50.2389 204.014C47.6571 206.071 45.9882 206.057 44.4191 208.541C42.8643 211.012 43.1639 214.668 44.6616 215.553V215.567ZM33.6924 199.816C30.4687 198.602 28.8283 199.53 24.3636 198.759C23.3936 198.588 23.0655 198.788 23.5077 199.73C25.3478 203.672 27.5017 207.042 30.6969 208.698C34.0775 210.441 37.3155 209.627 38.314 207.942C39.6263 205.757 36.9161 201.044 33.6924 199.83V199.816ZM40.4822 199.787C41.8515 200.787 44.3763 200.516 46.1879 198.216C47.8568 196.074 48.4559 193.118 48.4987 189.848C48.4987 188.863 48.4702 188.177 46.9582 189.163C44.2622 190.905 42.6503 190.733 40.9101 192.975C39.1699 195.218 39.1128 198.788 40.4822 199.787ZM31.4529 182.765C28.4717 181.208 26.7885 181.922 22.5377 180.651C21.6248 180.38 21.2682 180.523 21.5963 181.48C22.9086 185.507 24.6061 189.02 27.516 191.005C30.5828 193.09 33.8208 192.676 34.9904 191.162C36.5167 189.205 34.4341 184.321 31.4672 182.765H31.4529ZM38.1571 183.65C39.3838 184.736 41.8658 184.693 43.8057 182.636C45.603 180.708 46.4446 177.895 46.7727 174.739C46.8726 173.782 46.8868 173.125 45.3463 173.939C42.5933 175.382 41.0527 175.096 39.1699 177.11C37.287 179.123 36.9161 182.565 38.1571 183.65ZM31.1819 165.628C28.4717 163.786 26.7457 164.3 22.7802 162.6C21.9244 162.229 21.5678 162.329 21.7675 163.3C22.5948 167.342 23.85 170.94 26.4461 173.168C29.1849 175.524 32.3658 175.482 33.6639 174.139C35.347 172.411 33.8778 167.456 31.1819 165.628ZM37.7149 167.342C38.8275 168.484 41.2239 168.655 43.2637 166.799C45.1609 165.071 46.1879 162.415 46.7585 159.387C46.9296 158.473 47.0009 157.831 45.4461 158.502C42.6646 159.687 41.1954 159.273 39.2127 161.087C37.2299 162.886 36.6023 166.199 37.7292 167.342H37.7149ZM32.808 148.591C30.3831 146.52 28.6571 146.835 25.0055 144.764C24.2209 144.321 23.8643 144.378 23.9499 145.335C24.3208 149.334 25.1624 152.947 27.4304 155.389C29.841 157.959 32.9079 158.259 34.3058 157.102C36.1316 155.603 35.2329 150.662 32.7937 148.591H32.808ZM39.0843 151.09C40.0685 152.276 42.3793 152.618 44.5047 150.976C46.4732 149.448 47.6571 146.949 48.4274 144.05C48.6556 143.179 48.7697 142.565 47.2149 143.093C44.4334 144.036 43.0355 143.536 40.9814 145.135C38.9416 146.735 38.0858 149.891 39.0843 151.09ZM36.26 132.225C34.1203 129.969 32.4229 130.098 29.0993 127.713C28.3861 127.199 28.0295 127.227 28.0295 128.155C27.9867 132.068 28.4146 135.653 30.3688 138.252C32.4371 140.994 35.3756 141.594 36.8591 140.622C38.7705 139.366 38.4139 134.482 36.2742 132.225H36.26ZM42.1939 135.453C43.0783 136.681 45.2892 137.152 47.4574 135.71C49.4687 134.353 50.7952 132.011 51.7367 129.255C52.022 128.427 52.1789 127.841 50.6241 128.241C47.8711 128.969 46.5445 128.384 44.4476 129.798C42.3508 131.212 41.3238 134.225 42.2082 135.439L42.1939 135.453ZM41.5663 117.059C39.7262 114.66 38.0858 114.603 35.1046 111.975C34.4627 111.404 34.1203 111.39 34.0205 112.29C33.5783 116.074 33.6211 119.573 35.2472 122.286C36.9589 125.142 39.7547 126.028 41.281 125.242C43.2637 124.214 43.4064 119.459 41.5805 117.074L41.5663 117.059ZM47.0865 120.972C47.8711 122.215 49.9822 122.814 52.1789 121.558C54.2187 120.372 55.6451 118.188 56.7434 115.574C57.0715 114.789 57.257 114.232 55.7307 114.517C53.0062 115.046 51.7652 114.389 49.6398 115.631C47.5145 116.874 46.3163 119.716 47.1008 120.958L47.0865 120.972ZM48.6556 102.522C47.1293 100.023 45.5317 99.794 42.9214 96.9379C42.3651 96.3238 42.037 96.2667 41.8373 97.1378C41.0242 100.751 40.7104 104.135 41.9942 106.92C43.3636 109.862 45.9597 111.004 47.5145 110.39C49.54 109.605 50.1676 105.021 48.6413 102.522H48.6556ZM53.6624 107.049C54.3328 108.305 56.3583 109.034 58.5693 107.948C60.6233 106.92 62.1496 104.892 63.3763 102.422C63.7472 101.679 63.9612 101.151 62.4491 101.336C59.7675 101.679 58.5978 100.965 56.4582 102.036C54.3185 103.107 52.9634 105.792 53.6481 107.049H53.6624ZM57.3996 88.8122C56.1871 86.2417 54.6751 85.8561 52.4499 82.8286C51.9792 82.1717 51.6654 82.1003 51.3801 82.9C50.2104 86.2988 49.5685 89.5405 50.51 92.3538C51.5227 95.3385 53.9049 96.7094 55.4739 96.281C57.4994 95.724 58.5978 91.3827 57.3853 88.7979L57.3996 88.8122ZM61.8215 93.9104C62.4064 95.1814 64.3178 96.0097 66.543 95.0957C68.6113 94.2388 70.2232 92.3538 71.5783 90.0261C71.9777 89.3263 72.2344 88.8265 70.7509 88.9122C68.1263 89.0692 67.028 88.3124 64.8741 89.2121C62.7202 90.1117 61.2509 92.6394 61.8215 93.9104ZM67.7127 75.9739C66.814 73.3605 65.4019 72.8321 63.5903 69.6618C63.2052 68.9763 62.9199 68.8621 62.5633 69.619C61.0655 72.7607 60.0955 75.8168 60.7089 78.6444C61.3508 81.629 63.519 83.2142 65.0738 82.9714C67.085 82.6572 68.6113 78.5872 67.7269 75.9739H67.7127ZM71.4642 81.5862C71.9491 82.8572 73.7607 83.7854 75.9717 83.0428C78.04 82.3431 79.7374 80.6151 81.2066 78.4444C81.6488 77.7875 81.9199 77.3163 80.4792 77.302C77.9116 77.302 76.8988 76.4737 74.7449 77.2163C72.6053 77.9446 70.9934 80.3295 71.4784 81.6005L71.4642 81.5862ZM79.5092 63.9353C78.9386 61.3219 77.6406 60.6507 76.257 57.3947C75.9574 56.695 75.7006 56.5522 75.2584 57.2376C73.4612 60.0938 72.1774 62.9213 72.4484 65.7061C72.7337 68.6479 74.6308 70.4187 76.1571 70.3616C78.1398 70.2902 80.0655 66.5343 79.4949 63.921L79.5092 63.9353ZM82.5047 69.9903C82.8898 71.2612 84.5873 72.2895 86.7982 71.7182C88.8666 71.1756 90.6353 69.6047 92.2044 67.5911C92.6751 66.9913 92.9747 66.5343 91.5625 66.4344C89.0663 66.2487 88.1248 65.3776 85.9709 65.9488C83.8313 66.5201 82.1053 68.7193 82.4762 69.9903H82.5047ZM92.7179 53.339C92.4897 50.7542 91.32 49.9545 90.3786 46.6699C90.1789 45.9559 89.9364 45.7988 89.4514 46.3986C87.3831 48.9263 85.814 51.4968 85.7427 54.1958C85.6714 57.052 87.2832 58.9799 88.7524 59.1227C90.6639 59.294 92.9604 55.9238 92.7322 53.339H92.7179ZM94.8576 59.751C95.1428 61.022 96.7262 62.1502 98.9371 61.7503C100.991 61.3647 102.846 59.9652 104.529 58.1087C105.042 57.5518 105.356 57.1377 103.987 56.9377C101.562 56.5664 100.706 55.6525 98.5663 56.0666C96.4266 56.4665 94.5865 58.4943 94.8576 59.7653V59.751ZM107.253 44.3993C107.353 41.9002 106.34 40.9719 105.841 37.7159C105.741 37.0162 105.527 36.8163 104.985 37.3446C102.689 39.5153 100.863 41.7717 100.449 44.3565C100.021 47.0983 101.319 49.1405 102.717 49.4547C104.529 49.8545 107.153 46.9127 107.253 44.4136V44.3993ZM108.451 51.0541C108.623 52.3108 110.092 53.5532 112.274 53.3247C114.314 53.1105 116.225 51.8824 118.023 50.1973C118.565 49.6974 118.907 49.3119 117.595 48.9977C115.241 48.455 114.485 47.4839 112.36 47.7267C110.234 47.9552 108.28 49.7831 108.451 51.0541ZM123.029 37.3304C123.457 34.9455 122.602 33.9316 122.559 30.747C122.559 30.0615 122.373 29.8473 121.788 30.2757C119.307 32.0465 117.252 33.9744 116.525 36.3878C115.755 38.9441 116.725 41.0862 118.023 41.5574C119.706 42.1715 122.602 39.701 123.029 37.3304ZM123.243 44.0851C123.315 45.3418 124.656 46.6699 126.81 46.6271C128.821 46.5842 130.803 45.5417 132.701 44.028C133.271 43.5853 133.642 43.2283 132.373 42.8284C130.119 42.1001 129.448 41.1005 127.352 41.1576C125.255 41.2004 123.186 42.8427 123.258 44.0994L123.243 44.0851ZM136.466 37.7445C138.093 36.9591 138.192 35.9309 139.633 34.4885C140.432 33.6745 140.032 33.5603 139.405 33.4317C137.379 33.0176 135.468 33.0033 133.913 33.7602C132.244 34.5742 131.745 36.1165 132.187 37.1019C132.629 38.0872 134.84 38.5157 136.466 37.7302V37.7445ZM132.829 36.5735C132.743 36.345 132.487 36.2308 132.258 36.3307C132.258 36.3307 130.789 36.9162 128.022 38.0158C125.269 39.1297 121.246 40.8863 116.254 43.3425C111.29 45.8416 105.37 49.1405 98.9229 53.4532C92.4754 57.766 85.4859 63.0784 78.5535 69.6618C71.5925 76.2024 64.6744 83.9996 58.4266 93.025C55.2742 97.5234 52.3928 102.379 49.6969 107.463C47.0152 112.561 44.576 117.945 42.5505 123.586C38.4709 134.853 35.7179 147.077 35.0475 159.687C34.7052 165.999 34.805 172.311 35.1759 178.68C35.561 185.035 36.2742 191.39 37.3726 197.702C38.4852 204 39.9687 210.255 41.8801 216.339C43.8058 222.422 46.1594 228.363 48.9124 234.061C51.6511 239.759 54.8606 245.171 58.3553 250.298C61.8928 255.382 65.7585 260.18 69.8951 264.55C78.1541 273.347 87.4544 280.53 96.8831 286.271C106.326 291.998 115.926 296.253 125.041 299.366C134.17 302.465 142.843 304.408 150.659 305.393C152.614 305.636 154.525 305.807 156.379 305.921C157.292 305.978 158.248 306.007 159.104 306.021C160.031 306.021 160.93 306.021 161.8 305.978C165.309 305.836 168.59 305.264 171.442 304.208C174.31 303.165 176.692 301.609 178.46 299.981C180.243 298.353 181.442 296.696 182.312 295.325C183.168 293.954 183.71 292.854 184.066 292.112C184.409 291.369 184.58 290.984 184.58 290.984C185.079 289.856 184.58 288.556 183.467 288.056C182.355 287.556 181.057 288.056 180.557 289.17L180.529 289.241C180.529 289.241 180.372 289.584 180.087 290.241C179.787 290.898 179.316 291.841 178.603 292.997C177.191 295.268 174.666 298.41 169.945 300.166C167.605 301.037 164.767 301.566 161.6 301.723C160.801 301.766 159.988 301.78 159.175 301.78C158.291 301.78 157.478 301.751 156.593 301.709C154.839 301.623 153.027 301.466 151.144 301.266C143.627 300.395 135.183 298.595 126.282 295.654C117.381 292.712 107.995 288.656 98.7517 283.158C89.5227 277.66 80.4078 270.748 72.3057 262.265C68.2404 258.038 64.4461 253.426 60.9514 248.499C57.4994 243.543 54.3328 238.302 51.6083 232.761C48.8838 227.235 46.5302 221.451 44.5903 215.51C42.6646 209.555 41.1526 203.443 39.9972 197.26C38.8561 191.076 38.0858 184.821 37.6579 178.552C37.2442 172.311 37.0873 166.014 37.3726 159.844C37.9146 147.477 40.5107 135.439 44.4334 124.314C46.3733 118.745 48.7269 113.418 51.323 108.362C53.9334 103.321 56.7434 98.4945 59.8103 94.0246C65.9011 85.0564 72.6624 77.2877 79.5092 70.7471C86.3133 64.1638 93.2029 58.8228 99.5648 54.4957C105.927 50.1687 111.775 46.8413 116.696 44.3136C121.632 41.8145 125.597 40.058 128.336 38.9155C131.089 37.8016 132.558 37.2018 132.558 37.2018C132.786 37.1162 132.886 36.8591 132.8 36.6306L132.829 36.5735ZM185.307 306.15C183.795 308.006 184.195 312.076 187.604 315.247C190.842 318.246 195.606 319.331 200.898 319.802C202.168 319.916 202.239 319.445 201.64 318.403C198.887 313.576 199.286 311.291 196.547 308.092C193.809 304.893 187.261 303.722 185.307 306.15ZM202.139 296.253C203.409 292.812 202.139 291.141 202.196 287.014C202.239 284.686 201.469 285.1 200.385 285.8C196.833 288.07 194.008 290.741 192.81 294.04C191.512 297.596 192.953 300.552 194.978 301.366C197.004 302.194 200.87 299.695 202.139 296.253ZM206.861 302.58C205.605 304.565 206.461 308.478 210.141 311.162C213.636 313.704 218.4 314.204 223.607 314.047C224.848 314.004 224.876 313.547 224.177 312.605C220.939 308.22 221.068 305.964 218.029 303.165C214.991 300.366 208.501 299.995 206.861 302.58ZM222.023 291.069C222.908 287.613 221.51 286.128 221.182 282.115C220.996 279.859 220.298 280.33 219.313 281.116C216.09 283.658 213.622 286.528 212.78 289.841C211.882 293.411 213.55 296.139 215.59 296.725C217.63 297.324 221.139 294.525 222.023 291.084V291.069ZM225.689 296.753C224.719 298.838 226.046 302.523 229.954 304.665C233.663 306.692 238.356 306.578 243.391 305.764C244.59 305.564 244.561 305.122 243.762 304.293C240.068 300.452 239.897 298.238 236.602 295.911C233.307 293.583 226.945 294.04 225.689 296.753ZM238.912 283.729C239.412 280.287 237.9 279.002 237.144 275.161C236.716 273.004 236.102 273.533 235.232 274.39C232.394 277.189 230.297 280.23 229.84 283.515C229.341 287.057 231.252 289.513 233.292 289.87C235.332 290.227 238.413 287.156 238.912 283.715V283.729ZM242.25 288.785C241.594 290.941 243.377 294.34 247.457 295.882C251.322 297.339 255.858 296.596 260.637 295.139C261.778 294.797 261.678 294.354 260.794 293.654C256.7 290.427 256.243 288.299 252.72 286.485C249.211 284.672 243.106 285.971 242.25 288.77V288.785ZM253.291 274.461C253.376 271.076 251.764 270.005 250.609 266.392C249.953 264.35 249.411 264.936 248.669 265.864C246.244 268.892 244.575 272.076 244.504 275.304C244.433 278.788 246.558 280.944 248.569 281.044C250.581 281.159 253.219 277.831 253.305 274.461H253.291ZM256.671 278.902C256.329 281.087 258.54 284.115 262.705 285.043C266.656 285.914 270.95 284.557 275.358 282.472C276.413 281.973 276.256 281.573 275.3 281.016C270.879 278.46 270.137 276.475 266.471 275.218C262.819 273.961 257.099 276.075 256.657 278.902H256.671ZM265.316 263.565C265.002 260.295 263.319 259.452 261.764 256.096C260.894 254.211 260.437 254.839 259.838 255.825C257.855 259.038 256.614 262.308 256.928 265.421C257.27 268.792 259.581 270.619 261.535 270.477C263.49 270.348 265.644 266.835 265.316 263.565ZM269.994 267.264C269.98 269.42 272.548 272.048 276.713 272.347C280.664 272.619 284.615 270.691 288.581 268.049C289.536 267.421 289.322 267.049 288.324 266.649C283.674 264.807 282.675 262.994 278.952 262.294C275.229 261.594 269.994 264.465 269.98 267.264H269.994ZM276.156 251.312C275.457 248.199 273.731 247.585 271.834 244.529C270.764 242.815 270.408 243.472 269.937 244.5C268.411 247.842 267.612 251.126 268.282 254.111C269.01 257.31 271.463 258.795 273.332 258.438C275.201 258.081 276.841 254.425 276.156 251.312ZM281.42 254.111C281.705 256.196 284.558 258.367 288.638 258.067C292.489 257.781 296.041 255.353 299.507 252.226C300.334 251.483 300.078 251.155 299.065 250.912C294.315 249.798 293.088 248.185 289.394 248.027C285.699 247.885 281.049 251.398 281.42 254.111ZM285.129 237.902C284.087 234.975 282.361 234.589 280.165 231.862C278.938 230.334 278.653 231.019 278.339 232.047C277.255 235.446 276.87 238.716 277.868 241.515C278.952 244.514 281.491 245.657 283.246 245.1C285 244.543 286.17 240.816 285.129 237.902ZM290.82 239.659C291.391 241.644 294.443 243.343 298.337 242.501C302.032 241.687 305.127 238.859 308.066 235.36C308.764 234.518 308.479 234.247 307.452 234.147C302.702 233.718 301.304 232.319 297.695 232.69C294.101 233.047 290.078 237.088 290.82 239.659ZM292.204 223.579C290.877 220.88 289.165 220.694 286.755 218.309C285.4 216.967 285.214 217.667 285.014 218.695C284.344 222.094 284.344 225.293 285.614 227.877C286.997 230.648 289.565 231.476 291.191 230.734C292.831 229.991 293.53 226.278 292.204 223.579ZM298.195 224.179C298.993 226.021 302.174 227.278 305.84 225.95C309.307 224.679 311.931 221.537 314.313 217.767C314.884 216.867 314.57 216.639 313.557 216.681C308.907 216.881 307.367 215.725 303.929 216.539C300.505 217.353 297.139 221.794 298.18 224.179H298.195ZM297.467 208.541C295.912 206.071 294.229 206.071 291.647 204.014C290.207 202.858 290.093 203.543 290.007 204.571C289.722 207.927 290.035 211.012 291.533 213.383C293.159 215.924 295.727 216.453 297.225 215.567C298.737 214.682 299.022 211.026 297.467 208.556V208.541ZM303.572 207.927C304.571 209.612 307.809 210.426 311.189 208.684C314.385 207.028 316.553 203.657 318.379 199.716C318.821 198.773 318.478 198.588 317.508 198.745C313.029 199.516 311.403 198.588 308.18 199.802C304.956 201.015 302.246 205.728 303.558 207.913L303.572 207.927ZM300.976 192.99C299.236 190.748 297.61 190.905 294.928 189.177C293.416 188.206 293.373 188.877 293.388 189.862C293.43 193.133 294.029 196.089 295.698 198.231C297.51 200.53 300.035 200.801 301.404 199.802C302.773 198.802 302.716 195.232 300.976 193.004V192.99ZM306.91 191.162C308.08 192.676 311.303 193.09 314.385 191.005C317.294 189.034 318.992 185.507 320.304 181.48C320.618 180.523 320.276 180.38 319.363 180.651C315.126 181.922 313.429 181.208 310.448 182.765C307.466 184.321 305.398 189.191 306.924 191.162H306.91ZM302.716 177.11C300.834 175.096 299.293 175.396 296.54 173.939C294.985 173.125 295.014 173.782 295.114 174.739C295.442 177.895 296.269 180.708 298.081 182.636C300.02 184.707 302.502 184.736 303.729 183.65C304.97 182.565 304.599 179.123 302.716 177.11ZM308.222 174.139C309.52 175.482 312.701 175.524 315.44 173.168C318.036 170.926 319.291 167.342 320.119 163.3C320.319 162.329 319.962 162.229 319.106 162.6C315.141 164.3 313.415 163.8 310.704 165.628C307.994 167.47 306.525 172.411 308.222 174.154V174.139ZM302.674 161.087C300.691 159.287 299.222 159.687 296.44 158.502C294.871 157.845 294.942 158.473 295.114 159.387C295.684 162.415 296.711 165.071 298.608 166.799C300.648 168.641 303.059 168.484 304.157 167.342C305.27 166.199 304.642 162.886 302.674 161.087ZM307.581 157.102C308.978 158.259 312.06 157.959 314.456 155.389C316.724 152.947 317.566 149.334 317.936 145.335C318.022 144.378 317.68 144.321 316.881 144.764C313.215 146.835 311.503 146.52 309.078 148.591C306.653 150.662 305.755 155.603 307.581 157.102ZM300.905 145.135C298.851 143.536 297.453 144.036 294.671 143.093C293.102 142.565 293.216 143.179 293.459 144.05C294.229 146.935 295.413 149.434 297.382 150.976C299.493 152.618 301.803 152.29 302.802 151.09C303.801 149.905 302.945 146.735 300.905 145.135ZM305.042 140.608C306.511 141.579 309.463 140.98 311.517 138.238C313.472 135.639 313.9 132.068 313.857 128.141C313.857 127.199 313.5 127.184 312.787 127.698C309.449 130.069 307.766 129.955 305.626 132.211C303.487 134.468 303.13 139.337 305.042 140.608ZM297.453 129.798C295.356 128.384 294.029 128.969 291.276 128.241C289.722 127.827 289.879 128.413 290.164 129.255C291.105 132.011 292.432 134.353 294.443 135.696C296.611 137.138 298.822 136.667 299.707 135.439C300.591 134.21 299.55 131.212 297.453 129.798ZM300.605 125.242C302.132 126.042 304.913 125.142 306.639 122.286C308.265 119.573 308.308 116.074 307.866 112.29C307.766 111.39 307.424 111.404 306.782 111.975C303.801 114.617 302.16 114.674 300.32 117.059C298.48 119.459 298.637 124.214 300.62 125.242H300.605ZM292.261 115.631C290.135 114.389 288.88 115.046 286.17 114.517C284.644 114.218 284.829 114.774 285.157 115.574C286.255 118.188 287.682 120.372 289.722 121.558C291.918 122.814 294.029 122.215 294.814 120.972C295.599 119.73 294.386 116.874 292.275 115.646L292.261 115.631ZM294.343 110.39C295.898 111.004 298.508 109.862 299.864 106.92C301.147 104.135 300.848 100.751 300.02 97.1378C299.821 96.281 299.507 96.3238 298.936 96.9379C296.326 99.794 294.743 100.023 293.202 102.522C291.676 105.021 292.303 109.605 294.329 110.39H294.343ZM285.4 102.036C283.26 100.965 282.09 101.679 279.409 101.336C277.897 101.151 278.111 101.679 278.496 102.422C279.722 104.892 281.249 106.92 283.303 107.948C285.514 109.034 287.539 108.32 288.21 107.063C288.88 105.806 287.539 103.107 285.4 102.036ZM286.384 96.281C287.953 96.7094 290.335 95.3385 291.348 92.3538C292.303 89.5262 291.647 86.2845 290.478 82.9C290.192 82.086 289.893 82.1717 289.408 82.8286C287.183 85.8561 285.685 86.2417 284.458 88.8122C283.246 91.3827 284.33 95.7383 286.37 96.2953L286.384 96.281ZM277.012 89.1978C274.858 88.2981 273.774 89.055 271.135 88.8979C269.666 88.8122 269.909 89.312 270.308 90.0118C271.649 92.3252 273.275 94.2246 275.343 95.0814C277.554 95.9954 279.48 95.1671 280.065 93.8961C280.65 92.6251 279.166 90.0975 277.012 89.1978ZM276.812 82.9714C278.367 83.2142 280.521 81.629 281.177 78.6444C281.791 75.8168 280.807 72.7607 279.323 69.619C278.966 68.8621 278.681 68.9763 278.296 69.6618C276.484 72.8178 275.072 73.3605 274.174 75.9739C273.289 78.5872 274.801 82.6572 276.827 82.9714H276.812ZM267.141 77.202C264.987 76.4594 263.975 77.2877 261.407 77.302C259.966 77.302 260.237 77.7875 260.68 78.4444C262.149 80.6151 263.846 82.3431 265.915 83.0428C268.126 83.7854 269.951 82.8572 270.422 81.5862C270.907 80.3152 269.295 77.9446 267.156 77.202H267.141ZM265.715 70.3758C267.241 70.433 269.138 68.6622 269.424 65.7203C269.695 62.9356 268.411 60.108 266.614 57.2519C266.186 56.5664 265.915 56.7092 265.629 57.409C264.246 60.6507 262.948 61.3362 262.377 63.9495C261.821 66.5629 263.746 70.3187 265.715 70.3901V70.3758ZM255.887 65.9488C253.733 65.3776 252.806 66.2487 250.295 66.4344C248.883 66.5486 249.183 66.9913 249.668 67.5911C251.237 69.6047 253.02 71.1756 255.074 71.7182C257.285 72.2895 258.996 71.2612 259.367 69.9903C259.752 68.7193 258.026 66.5201 255.873 65.9488H255.887ZM253.148 59.1227C254.617 58.9941 256.229 57.0663 256.158 54.1958C256.087 51.4825 254.517 48.9263 252.449 46.3986C251.95 45.7988 251.722 45.9559 251.522 46.6699C250.581 49.9545 249.411 50.7542 249.183 53.339C248.954 55.9238 251.251 59.294 253.162 59.1227H253.148ZM243.334 56.0523C241.195 55.6525 240.339 56.5664 237.914 56.9377C236.544 57.1519 236.873 57.5661 237.372 58.123C239.055 59.9795 240.895 61.379 242.949 61.7646C245.146 62.1645 246.743 61.0363 247.029 59.7653C247.314 58.4943 245.46 56.4665 243.32 56.0666L243.334 56.0523ZM239.169 49.4547C240.567 49.1405 241.865 47.0983 241.437 44.3565C241.023 41.7717 239.198 39.5153 236.901 37.3446C236.345 36.8305 236.145 37.0162 236.045 37.7159C235.546 40.9862 234.533 41.9002 234.633 44.3993C234.747 46.8984 237.358 49.8402 239.169 49.4404V49.4547ZM229.526 47.7267C227.401 47.4982 226.645 48.455 224.292 49.012C222.979 49.3261 223.322 49.6974 223.864 50.2115C225.647 51.8967 227.572 53.1248 229.612 53.339C231.794 53.5675 233.264 52.3251 233.435 51.0684C233.62 49.7974 231.652 47.9695 229.526 47.741V47.7267ZM223.849 41.5574C225.147 41.0862 226.117 38.9441 225.347 36.3878C224.62 33.9601 222.566 32.0465 220.084 30.2757C219.484 29.8473 219.313 30.0615 219.313 30.747C219.27 33.9458 218.415 34.9455 218.843 37.3304C219.27 39.7152 222.166 42.1858 223.849 41.5717V41.5574ZM214.549 41.1433C212.452 41.0862 211.782 42.1001 209.528 42.8141C208.258 43.2283 208.629 43.571 209.2 44.028C211.083 45.5417 213.066 46.5842 215.077 46.6271C217.231 46.6699 218.572 45.3418 218.643 44.0851C218.714 42.8284 216.646 41.1861 214.549 41.1433ZM209.685 37.1162C210.127 36.1308 209.628 34.5885 207.959 33.7745C206.404 33.0176 204.493 33.0319 202.467 33.446C201.84 33.5745 201.44 33.6888 202.239 34.5028C203.68 35.9451 203.794 36.9733 205.406 37.7588C207.032 38.5442 209.243 38.1015 209.685 37.1304V37.1162ZM209.043 36.5735C208.957 36.802 209.057 37.059 209.285 37.159C209.285 37.159 210.755 37.7588 213.508 38.8727C216.246 40.0151 220.198 41.7717 225.147 44.2708C230.054 46.7985 235.903 50.1258 242.279 54.4529C248.641 58.7799 255.53 64.1209 262.334 70.7043C269.181 77.2448 275.942 85.0278 282.033 93.9818C285.1 98.4517 287.91 103.264 290.52 108.32C293.117 113.375 295.47 118.702 297.41 124.271C301.319 135.396 303.929 147.434 304.471 159.801C304.756 165.956 304.599 172.268 304.186 178.509C303.758 184.764 302.987 191.033 301.846 197.217C300.705 203.4 299.193 209.512 297.253 215.468C295.313 221.408 292.96 227.192 290.235 232.719C287.511 238.245 284.344 243.5 280.892 248.456C277.397 253.383 273.603 257.995 269.538 262.222C261.436 270.705 252.321 277.617 243.092 283.115C233.849 288.613 224.463 292.669 215.562 295.611C206.661 298.552 198.216 300.352 190.699 301.223C188.816 301.437 187.005 301.58 185.25 301.666C184.366 301.709 183.538 301.737 182.668 301.737C181.855 301.737 181.042 301.737 180.258 301.68C177.091 301.523 174.252 300.994 171.913 300.123C167.192 298.367 164.681 295.225 163.269 292.954C162.556 291.798 162.085 290.855 161.785 290.198C161.486 289.541 161.343 289.199 161.343 289.199L161.315 289.127C160.816 287.999 159.503 287.514 158.391 288.013C157.278 288.513 156.793 289.827 157.292 290.941C157.292 290.941 157.463 291.326 157.806 292.069C158.148 292.812 158.704 293.911 159.56 295.282C160.43 296.639 161.629 298.31 163.412 299.938C165.18 301.566 167.563 303.122 170.43 304.165C173.297 305.222 176.578 305.779 180.072 305.936C180.942 305.964 181.841 305.978 182.768 305.978C183.624 305.978 184.58 305.936 185.493 305.878C187.347 305.764 189.258 305.593 191.213 305.35C199.029 304.379 207.702 302.437 216.831 299.324C225.946 296.21 235.546 291.955 245.003 286.228C254.432 280.487 263.732 273.304 271.991 264.507C276.142 260.123 279.993 255.339 283.531 250.255C287.04 245.143 290.235 239.716 292.974 234.018C295.727 228.32 298.066 222.394 300.006 216.296C301.918 210.198 303.415 203.957 304.514 197.66C305.612 191.362 306.34 184.993 306.71 178.638C307.081 172.268 307.181 165.956 306.825 159.644C306.154 147.035 303.401 134.81 299.322 123.543C297.296 117.902 294.857 112.518 292.175 107.42C289.479 102.322 286.598 97.4663 283.445 92.9822C277.198 83.9568 270.294 76.1595 263.333 69.619C256.4 63.0356 249.411 57.7089 242.963 53.4104C236.516 49.1119 230.596 45.8131 225.632 43.2997C220.654 40.8291 216.617 39.0869 213.864 37.973C211.097 36.8734 209.628 36.2879 209.628 36.2879C209.4 36.2022 209.143 36.3022 209.057 36.5306L209.043 36.5735Z" fill="url(#paint0_linear_1_101)"/>
</g>
<path d="M280.606 167.198C280.606 227.834 231.508 277.002 170.928 277.002C110.348 277.002 61.25 227.848 61.25 167.198C61.25 106.548 110.362 57.4082 170.942 57.4082C231.523 57.4082 280.62 106.562 280.62 167.212L280.606 167.198Z" fill="url(#paint1_linear_1_101)" stroke="url(#paint2_linear_1_101)" stroke-width="6" stroke-miterlimit="10"/>
<g filter="url(#filter1_d_1_101)">
<path d="M185.207 15.0227C185.149 14.8228 185.078 14.6085 184.993 14.4229C184.95 14.3229 184.893 14.2372 184.836 14.123C184.836 14.0944 184.807 14.0659 184.793 14.0516L184.75 13.9945L184.707 13.9374C184.707 13.9374 184.679 13.9088 184.693 13.9088V13.8802L184.664 13.8517C184.422 13.5232 184.108 13.2376 183.766 13.0234C183.409 12.8092 183.01 12.6807 182.625 12.6521C182.24 12.6235 181.869 12.6807 181.555 12.7663C181.241 12.852 180.941 12.9948 180.685 13.1234C180.428 13.2662 180.2 13.4232 180 13.5661C179.701 13.7945 179.458 14.0088 179.258 14.223C179.301 13.2376 179.33 12.3094 179.33 11.4668H162.612C162.612 12.3236 162.64 13.2519 162.697 14.2515C162.484 14.0373 162.241 13.8088 161.927 13.5803C161.728 13.4233 161.499 13.2804 161.243 13.1376C160.986 12.9948 160.701 12.8663 160.372 12.7806C160.059 12.6949 159.688 12.6378 159.303 12.6664C158.917 12.6949 158.518 12.8235 158.161 13.0377C157.805 13.2519 157.505 13.5375 157.263 13.866L157.234 13.8945V13.9231L157.22 13.9516L157.177 14.0088L157.134 14.0659C157.134 14.0659 157.106 14.123 157.092 14.1373C157.02 14.2372 156.978 14.3372 156.935 14.4372C156.835 14.6371 156.778 14.837 156.721 15.037C156.621 15.4511 156.578 15.8652 156.578 16.2937C156.578 16.7221 156.621 17.1219 156.692 17.5361C156.764 17.9502 156.863 18.3501 156.992 18.7357C157.12 19.1212 157.263 19.5068 157.42 19.8924C157.748 20.6493 158.133 21.3633 158.575 22.0345C158.789 22.363 159.017 22.6914 159.246 23.0056C159.488 23.3198 159.716 23.6197 159.973 23.9053C160.216 24.1909 160.472 24.4622 160.729 24.7193C160.986 24.9763 161.228 25.2191 161.485 25.4619C161.742 25.6904 161.984 25.9188 162.241 26.1188C162.498 26.3187 162.74 26.5186 162.969 26.7043C163.439 27.0613 163.896 27.3755 164.309 27.6325C164.723 27.8896 165.08 28.1038 165.379 28.2752C165.522 28.3608 165.664 28.4322 165.779 28.5036C166.649 30.3458 167.719 31.8025 169.017 32.5879V36.5722C169.017 38.2431 168.36 39.1856 167.99 39.6283C167.619 40.0567 167.062 40.4137 166.977 40.9421C165.707 40.9421 165.622 41.2563 165.622 42.0989V43.2984C165.622 43.2984 165.679 43.4984 165.893 43.4984H176.12C176.334 43.4984 176.405 43.2984 176.405 43.2984V42.0989C176.405 41.2563 176.306 40.9421 175.05 40.9421C174.965 40.4137 174.408 40.0567 174.038 39.6283C173.667 39.1999 172.996 38.2573 172.996 36.5722V32.845C174.565 32.1309 175.764 30.4458 176.691 28.2609C176.976 28.0895 177.318 27.8896 177.704 27.6468C178.117 27.3898 178.559 27.0756 179.044 26.7186C179.287 26.5329 179.529 26.3473 179.772 26.1331C180.014 25.9188 180.271 25.7046 180.528 25.4761C180.785 25.2477 181.041 25.0049 181.284 24.7335C181.541 24.4765 181.783 24.2052 182.04 23.9195C182.282 23.6339 182.525 23.334 182.753 23.0199C182.981 22.7057 183.21 22.3772 183.423 22.0488C183.851 21.3776 184.251 20.6636 184.579 19.9067C184.736 19.5354 184.878 19.1498 185.007 18.7499C185.135 18.3644 185.235 17.9502 185.306 17.5504C185.378 17.1505 185.42 16.7364 185.42 16.3079C185.42 15.8795 185.378 15.4654 185.278 15.0512L185.207 15.0227ZM164.68 26.9899C164.309 26.7043 163.896 26.3615 163.468 25.9902C163.04 25.6047 162.583 25.1762 162.127 24.705C161.67 24.2337 161.214 23.7196 160.772 23.1627C160.544 22.8913 160.33 22.5914 160.116 22.3058C159.902 22.0059 159.702 21.706 159.502 21.3919C159.117 20.7635 158.746 20.0923 158.461 19.4069C158.161 18.7214 157.933 18.0073 157.805 17.3076C157.734 16.9506 157.705 16.6078 157.691 16.2651C157.691 15.9224 157.705 15.5939 157.776 15.294C157.805 15.1512 157.848 15.0084 157.919 14.8656C157.947 14.8085 157.976 14.7371 158.005 14.6799C158.005 14.6799 158.005 14.6514 158.033 14.6371L158.062 14.58L158.09 14.5229L158.104 14.4943C158.276 14.2515 158.475 14.0516 158.689 13.9088C158.903 13.766 159.131 13.6803 159.374 13.6375C159.616 13.6089 159.873 13.6232 160.116 13.666C160.615 13.7803 161.057 13.9945 161.442 14.2372C161.813 14.48 162.127 14.7228 162.369 14.9513C162.526 15.0941 162.655 15.2226 162.755 15.3369C163.068 19.2926 163.853 23.891 165.279 27.4183C165.094 27.2898 164.894 27.1327 164.694 26.9756L164.68 26.9899ZM184.208 16.2651C184.208 16.6078 184.165 16.9506 184.094 17.3076C183.966 18.0073 183.723 18.7214 183.438 19.4069C183.138 20.0923 182.782 20.7635 182.396 21.3919C182.197 21.706 181.997 22.0202 181.783 22.3058C181.569 22.6057 181.355 22.8913 181.127 23.1627C180.685 23.7196 180.214 24.2337 179.758 24.705C179.301 25.1762 178.845 25.6047 178.417 25.9902C177.989 26.3758 177.575 26.7043 177.204 26.9899C177.147 27.0327 177.09 27.0756 177.047 27.1184C178.303 23.6197 178.93 19.1641 179.173 15.3083C179.273 15.2083 179.387 15.0941 179.515 14.9656C179.758 14.7514 180.057 14.4943 180.442 14.2515C180.813 14.0088 181.27 13.7945 181.755 13.6803C181.997 13.6232 182.254 13.6089 182.496 13.6517C182.739 13.6946 182.967 13.766 183.181 13.9231C183.395 14.0659 183.595 14.2658 183.766 14.5086V14.5371H183.794L183.837 14.5943L183.88 14.6514C183.88 14.6514 183.88 14.6799 183.908 14.6942C183.937 14.7371 183.966 14.8085 183.994 14.8799C184.051 15.0084 184.094 15.1512 184.122 15.3083C184.194 15.6082 184.222 15.9366 184.208 16.2794V16.2651Z" fill="url(#paint3_linear_1_101)"/>
</g>
<path d="M170.947 88.7544C198.3 88.7544 220.473 88.3516 220.473 87.8548C220.473 87.3579 198.3 86.9551 170.947 86.9551C143.595 86.9551 121.422 87.3579 121.422 87.8548C121.422 88.3516 143.595 88.7544 170.947 88.7544Z" fill="url(#paint4_linear_1_101)"/>
<path d="M220.473 246.556C220.473 247.056 198.306 247.456 170.947 247.456C143.589 247.456 121.422 247.056 121.422 246.556C121.422 246.056 143.589 245.656 170.947 245.656C198.306 245.656 220.473 246.056 220.473 246.556Z" fill="url(#paint5_linear_1_101)"/>
<path d="M260.625 339.71H332.545L309.751 296.225L332.545 252.74H260.625V339.71Z" fill="#760001"/>
<path d="M81.2486 339.71H9.32812L32.1367 296.225L9.32812 252.74H81.2486V339.71Z" fill="#760001"/>
<path d="M81.2493 334.556V331.643H13.5653L12.0391 334.556H81.2493Z" fill="url(#paint6_linear_1_101)"/>
<path d="M13.5653 260.795H81.2493V257.896H12.0391L13.5653 260.795Z" fill="url(#paint7_linear_1_101)"/>
<path d="M53.5156 330.014L81.2454 339.71V330.014" fill="#570001"/>
<path d="M260.625 334.556V331.643H328.323L329.849 334.556H260.625Z" fill="url(#paint8_linear_1_101)"/>
<path d="M328.323 260.795H260.625V257.896H329.849L328.323 260.795Z" fill="url(#paint9_linear_1_101)"/>
<path d="M288.369 330.012L260.625 339.708V330.012" fill="#570001"/>
<path d="M288.362 243.043H53.5156V330.012H288.362V243.043Z" fill="url(#paint10_linear_1_101)"/>
<path d="M288.362 321.957H53.5156V324.856H288.362V321.957Z" fill="url(#paint11_linear_1_101)"/>
<path d="M288.362 248.197H53.5156V251.096H288.362V248.197Z" fill="url(#paint12_linear_1_101)"/>
<path d="M72.6719 277.938C72.6719 280.802 72.6094 283.182 72.4844 285.078H73.0156C73.9427 283.922 74.5417 283.344 74.8125 283.344C75.0208 283.344 75.6094 283.75 76.5781 284.562C77.0677 284.99 77.3125 285.302 77.3125 285.5C77.3125 285.708 77.1719 285.812 76.8906 285.812H72.4219C72.349 287.156 72.1771 288.406 71.9062 289.562C75.0625 291.021 76.6406 292.583 76.6406 294.25C76.6406 294.781 76.4688 295.229 76.125 295.594C75.8229 295.896 75.474 296.047 75.0781 296.047C74.4844 296.047 74.0469 295.578 73.7656 294.641C73.2969 292.818 72.625 291.37 71.75 290.297L71.5469 290.969C70.9844 292.833 70.1354 294.427 69 295.75C67.8646 297.073 66.3229 298.297 64.375 299.422C64.3646 299.432 64.349 299.438 64.3281 299.438C64.151 299.438 64.0625 299.349 64.0625 299.172C64.0625 299.151 64.0729 299.125 64.0938 299.094C66.1146 297.104 67.526 295.042 68.3281 292.906C69.0156 291.083 69.4479 288.719 69.625 285.812H66.3594C65.849 285.812 65.2135 285.875 64.4531 286L64.0938 284.812C64.8854 284.99 65.6406 285.078 66.3594 285.078H69.6875C69.7604 283.443 69.7969 281.604 69.7969 279.562V277.938H68.7656C67.7135 279.885 66.2812 281.562 64.4688 282.969C64.4479 282.979 64.4219 282.984 64.3906 282.984C64.2135 282.984 64.125 282.901 64.125 282.734C64.125 282.714 64.1302 282.693 64.1406 282.672C65.5781 280.474 66.6198 277.917 67.2656 275C67.5573 273.708 67.7396 272.469 67.8125 271.281C69.5833 271.677 70.724 271.979 71.2344 272.188C71.7031 272.375 71.9375 272.594 71.9375 272.844C71.9375 273.188 71.5 273.469 70.625 273.688C70.1458 275.031 69.6562 276.203 69.1562 277.203H72.7656C73.6406 276.068 74.2188 275.5 74.5 275.5C74.6979 275.5 75.2708 275.896 76.2188 276.688C76.7083 277.115 76.9531 277.427 76.9531 277.625C76.9531 277.833 76.8177 277.938 76.5469 277.938H72.6719ZM84.375 298.359C85.0729 296.547 85.6302 294.646 86.0469 292.656C86.2448 291.865 86.4062 290.906 86.5312 289.781C89.1979 290.469 90.5312 291.026 90.5312 291.453C90.5312 291.786 90.1875 292 89.5 292.094C88.375 294.229 87 296.318 85.375 298.359H88.8906C90.0469 296.891 90.7604 296.156 91.0312 296.156C91.2396 296.156 91.9479 296.667 93.1562 297.688C93.75 298.229 94.0469 298.594 94.0469 298.781C94.0469 298.99 93.9062 299.094 93.625 299.094H76.9219C76.4427 299.094 75.8385 299.156 75.1094 299.281L74.75 298.109C75.5208 298.276 76.2448 298.359 76.9219 298.359H84.375ZM88.0312 287.766H80.5156V288.281C80.5156 289.042 79.9635 289.422 78.8594 289.422C78.0469 289.422 77.6406 289.115 77.6406 288.5L77.7031 282.453C77.7031 280.911 77.6615 279.536 77.5781 278.328C78.7135 278.818 79.7656 279.297 80.7344 279.766H87.75C88.5729 278.87 89.0938 278.422 89.3125 278.422C89.5417 278.422 90.1198 278.797 91.0469 279.547C91.5156 279.953 91.75 280.26 91.75 280.469C91.75 280.76 91.4479 281.078 90.8438 281.422V282.484L90.9688 288.016C90.9688 288.828 90.4271 289.234 89.3438 289.234C88.4688 289.234 88.0312 288.906 88.0312 288.25V287.766ZM88.0312 287.031V280.5H80.5156V287.031H88.0312ZM93.375 274.781C93.375 274.99 93.2344 275.094 92.9531 275.094H78.75C78.25 275.094 77.6302 275.156 76.8906 275.281L76.5469 274.109C77.3385 274.276 78.0729 274.359 78.75 274.359H88.375C89.4271 272.953 90.0885 272.25 90.3594 272.25C90.5885 272.25 91.2969 272.74 92.4844 273.719C93.0781 274.229 93.375 274.583 93.375 274.781ZM83.5156 294.797C83.5156 296.099 82.9219 296.75 81.7344 296.75C81.2448 296.75 80.8958 296.568 80.6875 296.203C80.5104 295.891 80.401 295.359 80.3594 294.609C80.2552 292.797 79.9271 291.38 79.375 290.359C79.3646 290.339 79.3594 290.318 79.3594 290.297C79.3594 290.182 79.4271 290.125 79.5625 290.125C79.5833 290.125 79.6042 290.13 79.625 290.141C80.9375 290.734 81.9479 291.505 82.6562 292.453C83.2292 293.234 83.5156 294.016 83.5156 294.797ZM112.497 291.156H112.653C113.414 290.042 113.94 289.484 114.231 289.484C114.44 289.484 114.929 289.87 115.7 290.641C115.731 290.672 115.783 290.729 115.856 290.812C115.908 290.885 115.95 290.938 115.981 290.969C116.304 288.469 116.466 284.786 116.466 279.922C116.466 276.536 116.403 273.823 116.278 271.781C117.414 272.333 118.544 272.943 119.669 273.609H123.95C124.804 272.609 125.351 272.109 125.591 272.109C125.809 272.109 126.414 272.505 127.403 273.297C127.893 273.693 128.138 274 128.138 274.219C128.138 274.427 127.861 274.734 127.309 275.141V278.766L127.403 297.203C127.403 298.005 127.299 298.609 127.091 299.016C126.903 299.38 126.58 299.693 126.122 299.953C125.466 300.339 124.69 300.531 123.794 300.531C123.523 300.531 123.346 300.479 123.263 300.375C123.179 300.271 123.111 300.047 123.059 299.703C122.976 299.13 122.679 298.682 122.169 298.359C121.721 298.089 121.002 297.833 120.013 297.594C119.929 297.573 119.888 297.5 119.888 297.375C119.888 297.26 119.929 297.203 120.013 297.203C121.846 297.245 123.117 297.266 123.825 297.266C124.075 297.266 124.236 297.229 124.309 297.156C124.372 297.083 124.403 296.948 124.403 296.75V288.875H118.794C118.606 290.281 118.351 291.552 118.028 292.688C117.184 295.531 115.434 298.125 112.778 300.469C112.757 300.49 112.726 300.5 112.684 300.5C112.539 300.5 112.466 300.438 112.466 300.312C112.466 300.292 112.471 300.271 112.481 300.25C113.44 298.906 114.174 297.578 114.684 296.266C115.164 295.026 115.544 293.568 115.825 291.891H101.2C100.763 291.891 100.205 291.953 99.5281 292.078L99.1844 290.906C99.8615 291.073 100.513 291.156 101.138 291.156H102.544V277.703H101.716C101.268 277.703 100.721 277.766 100.075 277.891L99.7313 276.719C100.408 276.885 101.049 276.969 101.653 276.969H102.544V275.203C102.544 274.63 102.502 273.448 102.419 271.656C104.95 271.917 106.216 272.25 106.216 272.656C106.216 272.948 105.908 273.193 105.294 273.391V276.969H109.747V275.375C109.747 274.062 109.705 272.823 109.622 271.656C112.132 271.885 113.388 272.182 113.388 272.547C113.388 272.849 113.091 273.12 112.497 273.359V276.969H112.841C113.601 275.885 114.127 275.344 114.419 275.344C114.627 275.344 115.085 275.724 115.794 276.484C116.158 276.891 116.341 277.193 116.341 277.391C116.341 277.599 116.2 277.703 115.919 277.703H112.497V291.156ZM109.747 286.219V282.344H105.294V286.219H109.747ZM109.747 286.953H105.294V291.156H109.747V286.953ZM109.747 277.703H105.294V281.609H109.747V277.703ZM124.403 280.656V274.344H119.278V280.656H124.403ZM119.247 281.391C119.205 284.193 119.085 286.443 118.888 288.141H124.403V281.391H119.247ZM113.263 296.562C113.263 297.052 113.096 297.464 112.763 297.797C112.481 298.078 112.148 298.219 111.763 298.219C111.106 298.219 110.627 297.698 110.325 296.656C110.002 295.49 109.247 294.411 108.059 293.422C108.028 293.401 108.013 293.375 108.013 293.344C108.013 293.177 108.091 293.109 108.247 293.141C111.591 293.682 113.263 294.823 113.263 296.562ZM107.184 294.734C107.184 295.036 106.815 295.219 106.075 295.281C104.45 297.781 102.231 299.62 99.4188 300.797C99.3979 300.807 99.3771 300.812 99.3563 300.812C99.2 300.812 99.1219 300.75 99.1219 300.625C99.1219 300.594 99.1323 300.568 99.1531 300.547C100.674 299.224 101.893 297.562 102.809 295.562C103.226 294.635 103.492 293.786 103.606 293.016C105.992 293.901 107.184 294.474 107.184 294.734ZM146.931 278.922C146.494 282.672 145.749 285.828 144.697 288.391C146.311 290.589 147.119 292.432 147.119 293.922C147.119 294.526 146.978 295.01 146.697 295.375C146.457 295.688 146.15 295.844 145.775 295.844C145.306 295.844 144.957 295.651 144.728 295.266C144.53 294.932 144.249 294.177 143.884 293C143.707 292.427 143.499 291.839 143.259 291.234C141.311 294.526 138.426 297.177 134.603 299.188C134.603 299.198 134.593 299.203 134.572 299.203C134.52 299.203 134.457 299.161 134.384 299.078C134.322 299.005 134.291 298.938 134.291 298.875C134.291 298.854 134.301 298.833 134.322 298.812C137.697 295.969 140.197 292.411 141.822 288.141C140.78 286.266 139.186 284.021 137.041 281.406C137.03 281.385 137.025 281.365 137.025 281.344C137.025 281.156 137.119 281.062 137.306 281.062C137.327 281.062 137.348 281.068 137.369 281.078C139.369 282.661 141.108 284.245 142.588 285.828C143.213 283.714 143.645 281.411 143.884 278.922H137.181C136.64 278.922 135.968 278.984 135.166 279.109L134.806 277.938C135.629 278.104 136.41 278.188 137.15 278.188H140.666V274.25C140.666 273.469 140.603 272.682 140.478 271.891C143.197 272.141 144.556 272.479 144.556 272.906C144.556 273.177 144.239 273.464 143.603 273.766V278.188H145.525C146.588 276.927 147.249 276.297 147.509 276.297C147.728 276.297 148.327 276.734 149.306 277.609C149.817 278.089 150.072 278.422 150.072 278.609C150.072 278.818 149.931 278.922 149.65 278.922H146.931ZM159.759 280.5V288.562L159.853 297.172C159.853 297.943 159.77 298.516 159.603 298.891C159.457 299.214 159.186 299.526 158.791 299.828C158.145 300.359 157.285 300.625 156.213 300.625C155.9 300.625 155.692 300.557 155.588 300.422C155.494 300.307 155.431 300.089 155.4 299.766C155.358 299.13 155.046 298.635 154.463 298.281C153.963 297.958 153.072 297.62 151.791 297.266C151.707 297.245 151.666 297.161 151.666 297.016C151.666 296.88 151.707 296.812 151.791 296.812C153.728 296.969 155.244 297.047 156.338 297.047C156.64 297.047 156.791 296.875 156.791 296.531V280.5H151.869C151.223 280.5 150.421 280.562 149.463 280.688L149.103 279.516C150.072 279.682 150.973 279.766 151.806 279.766H156.791V275.953C156.77 274.193 156.697 272.786 156.572 271.734C158.53 271.953 159.723 272.12 160.15 272.234C160.546 272.339 160.744 272.5 160.744 272.719C160.744 273 160.416 273.292 159.759 273.594V279.766H160.338C161.202 278.484 161.78 277.844 162.072 277.844C162.28 277.844 162.832 278.292 163.728 279.188C164.176 279.667 164.4 280 164.4 280.188C164.4 280.396 164.259 280.5 163.978 280.5H159.759ZM154.931 289.672C154.931 290.276 154.754 290.771 154.4 291.156C154.098 291.49 153.733 291.656 153.306 291.656C152.806 291.656 152.436 291.495 152.197 291.172C151.989 290.88 151.832 290.411 151.728 289.766C151.343 287.328 150.577 285.276 149.431 283.609C149.41 283.589 149.4 283.562 149.4 283.531C149.4 283.406 149.463 283.344 149.588 283.344C149.608 283.344 149.629 283.349 149.65 283.359C151.317 284.193 152.645 285.245 153.634 286.516C154.499 287.62 154.931 288.672 154.931 289.672ZM175.834 275.625C174.22 277.812 172.298 279.557 170.069 280.859C170.048 280.87 170.027 280.875 170.006 280.875C169.798 280.875 169.694 280.781 169.694 280.594C169.694 280.573 169.699 280.552 169.709 280.531C171.022 279.125 172.22 277.323 173.303 275.125C174.043 273.562 174.532 272.224 174.772 271.109C177.386 271.901 178.694 272.49 178.694 272.875C178.694 273.229 178.209 273.464 177.241 273.578C176.855 274.172 176.569 274.609 176.381 274.891H180.537C181.485 273.714 182.095 273.125 182.366 273.125C182.584 273.125 183.194 273.542 184.194 274.375C184.704 274.792 184.959 275.104 184.959 275.312C184.959 275.521 184.819 275.625 184.537 275.625H177.569C178.85 276.083 179.741 276.578 180.241 277.109C180.678 277.568 180.897 278.13 180.897 278.797C180.897 279.276 180.735 279.667 180.412 279.969C180.131 280.229 179.793 280.359 179.397 280.359C178.886 280.359 178.537 280.224 178.35 279.953C178.183 279.703 178.048 279.208 177.944 278.469C177.715 277.146 177.329 276.198 176.787 275.625H175.834ZM187.741 275.625C186.907 276.74 185.845 277.755 184.553 278.672C185.699 278.818 186.272 279.042 186.272 279.344C186.272 279.615 185.965 279.87 185.35 280.109V281.172H193.662C194.86 279.786 195.59 279.094 195.85 279.094C196.048 279.094 196.73 279.583 197.897 280.562C198.47 281.052 198.756 281.396 198.756 281.594C198.756 281.802 198.616 281.906 198.334 281.906H185.35V284.438H191.803C192.678 283.5 193.225 283.031 193.444 283.031C193.673 283.031 194.282 283.438 195.272 284.25C195.782 284.677 196.037 284.995 196.037 285.203C196.037 285.516 195.704 285.849 195.037 286.203V286.797L195.1 289.812C195.1 290.375 195.006 290.807 194.819 291.109C194.673 291.349 194.402 291.599 194.006 291.859C193.475 292.224 192.761 292.406 191.866 292.406C191.657 292.406 191.522 292.359 191.459 292.266C191.397 292.182 191.35 292.016 191.319 291.766C191.235 291.203 191.022 290.797 190.678 290.547C190.366 290.328 189.761 290.094 188.866 289.844C188.782 289.823 188.741 289.755 188.741 289.641C188.741 289.516 188.782 289.453 188.866 289.453C190.189 289.505 191.095 289.531 191.584 289.531C191.991 289.531 192.194 289.359 192.194 289.016V285.172H185.35V289.422C186.881 291.214 188.704 292.615 190.819 293.625C193.256 294.792 196.267 295.578 199.85 295.984C199.933 296.005 199.975 296.062 199.975 296.156C199.975 296.26 199.933 296.323 199.85 296.344C199.256 296.531 198.84 296.755 198.6 297.016C198.392 297.255 198.178 297.672 197.959 298.266C197.793 298.734 197.673 299.016 197.6 299.109C197.527 299.203 197.412 299.25 197.256 299.25C196.985 299.25 196.423 299.078 195.569 298.734C193.225 297.828 191.215 296.729 189.537 295.438C188.027 294.229 186.61 292.568 185.287 290.453C185.298 292.109 185.34 294.13 185.412 296.516C185.475 298.38 185.506 299.396 185.506 299.562C185.506 300.375 184.886 300.781 183.647 300.781C182.834 300.781 182.428 300.443 182.428 299.766C182.428 299.37 182.449 298.427 182.491 296.938C182.553 295.125 182.6 293.656 182.631 292.531C179.694 295.74 175.444 298.068 169.881 299.516C169.715 299.547 169.631 299.443 169.631 299.203C169.631 299.151 169.652 299.115 169.694 299.094C175.329 296.667 179.631 292.964 182.6 287.984V285.172H176.6V291.516C176.6 292.339 176.032 292.75 174.897 292.75C174.022 292.75 173.584 292.432 173.584 291.797L173.694 286.266C173.694 284.943 173.636 283.818 173.522 282.891C174.605 283.276 175.725 283.792 176.881 284.438H182.6V281.906H173.631C173.006 281.906 172.246 281.969 171.35 282.094L171.006 280.922C171.881 281.089 172.699 281.172 173.459 281.172H182.6V280.922C182.6 280.13 182.553 279.307 182.459 278.453C182.657 278.464 182.902 278.484 183.194 278.516C183.485 278.547 183.668 278.568 183.741 278.578C184.699 277.099 185.47 275.562 186.053 273.969C186.449 272.885 186.694 271.911 186.787 271.047C189.329 271.703 190.6 272.24 190.6 272.656C190.6 273.031 190.162 273.255 189.287 273.328C189.11 273.641 188.777 274.161 188.287 274.891H193.631C194.756 273.505 195.449 272.812 195.709 272.812C195.918 272.812 196.647 273.292 197.897 274.25C198.532 274.771 198.85 275.125 198.85 275.312C198.85 275.521 198.709 275.625 198.428 275.625H189.662C190.965 276.031 191.881 276.49 192.412 277C192.881 277.438 193.116 277.974 193.116 278.609C193.116 279.099 192.944 279.505 192.6 279.828C192.298 280.099 191.939 280.234 191.522 280.234C191.032 280.234 190.709 280.109 190.553 279.859C190.407 279.641 190.282 279.167 190.178 278.438C189.939 277.115 189.543 276.177 188.991 275.625H187.741ZM218.097 291.156H218.253C219.014 290.042 219.54 289.484 219.831 289.484C220.04 289.484 220.529 289.87 221.3 290.641C221.331 290.672 221.383 290.729 221.456 290.812C221.508 290.885 221.55 290.938 221.581 290.969C221.904 288.469 222.066 284.786 222.066 279.922C222.066 276.536 222.003 273.823 221.878 271.781C223.014 272.333 224.144 272.943 225.269 273.609H229.55C230.404 272.609 230.951 272.109 231.191 272.109C231.409 272.109 232.014 272.505 233.003 273.297C233.493 273.693 233.738 274 233.738 274.219C233.738 274.427 233.461 274.734 232.909 275.141V278.766L233.003 297.203C233.003 298.005 232.899 298.609 232.691 299.016C232.503 299.38 232.18 299.693 231.722 299.953C231.066 300.339 230.29 300.531 229.394 300.531C229.123 300.531 228.946 300.479 228.863 300.375C228.779 300.271 228.711 300.047 228.659 299.703C228.576 299.13 228.279 298.682 227.769 298.359C227.321 298.089 226.602 297.833 225.613 297.594C225.529 297.573 225.488 297.5 225.488 297.375C225.488 297.26 225.529 297.203 225.613 297.203C227.446 297.245 228.717 297.266 229.425 297.266C229.675 297.266 229.836 297.229 229.909 297.156C229.972 297.083 230.003 296.948 230.003 296.75V288.875H224.394C224.206 290.281 223.951 291.552 223.628 292.688C222.784 295.531 221.034 298.125 218.378 300.469C218.357 300.49 218.326 300.5 218.284 300.5C218.139 300.5 218.066 300.438 218.066 300.312C218.066 300.292 218.071 300.271 218.081 300.25C219.04 298.906 219.774 297.578 220.284 296.266C220.764 295.026 221.144 293.568 221.425 291.891H206.8C206.363 291.891 205.805 291.953 205.128 292.078L204.784 290.906C205.461 291.073 206.113 291.156 206.738 291.156H208.144V277.703H207.316C206.868 277.703 206.321 277.766 205.675 277.891L205.331 276.719C206.008 276.885 206.649 276.969 207.253 276.969H208.144V275.203C208.144 274.63 208.102 273.448 208.019 271.656C210.55 271.917 211.816 272.25 211.816 272.656C211.816 272.948 211.508 273.193 210.894 273.391V276.969H215.347V275.375C215.347 274.062 215.305 272.823 215.222 271.656C217.732 271.885 218.988 272.182 218.988 272.547C218.988 272.849 218.691 273.12 218.097 273.359V276.969H218.441C219.201 275.885 219.727 275.344 220.019 275.344C220.227 275.344 220.685 275.724 221.394 276.484C221.758 276.891 221.941 277.193 221.941 277.391C221.941 277.599 221.8 277.703 221.519 277.703H218.097V291.156ZM215.347 286.219V282.344H210.894V286.219H215.347ZM215.347 286.953H210.894V291.156H215.347V286.953ZM215.347 277.703H210.894V281.609H215.347V277.703ZM230.003 280.656V274.344H224.878V280.656H230.003ZM224.847 281.391C224.805 284.193 224.685 286.443 224.488 288.141H230.003V281.391H224.847ZM218.863 296.562C218.863 297.052 218.696 297.464 218.363 297.797C218.081 298.078 217.748 298.219 217.363 298.219C216.706 298.219 216.227 297.698 215.925 296.656C215.602 295.49 214.847 294.411 213.659 293.422C213.628 293.401 213.613 293.375 213.613 293.344C213.613 293.177 213.691 293.109 213.847 293.141C217.191 293.682 218.863 294.823 218.863 296.562ZM212.784 294.734C212.784 295.036 212.415 295.219 211.675 295.281C210.05 297.781 207.831 299.62 205.019 300.797C204.998 300.807 204.977 300.812 204.956 300.812C204.8 300.812 204.722 300.75 204.722 300.625C204.722 300.594 204.732 300.568 204.753 300.547C206.274 299.224 207.493 297.562 208.409 295.562C208.826 294.635 209.092 293.786 209.206 293.016C211.592 293.901 212.784 294.474 212.784 294.734ZM258.172 295.344H251.438V296.469C251.438 296.938 251.286 297.266 250.984 297.453C250.734 297.609 250.328 297.688 249.766 297.688C248.943 297.688 248.531 297.354 248.531 296.688L248.625 290.266C248.625 287.922 248.568 285.917 248.453 284.25C249.464 284.646 250.552 285.167 251.719 285.812H257.781C258.604 284.896 259.125 284.438 259.344 284.438C259.625 284.438 260.193 284.792 261.047 285.5C261.557 285.896 261.812 286.203 261.812 286.422C261.812 286.63 261.516 286.927 260.922 287.312V288.75L260.953 296.016C260.953 296.828 260.406 297.234 259.312 297.234C258.552 297.234 258.172 296.911 258.172 296.266V295.344ZM258.172 294.609V290.766H251.438V294.609H258.172ZM258.172 290.031V286.547H251.438V290.031H258.172ZM265.578 281.812H259.25V281.969C259.25 282.76 258.714 283.156 257.641 283.156C256.797 283.156 256.375 282.839 256.375 282.203L256.438 274.734C256.438 273.411 256.391 272.208 256.297 271.125C257.328 271.562 258.427 272.104 259.594 272.75H265.312C266.177 271.792 266.734 271.312 266.984 271.312C267.214 271.312 267.802 271.698 268.75 272.469C269.24 272.896 269.484 273.214 269.484 273.422C269.484 273.714 269.198 274.021 268.625 274.344V278.188L268.656 297.719C268.656 298.5 268.443 299.141 268.016 299.641C267.453 300.255 266.521 300.562 265.219 300.562C264.865 300.562 264.672 300.411 264.641 300.109C264.557 299.339 264.281 298.781 263.812 298.438C263.396 298.125 262.615 297.823 261.469 297.531C261.396 297.51 261.359 297.432 261.359 297.297C261.359 297.172 261.396 297.109 261.469 297.109C263.083 297.214 264.323 297.266 265.188 297.266C265.448 297.266 265.578 297.115 265.578 296.812V281.812ZM265.578 281.078V277.516H259.25V281.078H265.578ZM265.578 276.781V273.484H259.25V276.781H265.578ZM250.516 281.812H244.312V299.5C244.312 300.333 243.703 300.75 242.484 300.75C241.609 300.75 241.172 300.365 241.172 299.594C241.307 295.542 241.375 290.818 241.375 285.422C241.375 279.578 241.297 274.812 241.141 271.125C242.38 271.625 243.51 272.167 244.531 272.75H250.219C251.062 271.792 251.599 271.312 251.828 271.312C252.047 271.312 252.625 271.688 253.562 272.438C254.031 272.812 254.266 273.109 254.266 273.328C254.266 273.578 253.953 273.896 253.328 274.281V275.562L253.391 282.078C253.391 282.797 252.812 283.156 251.656 283.156C250.896 283.156 250.516 282.844 250.516 282.219V281.812ZM250.516 281.078V277.516H244.312V281.078H250.516ZM250.516 276.781V273.484H244.312V276.781H250.516Z" fill="white"/>
<path d="M142.142 144.767C143.282 144.767 143.852 145.182 143.852 146.011C143.818 147.912 143.731 152.058 143.593 158.45C143.49 162.7 143.438 166.38 143.438 169.49V202.713C143.438 208.242 143.507 211.749 143.645 213.235C143.783 214.582 144.111 215.774 144.63 216.811C145.114 217.847 146.288 218.556 148.154 218.936C148.845 219.074 150.677 219.299 153.648 219.61C154.27 219.679 154.581 220.197 154.581 221.165C154.581 222.167 154.27 222.668 153.648 222.668C148.707 222.46 143.472 222.357 137.944 222.357C132.208 222.357 126.835 222.46 121.825 222.668C121.099 222.668 120.736 222.167 120.736 221.165C120.736 220.197 121.099 219.679 121.825 219.61C124.934 219.368 126.956 219.126 127.889 218.884C129.409 218.504 130.377 217.813 130.791 216.811C131.517 215.325 131.88 210.626 131.88 202.713V164.722C131.88 160.264 131.517 157.552 130.791 156.585C130.411 155.928 129.582 155.6 128.303 155.6C127.267 155.6 126.023 155.807 124.572 156.222L120.425 157.362C120.045 157.466 119.786 157.517 119.648 157.517C119.129 157.517 118.767 157.086 118.559 156.222C118.456 155.773 118.404 155.462 118.404 155.289C118.404 154.874 118.784 154.546 119.544 154.304C126.662 151.713 134.195 148.534 142.142 144.767ZM197.075 205.234C197.101 205.729 196.847 206.185 196.314 206.602C196.092 206.758 195.877 207.279 195.669 208.164C195.643 208.281 195.506 209.023 195.259 210.391C195.09 211.276 194.907 212.135 194.712 212.969C194.1 215.664 193.423 217.982 192.681 219.922C192.004 221.719 191.216 222.975 190.318 223.691C189.536 224.303 188.553 224.609 187.368 224.609C186.887 224.609 186.568 224.518 186.411 224.336C186.268 224.18 186.17 223.887 186.118 223.457C186.027 222.65 185.682 221.992 185.083 221.484C183.963 220.534 183.325 220 183.169 219.883C182.818 219.635 182.642 219.408 182.642 219.199C182.642 219.017 182.778 218.926 183.052 218.926C183.169 218.926 183.514 219.03 184.087 219.238C186.262 219.941 187.472 220.293 187.72 220.293C188.462 220.293 189.061 219.668 189.517 218.418C190.077 217.012 190.721 214.688 191.45 211.445C192.166 208.346 192.525 206.27 192.525 205.215C192.525 204.915 192.381 204.766 192.095 204.766C191.691 204.766 191.086 204.792 190.278 204.844C188.443 205 186.392 205.254 184.126 205.605C182.928 210.085 181.275 213.841 179.165 216.875C176.717 220.365 173.716 222.988 170.161 224.746C169.575 225.046 169.165 225.195 168.931 225.195C168.605 225.195 168.443 225.078 168.443 224.844C168.443 224.701 168.657 224.46 169.087 224.121C172.147 221.686 174.601 218.926 176.45 215.84C178.13 212.975 179.484 209.655 180.513 205.879C179.146 206.139 177.616 206.471 175.923 206.875C175.337 207.018 174.816 207.233 174.36 207.52C174.061 207.702 173.716 207.793 173.325 207.793C172.739 207.793 171.965 207.311 171.001 206.348C170.155 205.501 169.732 204.661 169.732 203.828C169.732 203.034 169.849 202.637 170.083 202.637C170.252 202.637 170.441 202.741 170.65 202.949C171.769 203.991 172.824 204.512 173.814 204.512C173.97 204.512 174.725 204.46 176.079 204.355C178.124 204.121 179.79 203.926 181.079 203.77C181.587 201.309 181.841 199.401 181.841 198.047C181.841 197.565 181.724 197.201 181.489 196.953C181.242 196.758 180.799 196.562 180.161 196.367C179.523 196.185 179.204 196.035 179.204 195.918C179.204 195.749 179.367 195.553 179.693 195.332C180.135 194.98 180.695 194.805 181.372 194.805C182.466 194.805 183.768 195.247 185.278 196.133C186.19 196.654 186.646 197.207 186.646 197.793C186.646 198.288 186.431 198.704 186.001 199.043C185.676 199.329 185.448 199.714 185.318 200.195C185.057 201.406 184.803 202.5 184.556 203.477C185.207 203.398 186.385 203.255 188.091 203.047C189.263 202.904 190.168 202.793 190.806 202.715C191.392 202.637 191.776 202.52 191.958 202.363C192.323 202.038 192.642 201.875 192.915 201.875C193.553 201.875 194.367 202.305 195.357 203.164C196.463 204.128 197.036 204.818 197.075 205.234ZM231.079 213.555H216.646L216.275 215.43C215.103 220.742 212.316 224.863 207.915 227.793C207.889 227.819 207.85 227.832 207.798 227.832C207.616 227.832 207.525 227.754 207.525 227.598C207.525 227.572 207.531 227.546 207.544 227.52C209.015 225.71 210.142 223.893 210.923 222.07C211.652 220.378 212.212 218.431 212.603 216.23C213.137 213.118 213.403 208.483 213.403 202.324C213.403 198.066 213.319 194.688 213.15 192.188C214.803 192.878 216.314 193.639 217.681 194.473H230.728C231.756 193.223 232.42 192.598 232.72 192.598C233.006 192.598 233.794 193.079 235.083 194.043C235.721 194.538 236.04 194.922 236.04 195.195C236.04 195.456 235.682 195.84 234.966 196.348V200.84L235.083 223.594C235.083 224.596 234.953 225.345 234.693 225.84C234.471 226.296 234.081 226.68 233.521 226.992C232.661 227.526 231.62 227.793 230.396 227.793C229.953 227.793 229.666 227.721 229.536 227.578C229.419 227.448 229.328 227.188 229.263 226.797C229.054 225.404 227.538 224.408 224.712 223.809C224.608 223.783 224.556 223.685 224.556 223.516C224.556 223.359 224.608 223.281 224.712 223.281C226.782 223.385 228.664 223.438 230.357 223.438C230.669 223.438 230.871 223.385 230.962 223.281C231.04 223.19 231.079 223.014 231.079 222.754V213.555ZM231.079 212.637V204.277H217.232C217.193 207.741 217.036 210.527 216.763 212.637H231.079ZM231.079 203.359V195.391H217.31V196.953C217.31 199.805 217.297 201.94 217.271 203.359H231.079Z" fill="black"/>
<path d="M136.734 98.3125C136.859 99.9375 137.042 101.792 137.281 103.875C137.281 103.906 137.281 103.932 137.281 103.953C137.281 104.141 137.172 104.266 136.953 104.328C136.88 104.339 136.818 104.344 136.766 104.344C136.641 104.344 136.531 104.25 136.438 104.062C135.49 102.229 134.531 100.891 133.562 100.047C132.375 99.0469 131.01 98.5469 129.469 98.5469C126.938 98.5469 124.891 99.6823 123.328 101.953C121.943 103.974 121.25 106.505 121.25 109.547C121.25 112.714 122.151 115.302 123.953 117.312C125.526 119.052 127.417 119.922 129.625 119.922C133.01 119.922 135.635 118.438 137.5 115.469C137.552 115.365 137.63 115.312 137.734 115.312C137.828 115.312 137.964 115.354 138.141 115.438C138.328 115.521 138.422 115.635 138.422 115.781C138.422 115.844 138.401 115.917 138.359 116C136.224 119.875 133.089 121.812 128.953 121.812C125.172 121.812 122.13 120.531 119.828 117.969C117.828 115.74 116.828 112.958 116.828 109.625C116.828 105.833 118.13 102.781 120.734 100.469C122.995 98.4583 125.776 97.4531 129.078 97.4531C130.391 97.4531 131.745 97.625 133.141 97.9688C134.276 98.25 135.146 98.3906 135.75 98.3906C136.073 98.3906 136.401 98.3646 136.734 98.3125ZM152.922 112.5C151.484 112.417 150.266 112.375 149.266 112.375C148.443 112.375 147.12 112.417 145.297 112.5L144.078 115.859C143.724 116.849 143.547 117.672 143.547 118.328C143.547 118.724 143.615 119.094 143.75 119.438C143.969 119.958 144.797 120.302 146.234 120.469C146.422 120.469 146.516 120.604 146.516 120.875C146.516 121.156 146.396 121.297 146.156 121.297C145.375 121.255 144.047 121.234 142.172 121.234C140.63 121.234 139.51 121.255 138.812 121.297C138.573 121.297 138.453 121.156 138.453 120.875C138.453 120.604 138.573 120.469 138.812 120.469C139.458 120.365 140.083 120.031 140.688 119.469C141.302 118.865 141.953 117.62 142.641 115.734L146.484 105.359C147.443 102.776 148.214 100.536 148.797 98.6406L151.312 97.4844C151.542 97.4844 151.682 97.5833 151.734 97.7812C151.891 98.2604 152.776 100.849 154.391 105.547L158 115.984C158.646 117.891 159.182 119.104 159.609 119.625C159.88 119.969 160.161 120.188 160.453 120.281C160.672 120.354 161.078 120.417 161.672 120.469C161.953 120.469 162.094 120.604 162.094 120.875C162.094 121.156 161.953 121.297 161.672 121.297C159.776 121.255 158.266 121.234 157.141 121.234C156.036 121.234 154.531 121.255 152.625 121.297C152.458 121.297 152.375 121.156 152.375 120.875C152.375 120.604 152.458 120.469 152.625 120.469C153.958 120.396 154.698 120.115 154.844 119.625C154.906 119.438 154.938 119.234 154.938 119.016C154.938 118.474 154.714 117.557 154.266 116.266L152.922 112.5ZM149.203 101.422L147.766 105.547L145.719 111.219C146.417 111.26 147.599 111.281 149.266 111.281C150.786 111.281 151.854 111.26 152.469 111.219L150.547 105.609C150.203 104.63 149.755 103.234 149.203 101.422ZM177.766 107.625C177.411 108.542 176.922 109.427 176.297 110.281C175.62 111.292 174.484 112.328 172.891 113.391C171.516 114.307 170.203 114.979 168.953 115.406C168.943 115.406 168.932 115.406 168.922 115.406C168.786 115.406 168.719 115.297 168.719 115.078C168.719 115.016 168.734 114.974 168.766 114.953C171.286 113.203 173.052 111.318 174.062 109.297C174.979 107.464 175.542 105.052 175.75 102.062H168.359V123.125C168.359 123.885 167.719 124.266 166.438 124.266C165.542 124.266 165.094 123.911 165.094 123.203C165.219 119.286 165.281 114.042 165.281 107.469C165.281 104.323 165.219 101.677 165.094 99.5312C166.458 100.125 167.641 100.724 168.641 101.328H175.812C175.854 100.047 175.875 99.0312 175.875 98.2812C175.875 97.2292 175.812 96.2812 175.688 95.4375C177.552 95.5729 178.781 95.7188 179.375 95.875C179.885 96 180.141 96.1875 180.141 96.4375C180.141 96.6979 179.776 96.9948 179.047 97.3281C179.016 98.849 178.953 100.182 178.859 101.328H186.812C187.719 100.286 188.286 99.7656 188.516 99.7656C188.745 99.7656 189.354 100.172 190.344 100.984C190.833 101.411 191.078 101.729 191.078 101.938C191.078 102.188 190.802 102.516 190.25 102.922V105.844L190.344 120.688C190.344 121.531 190.214 122.172 189.953 122.609C189.724 122.984 189.354 123.292 188.844 123.531C188.156 123.854 187.464 124.016 186.766 124.016C186.484 124.016 186.292 123.943 186.188 123.797C186.104 123.672 186.036 123.448 185.984 123.125C185.901 122.49 185.599 122.021 185.078 121.719C184.568 121.417 183.615 121.109 182.219 120.797C182.156 120.776 182.125 120.724 182.125 120.641C182.125 120.484 182.177 120.406 182.281 120.406C183.479 120.49 184.917 120.531 186.594 120.531C186.958 120.531 187.141 120.339 187.141 119.953V102.062H178.828C178.62 104.177 178.339 105.828 177.984 107.016C180.63 107.859 182.667 108.875 184.094 110.062C185.354 111.104 185.984 112.161 185.984 113.234C185.984 113.849 185.828 114.333 185.516 114.688C185.255 115 184.922 115.156 184.516 115.156C184.078 115.156 183.74 115.01 183.5 114.719C183.281 114.479 182.885 113.844 182.312 112.812C181.083 110.604 179.568 108.875 177.766 107.625ZM210.922 99.8594H219.344C220.281 98.7865 220.865 98.25 221.094 98.25C221.479 98.25 222.25 98.7969 223.406 99.8906C224.042 100.484 224.359 100.901 224.359 101.141C224.359 101.63 223.88 101.891 222.922 101.922C222.286 101.953 221.859 102.047 221.641 102.203C220.922 102.766 220.208 103.229 219.5 103.594C219.479 103.604 219.453 103.609 219.422 103.609C219.318 103.609 219.266 103.547 219.266 103.422C219.266 103.401 219.266 103.385 219.266 103.375C219.505 102.51 219.698 101.583 219.844 100.594H199.531C199.531 100.667 199.531 100.776 199.531 100.922C199.531 102.172 199.271 103.151 198.75 103.859C198.292 104.495 197.698 104.812 196.969 104.812C196.458 104.812 196.052 104.635 195.75 104.281C195.479 103.969 195.344 103.583 195.344 103.125C195.344 102.438 195.682 101.927 196.359 101.594C197.245 101.135 197.839 100.656 198.141 100.156C198.411 99.6979 198.599 98.9948 198.703 98.0469C198.724 97.9531 198.792 97.9062 198.906 97.9062C198.99 97.9062 199.036 97.9427 199.047 98.0156C199.214 98.5469 199.354 99.1615 199.469 99.8594H207.812V97.1719C207.812 96.7448 207.781 96.1458 207.719 95.375C210.51 95.6354 211.906 95.9792 211.906 96.4062C211.906 96.7083 211.578 96.9531 210.922 97.1406V99.8594ZM208.109 120.297V106H201.172C200.651 106 200.01 106.062 199.25 106.188L198.891 105.016C199.693 105.182 200.453 105.266 201.172 105.266H215.75C216.823 103.901 217.495 103.219 217.766 103.219C217.974 103.219 218.703 103.698 219.953 104.656C220.568 105.156 220.875 105.5 220.875 105.688C220.875 105.896 220.734 106 220.453 106H211.078V112.75H215.266C216.339 111.365 217.01 110.672 217.281 110.672C217.51 110.672 218.198 111.151 219.344 112.109C219.938 112.62 220.234 112.974 220.234 113.172C220.234 113.38 220.094 113.484 219.812 113.484H211.078V121C212.12 121.156 213.401 121.234 214.922 121.234C217.703 121.234 220.547 121.01 223.453 120.562C223.526 120.552 223.562 120.583 223.562 120.656C223.562 120.75 223.526 120.823 223.453 120.875C222.755 121.365 222.406 122.125 222.406 123.156C222.406 123.583 222.172 123.828 221.703 123.891C220.443 124.036 218.635 124.109 216.281 124.109C211.594 124.109 208.089 123.052 205.766 120.938C204.505 119.771 203.443 118.224 202.578 116.297C201.828 118.078 200.818 119.615 199.547 120.906C198.453 122.021 197.031 123.094 195.281 124.125C195.271 124.135 195.255 124.141 195.234 124.141C195.068 124.141 194.984 124.042 194.984 123.844C194.984 123.812 194.995 123.786 195.016 123.766C198.078 120.776 199.99 117.01 200.75 112.469C200.927 111.417 201.031 110.276 201.062 109.047C202.865 109.401 203.99 109.656 204.438 109.812C204.854 109.969 205.062 110.156 205.062 110.375C205.062 110.625 204.724 110.896 204.047 111.188C203.703 112.875 203.328 114.302 202.922 115.469C204.276 117.896 206.005 119.505 208.109 120.297Z" fill="#B51230"/>
<defs>
<filter id="filter0_d_1_101" x="11.4766" y="27.0547" width="318.941" height="309.764" filterUnits="userSpaceOnUse" color-interpolation-filters="sRGB">
<feFlood flood-opacity="0" result="BackgroundImageFix"/>
<feColorMatrix in="SourceAlpha" type="matrix" values="0 0 0 0 0 0 0 0 0 0 0 0 0 0 0 0 0 0 127 0" result="hardAlpha"/>
<feOffset dy="7"/>
<feGaussianBlur stdDeviation="5"/>
<feColorMatrix type="matrix" values="0 0 0 0 0.4 0 0 0 0 0.219608 0 0 0 0 0.0313726 0 0 0 0.3 0"/>
<feBlend mode="normal" in2="BackgroundImageFix" result="effect1_dropShadow_1_101"/>
<feBlend mode="normal" in="SourceGraphic" in2="effect1_dropShadow_1_101" result="shape"/>
</filter>
<filter id="filter1_d_1_101" x="146.578" y="8.4668" width="48.8424" height="52.0315" filterUnits="userSpaceOnUse" color-interpolation-filters="sRGB">
<feFlood flood-opacity="0" result="BackgroundImageFix"/>
<feColorMatrix in="SourceAlpha" type="matrix" values="0 0 0 0 0 0 0 0 0 0 0 0 0 0 0 0 0 0 127 0" result="hardAlpha"/>
<feOffset dy="7"/>
<feGaussianBlur stdDeviation="5"/>
<feColorMatrix type="matrix" values="0 0 0 0 0.4 0 0 0 0 0.219608 0 0 0 0 0.0313726 0 0 0 0.3 0"/>
<feBlend mode="normal" in2="BackgroundImageFix" result="effect1_dropShadow_1_101"/>
<feBlend mode="normal" in="SourceGraphic" in2="effect1_dropShadow_1_101" result="shape"/>
</filter>
<linearGradient id="paint0_linear_1_101" x1="457.084" y1="188.12" x2="84.4047" y2="-124.233" gradientUnits="userSpaceOnUse">
<stop stop-color="#925009"/>
<stop offset="0.02" stop-color="#995A10"/>
<stop offset="0.18" stop-color="#D2A84D"/>
<stop offset="0.25" stop-color="#E9C865"/>
<stop offset="0.29" stop-color="#D3AA4E"/>
<stop offset="0.35" stop-color="#B78330"/>
<stop offset="0.41" stop-color="#A2671A"/>
<stop offset="0.46" stop-color="#96560D"/>
<stop offset="0.5" stop-color="#925009"/>
<stop offset="0.53" stop-color="#95540C"/>
<stop offset="0.58" stop-color="#9F6116"/>
<stop offset="0.62" stop-color="#AF7827"/>
<stop offset="0.67" stop-color="#C5973F"/>
<stop offset="0.71" stop-color="#E2BF5E"/>
<stop offset="0.72" stop-color="#E9C865"/>
<stop offset="0.84" stop-color="#E9C865"/>
<stop offset="1" stop-color="#925009"/>
</linearGradient>
<linearGradient id="paint1_linear_1_101" x1="225.788" y1="262.307" x2="115.907" y2="72.2125" gradientUnits="userSpaceOnUse">
<stop stop-color="#B27E2F"/>
<stop offset="0.03" stop-color="#B8893B"/>
<stop offset="0.13" stop-color="#C9A95D"/>
<stop offset="0.22" stop-color="#D6C278"/>
<stop offset="0.32" stop-color="#E0D38B"/>
<stop offset="0.42" stop-color="#E6DE97"/>
<stop offset="0.53" stop-color="#E8E29B"/>
<stop offset="0.6" stop-color="#E4DA93"/>
<stop offset="0.71" stop-color="#D9C77E"/>
<stop offset="0.85" stop-color="#C8A75C"/>
<stop offset="1" stop-color="#B27E2F"/>
</linearGradient>
<linearGradient id="paint2_linear_1_101" x1="56.985" y1="167.198" x2="284.885" y2="167.198" gradientUnits="userSpaceOnUse">
<stop stop-color="#925009"/>
<stop offset="0.02" stop-color="#995A10"/>
<stop offset="0.18" stop-color="#D2A84D"/>
<stop offset="0.25" stop-color="#E9C865"/>
<stop offset="0.29" stop-color="#D3AA4E"/>
<stop offset="0.35" stop-color="#B78330"/>
<stop offset="0.41" stop-color="#A2671A"/>
<stop offset="0.46" stop-color="#96560D"/>
<stop offset="0.5" stop-color="#925009"/>
<stop offset="0.53" stop-color="#95540C"/>
<stop offset="0.58" stop-color="#9F6116"/>
<stop offset="0.62" stop-color="#AF7827"/>
<stop offset="0.67" stop-color="#C5973F"/>
<stop offset="0.71" stop-color="#E2BF5E"/>
<stop offset="0.72" stop-color="#E9C865"/>
<stop offset="0.84" stop-color="#E9C865"/>
<stop offset="1" stop-color="#925009"/>
</linearGradient>
<linearGradient id="paint3_linear_1_101" x1="251.892" y1="-196.588" x2="295.651" y2="-221.822" gradientUnits="userSpaceOnUse">
<stop stop-color="#925009"/>
<stop offset="0.02" stop-color="#995A10"/>
<stop offset="0.18" stop-color="#D2A84D"/>
<stop offset="0.25" stop-color="#E9C865"/>
<stop offset="0.29" stop-color="#D3AA4E"/>
<stop offset="0.35" stop-color="#B78330"/>
<stop offset="0.41" stop-color="#A2671A"/>
<stop offset="0.46" stop-color="#96560D"/>
<stop offset="0.5" stop-color="#925009"/>
<stop offset="0.53" stop-color="#95540C"/>
<stop offset="0.58" stop-color="#9F6116"/>
<stop offset="0.62" stop-color="#AF7827"/>
<stop offset="0.67" stop-color="#C5973F"/>
<stop offset="0.71" stop-color="#E2BF5E"/>
<stop offset="0.72" stop-color="#E9C865"/>
<stop offset="0.84" stop-color="#E9C865"/>
<stop offset="1" stop-color="#925009"/>
</linearGradient>
<linearGradient id="paint4_linear_1_101" x1="121.422" y1="87.8548" x2="220.459" y2="87.8548" gradientUnits="userSpaceOnUse">
<stop offset="0.03" stop-color="#9E5F14" stop-opacity="0"/>
<stop offset="0.12" stop-color="#AA702A" stop-opacity="0.42"/>
<stop offset="0.21" stop-color="#B78241" stop-opacity="0.83"/>
<stop offset="0.25" stop-color="#BC8A4A"/>
<stop offset="0.35" stop-color="#AB7330"/>
<stop offset="0.53" stop-color="#925009"/>
<stop offset="0.6" stop-color="#95540D"/>
<stop offset="0.69" stop-color="#9D601A"/>
<stop offset="0.77" stop-color="#AC7431"/>
<stop offset="0.8" stop-color="#B37D3B"/>
<stop offset="0.83" stop-color="#AF7733" stop-opacity="0.79"/>
<stop offset="0.86" stop-color="#AA6F28" stop-opacity="0.51"/>
<stop offset="0.9" stop-color="#A66920" stop-opacity="0.29"/>
<stop offset="0.93" stop-color="#A3651A" stop-opacity="0.13"/>
<stop offset="0.96" stop-color="#A16217" stop-opacity="0.03"/>
<stop offset="0.98" stop-color="#A16216" stop-opacity="0"/>
</linearGradient>
<linearGradient id="paint5_linear_1_101" x1="0.00446692" y1="246.556" x2="220.473" y2="246.556" gradientUnits="userSpaceOnUse">
<stop offset="0.03" stop-color="#9E5F14" stop-opacity="0"/>
<stop offset="0.12" stop-color="#AA702A" stop-opacity="0.42"/>
<stop offset="0.21" stop-color="#B78241" stop-opacity="0.83"/>
<stop offset="0.25" stop-color="#BC8A4A"/>
<stop offset="0.35" stop-color="#AB7330"/>
<stop offset="0.53" stop-color="#925009"/>
<stop offset="0.6" stop-color="#95540D"/>
<stop offset="0.69" stop-color="#9D601A"/>
<stop offset="0.77" stop-color="#AC7431"/>
<stop offset="0.8" stop-color="#B37D3B"/>
<stop offset="0.83" stop-color="#AF7733" stop-opacity="0.79"/>
<stop offset="0.86" stop-color="#AA6F28" stop-opacity="0.51"/>
<stop offset="0.9" stop-color="#A66920" stop-opacity="0.29"/>
<stop offset="0.93" stop-color="#A3651A" stop-opacity="0.13"/>
<stop offset="0.96" stop-color="#A16217" stop-opacity="0.03"/>
<stop offset="0.98" stop-color="#A16216" stop-opacity="0"/>
</linearGradient>
<linearGradient id="paint6_linear_1_101" x1="12.0391" y1="333.099" x2="81.2493" y2="333.099" gradientUnits="userSpaceOnUse">
<stop stop-color="#925009"/>
<stop offset="0.02" stop-color="#995A10"/>
<stop offset="0.18" stop-color="#D2A84D"/>
<stop offset="0.25" stop-color="#E9C865"/>
<stop offset="0.29" stop-color="#D3AA4E"/>
<stop offset="0.35" stop-color="#B78330"/>
<stop offset="0.41" stop-color="#A2671A"/>
<stop offset="0.46" stop-color="#96560D"/>
<stop offset="0.5" stop-color="#925009"/>
<stop offset="0.53" stop-color="#95540C"/>
<stop offset="0.58" stop-color="#9F6116"/>
<stop offset="0.62" stop-color="#AF7827"/>
<stop offset="0.67" stop-color="#C5973F"/>
<stop offset="0.71" stop-color="#E2BF5E"/>
<stop offset="0.72" stop-color="#E9C865"/>
<stop offset="0.84" stop-color="#E9C865"/>
<stop offset="1" stop-color="#925009"/>
</linearGradient>
<linearGradient id="paint7_linear_1_101" x1="12.0391" y1="259.353" x2="81.2493" y2="259.353" gradientUnits="userSpaceOnUse">
<stop stop-color="#925009"/>
<stop offset="0.02" stop-color="#995A10"/>
<stop offset="0.18" stop-color="#D2A84D"/>
<stop offset="0.25" stop-color="#E9C865"/>
<stop offset="0.29" stop-color="#D3AA4E"/>
<stop offset="0.35" stop-color="#B78330"/>
<stop offset="0.41" stop-color="#A2671A"/>
<stop offset="0.46" stop-color="#96560D"/>
<stop offset="0.5" stop-color="#925009"/>
<stop offset="0.53" stop-color="#95540C"/>
<stop offset="0.58" stop-color="#9F6116"/>
<stop offset="0.62" stop-color="#AF7827"/>
<stop offset="0.67" stop-color="#C5973F"/>
<stop offset="0.71" stop-color="#E2BF5E"/>
<stop offset="0.72" stop-color="#E9C865"/>
<stop offset="0.84" stop-color="#E9C865"/>
<stop offset="1" stop-color="#925009"/>
</linearGradient>
<linearGradient id="paint8_linear_1_101" x1="260.625" y1="333.099" x2="329.849" y2="333.099" gradientUnits="userSpaceOnUse">
<stop stop-color="#925009"/>
<stop offset="0.02" stop-color="#995A10"/>
<stop offset="0.18" stop-color="#D2A84D"/>
<stop offset="0.25" stop-color="#E9C865"/>
<stop offset="0.29" stop-color="#D3AA4E"/>
<stop offset="0.35" stop-color="#B78330"/>
<stop offset="0.41" stop-color="#A2671A"/>
<stop offset="0.46" stop-color="#96560D"/>
<stop offset="0.5" stop-color="#925009"/>
<stop offset="0.53" stop-color="#95540C"/>
<stop offset="0.58" stop-color="#9F6116"/>
<stop offset="0.62" stop-color="#AF7827"/>
<stop offset="0.67" stop-color="#C5973F"/>
<stop offset="0.71" stop-color="#E2BF5E"/>
<stop offset="0.72" stop-color="#E9C865"/>
<stop offset="0.84" stop-color="#E9C865"/>
<stop offset="1" stop-color="#925009"/>
</linearGradient>
<linearGradient id="paint9_linear_1_101" x1="260.625" y1="259.353" x2="329.849" y2="259.353" gradientUnits="userSpaceOnUse">
<stop stop-color="#925009"/>
<stop offset="0.02" stop-color="#995A10"/>
<stop offset="0.18" stop-color="#D2A84D"/>
<stop offset="0.25" stop-color="#E9C865"/>
<stop offset="0.29" stop-color="#D3AA4E"/>
<stop offset="0.35" stop-color="#B78330"/>
<stop offset="0.41" stop-color="#A2671A"/>
<stop offset="0.46" stop-color="#96560D"/>
<stop offset="0.5" stop-color="#925009"/>
<stop offset="0.53" stop-color="#95540C"/>
<stop offset="0.58" stop-color="#9F6116"/>
<stop offset="0.62" stop-color="#AF7827"/>
<stop offset="0.67" stop-color="#C5973F"/>
<stop offset="0.71" stop-color="#E2BF5E"/>
<stop offset="0.72" stop-color="#E9C865"/>
<stop offset="0.84" stop-color="#E9C865"/>
<stop offset="1" stop-color="#925009"/>
</linearGradient>
<linearGradient id="paint10_linear_1_101" x1="53.5156" y1="286.528" x2="288.362" y2="286.528" gradientUnits="userSpaceOnUse">
<stop stop-color="#950001"/>
<stop offset="0.16" stop-color="#9D0001"/>
<stop offset="0.42" stop-color="#B50004"/>
<stop offset="0.5" stop-color="#BF0005"/>
<stop offset="0.67" stop-color="#A90002"/>
<stop offset="0.85" stop-color="#9A0001"/>
<stop offset="1" stop-color="#950001"/>
</linearGradient>
<linearGradient id="paint11_linear_1_101" x1="53.5156" y1="323.399" x2="288.362" y2="323.399" gradientUnits="userSpaceOnUse">
<stop stop-color="#925009"/>
<stop offset="0.02" stop-color="#995A10"/>
<stop offset="0.18" stop-color="#D2A84D"/>
<stop offset="0.25" stop-color="#E9C865"/>
<stop offset="0.29" stop-color="#D3AA4E"/>
<stop offset="0.35" stop-color="#B78330"/>
<stop offset="0.41" stop-color="#A2671A"/>
<stop offset="0.46" stop-color="#96560D"/>
<stop offset="0.5" stop-color="#925009"/>
<stop offset="0.53" stop-color="#95540C"/>
<stop offset="0.58" stop-color="#9F6116"/>
<stop offset="0.62" stop-color="#AF7827"/>
<stop offset="0.67" stop-color="#C5973F"/>
<stop offset="0.71" stop-color="#E2BF5E"/>
<stop offset="0.72" stop-color="#E9C865"/>
<stop offset="0.84" stop-color="#E9C865"/>
<stop offset="1" stop-color="#925009"/>
</linearGradient>
<linearGradient id="paint12_linear_1_101" x1="53.5156" y1="249.654" x2="288.362" y2="249.654" gradientUnits="userSpaceOnUse">
<stop stop-color="#925009"/>
<stop offset="0.02" stop-color="#995A10"/>
<stop offset="0.18" stop-color="#D2A84D"/>
<stop offset="0.25" stop-color="#E9C865"/>
<stop offset="0.29" stop-color="#D3AA4E"/>
<stop offset="0.35" stop-color="#B78330"/>
<stop offset="0.41" stop-color="#A2671A"/>
<stop offset="0.46" stop-color="#96560D"/>
<stop offset="0.5" stop-color="#925009"/>
<stop offset="0.53" stop-color="#95540C"/>
<stop offset="0.58" stop-color="#9F6116"/>
<stop offset="0.62" stop-color="#AF7827"/>
<stop offset="0.67" stop-color="#C5973F"/>
<stop offset="0.71" stop-color="#E2BF5E"/>
<stop offset="0.72" stop-color="#E9C865"/>
<stop offset="0.84" stop-color="#E9C865"/>
<stop offset="1" stop-color="#925009"/>
</linearGradient>
</defs>
</svg>
