<svg width="84" height="84" viewBox="0 0 84 84" fill="none" xmlns="http://www.w3.org/2000/svg">
<path d="M24.4721 16.9846C27.0963 16.9846 29.224 14.8567 29.224 12.2312V4.75191C29.224 2.12789 27.0963 0 24.4721 0C21.8466 0 19.7188 2.12789 19.7188 4.75191V12.2312C19.7188 14.8568 21.8466 16.9846 24.4721 16.9846Z" fill="white"/>
<path d="M59.519 16.9846C62.143 16.9846 64.2709 14.8567 64.2709 12.2312V4.75191C64.2708 2.12789 62.143 0 59.519 0C56.8935 0 54.7656 2.12789 54.7656 4.75191V12.2312C54.7656 14.8568 56.8934 16.9846 59.519 16.9846Z" fill="white"/>
<path d="M71.3899 6.77344H68.4489V12.231C68.4489 17.1558 64.4435 21.1612 59.5203 21.1612C54.5957 21.1612 50.5903 17.1558 50.5903 12.231V6.77344H33.4016V12.231C33.4016 17.1558 29.396 21.1612 24.4728 21.1612C19.5481 21.1612 15.5426 17.1558 15.5426 12.231V6.77344H12.6017C6.28074 6.77344 1.15625 11.8979 1.15625 18.2189V72.5543C1.15625 78.8753 6.28074 83.9998 12.6017 83.9998H71.3899C77.7109 83.9998 82.8356 78.8753 82.8356 72.5543V18.2189C82.8354 11.8979 77.7109 6.77344 71.3899 6.77344ZM73.8277 70.5447C73.8277 73.4693 71.4483 75.8487 68.5238 75.8487H15.4679C12.5433 75.8487 10.1641 73.4693 10.1641 70.5447V28.0341H73.8279L73.8277 70.5447Z" fill="white"/>
<path d="M33.5658 45.2021H36.8628C37.2802 45.2021 37.5848 44.8989 37.5848 44.4802V41.5976H45.7591L37.3878 62.9427C37.2518 63.2649 37.3415 63.4796 37.4081 63.5804C37.5171 63.7435 37.702 63.8347 37.929 63.8347H41.5729C42.0527 63.8347 42.2268 63.6416 42.3845 63.2772L51.0101 41.6168C51.1093 41.3694 51.1502 41.1315 51.1502 40.7996V37.8098C51.1502 37.3911 50.847 37.0879 50.4281 37.0879H33.5658C33.1469 37.0879 32.8438 37.3911 32.8438 37.8098V44.4802C32.8438 44.8989 33.1471 45.2021 33.5658 45.2021Z" fill="white"/>
</svg>
