<svg width="91" height="91" viewBox="0 0 91 91" fill="none" xmlns="http://www.w3.org/2000/svg">
<g clip-path="url(#clip0_1_231)">
<path d="M61.6825 73.6747L60.3723 65.5357L64.1238 61.6628C64.5631 61.2093 64.5502 60.4864 64.0981 60.0484C63.6445 59.6091 62.923 59.6205 62.4837 60.0741L59.9197 62.721L58.6676 54.9406L61.2194 52.3062C61.6574 51.8541 61.6487 51.1297 61.1951 50.6904C60.7416 50.251 60.0174 50.2653 59.5793 50.7175L58.215 52.1259L56.3294 40.4138C56.3294 40.4138 62.6367 33.9025 64.2486 32.2385C65.8605 30.5745 67.3448 25.4231 65.8984 24.022C64.452 22.621 59.3503 24.2686 57.7385 25.9327C56.1266 27.5967 49.8193 34.108 49.8193 34.108L38.0531 32.5962L39.4174 31.1877C39.8554 30.7356 39.8467 30.0112 39.3931 29.5719C38.9395 29.1325 38.2154 29.1468 37.7773 29.599L35.2255 32.2333L27.4104 31.2282L29.9731 28.5827C30.4125 28.1291 30.3995 27.4062 29.9474 26.9682C29.4953 26.5303 28.7723 26.5404 28.333 26.9939L24.5815 30.8668L16.405 29.8161C16.0047 29.7658 15.6059 29.9048 15.3271 30.1927L13.1453 32.4451C12.8433 32.7568 12.7217 33.197 12.8183 33.62C12.9134 34.0387 13.219 34.3837 13.6236 34.5307L19.1584 36.4653L17.96 37.7024C17.5221 38.1546 17.535 38.8775 17.9871 39.3154C18.4392 39.7534 19.1622 39.7433 19.6001 39.2912L21.5344 37.2944L28.0994 39.59L26.4712 41.2708C26.0319 41.7244 26.0433 42.4459 26.4969 42.8852C26.9505 43.3246 27.672 43.3131 28.1113 42.8596L30.4754 40.419L41.2557 44.185L30.763 56.3153C29.8693 57.2379 28.8191 57.6168 27.4871 57.4099C24.7498 56.9875 20.1179 56.099 20.1179 56.099C19.5054 56.0064 18.9006 56.3216 18.6246 56.8763C18.3488 57.4337 18.4644 58.1038 18.9109 58.5364L25.6213 63.1911L24.6515 64.1923C24.0068 64.8579 24.0237 65.9194 24.6892 66.5641C25.3548 67.2089 26.4163 67.192 27.0611 66.5264L28.0309 65.5251L32.8968 72.084C33.3434 72.5166 34.0154 72.6096 34.5652 72.3173C35.1108 72.0238 35.4066 71.4094 35.2946 70.8001C35.2946 70.8001 34.2576 66.1974 33.7484 63.475C33.5007 62.1517 33.8459 61.09 34.7396 60.1674L46.5299 49.2939L50.637 59.9489L48.273 62.3894C47.8336 62.843 47.8451 63.5645 48.2987 64.0038C48.7522 64.4432 49.4737 64.4317 49.9131 63.9781L51.5413 62.2973L54.0447 68.7859L52.1104 70.7827C51.6725 71.2349 51.6839 71.9563 52.1375 72.3957C52.5897 72.8337 53.3126 72.8236 53.7506 72.3714L54.9489 71.1343L57.0573 76.6034C57.2185 77.0045 57.5717 77.2976 57.9946 77.3807C58.4204 77.4637 58.8565 77.3282 59.1585 77.0164L61.3403 74.764C61.6192 74.4763 61.7455 74.0732 61.6825 73.6747ZM59.2042 27.072C60.2353 26.0076 61.9353 25.9805 63.0012 27.013C64.0656 28.0441 64.0941 29.7455 63.063 30.8099L59.2042 27.072Z" fill="#F49B9B"/>
</g>
<defs>
<clipPath id="clip0_1_231">
<rect width="64.0612" height="64.0612" fill="white" transform="translate(44.5714) rotate(44.0881)"/>
</clipPath>
</defs>
</svg>
