<svg width="129" height="19" viewBox="0 0 129 19" fill="none" xmlns="http://www.w3.org/2000/svg">
<path d="M4.04002 5.83998H14.7V7.55998H4.04002V5.83998ZM0.480024 9.49998H18.3V11.28H0.480024V9.49998ZM5.56002 10.84H7.60002C7.50669 11.7866 7.34669 12.6666 7.12002 13.48C6.89336 14.28 6.54669 15.0133 6.08002 15.68C5.62669 16.3466 5.00002 16.9266 4.20002 17.42C3.40002 17.9266 2.36669 18.3533 1.10002 18.7C1.03336 18.54 0.940025 18.3533 0.820024 18.14C0.700024 17.94 0.566691 17.74 0.420024 17.54C0.273358 17.34 0.133358 17.18 2.44379e-05 17.06C1.13336 16.78 2.04669 16.4466 2.74002 16.06C3.44669 15.66 3.98669 15.2 4.36002 14.68C4.74669 14.16 5.02002 13.58 5.18002 12.94C5.35336 12.2866 5.48002 11.5866 5.56002 10.84ZM10.66 10.6H12.58V15.9C12.58 16.2066 12.6334 16.4 12.74 16.48C12.8467 16.56 13.0934 16.6 13.48 16.6C13.5734 16.6 13.7267 16.6 13.94 16.6C14.1667 16.6 14.4134 16.6 14.68 16.6C14.9467 16.6 15.1934 16.6 15.42 16.6C15.66 16.6 15.84 16.6 15.96 16.6C16.2 16.6 16.38 16.5466 16.5 16.44C16.62 16.32 16.7067 16.08 16.76 15.72C16.8134 15.3466 16.8467 14.7933 16.86 14.06C16.9934 14.1533 17.16 14.2466 17.36 14.34C17.56 14.4333 17.7667 14.52 17.98 14.6C18.2067 14.68 18.4067 14.7466 18.58 14.8C18.5134 15.7333 18.3934 16.46 18.22 16.98C18.06 17.4866 17.8134 17.84 17.48 18.04C17.1467 18.24 16.6934 18.34 16.12 18.34C16.0134 18.34 15.8267 18.34 15.56 18.34C15.2934 18.34 15 18.34 14.68 18.34C14.36 18.34 14.0667 18.34 13.8 18.34C13.5334 18.34 13.3467 18.34 13.24 18.34C12.56 18.34 12.0334 18.2666 11.66 18.12C11.2867 17.9866 11.0267 17.74 10.88 17.38C10.7334 17.02 10.66 16.5333 10.66 15.92V10.6ZM8.34002 0.0999796H10.36V3.47998H8.34002V0.0999796ZM0.920025 2.13998H17.88V6.61998H15.88V3.93998H2.84002V6.61998H0.920025V2.13998ZM31.32 1.89998C30.9067 2.49998 30.4067 3.12665 29.82 3.77998C29.2467 4.41998 28.6 5.05998 27.88 5.69998C27.1734 6.32665 26.4267 6.92665 25.64 7.49998C24.8534 8.07331 24.04 8.59998 23.2 9.07998C23.08 8.85331 22.9 8.59331 22.66 8.29998C22.4334 7.99331 22.2134 7.74665 22 7.55998C23.1467 6.94665 24.2534 6.21998 25.32 5.37998C26.3867 4.52665 27.3467 3.63998 28.2 2.71998C29.0667 1.78665 29.7534 0.893313 30.26 0.0399792H32.2C32.7334 0.79998 33.3334 1.53998 34 2.25998C34.6667 2.96665 35.38 3.63998 36.14 4.27998C36.9 4.90665 37.68 5.47998 38.48 5.99998C39.28 6.51998 40.08 6.95998 40.88 7.31998C40.64 7.55998 40.4067 7.83331 40.18 8.13998C39.9667 8.43331 39.78 8.71998 39.62 8.99998C38.8467 8.55998 38.06 8.05998 37.26 7.49998C36.4734 6.93998 35.7067 6.34665 34.96 5.71998C34.2267 5.09331 33.5467 4.45331 32.92 3.79998C32.2934 3.14665 31.76 2.51331 31.32 1.89998ZM24.56 11.86H38.22V13.52H24.56V11.86ZM25.5 7.39998H37.38V9.09998H25.5V7.39998ZM22.92 16.44H40V18.14H22.92V16.44ZM30.34 8.13998H32.34V17.38H30.34V8.13998ZM50.22 1.21998H62.06V18.48H60.24V2.87998H51.96V18.64H50.22V1.21998ZM52.64 5.59998H59.66V7.01998H52.64V5.59998ZM51.14 15.8H61.18V17.46H51.14V15.8ZM55.36 3.41998H56.86V9.79998H55.36V3.41998ZM54.74 10.36V13.04H57.54V10.36H54.74ZM53.34 9.01998H59V14.38H53.34V9.01998ZM47.96 0.17998L49.7 0.69998C49.3134 1.83331 48.8534 2.97331 48.32 4.11998C47.8 5.25331 47.22 6.32665 46.58 7.33998C45.9534 8.33998 45.3 9.22665 44.62 9.99998C44.5667 9.85331 44.4867 9.65331 44.38 9.39998C44.2734 9.14665 44.1534 8.89331 44.02 8.63998C43.9 8.37331 43.7867 8.15998 43.68 7.99998C44.2667 7.35998 44.8267 6.61998 45.36 5.77998C45.8934 4.93998 46.38 4.04665 46.82 3.09998C47.26 2.13998 47.64 1.16665 47.96 0.17998ZM46.3 5.31998L48.08 3.53998L48.1 3.55998V18.68H46.3V5.31998ZM77.08 2.51998H78.92V13.7H77.08V2.51998ZM81.9 0.47998H83.78V16.26C83.78 16.8733 83.7067 17.3266 83.56 17.62C83.4134 17.9266 83.16 18.16 82.8 18.32C82.4267 18.4666 81.9267 18.56 81.3 18.6C80.6867 18.6533 79.92 18.68 79 18.68C78.9734 18.5066 78.92 18.3 78.84 18.06C78.7734 17.8333 78.6934 17.6 78.6 17.36C78.52 17.12 78.4267 16.9133 78.32 16.74C79.0134 16.7666 79.6467 16.78 80.22 16.78C80.7934 16.78 81.18 16.78 81.38 16.78C81.5667 16.7666 81.7 16.7266 81.78 16.66C81.86 16.58 81.9 16.4466 81.9 16.26V0.47998ZM69.82 9.69998H74.48V11.36H69.82V9.69998ZM73.68 9.69998H75.42C75.42 9.69998 75.42 9.74665 75.42 9.83998C75.42 9.93331 75.42 10.04 75.42 10.16C75.42 10.2666 75.4134 10.36 75.4 10.44C75.3334 12.08 75.26 13.4133 75.18 14.44C75.1 15.4533 75 16.2266 74.88 16.76C74.7734 17.2933 74.6267 17.6733 74.44 17.9C74.2534 18.1266 74.0534 18.28 73.84 18.36C73.6267 18.4533 73.3667 18.52 73.06 18.56C72.7934 18.6 72.4334 18.62 71.98 18.62C71.54 18.62 71.08 18.6066 70.6 18.58C70.5867 18.3266 70.5334 18.04 70.44 17.72C70.36 17.4133 70.24 17.1466 70.08 16.92C70.5467 16.9733 70.98 17 71.38 17C71.78 17.0133 72.0667 17.02 72.24 17.02C72.4 17.02 72.5334 17.0066 72.64 16.98C72.7467 16.9533 72.84 16.8933 72.92 16.8C73.0534 16.6533 73.16 16.3466 73.24 15.88C73.3334 15.4 73.4134 14.6866 73.48 13.74C73.5467 12.7933 73.6134 11.5466 73.68 9.99998V9.69998ZM68.92 2.69998V6.05998H73.46V2.69998H68.92ZM67.2 1.01998H75.28V7.75998H67.2V1.01998ZM69.34 7.19998H71.2C71.1467 8.25331 71.0534 9.31998 70.92 10.4C70.8 11.48 70.6 12.5266 70.32 13.54C70.0534 14.5533 69.6734 15.5 69.18 16.38C68.7 17.26 68.0667 18.0333 67.28 18.7C67.1334 18.46 66.9334 18.2133 66.68 17.96C66.44 17.7066 66.2067 17.5066 65.98 17.36C66.6867 16.7733 67.2534 16.0933 67.68 15.32C68.12 14.5333 68.4467 13.6866 68.66 12.78C68.8867 11.8733 69.0467 10.9466 69.14 9.99998C69.2334 9.03998 69.3 8.10665 69.34 7.19998ZM97.2 4.75998H106.64V6.57998H97.2V4.75998ZM88.42 3.29998H97.82V5.07998H88.42V3.29998ZM102.48 0.0999796H104.36V16.22C104.36 16.7933 104.287 17.2333 104.14 17.54C104.007 17.8466 103.773 18.0866 103.44 18.26C103.107 18.42 102.653 18.52 102.08 18.56C101.52 18.6133 100.82 18.64 99.98 18.64C99.9534 18.4533 99.9067 18.24 99.84 18C99.7734 17.7733 99.7 17.5333 99.62 17.28C99.54 17.04 99.4534 16.8266 99.36 16.64C99.96 16.6533 100.507 16.6666 101 16.68C101.507 16.68 101.84 16.6733 102 16.66C102.173 16.66 102.293 16.6333 102.36 16.58C102.44 16.5133 102.48 16.3866 102.48 16.2V0.0999796ZM97.24 9.17998L98.76 8.43998C99.08 8.89331 99.3934 9.38665 99.7 9.91998C100.007 10.44 100.273 10.9533 100.5 11.46C100.727 11.9533 100.893 12.4 101 12.8L99.36 13.62C99.2534 13.22 99.0934 12.7666 98.88 12.26C98.6667 11.74 98.4134 11.2133 98.12 10.68C97.84 10.1333 97.5467 9.63331 97.24 9.17998ZM88.94 7.91998L90.28 6.83998C90.8934 7.47998 91.5134 8.16665 92.14 8.89998C92.7667 9.61998 93.3667 10.3533 93.94 11.1C94.5267 11.8466 95.0534 12.5733 95.52 13.28C96 13.9733 96.3867 14.6133 96.68 15.2L95.16 16.48C94.8934 15.8933 94.5267 15.24 94.06 14.52C93.6067 13.8 93.0934 13.06 92.52 12.3C91.96 11.5266 91.3734 10.7666 90.76 10.02C90.1467 9.25998 89.54 8.55998 88.94 7.91998ZM92.12 0.119979H93.92V4.35998H92.12V0.119979ZM94.34 5.49998L96.2 5.75998C95.8667 7.73331 95.4 9.51998 94.8 11.12C94.2134 12.72 93.46 14.1333 92.54 15.36C91.6334 16.5866 90.5267 17.64 89.22 18.52C89.14 18.3866 89.02 18.2266 88.86 18.04C88.7134 17.8533 88.5534 17.6666 88.38 17.48C88.2067 17.2933 88.0534 17.1466 87.92 17.04C89.1734 16.28 90.2267 15.3466 91.08 14.24C91.9334 13.1333 92.62 11.8466 93.14 10.38C93.6734 8.91331 94.0734 7.28665 94.34 5.49998ZM110.72 5.83998H128.06V7.49998H110.72V5.83998ZM118.54 4.65998H120.56V18.66H118.54V4.65998ZM112.08 8.79998H126V10.42H114.08V14.14H112.08V8.79998ZM125.04 8.79998H126.98V12.38C126.98 12.7933 126.927 13.1133 126.82 13.34C126.713 13.5533 126.5 13.7266 126.18 13.86C125.887 13.98 125.527 14.0533 125.1 14.08C124.673 14.1066 124.167 14.12 123.58 14.12C123.527 13.8666 123.433 13.6066 123.3 13.34C123.18 13.0733 123.067 12.84 122.96 12.64C123.333 12.6533 123.693 12.66 124.04 12.66C124.387 12.66 124.613 12.66 124.72 12.66C124.84 12.66 124.92 12.64 124.96 12.6C125.013 12.56 125.04 12.4866 125.04 12.38V8.79998ZM118.74 11.76L120.18 12.34C119.54 13.2333 118.76 14.0533 117.84 14.8C116.92 15.5466 115.907 16.2 114.8 16.76C113.707 17.3066 112.573 17.74 111.4 18.06C111.32 17.9 111.213 17.72 111.08 17.52C110.947 17.3333 110.8 17.1466 110.64 16.96C110.493 16.7733 110.353 16.6133 110.22 16.48C111.367 16.2266 112.487 15.8733 113.58 15.42C114.673 14.9533 115.667 14.4133 116.56 13.8C117.453 13.1733 118.18 12.4933 118.74 11.76ZM120.1 11.74C120.593 12.34 121.273 12.94 122.14 13.54C123.02 14.14 124.027 14.6866 125.16 15.18C126.307 15.6733 127.533 16.0466 128.84 16.3C128.707 16.4333 128.56 16.6 128.4 16.8C128.253 17 128.107 17.2 127.96 17.4C127.827 17.6133 127.72 17.8 127.64 17.96C126.36 17.6266 125.16 17.1733 124.04 16.6C122.933 16.0133 121.953 15.38 121.1 14.7C120.26 14.02 119.587 13.36 119.08 12.72L120.1 11.74ZM112.84 1.77998H119.12V3.37998H112.84V1.77998ZM120.66 1.77998H128.34V3.37998H120.66V1.77998ZM113.12 -2.02656e-05L114.92 0.47998C114.52 1.43998 114.02 2.37331 113.42 3.27998C112.82 4.18665 112.2 4.94665 111.56 5.55998C111.453 5.45331 111.3 5.33331 111.1 5.19998C110.913 5.06665 110.72 4.93998 110.52 4.81998C110.32 4.69998 110.14 4.59998 109.98 4.51998C110.633 3.95998 111.233 3.27998 111.78 2.47998C112.34 1.66665 112.787 0.83998 113.12 -2.02656e-05ZM121 -2.02656e-05L122.84 0.43998C122.48 1.45331 121.993 2.41331 121.38 3.31998C120.78 4.21331 120.153 4.96665 119.5 5.57998C119.38 5.47331 119.22 5.35331 119.02 5.21998C118.833 5.07331 118.64 4.93331 118.44 4.79998C118.24 4.66665 118.06 4.55998 117.9 4.47998C118.567 3.93331 119.173 3.26665 119.72 2.47998C120.267 1.69331 120.693 0.866646 121 -2.02656e-05ZM113.84 3.01998L115.42 2.47998C115.673 2.86665 115.927 3.30665 116.18 3.79998C116.447 4.27998 116.64 4.69331 116.76 5.03998L115.1 5.65998C115.007 5.29998 114.84 4.87331 114.6 4.37998C114.36 3.88665 114.107 3.43331 113.84 3.01998ZM122.32 2.89998L123.92 2.39998C124.213 2.78665 124.507 3.22665 124.8 3.71998C125.093 4.21331 125.307 4.63998 125.44 4.99998L123.76 5.57998C123.64 5.20665 123.44 4.77331 123.16 4.27998C122.88 3.77331 122.6 3.31331 122.32 2.89998Z" fill="white"/>
</svg>
