<svg width="172" height="49" viewBox="0 0 172 49" fill="none" xmlns="http://www.w3.org/2000/svg">
<path d="M4.24005 0.220097L6.08005 0.760097C5.72005 1.49343 5.29338 2.2201 4.80005 2.9401C4.32005 3.64676 3.80005 4.30676 3.24005 4.9201C2.68005 5.5201 2.12005 6.05343 1.56005 6.5201C1.45338 6.4001 1.30005 6.2601 1.10005 6.1001C0.913382 5.9401 0.720049 5.78676 0.520049 5.6401C0.333382 5.4801 0.160049 5.35343 4.88311e-05 5.2601C0.853382 4.6601 1.66005 3.91343 2.42005 3.0201C3.18005 2.12676 3.78672 1.19343 4.24005 0.220097ZM3.78005 2.4401H17.56V4.1201H3.24005L3.78005 2.4401ZM0.340049 7.1401H18.3V8.8401H0.340049V7.1401ZM0.640049 11.8601H18.02V13.5801H0.640049V11.8601ZM6.66005 3.0201H8.26005V12.7201H6.66005V3.0201ZM3.10005 3.0201H4.78005V12.7801H3.10005V3.0201ZM10.22 3.0201H11.82V12.7801H10.22V3.0201ZM13.82 3.0201H15.56V12.7801H13.82V3.0201ZM6.08005 14.8201L7.84005 14.6401C7.97338 15.2401 8.08672 15.8868 8.18005 16.5801C8.27338 17.2734 8.32672 17.8534 8.34005 18.3201L6.48005 18.6001C6.48005 18.2801 6.46005 17.9001 6.42005 17.4601C6.39338 17.0334 6.35338 16.5934 6.30005 16.1401C6.24672 15.6734 6.17338 15.2334 6.08005 14.8201ZM10.12 14.8601L11.9 14.5401C12.0734 14.9268 12.24 15.3468 12.4 15.8001C12.5734 16.2534 12.72 16.6868 12.84 17.1001C12.9734 17.5268 13.0734 17.9068 13.14 18.2401L11.26 18.6201C11.18 18.1268 11.0334 17.5268 10.82 16.8201C10.6067 16.1134 10.3734 15.4601 10.12 14.8601ZM14.16 14.7201L15.9601 14.1601C16.28 14.5601 16.6067 15.0001 16.94 15.4801C17.2867 15.9601 17.6067 16.4334 17.9001 16.9001C18.1934 17.3534 18.4267 17.7668 18.6 18.1401L16.68 18.8001C16.5334 18.4401 16.32 18.0268 16.04 17.5601C15.76 17.0934 15.4534 16.6134 15.12 16.1201C14.8 15.6134 14.48 15.1468 14.16 14.7201ZM2.54005 14.2401L4.38005 14.6801C4.12672 15.4401 3.78672 16.1934 3.36005 16.9401C2.94672 17.6868 2.48005 18.3068 1.96005 18.8001L0.160049 18.0601C0.666716 17.6334 1.13338 17.0734 1.56005 16.3801C1.98672 15.6868 2.31338 14.9734 2.54005 14.2401ZM25.3 0.300097H27.06V18.7401H25.3V0.300097ZM22.16 6.9201H30.2V8.6801H22.16V6.9201ZM25 7.8401L26.08 8.3601C25.9067 9.02676 25.7 9.73343 25.46 10.4801C25.22 11.2268 24.9534 11.9668 24.66 12.7001C24.3667 13.4201 24.0534 14.1001 23.72 14.7401C23.4 15.3668 23.0734 15.9134 22.74 16.3801C22.6734 16.1934 22.5867 15.9868 22.48 15.7601C22.3867 15.5201 22.28 15.2868 22.16 15.0601C22.04 14.8334 21.9267 14.6401 21.82 14.4801C22.2334 13.9734 22.6467 13.3401 23.06 12.5801C23.4734 11.8201 23.8467 11.0268 24.18 10.2001C24.5267 9.3601 24.8 8.57343 25 7.8401ZM27.02 8.8801C27.14 8.98676 27.3 9.16676 27.5 9.4201C27.7134 9.67343 27.9467 9.95343 28.2 10.2601C28.4534 10.5668 28.7 10.8801 28.94 11.2001C29.1934 11.5201 29.4134 11.8068 29.6 12.0601C29.8 12.3134 29.9467 12.5001 30.04 12.6201L28.82 14.1001C28.7 13.8334 28.5267 13.4934 28.3 13.0801C28.0734 12.6668 27.82 12.2401 27.54 11.8001C27.2734 11.3601 27.0134 10.9468 26.76 10.5601C26.5067 10.1734 26.3 9.86676 26.14 9.6401L27.02 8.8801ZM22.24 1.8001L23.58 1.4601C23.78 1.92676 23.9534 2.43343 24.1 2.9801C24.2467 3.52676 24.3734 4.0601 24.48 4.5801C24.5867 5.08676 24.66 5.55343 24.7 5.9801L23.24 6.3601C23.2267 5.94676 23.1667 5.4801 23.06 4.9601C22.9667 4.42676 22.8467 3.88676 22.7 3.3401C22.5534 2.7801 22.4 2.26676 22.24 1.8001ZM28.74 1.3601L30.38 1.7601C30.2067 2.26676 30.0267 2.80676 29.84 3.3801C29.6534 3.9401 29.4667 4.4801 29.28 5.0001C29.0934 5.5201 28.9134 5.97343 28.74 6.3601L27.52 6.0001C27.6667 5.58676 27.82 5.10676 27.98 4.5601C28.14 4.01343 28.2867 3.4601 28.42 2.9001C28.5667 2.3401 28.6734 1.82676 28.74 1.3601ZM36.42 0.220097H38.22V18.7601H36.42V0.220097ZM30.16 12.8601L40.44 11.0001L40.7201 12.7601L30.46 14.6201L30.16 12.8601ZM31.5 2.7801L32.44 1.5001C32.8267 1.71343 33.22 1.96676 33.62 2.2601C34.0334 2.5401 34.42 2.82676 34.78 3.1201C35.14 3.41343 35.4267 3.68676 35.64 3.9401L34.66 5.3601C34.4467 5.10676 34.1667 4.82676 33.82 4.5201C33.4734 4.21343 33.0934 3.90676 32.68 3.6001C32.28 3.29343 31.8867 3.0201 31.5 2.7801ZM30.52 7.8201L31.42 6.4801C31.8067 6.6801 32.2134 6.91343 32.64 7.1801C33.08 7.44676 33.4867 7.7201 33.86 8.0001C34.2467 8.26676 34.56 8.5201 34.8 8.7601L33.86 10.2801C33.6334 10.0268 33.3334 9.7601 32.96 9.4801C32.5867 9.18676 32.1867 8.89343 31.76 8.6001C31.3334 8.30676 30.92 8.04676 30.52 7.8201ZM58.5 1.2801C58.6734 1.50676 58.8534 1.78676 59.0401 2.1201C59.24 2.45343 59.4334 2.78676 59.62 3.1201C59.82 3.45343 59.9867 3.75343 60.12 4.0201L58.8 4.5801C58.6 4.1801 58.3467 3.71343 58.04 3.1801C57.7467 2.64676 57.4667 2.19343 57.2 1.8201L58.5 1.2801ZM60.76 0.440096C60.9467 0.680096 61.14 0.966763 61.3401 1.3001C61.5534 1.63343 61.7534 1.96676 61.94 2.3001C62.14 2.6201 62.3 2.90676 62.42 3.1601L61.12 3.7201C60.9067 3.29343 60.6467 2.82676 60.34 2.3201C60.0467 1.8001 59.76 1.35343 59.48 0.980097L60.76 0.440096ZM53.26 1.4401C53.2467 1.6801 53.2267 1.96676 53.2 2.3001C53.1867 2.6201 53.1734 2.9001 53.16 3.1401C53.0934 5.16676 52.9134 6.94676 52.62 8.4801C52.3267 10.0001 51.9134 11.3468 51.38 12.5201C50.86 13.6801 50.2067 14.7068 49.42 15.6001C48.6467 16.4801 47.74 17.2868 46.7 18.0201L44.86 16.5201C45.22 16.3334 45.6067 16.0934 46.02 15.8001C46.4334 15.5068 46.8134 15.1868 47.16 14.8401C47.8 14.2401 48.36 13.5668 48.84 12.8201C49.32 12.0734 49.72 11.2401 50.04 10.3201C50.3734 9.38676 50.6267 8.33343 50.8 7.1601C50.9734 5.97343 51.06 4.64676 51.06 3.1801C51.06 3.03343 51.0534 2.85343 51.04 2.6401C51.04 2.42676 51.0267 2.21343 51 2.0001C50.9734 1.78676 50.9467 1.6001 50.92 1.4401H53.26ZM60.16 5.6601C60.1334 5.8201 60.1067 6.0001 60.08 6.2001C60.0534 6.38676 60.0334 6.54676 60.02 6.6801C60.0067 7.0801 59.9867 7.60676 59.9601 8.2601C59.9334 8.91343 59.8867 9.62676 59.82 10.4001C59.7667 11.1601 59.6934 11.9268 59.6 12.7001C59.5067 13.4601 59.4 14.1668 59.28 14.8201C59.16 15.4601 59.0067 15.9801 58.82 16.3801C58.62 16.8468 58.3334 17.1868 57.96 17.4001C57.6 17.6268 57.1134 17.7401 56.5 17.7401C55.9667 17.7401 55.4134 17.7201 54.84 17.6801C54.28 17.6534 53.7467 17.6268 53.24 17.6001L53 15.5001C53.52 15.5668 54.0267 15.6268 54.52 15.6801C55.0267 15.7201 55.4867 15.7401 55.9 15.7401C56.2067 15.7401 56.4467 15.6934 56.62 15.6001C56.7934 15.4934 56.9334 15.3134 57.04 15.0601C57.1734 14.7801 57.2934 14.3934 57.4 13.9001C57.5067 13.3934 57.5934 12.8334 57.66 12.2201C57.74 11.6068 57.8 10.9801 57.84 10.3401C57.8934 9.7001 57.9267 9.09343 57.94 8.5201C57.9667 7.93343 57.98 7.4201 57.98 6.9801H47.78C47.4067 6.9801 47 6.98676 46.56 7.0001C46.1334 7.01343 45.7267 7.03343 45.34 7.0601V4.9601C45.7267 5.0001 46.1334 5.03343 46.56 5.0601C46.9867 5.08676 47.3934 5.1001 47.78 5.1001H57.38C57.6467 5.1001 57.8934 5.09343 58.12 5.0801C58.3467 5.05343 58.56 5.0201 58.7601 4.9801L60.16 5.6601ZM66.82 9.6401C68.58 9.17343 70.1934 8.6201 71.66 7.9801C73.14 7.32676 74.4334 6.65343 75.54 5.9601C76.2467 5.53343 76.9334 5.05343 77.6 4.5201C78.28 3.98676 78.92 3.43343 79.52 2.8601C80.12 2.28676 80.6467 1.73343 81.1 1.2001L82.78 2.8001C82.1934 3.4001 81.56 3.99343 80.88 4.5801C80.2 5.16676 79.48 5.73343 78.72 6.2801C77.9734 6.81343 77.2067 7.3201 76.42 7.8001C75.6867 8.25343 74.8534 8.71343 73.92 9.1801C72.9867 9.63343 72 10.0734 70.96 10.5001C69.92 10.9134 68.8667 11.2868 67.8 11.6201L66.82 9.6401ZM75.18 7.0001L77.4 6.4201V15.4801C77.4 15.7468 77.4 16.0401 77.4 16.3601C77.4134 16.6668 77.4267 16.9534 77.44 17.2201C77.4667 17.4868 77.5 17.6934 77.54 17.8401H75.06C75.0734 17.6934 75.0934 17.4868 75.12 17.2201C75.1467 16.9534 75.16 16.6668 75.16 16.3601C75.1734 16.0401 75.18 15.7468 75.18 15.4801V7.0001ZM91.96 2.2001C92.32 2.4401 92.7334 2.7401 93.2 3.1001C93.6667 3.44676 94.14 3.8201 94.62 4.2201C95.1134 4.6201 95.58 5.00676 96.02 5.3801C96.46 5.75343 96.8134 6.08676 97.08 6.3801L95.5 8.0001C95.2467 7.73343 94.9134 7.41343 94.5 7.0401C94.0867 6.65343 93.64 6.2601 93.16 5.8601C92.6934 5.44676 92.2267 5.0601 91.76 4.7001C91.2934 4.32676 90.8734 4.01343 90.5 3.7601L91.96 2.2001ZM89.9 15.5801C91.02 15.4068 92.0534 15.1801 93 14.9001C93.9467 14.6068 94.8134 14.2801 95.6 13.9201C96.4 13.5468 97.12 13.1668 97.76 12.7801C98.8267 12.1268 99.8067 11.3734 100.7 10.5201C101.607 9.66676 102.4 8.78676 103.08 7.8801C103.76 6.97343 104.3 6.09343 104.7 5.2401L105.92 7.4201C105.44 8.28676 104.847 9.15343 104.14 10.0201C103.447 10.8868 102.66 11.7201 101.78 12.5201C100.9 13.3068 99.94 14.0201 98.9 14.6601C98.2334 15.0734 97.5 15.4734 96.7 15.8601C95.9134 16.2468 95.06 16.5934 94.14 16.9001C93.2334 17.2068 92.2667 17.4534 91.24 17.6401L89.9 15.5801ZM124.72 0.840097C124.893 1.0801 125.08 1.36676 125.28 1.7001C125.48 2.0201 125.673 2.34676 125.86 2.6801C126.047 3.01343 126.207 3.31343 126.34 3.5801L125.02 4.1601C124.82 3.74676 124.573 3.2801 124.28 2.7601C123.987 2.22676 123.707 1.76676 123.44 1.3801L124.72 0.840097ZM126.98 9.72748e-05C127.167 0.240097 127.36 0.53343 127.56 0.880097C127.773 1.21343 127.973 1.54676 128.16 1.8801C128.36 2.2001 128.52 2.4801 128.64 2.7201L127.34 3.2801C127.127 2.85343 126.867 2.38676 126.56 1.8801C126.267 1.3601 125.98 0.91343 125.7 0.540096L126.98 9.72748e-05ZM117.16 8.3201C117.787 8.6801 118.46 9.09343 119.18 9.5601C119.9 10.0268 120.62 10.5068 121.34 11.0001C122.06 11.4934 122.74 11.9801 123.38 12.4601C124.033 12.9268 124.593 13.3534 125.06 13.7401L123.58 15.5201C123.127 15.1068 122.58 14.6468 121.94 14.1401C121.3 13.6201 120.62 13.1001 119.9 12.5801C119.18 12.0468 118.46 11.5334 117.74 11.0401C117.033 10.5468 116.38 10.1134 115.78 9.7401L117.16 8.3201ZM126.42 4.7801C126.313 4.9401 126.213 5.13343 126.12 5.3601C126.027 5.58676 125.94 5.8001 125.86 6.0001C125.673 6.65343 125.407 7.36676 125.06 8.1401C124.713 8.91343 124.307 9.69343 123.84 10.4801C123.373 11.2668 122.84 12.0268 122.24 12.7601C121.32 13.9068 120.193 15.0001 118.86 16.0401C117.527 17.0668 115.907 17.9334 114 18.6401L112.2 17.0601C113.507 16.6601 114.667 16.1734 115.68 15.6001C116.707 15.0268 117.613 14.4001 118.4 13.7201C119.187 13.0401 119.873 12.3534 120.46 11.6601C120.94 11.0868 121.393 10.4534 121.82 9.7601C122.247 9.06676 122.613 8.37343 122.92 7.6801C123.227 6.98676 123.447 6.35343 123.58 5.7801H116.46L117.22 3.9801H123.3C123.58 3.9801 123.853 3.96676 124.12 3.9401C124.387 3.9001 124.607 3.84676 124.78 3.7801L126.42 4.7801ZM119.74 1.8001C119.54 2.10676 119.34 2.43343 119.14 2.7801C118.953 3.11343 118.807 3.3801 118.7 3.5801C118.273 4.3401 117.727 5.16676 117.06 6.0601C116.407 6.9401 115.653 7.81343 114.8 8.6801C113.947 9.53343 113.013 10.3134 112 11.0201L110.3 9.7201C111.46 9.0001 112.453 8.22676 113.28 7.4001C114.12 6.5601 114.82 5.74676 115.38 4.9601C115.94 4.17343 116.373 3.4801 116.68 2.8801C116.813 2.6801 116.953 2.40676 117.1 2.0601C117.26 1.7001 117.38 1.3801 117.46 1.1001L119.74 1.8001ZM135.96 2.2001C136.32 2.4401 136.733 2.7401 137.2 3.1001C137.667 3.44676 138.14 3.8201 138.62 4.2201C139.113 4.6201 139.58 5.00676 140.02 5.3801C140.46 5.75343 140.813 6.08676 141.08 6.3801L139.5 8.0001C139.247 7.73343 138.913 7.41343 138.5 7.0401C138.087 6.65343 137.64 6.2601 137.16 5.8601C136.693 5.44676 136.227 5.0601 135.76 4.7001C135.293 4.32676 134.873 4.01343 134.5 3.7601L135.96 2.2001ZM133.9 15.5801C135.02 15.4068 136.053 15.1801 137 14.9001C137.947 14.6068 138.813 14.2801 139.6 13.9201C140.4 13.5468 141.12 13.1668 141.76 12.7801C142.827 12.1268 143.807 11.3734 144.7 10.5201C145.607 9.66676 146.4 8.78676 147.08 7.8801C147.76 6.97343 148.3 6.09343 148.7 5.2401L149.92 7.4201C149.44 8.28676 148.847 9.15343 148.14 10.0201C147.447 10.8868 146.66 11.7201 145.78 12.5201C144.9 13.3068 143.94 14.0201 142.9 14.6601C142.233 15.0734 141.5 15.4734 140.7 15.8601C139.913 16.2468 139.06 16.5934 138.14 16.9001C137.233 17.2068 136.267 17.4534 135.24 17.6401L133.9 15.5801ZM169.209 3.6401C169.129 3.73343 169.029 3.88676 168.909 4.1001C168.789 4.31343 168.696 4.50676 168.629 4.6801C168.349 5.3201 168.003 6.03343 167.589 6.8201C167.189 7.60676 166.729 8.39343 166.209 9.1801C165.703 9.95343 165.169 10.6601 164.609 11.3001C163.876 12.1401 163.063 12.9601 162.169 13.7601C161.289 14.5601 160.356 15.3001 159.369 15.9801C158.383 16.6468 157.363 17.2268 156.309 17.7201L154.689 16.0201C155.769 15.5934 156.809 15.0668 157.809 14.4401C158.823 13.8134 159.763 13.1268 160.629 12.3801C161.496 11.6334 162.256 10.8934 162.909 10.1601C163.363 9.65343 163.803 9.09343 164.229 8.4801C164.656 7.85343 165.036 7.22676 165.369 6.6001C165.703 5.97343 165.943 5.4001 166.089 4.8801C165.969 4.8801 165.723 4.8801 165.349 4.8801C164.976 4.8801 164.529 4.8801 164.009 4.8801C163.503 4.8801 162.969 4.8801 162.409 4.8801C161.863 4.8801 161.329 4.8801 160.809 4.8801C160.303 4.8801 159.863 4.8801 159.489 4.8801C159.116 4.8801 158.869 4.8801 158.749 4.8801C158.496 4.8801 158.216 4.89343 157.909 4.9201C157.616 4.93343 157.343 4.95343 157.089 4.9801C156.849 4.99343 156.676 5.0001 156.569 5.0001V2.7401C156.703 2.75343 156.903 2.77343 157.169 2.8001C157.436 2.81343 157.716 2.83343 158.009 2.8601C158.303 2.87343 158.549 2.8801 158.749 2.8801C158.896 2.8801 159.156 2.8801 159.529 2.8801C159.916 2.8801 160.363 2.8801 160.869 2.8801C161.389 2.8801 161.929 2.8801 162.489 2.8801C163.049 2.8801 163.583 2.8801 164.089 2.8801C164.596 2.8801 165.036 2.8801 165.409 2.8801C165.783 2.8801 166.036 2.8801 166.169 2.8801C166.543 2.8801 166.883 2.8601 167.189 2.8201C167.496 2.7801 167.736 2.73343 167.909 2.6801L169.209 3.6401ZM164.869 9.9801C165.403 10.4201 165.963 10.9134 166.549 11.4601C167.136 12.0068 167.709 12.5734 168.269 13.1601C168.829 13.7334 169.349 14.2868 169.829 14.8201C170.323 15.3534 170.736 15.8268 171.069 16.2401L169.309 17.8001C168.816 17.1334 168.249 16.4334 167.609 15.7001C166.969 14.9668 166.289 14.2334 165.569 13.5001C164.849 12.7534 164.129 12.0601 163.409 11.4201L164.869 9.9801ZM77.3047 32.7401H94.9647V34.5201H77.3047V32.7401ZM82.4047 39.9001H91.4847V41.5001H82.4047V39.9001ZM81.0447 36.5001H91.2047V38.1801H82.9047V48.7601H81.0447V36.5001ZM90.8047 36.5001H92.6447V46.6001C92.6447 47.1068 92.5781 47.5001 92.4447 47.7801C92.3247 48.0734 92.0847 48.3001 91.7247 48.4601C91.3647 48.5934 90.8914 48.6734 90.3047 48.7001C89.7314 48.7401 89.0247 48.7601 88.1847 48.7601C88.1581 48.4934 88.0847 48.1801 87.9647 47.8201C87.8447 47.4734 87.7247 47.1734 87.6047 46.9201C88.0047 46.9334 88.3914 46.9468 88.7647 46.9601C89.1381 46.9734 89.4647 46.9801 89.7447 46.9801C90.0247 46.9668 90.2247 46.9601 90.3447 46.9601C90.5181 46.9601 90.6381 46.9334 90.7047 46.8801C90.7714 46.8134 90.8047 46.7068 90.8047 46.5601V36.5001ZM83.6847 30.2001L85.6247 30.6601C85.1714 32.1268 84.5981 33.5868 83.9047 35.0401C83.2114 36.4934 82.3714 37.8468 81.3847 39.1001C80.4114 40.3401 79.2847 41.4068 78.0047 42.3001C77.9114 42.1668 77.7914 42.0134 77.6447 41.8401C77.4981 41.6534 77.3447 41.4734 77.1847 41.3001C77.0381 41.1134 76.8981 40.9668 76.7647 40.8601C77.6581 40.2468 78.4714 39.5401 79.2047 38.7401C79.9381 37.9268 80.5914 37.0534 81.1647 36.1201C81.7514 35.1734 82.2514 34.2001 82.6647 33.2001C83.0914 32.2001 83.4314 31.2001 83.6847 30.2001ZM82.4047 43.2601H91.4847V44.8601H82.4047V43.2601Z" fill="white"/>
</svg>
