<svg width="128" height="19" viewBox="0 0 128 19" fill="none" xmlns="http://www.w3.org/2000/svg">
<path d="M8.6 2.23998H17.76V3.85998H8.6V2.23998ZM11.44 8.17998H15.94V9.51998H11.44V8.17998ZM11.44 10.98H15.94V12.34H11.44V10.98ZM10.52 5.35998H16.14V6.79998H12.14V15.54H10.52V5.35998ZM15.3 5.35998H16.98V13.92C16.98 14.2933 16.94 14.5866 16.86 14.8C16.78 15.0133 16.62 15.18 16.38 15.3C16.14 15.42 15.8467 15.4933 15.5 15.52C15.1533 15.5466 14.7333 15.56 14.24 15.56C14.2 15.3466 14.1333 15.1133 14.04 14.86C13.96 14.5933 13.8733 14.36 13.78 14.16C14.0733 14.1733 14.34 14.18 14.58 14.18C14.82 14.18 14.98 14.18 15.06 14.18C15.22 14.1666 15.3 14.08 15.3 13.92V5.35998ZM5.28 1.79998L6.74 1.11998C7.02 1.49331 7.28667 1.89998 7.54 2.33998C7.80667 2.76665 8.04 3.19331 8.24 3.61998C8.45333 4.03331 8.6 4.41331 8.68 4.75998L7.14 5.51998C7.06 5.17331 6.92 4.78665 6.72 4.35998C6.52 3.93331 6.29333 3.49998 6.04 3.05998C5.8 2.60665 5.54667 2.18665 5.28 1.79998ZM8.38 8.07998V15.14H6.76V9.63998H5.1V8.07998H8.38ZM8.38 14.4C8.7 15.08 9.16 15.62 9.76 16.02C10.36 16.42 11.0933 16.64 11.96 16.68C12.3333 16.6933 12.7733 16.7066 13.28 16.72C13.8 16.72 14.34 16.72 14.9 16.72C15.4733 16.7066 16.0267 16.6933 16.56 16.68C17.1067 16.6533 17.5867 16.62 18 16.58C17.9333 16.7133 17.86 16.88 17.78 17.08C17.7133 17.2933 17.6533 17.5066 17.6 17.72C17.5467 17.9333 17.5067 18.12 17.48 18.28C17.1067 18.2933 16.6733 18.3066 16.18 18.32C15.7 18.3333 15.2 18.34 14.68 18.34C14.16 18.3533 13.6533 18.3533 13.16 18.34C12.68 18.34 12.2467 18.3333 11.86 18.32C10.8733 18.2666 10.0333 18.0266 9.34 17.6C8.66 17.1866 8.08667 16.6066 7.62 15.86C7.23333 16.2866 6.84 16.72 6.44 17.16C6.05333 17.6 5.63333 18.06 5.18 18.54L4.28 16.88C4.68 16.5333 5.11333 16.1466 5.58 15.72C6.04667 15.28 6.48 14.84 6.88 14.4H8.38ZM11.98 0.0799799L13.68 0.37998C13.28 2.15331 12.7133 3.75998 11.98 5.19998C11.26 6.63998 10.36 7.83998 9.28 8.79998C9.2 8.67998 9.08 8.54665 8.92 8.39998C8.77333 8.23998 8.62 8.07998 8.46 7.91998C8.3 7.74665 8.16 7.61331 8.04 7.51998C9.05333 6.69331 9.88 5.63998 10.52 4.35998C11.1733 3.06665 11.66 1.63998 11.98 0.0799799ZM5.96046e-08 0.959979H4.04V2.65998H1.66V18.66H5.96046e-08V0.959979ZM3.72 0.959979H4.02L4.26 0.879979L5.46 1.57998C5.3 2.15331 5.12667 2.76665 4.94 3.41998C4.76667 4.07331 4.58 4.71998 4.38 5.35998C4.19333 5.98665 4.00667 6.57331 3.82 7.11998C4.39333 7.97331 4.76667 8.76665 4.94 9.49998C5.12667 10.22 5.22 10.9 5.22 11.54C5.22 12.1133 5.16 12.6133 5.04 13.04C4.92 13.4666 4.72667 13.7866 4.46 14C4.32667 14.1066 4.17333 14.1933 4 14.26C3.84 14.3133 3.66 14.3533 3.46 14.38C3.14 14.42 2.77333 14.4333 2.36 14.42C2.34667 14.1933 2.30667 13.9266 2.24 13.62C2.18667 13.3133 2.09333 13.04 1.96 12.8C2.13333 12.8133 2.28667 12.8266 2.42 12.84C2.55333 12.8533 2.67333 12.8533 2.78 12.84C2.88667 12.8266 2.98 12.8066 3.06 12.78C3.15333 12.7533 3.23333 12.7133 3.3 12.66C3.42 12.5533 3.5 12.38 3.54 12.14C3.59333 11.8866 3.62 11.6066 3.62 11.3C3.62 10.7666 3.53333 10.1666 3.36 9.49998C3.18667 8.81998 2.82 8.08665 2.26 7.29998C2.39333 6.83331 2.53333 6.33998 2.68 5.81998C2.82667 5.28665 2.96 4.75331 3.08 4.21998C3.21333 3.67331 3.33333 3.16665 3.44 2.69998C3.56 2.21998 3.65333 1.81331 3.72 1.47998V0.959979ZM28.98 2.37998H39.1V4.01998H28.98V2.37998ZM28.22 6.23998H39.82V7.91998H28.22V6.23998ZM28.28 9.93998H39.64V11.6H28.28V9.93998ZM33.04 0.0799799H34.9V7.29998H33.04V0.0799799ZM35.64 7.73998H37.48V16.56C37.48 17.04 37.4133 17.42 37.28 17.7C37.16 17.98 36.9267 18.1866 36.58 18.32C36.2333 18.4666 35.7933 18.5533 35.26 18.58C34.7267 18.62 34.0667 18.64 33.28 18.64C33.24 18.3866 33.16 18.0866 33.04 17.74C32.92 17.4066 32.7933 17.1133 32.66 16.86C33.2333 16.8733 33.76 16.8866 34.24 16.9C34.7333 16.9 35.06 16.9 35.22 16.9C35.38 16.8866 35.4867 16.86 35.54 16.82C35.6067 16.7666 35.64 16.6666 35.64 16.52V7.73998ZM29.32 12.98L30.84 12.1C31.16 12.4333 31.4867 12.8 31.82 13.2C32.1533 13.6 32.46 14 32.74 14.4C33.02 14.7866 33.2333 15.14 33.38 15.46L31.76 16.44C31.6267 16.12 31.4267 15.76 31.16 15.36C30.9067 14.9466 30.62 14.5333 30.3 14.12C29.98 13.7066 29.6533 13.3266 29.32 12.98ZM22.8 1.35998H27.86V14.74H22.8V13.04H26.1V3.07998H22.8V1.35998ZM22.9 7.11998H26.94V8.79998H22.9V7.11998ZM21.9 1.35998H23.66V16.46H21.9V1.35998ZM43.86 5.85998H61.16V10.06H59.32V7.51998H45.64V10.06H43.86V5.85998ZM46.5 9.45998H57.4V11.22H46.5V9.45998ZM58.92 -2.02656e-05L60.22 1.53998C59.1533 1.73998 57.98 1.92665 56.7 2.09998C55.4333 2.27331 54.1067 2.42665 52.72 2.55998C51.3467 2.67998 49.96 2.77998 48.56 2.85998C47.16 2.93998 45.8 3.00665 44.48 3.05998C44.4667 2.81998 44.4133 2.53998 44.32 2.21998C44.2267 1.89998 44.1333 1.63998 44.04 1.43998C45.36 1.38665 46.7 1.31998 48.06 1.23998C49.4333 1.14665 50.78 1.03998 52.1 0.91998C53.4333 0.79998 54.68 0.666647 55.84 0.51998C57 0.35998 58.0267 0.186646 58.92 -2.02656e-05ZM45.76 3.45998L47.4 2.97998C47.68 3.36665 47.94 3.79998 48.18 4.27998C48.42 4.75998 48.5933 5.16665 48.7 5.49998L46.98 6.03998C46.8867 5.69331 46.72 5.27998 46.48 4.79998C46.2533 4.30665 46.0133 3.85998 45.76 3.45998ZM51.06 3.01998L52.76 2.65998C52.9733 3.08665 53.1733 3.55998 53.36 4.07998C53.56 4.59998 53.6933 5.05331 53.76 5.43998L51.98 5.87998C51.9267 5.50665 51.8133 5.05331 51.64 4.51998C51.4667 3.97331 51.2733 3.47331 51.06 3.01998ZM57.68 2.61998L59.66 3.11998C59.42 3.54665 59.1667 3.97998 58.9 4.41998C58.6467 4.84665 58.3867 5.25998 58.12 5.65998C57.8667 6.04665 57.6267 6.39331 57.4 6.69998L55.86 6.21998C56.0733 5.88665 56.2933 5.51331 56.52 5.09998C56.7467 4.67331 56.96 4.24665 57.16 3.81998C57.3733 3.37998 57.5467 2.97998 57.68 2.61998ZM56.7 9.45998H57.1L57.44 9.37998L58.72 10.16C58.1067 11.4533 57.3133 12.5733 56.34 13.52C55.38 14.4666 54.2733 15.2733 53.02 15.94C51.78 16.5933 50.44 17.1333 49 17.56C47.56 17.9866 46.0667 18.3133 44.52 18.54C44.4533 18.3933 44.3533 18.2066 44.22 17.98C44.1 17.7666 43.9667 17.56 43.82 17.36C43.6867 17.16 43.5533 16.9933 43.42 16.86C44.94 16.6733 46.3933 16.4066 47.78 16.06C49.1667 15.7 50.44 15.24 51.6 14.68C52.7733 14.1066 53.7933 13.42 54.66 12.62C55.5267 11.8066 56.2067 10.86 56.7 9.77998V9.45998ZM48.62 10.7C49.38 11.82 50.3933 12.7933 51.66 13.62C52.9267 14.4466 54.3933 15.12 56.06 15.64C57.74 16.16 59.5667 16.5333 61.54 16.76C61.4067 16.8933 61.2667 17.0666 61.12 17.28C60.9733 17.4933 60.8333 17.7066 60.7 17.92C60.58 18.1466 60.4733 18.3466 60.38 18.52C58.3667 18.24 56.5133 17.7933 54.82 17.18C53.1267 16.58 51.62 15.8 50.3 14.84C48.98 13.8666 47.8733 12.7133 46.98 11.38L48.62 10.7ZM72.64 1.67998H83.5V3.05998H72.64V1.67998ZM72.1 6.59998H83.82V8.05998H72.1V6.59998ZM72.08 14.08H83.86V15.6H72.08V14.08ZM74.04 11.64H82.1V12.86H74.04V11.64ZM73.02 4.09998H83.1V5.47998H73.02V4.09998ZM74.9 0.0999796H76.6V7.25998H74.9V0.0999796ZM79.4 0.0999796H81.12V7.25998H79.4V0.0999796ZM77.12 7.31998H78.7V14.96H77.12V7.31998ZM81.06 9.03998H82.8V16.88C82.8 17.3066 82.7467 17.6333 82.64 17.86C82.5333 18.1 82.3267 18.2866 82.02 18.42C81.7267 18.54 81.34 18.6066 80.86 18.62C80.3933 18.6466 79.8267 18.66 79.16 18.66C79.12 18.4333 79.0533 18.18 78.96 17.9C78.88 17.62 78.7867 17.3733 78.68 17.16C79.1333 17.1733 79.5533 17.18 79.94 17.18C80.34 17.1933 80.6 17.2 80.72 17.2C80.8667 17.1866 80.96 17.1533 81 17.1C81.04 17.06 81.06 16.98 81.06 16.86V9.03998ZM73.2 9.03998H81.7V10.38H74.8V18.68H73.2V9.03998ZM66.06 6.29998H71.46V7.77998H66.06V6.29998ZM66.18 0.759979H71.4V2.23998H66.18V0.759979ZM66.06 9.05998H71.46V10.54H66.06V9.05998ZM65.2 3.47998H72.02V5.01998H65.2V3.47998ZM66.96 11.86H71.54V17.8H66.96V16.26H69.94V13.38H66.96V11.86ZM66.02 11.86H67.6V18.66H66.02V11.86ZM101.14 2.01998H103.12V16.12C103.12 16.7333 103.033 17.2066 102.86 17.54C102.687 17.8733 102.387 18.12 101.96 18.28C101.52 18.4533 100.94 18.5533 100.22 18.58C99.5 18.62 98.64 18.64 97.64 18.64C97.6 18.44 97.5333 18.2133 97.44 17.96C97.36 17.72 97.2667 17.4733 97.16 17.22C97.0533 16.98 96.9467 16.7733 96.84 16.6C97.36 16.6266 97.8667 16.6466 98.36 16.66C98.8667 16.66 99.3133 16.66 99.7 16.66C100.1 16.66 100.38 16.66 100.54 16.66C100.753 16.6466 100.907 16.6066 101 16.54C101.093 16.46 101.14 16.3133 101.14 16.1V2.01998ZM89.52 6.01998H91.36V15.2H89.52V6.01998ZM90.3 6.01998H97.86V13.62H90.3V11.82H95.98V7.81998H90.3V6.01998ZM87.54 1.47998H105.52V3.37998H87.54V1.47998ZM112.42 0.0399792L114.4 0.47998C114.16 1.05331 113.9 1.64665 113.62 2.25998C113.34 2.85998 113.06 3.43331 112.78 3.97998C112.5 4.52665 112.233 5.01331 111.98 5.43998L110.34 4.99998C110.593 4.54665 110.847 4.03331 111.1 3.45998C111.367 2.88665 111.613 2.29998 111.84 1.69998C112.08 1.09998 112.273 0.546647 112.42 0.0399792ZM109.22 4.23998C109.927 4.21331 110.733 4.18665 111.64 4.15998C112.56 4.11998 113.533 4.07331 114.56 4.01998C115.587 3.96665 116.62 3.91998 117.66 3.87998L117.64 5.55998C116.653 5.61331 115.667 5.67331 114.68 5.73998C113.693 5.79331 112.747 5.84665 111.84 5.89998C110.933 5.95331 110.107 6.00665 109.36 6.05998L109.22 4.23998ZM110.42 7.25998H116.76V8.83998H112.18V18.64H110.42V7.25998ZM115.88 7.25998H117.74V16.62C117.74 17.06 117.687 17.4133 117.58 17.68C117.473 17.9466 117.267 18.1533 116.96 18.3C116.667 18.4466 116.293 18.5333 115.84 18.56C115.387 18.6 114.853 18.62 114.24 18.62C114.187 18.3666 114.1 18.0733 113.98 17.74C113.86 17.4066 113.733 17.1266 113.6 16.9C114.027 16.9133 114.42 16.9266 114.78 16.94C115.153 16.94 115.413 16.9333 115.56 16.92C115.68 16.92 115.76 16.9 115.8 16.86C115.853 16.8066 115.88 16.72 115.88 16.6V7.25998ZM111.24 10.28H116.9V11.72H111.24V10.28ZM111.24 13.24H116.9V14.7H111.24V13.24ZM119.5 0.139979H121.38V6.49998C121.38 6.83331 121.44 7.04665 121.56 7.13998C121.68 7.23331 121.947 7.27998 122.36 7.27998C122.453 7.27998 122.62 7.27998 122.86 7.27998C123.113 7.27998 123.387 7.27998 123.68 7.27998C123.987 7.27998 124.273 7.27998 124.54 7.27998C124.807 7.27998 125 7.27998 125.12 7.27998C125.36 7.27998 125.54 7.22665 125.66 7.11998C125.793 7.01331 125.887 6.80665 125.94 6.49998C125.993 6.17998 126.033 5.70665 126.06 5.07998C126.193 5.17331 126.353 5.27331 126.54 5.37998C126.74 5.47331 126.947 5.55998 127.16 5.63998C127.373 5.70665 127.567 5.75998 127.74 5.79998C127.673 6.62665 127.553 7.27331 127.38 7.73998C127.22 8.20665 126.973 8.53331 126.64 8.71998C126.307 8.89331 125.853 8.97998 125.28 8.97998C125.187 8.97998 125.033 8.97998 124.82 8.97998C124.607 8.97998 124.367 8.97998 124.1 8.97998C123.833 8.97998 123.567 8.97998 123.3 8.97998C123.033 8.97998 122.793 8.97998 122.58 8.97998C122.38 8.97998 122.233 8.97998 122.14 8.97998C121.447 8.97998 120.907 8.91331 120.52 8.77998C120.133 8.63331 119.867 8.37998 119.72 8.01998C119.573 7.65998 119.5 7.15998 119.5 6.51998V0.139979ZM125.56 1.49998L126.8 2.87998C126.213 3.14665 125.573 3.41331 124.88 3.67998C124.187 3.93331 123.48 4.17331 122.76 4.39998C122.04 4.62665 121.34 4.83998 120.66 5.03998C120.62 4.85331 120.547 4.63331 120.44 4.37998C120.333 4.11331 120.227 3.89331 120.12 3.71998C120.76 3.51998 121.413 3.29331 122.08 3.03998C122.747 2.78665 123.38 2.52665 123.98 2.25998C124.593 1.99331 125.12 1.73998 125.56 1.49998ZM119.5 9.47998H121.36V16.04C121.36 16.3733 121.427 16.5933 121.56 16.7C121.693 16.7933 121.98 16.84 122.42 16.84C122.513 16.84 122.687 16.84 122.94 16.84C123.193 16.84 123.473 16.84 123.78 16.84C124.1 16.84 124.393 16.84 124.66 16.84C124.927 16.84 125.127 16.84 125.26 16.84C125.527 16.84 125.727 16.78 125.86 16.66C125.993 16.54 126.087 16.3 126.14 15.94C126.193 15.5666 126.233 15.02 126.26 14.3C126.473 14.4333 126.74 14.5666 127.06 14.7C127.393 14.8333 127.693 14.9333 127.96 15C127.88 15.92 127.753 16.6333 127.58 17.14C127.42 17.6466 127.167 18 126.82 18.2C126.487 18.4 126.02 18.5 125.42 18.5C125.327 18.5 125.167 18.5 124.94 18.5C124.727 18.5 124.48 18.5 124.2 18.5C123.933 18.5 123.66 18.5 123.38 18.5C123.1 18.5 122.847 18.5 122.62 18.5C122.407 18.5 122.26 18.5 122.18 18.5C121.473 18.5 120.927 18.4266 120.54 18.28C120.153 18.1333 119.88 17.88 119.72 17.52C119.573 17.1733 119.5 16.68 119.5 16.04V9.47998ZM125.76 10.44L127.02 11.84C126.447 12.1733 125.8 12.4866 125.08 12.78C124.36 13.06 123.62 13.3266 122.86 13.58C122.1 13.82 121.367 14.04 120.66 14.24C120.62 14.0533 120.54 13.8266 120.42 13.56C120.3 13.2933 120.193 13.0733 120.1 12.9C120.767 12.6866 121.447 12.4466 122.14 12.18C122.847 11.9 123.513 11.6133 124.14 11.32C124.78 11.0266 125.32 10.7333 125.76 10.44ZM115.02 2.07998L116.6 1.45998C116.947 1.92665 117.287 2.43331 117.62 2.97998C117.953 3.52665 118.253 4.06665 118.52 4.59998C118.8 5.13331 119.007 5.61331 119.14 6.03998L117.44 6.73998C117.32 6.31331 117.133 5.83331 116.88 5.29998C116.627 4.76665 116.34 4.21998 116.02 3.65998C115.7 3.08665 115.367 2.55998 115.02 2.07998Z" fill="white"/>
</svg>
