<svg width="302" height="143" viewBox="0 0 302 143" fill="none" xmlns="http://www.w3.org/2000/svg">
<path d="M515.548 87.2208C515.486 86.865 515.32 86.5055 515.22 86.1275C515.128 85.7754 515.331 85.3047 515.205 84.9341C515.087 84.5894 514.53 84.3856 514.382 84.0261C514.245 83.6888 513.795 83.485 513.633 83.1329C513.478 82.8031 513.599 82.3324 513.422 81.9877C513.256 81.6616 513.249 81.2354 513.06 80.8981C512.88 80.5794 512.477 80.3792 512.278 80.0457C512.09 79.7307 511.794 79.4824 511.591 79.1674C511.392 78.8597 511.625 78.2519 511.41 77.9443C511.2 77.6404 511.06 77.2698 510.838 76.9696C510.621 76.6731 509.941 76.7213 509.709 76.4285C509.48 76.1394 509.58 75.5724 509.34 75.287C509.1 75.0054 508.583 74.9609 508.332 74.6866C508.232 74.5754 508.103 74.4902 507.97 74.4124C507.996 74.1122 507.896 73.7564 508.007 73.4747C508.14 73.1412 508.594 72.9299 508.723 72.5741C508.852 72.2257 509.546 72.0664 509.668 71.7069C509.786 71.3548 509.882 70.9768 509.993 70.6136C510.1 70.2578 510.255 69.8946 510.351 69.5277C510.447 69.1682 509.901 68.6308 509.986 68.2639C510.074 67.9007 510.643 67.6376 510.72 67.2706C510.798 66.9037 510.336 66.4294 510.403 66.0587C510.469 65.6881 510.816 65.3657 510.868 64.9914C510.919 64.6208 511.071 64.2539 511.111 63.8795C511.152 63.5052 511.381 63.1383 511.41 62.764C511.44 62.3897 510.602 61.9672 510.617 61.5891C510.632 61.2148 510.728 60.8553 510.724 60.481C510.724 60.103 511.495 59.7101 511.481 59.3358C511.466 58.9578 510.484 58.6502 510.451 58.2758C510.417 57.9015 510.872 57.4827 510.82 57.1121C510.768 56.7378 510.894 56.3338 510.824 55.9669C510.753 55.5963 510.329 55.3072 510.24 54.944C510.148 54.5771 510.104 54.2102 509.993 53.8544C509.882 53.4949 510.203 52.9798 510.067 52.6277C509.934 52.2756 509.473 52.0495 509.318 51.7123C509.174 51.4047 508.793 51.2082 508.609 50.8821C508.439 50.5782 508.04 50.4337 507.837 50.1261C507.645 49.8296 507.981 49.1662 507.763 48.8771C507.549 48.5917 507.154 48.4509 506.918 48.184C506.682 47.9135 506.243 47.869 505.984 47.6244C505.722 47.3761 505.563 47.0574 505.283 46.8424C505.124 46.7201 505.013 46.5385 504.895 46.368C505.176 46.1382 505.227 45.7454 505.423 45.423C505.611 45.1154 505.622 44.7929 505.737 44.4149C505.84 44.0702 506.394 43.8219 506.446 43.4328C506.49 43.0733 506.379 42.6767 506.387 42.2876C506.39 41.9207 506.575 41.5315 506.549 41.1461C506.523 40.7792 506.224 40.4234 506.172 40.0416C506.125 39.671 506.638 39.2004 506.571 38.8223C506.505 38.4554 505.575 38.2553 505.493 37.8847C505.412 37.5178 506.139 36.9433 506.043 36.5838C505.947 36.2169 505.814 35.8426 505.707 35.4868C505.597 35.1199 505.497 34.7382 505.379 34.3898C505.253 34.0229 504.855 33.756 504.725 33.4151C504.585 33.0482 504.061 32.8554 503.921 32.5256C503.762 32.155 503.533 31.8585 503.382 31.5472C503.197 31.1655 503.009 30.869 502.839 30.591C502.651 30.2797 502.537 29.9276 502.319 29.6126C502.108 29.3124 502.348 28.6564 502.112 28.3599C501.883 28.0708 501.4 27.9745 501.145 27.6928C500.898 27.4185 500.964 26.807 500.698 26.5439C500.433 26.2808 499.775 26.4179 499.495 26.1733C499.214 25.9287 499.218 25.306 498.923 25.08C498.627 24.8502 498.162 24.8131 497.856 24.6093C497.542 24.4018 497.066 24.4573 496.741 24.2794C496.413 24.0978 495.94 24.2609 495.604 24.1127C495.257 23.9607 494.936 23.8903 494.585 23.7828C494.227 23.6716 493.932 23.5419 493.567 23.4752C493.198 23.4085 492.913 22.5709 492.544 22.5598C492.171 22.5487 491.762 22.7488 491.392 22.797C491.027 22.8452 490.706 23.175 490.344 23.2862C489.997 23.3937 489.432 23.0861 489.093 23.2603C488.772 23.4233 488.871 24.3165 488.558 24.5426C488.266 24.7538 487.72 24.6464 487.435 24.9132C487.177 25.1615 486.908 25.7063 486.657 26.0028C486.649 25.6285 486.38 25.0763 486.339 24.7168C486.299 24.3462 486.693 23.9162 486.62 23.5605C486.542 23.1973 486.044 22.9564 485.937 22.6043C485.83 22.2522 486.354 21.6592 486.217 21.322C486.077 20.981 485.213 20.9773 485.043 20.6548C484.874 20.3287 485.435 19.5689 485.235 19.2576C485.036 18.95 484.475 18.8648 484.25 18.572C484.028 18.2829 483.364 18.3756 483.117 18.1013C482.873 17.8308 482.998 17.2193 482.733 16.9635C482.471 16.7078 482.319 16.3187 482.035 16.0778C481.758 15.8406 481.537 15.4996 481.241 15.2772C480.95 15.0586 480.134 15.5997 479.824 15.3958C479.521 15.1957 479.381 14.7621 479.064 14.5768C478.75 14.3915 478.55 14.006 478.222 13.8393C477.897 13.6725 477.661 13.313 477.325 13.1573C476.993 13.0054 476.398 13.4835 476.055 13.3463C475.716 13.2092 475.538 12.6718 475.191 12.5495C474.848 12.4272 474.516 12.2604 474.165 12.153C473.815 12.0455 473.372 12.2938 473.017 12.2011C472.663 12.1085 472.467 11.3413 472.109 11.2635C471.751 11.1857 471.315 11.4636 470.954 11.4006C470.592 11.3376 470.186 11.6045 469.824 11.5563C469.462 11.5081 469.134 11.1894 468.772 11.156C468.407 11.1227 468.06 10.7706 467.694 10.7558C467.329 10.7372 466.952 10.5149 466.587 10.5111C466.221 10.5111 465.86 11.3265 465.494 11.3376C465.125 11.3487 464.786 11.5266 464.424 11.5526C464.058 11.5822 463.634 10.9596 463.272 11.0041C462.907 11.0485 462.626 11.6378 462.268 11.6971C461.906 11.7601 461.419 11.1968 461.065 11.2783C460.707 11.3599 460.43 11.7861 460.079 11.8861C459.725 11.9862 459.274 11.8046 458.931 11.9232C458.584 12.0455 458.418 12.6422 458.082 12.783C457.743 12.9275 457.226 12.6755 456.901 12.8386C456.572 13.0054 456.163 13.061 455.849 13.2463C455.531 13.4353 455.244 13.7058 454.945 13.9171C454.642 14.1283 454.177 14.1728 453.893 14.41C453.612 14.6472 453.416 15.0363 453.154 15.2958C452.892 15.5552 452.542 15.7813 452.305 16.0629C452.069 16.3446 451.969 16.7745 451.759 17.0784C451.552 17.3786 451.833 17.9901 451.652 18.3126C451.475 18.6313 451.187 18.8759 451.035 19.2169C450.888 19.5467 450.707 19.8617 450.585 20.2138C450.467 20.5548 450.212 20.8624 450.12 21.2256C450.031 21.5777 449.943 21.9409 449.88 22.3115C449.843 22.5264 449.732 22.7414 449.644 22.9601C449.526 22.7451 449.382 22.5413 449.267 22.3486C449.075 22.0261 448.961 21.5703 448.695 21.3182C448.433 21.0662 447.879 21.1441 447.555 20.9513C447.244 20.7697 447.075 20.1916 446.72 20.0619C446.384 19.9396 445.879 20.3028 445.506 20.2212C445.155 20.1471 444.867 19.4578 444.494 19.417C444.136 19.3762 443.705 20.0026 443.332 19.9952C442.966 19.984 442.582 19.3688 442.21 19.3836C441.844 19.3985 441.457 19.5282 441.087 19.5615C440.722 19.5949 440.36 19.821 439.995 19.8729C439.629 19.9247 439.308 20.2731 438.946 20.3398C438.581 20.4065 438.112 19.9952 437.758 20.0767C437.392 20.1582 437.167 20.8179 436.82 20.9106C436.455 21.0106 435.92 20.5066 435.576 20.6141C435.211 20.729 435.093 21.5554 434.76 21.6777C434.391 21.8112 434.17 22.1892 433.852 22.3226C433.476 22.4857 432.719 21.7778 432.439 21.9335C432.121 22.1114 432.014 22.671 431.708 22.8674C431.401 23.0638 431.383 23.6642 431.088 23.8792C430.792 24.0941 429.925 23.5493 429.641 23.7791C429.356 24.0089 429.508 24.7575 429.235 25.0021C428.965 25.2468 428.338 25.1096 428.076 25.3691C427.817 25.6248 428.127 26.4364 427.88 26.7033C427.633 26.9701 426.942 26.833 426.706 27.1109C426.47 27.3889 426.776 28.1005 426.547 28.3896C426.322 28.6749 426.053 28.9047 425.839 29.2012C425.625 29.494 425.119 29.5718 424.912 29.8757C424.709 30.1759 424.683 30.591 424.488 30.8986C424.292 31.2062 423.498 31.1469 423.314 31.4619C423.129 31.777 423.151 32.218 422.974 32.5404C422.797 32.8592 422.623 33.1853 422.457 33.5114C422.291 33.8376 422.483 34.3416 422.324 34.6678C422.166 34.9976 421.579 35.1273 421.431 35.4572C421.28 35.7907 421.483 36.2799 421.343 36.6172C421.199 36.9544 421.047 37.2843 420.914 37.6215C420.8 37.9143 421.029 38.3368 420.922 38.6296C420.811 38.9261 420.143 39.015 420.04 39.3115C419.914 39.671 419.538 39.9712 419.464 40.3085C419.382 40.6754 419.541 41.1016 419.504 41.4537C419.467 41.8243 420.091 42.1912 420.099 42.5507C420.106 42.9176 419.482 43.3031 419.519 43.6625C419.556 44.022 419.301 44.4334 419.353 44.7966C419.405 45.1524 420.375 45.3711 420.431 45.738C420.482 46.0901 419.796 46.5533 419.84 46.9202C419.881 47.2723 420.578 47.5762 420.601 47.9468C420.619 48.2433 420.608 48.2619 420.601 48.4842C420.56 48.3434 420.372 48.3582 420.339 48.1136C420.298 47.8097 420.065 47.6244 419.907 47.3316C419.578 47.1018 419.405 46.7498 419.091 46.5867C418.737 46.4014 418.467 45.9678 418.127 45.8677C417.747 45.7565 417.289 45.7676 416.931 45.7565C416.548 45.7417 416.06 45.6379 415.702 45.7306C415.341 45.8232 414.953 46.116 414.621 46.3087C414.307 46.4903 414.241 47.0685 413.953 47.3316C413.687 47.5762 413.255 47.6837 413.011 47.9913C412.786 48.273 412.461 48.5324 412.255 48.8623C412.063 49.1736 412.085 49.6294 411.908 49.9741C411.741 50.3002 412.04 50.8339 411.889 51.1897C411.745 51.5307 411.66 51.8679 411.535 52.2311C411.413 52.5795 410.501 52.6722 410.394 53.0391C410.287 53.3949 410.601 53.8767 410.509 54.2436C410.42 54.6068 409.752 54.844 409.674 55.2183C409.641 55.3814 409.789 55.5815 409.955 55.7816C409.925 55.789 409.896 55.7964 409.866 55.8001C409.501 55.8594 409.084 55.6223 408.726 55.7001C408.364 55.7816 407.947 55.6741 407.592 55.7742C407.234 55.878 406.869 56.0003 406.526 56.1226C406.175 56.2486 405.88 56.534 405.544 56.6859C405.204 56.8379 404.986 57.2307 404.665 57.4049C404.337 57.5828 403.742 57.3123 403.432 57.5161C403.122 57.7199 402.812 57.9757 402.524 58.2054C402.233 58.4352 402.008 58.7836 401.742 59.0393C401.476 59.295 401.188 59.5656 400.948 59.851C400.708 60.1326 400.394 60.3958 400.184 60.7034C399.977 61.0073 400.513 61.7596 400.335 62.0895C400.162 62.4119 399.638 62.5379 399.494 62.8826C399.353 63.2198 399.575 63.6646 399.468 64.0241C399.361 64.3724 399.317 64.6986 399.243 65.0692C399.169 65.425 398.523 65.6807 398.479 66.055C398.479 66.081 398.468 66.1069 398.464 66.1366C398.464 66.1143 398.464 66.0921 398.456 66.0699C398.331 65.7066 398.39 65.1581 398.183 64.8691C397.969 64.5726 397.054 64.9506 396.762 64.7282C396.478 64.5133 396.552 63.6979 396.208 63.546C395.887 63.4051 395.33 63.9203 394.964 63.8276C394.621 63.7424 394.285 63.8647 393.912 63.8202C393.558 63.7758 393.259 63.2124 392.89 63.2013C392.532 63.1902 392.174 63.3718 391.808 63.3866C391.447 63.4051 391.074 63.2198 390.708 63.2569C390.347 63.294 389.937 63.0456 389.579 63.1012C389.217 63.1605 388.863 63.3162 388.508 63.3903C388.147 63.4644 387.741 63.3977 387.397 63.4867C387.036 63.5793 386.703 63.798 386.364 63.8981C386.002 64.0092 385.784 64.5281 385.459 64.6467C385.094 64.7764 384.666 64.6875 384.356 64.8209C383.983 64.984 383.584 65.0507 383.311 65.2063C383.248 65.2397 383.197 65.2879 383.141 65.336C383.112 65.3027 383.078 65.2693 383.049 65.236C382.809 64.9432 382.462 64.7727 382.193 64.5096C381.919 64.239 381.757 63.8832 381.462 63.6572C381.155 63.4237 380.675 63.5571 380.351 63.3866C380.284 63.3533 380.229 63.3051 380.177 63.2532C380.232 63.205 380.292 63.1605 380.362 63.1272C380.705 62.9641 381.632 63.5756 381.868 63.2902C382.093 63.0197 382.045 62.423 382.181 62.0598C382.307 61.7337 381.683 61.2185 381.746 60.8331C381.801 60.4847 382.916 60.2179 382.927 59.8324C382.938 59.4766 382.263 59.0949 382.241 58.7169C382.218 58.3574 381.975 58.0238 381.927 57.6495C381.879 57.2863 382.473 56.8193 382.407 56.4524C382.34 56.0892 381.687 55.8483 381.602 55.4888C381.517 55.1293 381.565 54.7402 381.465 54.3881C381.366 54.0286 381.037 53.7469 380.926 53.4023C380.812 53.0428 380.738 52.687 380.616 52.3497C380.487 51.9865 380.232 51.7049 380.1 51.3787C379.952 51.0118 380.498 50.367 380.351 50.0593C380.17 49.6813 379.609 49.5479 379.446 49.2811C379.262 48.9734 379.387 48.4361 379.169 48.1284C378.959 47.832 378.852 47.4132 378.616 47.1241C378.383 46.8387 378.117 46.5422 377.863 46.268C377.612 45.9974 377.165 45.8899 376.896 45.6379C376.626 45.3859 375.987 45.5638 375.703 45.3303C375.415 45.0968 375.271 44.6966 374.969 44.489C374.662 44.2778 374.456 43.9146 374.134 43.733C373.81 43.5477 373.477 43.3624 373.141 43.2178C372.798 43.0696 372.51 42.6915 372.16 42.5915C371.802 42.4877 371.288 43.1437 370.927 43.0955C370.558 43.0436 370.255 42.8694 369.886 42.8843C369.52 42.8991 369.114 42.5692 368.753 42.6545C368.398 42.736 367.952 42.6878 367.605 42.8435C367.28 42.988 367.261 43.7181 366.944 43.9368C366.652 44.1369 365.822 43.7107 365.537 43.9776C365.279 44.2185 365.305 45.1672 365.057 45.4674C365.05 45.0894 364.976 44.452 364.932 44.0888C364.888 43.7181 364.666 43.4031 364.585 43.0436C364.5 42.6804 365.069 42.1245 364.947 41.7761C364.825 41.424 364.707 41.0238 364.552 40.6902C364.393 40.353 363.939 40.1454 363.747 39.8267C363.559 39.5117 363.072 39.3931 362.85 39.0966C362.632 38.8001 362.485 38.4554 362.241 38.1775C361.997 37.9032 361.665 37.729 361.396 37.4696C361.13 37.2176 360.753 37.1212 360.466 36.884C360.181 36.6505 360.133 36.128 359.827 35.913C359.528 35.7018 359.011 35.8352 358.697 35.6388C358.384 35.446 358.051 35.3423 357.723 35.1644C357.398 34.9902 357.239 34.5158 356.903 34.3601C356.571 34.2045 356.449 33.5226 356.106 33.3854C355.766 33.2483 355.18 33.7486 354.829 33.63C354.482 33.5114 354.057 33.6893 353.699 33.5893C353.345 33.4892 353.087 33.0741 352.729 32.9889C352.371 32.9036 352.027 32.7739 351.665 32.7072C351.304 32.6405 351.031 31.9549 350.665 31.903C350.3 31.8511 349.868 32.2551 349.502 32.2217C349.133 32.1883 348.779 31.8437 348.41 31.8251C348.041 31.8103 347.653 31.814 347.284 31.814C346.915 31.814 346.535 31.966 346.165 31.9882C345.796 32.0067 345.412 32.0216 345.047 32.0586C344.678 32.0994 344.338 32.3811 343.973 32.4404C343.607 32.4997 343.175 32.2699 342.817 32.3477C342.456 32.4292 342.19 32.9185 341.839 33.0185C341.481 33.1223 341.263 33.5856 340.92 33.7116C340.569 33.8376 340.075 33.5411 339.739 33.6893C339.399 33.8413 338.864 33.6226 338.543 33.7968C338.214 33.9747 338.141 34.5973 337.834 34.8012C337.524 35.005 337.04 34.9717 336.749 35.2014C336.457 35.4312 335.94 35.4535 335.675 35.7092C335.409 35.9649 335.675 36.758 335.438 37.0397C335.199 37.3213 334.995 37.603 334.785 37.9106C334.578 38.2145 334.508 38.574 334.331 38.9039C334.158 39.2263 333.349 39.2522 333.205 39.5969C333.065 39.9342 333.571 40.516 333.464 40.8755C333.357 41.2239 332.592 41.4166 332.515 41.7872C332.463 42.0393 332.622 42.3358 332.707 42.6211C332.408 42.4581 331.928 42.3839 331.78 42.1764C331.566 41.8799 331.182 41.8873 330.891 41.6649C330.607 41.45 330.548 40.9682 330.204 40.8162C329.883 40.6754 329.691 40.0046 329.326 39.9119C328.982 39.8267 328.488 40.416 328.115 40.3678C327.764 40.3233 327.421 40.138 327.048 40.1269C326.69 40.1158 326.325 40.012 325.956 40.0305C325.594 40.0491 325.214 39.9416 324.848 39.9824C324.486 40.0194 324.117 40.0972 323.759 40.1565C323.397 40.2158 323.161 40.9126 322.811 40.9867C322.449 41.0608 322.017 40.7569 321.67 40.8459C321.308 40.9385 320.924 40.92 320.588 41.0201C320.227 41.1313 319.861 41.2017 319.536 41.3203C319.171 41.45 318.927 41.8243 318.617 41.9577C318.244 42.1208 318.016 42.4321 317.739 42.5878C317.421 42.7657 316.753 42.3691 316.45 42.5692C316.148 42.7694 316.222 43.5143 315.93 43.733C315.638 43.9516 315.162 43.922 314.882 44.1555C314.605 44.389 314.679 45.0042 314.416 45.2525C314.154 45.5008 313.914 45.7454 313.663 46.0085C313.412 46.2717 312.988 46.3532 312.752 46.6312C312.515 46.9054 312.036 46.9795 311.81 47.2649C311.585 47.5503 311.729 48.1136 311.515 48.4064C311.301 48.6992 311.264 49.0995 311.061 49.4034C310.858 49.7073 310.087 49.6331 309.895 49.9407C309.854 50.0037 309.802 50.0593 309.743 50.1112C309.478 50.0408 309.16 50.0223 308.979 49.8555C308.71 49.6035 308.544 49.2773 308.256 49.0476C307.968 48.8141 308.008 48.1544 307.706 47.9468C307.399 47.7356 307.06 47.5577 306.739 47.3798C306.414 47.1945 305.982 47.2316 305.646 47.087C305.303 46.9388 305.114 46.305 304.767 46.2013C304.409 46.0975 303.918 46.4977 303.557 46.4496C303.188 46.3977 302.811 45.8418 302.446 45.8529C302.08 45.8677 301.814 46.7535 301.449 46.835C301.095 46.9165 300.445 46.1716 300.098 46.3273C299.773 46.4718 299.625 47.0796 299.308 47.2983C299.016 47.4984 298.85 47.8764 298.566 48.1433C298.308 48.3842 298.012 48.4472 297.765 48.7437C297.758 48.3656 297.632 48.1284 297.588 47.7652C297.544 47.3946 297.684 46.9869 297.603 46.6312C297.518 46.268 297.296 45.9344 297.178 45.5897C297.056 45.2377 296.838 44.93 296.683 44.5928C296.525 44.2555 296.868 43.6255 296.676 43.3105C296.488 42.9954 295.524 43.1845 295.303 42.8843C295.085 42.5878 295.251 41.9874 295.004 41.7094C294.76 41.4352 294.373 41.2906 294.103 41.0312C293.837 40.7755 293.645 40.4308 293.358 40.1973C293.073 39.9638 292.959 39.4746 292.653 39.2597C292.354 39.0484 291.914 39.0039 291.597 38.8075C291.283 38.6148 290.626 39.0373 290.297 38.8631C289.973 38.6889 289.64 38.6 289.301 38.4443C288.969 38.2886 288.917 37.4992 288.57 37.3621C288.23 37.225 287.957 36.8544 287.607 36.7358C287.26 36.6172 286.732 37.0471 286.374 36.9433C286.019 36.8433 285.798 36.2021 285.44 36.1169C285.082 36.0316 284.694 35.9834 284.332 35.9167C283.971 35.85 283.531 36.191 283.166 36.1428C282.8 36.0909 282.453 35.8574 282.084 35.8241C281.715 35.7907 281.32 36.2725 280.951 36.2577C280.582 36.2429 280.228 35.7722 279.858 35.7759C279.489 35.7759 279.117 35.8574 278.751 35.876C278.382 35.8945 278.046 36.2429 277.681 36.2836C277.311 36.3244 276.857 35.7277 276.496 35.787C276.13 35.8463 275.824 36.2651 275.466 36.3466C275.104 36.4282 274.65 36.1947 274.299 36.2947C273.941 36.3985 273.724 36.9507 273.38 37.073C273.03 37.199 272.457 36.7951 272.121 36.9433C271.782 37.0953 271.619 37.6549 271.298 37.8291C270.97 38.007 270.796 38.4184 270.486 38.6222C270.176 38.826 269.988 39.1522 269.7 39.382C269.408 39.6117 268.825 39.4783 268.556 39.7377C268.29 39.9935 268.109 40.3418 267.869 40.6235C267.629 40.9052 267.806 41.4722 267.596 41.7798C267.389 42.0837 267.267 42.3802 267.09 42.7064C266.917 43.0288 266.758 43.3031 266.614 43.6514C266.474 43.9887 265.403 43.9961 265.293 44.3556C265.186 44.704 265.466 45.1858 265.389 45.5564C265.315 45.9122 265.58 46.3236 265.54 46.7016C265.499 47.0611 265.281 47.4058 265.267 47.7875C265.259 48.0098 265.281 48.3879 265.304 48.7363C265.259 48.3916 265.186 48.021 265.167 47.8134C265.13 47.4243 265.603 46.898 265.492 46.5756C265.366 46.2124 265.03 45.8343 264.824 45.549C264.61 45.2525 264.329 44.8411 264.038 44.6187C263.753 44.4038 263.022 44.9041 262.679 44.7522C262.358 44.6113 262.214 43.9146 261.849 43.8219C261.505 43.7367 261.11 43.6774 260.741 43.6329C260.387 43.5884 259.999 43.6403 259.626 43.6329C259.268 43.6218 258.884 43.5106 258.515 43.5254C258.154 43.5439 257.796 43.796 257.434 43.8367C257.072 43.8738 256.703 43.8886 256.341 43.9442C256.205 43.9664 256.072 43.9998 255.939 44.0295C256.101 43.7737 256.349 43.5032 256.323 43.2549C256.286 42.8991 256.013 42.5433 255.946 42.1801C255.883 41.8243 255.839 41.4463 255.754 41.0905C255.673 40.7347 254.957 40.5457 254.857 40.201C254.758 39.8452 255.418 39.256 255.308 38.9187C255.189 38.5629 254.706 38.3331 254.58 38.0107C254.44 37.6475 254.222 37.3399 254.086 37.036C253.912 36.6542 254.123 36.0983 253.968 35.8389C253.783 35.5313 253.565 35.1755 253.336 34.8642C253.119 34.5677 252.421 34.6344 252.174 34.349C251.93 34.0711 251.738 33.7486 251.469 33.4855C251.203 33.2261 250.745 33.2038 250.457 32.9666C250.169 32.7294 250.081 32.2439 249.774 32.0401C249.461 31.8289 249.176 31.5768 248.848 31.4064C248.512 31.2322 248.224 30.8949 247.881 30.7763C247.523 30.6503 247.094 30.7133 246.729 30.654C246.36 30.5947 245.994 31.1099 245.625 31.1284C245.256 31.1469 245.009 31.2396 244.647 31.3471C244.3 31.4508 243.835 31.1432 243.499 31.3359C243.189 31.5101 242.621 31.4064 242.325 31.6658C242.059 31.8993 242.037 32.4885 241.786 32.7924C241.779 32.4107 241.646 32.0142 241.594 31.651C241.539 31.2766 241.436 30.932 241.336 30.5762C241.233 30.213 241.661 29.6385 241.513 29.2976C241.366 28.9529 240.923 28.712 240.734 28.3896C240.546 28.0671 240.029 27.9671 239.8 27.6669C239.575 27.3704 239.343 27.1035 239.084 26.8293C238.83 26.5587 239.01 25.8027 238.726 25.5581C238.446 25.3135 237.877 25.3987 237.571 25.1763C237.268 24.9614 236.977 24.7131 236.655 24.5166C236.338 24.3239 235.744 24.6575 235.408 24.487C235.076 24.3202 234.943 23.7643 234.596 23.6161C234.252 23.4715 233.883 23.4085 233.529 23.2825C233.178 23.1602 232.901 22.7859 232.54 22.6821C232.182 22.582 231.879 22.1707 231.513 22.0891C231.148 22.0076 230.694 22.3004 230.325 22.2411C229.956 22.1818 229.546 22.4486 229.177 22.4116C228.804 22.3745 228.464 21.8779 228.092 21.863C227.719 21.8482 227.327 21.9483 226.958 21.952C226.582 21.9594 226.183 21.7667 225.814 21.7926C225.441 21.8223 225.142 22.5561 224.777 22.608C224.404 22.6636 223.883 21.9149 223.522 21.9928C223.153 22.0743 222.758 22.1818 222.4 22.2893C222.038 22.3967 221.809 22.9489 221.462 23.0861C221.111 23.2232 220.975 23.7939 220.643 23.9607C220.307 24.1312 219.513 23.5012 219.199 23.7013C218.882 23.9051 218.9 24.6167 218.609 24.8502C218.317 25.0874 218.365 25.647 218.107 25.9139C217.848 26.1807 217.228 26.1029 217.003 26.4031C216.781 26.6996 216.187 26.7959 216.003 27.1258C215.822 27.4482 216.46 28.1783 216.316 28.5304C216.18 28.8714 215.39 28.9862 215.286 29.3569C215.19 29.7089 215.667 30.1944 215.608 30.5762C215.574 30.7911 215.622 31.0024 215.659 31.2173C215.567 31.2322 215.475 31.284 215.379 31.3545C215.393 31.0172 215.46 30.6429 215.349 30.4094C215.187 30.0721 214.725 29.7571 214.467 29.5162C214.209 29.2753 213.828 28.9862 213.492 28.8232C213.179 28.6749 212.776 28.4526 212.411 28.3636C212.071 28.2821 211.654 28.1524 211.281 28.119C210.931 28.0857 210.514 28.0523 210.144 28.056C209.786 28.0597 209.399 28.245 209.033 28.2784C208.709 28.308 208.384 28.46 208.059 28.5304C207.885 28.3562 207.69 28.1968 207.542 28.0004C207.324 27.7039 207.42 27.1517 207.173 26.8737C206.929 26.5995 206.195 26.8144 205.925 26.5587C205.659 26.303 205.442 26.0473 205.154 25.8101C204.87 25.5766 205.047 24.739 204.744 24.5241C204.445 24.3128 204.021 24.2572 203.703 24.0645C203.389 23.8718 203.094 23.6235 202.766 23.4456C202.441 23.2714 202.19 22.9082 201.854 22.7525C201.522 22.5969 200.865 23.1861 200.521 23.049C200.182 22.9119 200.134 21.9594 199.783 21.8371C199.436 21.7185 198.831 22.3967 198.476 22.2967C198.122 22.1966 197.801 22.0261 197.439 21.9409C197.081 21.8556 196.8 21.4072 196.435 21.3405C196.073 21.2738 195.752 20.8402 195.387 20.7883C195.021 20.7364 194.626 20.7216 194.261 20.6882C193.892 20.6548 193.474 21.2478 193.105 21.2293C192.736 21.2145 192.371 20.9699 192.005 20.9699C191.636 20.9699 191.271 21.1663 190.905 21.1885C190.536 21.2071 190.2 21.5147 189.835 21.5554C189.466 21.5962 189.067 21.322 188.705 21.3812C188.34 21.4405 188.026 21.7185 187.668 21.8C187.306 21.8816 186.745 21.1959 186.391 21.2997C186.033 21.4035 185.952 22.3782 185.608 22.5005C185.258 22.6265 184.756 22.3337 184.42 22.482C184.08 22.6339 184.01 23.301 183.689 23.4752C183.36 23.6531 182.796 23.3826 182.485 23.5827C182.175 23.7865 181.777 23.8866 181.489 24.1127C181.197 24.3425 181.219 24.928 180.954 25.1837C180.688 25.4395 179.857 25.1837 179.617 25.4654C179.377 25.7471 179.972 26.6699 179.761 26.9775C179.555 27.2814 179.145 27.4148 178.964 27.7447C178.79 28.0671 178.927 28.497 178.783 28.8454C178.643 29.1827 178.259 29.3976 178.148 29.7571C178.041 30.1055 177.491 30.3464 177.414 30.717C177.34 31.0728 177.362 31.4657 177.318 31.8437C177.307 31.9474 177.259 32.0549 177.203 32.1587C177.218 32.0697 177.218 31.9882 177.192 31.9067C177.07 31.5435 176.782 31.2952 176.576 31.0098C176.362 30.7133 176.384 30.1351 176.092 29.9128C175.808 29.6978 175.217 29.9573 174.874 29.809C174.553 29.6682 174.198 29.7312 173.833 29.6385C173.49 29.5533 173.161 29.6385 172.788 29.5903C172.434 29.5459 172.12 29.4643 171.751 29.4532C171.393 29.4421 171.031 28.7528 170.662 28.7676C170.3 28.7861 169.961 29.1641 169.599 29.2049C169.237 29.242 168.894 29.3606 168.536 29.4199C168.174 29.4792 167.772 29.2864 167.418 29.3606C167.056 29.4347 166.853 30.1314 166.509 30.2204C166.148 30.313 165.716 30.0536 165.376 30.1574C165.015 30.2686 164.568 30.0721 164.243 30.1907C163.878 30.3205 163.59 30.5984 163.28 30.7318C162.903 30.8949 162.704 31.284 162.431 31.4397C162.113 31.6176 161.87 31.8733 161.567 32.0735C161.264 32.2736 160.511 31.8363 160.223 32.0549C159.932 32.2736 159.562 32.4329 159.282 32.6701C159.005 32.9036 158.721 33.1779 158.459 33.4262C158.197 33.6745 158.311 34.3305 158.06 34.5936C157.809 34.8568 157.577 35.131 157.337 35.409C157.1 35.6832 156.406 35.5943 156.181 35.8834C155.956 36.1687 156.336 36.9248 156.122 37.2213C155.908 37.5141 155.967 37.9847 155.764 38.2887C155.561 38.5926 154.993 38.6444 154.801 38.952C154.609 39.2597 154.417 39.5673 154.236 39.886C154.055 40.201 153.874 40.516 153.704 40.8385C153.535 41.1609 153.675 41.6353 153.516 41.9614C153.354 42.2876 152.663 42.358 152.512 42.6878C152.361 43.0214 152.254 43.3772 152.11 43.7107C151.966 44.048 151.936 44.4334 151.803 44.767C151.7 45.0264 151.338 45.1895 151.239 45.4526C151.139 45.7157 151.829 46.2643 151.737 46.5237C151.611 46.8832 150.607 46.9684 150.537 47.302C150.46 47.6689 151.054 48.1284 151.028 48.4768C151.002 48.8437 151.22 49.1662 151.239 49.5219C151.257 49.8852 151.257 50.2113 151.301 50.5708C151.346 50.9266 151.109 51.3157 151.165 51.6789C151.216 52.0236 151.032 52.4053 151.065 52.7648C150.818 52.5943 150.559 52.4239 150.356 52.3201C149.998 52.1459 149.341 52.8982 149.005 52.8167C148.625 52.7278 148.382 52.5165 148.031 52.5424C147.658 52.5721 147.27 52.3646 146.931 52.5091C146.599 52.6499 146.41 53.0131 146.108 53.2503C145.827 53.469 145.801 53.8878 145.55 54.1806C145.318 54.4511 144.373 54.1991 144.162 54.5215C143.967 54.8217 144.029 55.3221 143.852 55.663C143.686 55.9855 143.649 56.382 143.502 56.7341C143.361 57.0676 143.155 57.3901 143.033 57.7496C143.022 57.7792 143.007 57.8089 142.992 57.8422H142.985C142.616 57.8608 142.106 57.3493 141.745 57.4568C141.398 57.5606 140.962 57.7644 140.626 57.9571C140.32 58.1313 139.906 58.3611 139.607 58.6205C139.341 58.854 139.53 59.1542 139.279 59.4581C139.271 59.0764 139.286 59.0356 139.234 58.6724C139.179 58.2981 139.319 57.8459 139.22 57.4901C139.116 57.1269 138.382 56.9824 138.234 56.6414C138.086 56.2968 138.02 55.9373 137.832 55.6148C137.64 55.2924 137.548 54.9144 137.322 54.6179C137.097 54.3214 136.883 54.0101 136.625 53.7358C136.37 53.4653 136.005 53.3133 135.72 53.065C135.44 52.8204 135.1 52.6685 134.797 52.4498C134.498 52.2348 134.085 52.2274 133.76 52.031C133.443 51.8383 133.24 51.4825 132.904 51.312C132.572 51.1452 132.394 50.6449 132.047 50.5004C131.704 50.3558 131.261 50.4633 130.907 50.3373C130.556 50.215 130.087 50.5263 129.726 50.4225C129.368 50.3225 129.187 49.5479 128.821 49.4664C128.456 49.3848 128.098 49.1995 127.729 49.1402C127.359 49.0809 126.972 49.0327 126.603 48.9957C126.23 48.9586 125.813 49.5553 125.444 49.5368C125.071 49.5219 124.717 49.4145 124.344 49.4219C123.967 49.4293 123.554 48.6955 123.181 48.7251C122.808 48.7548 122.465 49.2255 122.096 49.2811C121.723 49.3366 121.368 49.4886 121.007 49.5664C120.638 49.648 120.313 49.8592 119.958 49.9667C119.597 50.0742 119.268 50.2261 118.925 50.3632C118.574 50.5004 118.02 50.1891 117.688 50.3558C117.352 50.5263 117.426 51.401 117.112 51.6011C116.795 51.8049 116.529 51.9865 116.238 52.22C115.946 52.4572 115.555 52.5165 115.293 52.7871C115.034 53.0539 114.964 53.4356 114.739 53.7358C114.517 54.0323 114.44 54.3548 114.252 54.6846C114.071 55.007 113.739 55.1998 113.595 55.5518C113.454 55.8928 113.428 56.2301 113.325 56.6007C113.229 56.9528 112.853 57.227 112.794 57.6087C112.753 57.8719 112.794 58.1424 112.812 58.4167C112.653 58.1535 112.376 57.9275 112.266 57.7014C112.103 57.3641 111.919 57.0269 111.657 56.786C111.398 56.5451 110.944 56.6081 110.608 56.445C110.295 56.2968 110.147 55.5592 109.778 55.474C109.438 55.3925 108.936 56.2671 108.563 56.2338C108.213 56.2004 107.892 55.3295 107.522 55.3369C107.164 55.3406 106.792 55.5037 106.426 55.537C106.068 55.5704 105.802 56.3042 105.444 56.3598C105.086 56.4154 104.536 55.4518 104.185 55.5296C103.942 55.5815 103.709 55.7075 103.477 55.8113C103.455 55.7964 103.432 55.7853 103.414 55.7705C103.145 55.5185 102.831 55.348 102.543 55.1145C102.255 54.881 101.923 54.7587 101.62 54.5475C101.314 54.3362 101.177 53.9063 100.86 53.7247C100.535 53.5394 100.269 53.2577 99.9368 53.1132C99.5935 52.965 99.3535 52.4794 99.0029 52.3757C98.6448 52.2719 98.1723 52.6166 97.8106 52.5684C97.4415 52.5165 97.0686 51.9569 96.6995 51.9717C96.3341 51.9865 95.9022 52.1422 95.5404 52.2274C95.1861 52.309 94.9055 52.7463 94.5622 52.9019C94.2374 53.0465 94.0085 53.3763 93.6911 53.5913C93.3995 53.7914 93.322 54.2176 93.0377 54.4808C92.7793 54.7217 92.1703 54.8662 91.923 55.1627C91.9156 54.7847 92.2109 54.1917 92.1666 53.8285C92.1223 53.4579 92.1223 53.0465 92.0374 52.6907C91.9525 52.3275 91.5354 52.0421 91.4173 51.6937C91.2954 51.3417 91.4911 50.8413 91.3323 50.5041C91.1736 50.1668 90.7196 49.9667 90.5276 49.648C90.3394 49.3329 90.0994 49.0402 89.878 48.74C89.6602 48.4435 89.4498 48.1284 89.2062 47.8505C88.9625 47.5762 88.9662 47.0277 88.6968 46.7683C88.431 46.5163 87.94 46.4792 87.6521 46.242C87.3679 46.0085 87.0135 45.8492 86.7108 45.6342C86.4118 45.423 86.2716 44.93 85.9541 44.7373C85.6404 44.5446 85.0866 44.7484 84.7581 44.5743C84.4333 44.4001 83.9682 44.5372 83.6286 44.3815C83.2964 44.2259 83.0897 43.7923 82.7464 43.6551C82.4031 43.518 82.1262 43.203 81.7756 43.0844C81.4286 42.9658 81.0004 43.0918 80.6423 42.9917C80.2879 42.8917 79.9077 42.9139 79.5497 42.8287C79.1916 42.7434 78.9369 42.1467 78.5752 42.08C78.2134 42.0133 77.848 41.8502 77.4826 41.8021C77.1171 41.7502 76.6778 42.2765 76.3124 42.2431C75.9433 42.2097 75.6037 41.7465 75.2345 41.7317C74.8654 41.7168 74.4852 42.0689 74.1161 42.0726C73.747 42.0726 73.3926 42.2987 73.0272 42.3172C72.658 42.3358 72.3 42.3135 71.9345 42.3506C71.5654 42.3913 71.1557 42.08 70.7939 42.1393C70.4285 42.1986 70.052 42.2357 69.6939 42.3172C69.3321 42.3988 68.8634 42.1356 68.5127 42.2357C68.1546 42.3395 67.9368 42.925 67.5935 43.0473C67.2429 43.1733 67.014 43.5699 66.6781 43.7181C66.3385 43.8701 65.8918 43.77 65.567 43.9442C65.2385 44.1221 64.659 43.9034 64.3489 44.1036C64.0388 44.3074 63.6992 44.5446 63.4113 44.7744C63.1197 45.0042 63.0569 45.5416 62.7912 45.7973C62.5254 46.053 62.6915 46.7016 62.4516 46.9832C62.2116 47.2649 61.7834 47.3613 61.573 47.6689C61.3663 47.9728 60.8754 48.1062 60.6982 48.4361C60.5247 48.7585 60.7868 49.2885 60.6428 49.6368C60.5025 49.9741 60.115 50.215 60.0042 50.5745C59.8972 50.9229 59.5207 51.2231 59.4468 51.5937C59.373 51.9495 60.1408 52.4387 60.0965 52.813C60.0633 53.1095 59.4911 53.3652 59.2844 53.658C59.2327 53.38 59.1478 53.1391 59.0592 52.8834C58.9337 52.5239 58.5905 52.409 58.3837 52.1237C58.1696 51.8272 58.2545 51.3491 57.9629 51.1267C57.6787 50.9118 57.5901 50.2632 57.2468 50.1112C56.9257 49.9704 56.2797 50.7598 55.9142 50.6671C55.571 50.5819 55.3901 49.5738 55.021 49.5257C54.6666 49.4812 54.2642 49.4849 53.8914 49.4738C53.5334 49.4627 53.1568 49.8333 52.7877 49.8481C52.426 49.8629 52.1048 50.3077 51.7431 50.3484C51.3813 50.3855 51.0565 50.5448 50.6984 50.6041C50.3367 50.6634 49.8716 50.1001 49.5172 50.1742C49.1555 50.2484 48.7974 50.3373 48.4504 50.4263C48.0887 50.5189 47.642 50.3188 47.3024 50.4225C46.9407 50.5337 46.6011 50.7302 46.2726 50.8487C45.9071 50.9785 45.8296 51.7864 45.5195 51.9198C45.143 52.0829 44.6299 51.8383 44.3531 51.9939C44.0356 52.1718 43.6443 52.2497 43.3417 52.4498C43.039 52.6499 43.1017 53.3652 42.8101 53.5839C42.5185 53.8025 41.8356 53.5209 41.5588 53.7544C41.2819 53.9878 41.09 54.3399 40.8279 54.5919C40.5658 54.8403 40.7061 55.4925 40.455 55.7557C40.204 56.0188 39.4067 55.7779 39.1668 56.0559C38.9305 56.3301 38.6353 56.5821 38.4101 56.8675C38.1849 57.1529 38.0779 57.5457 37.8638 57.8422C37.6497 58.135 37.2805 58.3389 37.0775 58.6391C36.8745 58.943 37.1993 59.5915 37.0074 59.9028C36.8154 60.2142 36.0403 60.1771 35.8594 60.4958C35.6785 60.8108 35.4829 61.137 35.3131 61.4594C35.1433 61.7819 35.6527 62.4601 35.4902 62.7862C35.3278 63.1124 34.4456 63.0975 34.2943 63.4274C34.1429 63.7609 34.2943 64.239 34.154 64.5726C34.1392 64.6059 34.1355 64.6393 34.1245 64.6726C33.9436 64.3762 33.364 64.202 33.257 63.8906C33.1352 63.5386 33.4859 63.0049 33.3308 62.6676C33.1721 62.3304 33.0171 61.9709 32.8251 61.6558C32.6369 61.3408 31.9318 61.3742 31.714 61.074C31.4962 60.7775 31.3449 60.4588 31.0976 60.1808C30.854 59.9065 30.9869 59.2654 30.7174 59.006C30.4516 58.7502 30.0456 58.6391 29.7576 58.4019C29.4734 58.1684 28.857 58.3981 28.5506 58.1832C28.2516 57.9719 28.2664 57.2974 27.9489 57.1047C27.6351 56.912 27.0962 57.1344 26.7677 56.9565C26.4429 56.7823 26.2509 56.3709 25.915 56.2152C25.5828 56.0596 25.4905 55.3035 25.1435 55.1664C24.8039 55.0293 24.1395 55.7409 23.7888 55.6223C23.4418 55.5037 23.0985 55.4184 22.7442 55.3146C22.3898 55.2146 22.065 55.0515 21.7069 54.9663C21.3489 54.881 21.0757 54.3992 20.7139 54.3325C20.3522 54.2658 19.9498 54.4178 19.5844 54.3659C19.219 54.314 18.8535 54.2769 18.4881 54.2436C18.119 54.2102 17.7609 54.099 17.3918 54.0842C17.0226 54.0694 16.6498 53.5172 16.2844 53.5172C15.9153 53.5172 15.5683 54.4659 15.2028 54.4845C14.8337 54.503 14.4498 54.188 14.0844 54.2287C13.7152 54.2695 13.2944 53.9545 12.9327 54.0138C12.5672 54.0731 12.1981 54.2028 11.84 54.2843C11.4783 54.3659 11.1572 54.6438 10.8065 54.7476C10.7511 54.7624 10.6957 54.7847 10.6441 54.8032C10.7437 54.5882 10.8545 54.3733 10.8249 54.1732C10.7659 53.8025 10.9874 53.38 10.9061 53.0168C10.8249 52.6536 10.0055 52.4906 9.90211 52.1348C9.79875 51.7753 9.8689 51.3936 9.74338 51.0452C9.6142 50.6968 9.88734 50.1891 9.73599 49.8518C9.58835 49.5257 9.5625 49.092 9.36687 48.7474C9.18599 48.4286 8.44405 48.4546 8.22256 48.1359C8.01216 47.8282 7.76485 47.5799 7.5249 47.2872C7.28497 46.9944 7.39201 46.4051 7.12256 46.142C6.8494 45.8714 6.70544 45.4267 6.41014 45.2006C6.24034 45.0709 6.01886 45.019 5.79738 44.9671C5.81952 44.8115 5.84904 44.6706 5.91919 44.5854C6.14435 44.3148 6.43965 44.1481 6.57623 43.7849C6.70174 43.4587 6.71651 43.1177 6.77927 42.7323C6.83464 42.3839 6.77927 42.0393 6.79034 41.6575C6.80141 41.3017 7.52859 40.9126 7.50645 40.5309C7.4843 40.1714 6.62054 39.8786 6.57256 39.5043C6.52457 39.1411 6.39906 38.8112 6.33263 38.4443C6.26617 38.0811 7.04872 37.54 6.96751 37.1805C6.88261 36.821 6.31415 36.5764 6.21819 36.2206C6.11852 35.8611 5.75308 35.5906 5.64603 35.2459C5.5316 34.8864 5.89334 34.375 5.77153 34.0377C5.64233 33.6745 5.46886 33.3372 5.33597 33.0111C5.18831 32.6442 4.96313 32.3329 4.81549 32.0253C4.63461 31.6472 4.87825 31.0617 4.71582 30.7911C4.53127 30.4835 3.93695 30.402 3.71916 30.0907C3.50876 29.7942 3.34634 29.4421 3.11011 29.1493C2.87756 28.8639 2.18728 28.9937 1.93258 28.7194C1.68157 28.4489 1.5819 28.0597 1.30875 27.804C1.03928 27.552 0.670143 27.4482 0.382225 27.2147C0.0942993 26.9812 0.212425 26.2066 -0.0902634 25.9991C-0.396637 25.7878 -0.979866 26.0213 -1.29732 25.8397C-1.62215 25.6544 -1.8584 25.3246 -2.19062 25.18C-2.53391 25.0318 -2.85874 24.8391 -3.20573 24.7353C-3.56378 24.6315 -3.96613 24.828 -4.32787 24.7798C-4.69701 24.7279 -5.02923 24.5241 -5.39467 24.5389C-5.76011 24.5537 -6.0591 24.8391 -6.42455 24.9243C-6.77892 25.0058 -7.30676 24.5722 -7.65005 24.7279C-7.97488 24.8724 -8.30341 25.1356 -8.61717 25.3505C-8.90878 25.5507 -9.14134 25.8879 -9.42557 26.151C-9.68396 26.3919 -9.85007 26.6217 -10.1011 26.9182C-10.1085 26.5402 -10.3779 26.2993 -10.4185 25.9361C-10.4628 25.5655 -10.0273 25.1059 -10.1085 24.7464C-10.1934 24.3832 -10.9021 24.2053 -11.0239 23.8569C-11.1457 23.5049 -10.795 22.9712 -10.9501 22.6339C-11.1088 22.2967 -11.2638 21.9372 -11.4558 21.6221C-11.644 21.3071 -12.3491 21.3405 -12.5669 21.0403C-12.7847 20.7438 -12.936 20.4251 -13.1833 20.1471C-13.427 19.8729 -13.2941 19.2317 -13.5635 18.9723C-13.8293 18.7165 -14.2353 18.6054 -14.5233 18.3682C-14.8075 18.1347 -15.424 18.3645 -15.7303 18.1495C-16.0293 17.9382 -16.0146 17.2637 -16.332 17.071C-16.6458 16.8783 -17.1847 17.1007 -17.5132 16.9228C-17.8381 16.7486 -18.03 16.3372 -18.3659 16.1815C-18.6981 16.0259 -18.7904 15.2698 -19.1374 15.1327C-19.477 14.9956 -20.1414 15.7072 -20.4921 15.5886C-20.8391 15.47 -21.1824 15.3847 -21.5368 15.2809C-21.8911 15.1809 -22.216 15.0178 -22.574 14.9326C-22.9321 14.8473 -23.2052 14.3655 -23.567 14.2988C-23.9287 14.2321 -24.3311 14.3841 -24.6965 14.3322C-25.062 14.2803 -25.4274 14.2432 -25.7928 14.2099C-26.162 14.1765 -26.52 14.0653 -26.8891 14.0505C-27.2583 14.0357 -27.6311 13.4835 -27.9965 13.4835C-28.3657 13.4835 -28.7127 14.4322 -29.0781 14.4508C-29.4472 14.4693 -29.8311 14.1543 -30.1966 14.195C-30.5657 14.2358 -30.9865 13.9208 -31.3482 13.9801C-31.7137 14.0394 -32.0828 14.1691 -32.4409 14.2506C-32.8026 14.3322 -33.1238 14.6101 -33.4744 14.7139C-33.8325 14.8177 -34.1573 15.0141 -34.5006 15.1364C-34.8513 15.2624 -34.9916 15.8517 -35.3275 15.9999C-35.6671 16.1519 -36.1617 15.9258 -36.4829 16.1C-36.8114 16.2779 -37.1141 16.4706 -37.4204 16.6707C-37.7305 16.8746 -37.7859 17.3823 -38.0775 17.6121C-38.3691 17.8419 -38.7862 17.8678 -39.052 18.1236C-39.3178 18.3793 -39.5799 18.6091 -39.8198 18.8907C-40.0597 19.1724 -40.0745 19.5838 -40.2849 19.8877C-40.4916 20.1916 -40.798 20.3917 -40.9752 20.7216C-41.1487 21.044 -41.8906 21.1033 -42.0346 21.448C-42.1749 21.7852 -41.7024 22.3523 -41.8131 22.7118C-41.9202 23.0601 -42.6584 23.2603 -42.7322 23.6309C-42.7581 23.768 -42.7987 23.9088 -42.8356 24.0497C-42.8983 23.9162 -42.9611 23.7865 -43.0386 23.6828C-43.2527 23.3863 -43.5 22.9452 -43.7916 22.7229C-43.9504 22.6006 -44.2789 22.7562 -44.5964 22.8896C-44.493 22.7748 -44.4302 22.6599 -44.445 22.5561C-44.5004 22.1892 -45.5635 21.9928 -45.6373 21.6184C-45.7111 21.2515 -45.545 20.8439 -45.6373 20.477C-45.7296 20.1138 -45.4417 19.6468 -45.545 19.2836C-45.6521 18.9204 -46.0433 18.6498 -46.1615 18.294C-46.2796 17.9345 -46.538 17.6306 -46.6635 17.2823C-46.7927 16.9228 -46.6856 16.4817 -46.8222 16.1371C-46.9662 15.7813 -46.6782 15.2439 -46.8259 14.9066C-46.9809 14.5508 -47.7783 14.499 -47.937 14.1728C-48.1068 13.817 -47.9001 13.2908 -48.0662 12.9757C-48.2544 12.6162 -48.7601 12.468 -48.9336 12.1715C-49.1514 11.8046 -48.8967 11.1671 -49.0887 10.9077C-49.3101 10.6075 -49.7014 10.4 -49.9561 10.1109C-50.2034 9.82551 -50.8125 9.8811 -51.0857 9.61056C-51.3551 9.34371 -51.4142 8.8545 -51.7021 8.60619C-51.9937 8.36159 -52.23 8.02803 -52.5363 7.80937C-52.8464 7.587 -53.5072 7.93538 -53.832 7.74266C-54.1642 7.54994 -54.4558 7.39799 -54.7991 7.24233C-55.1498 7.08297 -55.423 6.88654 -55.781 6.77165C-56.1464 6.65306 -56.331 5.81918 -56.7038 5.75617C-57.0804 5.69317 -57.5196 6.26021 -57.8961 6.26021C-58.2763 6.26021 -58.5938 6.36027 -58.9666 6.43069C-59.3357 6.50111 -59.5867 6.71977 -59.9448 6.86431C-60.2881 7.00143 -60.7015 6.89396 -61.03 7.10891C-61.3364 7.30904 -61.8348 7.27569 -62.1301 7.54253C-62.3995 7.78714 -62.6838 8.0688 -62.9385 8.37641C-63.171 8.65808 -63.4183 8.96939 -63.6361 9.30665C-63.8354 9.61055 -64.1824 9.8774 -64.3707 10.2295C-64.5405 10.5519 -64.4187 11.345 -64.5774 11.7119C-64.6291 11.3339 -64.4519 10.6334 -64.5294 10.2777C-64.6069 9.90705 -64.5146 9.47343 -64.618 9.12134C-64.725 8.75814 -65.766 8.72108 -65.8952 8.38012C-66.0318 8.02803 -65.7512 7.53141 -65.9136 7.20157C-66.0798 6.8606 -66.5079 6.70124 -66.6999 6.38622C-66.8955 6.06378 -67.1355 5.82659 -67.3533 5.5338C-67.5784 5.23361 -67.4492 4.67027 -67.6965 4.39973C-67.9476 4.12547 -68.313 3.97723 -68.5898 3.73262C-68.8667 3.48431 -68.9737 3.02475 -69.2727 2.80609C-69.5717 2.58742 -69.6862 2.0278 -70.0073 1.83508C-70.3248 1.64607 -70.7566 1.57936 -71.0925 1.41629C-71.4248 1.25692 -71.7976 1.09385 -72.1446 0.964137C-72.4916 0.834422 -73.0046 1.17909 -73.3664 1.07532C-73.7208 0.975255 -74.0788 0.901132 -74.4443 0.82701C-74.806 0.752887 -75.1973 0.949312 -75.5664 0.901132C-75.9319 0.852953 -76.2788 0.852952 -76.6517 0.82701C-77.0208 0.804773 -77.3678 0.645409 -77.7406 0.649115C-78.1097 0.649115 -78.5084 -0.0216959 -78.8812 0.00054088C-79.2503 0.0227777 -79.5641 0.708413 -79.9332 0.756593C-80.2987 0.801067 -80.7342 0.423041 -81.0997 0.493457C-81.4614 0.560168 -81.6792 1.30881 -82.041 1.39775C-82.399 1.483 -82.8198 1.28286 -83.1779 1.38664C-83.5323 1.49041 -83.9752 1.32363 -84.3259 1.44593C-84.6729 1.56824 -84.8427 2.15381 -85.186 2.29464C-85.5293 2.43547 -85.9574 2.35394 -86.2934 2.51701C-86.6256 2.67637 -86.788 3.15446 -87.1128 3.33236C-87.4377 3.51025 -88.0689 3.14705 -88.3863 3.33977C-88.7001 3.53249 -88.7702 4.10694 -89.0766 4.31819C-89.383 4.52944 -89.9293 4.40343 -90.2209 4.63321C-90.5125 4.85929 -90.5827 5.36703 -90.8632 5.60793C-91.1437 5.84883 -91.5645 5.93407 -91.834 6.1935C-92.0998 6.44922 -92.3065 6.77165 -92.5612 7.0422C-92.8122 7.31275 -93.1592 7.50547 -93.3991 7.79455C-93.6354 8.07992 -93.7941 8.432 -94.0156 8.7322C-94.2334 9.0324 -94.2887 9.44007 -94.4917 9.75509C-94.6911 10.0664 -95.3961 10.0849 -95.5807 10.4074C-95.7616 10.7298 -95.3887 11.3561 -95.5512 11.6934C-95.7136 12.027 -96.0495 12.2753 -96.1934 12.6199C-96.3337 12.9609 -96.5404 13.2833 -96.6622 13.6391C-96.784 13.9875 -97.1827 14.2655 -97.2861 14.6287C-97.3857 14.9845 -96.8874 15.4959 -96.9686 15.8628C-97.0461 16.2223 -96.9391 16.604 -96.9945 16.9747C-97.0498 17.3379 -97.7586 17.6195 -97.7955 17.9938C-97.8324 18.3607 -97.5002 18.761 -97.5186 19.139C-97.5334 19.5059 -97.5039 19.8729 -97.5002 20.2509C-97.5002 20.3695 -97.5703 20.4955 -97.6626 20.6215C-97.7475 20.4918 -97.8287 20.3658 -97.8951 20.2583C-98.0982 19.9247 -98.9619 20.2249 -99.224 20.0026C-99.5082 19.7617 -99.5636 19.3836 -99.9069 19.2576C-100.239 19.1353 -100.545 19.1279 -100.922 19.102C-101.269 19.076 -101.612 18.8611 -101.989 18.9055C-102.336 18.9463 -102.771 18.7054 -103.137 18.8018C-103.48 18.8907 -103.606 19.7024 -103.956 19.8321C-104.292 19.9544 -104.776 19.6875 -105.115 19.8395C-105.444 19.9877 -105.603 20.4732 -105.931 20.6437C-106.252 20.8105 -107.002 20.2138 -107.319 20.3991C-107.633 20.5844 -107.625 21.3108 -107.932 21.511C-108.242 21.7111 -108.652 21.7519 -108.947 21.9594C-109.25 22.1707 -109.187 22.8674 -109.471 23.0861C-109.766 23.3121 -110.549 22.9008 -110.826 23.1268C-111.117 23.3677 -111.306 23.7235 -111.564 23.9607C-111.852 24.2201 -111.937 24.6649 -112.177 24.9058C-112.461 25.1875 -113.026 25.1763 -113.236 25.4246C-113.472 25.7026 -113.343 26.2808 -113.568 26.5661C-113.794 26.8515 -114.584 26.7144 -114.798 27.0072C-115.015 27.2999 -114.787 27.9226 -114.99 28.2228C-115.196 28.523 -115.503 28.7602 -115.698 29.0678C-115.894 29.3754 -116.104 29.6793 -116.285 29.9943C-116.466 30.3093 -116.171 30.8875 -116.341 31.2062C-116.51 31.5287 -116.584 31.8807 -116.739 32.2069C-116.898 32.5367 -117.455 32.6664 -117.603 33C-117.747 33.3335 -117.895 33.6671 -118.028 34.0044C-118.16 34.3453 -118.341 34.664 -118.459 35.0087C-118.578 35.3534 -118.932 35.6276 -119.035 35.9797C-119.139 36.3281 -119.312 36.6728 -119.404 37.0249C-119.493 37.3769 -119.319 37.8031 -119.393 38.1589C-119.467 38.5147 -119.301 38.915 -119.36 39.2745C-119.419 39.634 -119.316 40.0083 -119.36 40.3678C-119.404 40.731 -120.183 41.0201 -120.213 41.3833C-120.242 41.7465 -120.202 42.1319 -120.213 42.4951C-120.224 42.8583 -119.319 43.2326 -119.316 43.5958C-119.316 43.959 -120.372 44.3556 -120.353 44.7225C-120.335 45.0857 -120.128 45.4563 -120.091 45.8195C-120.058 46.1827 -119.449 46.4866 -119.397 46.8498C-119.338 47.4206 -119.851 47.4169 -119.869 48.0024C-119.888 48.5769 -119.877 48.6251 -119.825 49.1995C-119.774 49.7703 -119.792 49.774 -119.74 50.3447C-119.689 50.9155 -119.198 50.871 -119.15 51.4417C-119.098 52.0125 -119.471 52.0458 -119.419 52.6166C-119.367 53.1873 -119.331 53.1836 -119.279 53.7544C-119.227 54.3251 -118.655 54.2732 -118.603 54.844C-118.552 55.4147 -118.629 55.4221 -118.578 55.9929C-118.526 56.5636 -119.231 56.6266 -119.179 57.1974C-119.128 57.7681 -118.4 57.7014 -118.349 58.2721C-118.297 58.8429 -118.345 58.8466 -118.293 59.4173C-118.242 59.9881 -118.061 59.9696 -118.009 60.5403C-117.957 61.111 -118.434 61.1555 -118.382 61.7263C-118.33 62.297 -118.537 62.3155 -118.485 62.8863C-118.434 63.457 -117.537 63.5015 -117.629 64.0685C-117.961 64.2946 -118.884 63.8832 -119.187 63.9944C-119.548 64.1278 -119.678 64.9654 -120.017 65.0025C-120.383 65.0433 -120.755 65.0803 -121.11 65.0951C-121.464 65.11 -121.811 64.9321 -122.173 65.0136C-122.498 65.0877 -122.653 65.462 -123 65.6585C-123.277 65.8178 -124.159 65.5658 -124.458 65.8475C-124.351 66.2255 -123.971 66.7184 -123.959 67.0928C-123.948 67.4745 -123.871 67.8562 -123.923 68.2342C-123.978 68.6086 -123.672 69.0681 -123.749 69.4424C-123.827 69.8131 -124.705 70.028 -124.772 70.4023C-124.842 70.7766 -124.631 71.2177 -124.653 71.5994C-124.676 71.9774 -125.056 72.4444 -124.993 72.8261C-124.934 73.1968 -124.041 73.3821 -123.941 73.723C-123.838 74.0788 -124.318 74.6347 -124.181 74.9646C-124.041 75.3055 -123.635 75.5353 -123.472 75.8578C-123.306 76.1839 -123.018 76.4433 -122.841 76.7584C-122.664 77.0771 -122.173 77.2179 -121.996 77.5366C-121.818 77.8554 -121.538 78.1407 -121.372 78.4669C-121.202 78.8004 -121.756 79.5083 -121.579 79.827C-121.398 80.1569 -121.169 80.4608 -120.981 80.7721C-120.789 81.0945 -120.678 81.4763 -120.475 81.7802C-120.268 82.0915 -120.028 82.3991 -119.81 82.6882C-119.585 82.9884 -119.382 83.333 -119.142 83.6036C-118.895 83.8853 -118.016 83.5369 -117.754 83.7889C-117.485 84.0446 -117.47 84.5487 -117.179 84.771C-116.883 84.9971 -116.466 84.9823 -116.149 85.1639C-115.831 85.3492 -115.798 86.1015 -115.455 86.2424C-115.119 86.3832 -114.764 86.6426 -114.403 86.7353C-114.056 86.8279 -113.587 86.5055 -113.214 86.55C-113.181 86.5537 -113.151 86.5611 -113.118 86.5648C-113.118 86.7316 -113.122 86.8946 -113.166 87.0503C-113.266 87.4098 -113.196 87.7878 -113.262 88.1547C-113.332 88.5216 -114.122 88.7885 -114.163 89.1591C-114.2 89.5297 -114.163 89.9411 -114.166 90.3154C-114.17 90.686 -113.251 91.027 -113.225 91.4013C-113.199 91.7682 -114.222 92.2574 -114.166 92.6317C-114.111 92.9949 -113.86 93.3619 -113.775 93.7288C-113.694 94.0883 -113.044 94.3143 -112.934 94.6775C-112.793 95.2335 -113.31 95.3039 -113.244 95.8857C-113.181 96.4565 -112.841 96.4268 -112.705 96.9864C-112.572 97.5424 -112.959 97.635 -112.826 98.1946C-112.694 98.7506 -111.885 98.5579 -111.752 99.1138C-111.619 99.6697 -112.24 99.8216 -112.107 100.378C-111.974 100.933 -111.712 100.87 -111.579 101.426C-111.446 101.982 -111.32 101.953 -111.188 102.509C-111.055 103.065 -110.711 102.983 -110.578 103.539C-110.446 104.095 -110.342 104.069 -110.209 104.629C-110.076 105.184 -110.87 105.377 -110.737 105.933C-110.604 106.489 -110.556 106.478 -110.423 107.034C-110.291 107.59 -110.228 107.497 -110.272 108.068C-110.638 108.223 -110.711 108.034 -111.055 108.094C-111.431 108.16 -111.745 108.116 -112.103 108.116C-112.461 108.116 -112.871 108.968 -113.233 108.95C-113.602 108.931 -113.941 108.546 -114.31 108.568C-114.668 108.59 -114.931 108.872 -115.3 108.987C-115.628 109.087 -116.348 108.798 -116.691 109.013C-116.518 109.358 -116.569 109.825 -116.536 110.154C-116.499 110.51 -116.119 110.814 -116.171 111.159C-116.222 111.507 -116.381 111.837 -116.448 112.182C-116.514 112.53 -116.832 112.893 -116.835 113.249C-116.839 113.59 -116.444 113.942 -116.326 114.298C-116.2 114.68 -116.352 115.221 -116.156 115.565C-115.964 115.91 -115.802 116.344 -115.565 116.666C-115.329 116.985 -114.617 116.94 -114.358 117.244C-114.1 117.548 -114.299 118.249 -114.041 118.549C-113.779 118.853 -112.974 118.69 -112.73 118.997C-112.491 119.297 -112.243 119.579 -112 119.868C-111.749 120.161 -111.531 120.469 -111.276 120.746C-111.014 121.028 -110.73 121.269 -110.46 121.536C-110.187 121.806 -110.239 122.429 -109.951 122.677C-109.663 122.929 -109.021 122.744 -108.718 122.978C-108.415 123.207 -108.342 123.76 -108.02 123.967C-107.703 124.175 -107.264 124.186 -106.924 124.367C-106.592 124.549 -106.208 124.601 -105.854 124.757C-105.507 124.908 -105.281 125.368 -104.916 125.49C-104.562 125.613 -104.159 125.616 -103.783 125.709C-103.421 125.798 -103.081 126.098 -102.698 126.161C-102.328 126.224 -101.919 126.017 -101.553 126.039C-101.18 126.061 -100.796 126.35 -100.431 126.335C-100.055 126.321 -99.6633 126.224 -99.3015 126.169C-98.9287 126.109 -98.5116 126.117 -98.1609 126.013C-97.7992 125.905 -97.6441 125.242 -97.3119 125.09C-96.9686 124.934 -96.6807 124.771 -96.3743 124.568C-96.0642 124.36 -95.7357 124.234 -95.4663 123.978C-95.1968 123.723 -94.9753 123.463 -94.7538 123.159C-94.5397 122.863 -93.9011 122.785 -93.7424 122.44C-93.5689 122.073 -94.1189 121.473 -94.0377 121.11C-93.9897 120.887 -93.9713 120.695 -93.9639 120.502C-93.687 120.702 -93.5357 121.125 -93.233 121.276C-92.9082 121.443 -92.6313 121.703 -92.2991 121.855C-91.9669 122.007 -91.5129 121.847 -91.1733 121.981C-90.8337 122.114 -90.4793 122.162 -90.136 122.281C-89.7927 122.399 -89.6488 123.133 -89.2981 123.237C-88.9511 123.341 -88.5893 123.441 -88.235 123.53C-87.8806 123.619 -87.5558 123.886 -87.1977 123.96C-86.8434 124.034 -86.4078 123.748 -86.046 123.811C-85.688 123.871 -85.2487 123.322 -84.887 123.37C-84.5252 123.415 -84.2373 124.071 -83.8755 124.104C-83.5138 124.134 -83.1299 123.826 -82.7645 123.845C-82.4027 123.863 -82.0484 124.034 -81.6829 124.041C-81.3876 124.045 -81.0074 124.197 -80.5644 124.197C-80.2248 124.197 -79.8446 124.123 -79.4423 124.119C-79.0842 124.112 -78.693 124.482 -78.3054 124.464C-77.9399 124.449 -77.5486 124.486 -77.1721 124.46C-76.7993 124.434 -76.4154 124.36 -76.0426 124.323C-75.6661 124.282 -75.3154 123.982 -74.95 123.923C-74.5698 123.863 -74.2228 123.648 -73.8721 123.571C-73.4882 123.482 -73.2446 123.041 -72.9124 122.926C-72.5285 122.789 -72.1298 122.866 -71.8419 122.689C-71.4838 122.466 -71.41 122.173 -71.2587 121.869C-71.1332 121.621 -71.0113 121.451 -71.0187 121.188C-70.8748 121.399 -70.6754 121.584 -70.5278 121.825C-70.3432 122.121 -70.7271 122.87 -70.4835 123.159C-70.2583 123.426 -69.7969 123.548 -69.5274 123.808C-69.2727 124.052 -68.7744 124.049 -68.4865 124.286C-68.2133 124.512 -67.6929 124.397 -67.3939 124.616C-67.1059 124.823 -67.0949 125.435 -66.7848 125.635C-66.4821 125.828 -66.0613 125.824 -65.7438 126.009C-65.4338 126.191 -65.3304 126.762 -65.0093 126.932C-64.6918 127.103 -64.02 126.565 -63.6952 126.721C-63.3703 126.876 -63.3076 127.595 -62.9754 127.74C-62.6431 127.888 -62.2851 127.97 -61.9492 128.107C-61.6096 128.244 -61.4287 128.804 -61.0891 128.926C-60.7458 129.052 -60.2216 128.655 -59.8784 128.767C-59.5277 128.881 -59.1549 128.881 -58.8116 128.978C-58.4572 129.078 -58.1361 129.267 -57.7928 129.348C-57.431 129.434 -57.1874 130.097 -56.8441 130.164C-56.475 130.234 -56.0062 129.675 -55.6629 129.719C-55.2827 129.767 -54.9505 130.386 -54.6109 130.397C-54.2196 130.412 -53.8394 129.878 -53.5145 129.841C-53.1749 129.804 -52.7209 130.134 -52.3296 130.041C-51.9863 129.964 -51.7132 129.482 -51.3404 129.363C-50.9971 129.256 -50.7682 128.804 -50.4102 128.667C-50.0706 128.537 -49.6867 128.526 -49.3397 128.374C-49.0038 128.225 -48.7232 127.977 -48.3873 127.807C-48.0551 127.64 -47.5568 127.796 -47.2356 127.607C-46.9108 127.418 -46.4125 127.492 -46.1061 127.284C-45.7923 127.077 -45.6521 126.602 -45.3604 126.376C-45.0614 126.146 -45.1611 125.468 -44.8953 125.224C-44.6148 124.964 -44.098 124.997 -43.8581 124.723C-43.6034 124.434 -43.4816 124.093 -43.2859 123.789C-43.0792 123.463 -42.5993 123.3 -42.4702 122.963C-42.3336 122.607 -42.7027 122.17 -42.6695 121.803C-42.6363 121.436 -42.4074 121.117 -42.4923 120.743C-42.5624 120.428 -42.7987 120.202 -42.9832 119.905C-42.6621 119.85 -42.3114 119.605 -42.0161 119.661C-41.647 119.731 -41.3628 120.242 -41.001 120.309C-40.6282 120.376 -40.1815 119.968 -39.8198 120.031C-39.447 120.094 -39.2218 121.032 -38.8601 121.091C-38.4872 121.15 -38.0147 120.509 -37.653 120.557C-37.2765 120.609 -36.9074 120.595 -36.5456 120.635C-36.3131 120.661 -36.099 120.865 -35.8849 121.028C-35.8295 121.213 -35.7852 121.391 -35.7667 121.547C-35.7225 121.907 -35.8516 122.181 -35.9033 122.533C-35.955 122.881 -36.0104 123.218 -36.0768 123.567C-36.1433 123.915 -36.2651 124.323 -36.2651 124.682C-36.2651 125.023 -35.3755 125.201 -35.25 125.561C-35.1355 125.883 -35.3496 126.302 -35.1835 126.598C-35.0174 126.895 -34.6446 127.025 -34.4416 127.303C-34.2422 127.577 -34.5486 128.248 -34.3271 128.511C-34.1093 128.77 -33.9728 129.122 -33.7439 129.374C-33.515 129.626 -32.9835 129.604 -32.7583 129.86C-32.5295 130.116 -32.3671 130.423 -32.1493 130.683C-31.913 130.964 -31.8687 131.42 -31.6288 131.691C-31.3852 131.965 -30.8721 131.998 -30.6211 132.261C-30.37 132.528 -30.3627 133.051 -30.1043 133.303C-29.8422 133.559 -29.6281 133.896 -29.3549 134.137C-29.0781 134.378 -28.421 134.166 -28.1331 134.389C-27.8452 134.611 -27.8969 135.33 -27.5979 135.534C-27.2989 135.738 -26.6012 135.33 -26.2838 135.515C-25.97 135.697 -25.6562 135.853 -25.3277 136.016C-25.0029 136.175 -24.7002 136.353 -24.3606 136.49C-24.0284 136.624 -23.6851 136.709 -23.3344 136.82C-22.9911 136.927 -22.7733 137.502 -22.4116 137.587C-22.0646 137.672 -21.5958 137.205 -21.2304 137.268C-20.8502 137.331 -20.5253 137.78 -20.1488 137.81C-19.7612 137.839 -19.3736 137.628 -18.9971 137.621C-18.6096 137.609 -18.2552 137.461 -17.8824 137.409C-17.4985 137.357 -17.0592 137.624 -16.6974 137.528C-16.3209 137.428 -15.9813 137.202 -15.6344 137.057C-15.2763 136.909 -14.8149 136.924 -14.4937 136.727C-14.1652 136.527 -13.988 136.082 -13.7038 135.83C-13.4196 135.575 -12.9323 135.467 -12.6998 135.16C-12.4709 134.859 -12.29 134.459 -12.1239 134.107C-11.9984 133.844 -11.8471 133.57 -11.74 133.303C-11.4669 133.44 -11.1863 133.573 -10.9095 133.699C-10.5846 133.848 -10.2118 133.918 -9.8833 134.052C-9.55108 134.189 -9.30745 134.582 -8.96785 134.704C-8.63194 134.826 -8.29604 135.011 -7.95644 135.123C-7.61684 135.23 -6.98931 134.378 -6.64602 134.474C-6.30273 134.57 -6.05172 134.989 -5.70104 135.071C-5.35406 135.152 -5.02923 135.341 -4.67855 135.412C-4.32788 135.482 -3.92553 135.226 -3.57116 135.282C-3.22049 135.338 -2.86613 135.308 -2.51176 135.352C-2.15739 135.397 -1.87316 136.086 -1.5151 136.116C-1.16074 136.149 -0.795303 136.175 -0.437248 136.194C-0.0828781 136.212 0.27887 136.416 0.636925 136.423C0.921158 136.431 1.29398 136.079 1.71479 136.086C2.03963 136.09 2.40137 135.49 2.78527 135.486C3.12486 135.486 3.49031 136.101 3.85944 136.094C4.20642 136.086 4.55341 135.742 4.91884 135.723C5.27321 135.708 5.63866 135.849 5.9967 135.819C6.35477 135.793 6.72389 135.905 7.07826 135.868C7.44 135.827 7.78699 135.708 8.13397 135.653C8.4994 135.593 8.93867 135.893 9.27458 135.816C9.64371 135.727 10.0535 135.667 10.3635 135.553C10.7327 135.415 11.1276 135.178 11.3934 134.997C11.7256 134.771 11.8807 134.229 12.0062 133.922C12.0652 133.777 12.0652 133.607 12.0357 133.429C12.1464 133.551 12.2608 133.674 12.3568 133.822C12.5562 134.122 12.6521 134.489 12.9179 134.782C13.1615 135.052 13.3092 135.43 13.5971 135.697C13.8666 135.945 14.2172 136.116 14.5236 136.353C14.8152 136.579 15.2102 136.664 15.5277 136.883C15.834 137.094 15.7455 137.936 16.074 138.136C16.3914 138.332 16.8602 138.314 17.1924 138.499C17.521 138.68 18.0119 138.566 18.3515 138.74C18.6874 138.91 19.1968 138.706 19.5401 138.87C19.8834 139.029 20.0163 139.637 20.3633 139.785C20.7103 139.933 21.1421 139.87 21.4928 140.007C21.8472 140.144 22.0428 140.7 22.3972 140.826C22.7552 140.952 23.3569 140.333 23.715 140.448C24.0804 140.563 24.2576 141.267 24.612 141.371C24.9848 141.475 25.365 141.512 25.7231 141.597C26.0996 141.686 26.3875 142.22 26.7455 142.287C27.1294 142.361 27.6019 141.883 27.96 141.931C28.3549 141.983 28.7315 141.909 29.0858 141.923C29.4956 141.942 29.861 142.035 30.2006 142.001C30.5476 141.968 31.0385 142.494 31.4372 142.413C31.7916 142.338 32.0278 141.638 32.4117 141.531C32.7661 141.43 33.3198 141.875 33.6889 141.745C34.0396 141.623 34.2241 140.997 34.5822 140.849C34.9292 140.704 35.4496 140.919 35.7966 140.752C36.1399 140.589 36.3134 140.063 36.6456 139.881C36.9815 139.7 37.1255 139.207 37.4466 139.007C37.7715 138.803 38.148 138.714 38.4507 138.495C38.7644 138.269 38.9822 137.965 39.2628 137.724C39.5581 137.469 40.0822 137.487 40.3333 137.217C40.599 136.927 41.1121 136.809 41.3188 136.501C41.4074 136.368 41.4517 136.205 41.4812 136.034C41.5366 135.96 41.5957 135.893 41.6621 135.834C41.9464 135.578 42.4336 135.471 42.6662 135.163C42.895 134.863 43.0759 134.463 43.242 134.111C43.3675 133.848 43.5188 133.573 43.6259 133.307C43.899 133.444 44.1796 133.577 44.4564 133.703C44.7813 133.851 45.1541 133.922 45.4826 134.055C45.8148 134.192 46.0585 134.585 46.3981 134.708C46.734 134.83 47.0699 135.015 47.4095 135.126C47.7491 135.234 48.3766 134.381 48.7199 134.478C49.0632 134.574 49.3142 134.993 49.6649 135.074C50.0119 135.156 50.3367 135.345 50.6874 135.415C51.038 135.486 51.4404 135.23 51.7948 135.286C52.1454 135.341 52.4998 135.312 52.8542 135.356C53.2085 135.401 53.4928 136.09 53.8508 136.12C54.2052 136.153 54.5706 136.179 54.9287 136.197C55.283 136.216 55.6448 136.42 56.0029 136.427C56.2871 136.435 56.6599 136.082 57.0807 136.09C57.4055 136.094 57.7673 135.493 58.1512 135.49C58.4908 135.49 58.8562 136.105 59.2254 136.097C59.5723 136.09 59.9193 135.745 60.2848 135.727C60.6391 135.712 61.0046 135.853 61.3626 135.823C61.7207 135.797 62.0898 135.908 62.4442 135.871C62.8059 135.83 63.1529 135.712 63.4999 135.656C63.8653 135.597 64.3046 135.897 64.6405 135.819C65.0096 135.73 65.4194 135.671 65.7294 135.556C66.0986 135.419 66.4935 135.182 66.7593 135C67.0915 134.774 67.2466 134.233 67.3721 133.926C67.4311 133.781 67.4311 133.61 67.4016 133.433C67.5123 133.555 67.6268 133.677 67.7227 133.825C67.9221 134.126 68.018 134.493 68.2838 134.785C68.5274 135.056 68.6751 135.434 68.963 135.701C69.2325 135.949 69.5832 136.12 69.8895 136.357C70.1812 136.583 70.5761 136.668 70.8936 136.887C71.2 137.098 71.1114 137.939 71.4399 138.139C71.7574 138.336 72.2261 138.317 72.5583 138.503C72.8869 138.684 73.3778 138.569 73.7174 138.743C74.0533 138.914 74.5627 138.71 74.906 138.873C75.2493 139.033 75.3822 139.64 75.7292 139.789C76.0762 139.937 76.5081 139.874 76.8587 140.011C77.2131 140.148 77.4087 140.704 77.7631 140.83C78.1212 140.956 78.7228 140.337 79.0809 140.452C79.4463 140.567 79.6235 141.271 79.9779 141.375C80.3507 141.479 80.7309 141.516 81.089 141.601C81.4655 141.69 81.7534 142.224 82.1115 142.29C82.4953 142.364 82.9678 141.886 83.3259 141.934C83.7209 141.986 84.0974 141.912 84.4518 141.927C84.8615 141.946 85.2269 142.038 85.5665 142.005C85.9135 141.972 86.4044 142.498 86.8031 142.416C87.1575 142.342 87.3937 141.642 87.7776 141.534C88.132 141.434 88.6857 141.879 89.0548 141.749C89.4055 141.627 89.59 141.001 89.9481 140.852C90.2951 140.708 90.8156 140.923 91.1626 140.756C91.5058 140.593 91.6793 140.067 92.0115 139.885C92.3475 139.703 92.4914 139.21 92.8125 139.01C93.1374 138.807 93.5139 138.718 93.8166 138.499C94.1304 138.273 94.3481 137.969 94.6287 137.728C94.924 137.472 95.4482 137.491 95.6992 137.22C95.9649 136.931 96.478 136.813 96.6847 136.505C96.9062 136.179 96.8435 135.66 96.9801 135.315C97.124 134.952 96.6441 134.511 96.6774 134.137C96.7106 133.762 97.076 133.462 96.9837 133.077C96.8988 132.728 96.6774 132.462 96.4743 132.11C96.4448 132.058 96.4227 131.998 96.4005 131.939C96.7032 131.95 97.017 131.883 97.3049 131.939C97.6703 132.013 97.877 132.903 98.2351 132.969C98.6042 133.04 99.073 132.528 99.4311 132.591C99.8002 132.658 100.121 132.958 100.483 133.014C100.852 133.077 101.288 132.662 101.646 132.717C102.019 132.773 102.321 133.266 102.679 133.314C103.052 133.362 103.469 132.925 103.831 132.958C104.204 132.995 104.503 133.914 104.865 133.937C105.241 133.963 105.647 133.277 106.009 133.284C106.385 133.292 106.744 133.236 107.102 133.229C107.478 133.218 107.877 133.685 108.239 133.651C108.615 133.618 108.958 133.329 109.316 133.266C109.689 133.203 110.007 132.966 110.357 132.873C110.719 132.773 110.929 132.35 111.265 132.213C111.612 132.072 112.38 132.821 112.701 132.639C113.022 132.458 113.259 132.035 113.55 131.809C113.838 131.587 114.307 131.468 114.569 131.198C114.82 130.938 114.846 130.408 115.071 130.104C115.285 129.815 115.381 129.415 115.573 129.085C115.754 128.774 116.116 128.529 116.274 128.177C116.422 127.851 116.382 127.418 116.511 127.058C116.633 126.721 117.12 126.472 117.227 126.102C117.327 125.757 116.78 125.224 116.865 124.853C116.887 124.745 116.939 124.645 116.994 124.545C117.26 124.293 117.408 123.567 117.71 123.474C118.065 123.363 118.685 123.96 119.025 123.808C119.364 123.656 119.811 123.597 120.132 123.404C120.449 123.215 120.516 122.588 120.811 122.359C121.099 122.129 121.014 121.521 121.276 121.251C121.442 121.08 121.922 121.169 122.299 121.173C122.572 121.436 123.066 121.703 123.1 121.995C123.144 122.37 122.797 122.803 122.875 123.196C122.952 123.574 122.675 124.052 122.775 124.434C122.875 124.812 123.052 125.186 123.166 125.553C123.288 125.935 124.133 126.054 124.262 126.409C124.406 126.799 123.65 127.525 123.794 127.855C123.967 128.266 124.613 128.422 124.764 128.707C124.938 129.037 124.676 129.667 124.883 129.96C125.097 130.26 125.506 130.471 125.754 130.735C126.001 131.005 126.175 131.424 126.448 131.661C126.725 131.898 127.108 132.076 127.404 132.284C127.699 132.495 128.367 132.147 128.681 132.336C128.991 132.525 129.235 132.821 129.556 132.992C129.877 133.162 129.969 133.796 130.298 133.959C130.626 134.118 130.918 134.37 131.246 134.526C131.575 134.682 132.073 134.478 132.402 134.633C132.712 134.782 133.31 134.333 133.646 134.485C133.963 134.63 133.893 135.708 134.229 135.845C134.554 135.979 134.893 136.153 135.229 136.279C135.562 136.405 136.027 136.208 136.366 136.32C136.706 136.431 137.26 135.812 137.603 135.908C137.95 136.005 138.127 136.727 138.474 136.805C138.828 136.883 139.183 136.998 139.53 137.046C139.891 137.098 140.257 137.372 140.604 137.387C140.973 137.402 141.386 137.376 141.73 137.339C142.099 137.302 142.287 136.461 142.619 136.357C142.988 136.242 143.734 136.883 144.052 136.672C144.365 136.461 144.509 135.934 144.79 135.667C145.063 135.404 145.58 135.341 145.838 135.063C146.1 134.782 145.761 133.933 146.023 133.666C146.296 133.388 146.923 133.525 147.219 133.303C147.529 133.069 147.695 132.647 148.049 132.521C148.47 132.376 148.876 132.662 149.227 132.636C149.644 132.606 150.065 132.028 150.434 132.113C150.81 132.198 151.106 132.621 151.493 132.747C151.844 132.866 152.243 132.866 152.649 132.962C153.003 133.047 153.387 132.84 153.811 132.873C154.151 132.899 154.502 133.281 154.915 133.258C155.269 133.24 155.687 133.455 156.078 133.399C156.44 133.347 156.853 133.377 157.233 133.295C157.595 133.218 157.75 132.265 158.123 132.161C158.485 132.061 158.924 132.28 159.286 132.161C159.644 132.039 160.05 132.061 160.4 131.917C160.751 131.772 161.327 132.087 161.663 131.917C162.006 131.746 161.954 130.846 162.276 130.653C162.604 130.453 162.94 130.323 163.239 130.101C163.549 129.867 163.926 129.756 164.188 129.5C164.465 129.226 164.859 129.059 165.07 128.759C165.295 128.444 165.764 128.196 165.9 127.851C166.041 127.499 165.539 126.962 165.572 126.58C165.594 126.324 165.875 126.039 166.011 125.753C166.284 125.679 166.565 125.572 166.764 125.657C167.115 125.809 167.347 126.213 167.687 126.358C168.038 126.506 168.477 126.417 168.817 126.554C169.171 126.695 169.355 127.262 169.699 127.388C170.057 127.521 170.629 127.006 170.976 127.121C171.338 127.243 171.651 127.436 172.002 127.536C172.371 127.644 172.537 128.492 172.895 128.578C173.268 128.663 173.693 128.533 174.055 128.592C174.435 128.652 174.841 128.366 175.206 128.392C175.586 128.418 175.937 128.263 176.303 128.248C176.683 128.233 177.019 128.248 177.384 128.185C177.753 128.122 178.259 128.6 178.613 128.485C178.968 128.37 179.407 128.314 179.743 128.14C180.071 127.973 180.215 127.429 180.533 127.206C180.832 126.995 181.212 126.858 181.5 126.595C181.766 126.35 181.529 125.616 181.788 125.324C181.991 125.094 182.511 125.131 182.81 124.957C182.917 124.957 183.017 124.964 183.113 124.997C183.464 125.123 183.597 125.872 183.951 125.98C184.305 126.087 184.8 125.661 185.162 125.746C185.523 125.835 185.893 125.746 186.258 125.813C186.627 125.879 186.911 126.335 187.28 126.38C187.653 126.424 188.015 126.417 188.38 126.435C188.753 126.454 189.122 126.762 189.488 126.75C189.861 126.739 190.241 126.676 190.606 126.636C190.979 126.595 191.422 126.862 191.78 126.787C192.146 126.713 192.326 125.902 192.681 125.791C193.035 125.679 193.633 126.198 193.973 126.05C194.312 125.898 194.759 125.831 195.077 125.642C195.394 125.453 195.486 124.857 195.778 124.623C196.066 124.393 196.18 123.971 196.442 123.7C196.642 123.496 196.974 123.404 197.221 123.233C197.347 123.552 197.867 123.878 197.908 124.234C197.952 124.608 197.664 125.038 197.742 125.435C197.819 125.813 197.564 126.287 197.664 126.669C197.764 127.047 198.391 127.28 198.509 127.647C198.631 128.029 198.129 128.626 198.258 128.982C198.402 129.371 199.322 129.434 199.465 129.764C199.639 130.175 199.451 130.697 199.602 130.983C199.776 131.313 199.779 131.772 199.986 132.065C200.2 132.365 200.536 132.61 200.78 132.877C201.027 133.147 201.101 133.659 201.378 133.896C201.654 134.133 202.419 133.77 202.718 133.977C203.013 134.189 203.131 134.67 203.445 134.859C203.755 135.045 204.216 134.967 204.537 135.141C204.858 135.312 205.335 135.156 205.663 135.315C205.992 135.475 205.988 136.32 206.317 136.475C206.645 136.631 207.265 136.175 207.594 136.331C207.904 136.479 207.904 137.335 208.24 137.487C208.557 137.632 208.978 137.572 209.318 137.713C209.642 137.847 210.06 137.769 210.399 137.898C210.731 138.025 210.949 138.499 211.289 138.61C211.628 138.721 212.009 138.747 212.348 138.844C212.695 138.94 213.112 138.762 213.456 138.836C213.81 138.914 214.153 139.003 214.5 139.051C214.862 139.103 215.202 139.466 215.549 139.477C215.918 139.492 216.242 138.818 216.586 138.781C216.955 138.743 217.405 139.262 217.734 139.159C218.103 139.044 218.409 138.725 218.727 138.514C219.04 138.302 219.395 138.113 219.672 137.847C219.945 137.583 219.96 137.065 220.218 136.783C220.48 136.501 220.587 136.06 220.849 135.793C221.122 135.515 221.687 135.53 221.982 135.308C222.293 135.074 222.499 134.507 222.857 134.385C223.278 134.241 223.784 134.493 224.134 134.47C224.552 134.441 224.969 134.396 225.338 134.481C225.714 134.567 226.076 134.745 226.46 134.871C226.811 134.989 227.228 134.871 227.634 134.971C227.985 135.056 228.291 135.445 228.715 135.478C229.055 135.504 229.454 135.842 229.863 135.819C230.218 135.801 230.646 135.923 231.041 135.868C231.403 135.816 231.72 135.323 232.104 135.245C232.466 135.167 232.879 135.219 233.248 135.119C233.61 135.019 233.968 134.859 234.33 134.737C234.688 134.615 235.053 134.481 235.404 134.337C235.755 134.192 236.109 134.022 236.445 133.855C236.788 133.685 236.932 133.162 237.253 132.969C237.582 132.769 237.826 132.499 238.121 132.276C238.431 132.043 238.981 132.124 239.243 131.865C239.52 131.591 239.398 131.02 239.612 130.72C239.837 130.405 240.055 130.179 240.192 129.834C240.332 129.482 241.111 129.259 241.148 128.878C241.177 128.57 241.089 128.185 241.015 127.836C241.266 127.807 241.528 127.755 241.724 127.836C242.074 127.988 242.082 128.93 242.421 129.07C242.772 129.219 243.466 128.515 243.805 128.652C244.16 128.793 244.204 129.726 244.547 129.856C244.905 129.99 245.463 129.545 245.81 129.66C246.172 129.782 246.386 130.368 246.74 130.468C247.109 130.575 247.63 130.041 247.988 130.123C248.361 130.208 248.722 130.164 249.084 130.223C249.464 130.282 249.756 130.894 250.121 130.92C250.501 130.946 250.904 131.331 251.273 131.316C251.653 131.302 252.059 131.083 252.425 131.02C252.794 130.957 253.24 130.968 253.595 130.849C253.949 130.735 253.979 129.823 254.318 129.649C254.647 129.482 255.422 130.041 255.736 129.819C256.035 129.608 255.78 128.681 256.064 128.418C256.275 128.225 256.777 128.318 257.109 128.222C257.397 128.392 257.755 128.444 258.039 128.629C258.357 128.833 258.615 129.089 258.958 129.263C259.294 129.434 259.645 129.504 260.003 129.641C260.354 129.775 260.605 130.186 260.977 130.282C261.335 130.375 261.679 130.649 262.063 130.709C262.45 130.768 262.878 130.149 263.262 130.156C263.654 130.164 264.034 130.597 264.414 130.549C264.802 130.501 265.093 130.101 265.466 129.997C265.843 129.893 266.119 129.697 266.47 129.537C266.824 129.374 267.397 129.652 267.714 129.43C268.032 129.208 268.434 129.037 268.711 128.759C268.98 128.485 269.497 128.318 269.718 127.992C269.933 127.677 270.136 127.24 270.298 126.876C270.457 126.517 269.759 125.876 269.84 125.527C269.866 125.409 269.907 125.301 269.947 125.198C270.043 125.212 270.136 125.235 270.213 125.279C270.538 125.468 270.981 125.39 271.313 125.557C271.649 125.728 271.896 126.02 272.24 126.169C272.583 126.317 272.705 127.021 273.055 127.151C273.406 127.28 273.724 127.577 274.082 127.688C274.44 127.796 275.012 127.121 275.377 127.21C275.739 127.299 276.005 127.818 276.374 127.885C276.739 127.951 277.105 128.081 277.478 128.129C277.847 128.177 278.282 127.562 278.655 127.592C279.028 127.621 279.36 128.133 279.737 128.144C280.109 128.155 280.479 127.907 280.855 127.899C281.143 127.896 281.531 128.118 281.981 128.107C282.324 128.096 282.73 128.581 283.133 128.559C283.491 128.54 283.886 128.559 284.273 128.522C284.642 128.492 284.941 127.673 285.318 127.625C285.691 127.577 286.097 127.77 286.462 127.703C286.839 127.636 287.322 128.007 287.673 127.918C288.053 127.822 288.271 127.191 288.603 127.065C288.98 126.921 289.434 126.969 289.722 126.776C290.069 126.547 290.246 126.157 290.408 125.85C290.493 125.694 290.571 125.524 290.619 125.346C290.626 125.509 290.644 125.672 290.722 125.813C290.892 126.12 291.501 126.109 291.733 126.409C291.951 126.687 291.741 127.325 292.003 127.595C292.25 127.851 292.671 127.929 292.952 128.174C293.221 128.407 293.306 128.889 293.605 129.111C293.893 129.326 294.469 129.13 294.775 129.334C295.078 129.534 295.17 130.064 295.487 130.249C295.801 130.431 296.318 130.238 296.639 130.408C296.96 130.579 296.99 131.346 297.318 131.502C297.651 131.657 298.075 131.624 298.407 131.761C298.747 131.902 298.998 132.291 299.334 132.417C299.681 132.547 300.312 131.82 300.652 131.928C301.006 132.039 301.346 132.087 301.689 132.18C302.051 132.276 302.257 132.94 302.601 133.01C302.97 133.084 303.276 133.599 303.623 133.644C304.007 133.692 304.443 132.817 304.786 132.825C305.181 132.832 305.469 132.751 305.794 132.702C306.13 132.651 306.654 133.303 307.049 133.188C307.392 133.088 307.521 132.306 307.894 132.161C308.234 132.028 308.743 132.284 309.097 132.117C309.433 131.961 309.647 131.557 309.987 131.372C310.315 131.194 310.854 131.372 311.179 131.168C311.5 130.968 311.969 130.953 312.276 130.731C312.586 130.508 312.656 129.949 312.947 129.712C313.243 129.467 313.708 129.397 313.974 129.133C314.25 128.863 314.236 128.318 314.476 128.033C314.723 127.736 314.642 127.243 314.837 126.932C315.048 126.602 315.14 126.317 315.28 125.976C315.428 125.616 315.934 125.431 315.989 125.06C316.044 124.686 316.162 124.308 316.111 123.926C316.066 123.593 316.14 123.17 316.03 122.822C316.27 122.896 316.506 122.981 316.746 123.026C317.122 123.096 317.517 122.996 317.879 123.055C318.255 123.118 318.658 122.926 319.023 122.981C319.4 123.037 319.68 123.708 320.046 123.752C320.426 123.8 320.814 123.708 321.179 123.741C321.559 123.774 321.906 124.341 322.272 124.36C322.655 124.379 323.054 124.145 323.423 124.141C323.807 124.141 324.221 124.401 324.586 124.375C324.911 124.353 325.247 124.249 325.564 124.178C325.704 124.486 325.66 124.934 325.848 125.201C326.07 125.516 326.373 125.765 326.598 126.065C326.83 126.372 327.34 126.432 327.58 126.721C327.827 127.014 327.908 127.425 328.167 127.699C328.429 127.977 328.584 128.344 328.861 128.6C329.141 128.859 329.444 129.074 329.743 129.308C330.042 129.541 330.437 129.608 330.754 129.812C331.072 130.016 331.075 130.786 331.415 130.957C331.751 131.127 332.345 130.727 332.703 130.861C333.054 130.994 333.416 130.998 333.788 131.094C334.147 131.187 334.361 132.047 334.745 132.106C335.132 132.165 335.59 131.676 335.974 131.683C336.365 131.691 336.727 131.557 337.111 131.513C337.498 131.465 337.834 131.335 338.203 131.231C338.58 131.127 339.008 131.239 339.359 131.076C339.713 130.912 340.23 130.99 340.551 130.768C340.868 130.546 341.149 130.201 341.422 129.923C341.692 129.649 341.821 129.219 342.042 128.893C342.256 128.578 342.74 128.363 342.902 127.996C343.017 127.74 343.135 127.455 343.227 127.184C343.426 127.177 343.622 127.173 343.77 127.247C344.106 127.418 344.379 127.74 344.722 127.892C345.065 128.04 345.534 127.892 345.885 128.022C346.236 128.151 346.664 128.022 347.022 128.133C347.38 128.24 347.734 128.3 348.096 128.385C348.458 128.474 348.675 129.263 349.045 129.33C349.414 129.397 349.779 129.638 350.148 129.686C350.517 129.734 350.931 129.63 351.304 129.66C351.677 129.689 352.068 129.815 352.441 129.83C352.813 129.841 353.205 129.311 353.581 129.304C353.869 129.3 354.257 129.434 354.707 129.419C355.05 129.408 355.405 128.9 355.811 128.878C356.169 128.859 356.545 128.948 356.933 128.915C357.302 128.885 357.679 128.93 358.055 128.881C358.428 128.833 358.827 128.978 359.196 128.911C359.572 128.844 359.86 128.44 360.215 128.348C360.595 128.251 361.027 128.429 361.359 128.303C361.735 128.159 362.241 128.248 362.525 128.059C362.872 127.829 362.525 127.08 362.688 126.773C362.743 126.665 362.902 126.569 363.079 126.472C363.337 126.573 363.607 126.669 363.703 126.836C363.873 127.143 364.168 127.321 364.4 127.621C364.618 127.899 364.352 128.604 364.615 128.874C364.862 129.13 365.312 129.196 365.596 129.437C365.866 129.671 366.305 129.689 366.604 129.912C366.892 130.127 367.077 130.479 367.387 130.683C367.689 130.883 367.822 131.368 368.14 131.554C368.454 131.735 369.055 131.398 369.376 131.568C369.698 131.739 369.801 132.347 370.129 132.499C370.462 132.654 370.75 132.929 371.082 133.066C371.421 133.207 371.735 133.447 372.071 133.57C372.418 133.699 372.968 133.225 373.308 133.333C373.662 133.444 374.005 133.529 374.349 133.618C374.71 133.714 375.083 133.644 375.426 133.714C375.796 133.788 376.065 134.348 376.408 134.393C376.792 134.441 377.158 134.748 377.501 134.756C377.896 134.763 378.188 133.833 378.516 133.781C378.852 133.729 379.258 134.007 379.653 133.888C379.996 133.788 380.546 134.2 380.915 134.055C381.255 133.922 381.399 133.27 381.753 133.103C382.089 132.947 382.388 132.717 382.724 132.532C383.053 132.354 383.425 132.258 383.75 132.058C384.071 131.857 384.448 131.746 384.754 131.524C385.064 131.302 385.548 131.298 385.84 131.057C386.135 130.812 386.271 130.371 386.537 130.112C386.814 129.841 386.678 129.226 386.914 128.941C387.161 128.644 387.427 128.437 387.626 128.125C387.837 127.796 388.15 127.588 388.291 127.247C388.438 126.888 389.224 126.673 389.28 126.306C389.335 125.931 388.852 125.472 388.8 125.094C388.752 124.731 388.309 124.516 388.147 124.152C388.11 124.067 388.102 123.945 388.11 123.804C388.202 123.845 388.294 123.882 388.39 123.897C388.763 123.967 389.143 123.963 389.505 124.03C389.882 124.101 390.184 124.534 390.55 124.597C390.926 124.66 391.288 124.79 391.65 124.845C392.026 124.901 392.418 124.823 392.783 124.868C393.163 124.916 393.558 124.734 393.924 124.768C394.23 124.797 394.533 124.645 394.832 124.593C395.127 124.753 395.396 124.96 395.699 125.105C396.028 125.261 396.626 124.853 396.954 125.009C397.264 125.157 397.504 125.479 397.84 125.631C398.157 125.776 398.364 126.202 398.7 126.343C399.025 126.476 399.305 126.769 399.641 126.895C399.974 127.021 400.428 126.821 400.767 126.936C401.107 127.051 401.458 127.11 401.801 127.206C402.148 127.303 402.513 127.28 402.857 127.355C403.211 127.432 403.584 127.232 403.931 127.28C404.292 127.332 404.573 128.088 404.92 128.099C405.289 128.114 405.677 128.088 406.02 128.051C406.389 128.014 406.57 127.262 406.898 127.158C407.268 127.043 407.81 127.425 408.128 127.214C408.441 127.002 408.312 126.287 408.589 126.02C408.862 125.757 409.194 125.59 409.453 125.309C409.715 125.027 410.021 124.775 410.283 124.505C410.557 124.227 410.852 123.904 411.147 123.682C411.457 123.448 411.874 123.178 412.232 123.055C412.653 122.911 413.118 122.651 413.469 122.626C413.886 122.596 414.414 122.692 414.783 122.774C415.16 122.859 415.481 123.274 415.865 123.404C416.215 123.522 416.555 123.682 416.965 123.778C417.319 123.863 417.651 124.197 418.076 124.23C418.415 124.256 418.821 124.456 419.231 124.434C419.586 124.416 419.881 123.593 420.272 123.537C420.634 123.485 421.04 123.734 421.424 123.652C421.786 123.574 422.158 123.541 422.531 123.437C422.893 123.337 423.354 123.545 423.716 123.422C424.074 123.3 424.203 122.585 424.554 122.44C424.905 122.296 425.617 122.948 425.953 122.781C426.296 122.611 426.68 122.44 427.001 122.247C427.33 122.047 427.507 121.562 427.802 121.339C428.112 121.106 428.648 121.076 428.91 120.817C429.187 120.543 429.087 119.89 429.297 119.59C429.523 119.275 429.977 119.045 430.113 118.701C430.253 118.349 429.954 117.856 429.991 117.474C430.01 117.27 430.028 117.07 430.032 116.866C430.386 116.744 430.833 116.414 431.08 116.522C431.431 116.673 431.564 117.311 431.907 117.455C432.258 117.604 432.516 117.978 432.859 118.115C433.214 118.256 433.779 117.833 434.122 117.963C434.48 118.097 434.853 118.145 435.2 118.263C435.561 118.386 435.986 118.23 436.34 118.33C436.71 118.438 436.865 119.309 437.223 119.39C437.595 119.475 438.112 118.738 438.474 118.793C438.854 118.853 439.127 119.631 439.493 119.653C439.74 119.672 439.984 119.386 440.224 119.183C440.486 119.32 440.929 119.264 441.191 119.409C441.261 119.486 441.331 119.564 441.401 119.635C441.545 119.916 441.571 120.343 441.807 120.528C442.235 120.891 441.97 121.221 442.405 121.573C442.841 121.925 443.391 121.262 443.812 121.632C444.232 121.999 443.852 122.44 444.273 122.807C444.694 123.174 444.513 123.385 444.934 123.752C445.354 124.119 445.506 123.945 445.927 124.312C446.347 124.679 446.606 124.379 447.027 124.745C447.448 125.112 447.363 125.209 447.783 125.576C448.204 125.943 448.488 125.613 448.909 125.983C449.33 126.35 449.09 126.628 449.507 126.995C449.928 127.362 449.755 127.562 450.175 127.929C450.596 128.296 450.7 128.174 451.12 128.544C451.541 128.911 451.253 129.048 451.53 129.534C451.338 129.934 451.183 129.712 450.936 129.99C450.655 130.305 450.474 130.575 450.164 130.816C449.839 131.064 449.983 131.883 449.677 132.143C449.378 132.395 449.208 132.625 448.968 132.973C448.762 133.273 448.581 133.262 448.452 133.696C448.78 133.874 449.02 133.911 449.241 134.159C449.478 134.422 449.529 134.904 449.699 135.208C449.865 135.512 449.326 136.194 449.481 136.505C449.636 136.816 450.589 136.661 450.792 136.946C450.991 137.224 450.759 137.928 451.05 138.147C451.357 138.373 451.899 138.225 452.228 138.388C452.564 138.554 452.885 138.718 453.235 138.84C453.586 138.962 453.907 139.177 454.269 139.273C454.627 139.37 455 139.418 455.362 139.511C455.723 139.603 456.137 139.514 456.491 139.622C456.86 139.733 457.13 140.17 457.495 140.267C457.864 140.363 458.341 139.989 458.706 140.067C459.083 140.144 459.411 140.378 459.784 140.437C460.164 140.493 460.548 140.289 460.924 140.319C461.305 140.348 461.655 141.193 462.032 141.19C462.412 141.19 462.822 141.049 463.198 141.012C463.575 140.975 463.848 140.252 464.224 140.178C464.594 140.104 464.922 140.015 465.288 139.896C465.642 139.785 465.9 139.522 466.255 139.366C466.594 139.218 467.048 139.359 467.388 139.166C467.731 138.973 468.274 139.092 468.584 138.862C468.898 138.625 469.348 138.484 469.617 138.21C469.887 137.936 469.507 137.087 469.736 136.776C469.968 136.461 470.95 136.609 471.124 136.264C471.301 135.916 470.533 135.186 470.647 134.811C470.762 134.441 471.397 134.218 471.441 133.829C471.485 133.447 471.208 133.066 471.179 132.673C471.153 132.291 471.814 131.765 471.714 131.379C471.622 131.02 471.43 130.627 471.282 130.308C471.415 130.097 471.548 129.901 471.71 129.867C472.08 129.793 472.438 129.775 472.799 129.682C473.161 129.586 473.501 129.474 473.859 129.356C474.217 129.237 474.523 129.045 474.87 128.907C475.217 128.77 475.749 129.085 476.092 128.926C476.432 128.77 476.557 128.188 476.893 128.014C477.225 127.84 477.746 128.022 478.071 127.829C478.392 127.636 478.968 127.822 479.281 127.614C479.591 127.406 479.54 126.654 479.842 126.432C480.141 126.209 480.407 125.95 480.702 125.713C480.928 125.531 481.197 125.257 481.544 124.971C481.806 124.753 482.113 124.53 482.415 124.264C482.685 124.026 483.36 124.201 483.644 123.934C483.914 123.682 484.18 123.389 484.445 123.118C484.711 122.852 484.877 122.462 485.125 122.184C485.379 121.899 485.073 121.162 485.298 120.873C485.538 120.561 486.339 120.665 486.52 120.357C486.727 120.009 486.727 119.553 486.834 119.227C486.963 118.83 487.088 118.419 487.029 118.074C486.967 117.719 486.476 117.637 486.155 117.367C485.977 117.218 485.76 116.837 485.494 116.577C485.8 116.725 486.199 116.84 486.409 116.985C486.701 117.185 486.937 117.322 487.284 117.467C487.609 117.604 487.731 118.341 488.096 118.434C488.439 118.519 488.875 118.178 489.248 118.226C489.599 118.274 489.923 118.793 490.296 118.808C490.651 118.823 491.027 118.452 491.4 118.441C491.758 118.43 492.109 118.293 492.474 118.26C492.832 118.23 493.153 117.948 493.515 117.9C493.873 117.852 494.36 118.575 494.718 118.508C495.076 118.441 495.457 118.393 495.811 118.312C496.165 118.23 496.498 117.997 496.845 117.9C497.199 117.8 497.372 117.126 497.716 117.014C498.066 116.9 498.583 117.289 498.919 117.163C499.266 117.033 499.543 116.725 499.868 116.585C500.211 116.436 500.344 115.888 500.658 115.728C500.997 115.558 501.606 115.932 501.905 115.754C502.238 115.554 502.459 115.21 502.729 115.006C503.046 114.768 503.655 114.831 503.88 114.591C504.113 114.342 503.703 113.501 503.939 113.164C504.146 112.871 504.5 112.675 504.703 112.334C504.888 112.019 505.442 111.885 505.615 111.533C505.781 111.203 505.471 110.636 505.626 110.28C505.774 109.936 506.08 109.658 506.209 109.298C506.339 108.942 506.516 108.605 506.623 108.238C506.73 107.871 506.863 107.516 506.944 107.145C507.025 106.771 507.313 106.426 507.365 106.052C507.416 105.67 506.73 105.244 506.741 104.869C506.752 104.48 507.453 104.095 507.416 103.728C507.38 103.339 507.036 103.002 506.937 102.649C506.83 102.275 506.826 101.864 506.641 101.538C506.457 101.208 506.35 100.741 506.073 100.474C505.896 100.3 505.549 100.348 505.235 100.337C505.46 100.1 505.597 99.6993 505.862 99.5585C506.198 99.3806 506.785 99.6771 507.11 99.4992C507.446 99.3176 507.73 99.0396 508.048 98.8581C508.38 98.669 508.542 98.1909 508.856 98.0019C509.185 97.8055 509.406 97.4571 509.716 97.257C510.037 97.0495 510.178 96.6084 510.477 96.3935C510.79 96.1711 511.215 96.1452 511.503 95.9154C511.802 95.6745 512.392 95.7857 512.662 95.5373C512.946 95.2779 513.278 95.0444 513.529 94.7739C513.788 94.4922 513.791 93.9808 514.009 93.6843C514.234 93.3767 514.762 93.2395 514.943 92.9134C515.124 92.5836 515.017 92.0832 515.15 91.7311C515.279 91.3828 515.353 91.0047 515.43 90.6304C515.508 90.2709 515.593 89.8966 515.619 89.5112C515.641 89.148 516.025 88.7366 515.999 88.3474C515.977 87.9842 515.633 87.6136 515.567 87.2282L515.548 87.2208ZM398.257 66.6517C398.18 66.8222 398.113 66.9927 398.106 67.1669C398.098 67.3892 398.261 67.6857 398.39 67.9674C398.246 67.708 398.054 67.4448 398.036 67.241C398.017 67.052 398.143 66.8481 398.261 66.648L398.257 66.6517ZM332.818 43.2919C332.947 43.5588 333.198 43.833 333.187 44.0999C333.172 44.4631 332.762 45.3007 332.777 45.6824C332.81 45.2895 332.474 44.4557 332.445 44.1184C332.423 43.8738 332.663 43.5662 332.818 43.2919ZM182.297 95.3817C182.364 95.5855 182.474 95.7894 182.541 95.9932C182.334 95.8227 182.153 95.6597 181.91 95.5336C181.887 95.5225 181.865 95.5077 181.843 95.4929C181.865 95.4743 181.887 95.4521 181.91 95.441C182.02 95.3891 182.157 95.3817 182.297 95.3854V95.3817ZM151.394 53.443C151.464 53.5653 151.515 53.6876 151.526 53.8174C151.545 54.1287 151.67 54.251 151.693 54.5438C151.634 54.3622 151.287 54.3325 151.253 54.099C151.231 53.9434 151.331 53.6839 151.394 53.443ZM33.855 65.7585C33.8439 65.866 33.8587 65.9809 33.8772 66.0995C33.8624 66.0513 33.8476 65.9994 33.8439 65.9438C33.8365 65.8845 33.8439 65.8215 33.8587 65.7585H33.855ZM-43.1051 25.7285C-43.1051 25.7804 -43.1087 25.836 -43.1124 25.8879C-43.1198 26.1029 -42.9722 26.2956 -42.8467 26.492C-42.9796 26.3215 -43.1457 26.1622 -43.1641 25.9694C-43.1715 25.8916 -43.1457 25.8101 -43.1051 25.7285ZM-97.083 22.4264C-97.0498 22.7377 -97.2492 23.2343 -97.275 23.6086C-97.2713 23.2269 -97.2122 22.734 -97.2602 22.4486C-97.275 22.3486 -97.2824 22.2485 -97.2861 22.1447C-97.1753 22.2337 -97.0941 22.33 -97.083 22.4301V22.4264ZM95.0015 131.583C94.8871 131.609 94.7763 131.594 94.6656 131.572C94.7985 131.546 94.9277 131.531 95.068 131.557C95.0458 131.565 95.0236 131.576 95.0015 131.583Z" fill="url(#paint0_linear_1_548)"/>
<defs>
<linearGradient id="paint0_linear_1_548" x1="195.5" y1="0" x2="195.5" y2="142.425" gradientUnits="userSpaceOnUse">
<stop stop-color="#CDEAFA"/>
<stop offset="1" stop-color="white"/>
</linearGradient>
</defs>
</svg>
