<svg width="256" height="238" viewBox="0 0 256 238" fill="none" xmlns="http://www.w3.org/2000/svg">
<path d="M39.3003 82.0159C39.5422 63.5565 52.2602 46.9016 71.108 42.391C79.0351 40.494 86.9844 41.0159 94.1662 43.4741C101.131 32.1684 112.422 23.5078 126.391 20.1647C150.699 14.3475 175.095 26.531 185.449 48.1213C205.856 46.4507 224.966 59.8116 229.858 80.2553C232.913 93.0188 229.788 105.801 222.412 115.511C222.699 116.464 222.986 117.418 223.217 118.385C229.048 142.751 213.958 167.247 189.511 173.098C186.379 173.847 183.223 174.252 180.139 174.347C176.41 183.009 168.761 189.864 158.866 192.232C153.461 193.525 148.045 193.303 143.043 191.871C141.929 202.156 143.084 213.475 143.084 213.475C133.715 206.896 128.498 199.178 125.638 193.349C122.156 195.701 118.184 197.469 113.86 198.504C97.6176 202.391 81.3282 194.693 73.7179 180.771C49.0045 179.997 26.9283 162.935 20.9252 137.85C15.841 116.605 23.6545 95.253 39.3003 82.0159Z" fill="#FFDFDF"/>
</svg>
