<svg width="74" height="74" viewBox="0 0 74 74" fill="none" xmlns="http://www.w3.org/2000/svg">
<path d="M40.7339 30.3145L39.8442 31.3668L39.8464 33.9097H49.0173L49.0241 37.0035L49.0264 37.514H39.8487L39.8532 42.9767H34.1397L34.1465 37.514H24.9688L24.9709 37.0035L24.9777 33.9209L34.1487 33.9097V31.3736L33.2612 30.3145H24.989L24.9981 27.2409H30.689L25.8674 21.498H30.6731L36.9987 29.0205L43.3219 21.498H48.1276L43.3174 27.2409H48.9971L49.0083 30.3145H40.7339Z" fill="white"/>
<path d="M37 7.96484C16.5669 7.96484 0 18.4095 0 31.2954V42.7044C0 55.5925 16.5669 66.0349 37 66.0349C57.4331 66.0349 74 55.5925 74 42.7044V31.2954C74 18.4095 57.4331 7.96484 37 7.96484ZM37 12.9692C54.3438 12.9692 68.9956 21.3612 68.9956 31.2954C68.9956 41.2274 54.3438 49.6193 37 49.6193C19.6562 49.6193 5.00439 41.2274 5.00439 31.2954C5.00439 21.3612 19.6562 12.9692 37 12.9692Z" fill="white"/>
</svg>
