<svg width="269" height="250" viewBox="0 0 269 250" fill="none" xmlns="http://www.w3.org/2000/svg">
<g clip-path="url(#clip0_1_530)">
<path d="M222.733 88.26C222.491 69.8006 209.773 53.1457 190.925 48.6352C182.998 46.7381 175.048 47.2601 167.867 49.7182C160.902 38.4125 149.611 29.752 135.642 26.4089C111.334 20.5916 86.9376 32.7751 76.5838 54.3654C56.1772 52.6948 37.0673 66.0557 32.1748 86.4994C29.1203 99.2629 32.2448 112.045 39.6209 121.755C39.3341 122.708 39.0473 123.662 38.8159 124.629C32.9846 148.996 48.0753 173.491 72.522 179.342C75.6541 180.091 78.8101 180.496 81.8936 180.591C85.623 189.253 93.2722 196.108 103.167 198.476C108.572 199.769 113.988 199.547 118.99 198.115C120.104 208.4 118.948 219.719 118.948 219.719C128.318 213.141 133.535 205.422 136.395 199.593C139.876 201.945 143.849 203.713 148.173 204.748C164.415 208.635 180.705 200.938 188.315 187.015C213.028 186.241 235.105 169.179 241.108 144.094C246.192 122.849 238.378 101.497 222.733 88.26Z" fill="#FFDFDF"/>
</g>
<defs>
<clipPath id="clip0_1_530">
<rect width="228" height="202" fill="white" transform="translate(47.0138) rotate(13.4585)"/>
</clipPath>
</defs>
</svg>
