<svg width="294" height="281" viewBox="0 0 294 281" fill="none" xmlns="http://www.w3.org/2000/svg">
<g clip-path="url(#clip0_1_537)">
<path d="M52.4399 123.555C48.757 105.465 57.649 86.49 75.1095 78.0807C82.4532 74.5439 90.332 73.3662 97.872 74.2435C102.278 61.7168 111.472 50.8566 124.413 44.6239C146.932 33.7783 173.359 40.5045 188.06 59.4043C207.647 53.4393 229.158 62.4383 238.279 81.3772C243.974 93.2012 243.635 106.355 238.488 117.41C238.971 118.281 239.454 119.152 239.885 120.047C250.757 142.621 241.211 169.762 218.564 180.669C215.662 182.067 212.664 183.132 209.671 183.88C207.866 193.136 201.846 201.459 192.679 205.873C187.672 208.285 182.332 209.217 177.14 208.88C178.236 219.167 181.768 229.983 181.768 229.983C171.216 225.544 164.479 219.109 160.446 214.02C157.544 217.057 154.037 219.629 150.032 221.558C134.985 228.805 117.432 224.741 107.04 212.752C82.7252 217.242 57.53 205.256 46.3378 182.018C36.859 162.337 39.9611 139.812 52.4399 123.555Z" fill="#FFDFDF"/>
</g>
<defs>
<clipPath id="clip0_1_537">
<rect width="228" height="202" fill="white" transform="matrix(-0.900953 0.433917 0.433917 0.900953 205.417 0)"/>
</clipPath>
</defs>
</svg>
