<svg width="128" height="49" viewBox="0 0 128 49" fill="none" xmlns="http://www.w3.org/2000/svg">
<path d="M36.94 0.119901L38.1 1.5199C37.38 1.69323 36.58 1.85323 35.7 1.9999C34.8333 2.13324 33.92 2.25324 32.96 2.3599C32 2.46657 31.04 2.5599 30.08 2.6399C29.12 2.70657 28.1933 2.76657 27.3 2.8199C27.2867 2.60657 27.2333 2.3599 27.14 2.0799C27.0467 1.7999 26.9533 1.56657 26.86 1.3799C27.74 1.32657 28.6467 1.26657 29.58 1.1999C30.5133 1.1199 31.4267 1.02657 32.32 0.919902C33.2267 0.813235 34.0733 0.693235 34.86 0.559902C35.6467 0.426569 36.34 0.279902 36.94 0.119901ZM27.54 3.5399L28.98 3.0599C29.2333 3.44657 29.4733 3.88657 29.7 4.3799C29.9267 4.8599 30.0867 5.2799 30.18 5.6399L28.66 6.1799C28.58 5.83324 28.4267 5.40657 28.2 4.8999C27.9867 4.39324 27.7667 3.9399 27.54 3.5399ZM31.4 3.0799L32.9 2.7599C33.0867 3.18657 33.26 3.6599 33.42 4.1799C33.58 4.68657 33.6933 5.11323 33.76 5.4599L32.18 5.8799C32.1267 5.5199 32.0267 5.0799 31.88 4.5599C31.7333 4.02657 31.5733 3.53324 31.4 3.0799ZM36.4 2.4999L38.16 3.0199C37.8 3.68657 37.42 4.3599 37.02 5.0399C36.6333 5.7199 36.2667 6.29323 35.92 6.7599L34.54 6.2799C34.7533 5.93324 34.9733 5.5399 35.2 5.0999C35.44 4.6599 35.6667 4.21324 35.88 3.7599C36.0933 3.29324 36.2667 2.87324 36.4 2.4999ZM26.7 6.1999H38.64V9.4599H36.88V7.7799H28.38V9.4399H26.7V6.1999ZM27.72 9.8399H36.28V11.3999H27.72V9.8399ZM35.68 9.8399H36.04L36.34 9.7599L37.46 10.2199C37.0467 11.4466 36.4867 12.5266 35.78 13.4599C35.0867 14.3799 34.2733 15.1732 33.34 15.8399C32.4067 16.5066 31.38 17.0532 30.26 17.4799C29.14 17.9199 27.9667 18.2732 26.74 18.5399C26.7 18.3799 26.6267 18.1932 26.52 17.9799C26.4267 17.7799 26.3267 17.5799 26.22 17.3799C26.1133 17.1799 26 17.0132 25.88 16.8799C27.04 16.6932 28.1333 16.4199 29.16 16.0599C30.2 15.6999 31.1533 15.2399 32.02 14.6799C32.8867 14.1199 33.6267 13.4599 34.24 12.6999C34.8667 11.9399 35.3467 11.0732 35.68 10.0999V9.8399ZM29.96 11.2199C30.6933 12.7532 31.82 14.0066 33.34 14.9799C34.8733 15.9532 36.7267 16.6132 38.9 16.9599C38.7667 17.0799 38.6267 17.2399 38.48 17.4399C38.3333 17.6399 38.1933 17.8399 38.06 18.0399C37.94 18.2399 37.84 18.4266 37.76 18.5999C35.48 18.1332 33.5533 17.3266 31.98 16.1799C30.42 15.0332 29.2133 13.5399 28.36 11.6999L29.96 11.2199ZM20.12 10.3399C20.9067 10.1266 21.8533 9.86657 22.96 9.5599C24.0667 9.2399 25.1867 8.90657 26.32 8.5599L26.56 10.2799C25.5333 10.6132 24.4933 10.9466 23.44 11.2799C22.3867 11.5999 21.4267 11.8932 20.56 12.1599L20.12 10.3399ZM20.34 3.9399H26.42V5.6999H20.34V3.9399ZM22.7 0.0399013H24.44V16.4999C24.44 16.9666 24.3867 17.3332 24.28 17.5999C24.1733 17.8666 23.98 18.0799 23.7 18.2399C23.4467 18.3866 23.1067 18.4799 22.68 18.5199C22.2533 18.5732 21.72 18.5999 21.08 18.5999C21.0533 18.3599 20.9867 18.0666 20.88 17.7199C20.7867 17.3866 20.68 17.0932 20.56 16.8399C20.96 16.8532 21.3267 16.8599 21.66 16.8599C22.0067 16.8599 22.24 16.8532 22.36 16.8399C22.48 16.8399 22.5667 16.8199 22.62 16.7799C22.6733 16.7266 22.7 16.6332 22.7 16.4999V0.0399013ZM42.82 12.3199H60.48V13.8999H42.82V12.3199ZM42.9 3.4599H60.42V5.0399H42.9V3.4599ZM43.7 6.9399H59.68V8.4599H43.7V6.9399ZM44.7 9.6799H58.72V11.0799H44.7V9.6799ZM50.66 7.6799H52.52V18.5799H50.66V7.6799ZM48.86 -9.82285e-05H50.64V4.1999H48.86V-9.82285e-05ZM52.62 -9.82285e-05H54.42V4.0999H52.62V-9.82285e-05ZM50.18 12.9799L51.7 13.6799C51.0733 14.3599 50.3133 14.9999 49.42 15.5999C48.5267 16.1999 47.5667 16.7266 46.54 17.1799C45.5133 17.6466 44.5 18.0199 43.5 18.2999C43.4067 18.1266 43.2867 17.9399 43.14 17.7399C43.0067 17.5532 42.86 17.3666 42.7 17.1799C42.5533 16.9932 42.4067 16.8332 42.26 16.6999C43.26 16.4866 44.26 16.1932 45.26 15.8199C46.26 15.4466 47.1933 15.0199 48.06 14.5399C48.9267 14.0466 49.6333 13.5266 50.18 12.9799ZM53 12.9399C53.4267 13.3532 53.9333 13.7532 54.52 14.1399C55.12 14.5266 55.7733 14.8866 56.48 15.2199C57.1867 15.5399 57.92 15.8199 58.68 16.0599C59.4533 16.2999 60.2267 16.4932 61 16.6399C60.8667 16.7732 60.7133 16.9399 60.54 17.1399C60.38 17.3399 60.2267 17.5466 60.08 17.7599C59.9467 17.9732 59.8333 18.1666 59.74 18.3399C58.9533 18.1266 58.1733 17.8599 57.4 17.5399C56.6267 17.2332 55.88 16.8732 55.16 16.4599C54.4533 16.0466 53.7867 15.5999 53.16 15.1199C52.5467 14.6266 52.0067 14.0999 51.54 13.5399L53 12.9399ZM57.24 0.219901L59.2 0.719902C58.8933 1.25323 58.5733 1.78657 58.24 2.3199C57.92 2.85324 57.6267 3.31324 57.36 3.6999L55.82 3.2199C55.9933 2.9399 56.1667 2.62657 56.34 2.2799C56.5133 1.9199 56.68 1.5599 56.84 1.1999C57 0.839902 57.1333 0.513235 57.24 0.219901ZM54.58 4.4599L56.56 4.9399C56.3067 5.40657 56.0533 5.8599 55.8 6.2999C55.5467 6.72657 55.3067 7.09324 55.08 7.3999L53.5 6.9399C53.6867 6.5799 53.88 6.16657 54.08 5.6999C54.2933 5.23324 54.46 4.8199 54.58 4.4599ZM44.42 0.719902L46.04 0.159902C46.3733 0.599902 46.6933 1.09324 47 1.6399C47.3067 2.18657 47.5333 2.66657 47.68 3.0799L45.96 3.6999C45.84 3.2999 45.6333 2.8199 45.34 2.2599C45.0467 1.6999 44.74 1.18657 44.42 0.719902ZM47 5.1199L48.82 4.7999C49.0333 5.10657 49.2333 5.45324 49.42 5.8399C49.6067 6.22657 49.74 6.5599 49.82 6.8399L47.92 7.1999C47.8533 6.9199 47.7333 6.58657 47.56 6.1999C47.3867 5.7999 47.2 5.4399 47 5.1199ZM66.96 1.2999H80.44V18.2799H78.4V3.2199H68.9V18.3599H66.96V1.2999ZM68.26 8.1399H79.26V10.0199H68.26V8.1399ZM68.24 15.1399H79.28V17.0399H68.24V15.1399ZM98.34 9.5399H100.22V17.5599H98.34V9.5399ZM94.14 8.8399H104.5V10.4799H94.14V8.8399ZM93.3 16.4199H104.94V18.0999H93.3V16.4199ZM94.6 12.5599H104.04V14.1799H94.6V12.5599ZM96.6 2.4199V5.7199H102.04V2.4199H96.6ZM94.84 0.819902H103.88V7.3199H94.84V0.819902ZM89.62 1.7599H91.46V18.5599H89.62V1.7599ZM86.52 5.6399H93.82V7.4199H86.52V5.6399ZM89.72 6.3399L90.86 6.8399C90.66 7.54657 90.42 8.28657 90.14 9.0599C89.86 9.8199 89.5533 10.5732 89.22 11.3199C88.9 12.0666 88.5533 12.7666 88.18 13.4199C87.8067 14.0732 87.4267 14.6332 87.04 15.0999C86.9467 14.8332 86.8067 14.5332 86.62 14.1999C86.4333 13.8532 86.2667 13.5666 86.12 13.3399C86.48 12.9399 86.8333 12.4666 87.18 11.9199C87.5267 11.3599 87.86 10.7666 88.18 10.1399C88.5133 9.4999 88.8067 8.85324 89.06 8.1999C89.3267 7.54657 89.5467 6.92657 89.72 6.3399ZM92.66 0.259902L93.96 1.7199C93.3067 1.97324 92.58 2.20657 91.78 2.4199C90.9933 2.6199 90.18 2.7999 89.34 2.9599C88.5 3.10657 87.6867 3.2399 86.9 3.3599C86.86 3.14657 86.7867 2.8999 86.68 2.6199C86.5733 2.3399 86.4667 2.0999 86.36 1.8999C87.1067 1.7799 87.8667 1.6399 88.64 1.4799C89.4267 1.30657 90.1667 1.1199 90.86 0.919902C91.5667 0.706568 92.1667 0.486568 92.66 0.259902ZM91.42 8.3199C91.54 8.41324 91.7267 8.59324 91.98 8.8599C92.2333 9.11324 92.5067 9.38657 92.8 9.6799C93.1067 9.97324 93.38 10.2532 93.62 10.5199C93.86 10.7732 94.0267 10.9599 94.12 11.0799L93.02 12.5599C92.9 12.3466 92.7333 12.0799 92.52 11.7599C92.32 11.4399 92.0933 11.1132 91.84 10.7799C91.6 10.4332 91.3667 10.1066 91.14 9.7999C90.9133 9.49324 90.72 9.24657 90.56 9.0599L91.42 8.3199ZM16.46 33.3799C16.3667 33.4866 16.2533 33.6266 16.12 33.7999C16 33.9599 15.8933 34.0999 15.8 34.2199C15.52 34.7132 15.1267 35.2932 14.62 35.9599C14.1267 36.6266 13.56 37.2999 12.92 37.9799C12.2933 38.6466 11.62 39.2332 10.9 39.7399L9.24 38.3999C9.68 38.1466 10.1067 37.8466 10.52 37.4999C10.9467 37.1399 11.34 36.7666 11.7 36.3799C12.0733 35.9932 12.4 35.6199 12.68 35.2599C12.96 34.8866 13.1733 34.5532 13.32 34.2599C13.1333 34.2599 12.8133 34.2599 12.36 34.2599C11.92 34.2599 11.3867 34.2599 10.76 34.2599C10.1467 34.2599 9.48666 34.2599 8.78 34.2599C8.08666 34.2599 7.39333 34.2599 6.7 34.2599C6.00666 34.2599 5.36 34.2599 4.76 34.2599C4.16 34.2599 3.64666 34.2599 3.22 34.2599C2.79333 34.2599 2.50666 34.2599 2.36 34.2599C1.96 34.2599 1.57333 34.2732 1.2 34.2999C0.826662 34.3132 0.426662 34.3399 -4.82798e-06 34.3799V32.1599C0.373328 32.1999 0.759995 32.2399 1.16 32.2799C1.56 32.3199 1.96 32.3399 2.36 32.3399C2.50666 32.3399 2.8 32.3399 3.24 32.3399C3.68 32.3399 4.20666 32.3399 4.82 32.3399C5.44666 32.3399 6.12 32.3399 6.84 32.3399C7.56 32.3399 8.28 32.3399 9 32.3399C9.72 32.3399 10.3933 32.3399 11.02 32.3399C11.6467 32.3399 12.18 32.3399 12.62 32.3399C13.06 32.3399 13.3667 32.3399 13.54 32.3399C13.6867 32.3399 13.8667 32.3399 14.08 32.3399C14.3067 32.3266 14.52 32.3066 14.72 32.2799C14.9333 32.2532 15.0933 32.2266 15.2 32.1999L16.46 33.3799ZM8.38 36.0399C8.38 37.0799 8.35333 38.0666 8.3 38.9999C8.24666 39.9332 8.12 40.8199 7.92 41.6599C7.73333 42.4866 7.44 43.2666 7.04 43.9999C6.64 44.7199 6.1 45.3999 5.42 46.0399C4.74 46.6799 3.87333 47.2666 2.82 47.7999L0.979995 46.2999C1.27333 46.2066 1.58666 46.0799 1.92 45.9199C2.26666 45.7466 2.59333 45.5466 2.9 45.3199C3.62 44.8532 4.2 44.3466 4.64 43.7999C5.08 43.2532 5.40666 42.6666 5.62 42.0399C5.84666 41.3999 6 40.7132 6.08 39.9799C6.17333 39.2466 6.22 38.4666 6.22 37.6399C6.22 37.3732 6.21333 37.1132 6.2 36.8599C6.18666 36.6066 6.15333 36.3332 6.1 36.0399H8.38ZM23.82 46.1999C23.9133 45.9999 23.9733 45.8199 24 45.6599C24.0267 45.4866 24.04 45.2932 24.04 45.0799C24.04 44.8532 24.04 44.4732 24.04 43.9399C24.04 43.3932 24.04 42.7599 24.04 42.0399C24.04 41.3066 24.04 40.5399 24.04 39.7399C24.04 38.9399 24.04 38.1599 24.04 37.3999C24.04 36.6266 24.04 35.9332 24.04 35.3199C24.04 34.7066 24.04 34.2332 24.04 33.8999C24.04 33.6866 24.0267 33.4532 24 33.1999C23.9867 32.9332 23.9667 32.6866 23.94 32.4599C23.9267 32.2199 23.9 32.0266 23.86 31.8799H26.34C26.3 32.1732 26.26 32.4999 26.22 32.8599C26.1933 33.2199 26.18 33.5599 26.18 33.8799C26.18 34.1732 26.18 34.5666 26.18 35.0599C26.18 35.5532 26.18 36.1066 26.18 36.7199C26.18 37.3332 26.18 37.9799 26.18 38.6599C26.18 39.3266 26.18 39.9866 26.18 40.6399C26.18 41.2932 26.18 41.9066 26.18 42.4799C26.18 43.0399 26.18 43.5266 26.18 43.9399C26.18 44.3532 26.18 44.6466 26.18 44.8199C27.0733 44.5799 28.0067 44.2466 28.98 43.8199C29.9667 43.3932 30.94 42.8866 31.9 42.2999C32.86 41.6999 33.76 41.0466 34.6 40.3399C35.4533 39.6332 36.1933 38.8866 36.82 38.0999L37.96 39.8599C36.6267 41.4866 34.9533 42.9066 32.94 44.1199C30.94 45.3199 28.7267 46.2932 26.3 47.0399C26.18 47.0799 26.0267 47.1332 25.84 47.1999C25.6667 47.2666 25.4867 47.3532 25.3 47.4599L23.82 46.1999ZM46.28 31.9999C46.64 32.2399 47.0533 32.5399 47.52 32.8999C47.9867 33.2466 48.46 33.6199 48.94 34.0199C49.4333 34.4199 49.9 34.8066 50.34 35.1799C50.78 35.5532 51.1333 35.8866 51.4 36.1799L49.82 37.7999C49.5667 37.5332 49.2333 37.2132 48.82 36.8399C48.4067 36.4532 47.96 36.0599 47.48 35.6599C47.0133 35.2466 46.5467 34.8599 46.08 34.4999C45.6133 34.1266 45.1933 33.8132 44.82 33.5599L46.28 31.9999ZM44.22 45.3799C45.34 45.2066 46.3733 44.9799 47.32 44.6999C48.2667 44.4066 49.1333 44.0799 49.92 43.7199C50.72 43.3466 51.44 42.9666 52.08 42.5799C53.1467 41.9266 54.1267 41.1732 55.02 40.3199C55.9267 39.4666 56.72 38.5866 57.4 37.6799C58.08 36.7732 58.62 35.8932 59.02 35.0399L60.24 37.2199C59.76 38.0866 59.1667 38.9532 58.46 39.8199C57.7667 40.6866 56.98 41.5199 56.1 42.3199C55.22 43.1066 54.26 43.8199 53.22 44.4599C52.5533 44.8732 51.82 45.2732 51.02 45.6599C50.2333 46.0466 49.38 46.3932 48.46 46.6999C47.5533 47.0066 46.5867 47.2532 45.56 47.4399L44.22 45.3799ZM78.06 31.7799C78.2333 32.0332 78.4333 32.3466 78.66 32.7199C78.9 33.0932 79.1267 33.4732 79.34 33.8599C79.5667 34.2332 79.7533 34.5799 79.9 34.8999L78.5 35.4999C78.3267 35.1132 78.14 34.7466 77.94 34.3999C77.7533 34.0399 77.56 33.6866 77.36 33.3399C77.16 32.9932 76.94 32.6666 76.7 32.3599L78.06 31.7799ZM80.74 30.8199C80.9267 31.0599 81.1333 31.3599 81.36 31.7199C81.6 32.0799 81.8333 32.4532 82.06 32.8399C82.2867 33.2132 82.48 33.5532 82.64 33.8599L81.24 34.4799C81.0667 34.0932 80.8733 33.7266 80.66 33.3799C80.46 33.0332 80.2533 32.6932 80.04 32.3599C79.8267 32.0266 79.6 31.7066 79.36 31.3999L80.74 30.8199ZM69.46 31.4399C69.7667 31.6132 70.12 31.8332 70.52 32.0999C70.9333 32.3532 71.3533 32.6199 71.78 32.8999C72.2067 33.1666 72.6067 33.4266 72.98 33.6799C73.3533 33.9199 73.66 34.1266 73.9 34.2999L72.7 36.0199C72.46 35.8332 72.1533 35.6132 71.78 35.3599C71.4067 35.1066 71.0067 34.8466 70.58 34.5799C70.1667 34.3132 69.76 34.0599 69.36 33.8199C68.9733 33.5666 68.6267 33.3532 68.32 33.1799L69.46 31.4399ZM66.14 45.6999C66.8867 45.5666 67.6467 45.3999 68.42 45.1999C69.1933 44.9866 69.96 44.7332 70.72 44.4399C71.48 44.1332 72.2067 43.7932 72.9 43.4199C74.02 42.7799 75.0533 42.0666 76 41.2799C76.96 40.4932 77.8267 39.6532 78.6 38.7599C79.3733 37.8666 80.0267 36.9466 80.56 35.9999L81.78 38.1199C80.8867 39.4799 79.7667 40.7799 78.42 42.0199C77.0733 43.2599 75.5867 44.3532 73.96 45.2999C73.2933 45.6732 72.56 46.0266 71.76 46.3599C70.96 46.6932 70.1733 46.9799 69.4 47.2199C68.6267 47.4732 67.9333 47.6532 67.32 47.7599L66.14 45.6999ZM66.4 35.9799C66.72 36.1399 67.0867 36.3466 67.5 36.5999C67.9133 36.8399 68.3333 37.0932 68.76 37.3599C69.1867 37.6266 69.5867 37.8799 69.96 38.1199C70.3333 38.3599 70.64 38.5599 70.88 38.7199L69.72 40.4999C69.4533 40.3132 69.1333 40.0932 68.76 39.8399C68.3867 39.5866 67.9933 39.3266 67.58 39.0599C67.1667 38.7932 66.76 38.5466 66.36 38.3199C65.96 38.0799 65.6 37.8732 65.28 37.6999L66.4 35.9799ZM100.26 31.9399H102.24V46.0399C102.24 46.6532 102.153 47.1266 101.98 47.4599C101.807 47.7932 101.507 48.0399 101.08 48.1999C100.64 48.3732 100.06 48.4732 99.34 48.4999C98.62 48.5399 97.76 48.5599 96.76 48.5599C96.72 48.3599 96.6533 48.1332 96.56 47.8799C96.48 47.6399 96.3867 47.3932 96.28 47.1399C96.1733 46.8999 96.0667 46.6932 95.96 46.5199C96.48 46.5466 96.9867 46.5666 97.48 46.5799C97.9867 46.5799 98.4333 46.5799 98.82 46.5799C99.22 46.5799 99.5 46.5799 99.66 46.5799C99.8733 46.5666 100.027 46.5266 100.12 46.4599C100.213 46.3799 100.26 46.2332 100.26 46.0199V31.9399ZM88.64 35.9399H90.48V45.1199H88.64V35.9399ZM89.42 35.9399H96.98V43.5399H89.42V41.7399H95.1V37.7399H89.42V35.9399ZM86.66 31.3999H104.64V33.2999H86.66V31.3999ZM111.54 29.9599L113.52 30.3999C113.28 30.9732 113.02 31.5666 112.74 32.1799C112.46 32.7799 112.18 33.3532 111.9 33.8999C111.62 34.4466 111.353 34.9332 111.1 35.3599L109.46 34.9199C109.713 34.4666 109.967 33.9532 110.22 33.3799C110.487 32.8066 110.733 32.2199 110.96 31.6199C111.2 31.0199 111.393 30.4666 111.54 29.9599ZM108.34 34.1599C109.047 34.1332 109.853 34.1066 110.76 34.0799C111.68 34.0399 112.653 33.9932 113.68 33.9399C114.707 33.8866 115.74 33.8399 116.78 33.7999L116.76 35.4799C115.773 35.5332 114.787 35.5932 113.8 35.6599C112.813 35.7132 111.867 35.7666 110.96 35.8199C110.053 35.8732 109.227 35.9266 108.48 35.9799L108.34 34.1599ZM109.54 37.1799H115.88V38.7599H111.3V48.5599H109.54V37.1799ZM115 37.1799H116.86V46.5399C116.86 46.9799 116.807 47.3332 116.7 47.5999C116.593 47.8666 116.387 48.0732 116.08 48.2199C115.787 48.3666 115.413 48.4532 114.96 48.4799C114.507 48.5199 113.973 48.5399 113.36 48.5399C113.307 48.2866 113.22 47.9932 113.1 47.6599C112.98 47.3266 112.853 47.0466 112.72 46.8199C113.147 46.8332 113.54 46.8466 113.9 46.8599C114.273 46.8599 114.533 46.8532 114.68 46.8399C114.8 46.8399 114.88 46.8199 114.92 46.7799C114.973 46.7266 115 46.6399 115 46.5199V37.1799ZM110.36 40.1999H116.02V41.6399H110.36V40.1999ZM110.36 43.1599H116.02V44.6199H110.36V43.1599ZM118.62 30.0599H120.5V36.4199C120.5 36.7532 120.56 36.9666 120.68 37.0599C120.8 37.1532 121.067 37.1999 121.48 37.1999C121.573 37.1999 121.74 37.1999 121.98 37.1999C122.233 37.1999 122.507 37.1999 122.8 37.1999C123.107 37.1999 123.393 37.1999 123.66 37.1999C123.927 37.1999 124.12 37.1999 124.24 37.1999C124.48 37.1999 124.66 37.1466 124.78 37.0399C124.913 36.9332 125.007 36.7266 125.06 36.4199C125.113 36.0999 125.153 35.6266 125.18 34.9999C125.313 35.0932 125.473 35.1932 125.66 35.2999C125.86 35.3932 126.067 35.4799 126.28 35.5599C126.493 35.6266 126.687 35.6799 126.86 35.7199C126.793 36.5466 126.673 37.1932 126.5 37.6599C126.34 38.1266 126.093 38.4532 125.76 38.6399C125.427 38.8132 124.973 38.8999 124.4 38.8999C124.307 38.8999 124.153 38.8999 123.94 38.8999C123.727 38.8999 123.487 38.8999 123.22 38.8999C122.953 38.8999 122.687 38.8999 122.42 38.8999C122.153 38.8999 121.913 38.8999 121.7 38.8999C121.5 38.8999 121.353 38.8999 121.26 38.8999C120.567 38.8999 120.027 38.8332 119.64 38.6999C119.253 38.5532 118.987 38.2999 118.84 37.9399C118.693 37.5799 118.62 37.0799 118.62 36.4399V30.0599ZM124.68 31.4199L125.92 32.7999C125.333 33.0666 124.693 33.3332 124 33.5999C123.307 33.8532 122.6 34.0932 121.88 34.3199C121.16 34.5466 120.46 34.7599 119.78 34.9599C119.74 34.7732 119.667 34.5532 119.56 34.2999C119.453 34.0332 119.347 33.8132 119.24 33.6399C119.88 33.4399 120.533 33.2132 121.2 32.9599C121.867 32.7066 122.5 32.4466 123.1 32.1799C123.713 31.9132 124.24 31.6599 124.68 31.4199ZM118.62 39.3999H120.48V45.9599C120.48 46.2932 120.547 46.5132 120.68 46.6199C120.813 46.7132 121.1 46.7599 121.54 46.7599C121.633 46.7599 121.807 46.7599 122.06 46.7599C122.313 46.7599 122.593 46.7599 122.9 46.7599C123.22 46.7599 123.513 46.7599 123.78 46.7599C124.047 46.7599 124.247 46.7599 124.38 46.7599C124.647 46.7599 124.847 46.6999 124.98 46.5799C125.113 46.4599 125.207 46.2199 125.26 45.8599C125.313 45.4866 125.353 44.9399 125.38 44.2199C125.593 44.3532 125.86 44.4866 126.18 44.6199C126.513 44.7532 126.813 44.8532 127.08 44.9199C127 45.8399 126.873 46.5532 126.7 47.0599C126.54 47.5666 126.287 47.9199 125.94 48.1199C125.607 48.3199 125.14 48.4199 124.54 48.4199C124.447 48.4199 124.287 48.4199 124.06 48.4199C123.847 48.4199 123.6 48.4199 123.32 48.4199C123.053 48.4199 122.78 48.4199 122.5 48.4199C122.22 48.4199 121.967 48.4199 121.74 48.4199C121.527 48.4199 121.38 48.4199 121.3 48.4199C120.593 48.4199 120.047 48.3466 119.66 48.1999C119.273 48.0532 119 47.7999 118.84 47.4399C118.693 47.0932 118.62 46.5999 118.62 45.9599V39.3999ZM124.88 40.3599L126.14 41.7599C125.567 42.0932 124.92 42.4066 124.2 42.6999C123.48 42.9799 122.74 43.2466 121.98 43.4999C121.22 43.7399 120.487 43.9599 119.78 44.1599C119.74 43.9732 119.66 43.7466 119.54 43.4799C119.42 43.2132 119.313 42.9932 119.22 42.8199C119.887 42.6066 120.567 42.3666 121.26 42.0999C121.967 41.8199 122.633 41.5332 123.26 41.2399C123.9 40.9466 124.44 40.6532 124.88 40.3599ZM114.14 31.9999L115.72 31.3799C116.067 31.8466 116.407 32.3532 116.74 32.8999C117.073 33.4466 117.373 33.9866 117.64 34.5199C117.92 35.0532 118.127 35.5332 118.26 35.9599L116.56 36.6599C116.44 36.2332 116.253 35.7532 116 35.2199C115.747 34.6866 115.46 34.1399 115.14 33.5799C114.82 33.0066 114.487 32.4799 114.14 31.9999Z" fill="white"/>
</svg>
