<svg width="132" height="48" viewBox="0 0 132 48" fill="none" xmlns="http://www.w3.org/2000/svg">
<path d="M11.9 0.0799022C11.86 0.373235 11.8267 0.679901 11.8 0.999901C11.7867 1.30657 11.7867 1.60657 11.8 1.8999C11.8 2.35324 11.8067 2.89324 11.82 3.5199C11.8333 4.14657 11.8467 4.8399 11.86 5.5999C11.8733 6.34657 11.8867 7.12657 11.9 7.9399C11.9267 8.7399 11.9467 9.54657 11.96 10.3599C11.9733 11.1599 11.98 11.9399 11.98 12.6999C11.9933 13.4599 12.0067 14.1599 12.02 14.7999C12.02 15.3732 11.8533 15.8132 11.52 16.1199C11.1867 16.4399 10.68 16.5999 10 16.5999C9.45333 16.5999 8.89333 16.5866 8.32 16.5599C7.76 16.5332 7.21333 16.5066 6.68 16.4799L6.52 14.4199C6.98667 14.4866 7.46667 14.5399 7.96 14.5799C8.46667 14.6199 8.9 14.6399 9.26 14.6399C9.54 14.6399 9.73333 14.5732 9.84 14.4399C9.94667 14.3066 10 14.1066 10 13.8399C10 13.3599 9.99333 12.7999 9.98 12.1599C9.98 11.5199 9.97333 10.8332 9.96 10.0999C9.96 9.35324 9.95333 8.5999 9.94 7.8399C9.94 7.06657 9.93333 6.31324 9.92 5.5799C9.90667 4.84657 9.88667 4.16657 9.86 3.5399C9.84667 2.8999 9.82667 2.35324 9.8 1.8999C9.78667 1.4999 9.76 1.15324 9.72 0.859902C9.69333 0.566568 9.66 0.306568 9.62 0.0799022H11.9ZM0.88 3.4999C1.16 3.5399 1.48 3.57324 1.84 3.5999C2.21333 3.62657 2.56 3.6399 2.88 3.6399C3.05333 3.6399 3.37333 3.6399 3.84 3.6399C4.32 3.6399 4.89333 3.6399 5.56 3.6399C6.22667 3.6399 6.94 3.6399 7.7 3.6399C8.47333 3.6399 9.24 3.6399 10 3.6399C10.76 3.6399 11.4667 3.6399 12.12 3.6399C12.7733 3.6399 13.3267 3.6399 13.78 3.6399C14.2467 3.6399 14.5467 3.6399 14.68 3.6399C14.9733 3.6399 15.3067 3.62657 15.68 3.5999C16.0533 3.5599 16.34 3.52657 16.54 3.4999V5.5999C16.2733 5.58657 15.9733 5.5799 15.64 5.5799C15.32 5.56657 15.0333 5.5599 14.78 5.5599C14.6467 5.5599 14.3533 5.5599 13.9 5.5599C13.4467 5.5599 12.8867 5.5599 12.22 5.5599C11.5533 5.5599 10.8333 5.5599 10.06 5.5599C9.28667 5.5599 8.50667 5.5599 7.72 5.5599C6.94667 5.5599 6.22 5.5599 5.54 5.5599C4.87333 5.5599 4.30667 5.5599 3.84 5.5599C3.37333 5.5599 3.06667 5.5599 2.92 5.5599C2.57333 5.5599 2.22667 5.56657 1.88 5.5799C1.53333 5.5799 1.2 5.59324 0.88 5.6199V3.4999ZM5.96046e-08 12.9199C1.05333 12.4132 2.06 11.8399 3.02 11.1999C3.98 10.5599 4.86 9.89324 5.66 9.1999C6.47333 8.49324 7.18667 7.79324 7.8 7.0999C8.41333 6.40657 8.90667 5.7599 9.28 5.1599H10.3L10.32 6.8599C9.93333 7.4599 9.42 8.10657 8.78 8.7999C8.15333 9.49324 7.44667 10.1932 6.66 10.8999C5.87333 11.5932 5.03333 12.2599 4.14 12.8999C3.26 13.5266 2.36 14.0799 1.44 14.5599L5.96046e-08 12.9199ZM25.16 0.999901C25.52 1.2399 25.9333 1.5399 26.4 1.8999C26.8667 2.24657 27.34 2.6199 27.82 3.0199C28.3133 3.4199 28.78 3.80657 29.22 4.1799C29.66 4.55324 30.0133 4.88657 30.28 5.1799L28.7 6.7999C28.4467 6.53324 28.1133 6.21324 27.7 5.8399C27.2867 5.45324 26.84 5.0599 26.36 4.6599C25.8933 4.24657 25.4267 3.8599 24.96 3.4999C24.4933 3.12657 24.0733 2.81324 23.7 2.5599L25.16 0.999901ZM23.1 14.3799C24.22 14.2066 25.2533 13.9799 26.2 13.6999C27.1467 13.4066 28.0133 13.0799 28.8 12.7199C29.6 12.3466 30.32 11.9666 30.96 11.5799C32.0267 10.9266 33.0067 10.1732 33.9 9.3199C34.8067 8.46657 35.6 7.58657 36.28 6.6799C36.96 5.77323 37.5 4.89323 37.9 4.0399L39.12 6.2199C38.64 7.08657 38.0467 7.95324 37.34 8.8199C36.6467 9.68657 35.86 10.5199 34.98 11.3199C34.1 12.1066 33.14 12.8199 32.1 13.4599C31.4333 13.8732 30.7 14.2732 29.9 14.6599C29.1133 15.0466 28.26 15.3932 27.34 15.6999C26.4333 16.0066 25.4667 16.2532 24.44 16.4399L23.1 14.3799ZM47.06 0.819902C47.3267 0.846569 47.6267 0.873235 47.96 0.899901C48.3067 0.913235 48.6467 0.919902 48.98 0.919902C49.1933 0.919902 49.56 0.919902 50.08 0.919902C50.6133 0.919902 51.2067 0.919902 51.86 0.919902C52.5267 0.919902 53.1867 0.919902 53.84 0.919902C54.5067 0.919902 55.1 0.919902 55.62 0.919902C56.1533 0.919902 56.5333 0.919902 56.76 0.919902C57.08 0.919902 57.42 0.913235 57.78 0.899901C58.1533 0.873235 58.4667 0.846569 58.72 0.819902V2.8799C58.4667 2.85323 58.16 2.8399 57.8 2.8399C57.44 2.82657 57.0867 2.8199 56.74 2.8199C56.5133 2.8199 56.14 2.8199 55.62 2.8199C55.1 2.8199 54.5067 2.8199 53.84 2.8199C53.1867 2.8199 52.5267 2.8199 51.86 2.8199C51.2067 2.8199 50.62 2.8199 50.1 2.8199C49.58 2.8199 49.2067 2.8199 48.98 2.8199C48.66 2.8199 48.3267 2.82657 47.98 2.8399C47.6467 2.8399 47.34 2.85323 47.06 2.8799V0.819902ZM60.3 6.3199C60.2333 6.42657 60.1667 6.54657 60.1 6.6799C60.0467 6.81324 60.0067 6.92657 59.98 7.0199C59.7 7.99324 59.3267 8.96657 58.86 9.9399C58.3933 10.9132 57.7867 11.8066 57.04 12.6199C56.0133 13.7666 54.88 14.6732 53.64 15.3399C52.4133 16.0066 51.16 16.5199 49.88 16.8799L48.32 15.0799C49.7733 14.7732 51.1 14.3132 52.3 13.6999C53.5 13.0732 54.5067 12.3332 55.32 11.4799C55.8933 10.8799 56.36 10.2266 56.72 9.5199C57.0933 8.81324 57.3667 8.13324 57.54 7.4799C57.4067 7.4799 57.1467 7.4799 56.76 7.4799C56.3733 7.4799 55.9 7.4799 55.34 7.4799C54.7933 7.4799 54.2067 7.4799 53.58 7.4799C52.9533 7.4799 52.3133 7.4799 51.66 7.4799C51.02 7.4799 50.4133 7.4799 49.84 7.4799C49.2667 7.4799 48.76 7.4799 48.32 7.4799C47.8933 7.4799 47.5733 7.4799 47.36 7.4799C47.12 7.4799 46.8 7.48657 46.4 7.4999C46.0133 7.51324 45.6267 7.53324 45.24 7.5599V5.4799C45.64 5.5199 46.02 5.55324 46.38 5.5799C46.74 5.60657 47.0667 5.6199 47.36 5.6199C47.52 5.6199 47.8067 5.6199 48.22 5.6199C48.6333 5.6199 49.12 5.6199 49.68 5.6199C50.24 5.6199 50.84 5.6199 51.48 5.6199C52.1333 5.6199 52.7867 5.6199 53.44 5.6199C54.0933 5.6199 54.7 5.6199 55.26 5.6199C55.8333 5.6199 56.3267 5.6199 56.74 5.6199C57.1533 5.6199 57.44 5.6199 57.6 5.6199C57.88 5.6199 58.1267 5.60657 58.34 5.5799C58.5667 5.5399 58.7467 5.49323 58.88 5.4399L60.3 6.3199ZM66.02 8.4399C67.78 7.97324 69.3933 7.4199 70.86 6.7799C72.34 6.12657 73.6333 5.45324 74.74 4.7599C75.4467 4.33323 76.1333 3.85324 76.8 3.3199C77.48 2.78657 78.12 2.23324 78.72 1.6599C79.32 1.08657 79.8467 0.533235 80.3 -9.799e-05L81.98 1.5999C81.3933 2.1999 80.76 2.79324 80.08 3.3799C79.4 3.96657 78.68 4.53324 77.92 5.0799C77.1733 5.61323 76.4067 6.1199 75.62 6.5999C74.8867 7.05324 74.0533 7.51324 73.12 7.9799C72.1867 8.43324 71.2 8.87324 70.16 9.2999C69.12 9.71324 68.0667 10.0866 67 10.4199L66.02 8.4399ZM74.38 5.7999L76.6 5.2199V14.2799C76.6 14.5466 76.6 14.8399 76.6 15.1599C76.6133 15.4666 76.6267 15.7532 76.64 16.0199C76.6667 16.2866 76.7 16.4932 76.74 16.6399H74.26C74.2733 16.4932 74.2933 16.2866 74.32 16.0199C74.3467 15.7532 74.36 15.4666 74.36 15.1599C74.3733 14.8399 74.38 14.5466 74.38 14.2799V5.7999ZM91.16 0.999901C91.52 1.2399 91.9333 1.5399 92.4 1.8999C92.8667 2.24657 93.34 2.6199 93.82 3.0199C94.3133 3.4199 94.78 3.80657 95.22 4.1799C95.66 4.55324 96.0133 4.88657 96.28 5.1799L94.7 6.7999C94.4467 6.53324 94.1133 6.21324 93.7 5.8399C93.2867 5.45324 92.84 5.0599 92.36 4.6599C91.8933 4.24657 91.4267 3.8599 90.96 3.4999C90.4933 3.12657 90.0733 2.81324 89.7 2.5599L91.16 0.999901ZM89.1 14.3799C90.22 14.2066 91.2533 13.9799 92.2 13.6999C93.1467 13.4066 94.0133 13.0799 94.8 12.7199C95.6 12.3466 96.32 11.9666 96.96 11.5799C98.0267 10.9266 99.0067 10.1732 99.9 9.3199C100.807 8.46657 101.6 7.58657 102.28 6.6799C102.96 5.77323 103.5 4.89323 103.9 4.0399L105.12 6.2199C104.64 7.08657 104.047 7.95324 103.34 8.8199C102.647 9.68657 101.86 10.5199 100.98 11.3199C100.1 12.1066 99.14 12.8199 98.1 13.4599C97.4333 13.8732 96.7 14.2732 95.9 14.6599C95.1133 15.0466 94.26 15.3932 93.34 15.6999C92.4333 16.0066 91.4667 16.2532 90.44 16.4399L89.1 14.3799ZM114.66 16.1799C113.753 16.1799 112.9 15.9532 112.1 15.4999C111.313 15.0332 110.673 14.3732 110.18 13.5199C109.7 12.6532 109.46 11.6132 109.46 10.3999C109.46 9.17324 109.7 8.13324 110.18 7.2799C110.673 6.41324 111.313 5.75324 112.1 5.2999C112.9 4.84657 113.753 4.6199 114.66 4.6199C115.327 4.6199 115.973 4.75324 116.6 5.0199C117.227 5.27324 117.78 5.64657 118.26 6.1399C118.74 6.63323 119.12 7.2399 119.4 7.9599C119.68 8.66657 119.82 9.4799 119.82 10.3999C119.82 11.6132 119.573 12.6532 119.08 13.5199C118.6 14.3732 117.967 15.0332 117.18 15.4999C116.407 15.9532 115.567 16.1799 114.66 16.1799ZM114.66 14.2599C115.233 14.2599 115.727 14.0999 116.14 13.7799C116.567 13.4599 116.893 13.0132 117.12 12.4399C117.347 11.8532 117.46 11.1732 117.46 10.3999C117.46 9.62657 117.347 8.95324 117.12 8.3799C116.893 7.79324 116.567 7.3399 116.14 7.0199C115.727 6.68657 115.233 6.5199 114.66 6.5199C114.073 6.5199 113.567 6.68657 113.14 7.0199C112.727 7.3399 112.407 7.79324 112.18 8.3799C111.953 8.95324 111.84 9.62657 111.84 10.3999C111.84 11.1732 111.953 11.8532 112.18 12.4399C112.407 13.0132 112.727 13.4599 113.14 13.7799C113.567 14.0999 114.073 14.2599 114.66 14.2599ZM124.545 15.8999V4.8799H126.425L126.625 6.8599H126.665C127.065 6.15324 127.538 5.60657 128.085 5.2199C128.631 4.8199 129.205 4.6199 129.805 4.6199C130.071 4.6199 130.298 4.6399 130.485 4.6799C130.671 4.7199 130.851 4.77324 131.025 4.8399L130.625 6.8599C130.425 6.79324 130.245 6.74657 130.085 6.7199C129.925 6.69324 129.731 6.6799 129.505 6.6799C129.065 6.6799 128.598 6.8599 128.105 7.2199C127.611 7.56657 127.191 8.1799 126.845 9.0599V15.8999H124.545ZM42.5441 33.6799H51.9841V35.4999H42.5441V33.6799ZM33.7641 32.2199H43.1641V33.9999H33.7641V32.2199ZM47.8241 29.0199H49.7041V45.1399C49.7041 45.7132 49.6308 46.1532 49.4841 46.4599C49.3508 46.7666 49.1175 47.0066 48.7841 47.1799C48.4508 47.3399 47.9975 47.4399 47.4241 47.4799C46.8641 47.5332 46.1641 47.5599 45.3241 47.5599C45.2975 47.3732 45.2508 47.1599 45.1841 46.9199C45.1175 46.6932 45.0441 46.4532 44.9641 46.1999C44.8841 45.9599 44.7975 45.7466 44.7041 45.5599C45.3041 45.5732 45.8508 45.5866 46.3441 45.5999C46.8508 45.5999 47.1841 45.5932 47.3441 45.5799C47.5175 45.5799 47.6375 45.5532 47.7041 45.4999C47.7841 45.4332 47.8241 45.3066 47.8241 45.1199V29.0199ZM42.5841 38.0999L44.1041 37.3599C44.4241 37.8132 44.7375 38.3066 45.0441 38.8399C45.3508 39.3599 45.6175 39.8732 45.8441 40.3799C46.0708 40.8732 46.2375 41.3199 46.3441 41.7199L44.7041 42.5399C44.5975 42.1399 44.4375 41.6866 44.2241 41.1799C44.0108 40.6599 43.7575 40.1332 43.4641 39.5999C43.1841 39.0532 42.8908 38.5532 42.5841 38.0999ZM34.2841 36.8399L35.6241 35.7599C36.2375 36.3999 36.8575 37.0866 37.4841 37.8199C38.1108 38.5399 38.7108 39.2732 39.2841 40.0199C39.8708 40.7666 40.3975 41.4932 40.8641 42.1999C41.3441 42.8932 41.7308 43.5332 42.0241 44.1199L40.5041 45.3999C40.2375 44.8132 39.8708 44.1599 39.4041 43.4399C38.9508 42.7199 38.4375 41.9799 37.8641 41.2199C37.3041 40.4466 36.7175 39.6866 36.1041 38.9399C35.4908 38.1799 34.8841 37.4799 34.2841 36.8399ZM37.4641 29.0399H39.2641V33.2799H37.4641V29.0399ZM39.6841 34.4199L41.5441 34.6799C41.2108 36.6532 40.7441 38.4399 40.1441 40.0399C39.5575 41.6399 38.8041 43.0532 37.8841 44.2799C36.9775 45.5066 35.8708 46.5599 34.5641 47.4399C34.4841 47.3066 34.3641 47.1466 34.2041 46.9599C34.0575 46.7732 33.8975 46.5866 33.7241 46.3999C33.5508 46.2132 33.3975 46.0666 33.2641 45.9599C34.5175 45.1999 35.5708 44.2666 36.4241 43.1599C37.2775 42.0532 37.9641 40.7666 38.4841 39.2999C39.0175 37.8332 39.4175 36.2066 39.6841 34.4199ZM61.8841 37.8799H67.2441V39.3799H61.8841V37.8799ZM61.8841 41.3199H67.2641V42.8199H61.8841V41.3199ZM57.8841 44.7999H71.7441V46.5399H57.8841V44.7999ZM56.7041 34.2599H72.7641V47.5799H70.8441V36.0199H58.5441V47.5799H56.7041V34.2599ZM61.0441 35.3999H62.7641V45.5999H61.0441V35.3999ZM66.4841 35.3999H68.2041V45.5399H66.4841V35.3999ZM63.5041 31.0999L65.7241 31.5799C65.5108 32.2732 65.2908 32.9799 65.0641 33.6999C64.8508 34.4199 64.6441 35.0332 64.4441 35.5399L62.7241 35.0799C62.8308 34.7066 62.9375 34.2866 63.0441 33.8199C63.1508 33.3532 63.2441 32.8799 63.3241 32.3999C63.4041 31.9199 63.4641 31.4866 63.5041 31.0999ZM55.8441 30.2599H73.7241V32.0599H55.8441V30.2599ZM91.3841 30.9399H93.3641V45.0399C93.3641 45.6532 93.2775 46.1266 93.1041 46.4599C92.9308 46.7932 92.6308 47.0399 92.2041 47.1999C91.7641 47.3732 91.1841 47.4732 90.4641 47.4999C89.7441 47.5399 88.8841 47.5599 87.8841 47.5599C87.8441 47.3599 87.7775 47.1332 87.6841 46.8799C87.6041 46.6399 87.5108 46.3932 87.4041 46.1399C87.2975 45.8999 87.1908 45.6932 87.0841 45.5199C87.6041 45.5466 88.1108 45.5666 88.6041 45.5799C89.1108 45.5799 89.5575 45.5799 89.9441 45.5799C90.3441 45.5799 90.6241 45.5799 90.7841 45.5799C90.9975 45.5666 91.1508 45.5266 91.2441 45.4599C91.3375 45.3799 91.3841 45.2332 91.3841 45.0199V30.9399ZM79.7641 34.9399H81.6041V44.1199H79.7641V34.9399ZM80.5441 34.9399H88.1041V42.5399H80.5441V40.7399H86.2241V36.7399H80.5441V34.9399ZM77.7841 30.3999H95.7641V32.2999H77.7841V30.3999Z" fill="white"/>
</svg>
