<svg width="342" height="405" viewBox="0 0 342 405" fill="none" xmlns="http://www.w3.org/2000/svg">
<g filter="url(#filter0_d_1_75)">
<path d="M156.579 306.15C158.105 308.006 157.692 312.076 154.282 315.247C151.044 318.246 146.28 319.331 140.988 319.802C139.719 319.916 139.647 319.445 140.232 318.403C142.985 313.576 142.586 311.291 145.325 308.092C148.063 304.893 154.611 303.722 156.565 306.15H156.579ZM146.908 301.366C148.933 300.552 150.36 297.581 149.076 294.04C147.878 290.741 145.039 288.07 141.487 285.8C140.403 285.114 139.647 284.7 139.676 287.014C139.747 291.155 138.478 292.812 139.733 296.253C141.002 299.695 144.868 302.18 146.894 301.366H146.908ZM123.857 303.165C120.819 305.964 120.947 308.22 117.709 312.605C117.01 313.547 117.038 314.018 118.279 314.047C123.486 314.204 128.25 313.69 131.745 311.162C135.425 308.478 136.281 304.565 135.026 302.58C133.385 299.995 126.895 300.366 123.871 303.165H123.857ZM126.296 296.71C128.336 296.125 130.019 293.383 129.106 289.827C128.264 286.514 125.782 283.643 122.559 281.102C121.575 280.33 120.876 279.859 120.69 282.101C120.362 286.114 118.964 287.599 119.849 291.055C120.747 294.511 124.242 297.296 126.282 296.696L126.296 296.71ZM105.285 295.911C101.975 298.238 101.819 300.452 98.1241 304.293C97.3253 305.122 97.2825 305.579 98.4949 305.764C103.53 306.564 108.223 306.678 111.932 304.665C115.84 302.523 117.181 298.838 116.197 296.753C114.942 294.04 108.58 293.583 105.285 295.911ZM108.594 289.87C110.634 289.513 112.545 287.057 112.046 283.515C111.59 280.23 109.493 277.189 106.654 274.375C105.784 273.518 105.156 272.99 104.743 275.146C103.987 278.988 102.475 280.273 102.974 283.715C103.473 287.156 106.554 290.227 108.594 289.87ZM89.1518 286.5C85.6286 288.313 85.1721 290.427 81.0783 293.668C80.1939 294.368 80.094 294.797 81.2352 295.154C86.0137 296.61 90.5355 297.353 94.4154 295.896C98.4949 294.354 100.292 290.955 99.6218 288.799C98.766 286 92.6609 284.7 89.1518 286.514V286.5ZM93.3313 281.044C95.3425 280.93 97.4679 278.774 97.3966 275.304C97.3253 272.076 95.6563 268.906 93.2314 265.864C92.4897 264.936 91.9476 264.35 91.2915 266.392C90.1361 270.02 88.5242 271.091 88.6098 274.461C88.6954 277.831 91.3343 281.159 93.3313 281.044ZM75.4011 275.204C71.7352 276.46 70.9934 278.445 66.5715 281.002C65.6158 281.558 65.4589 281.958 66.5145 282.458C70.9364 284.543 75.2157 285.9 79.1669 285.029C83.332 284.1 85.543 281.073 85.2149 278.888C84.7727 276.06 79.0527 273.933 75.4011 275.204ZM80.3508 270.491C82.2907 270.619 84.6015 268.792 84.9439 265.436C85.2577 262.308 84.0167 259.052 82.034 255.839C81.4349 254.854 80.9784 254.225 80.1083 256.11C78.5535 259.466 76.8846 260.309 76.5565 263.579C76.2427 266.849 78.3823 270.362 80.3365 270.491H80.3508ZM62.9199 262.294C59.1969 262.994 58.1984 264.807 53.5482 266.649C52.5497 267.049 52.3358 267.421 53.2915 268.049C57.2712 270.691 61.2224 272.619 65.1594 272.347C69.3245 272.048 71.8921 269.434 71.8778 267.264C71.8493 264.465 66.6286 261.594 62.9056 262.294H62.9199ZM68.54 258.424C70.4086 258.781 72.8478 257.296 73.5895 254.097C74.2742 251.126 73.4612 247.828 71.9349 244.486C71.4784 243.472 71.1075 242.801 70.0377 244.514C68.1406 247.57 66.4146 248.185 65.7157 251.298C65.0167 254.411 66.6714 258.067 68.54 258.424ZM52.4927 248.027C48.7982 248.17 47.5715 249.784 42.8215 250.912C41.7945 251.155 41.5377 251.483 42.3651 252.226C45.8313 255.353 49.3831 257.781 53.2487 258.067C57.3283 258.367 60.1811 256.196 60.4664 254.111C60.8515 251.398 56.1871 247.885 52.4927 248.027ZM58.6406 245.1C60.3951 245.671 62.9341 244.514 64.0182 241.515C65.0167 238.716 64.6316 235.446 63.5475 232.047C63.2194 231.019 62.9484 230.334 61.7217 231.862C59.525 234.589 57.799 234.975 56.7577 237.902C55.7164 240.816 56.8861 244.543 58.6406 245.1ZM44.1766 232.69C40.582 232.333 39.1699 233.718 34.4341 234.147C33.4071 234.247 33.1218 234.518 33.8208 235.36C36.7449 238.859 39.8546 241.687 43.549 242.501C47.4431 243.358 50.51 241.644 51.0663 239.659C51.7937 237.088 47.7855 233.047 44.1909 232.69H44.1766ZM50.6954 230.748C52.3215 231.49 54.9034 230.662 56.2727 227.892C57.5422 225.307 57.5422 222.108 56.8718 218.709C56.6721 217.681 56.4867 216.981 55.1316 218.324C52.7209 220.709 51.0092 220.894 49.6684 223.593C48.3418 226.292 49.055 230.005 50.6811 230.748H50.6954ZM37.9289 216.539C34.4912 215.71 32.9506 216.881 28.3005 216.681C27.302 216.639 26.9739 216.867 27.5445 217.767C29.9266 221.537 32.5512 224.679 36.0175 225.95C39.6834 227.278 42.8643 226.035 43.6631 224.179C44.7044 221.794 41.3523 217.353 37.9146 216.539H37.9289ZM44.6616 215.567C46.1594 216.453 48.7269 215.924 50.353 213.383C51.8508 211.026 52.1789 207.927 51.8793 204.571C51.7937 203.557 51.6796 202.872 50.2389 204.014C47.6571 206.071 45.9882 206.057 44.4191 208.541C42.8643 211.012 43.1639 214.668 44.6616 215.553V215.567ZM33.6924 199.816C30.4687 198.602 28.8283 199.53 24.3636 198.759C23.3936 198.588 23.0655 198.788 23.5077 199.73C25.3478 203.672 27.5017 207.042 30.6969 208.698C34.0775 210.441 37.3155 209.627 38.314 207.942C39.6263 205.757 36.9161 201.044 33.6924 199.83V199.816ZM40.4822 199.787C41.8515 200.787 44.3763 200.516 46.1879 198.216C47.8568 196.074 48.4559 193.118 48.4987 189.848C48.4987 188.863 48.4702 188.177 46.9582 189.163C44.2622 190.905 42.6503 190.733 40.9101 192.975C39.1699 195.218 39.1128 198.788 40.4822 199.787ZM31.4529 182.765C28.4717 181.208 26.7885 181.922 22.5377 180.651C21.6248 180.38 21.2682 180.523 21.5963 181.48C22.9086 185.507 24.6061 189.02 27.516 191.005C30.5828 193.09 33.8208 192.676 34.9904 191.162C36.5167 189.205 34.4341 184.321 31.4672 182.765H31.4529ZM38.1571 183.65C39.3838 184.736 41.8658 184.693 43.8057 182.636C45.603 180.708 46.4446 177.895 46.7727 174.739C46.8726 173.782 46.8868 173.125 45.3463 173.939C42.5933 175.382 41.0527 175.096 39.1699 177.11C37.287 179.123 36.9161 182.565 38.1571 183.65ZM31.1819 165.628C28.4717 163.786 26.7457 164.3 22.7802 162.6C21.9244 162.229 21.5678 162.329 21.7675 163.3C22.5948 167.342 23.85 170.94 26.4461 173.168C29.1849 175.524 32.3658 175.482 33.6639 174.139C35.347 172.411 33.8778 167.456 31.1819 165.628ZM37.7149 167.342C38.8275 168.484 41.2239 168.655 43.2637 166.799C45.1609 165.071 46.1879 162.415 46.7585 159.387C46.9296 158.473 47.0009 157.831 45.4461 158.502C42.6646 159.687 41.1954 159.273 39.2127 161.087C37.2299 162.886 36.6023 166.199 37.7292 167.342H37.7149ZM32.808 148.591C30.3831 146.52 28.6571 146.835 25.0055 144.764C24.2209 144.321 23.8643 144.378 23.9499 145.335C24.3208 149.334 25.1624 152.947 27.4304 155.389C29.841 157.959 32.9079 158.259 34.3058 157.102C36.1316 155.603 35.2329 150.662 32.7937 148.591H32.808ZM39.0843 151.09C40.0685 152.276 42.3793 152.618 44.5047 150.976C46.4732 149.448 47.6571 146.949 48.4274 144.05C48.6556 143.179 48.7697 142.565 47.2149 143.093C44.4334 144.036 43.0355 143.536 40.9814 145.135C38.9416 146.735 38.0858 149.891 39.0843 151.09ZM36.26 132.225C34.1203 129.969 32.4229 130.098 29.0993 127.713C28.3861 127.199 28.0295 127.227 28.0295 128.155C27.9867 132.068 28.4146 135.653 30.3688 138.252C32.4371 140.994 35.3756 141.594 36.8591 140.622C38.7705 139.366 38.4139 134.482 36.2742 132.225H36.26ZM42.1939 135.453C43.0783 136.681 45.2892 137.152 47.4574 135.71C49.4687 134.353 50.7952 132.011 51.7367 129.255C52.022 128.427 52.1789 127.841 50.6241 128.241C47.8711 128.969 46.5445 128.384 44.4476 129.798C42.3508 131.212 41.3238 134.225 42.2082 135.439L42.1939 135.453ZM41.5663 117.059C39.7262 114.66 38.0858 114.603 35.1046 111.975C34.4627 111.404 34.1203 111.39 34.0205 112.29C33.5783 116.074 33.6211 119.573 35.2472 122.286C36.9589 125.142 39.7547 126.028 41.281 125.242C43.2637 124.214 43.4064 119.459 41.5805 117.074L41.5663 117.059ZM47.0865 120.972C47.8711 122.215 49.9822 122.814 52.1789 121.558C54.2187 120.372 55.6451 118.188 56.7434 115.574C57.0715 114.789 57.257 114.232 55.7307 114.517C53.0062 115.046 51.7652 114.389 49.6398 115.631C47.5145 116.874 46.3163 119.716 47.1008 120.958L47.0865 120.972ZM48.6556 102.522C47.1293 100.023 45.5317 99.794 42.9214 96.9379C42.3651 96.3238 42.037 96.2667 41.8373 97.1378C41.0242 100.751 40.7104 104.135 41.9942 106.92C43.3636 109.862 45.9597 111.004 47.5145 110.39C49.54 109.605 50.1676 105.021 48.6413 102.522H48.6556ZM53.6624 107.049C54.3328 108.305 56.3583 109.034 58.5693 107.948C60.6233 106.92 62.1496 104.892 63.3763 102.422C63.7472 101.679 63.9612 101.151 62.4491 101.336C59.7675 101.679 58.5978 100.965 56.4582 102.036C54.3185 103.107 52.9634 105.792 53.6481 107.049H53.6624ZM57.3996 88.8122C56.1871 86.2417 54.6751 85.8561 52.4499 82.8286C51.9792 82.1717 51.6654 82.1003 51.3801 82.9C50.2104 86.2988 49.5685 89.5405 50.51 92.3538C51.5227 95.3385 53.9049 96.7094 55.4739 96.281C57.4994 95.724 58.5978 91.3827 57.3853 88.7979L57.3996 88.8122ZM61.8215 93.9104C62.4064 95.1814 64.3178 96.0097 66.543 95.0957C68.6113 94.2388 70.2232 92.3538 71.5783 90.0261C71.9777 89.3263 72.2344 88.8265 70.7509 88.9122C68.1263 89.0692 67.028 88.3124 64.8741 89.2121C62.7202 90.1117 61.2509 92.6394 61.8215 93.9104ZM67.7127 75.9739C66.814 73.3605 65.4019 72.8321 63.5903 69.6618C63.2052 68.9763 62.9199 68.8621 62.5633 69.619C61.0655 72.7607 60.0955 75.8168 60.7089 78.6444C61.3508 81.629 63.519 83.2142 65.0738 82.9714C67.085 82.6572 68.6113 78.5872 67.7269 75.9739H67.7127ZM71.4642 81.5862C71.9491 82.8572 73.7607 83.7854 75.9717 83.0428C78.04 82.3431 79.7374 80.6151 81.2066 78.4444C81.6488 77.7875 81.9199 77.3163 80.4792 77.302C77.9116 77.302 76.8988 76.4737 74.7449 77.2163C72.6053 77.9446 70.9934 80.3295 71.4784 81.6005L71.4642 81.5862ZM79.5092 63.9353C78.9386 61.3219 77.6406 60.6507 76.257 57.3947C75.9574 56.695 75.7006 56.5522 75.2584 57.2376C73.4612 60.0938 72.1774 62.9213 72.4484 65.7061C72.7337 68.6479 74.6308 70.4187 76.1571 70.3616C78.1398 70.2902 80.0655 66.5343 79.4949 63.921L79.5092 63.9353ZM82.5047 69.9903C82.8898 71.2612 84.5873 72.2895 86.7982 71.7182C88.8666 71.1756 90.6353 69.6047 92.2044 67.5911C92.6751 66.9913 92.9747 66.5343 91.5625 66.4344C89.0663 66.2487 88.1248 65.3776 85.9709 65.9488C83.8313 66.5201 82.1053 68.7193 82.4762 69.9903H82.5047ZM92.7179 53.339C92.4897 50.7542 91.32 49.9545 90.3786 46.6699C90.1789 45.9559 89.9364 45.7988 89.4514 46.3986C87.3831 48.9263 85.814 51.4968 85.7427 54.1958C85.6714 57.052 87.2832 58.9799 88.7524 59.1227C90.6639 59.294 92.9604 55.9238 92.7322 53.339H92.7179ZM94.8576 59.751C95.1428 61.022 96.7262 62.1502 98.9371 61.7503C100.991 61.3647 102.846 59.9652 104.529 58.1087C105.042 57.5518 105.356 57.1377 103.987 56.9377C101.562 56.5664 100.706 55.6525 98.5663 56.0666C96.4266 56.4665 94.5865 58.4943 94.8576 59.7653V59.751ZM107.253 44.3993C107.353 41.9002 106.34 40.9719 105.841 37.7159C105.741 37.0162 105.527 36.8163 104.985 37.3446C102.689 39.5153 100.863 41.7717 100.449 44.3565C100.021 47.0983 101.319 49.1405 102.717 49.4547C104.529 49.8545 107.153 46.9127 107.253 44.4136V44.3993ZM108.451 51.0541C108.623 52.3108 110.092 53.5532 112.274 53.3247C114.314 53.1105 116.225 51.8824 118.023 50.1973C118.565 49.6974 118.907 49.3119 117.595 48.9977C115.241 48.455 114.485 47.4839 112.36 47.7267C110.234 47.9552 108.28 49.7831 108.451 51.0541ZM123.029 37.3304C123.457 34.9455 122.602 33.9316 122.559 30.747C122.559 30.0615 122.373 29.8473 121.788 30.2757C119.307 32.0465 117.252 33.9744 116.525 36.3878C115.755 38.9441 116.725 41.0862 118.023 41.5574C119.706 42.1715 122.602 39.701 123.029 37.3304ZM123.243 44.0851C123.315 45.3418 124.656 46.6699 126.81 46.6271C128.821 46.5842 130.803 45.5417 132.701 44.028C133.271 43.5853 133.642 43.2283 132.373 42.8284C130.119 42.1001 129.448 41.1005 127.352 41.1576C125.255 41.2004 123.186 42.8427 123.258 44.0994L123.243 44.0851ZM136.466 37.7445C138.093 36.9591 138.192 35.9309 139.633 34.4885C140.432 33.6745 140.032 33.5603 139.405 33.4317C137.379 33.0176 135.468 33.0033 133.913 33.7602C132.244 34.5742 131.745 36.1165 132.187 37.1019C132.629 38.0872 134.84 38.5157 136.466 37.7302V37.7445ZM132.829 36.5735C132.743 36.345 132.487 36.2308 132.258 36.3307C132.258 36.3307 130.789 36.9162 128.022 38.0158C125.269 39.1297 121.246 40.8863 116.254 43.3425C111.29 45.8416 105.37 49.1405 98.9229 53.4532C92.4754 57.766 85.4859 63.0784 78.5535 69.6618C71.5925 76.2024 64.6744 83.9996 58.4266 93.025C55.2742 97.5234 52.3928 102.379 49.6969 107.463C47.0152 112.561 44.576 117.945 42.5505 123.586C38.4709 134.853 35.7179 147.077 35.0475 159.687C34.7052 165.999 34.805 172.311 35.1759 178.68C35.561 185.035 36.2742 191.39 37.3726 197.702C38.4852 204 39.9687 210.255 41.8801 216.339C43.8058 222.422 46.1594 228.363 48.9124 234.061C51.6511 239.759 54.8606 245.171 58.3553 250.298C61.8928 255.382 65.7585 260.18 69.8951 264.55C78.1541 273.347 87.4544 280.53 96.8831 286.271C106.326 291.998 115.926 296.253 125.041 299.366C134.17 302.465 142.843 304.408 150.659 305.393C152.614 305.636 154.525 305.807 156.379 305.921C157.292 305.978 158.248 306.007 159.104 306.021C160.031 306.021 160.93 306.021 161.8 305.978C165.309 305.836 168.59 305.264 171.442 304.208C174.31 303.165 176.692 301.609 178.46 299.981C180.243 298.353 181.442 296.696 182.312 295.325C183.168 293.954 183.71 292.854 184.066 292.112C184.409 291.369 184.58 290.984 184.58 290.984C185.079 289.856 184.58 288.556 183.467 288.056C182.355 287.556 181.057 288.056 180.557 289.17L180.529 289.241C180.529 289.241 180.372 289.584 180.087 290.241C179.787 290.898 179.316 291.841 178.603 292.997C177.191 295.268 174.666 298.41 169.945 300.166C167.605 301.037 164.767 301.566 161.6 301.723C160.801 301.766 159.988 301.78 159.175 301.78C158.291 301.78 157.478 301.751 156.593 301.709C154.839 301.623 153.027 301.466 151.144 301.266C143.627 300.395 135.183 298.595 126.282 295.654C117.381 292.712 107.995 288.656 98.7517 283.158C89.5227 277.66 80.4078 270.748 72.3057 262.265C68.2404 258.038 64.4461 253.426 60.9514 248.499C57.4994 243.543 54.3328 238.302 51.6083 232.761C48.8838 227.235 46.5302 221.451 44.5903 215.51C42.6646 209.555 41.1526 203.443 39.9972 197.26C38.8561 191.076 38.0858 184.821 37.6579 178.552C37.2442 172.311 37.0873 166.014 37.3726 159.844C37.9146 147.477 40.5107 135.439 44.4334 124.314C46.3733 118.745 48.7269 113.418 51.323 108.362C53.9334 103.321 56.7434 98.4945 59.8103 94.0246C65.9011 85.0564 72.6624 77.2877 79.5092 70.7471C86.3133 64.1638 93.2029 58.8228 99.5648 54.4957C105.927 50.1687 111.775 46.8413 116.696 44.3136C121.632 41.8145 125.597 40.058 128.336 38.9155C131.089 37.8016 132.558 37.2018 132.558 37.2018C132.786 37.1162 132.886 36.8591 132.8 36.6306L132.829 36.5735ZM185.307 306.15C183.795 308.006 184.195 312.076 187.604 315.247C190.842 318.246 195.606 319.331 200.898 319.802C202.168 319.916 202.239 319.445 201.64 318.403C198.887 313.576 199.286 311.291 196.547 308.092C193.809 304.893 187.261 303.722 185.307 306.15ZM202.139 296.253C203.409 292.812 202.139 291.141 202.196 287.014C202.239 284.686 201.469 285.1 200.385 285.8C196.833 288.07 194.008 290.741 192.81 294.04C191.512 297.596 192.953 300.552 194.978 301.366C197.004 302.194 200.87 299.695 202.139 296.253ZM206.861 302.58C205.605 304.565 206.461 308.478 210.141 311.162C213.636 313.704 218.4 314.204 223.607 314.047C224.848 314.004 224.876 313.547 224.177 312.605C220.939 308.22 221.068 305.964 218.029 303.165C214.991 300.366 208.501 299.995 206.861 302.58ZM222.023 291.069C222.908 287.613 221.51 286.128 221.182 282.115C220.996 279.859 220.298 280.33 219.313 281.116C216.09 283.658 213.622 286.528 212.78 289.841C211.882 293.411 213.55 296.139 215.59 296.725C217.63 297.324 221.139 294.525 222.023 291.084V291.069ZM225.689 296.753C224.719 298.838 226.046 302.523 229.954 304.665C233.663 306.692 238.356 306.578 243.391 305.764C244.59 305.564 244.561 305.122 243.762 304.293C240.068 300.452 239.897 298.238 236.602 295.911C233.307 293.583 226.945 294.04 225.689 296.753ZM238.912 283.729C239.412 280.287 237.9 279.002 237.144 275.161C236.716 273.004 236.102 273.533 235.232 274.39C232.394 277.189 230.297 280.23 229.84 283.515C229.341 287.057 231.252 289.513 233.292 289.87C235.332 290.227 238.413 287.156 238.912 283.715V283.729ZM242.25 288.785C241.594 290.941 243.377 294.34 247.457 295.882C251.322 297.339 255.858 296.596 260.637 295.139C261.778 294.797 261.678 294.354 260.794 293.654C256.7 290.427 256.243 288.299 252.72 286.485C249.211 284.672 243.106 285.971 242.25 288.77V288.785ZM253.291 274.461C253.376 271.076 251.764 270.005 250.609 266.392C249.953 264.35 249.411 264.936 248.669 265.864C246.244 268.892 244.575 272.076 244.504 275.304C244.433 278.788 246.558 280.944 248.569 281.044C250.581 281.159 253.219 277.831 253.305 274.461H253.291ZM256.671 278.902C256.329 281.087 258.54 284.115 262.705 285.043C266.656 285.914 270.95 284.557 275.358 282.472C276.413 281.973 276.256 281.573 275.3 281.016C270.879 278.46 270.137 276.475 266.471 275.218C262.819 273.961 257.099 276.075 256.657 278.902H256.671ZM265.316 263.565C265.002 260.295 263.319 259.452 261.764 256.096C260.894 254.211 260.437 254.839 259.838 255.825C257.855 259.038 256.614 262.308 256.928 265.421C257.27 268.792 259.581 270.619 261.535 270.477C263.49 270.348 265.644 266.835 265.316 263.565ZM269.994 267.264C269.98 269.42 272.548 272.048 276.713 272.347C280.664 272.619 284.615 270.691 288.581 268.049C289.536 267.421 289.322 267.049 288.324 266.649C283.674 264.807 282.675 262.994 278.952 262.294C275.229 261.594 269.994 264.465 269.98 267.264H269.994ZM276.156 251.312C275.457 248.199 273.731 247.585 271.834 244.529C270.764 242.815 270.408 243.472 269.937 244.5C268.411 247.842 267.612 251.126 268.282 254.111C269.01 257.31 271.463 258.795 273.332 258.438C275.201 258.081 276.841 254.425 276.156 251.312ZM281.42 254.111C281.705 256.196 284.558 258.367 288.638 258.067C292.489 257.781 296.041 255.353 299.507 252.226C300.334 251.483 300.078 251.155 299.065 250.912C294.315 249.798 293.088 248.185 289.394 248.027C285.699 247.885 281.049 251.398 281.42 254.111ZM285.129 237.902C284.087 234.975 282.361 234.589 280.165 231.862C278.938 230.334 278.653 231.019 278.339 232.047C277.255 235.446 276.87 238.716 277.868 241.515C278.952 244.514 281.491 245.657 283.246 245.1C285 244.543 286.17 240.816 285.129 237.902ZM290.82 239.659C291.391 241.644 294.443 243.343 298.337 242.501C302.032 241.687 305.127 238.859 308.066 235.36C308.764 234.518 308.479 234.247 307.452 234.147C302.702 233.718 301.304 232.319 297.695 232.69C294.101 233.047 290.078 237.088 290.82 239.659ZM292.204 223.579C290.877 220.88 289.165 220.694 286.755 218.309C285.4 216.967 285.214 217.667 285.014 218.695C284.344 222.094 284.344 225.293 285.614 227.877C286.997 230.648 289.565 231.476 291.191 230.734C292.831 229.991 293.53 226.278 292.204 223.579ZM298.195 224.179C298.993 226.021 302.174 227.278 305.84 225.95C309.307 224.679 311.931 221.537 314.313 217.767C314.884 216.867 314.57 216.639 313.557 216.681C308.907 216.881 307.367 215.725 303.929 216.539C300.505 217.353 297.139 221.794 298.18 224.179H298.195ZM297.467 208.541C295.912 206.071 294.229 206.071 291.647 204.014C290.207 202.858 290.093 203.543 290.007 204.571C289.722 207.927 290.035 211.012 291.533 213.383C293.159 215.924 295.727 216.453 297.225 215.567C298.737 214.682 299.022 211.026 297.467 208.556V208.541ZM303.572 207.927C304.571 209.612 307.809 210.426 311.189 208.684C314.385 207.028 316.553 203.657 318.379 199.716C318.821 198.773 318.478 198.588 317.508 198.745C313.029 199.516 311.403 198.588 308.18 199.802C304.956 201.015 302.246 205.728 303.558 207.913L303.572 207.927ZM300.976 192.99C299.236 190.748 297.61 190.905 294.928 189.177C293.416 188.206 293.373 188.877 293.388 189.862C293.43 193.133 294.029 196.089 295.698 198.231C297.51 200.53 300.035 200.801 301.404 199.802C302.773 198.802 302.716 195.232 300.976 193.004V192.99ZM306.91 191.162C308.08 192.676 311.303 193.09 314.385 191.005C317.294 189.034 318.992 185.507 320.304 181.48C320.618 180.523 320.276 180.38 319.363 180.651C315.126 181.922 313.429 181.208 310.448 182.765C307.466 184.321 305.398 189.191 306.924 191.162H306.91ZM302.716 177.11C300.834 175.096 299.293 175.396 296.54 173.939C294.985 173.125 295.014 173.782 295.114 174.739C295.442 177.895 296.269 180.708 298.081 182.636C300.02 184.707 302.502 184.736 303.729 183.65C304.97 182.565 304.599 179.123 302.716 177.11ZM308.222 174.139C309.52 175.482 312.701 175.524 315.44 173.168C318.036 170.926 319.291 167.342 320.119 163.3C320.319 162.329 319.962 162.229 319.106 162.6C315.141 164.3 313.415 163.8 310.704 165.628C307.994 167.47 306.525 172.411 308.222 174.154V174.139ZM302.674 161.087C300.691 159.287 299.222 159.687 296.44 158.502C294.871 157.845 294.942 158.473 295.114 159.387C295.684 162.415 296.711 165.071 298.608 166.799C300.648 168.641 303.059 168.484 304.157 167.342C305.27 166.199 304.642 162.886 302.674 161.087ZM307.581 157.102C308.978 158.259 312.06 157.959 314.456 155.389C316.724 152.947 317.566 149.334 317.936 145.335C318.022 144.378 317.68 144.321 316.881 144.764C313.215 146.835 311.503 146.52 309.078 148.591C306.653 150.662 305.755 155.603 307.581 157.102ZM300.905 145.135C298.851 143.536 297.453 144.036 294.671 143.093C293.102 142.565 293.216 143.179 293.459 144.05C294.229 146.935 295.413 149.434 297.382 150.976C299.493 152.618 301.803 152.29 302.802 151.09C303.801 149.905 302.945 146.735 300.905 145.135ZM305.042 140.608C306.511 141.579 309.463 140.98 311.517 138.238C313.472 135.639 313.9 132.068 313.857 128.141C313.857 127.199 313.5 127.184 312.787 127.698C309.449 130.069 307.766 129.955 305.626 132.211C303.487 134.468 303.13 139.337 305.042 140.608ZM297.453 129.798C295.356 128.384 294.029 128.969 291.276 128.241C289.722 127.827 289.879 128.413 290.164 129.255C291.105 132.011 292.432 134.353 294.443 135.696C296.611 137.138 298.822 136.667 299.707 135.439C300.591 134.21 299.55 131.212 297.453 129.798ZM300.605 125.242C302.132 126.042 304.913 125.142 306.639 122.286C308.265 119.573 308.308 116.074 307.866 112.29C307.766 111.39 307.424 111.404 306.782 111.975C303.801 114.617 302.16 114.674 300.32 117.059C298.48 119.459 298.637 124.214 300.62 125.242H300.605ZM292.261 115.631C290.135 114.389 288.88 115.046 286.17 114.517C284.644 114.218 284.829 114.774 285.157 115.574C286.255 118.188 287.682 120.372 289.722 121.558C291.918 122.814 294.029 122.215 294.814 120.972C295.599 119.73 294.386 116.874 292.275 115.646L292.261 115.631ZM294.343 110.39C295.898 111.004 298.508 109.862 299.864 106.92C301.147 104.135 300.848 100.751 300.02 97.1378C299.821 96.281 299.507 96.3238 298.936 96.9379C296.326 99.794 294.743 100.023 293.202 102.522C291.676 105.021 292.303 109.605 294.329 110.39H294.343ZM285.4 102.036C283.26 100.965 282.09 101.679 279.409 101.336C277.897 101.151 278.111 101.679 278.496 102.422C279.722 104.892 281.249 106.92 283.303 107.948C285.514 109.034 287.539 108.32 288.21 107.063C288.88 105.806 287.539 103.107 285.4 102.036ZM286.384 96.281C287.953 96.7094 290.335 95.3385 291.348 92.3538C292.303 89.5262 291.647 86.2845 290.478 82.9C290.192 82.086 289.893 82.1717 289.408 82.8286C287.183 85.8561 285.685 86.2417 284.458 88.8122C283.246 91.3827 284.33 95.7383 286.37 96.2953L286.384 96.281ZM277.012 89.1978C274.858 88.2981 273.774 89.055 271.135 88.8979C269.666 88.8122 269.909 89.312 270.308 90.0118C271.649 92.3252 273.275 94.2246 275.343 95.0814C277.554 95.9954 279.48 95.1671 280.065 93.8961C280.65 92.6251 279.166 90.0975 277.012 89.1978ZM276.812 82.9714C278.367 83.2142 280.521 81.629 281.177 78.6444C281.791 75.8168 280.807 72.7607 279.323 69.619C278.966 68.8621 278.681 68.9763 278.296 69.6618C276.484 72.8178 275.072 73.3605 274.174 75.9739C273.289 78.5872 274.801 82.6572 276.827 82.9714H276.812ZM267.141 77.202C264.987 76.4594 263.975 77.2877 261.407 77.302C259.966 77.302 260.237 77.7875 260.68 78.4444C262.149 80.6151 263.846 82.3431 265.915 83.0428C268.126 83.7854 269.951 82.8572 270.422 81.5862C270.907 80.3152 269.295 77.9446 267.156 77.202H267.141ZM265.715 70.3758C267.241 70.433 269.138 68.6622 269.424 65.7203C269.695 62.9356 268.411 60.108 266.614 57.2519C266.186 56.5664 265.915 56.7092 265.629 57.409C264.246 60.6507 262.948 61.3362 262.377 63.9495C261.821 66.5629 263.746 70.3187 265.715 70.3901V70.3758ZM255.887 65.9488C253.733 65.3776 252.806 66.2487 250.295 66.4344C248.883 66.5486 249.183 66.9913 249.668 67.5911C251.237 69.6047 253.02 71.1756 255.074 71.7182C257.285 72.2895 258.996 71.2612 259.367 69.9903C259.752 68.7193 258.026 66.5201 255.873 65.9488H255.887ZM253.148 59.1227C254.617 58.9941 256.229 57.0663 256.158 54.1958C256.087 51.4825 254.517 48.9263 252.449 46.3986C251.95 45.7988 251.722 45.9559 251.522 46.6699C250.581 49.9545 249.411 50.7542 249.183 53.339C248.954 55.9238 251.251 59.294 253.162 59.1227H253.148ZM243.334 56.0523C241.195 55.6525 240.339 56.5664 237.914 56.9377C236.544 57.1519 236.873 57.5661 237.372 58.123C239.055 59.9795 240.895 61.379 242.949 61.7646C245.146 62.1645 246.743 61.0363 247.029 59.7653C247.314 58.4943 245.46 56.4665 243.32 56.0666L243.334 56.0523ZM239.169 49.4547C240.567 49.1405 241.865 47.0983 241.437 44.3565C241.023 41.7717 239.198 39.5153 236.901 37.3446C236.345 36.8305 236.145 37.0162 236.045 37.7159C235.546 40.9862 234.533 41.9002 234.633 44.3993C234.747 46.8984 237.358 49.8402 239.169 49.4404V49.4547ZM229.526 47.7267C227.401 47.4982 226.645 48.455 224.292 49.012C222.979 49.3261 223.322 49.6974 223.864 50.2115C225.647 51.8967 227.572 53.1248 229.612 53.339C231.794 53.5675 233.264 52.3251 233.435 51.0684C233.62 49.7974 231.652 47.9695 229.526 47.741V47.7267ZM223.849 41.5574C225.147 41.0862 226.117 38.9441 225.347 36.3878C224.62 33.9601 222.566 32.0465 220.084 30.2757C219.484 29.8473 219.313 30.0615 219.313 30.747C219.27 33.9458 218.415 34.9455 218.843 37.3304C219.27 39.7152 222.166 42.1858 223.849 41.5717V41.5574ZM214.549 41.1433C212.452 41.0862 211.782 42.1001 209.528 42.8141C208.258 43.2283 208.629 43.571 209.2 44.028C211.083 45.5417 213.066 46.5842 215.077 46.6271C217.231 46.6699 218.572 45.3418 218.643 44.0851C218.714 42.8284 216.646 41.1861 214.549 41.1433ZM209.685 37.1162C210.127 36.1308 209.628 34.5885 207.959 33.7745C206.404 33.0176 204.493 33.0319 202.467 33.446C201.84 33.5745 201.44 33.6888 202.239 34.5028C203.68 35.9451 203.794 36.9733 205.406 37.7588C207.032 38.5442 209.243 38.1015 209.685 37.1304V37.1162ZM209.043 36.5735C208.957 36.802 209.057 37.059 209.285 37.159C209.285 37.159 210.755 37.7588 213.508 38.8727C216.246 40.0151 220.198 41.7717 225.147 44.2708C230.054 46.7985 235.903 50.1258 242.279 54.4529C248.641 58.7799 255.53 64.1209 262.334 70.7043C269.181 77.2448 275.942 85.0278 282.033 93.9818C285.1 98.4517 287.91 103.264 290.52 108.32C293.117 113.375 295.47 118.702 297.41 124.271C301.319 135.396 303.929 147.434 304.471 159.801C304.756 165.956 304.599 172.268 304.186 178.509C303.758 184.764 302.987 191.033 301.846 197.217C300.705 203.4 299.193 209.512 297.253 215.468C295.313 221.408 292.96 227.192 290.235 232.719C287.511 238.245 284.344 243.5 280.892 248.456C277.397 253.383 273.603 257.995 269.538 262.222C261.436 270.705 252.321 277.617 243.092 283.115C233.849 288.613 224.463 292.669 215.562 295.611C206.661 298.552 198.216 300.352 190.699 301.223C188.816 301.437 187.005 301.58 185.25 301.666C184.366 301.709 183.538 301.737 182.668 301.737C181.855 301.737 181.042 301.737 180.258 301.68C177.091 301.523 174.252 300.994 171.913 300.123C167.192 298.367 164.681 295.225 163.269 292.954C162.556 291.798 162.085 290.855 161.785 290.198C161.486 289.541 161.343 289.199 161.343 289.199L161.315 289.127C160.816 287.999 159.503 287.514 158.391 288.013C157.278 288.513 156.793 289.827 157.292 290.941C157.292 290.941 157.463 291.326 157.806 292.069C158.148 292.812 158.704 293.911 159.56 295.282C160.43 296.639 161.629 298.31 163.412 299.938C165.18 301.566 167.563 303.122 170.43 304.165C173.297 305.222 176.578 305.779 180.072 305.936C180.942 305.964 181.841 305.978 182.768 305.978C183.624 305.978 184.58 305.936 185.493 305.878C187.347 305.764 189.258 305.593 191.213 305.35C199.029 304.379 207.702 302.437 216.831 299.324C225.946 296.21 235.546 291.955 245.003 286.228C254.432 280.487 263.732 273.304 271.991 264.507C276.142 260.123 279.993 255.339 283.531 250.255C287.04 245.143 290.235 239.716 292.974 234.018C295.727 228.32 298.066 222.394 300.006 216.296C301.918 210.198 303.415 203.957 304.514 197.66C305.612 191.362 306.34 184.993 306.71 178.638C307.081 172.268 307.181 165.956 306.825 159.644C306.154 147.035 303.401 134.81 299.322 123.543C297.296 117.902 294.857 112.518 292.175 107.42C289.479 102.322 286.598 97.4663 283.445 92.9822C277.198 83.9568 270.294 76.1595 263.333 69.619C256.4 63.0356 249.411 57.7089 242.963 53.4104C236.516 49.1119 230.596 45.8131 225.632 43.2997C220.654 40.8291 216.617 39.0869 213.864 37.973C211.097 36.8734 209.628 36.2879 209.628 36.2879C209.4 36.2022 209.143 36.3022 209.057 36.5306L209.043 36.5735Z" fill="url(#paint0_linear_1_75)"/>
</g>
<path d="M280.606 167.198C280.606 227.834 231.508 277.002 170.928 277.002C110.348 277.002 61.25 227.848 61.25 167.198C61.25 106.548 110.362 57.4082 170.942 57.4082C231.523 57.4082 280.62 106.562 280.62 167.212L280.606 167.198Z" fill="url(#paint1_linear_1_75)" stroke="url(#paint2_linear_1_75)" stroke-width="6" stroke-miterlimit="10"/>
<g filter="url(#filter1_d_1_75)">
<path d="M185.207 15.0227C185.149 14.8228 185.078 14.6085 184.993 14.4229C184.95 14.3229 184.893 14.2372 184.836 14.123C184.836 14.0944 184.807 14.0659 184.793 14.0516L184.75 13.9945L184.707 13.9374C184.707 13.9374 184.679 13.9088 184.693 13.9088V13.8802L184.664 13.8517C184.422 13.5232 184.108 13.2376 183.766 13.0234C183.409 12.8092 183.01 12.6807 182.625 12.6521C182.24 12.6235 181.869 12.6807 181.555 12.7663C181.241 12.852 180.941 12.9948 180.685 13.1234C180.428 13.2662 180.2 13.4232 180 13.5661C179.701 13.7945 179.458 14.0088 179.258 14.223C179.301 13.2376 179.33 12.3094 179.33 11.4668H162.612C162.612 12.3236 162.64 13.2519 162.697 14.2515C162.484 14.0373 162.241 13.8088 161.927 13.5803C161.728 13.4233 161.499 13.2804 161.243 13.1376C160.986 12.9948 160.701 12.8663 160.372 12.7806C160.059 12.6949 159.688 12.6378 159.303 12.6664C158.917 12.6949 158.518 12.8235 158.161 13.0377C157.805 13.2519 157.505 13.5375 157.263 13.866L157.234 13.8945V13.9231L157.22 13.9516L157.177 14.0088L157.134 14.0659C157.134 14.0659 157.106 14.123 157.092 14.1373C157.02 14.2372 156.978 14.3372 156.935 14.4372C156.835 14.6371 156.778 14.837 156.721 15.037C156.621 15.4511 156.578 15.8652 156.578 16.2937C156.578 16.7221 156.621 17.1219 156.692 17.5361C156.764 17.9502 156.863 18.3501 156.992 18.7357C157.12 19.1212 157.263 19.5068 157.42 19.8924C157.748 20.6493 158.133 21.3633 158.575 22.0345C158.789 22.363 159.017 22.6914 159.246 23.0056C159.488 23.3198 159.716 23.6197 159.973 23.9053C160.216 24.1909 160.472 24.4622 160.729 24.7193C160.986 24.9763 161.228 25.2191 161.485 25.4619C161.742 25.6904 161.984 25.9188 162.241 26.1188C162.498 26.3187 162.74 26.5186 162.969 26.7043C163.439 27.0613 163.896 27.3755 164.309 27.6325C164.723 27.8896 165.08 28.1038 165.379 28.2752C165.522 28.3608 165.664 28.4322 165.779 28.5036C166.649 30.3458 167.719 31.8025 169.017 32.5879V36.5722C169.017 38.2431 168.36 39.1856 167.99 39.6283C167.619 40.0567 167.062 40.4137 166.977 40.9421C165.707 40.9421 165.622 41.2563 165.622 42.0989V43.2984C165.622 43.2984 165.679 43.4984 165.893 43.4984H176.12C176.334 43.4984 176.405 43.2984 176.405 43.2984V42.0989C176.405 41.2563 176.306 40.9421 175.05 40.9421C174.965 40.4137 174.408 40.0567 174.038 39.6283C173.667 39.1999 172.996 38.2573 172.996 36.5722V32.845C174.565 32.1309 175.764 30.4458 176.691 28.2609C176.976 28.0895 177.318 27.8896 177.704 27.6468C178.117 27.3898 178.559 27.0756 179.044 26.7186C179.287 26.5329 179.529 26.3473 179.772 26.1331C180.014 25.9188 180.271 25.7046 180.528 25.4761C180.785 25.2477 181.041 25.0049 181.284 24.7335C181.541 24.4765 181.783 24.2052 182.04 23.9195C182.282 23.6339 182.525 23.334 182.753 23.0199C182.981 22.7057 183.21 22.3772 183.423 22.0488C183.851 21.3776 184.251 20.6636 184.579 19.9067C184.736 19.5354 184.878 19.1498 185.007 18.7499C185.135 18.3644 185.235 17.9502 185.306 17.5504C185.378 17.1505 185.42 16.7364 185.42 16.3079C185.42 15.8795 185.378 15.4654 185.278 15.0512L185.207 15.0227ZM164.68 26.9899C164.309 26.7043 163.896 26.3615 163.468 25.9902C163.04 25.6047 162.583 25.1762 162.127 24.705C161.67 24.2337 161.214 23.7196 160.772 23.1627C160.544 22.8913 160.33 22.5914 160.116 22.3058C159.902 22.0059 159.702 21.706 159.502 21.3919C159.117 20.7635 158.746 20.0923 158.461 19.4069C158.161 18.7214 157.933 18.0073 157.805 17.3076C157.734 16.9506 157.705 16.6078 157.691 16.2651C157.691 15.9224 157.705 15.5939 157.776 15.294C157.805 15.1512 157.848 15.0084 157.919 14.8656C157.947 14.8085 157.976 14.7371 158.005 14.6799C158.005 14.6799 158.005 14.6514 158.033 14.6371L158.062 14.58L158.09 14.5229L158.104 14.4943C158.276 14.2515 158.475 14.0516 158.689 13.9088C158.903 13.766 159.131 13.6803 159.374 13.6375C159.616 13.6089 159.873 13.6232 160.116 13.666C160.615 13.7803 161.057 13.9945 161.442 14.2372C161.813 14.48 162.127 14.7228 162.369 14.9513C162.526 15.0941 162.655 15.2226 162.755 15.3369C163.068 19.2926 163.853 23.891 165.279 27.4183C165.094 27.2898 164.894 27.1327 164.694 26.9756L164.68 26.9899ZM184.208 16.2651C184.208 16.6078 184.165 16.9506 184.094 17.3076C183.966 18.0073 183.723 18.7214 183.438 19.4069C183.138 20.0923 182.782 20.7635 182.396 21.3919C182.197 21.706 181.997 22.0202 181.783 22.3058C181.569 22.6057 181.355 22.8913 181.127 23.1627C180.685 23.7196 180.214 24.2337 179.758 24.705C179.301 25.1762 178.845 25.6047 178.417 25.9902C177.989 26.3758 177.575 26.7043 177.204 26.9899C177.147 27.0327 177.09 27.0756 177.047 27.1184C178.303 23.6197 178.93 19.1641 179.173 15.3083C179.273 15.2083 179.387 15.0941 179.515 14.9656C179.758 14.7514 180.057 14.4943 180.442 14.2515C180.813 14.0088 181.27 13.7945 181.755 13.6803C181.997 13.6232 182.254 13.6089 182.496 13.6517C182.739 13.6946 182.967 13.766 183.181 13.9231C183.395 14.0659 183.595 14.2658 183.766 14.5086V14.5371H183.794L183.837 14.5943L183.88 14.6514C183.88 14.6514 183.88 14.6799 183.908 14.6942C183.937 14.7371 183.966 14.8085 183.994 14.8799C184.051 15.0084 184.094 15.1512 184.122 15.3083C184.194 15.6082 184.222 15.9366 184.208 16.2794V16.2651Z" fill="url(#paint3_linear_1_75)"/>
</g>
<path d="M170.947 88.7544C198.3 88.7544 220.473 88.3516 220.473 87.8548C220.473 87.3579 198.3 86.9551 170.947 86.9551C143.595 86.9551 121.422 87.3579 121.422 87.8548C121.422 88.3516 143.595 88.7544 170.947 88.7544Z" fill="url(#paint4_linear_1_75)"/>
<path d="M220.473 246.556C220.473 247.056 198.306 247.456 170.947 247.456C143.589 247.456 121.422 247.056 121.422 246.556C121.422 246.056 143.589 245.656 170.947 245.656C198.306 245.656 220.473 246.056 220.473 246.556Z" fill="url(#paint5_linear_1_75)"/>
<path d="M260.625 339.71H332.545L309.751 296.225L332.545 252.74H260.625V339.71Z" fill="#760001"/>
<path d="M81.2486 339.71H9.32812L32.1367 296.225L9.32812 252.74H81.2486V339.71Z" fill="#760001"/>
<path d="M81.2493 334.556V331.643H13.5653L12.0391 334.556H81.2493Z" fill="url(#paint6_linear_1_75)"/>
<path d="M13.5653 260.795H81.2493V257.896H12.0391L13.5653 260.795Z" fill="url(#paint7_linear_1_75)"/>
<path d="M53.5156 330.014L81.2454 339.71V330.014" fill="#570001"/>
<path d="M260.625 334.556V331.643H328.323L329.849 334.556H260.625Z" fill="url(#paint8_linear_1_75)"/>
<path d="M328.323 260.795H260.625V257.896H329.849L328.323 260.795Z" fill="url(#paint9_linear_1_75)"/>
<path d="M288.369 330.012L260.625 339.708V330.012" fill="#570001"/>
<path d="M288.362 243.043H53.5156V330.012H288.362V243.043Z" fill="url(#paint10_linear_1_75)"/>
<path d="M288.362 321.957H53.5156V324.856H288.362V321.957Z" fill="url(#paint11_linear_1_75)"/>
<path d="M288.362 248.197H53.5156V251.096H288.362V248.197Z" fill="url(#paint12_linear_1_75)"/>
<path d="M98.2875 291.188C99.6625 292.385 101.402 293.432 103.506 294.328C105.881 295.328 108.689 295.948 111.928 296.188C112.011 296.188 112.053 296.24 112.053 296.344C112.053 296.438 112.011 296.5 111.928 296.531C111.293 296.781 110.845 297.062 110.584 297.375C110.324 297.688 109.996 298.292 109.6 299.188C109.475 299.427 109.314 299.547 109.116 299.547C108.897 299.547 108.397 299.385 107.616 299.062C105.532 298.26 103.652 297.224 101.975 295.953C100.517 294.87 99.1521 293.464 97.8812 291.734C97.8917 292.453 97.9385 294.276 98.0219 297.203C98.0531 298.557 98.0687 299.391 98.0687 299.703C98.0687 300.516 97.4385 300.922 96.1781 300.922C95.3448 300.922 94.9281 300.568 94.9281 299.859C94.9281 299.651 94.9594 298.708 95.0219 297.031C95.0844 295.458 95.126 294.172 95.1469 293.172C92.2719 296.359 88.0479 298.526 82.475 299.672C82.3292 299.703 82.2562 299.641 82.2562 299.484C82.2562 299.432 82.2771 299.401 82.3187 299.391C86.9958 297.182 90.5479 294.448 92.975 291.188H85.4281C84.8344 291.188 84.0896 291.25 83.1937 291.375L82.8344 290.203C83.7198 290.37 84.5427 290.453 85.3031 290.453H95.0531V287.469H88.7875C88.1729 287.469 87.4177 287.531 86.5219 287.656L86.1625 286.484C87.0687 286.651 87.9125 286.734 88.6937 286.734H95.0531V283.828H87.1156C86.5115 283.828 85.7458 283.891 84.8187 284.016L84.4594 282.844C85.376 283.01 86.2302 283.094 87.0219 283.094H92.2719C91.9177 282.99 91.6208 282.5 91.3812 281.625C91.0896 280.49 90.5583 279.573 89.7875 278.875C89.7562 278.844 89.7406 278.812 89.7406 278.781C89.7406 278.667 89.8083 278.609 89.9437 278.609C89.9542 278.609 89.9646 278.609 89.975 278.609C92.8708 279.057 94.3187 280.031 94.3187 281.531C94.3187 281.917 94.199 282.26 93.9594 282.562C93.751 282.823 93.501 283 93.2094 283.094H98.35C98.8812 282.167 99.3292 281.25 99.6937 280.344C99.9333 279.771 100.147 279.099 100.334 278.328C102.772 279.255 103.991 279.885 103.991 280.219C103.991 280.417 103.892 280.552 103.694 280.625C103.506 280.688 103.136 280.734 102.584 280.766C101.449 281.766 100.402 282.542 99.4437 283.094H104.756C105.912 281.812 106.616 281.172 106.866 281.172C107.074 281.172 107.756 281.62 108.912 282.516C109.485 283.005 109.772 283.339 109.772 283.516C109.772 283.724 109.636 283.828 109.366 283.828H97.9437V286.734H102.928C104.001 285.547 104.662 284.953 104.912 284.953C105.131 284.953 105.751 285.365 106.772 286.188C107.303 286.625 107.569 286.948 107.569 287.156C107.569 287.365 107.428 287.469 107.147 287.469H97.9437V290.453H105.881C107.121 289.068 107.866 288.375 108.116 288.375C108.303 288.375 108.996 288.854 110.194 289.812C110.787 290.292 111.084 290.646 111.084 290.875C111.084 291.083 110.949 291.188 110.678 291.188H98.2875ZM92.3031 277.547V273.547C92.2823 272.453 92.2302 271.677 92.1469 271.219C93.9177 271.385 95.0635 271.557 95.5844 271.734C95.9385 271.839 96.1156 271.995 96.1156 272.203C96.1156 272.422 95.7719 272.688 95.0844 273V277.547H97.7406V273.547C97.7198 272.453 97.6677 271.677 97.5844 271.219C99.3865 271.406 100.543 271.578 101.053 271.734C101.407 271.849 101.584 272.005 101.584 272.203C101.584 272.443 101.23 272.708 100.522 273V277.547H101.834C102.491 276.422 103.09 275.229 103.631 273.969C103.933 273.24 104.168 272.521 104.334 271.812C106.866 272.885 108.131 273.583 108.131 273.906C108.131 274.156 108.027 274.318 107.819 274.391C107.631 274.453 107.246 274.49 106.662 274.5C105.36 275.812 104.079 276.828 102.819 277.547H106.569C107.683 276.307 108.366 275.688 108.616 275.688C108.814 275.688 109.475 276.115 110.6 276.969C111.173 277.458 111.459 277.792 111.459 277.969C111.459 278.177 111.324 278.281 111.053 278.281H85.3187C84.7042 278.281 83.9177 278.344 82.9594 278.469L82.6 277.297C83.5479 277.464 84.4229 277.547 85.225 277.547H92.3031ZM90.5375 275.375C90.5375 275.833 90.35 276.224 89.975 276.547C89.6521 276.828 89.2823 276.969 88.8656 276.969C88.4802 276.969 88.1937 276.87 88.0062 276.672C87.8396 276.495 87.6781 276.177 87.5219 275.719C87.1469 274.375 86.5687 273.333 85.7875 272.594C85.7562 272.562 85.7406 272.526 85.7406 272.484C85.7406 272.359 85.8031 272.297 85.9281 272.297C85.9385 272.297 85.949 272.302 85.9594 272.312C89.0115 272.823 90.5375 273.844 90.5375 275.375ZM139.862 284.297H134.128C135.607 285.901 137.378 287.172 139.441 288.109C141.607 289.068 144.258 289.703 147.394 290.016C147.467 290.036 147.503 290.099 147.503 290.203C147.503 290.339 147.456 290.417 147.362 290.438C146.425 290.667 145.753 291.318 145.347 292.391C145.243 292.745 145.154 292.969 145.081 293.062C145.019 293.146 144.909 293.188 144.753 293.188C144.441 293.188 143.951 293.083 143.284 292.875C141.982 292.427 140.649 291.734 139.284 290.797C138.816 290.453 138.477 290.198 138.269 290.031C138.092 290.167 137.852 290.292 137.55 290.406V291.875L137.691 299.438C137.691 300.271 137.081 300.688 135.862 300.688C135.321 300.688 134.951 300.578 134.753 300.359C134.597 300.182 134.519 299.896 134.519 299.5L134.644 293.672C134.644 291.776 134.581 290.115 134.456 288.688C135.352 288.802 136.227 288.927 137.081 289.062C135.81 287.927 134.55 286.339 133.3 284.297H131.628C130.43 286.13 129.024 287.656 127.409 288.875C128.649 288.99 129.446 289.104 129.8 289.219C130.081 289.312 130.222 289.453 130.222 289.641C130.222 289.901 129.915 290.156 129.3 290.406C129.102 293.438 128.373 295.667 127.112 297.094C125.675 298.719 123.112 299.958 119.425 300.812C119.279 300.844 119.206 300.745 119.206 300.516C119.206 300.453 119.227 300.411 119.269 300.391C121.894 299.13 123.732 297.682 124.784 296.047C125.701 294.609 126.159 292.807 126.159 290.641C126.159 290.255 126.149 289.953 126.128 289.734C123.899 291.12 121.092 292.198 117.706 292.969C117.644 292.979 117.576 292.943 117.503 292.859C117.451 292.797 117.425 292.734 117.425 292.672C117.425 292.63 117.446 292.599 117.487 292.578C122.404 290.536 125.873 287.776 127.894 284.297H124.362V284.688C124.362 285.51 123.784 285.922 122.628 285.922C121.774 285.922 121.347 285.557 121.347 284.828L121.456 276.578C121.456 274.766 121.409 273.12 121.316 271.641C122.409 272.078 123.545 272.62 124.722 273.266H139.534C140.43 272.307 140.987 271.828 141.206 271.828C141.446 271.828 142.034 272.182 142.972 272.891C143.461 273.255 143.706 273.552 143.706 273.781C143.706 274.052 143.404 274.411 142.8 274.859V276.453L142.941 284.547C142.941 285.464 142.373 285.922 141.237 285.922C140.321 285.922 139.862 285.552 139.862 284.812V284.297ZM139.862 283.562V279.047H133.487V283.562H139.862ZM124.362 283.562H130.612V279.047H124.362V283.562ZM139.862 278.312V274H133.487V278.312H139.862ZM130.612 274H124.362V278.312H130.612V274ZM168.469 286.391V292.375L168.531 299.469C168.531 300.344 167.922 300.781 166.703 300.781C165.745 300.781 165.266 300.385 165.266 299.594C165.266 299.385 165.339 295.76 165.484 288.719C161.974 293.208 157.698 296.375 152.656 298.219C152.646 298.219 152.63 298.219 152.609 298.219C152.464 298.219 152.391 298.13 152.391 297.953C152.391 297.911 152.406 297.88 152.438 297.859C155.01 296.276 157.38 294.271 159.547 291.844C161.38 289.781 162.88 287.62 164.047 285.359H156.5C155.76 285.359 154.828 285.422 153.703 285.547L153.359 284.375C154.443 284.542 155.464 284.625 156.422 284.625H165.422V278.344H158.797C158.047 278.344 157.13 278.406 156.047 278.531L155.688 277.359C156.771 277.526 157.786 277.609 158.734 277.609H165.422V274.312C165.422 273.375 165.37 272.365 165.266 271.281C167.182 271.479 168.37 271.641 168.828 271.766C169.245 271.87 169.453 272.036 169.453 272.266C169.453 272.536 169.125 272.844 168.469 273.188V277.609H174.031C175.073 276.349 175.724 275.719 175.984 275.719C176.193 275.719 176.922 276.156 178.172 277.031C178.807 277.5 179.125 277.833 179.125 278.031C179.125 278.24 178.984 278.344 178.703 278.344H168.469V284.625H176.078C177.203 283.24 177.901 282.547 178.172 282.547C178.38 282.547 179.146 283.026 180.469 283.984C181.156 284.495 181.5 284.849 181.5 285.047C181.5 285.255 181.359 285.359 181.078 285.359H168.594C169.938 287.682 171.729 289.635 173.969 291.219C176.458 292.979 179.38 294.255 182.734 295.047C182.807 295.068 182.844 295.109 182.844 295.172C182.844 295.266 182.797 295.323 182.703 295.344C182.047 295.51 181.557 295.766 181.234 296.109C180.943 296.401 180.635 296.911 180.312 297.641C180.146 298.026 179.953 298.219 179.734 298.219C179.568 298.219 179.182 298.057 178.578 297.734C176.609 296.724 174.724 295.297 172.922 293.453C171.203 291.62 169.719 289.266 168.469 286.391ZM191.294 284.656C192.7 282.688 193.908 280.661 194.919 278.578C195.481 277.38 195.908 276.344 196.2 275.469C198.523 276.542 199.684 277.281 199.684 277.688C199.684 278.031 199.268 278.188 198.434 278.156C197.289 279.625 196.283 280.807 195.419 281.703C194.669 282.495 193.637 283.479 192.325 284.656C193.294 284.656 195.033 284.604 197.544 284.5C197.367 283.583 197.023 282.76 196.512 282.031C196.492 282 196.481 281.974 196.481 281.953C196.481 281.859 196.549 281.812 196.684 281.812C196.716 281.812 196.742 281.818 196.762 281.828C199.242 283.172 200.481 284.604 200.481 286.125C200.481 286.646 200.32 287.073 199.997 287.406C199.736 287.688 199.429 287.828 199.075 287.828C198.294 287.828 197.846 287.188 197.731 285.906C197.721 285.833 197.71 285.714 197.7 285.547C197.69 285.411 197.679 285.307 197.669 285.234C197.117 285.422 196.486 285.625 195.778 285.844V290.422L195.872 299.562C195.872 300.354 195.33 300.75 194.247 300.75C193.393 300.75 192.966 300.432 192.966 299.797C193.091 297.599 193.153 295.271 193.153 292.812V286.547C192.049 286.807 191.002 287.021 190.012 287.188C189.835 287.781 189.611 288.078 189.341 288.078C189.111 288.078 188.914 287.823 188.747 287.312C188.611 286.865 188.419 285.958 188.169 284.594C188.679 284.635 189.231 284.656 189.825 284.656H191.294ZM207.747 282.641C205.914 283.891 203.606 284.932 200.825 285.766C200.679 285.797 200.606 285.698 200.606 285.469C200.606 285.406 200.622 285.365 200.653 285.344C202.789 284.125 204.664 282.76 206.278 281.25C204.424 279.25 203.054 276.927 202.169 274.281H201.403C200.841 274.281 200.247 274.365 199.622 274.531L199.262 273.297C200.054 273.464 200.809 273.547 201.528 273.547H211.169C212.179 272.568 212.789 272.078 212.997 272.078C213.216 272.078 213.825 272.474 214.825 273.266C215.335 273.714 215.591 274.042 215.591 274.25C215.591 274.646 215.184 274.974 214.372 275.234C212.924 277.734 211.32 279.74 209.559 281.25C211.924 282.5 214.627 283.25 217.669 283.5C217.752 283.5 217.794 283.547 217.794 283.641C217.794 283.745 217.752 283.802 217.669 283.812C217.127 283.99 216.721 284.26 216.45 284.625C216.221 284.958 216.028 285.458 215.872 286.125C215.789 286.552 215.643 286.766 215.434 286.766C215.33 286.766 214.804 286.594 213.856 286.25C211.69 285.448 209.653 284.245 207.747 282.641ZM202.778 274.281C203.893 276.542 205.481 278.443 207.544 279.984C209.221 278.182 210.46 276.281 211.262 274.281H202.778ZM208.606 291.031V298.422H212.184C213.32 296.974 214.023 296.25 214.294 296.25C214.512 296.25 215.252 296.75 216.512 297.75C217.148 298.271 217.466 298.635 217.466 298.844C217.466 299.052 217.33 299.156 217.059 299.156H200.356C199.825 299.156 199.143 299.219 198.309 299.344L197.95 298.172C198.804 298.339 199.606 298.422 200.356 298.422H205.7V291.031H202.341C201.83 291.031 201.19 291.094 200.419 291.219L200.075 290.047C200.867 290.214 201.622 290.297 202.341 290.297H205.7V288.094C205.7 286.792 205.658 285.745 205.575 284.953C208.231 285.182 209.559 285.5 209.559 285.906C209.559 286.177 209.242 286.458 208.606 286.75V290.297H211.262C212.294 288.974 212.945 288.312 213.216 288.312C213.434 288.312 214.117 288.781 215.262 289.719C215.835 290.177 216.122 290.51 216.122 290.719C216.122 290.927 215.986 291.031 215.716 291.031H208.606ZM191.2 277.172C191.523 276.443 191.94 275.323 192.45 273.812C192.804 272.552 193.018 271.656 193.091 271.125C195.622 272.021 196.887 272.651 196.887 273.016C196.887 273.37 196.466 273.547 195.622 273.547C194.07 275.37 192.82 276.703 191.872 277.547C192.768 278.172 193.216 278.964 193.216 279.922C193.216 280.474 193.065 280.917 192.762 281.25C192.502 281.542 192.184 281.688 191.809 281.688C191.382 281.688 191.091 281.573 190.934 281.344C190.809 281.146 190.622 280.62 190.372 279.766C190.039 278.526 189.414 277.448 188.497 276.531C188.466 276.5 188.45 276.458 188.45 276.406C188.45 276.24 188.528 276.172 188.684 276.203C189.684 276.484 190.523 276.807 191.2 277.172ZM200.122 293.875C200.122 294.448 199.96 294.922 199.637 295.297C199.346 295.63 199.007 295.797 198.622 295.797C198.184 295.797 197.903 295.625 197.778 295.281C197.664 294.979 197.575 294.307 197.512 293.266C197.377 291.589 197.028 290.208 196.466 289.125C196.455 289.115 196.45 289.099 196.45 289.078C196.45 288.964 196.518 288.906 196.653 288.906C196.695 288.906 196.726 288.917 196.747 288.938C198.997 290.677 200.122 292.323 200.122 293.875ZM193.028 290.219C193.028 290.479 192.705 290.682 192.059 290.828C191.059 293.786 189.804 296.214 188.294 298.109C188.262 298.151 188.231 298.172 188.2 298.172C188.158 298.172 188.106 298.151 188.044 298.109C187.96 298.057 187.924 297.995 187.934 297.922C188.361 296.557 188.757 294.896 189.122 292.938C189.393 291.177 189.528 289.76 189.528 288.688C191.111 289.156 192.101 289.484 192.497 289.672C192.851 289.849 193.028 290.031 193.028 290.219ZM244.072 291.672C243.791 292.839 243.301 293.958 242.603 295.031C241.551 296.479 240.296 297.635 238.837 298.5C237.556 299.271 235.905 299.948 233.884 300.531C233.728 300.562 233.65 300.464 233.65 300.234C233.65 300.193 233.666 300.161 233.697 300.141C236.478 298.661 238.551 296.896 239.916 294.844C240.676 293.74 241.218 292.479 241.541 291.062H239.15V291.344C239.15 292.094 238.65 292.469 237.65 292.469C236.858 292.469 236.462 292.151 236.462 291.516L236.556 286.391C236.556 285.276 236.525 284.13 236.462 282.953C237.525 283.401 238.473 283.875 239.306 284.375H242.119V283.094C242.119 282.281 242.108 281.562 242.087 280.938H240.337C239.848 280.938 239.218 281 238.447 281.125L238.087 279.953C238.827 280.12 239.535 280.203 240.212 280.203H245.166C245.989 279.047 246.509 278.469 246.728 278.469C246.957 278.469 247.535 278.865 248.462 279.656C248.91 280.042 249.134 280.365 249.134 280.625C249.134 280.833 248.994 280.938 248.712 280.938H244.775C244.775 282.156 244.754 283.302 244.712 284.375H247.712C248.535 283.448 249.061 282.984 249.291 282.984C249.52 282.984 250.041 283.339 250.853 284.047C251.28 284.443 251.494 284.755 251.494 284.984C251.494 285.151 251.259 285.406 250.791 285.75V286.641L250.916 291.094C250.916 291.906 250.374 292.312 249.291 292.312C248.822 292.312 248.504 292.234 248.337 292.078C248.181 291.932 248.103 291.688 248.103 291.344V291.062H244.556C245.202 292.688 246.212 293.99 247.587 294.969C248.952 295.938 250.822 296.589 253.197 296.922C253.28 296.932 253.322 296.984 253.322 297.078C253.322 297.172 253.28 297.234 253.197 297.266C252.436 297.609 251.843 298.495 251.416 299.922C251.322 300.266 251.171 300.438 250.962 300.438C250.702 300.438 250.296 300.266 249.744 299.922C248.369 299.047 247.207 297.969 246.259 296.688C245.239 295.312 244.509 293.641 244.072 291.672ZM244.337 290.328H248.103V285.109H244.681C244.598 287.422 244.483 289.161 244.337 290.328ZM241.681 290.328C241.952 288.859 242.087 287.12 242.087 285.109H239.15V290.328H241.681ZM227.025 288.141V288.422C227.025 289.109 226.535 289.453 225.556 289.453C224.744 289.453 224.337 289.167 224.337 288.594L224.462 277.812C224.462 275.271 224.41 273.255 224.306 271.766C225.41 272.234 226.4 272.734 227.275 273.266H232.369C233.254 272.047 233.822 271.438 234.072 271.438C234.311 271.438 234.895 271.854 235.822 272.688C236.311 273.146 236.556 273.479 236.556 273.688C236.556 273.896 236.4 274 236.087 274H231.603V277.938H232.4C233.108 277.021 233.598 276.562 233.869 276.562C234.067 276.562 234.525 276.891 235.244 277.547C235.608 277.87 235.791 278.141 235.791 278.359C235.791 278.568 235.655 278.672 235.384 278.672H231.603V282.547H232.369C233.025 281.63 233.494 281.172 233.775 281.172C233.983 281.172 234.431 281.5 235.119 282.156C235.462 282.5 235.634 282.771 235.634 282.969C235.634 283.177 235.494 283.281 235.212 283.281H231.603V287.406H232.728C233.384 286.594 233.832 286.188 234.072 286.188C234.301 286.188 234.801 286.505 235.572 287.141C235.957 287.495 236.15 287.776 236.15 287.984C236.15 288.151 235.926 288.396 235.478 288.719C235.311 292.844 234.791 295.974 233.916 298.109C233.582 298.911 233.046 299.516 232.306 299.922C231.775 300.224 231.186 300.375 230.541 300.375C230.228 300.375 230.03 300.328 229.947 300.234C229.874 300.151 229.806 299.943 229.744 299.609C229.608 299.036 229.358 298.625 228.994 298.375C228.66 298.167 227.973 297.896 226.931 297.562C226.869 297.531 226.837 297.469 226.837 297.375C226.837 297.198 226.89 297.12 226.994 297.141C228.65 297.339 229.759 297.438 230.322 297.438C230.936 297.438 231.343 297.203 231.541 296.734C231.947 295.786 232.275 294.396 232.525 292.562C232.358 292.948 232.124 293.141 231.822 293.141C231.499 293.141 231.254 292.885 231.087 292.375C230.712 291.458 230.119 290.635 229.306 289.906C229.275 289.875 229.259 289.839 229.259 289.797C229.259 289.693 229.317 289.641 229.431 289.641C229.442 289.641 229.457 289.641 229.478 289.641C231.447 290.026 232.494 290.719 232.619 291.719C232.723 290.646 232.791 289.453 232.822 288.141H227.025ZM227.025 287.406H229.103V283.281H227.025V287.406ZM227.025 282.547H229.103V278.672H227.025V282.547ZM227.025 277.938H229.103V274H227.025V277.938ZM244.134 273.812C243.061 275.583 241.723 277.109 240.119 278.391C238.785 279.453 237.103 280.479 235.072 281.469C235.061 281.479 235.046 281.484 235.025 281.484C234.848 281.484 234.759 281.406 234.759 281.25C234.759 281.219 234.77 281.198 234.791 281.188C237.134 279.25 239.067 276.99 240.587 274.406C241.317 273.167 241.785 272.094 241.994 271.188C243.952 271.74 245.077 272.078 245.369 272.203C245.619 272.307 245.744 272.458 245.744 272.656C245.744 272.927 245.379 273.161 244.65 273.359C245.817 274.714 247.207 275.792 248.822 276.594C250.197 277.281 251.796 277.771 253.619 278.062C253.702 278.083 253.744 278.135 253.744 278.219C253.744 278.302 253.702 278.359 253.619 278.391C252.806 278.745 252.296 279.458 252.087 280.531C252.025 280.958 251.853 281.172 251.572 281.172C251.426 281.172 251.129 281.031 250.681 280.75C249.337 279.896 248.332 279.141 247.666 278.484C246.426 277.37 245.249 275.812 244.134 273.812ZM225.072 291.031C225.28 291.906 225.384 292.833 225.384 293.812C225.384 294.948 225.223 295.844 224.9 296.5C224.587 297.135 224.15 297.453 223.587 297.453C223.265 297.453 223.009 297.312 222.822 297.031C222.655 296.792 222.572 296.495 222.572 296.141C222.572 295.62 222.785 295.161 223.212 294.766C224.067 293.995 224.556 292.745 224.681 291.016C224.681 290.932 224.744 290.891 224.869 290.891C224.983 290.891 225.051 290.938 225.072 291.031ZM227.056 295.922C226.629 295.922 226.416 295.625 226.416 295.031L226.431 293.906C226.431 293.094 226.275 292.141 225.962 291.047C225.942 290.964 225.978 290.896 226.072 290.844C226.103 290.833 226.134 290.828 226.166 290.828C226.218 290.828 226.254 290.839 226.275 290.859C227.556 292.026 228.197 293.214 228.197 294.422C228.197 294.901 228.082 295.281 227.853 295.562C227.645 295.802 227.379 295.922 227.056 295.922ZM230.541 293.328C230.541 293.766 230.426 294.125 230.197 294.406C229.999 294.646 229.765 294.766 229.494 294.766C229.202 294.766 228.978 294.401 228.822 293.672C228.593 292.495 228.223 291.448 227.712 290.531C227.702 290.51 227.697 290.49 227.697 290.469C227.697 290.344 227.749 290.281 227.853 290.281C227.884 290.281 227.91 290.292 227.931 290.312C229.671 291.406 230.541 292.411 230.541 293.328Z" fill="white"/>
<path d="M131.666 179.774C144.693 182.434 151.206 189.034 151.206 199.573C151.206 207.105 148.718 212.962 143.742 217.143C139.423 220.771 133.808 222.585 126.898 222.585C121.335 222.585 116.134 221.203 111.297 218.439C106.701 215.571 104.403 212.599 104.403 209.524C104.403 208.108 105.164 206.967 106.684 206.103C108.032 205.343 109.811 204.963 112.022 204.963C113.888 204.963 115.443 206.052 116.687 208.228C116.86 208.47 117.568 210.077 118.812 213.049C120.402 217.23 123.097 219.32 126.898 219.32C130.802 219.32 133.774 217.281 135.812 213.204C137.575 209.714 138.456 205.067 138.456 199.262C138.456 194.424 137.402 190.399 135.294 187.186C133.014 183.696 129.8 181.951 125.654 181.951C125.343 181.951 124.98 181.968 124.565 182.003C121.836 182.175 120.246 182.262 119.797 182.262C119.002 182.262 118.605 181.916 118.605 181.225C118.605 180.949 118.657 180.586 118.76 180.137C119.002 178.513 119.676 177.701 120.782 177.701L124.824 178.012C128.314 178.012 131.148 176.56 133.325 173.658C135.501 170.686 136.59 166.609 136.59 161.426C136.59 156.865 135.726 153.202 133.998 150.438C132.409 147.847 130.301 146.551 127.675 146.551C123.943 146.551 121.283 148.14 119.693 151.319C119.14 152.701 118.864 154.481 118.864 156.658C118.864 158.489 118 159.923 116.272 160.96C114.856 161.789 113.059 162.204 110.882 162.204C107.634 162.204 106.01 161.063 106.01 158.783C106.01 155.051 108.204 151.509 112.593 148.158C116.877 144.91 121.905 143.286 127.675 143.286C134.309 143.286 139.561 145.1 143.431 148.728C146.921 151.976 148.666 156.243 148.666 161.53C148.666 170.686 142.999 176.595 131.666 179.256V179.774ZM194.587 182.987C191.305 188.239 186.623 190.865 180.542 190.865C173.907 190.865 168.655 188.481 164.785 183.713C161.434 179.601 159.758 174.366 159.758 168.008C159.758 160.372 162.142 154.222 166.91 149.557C171.195 145.376 176.585 143.286 183.081 143.286C190.959 143.286 197.11 146.447 201.533 152.77C205.299 158.161 207.182 165.123 207.182 173.658C207.182 184.508 204.919 193.578 200.392 200.869C197.075 206.155 192.272 210.906 185.984 215.122C180.524 218.75 174.788 221.238 168.776 222.585C167.809 222.585 166.962 221.912 166.237 220.564C165.822 219.977 165.615 219.424 165.615 218.905C165.615 218.18 166.012 217.782 166.807 217.713C172.819 217.368 177.691 216.089 181.423 213.878C185.845 211.217 189.163 207.175 191.374 201.75C193.309 196.947 194.553 190.693 195.106 182.987H194.587ZM183.081 146.551C179.349 146.551 176.516 148.831 174.581 153.392C172.992 157.055 172.197 161.72 172.197 167.387C172.197 173.433 173.216 178.236 175.255 181.795C177.19 185.147 179.799 186.823 183.081 186.823C187.539 186.823 191.184 183.713 194.017 177.493C194.639 176.077 194.95 173.796 194.95 170.652C194.95 162.808 193.827 156.744 191.581 152.459C189.508 148.52 186.675 146.551 183.081 146.551ZM239.179 219.797C236.757 222.258 233.17 224.406 228.418 226.242C228.405 226.242 228.385 226.242 228.359 226.242C228.125 226.242 228.007 226.105 228.007 225.832C228.007 225.793 228.02 225.767 228.047 225.754C231.823 223.632 235.026 220.78 237.656 217.199C236.289 214.595 235.351 210.689 234.843 205.48H219.843L219.804 207.648C219.765 211.711 219.381 215.018 218.652 217.57C217.701 220.839 215.807 223.775 212.968 226.379C212.942 226.392 212.916 226.398 212.89 226.398C212.669 226.398 212.558 226.275 212.558 226.027C212.558 226.001 212.565 225.982 212.578 225.969C214.231 223 215.267 219.855 215.683 216.535C215.97 214.1 216.113 210.669 216.113 206.242C216.113 204.836 216.041 203.566 215.898 202.434C217.356 203.033 218.821 203.742 220.293 204.562H234.726C234.726 204.328 234.7 203.97 234.648 203.488C234.531 202.303 234.375 201.34 234.179 200.598C236.432 200.832 237.806 201.021 238.3 201.164C238.743 201.281 238.964 201.483 238.964 201.77C238.964 202.043 238.606 202.336 237.89 202.648C237.929 203.326 237.968 203.964 238.007 204.562H243.886C244.876 203.091 245.527 202.355 245.839 202.355C246.126 202.355 246.875 202.863 248.086 203.879C248.698 204.426 249.004 204.823 249.004 205.07C249.004 205.344 248.808 205.48 248.418 205.48H238.086C238.359 208.944 238.906 211.743 239.726 213.879C239.974 213.475 240.28 212.876 240.644 212.082C241.36 210.507 241.881 208.892 242.207 207.238C245.11 208.423 246.562 209.302 246.562 209.875C246.562 210.227 246.074 210.454 245.097 210.559C243.808 213.332 242.578 215.52 241.406 217.121C242.369 218.618 243.515 219.901 244.843 220.969C245.612 221.555 246.08 221.848 246.25 221.848C246.718 221.848 247.467 220.546 248.496 217.941C248.522 217.876 248.561 217.844 248.613 217.844C248.665 217.844 248.717 217.857 248.769 217.883C248.886 217.935 248.938 218.007 248.925 218.098C248.652 220.22 248.515 221.548 248.515 222.082C248.515 222.577 248.665 222.928 248.964 223.137C249.472 223.514 249.726 224.016 249.726 224.641C249.726 225.214 249.524 225.656 249.121 225.969C248.782 226.229 248.372 226.359 247.89 226.359C246.302 226.359 244.446 225.389 242.324 223.449C241.048 222.212 240 220.995 239.179 219.797ZM233.808 195.48V199.289H243.047C244.453 197.635 245.319 196.809 245.644 196.809C245.931 196.809 246.842 197.395 248.379 198.566C249.147 199.152 249.531 199.569 249.531 199.816C249.531 200.077 249.355 200.207 249.004 200.207H217.343C216.562 200.207 215.592 200.285 214.433 200.441L213.984 198.977C215.169 199.185 216.263 199.289 217.265 199.289H221.464V195.715C221.464 193.801 221.386 192.401 221.23 191.516C224.785 191.841 226.562 192.258 226.562 192.766C226.562 193.234 226.119 193.605 225.234 193.879V199.289H230V193.918C230 192.355 229.922 190.956 229.765 189.719C233.281 190.044 235.039 190.461 235.039 190.969C235.039 191.372 234.629 191.73 233.808 192.043V194.562H239.043C240.41 193.013 241.25 192.238 241.562 192.238C241.823 192.238 242.669 192.785 244.101 193.879C244.817 194.452 245.175 194.849 245.175 195.07C245.175 195.344 245 195.48 244.648 195.48H233.808ZM229.355 210.324V211.848L229.511 221.32C229.511 222.036 229.257 222.688 228.75 223.273C228.02 224.107 227.129 224.523 226.074 224.523C225.644 224.523 225.384 224.471 225.293 224.367C225.201 224.276 225.13 224.022 225.078 223.605C224.974 222.98 224.707 222.525 224.277 222.238C223.912 221.991 223.177 221.691 222.07 221.34C221.992 221.301 221.953 221.223 221.953 221.105C221.953 220.884 222.018 220.786 222.148 220.812C223.593 220.969 224.661 221.047 225.351 221.047C225.781 221.047 225.996 220.806 225.996 220.324V210.324H223.632C222.877 210.324 221.92 210.402 220.761 210.559L220.312 209.094C221.458 209.302 222.526 209.406 223.515 209.406H229.765C230.716 208.078 231.367 207.414 231.718 207.414C231.979 207.414 232.714 207.883 233.925 208.82C234.537 209.341 234.843 209.712 234.843 209.934C234.843 210.194 234.668 210.324 234.316 210.324H229.355ZM244.043 202.785C244.043 203.228 243.886 203.579 243.574 203.84C243.3 204.048 242.962 204.152 242.558 204.152C242.037 204.152 241.627 203.833 241.328 203.195C240.859 202.167 240.208 201.418 239.375 200.949C239.31 200.923 239.277 200.871 239.277 200.793C239.277 200.689 239.336 200.637 239.453 200.637C242.513 200.637 244.043 201.353 244.043 202.785ZM235.488 217.414C235.488 217.987 235.293 218.462 234.902 218.84C234.563 219.165 234.173 219.328 233.73 219.328C233.222 219.328 232.864 219.185 232.656 218.898C232.461 218.638 232.298 218.169 232.168 217.492C231.803 215.409 231.256 213.931 230.527 213.059C230.501 213.02 230.488 212.98 230.488 212.941C230.488 212.824 230.553 212.766 230.683 212.766C230.709 212.766 230.735 212.772 230.761 212.785C232.363 213.397 233.58 214.146 234.414 215.031C235.13 215.799 235.488 216.594 235.488 217.414ZM225.683 214.191C225.683 214.595 225.26 214.849 224.414 214.953C223.268 218.13 221.432 220.656 218.906 222.531C218.88 222.544 218.847 222.551 218.808 222.551C218.587 222.551 218.476 222.46 218.476 222.277C218.476 222.251 218.483 222.225 218.496 222.199C219.498 220.689 220.338 218.677 221.015 216.164C221.354 214.888 221.582 213.658 221.699 212.473C223.548 213.072 224.687 213.469 225.117 213.664C225.494 213.833 225.683 214.009 225.683 214.191Z" fill="black"/>
<path d="M136.734 96.3125C136.859 97.9375 137.042 99.7917 137.281 101.875C137.281 101.906 137.281 101.932 137.281 101.953C137.281 102.141 137.172 102.266 136.953 102.328C136.88 102.339 136.818 102.344 136.766 102.344C136.641 102.344 136.531 102.25 136.438 102.062C135.49 100.229 134.531 98.8906 133.562 98.0469C132.375 97.0469 131.01 96.5469 129.469 96.5469C126.938 96.5469 124.891 97.6823 123.328 99.9531C121.943 101.974 121.25 104.505 121.25 107.547C121.25 110.714 122.151 113.302 123.953 115.312C125.526 117.052 127.417 117.922 129.625 117.922C133.01 117.922 135.635 116.438 137.5 113.469C137.552 113.365 137.63 113.312 137.734 113.312C137.828 113.312 137.964 113.354 138.141 113.438C138.328 113.521 138.422 113.635 138.422 113.781C138.422 113.844 138.401 113.917 138.359 114C136.224 117.875 133.089 119.812 128.953 119.812C125.172 119.812 122.13 118.531 119.828 115.969C117.828 113.74 116.828 110.958 116.828 107.625C116.828 103.833 118.13 100.781 120.734 98.4688C122.995 96.4583 125.776 95.4531 129.078 95.4531C130.391 95.4531 131.745 95.625 133.141 95.9688C134.276 96.25 135.146 96.3906 135.75 96.3906C136.073 96.3906 136.401 96.3646 136.734 96.3125ZM152.922 110.5C151.484 110.417 150.266 110.375 149.266 110.375C148.443 110.375 147.12 110.417 145.297 110.5L144.078 113.859C143.724 114.849 143.547 115.672 143.547 116.328C143.547 116.724 143.615 117.094 143.75 117.438C143.969 117.958 144.797 118.302 146.234 118.469C146.422 118.469 146.516 118.604 146.516 118.875C146.516 119.156 146.396 119.297 146.156 119.297C145.375 119.255 144.047 119.234 142.172 119.234C140.63 119.234 139.51 119.255 138.812 119.297C138.573 119.297 138.453 119.156 138.453 118.875C138.453 118.604 138.573 118.469 138.812 118.469C139.458 118.365 140.083 118.031 140.688 117.469C141.302 116.865 141.953 115.62 142.641 113.734L146.484 103.359C147.443 100.776 148.214 98.5365 148.797 96.6406L151.312 95.4844C151.542 95.4844 151.682 95.5833 151.734 95.7812C151.891 96.2604 152.776 98.849 154.391 103.547L158 113.984C158.646 115.891 159.182 117.104 159.609 117.625C159.88 117.969 160.161 118.188 160.453 118.281C160.672 118.354 161.078 118.417 161.672 118.469C161.953 118.469 162.094 118.604 162.094 118.875C162.094 119.156 161.953 119.297 161.672 119.297C159.776 119.255 158.266 119.234 157.141 119.234C156.036 119.234 154.531 119.255 152.625 119.297C152.458 119.297 152.375 119.156 152.375 118.875C152.375 118.604 152.458 118.469 152.625 118.469C153.958 118.396 154.698 118.115 154.844 117.625C154.906 117.438 154.938 117.234 154.938 117.016C154.938 116.474 154.714 115.557 154.266 114.266L152.922 110.5ZM149.203 99.4219L147.766 103.547L145.719 109.219C146.417 109.26 147.599 109.281 149.266 109.281C150.786 109.281 151.854 109.26 152.469 109.219L150.547 103.609C150.203 102.63 149.755 101.234 149.203 99.4219ZM177.766 105.625C177.411 106.542 176.922 107.427 176.297 108.281C175.62 109.292 174.484 110.328 172.891 111.391C171.516 112.307 170.203 112.979 168.953 113.406C168.943 113.406 168.932 113.406 168.922 113.406C168.786 113.406 168.719 113.297 168.719 113.078C168.719 113.016 168.734 112.974 168.766 112.953C171.286 111.203 173.052 109.318 174.062 107.297C174.979 105.464 175.542 103.052 175.75 100.062H168.359V121.125C168.359 121.885 167.719 122.266 166.438 122.266C165.542 122.266 165.094 121.911 165.094 121.203C165.219 117.286 165.281 112.042 165.281 105.469C165.281 102.323 165.219 99.6771 165.094 97.5312C166.458 98.125 167.641 98.724 168.641 99.3281H175.812C175.854 98.0469 175.875 97.0312 175.875 96.2812C175.875 95.2292 175.812 94.2812 175.688 93.4375C177.552 93.5729 178.781 93.7188 179.375 93.875C179.885 94 180.141 94.1875 180.141 94.4375C180.141 94.6979 179.776 94.9948 179.047 95.3281C179.016 96.849 178.953 98.1823 178.859 99.3281H186.812C187.719 98.2865 188.286 97.7656 188.516 97.7656C188.745 97.7656 189.354 98.1719 190.344 98.9844C190.833 99.4115 191.078 99.7292 191.078 99.9375C191.078 100.188 190.802 100.516 190.25 100.922V103.844L190.344 118.688C190.344 119.531 190.214 120.172 189.953 120.609C189.724 120.984 189.354 121.292 188.844 121.531C188.156 121.854 187.464 122.016 186.766 122.016C186.484 122.016 186.292 121.943 186.188 121.797C186.104 121.672 186.036 121.448 185.984 121.125C185.901 120.49 185.599 120.021 185.078 119.719C184.568 119.417 183.615 119.109 182.219 118.797C182.156 118.776 182.125 118.724 182.125 118.641C182.125 118.484 182.177 118.406 182.281 118.406C183.479 118.49 184.917 118.531 186.594 118.531C186.958 118.531 187.141 118.339 187.141 117.953V100.062H178.828C178.62 102.177 178.339 103.828 177.984 105.016C180.63 105.859 182.667 106.875 184.094 108.062C185.354 109.104 185.984 110.161 185.984 111.234C185.984 111.849 185.828 112.333 185.516 112.688C185.255 113 184.922 113.156 184.516 113.156C184.078 113.156 183.74 113.01 183.5 112.719C183.281 112.479 182.885 111.844 182.312 110.812C181.083 108.604 179.568 106.875 177.766 105.625ZM210.922 97.8594H219.344C220.281 96.7865 220.865 96.25 221.094 96.25C221.479 96.25 222.25 96.7969 223.406 97.8906C224.042 98.4844 224.359 98.901 224.359 99.1406C224.359 99.6302 223.88 99.8906 222.922 99.9219C222.286 99.9531 221.859 100.047 221.641 100.203C220.922 100.766 220.208 101.229 219.5 101.594C219.479 101.604 219.453 101.609 219.422 101.609C219.318 101.609 219.266 101.547 219.266 101.422C219.266 101.401 219.266 101.385 219.266 101.375C219.505 100.51 219.698 99.5833 219.844 98.5938H199.531C199.531 98.6667 199.531 98.776 199.531 98.9219C199.531 100.172 199.271 101.151 198.75 101.859C198.292 102.495 197.698 102.812 196.969 102.812C196.458 102.812 196.052 102.635 195.75 102.281C195.479 101.969 195.344 101.583 195.344 101.125C195.344 100.438 195.682 99.9271 196.359 99.5938C197.245 99.1354 197.839 98.6562 198.141 98.1562C198.411 97.6979 198.599 96.9948 198.703 96.0469C198.724 95.9531 198.792 95.9062 198.906 95.9062C198.99 95.9062 199.036 95.9427 199.047 96.0156C199.214 96.5469 199.354 97.1615 199.469 97.8594H207.812V95.1719C207.812 94.7448 207.781 94.1458 207.719 93.375C210.51 93.6354 211.906 93.9792 211.906 94.4062C211.906 94.7083 211.578 94.9531 210.922 95.1406V97.8594ZM208.109 118.297V104H201.172C200.651 104 200.01 104.062 199.25 104.188L198.891 103.016C199.693 103.182 200.453 103.266 201.172 103.266H215.75C216.823 101.901 217.495 101.219 217.766 101.219C217.974 101.219 218.703 101.698 219.953 102.656C220.568 103.156 220.875 103.5 220.875 103.688C220.875 103.896 220.734 104 220.453 104H211.078V110.75H215.266C216.339 109.365 217.01 108.672 217.281 108.672C217.51 108.672 218.198 109.151 219.344 110.109C219.938 110.62 220.234 110.974 220.234 111.172C220.234 111.38 220.094 111.484 219.812 111.484H211.078V119C212.12 119.156 213.401 119.234 214.922 119.234C217.703 119.234 220.547 119.01 223.453 118.562C223.526 118.552 223.562 118.583 223.562 118.656C223.562 118.75 223.526 118.823 223.453 118.875C222.755 119.365 222.406 120.125 222.406 121.156C222.406 121.583 222.172 121.828 221.703 121.891C220.443 122.036 218.635 122.109 216.281 122.109C211.594 122.109 208.089 121.052 205.766 118.938C204.505 117.771 203.443 116.224 202.578 114.297C201.828 116.078 200.818 117.615 199.547 118.906C198.453 120.021 197.031 121.094 195.281 122.125C195.271 122.135 195.255 122.141 195.234 122.141C195.068 122.141 194.984 122.042 194.984 121.844C194.984 121.812 194.995 121.786 195.016 121.766C198.078 118.776 199.99 115.01 200.75 110.469C200.927 109.417 201.031 108.276 201.062 107.047C202.865 107.401 203.99 107.656 204.438 107.812C204.854 107.969 205.062 108.156 205.062 108.375C205.062 108.625 204.724 108.896 204.047 109.188C203.703 110.875 203.328 112.302 202.922 113.469C204.276 115.896 206.005 117.505 208.109 118.297Z" fill="#B51230"/>
<defs>
<filter id="filter0_d_1_75" x="11.4766" y="27.0547" width="318.941" height="309.764" filterUnits="userSpaceOnUse" color-interpolation-filters="sRGB">
<feFlood flood-opacity="0" result="BackgroundImageFix"/>
<feColorMatrix in="SourceAlpha" type="matrix" values="0 0 0 0 0 0 0 0 0 0 0 0 0 0 0 0 0 0 127 0" result="hardAlpha"/>
<feOffset dy="7"/>
<feGaussianBlur stdDeviation="5"/>
<feColorMatrix type="matrix" values="0 0 0 0 0.4 0 0 0 0 0.219608 0 0 0 0 0.0313726 0 0 0 0.3 0"/>
<feBlend mode="normal" in2="BackgroundImageFix" result="effect1_dropShadow_1_75"/>
<feBlend mode="normal" in="SourceGraphic" in2="effect1_dropShadow_1_75" result="shape"/>
</filter>
<filter id="filter1_d_1_75" x="146.578" y="8.4668" width="48.8423" height="52.0315" filterUnits="userSpaceOnUse" color-interpolation-filters="sRGB">
<feFlood flood-opacity="0" result="BackgroundImageFix"/>
<feColorMatrix in="SourceAlpha" type="matrix" values="0 0 0 0 0 0 0 0 0 0 0 0 0 0 0 0 0 0 127 0" result="hardAlpha"/>
<feOffset dy="7"/>
<feGaussianBlur stdDeviation="5"/>
<feColorMatrix type="matrix" values="0 0 0 0 0.4 0 0 0 0 0.219608 0 0 0 0 0.0313726 0 0 0 0.3 0"/>
<feBlend mode="normal" in2="BackgroundImageFix" result="effect1_dropShadow_1_75"/>
<feBlend mode="normal" in="SourceGraphic" in2="effect1_dropShadow_1_75" result="shape"/>
</filter>
<linearGradient id="paint0_linear_1_75" x1="457.084" y1="188.12" x2="84.4047" y2="-124.233" gradientUnits="userSpaceOnUse">
<stop stop-color="#925009"/>
<stop offset="0.02" stop-color="#995A10"/>
<stop offset="0.18" stop-color="#D2A84D"/>
<stop offset="0.25" stop-color="#E9C865"/>
<stop offset="0.29" stop-color="#D3AA4E"/>
<stop offset="0.35" stop-color="#B78330"/>
<stop offset="0.41" stop-color="#A2671A"/>
<stop offset="0.46" stop-color="#96560D"/>
<stop offset="0.5" stop-color="#925009"/>
<stop offset="0.53" stop-color="#95540C"/>
<stop offset="0.58" stop-color="#9F6116"/>
<stop offset="0.62" stop-color="#AF7827"/>
<stop offset="0.67" stop-color="#C5973F"/>
<stop offset="0.71" stop-color="#E2BF5E"/>
<stop offset="0.72" stop-color="#E9C865"/>
<stop offset="0.84" stop-color="#E9C865"/>
<stop offset="1" stop-color="#925009"/>
</linearGradient>
<linearGradient id="paint1_linear_1_75" x1="225.788" y1="262.307" x2="115.907" y2="72.2125" gradientUnits="userSpaceOnUse">
<stop stop-color="#B27E2F"/>
<stop offset="0.03" stop-color="#B8893B"/>
<stop offset="0.13" stop-color="#C9A95D"/>
<stop offset="0.22" stop-color="#D6C278"/>
<stop offset="0.32" stop-color="#E0D38B"/>
<stop offset="0.42" stop-color="#E6DE97"/>
<stop offset="0.53" stop-color="#E8E29B"/>
<stop offset="0.6" stop-color="#E4DA93"/>
<stop offset="0.71" stop-color="#D9C77E"/>
<stop offset="0.85" stop-color="#C8A75C"/>
<stop offset="1" stop-color="#B27E2F"/>
</linearGradient>
<linearGradient id="paint2_linear_1_75" x1="56.985" y1="167.198" x2="284.885" y2="167.198" gradientUnits="userSpaceOnUse">
<stop stop-color="#925009"/>
<stop offset="0.02" stop-color="#995A10"/>
<stop offset="0.18" stop-color="#D2A84D"/>
<stop offset="0.25" stop-color="#E9C865"/>
<stop offset="0.29" stop-color="#D3AA4E"/>
<stop offset="0.35" stop-color="#B78330"/>
<stop offset="0.41" stop-color="#A2671A"/>
<stop offset="0.46" stop-color="#96560D"/>
<stop offset="0.5" stop-color="#925009"/>
<stop offset="0.53" stop-color="#95540C"/>
<stop offset="0.58" stop-color="#9F6116"/>
<stop offset="0.62" stop-color="#AF7827"/>
<stop offset="0.67" stop-color="#C5973F"/>
<stop offset="0.71" stop-color="#E2BF5E"/>
<stop offset="0.72" stop-color="#E9C865"/>
<stop offset="0.84" stop-color="#E9C865"/>
<stop offset="1" stop-color="#925009"/>
</linearGradient>
<linearGradient id="paint3_linear_1_75" x1="251.892" y1="-196.588" x2="295.651" y2="-221.822" gradientUnits="userSpaceOnUse">
<stop stop-color="#925009"/>
<stop offset="0.02" stop-color="#995A10"/>
<stop offset="0.18" stop-color="#D2A84D"/>
<stop offset="0.25" stop-color="#E9C865"/>
<stop offset="0.29" stop-color="#D3AA4E"/>
<stop offset="0.35" stop-color="#B78330"/>
<stop offset="0.41" stop-color="#A2671A"/>
<stop offset="0.46" stop-color="#96560D"/>
<stop offset="0.5" stop-color="#925009"/>
<stop offset="0.53" stop-color="#95540C"/>
<stop offset="0.58" stop-color="#9F6116"/>
<stop offset="0.62" stop-color="#AF7827"/>
<stop offset="0.67" stop-color="#C5973F"/>
<stop offset="0.71" stop-color="#E2BF5E"/>
<stop offset="0.72" stop-color="#E9C865"/>
<stop offset="0.84" stop-color="#E9C865"/>
<stop offset="1" stop-color="#925009"/>
</linearGradient>
<linearGradient id="paint4_linear_1_75" x1="121.422" y1="87.8548" x2="220.459" y2="87.8548" gradientUnits="userSpaceOnUse">
<stop offset="0.03" stop-color="#9E5F14" stop-opacity="0"/>
<stop offset="0.12" stop-color="#AA702A" stop-opacity="0.42"/>
<stop offset="0.21" stop-color="#B78241" stop-opacity="0.83"/>
<stop offset="0.25" stop-color="#BC8A4A"/>
<stop offset="0.35" stop-color="#AB7330"/>
<stop offset="0.53" stop-color="#925009"/>
<stop offset="0.6" stop-color="#95540D"/>
<stop offset="0.69" stop-color="#9D601A"/>
<stop offset="0.77" stop-color="#AC7431"/>
<stop offset="0.8" stop-color="#B37D3B"/>
<stop offset="0.83" stop-color="#AF7733" stop-opacity="0.79"/>
<stop offset="0.86" stop-color="#AA6F28" stop-opacity="0.51"/>
<stop offset="0.9" stop-color="#A66920" stop-opacity="0.29"/>
<stop offset="0.93" stop-color="#A3651A" stop-opacity="0.13"/>
<stop offset="0.96" stop-color="#A16217" stop-opacity="0.03"/>
<stop offset="0.98" stop-color="#A16216" stop-opacity="0"/>
</linearGradient>
<linearGradient id="paint5_linear_1_75" x1="0.00446692" y1="246.556" x2="220.473" y2="246.556" gradientUnits="userSpaceOnUse">
<stop offset="0.03" stop-color="#9E5F14" stop-opacity="0"/>
<stop offset="0.12" stop-color="#AA702A" stop-opacity="0.42"/>
<stop offset="0.21" stop-color="#B78241" stop-opacity="0.83"/>
<stop offset="0.25" stop-color="#BC8A4A"/>
<stop offset="0.35" stop-color="#AB7330"/>
<stop offset="0.53" stop-color="#925009"/>
<stop offset="0.6" stop-color="#95540D"/>
<stop offset="0.69" stop-color="#9D601A"/>
<stop offset="0.77" stop-color="#AC7431"/>
<stop offset="0.8" stop-color="#B37D3B"/>
<stop offset="0.83" stop-color="#AF7733" stop-opacity="0.79"/>
<stop offset="0.86" stop-color="#AA6F28" stop-opacity="0.51"/>
<stop offset="0.9" stop-color="#A66920" stop-opacity="0.29"/>
<stop offset="0.93" stop-color="#A3651A" stop-opacity="0.13"/>
<stop offset="0.96" stop-color="#A16217" stop-opacity="0.03"/>
<stop offset="0.98" stop-color="#A16216" stop-opacity="0"/>
</linearGradient>
<linearGradient id="paint6_linear_1_75" x1="12.0391" y1="333.099" x2="81.2493" y2="333.099" gradientUnits="userSpaceOnUse">
<stop stop-color="#925009"/>
<stop offset="0.02" stop-color="#995A10"/>
<stop offset="0.18" stop-color="#D2A84D"/>
<stop offset="0.25" stop-color="#E9C865"/>
<stop offset="0.29" stop-color="#D3AA4E"/>
<stop offset="0.35" stop-color="#B78330"/>
<stop offset="0.41" stop-color="#A2671A"/>
<stop offset="0.46" stop-color="#96560D"/>
<stop offset="0.5" stop-color="#925009"/>
<stop offset="0.53" stop-color="#95540C"/>
<stop offset="0.58" stop-color="#9F6116"/>
<stop offset="0.62" stop-color="#AF7827"/>
<stop offset="0.67" stop-color="#C5973F"/>
<stop offset="0.71" stop-color="#E2BF5E"/>
<stop offset="0.72" stop-color="#E9C865"/>
<stop offset="0.84" stop-color="#E9C865"/>
<stop offset="1" stop-color="#925009"/>
</linearGradient>
<linearGradient id="paint7_linear_1_75" x1="12.0391" y1="259.353" x2="81.2493" y2="259.353" gradientUnits="userSpaceOnUse">
<stop stop-color="#925009"/>
<stop offset="0.02" stop-color="#995A10"/>
<stop offset="0.18" stop-color="#D2A84D"/>
<stop offset="0.25" stop-color="#E9C865"/>
<stop offset="0.29" stop-color="#D3AA4E"/>
<stop offset="0.35" stop-color="#B78330"/>
<stop offset="0.41" stop-color="#A2671A"/>
<stop offset="0.46" stop-color="#96560D"/>
<stop offset="0.5" stop-color="#925009"/>
<stop offset="0.53" stop-color="#95540C"/>
<stop offset="0.58" stop-color="#9F6116"/>
<stop offset="0.62" stop-color="#AF7827"/>
<stop offset="0.67" stop-color="#C5973F"/>
<stop offset="0.71" stop-color="#E2BF5E"/>
<stop offset="0.72" stop-color="#E9C865"/>
<stop offset="0.84" stop-color="#E9C865"/>
<stop offset="1" stop-color="#925009"/>
</linearGradient>
<linearGradient id="paint8_linear_1_75" x1="260.625" y1="333.099" x2="329.849" y2="333.099" gradientUnits="userSpaceOnUse">
<stop stop-color="#925009"/>
<stop offset="0.02" stop-color="#995A10"/>
<stop offset="0.18" stop-color="#D2A84D"/>
<stop offset="0.25" stop-color="#E9C865"/>
<stop offset="0.29" stop-color="#D3AA4E"/>
<stop offset="0.35" stop-color="#B78330"/>
<stop offset="0.41" stop-color="#A2671A"/>
<stop offset="0.46" stop-color="#96560D"/>
<stop offset="0.5" stop-color="#925009"/>
<stop offset="0.53" stop-color="#95540C"/>
<stop offset="0.58" stop-color="#9F6116"/>
<stop offset="0.62" stop-color="#AF7827"/>
<stop offset="0.67" stop-color="#C5973F"/>
<stop offset="0.71" stop-color="#E2BF5E"/>
<stop offset="0.72" stop-color="#E9C865"/>
<stop offset="0.84" stop-color="#E9C865"/>
<stop offset="1" stop-color="#925009"/>
</linearGradient>
<linearGradient id="paint9_linear_1_75" x1="260.625" y1="259.353" x2="329.849" y2="259.353" gradientUnits="userSpaceOnUse">
<stop stop-color="#925009"/>
<stop offset="0.02" stop-color="#995A10"/>
<stop offset="0.18" stop-color="#D2A84D"/>
<stop offset="0.25" stop-color="#E9C865"/>
<stop offset="0.29" stop-color="#D3AA4E"/>
<stop offset="0.35" stop-color="#B78330"/>
<stop offset="0.41" stop-color="#A2671A"/>
<stop offset="0.46" stop-color="#96560D"/>
<stop offset="0.5" stop-color="#925009"/>
<stop offset="0.53" stop-color="#95540C"/>
<stop offset="0.58" stop-color="#9F6116"/>
<stop offset="0.62" stop-color="#AF7827"/>
<stop offset="0.67" stop-color="#C5973F"/>
<stop offset="0.71" stop-color="#E2BF5E"/>
<stop offset="0.72" stop-color="#E9C865"/>
<stop offset="0.84" stop-color="#E9C865"/>
<stop offset="1" stop-color="#925009"/>
</linearGradient>
<linearGradient id="paint10_linear_1_75" x1="53.5156" y1="286.528" x2="288.362" y2="286.528" gradientUnits="userSpaceOnUse">
<stop stop-color="#950001"/>
<stop offset="0.16" stop-color="#9D0001"/>
<stop offset="0.42" stop-color="#B50004"/>
<stop offset="0.5" stop-color="#BF0005"/>
<stop offset="0.67" stop-color="#A90002"/>
<stop offset="0.85" stop-color="#9A0001"/>
<stop offset="1" stop-color="#950001"/>
</linearGradient>
<linearGradient id="paint11_linear_1_75" x1="53.5156" y1="323.399" x2="288.362" y2="323.399" gradientUnits="userSpaceOnUse">
<stop stop-color="#925009"/>
<stop offset="0.02" stop-color="#995A10"/>
<stop offset="0.18" stop-color="#D2A84D"/>
<stop offset="0.25" stop-color="#E9C865"/>
<stop offset="0.29" stop-color="#D3AA4E"/>
<stop offset="0.35" stop-color="#B78330"/>
<stop offset="0.41" stop-color="#A2671A"/>
<stop offset="0.46" stop-color="#96560D"/>
<stop offset="0.5" stop-color="#925009"/>
<stop offset="0.53" stop-color="#95540C"/>
<stop offset="0.58" stop-color="#9F6116"/>
<stop offset="0.62" stop-color="#AF7827"/>
<stop offset="0.67" stop-color="#C5973F"/>
<stop offset="0.71" stop-color="#E2BF5E"/>
<stop offset="0.72" stop-color="#E9C865"/>
<stop offset="0.84" stop-color="#E9C865"/>
<stop offset="1" stop-color="#925009"/>
</linearGradient>
<linearGradient id="paint12_linear_1_75" x1="53.5156" y1="249.654" x2="288.362" y2="249.654" gradientUnits="userSpaceOnUse">
<stop stop-color="#925009"/>
<stop offset="0.02" stop-color="#995A10"/>
<stop offset="0.18" stop-color="#D2A84D"/>
<stop offset="0.25" stop-color="#E9C865"/>
<stop offset="0.29" stop-color="#D3AA4E"/>
<stop offset="0.35" stop-color="#B78330"/>
<stop offset="0.41" stop-color="#A2671A"/>
<stop offset="0.46" stop-color="#96560D"/>
<stop offset="0.5" stop-color="#925009"/>
<stop offset="0.53" stop-color="#95540C"/>
<stop offset="0.58" stop-color="#9F6116"/>
<stop offset="0.62" stop-color="#AF7827"/>
<stop offset="0.67" stop-color="#C5973F"/>
<stop offset="0.71" stop-color="#E2BF5E"/>
<stop offset="0.72" stop-color="#E9C865"/>
<stop offset="0.84" stop-color="#E9C865"/>
<stop offset="1" stop-color="#925009"/>
</linearGradient>
</defs>
</svg>
