<svg width="82" height="82" viewBox="0 0 82 82" fill="none" xmlns="http://www.w3.org/2000/svg">
<path d="M81.7058 62.7843L74.4043 53.6031V14.9919C74.4043 13.1241 72.8895 11.6094 71.0218 11.6094H10.9781C9.11033 11.6094 7.59637 13.1241 7.59637 14.9919V53.6031L0.294207 62.7843C0.103781 63.0237 0 63.32 0 63.6275V67.6911C0 69.1823 1.2079 70.3896 2.69847 70.3896H79.3015C80.7921 70.3896 82 69.1823 82 67.6911V63.6275C82 63.32 81.8969 63.0237 81.7058 62.7843ZM12.3682 16.382H69.6318V48.8307H12.3682V16.382ZM48.7069 67.1802H33.2931V63.0998H48.7069V67.1802Z" fill="white"/>
</svg>
