<svg width="84" height="81" viewBox="0 0 84 81" fill="none" xmlns="http://www.w3.org/2000/svg">
<path d="M41.9961 41.9726C54.014 41.9726 63.758 32.5767 63.758 20.9863C63.758 9.39917 54.014 0 41.9961 0C29.9766 0 20.2344 9.39917 20.2344 20.9863C20.2344 32.5767 29.9766 41.9726 41.9961 41.9726Z" fill="white"/>
<path d="M69.8703 62.1898C68.8987 56.5777 63.9641 48.8202 60.4282 45.1885C59.4719 44.2058 57.8117 44.6146 57.2283 44.9628C52.7921 47.6003 47.5844 49.1392 42.0002 49.1392C36.4162 49.1392 31.2085 47.6003 26.7722 44.9628C26.189 44.6146 24.5287 44.2058 23.5722 45.1885C20.0367 48.8202 15.102 56.5777 14.1302 62.1898C11.7428 76.0073 27.0505 80.9995 42.0004 80.9995C56.9502 80.9995 72.2579 76.0073 69.8703 62.1898Z" fill="white"/>
</svg>
