<svg width="73" height="73" viewBox="0 0 73 73" fill="none" xmlns="http://www.w3.org/2000/svg">
<path d="M24.2623 31.7383H17.0078V38.9934H24.2623V31.7383Z" fill="white"/>
<path d="M56.0045 31.7383H48.75V38.9934H56.0045V31.7383Z" fill="white"/>
<path d="M45.4264 31.7383H38.1719V38.9934H45.4264V31.7383Z" fill="white"/>
<path d="M24.2623 43.0742H17.0078V50.3293H24.2623V43.0742Z" fill="white"/>
<path d="M45.4264 43.0742H38.1719V50.3293H45.4264V43.0742Z" fill="white"/>
<path d="M34.8483 43.0742H27.5938V50.3293H34.8483V43.0742Z" fill="white"/>
<path d="M56.0045 54.4102H48.75V61.6652H56.0045V54.4102Z" fill="white"/>
<path d="M45.4264 54.4102H38.1719V61.6652H45.4264V54.4102Z" fill="white"/>
<path d="M34.8483 54.4102H27.5938V61.6652H34.8483V54.4102Z" fill="white"/>
<path d="M62.6366 7.84766H56.7373V13.5037C56.7373 15.6142 54.9986 17.3305 52.8616 17.3305H45.1588C43.0219 17.3305 41.2833 15.6142 41.2833 13.5037V7.84766H31.7171V13.4505C31.7171 15.5904 29.9593 17.3305 27.7985 17.3305H20.1814C18.0207 17.3305 16.2628 15.5904 16.2628 13.4505V7.84766H10.3635C6.52729 7.84766 3.40625 10.9405 3.40625 14.7419V66.1051C3.40625 69.9063 6.52729 72.9993 10.3635 72.9993H62.6366C66.4787 72.9993 69.6044 69.9065 69.6044 66.1051V14.7419C69.6044 10.9406 66.4787 7.84766 62.6366 7.84766ZM64.617 65.9712C64.617 67.1917 63.7971 68.0113 62.5766 68.0113H10.4341C9.2136 68.0113 8.39363 67.1917 8.39363 65.9712V25.3909H64.617V65.9712Z" fill="white"/>
<path d="M20.1851 14.6153H27.7976C28.4422 14.6153 28.9666 14.0944 28.9666 13.4541V2.92185C28.9666 1.31072 27.6449 0 26.0201 0H21.9624C20.3378 0 19.0156 1.31058 19.0156 2.92185V13.4541C19.0158 14.0944 19.5402 14.6153 20.1851 14.6153Z" fill="white"/>
<path d="M45.155 14.6153H52.8578C53.4778 14.6153 53.9819 14.1144 53.9819 13.4994V2.87694C53.9819 1.29076 52.6805 0 51.0803 0H46.9326C45.3327 0 44.0313 1.29076 44.0313 2.87694V13.4994C44.0311 14.1144 44.5354 14.6153 45.155 14.6153Z" fill="white"/>
</svg>
