<svg width="72" height="264" viewBox="0 0 72 264" fill="none" xmlns="http://www.w3.org/2000/svg">
<path d="M69.4975 76.5663C68.569 65.3381 67.9499 59.052 66.2936 55.1451C64.6456 51.2298 64.5369 50.8208 63.508 48.6586C62.479 46.4965 61.1322 47.2144 58.2462 46.1876C55.3602 45.1608 51.2277 42.6814 51.2277 42.6814C51.2277 42.6814 46.2755 37.3219 45.1378 37.013C44.6192 35.9862 44.4853 35.5354 44.4853 35.5354C44.4853 35.5354 45.8656 34.2999 47.2375 32.2379C48.3752 30.5349 49.3706 29.0823 49.8475 26.4694C50.6087 25.4426 51.6376 23.3138 51.7046 21.4605C52.3905 19.0563 52.8757 16.4517 52.2567 13.2878C51.6376 10.1322 50.8095 8.68796 49.4376 7.24374C48.0657 5.79952 47.5135 4.98141 47.5135 4.98141C44.8283 1.47521 40.0852 -1.19618 38.1193 0.548575C36.1619 2.30167 35.9527 3.01961 34.4051 4.25513C32.8576 5.49064 31.4104 8.17038 30.1723 10.5412C28.9342 12.9121 27.6962 15.5918 27.6962 15.5918C27.6962 15.5918 26.6673 15.692 26.6673 18.1714C26.6673 20.6508 27.0772 22.4957 27.4954 23.7312C27.9053 24.9667 28.9426 24.758 28.9426 24.758C28.9426 24.758 29.3525 28.2642 29.9715 31.0441V33.7239C29.9715 33.7239 26.1486 32.3882 24.0907 33.5152C22.7523 29.2911 18.829 26.6113 17.2814 25.5845C14.8053 32.3798 14.2866 36.9129 15.5247 39.5926C14.387 40.2104 14.5962 41.7547 15.7338 41.9635C15.3239 44.4345 15.3239 45.4613 15.3239 45.4613C15.3239 45.4613 11.7101 45.7702 9.95342 46.6968C8.19671 47.6235 8.40584 48.859 7.16778 52.8744C5.92972 56.8898 4.90079 60.396 3.76311 67.6004C2.62543 74.8132 2.0064 79.6551 2.0064 79.6551C2.0064 79.6551 1.28698 79.964 1.38737 81.5083C1.48775 83.0527 1.28698 84.0796 0.667952 84.8058C0.0489206 85.5238 -0.360978 87.0682 0.45882 89.5476C1.28698 92.0186 3.66272 95.1074 6.44836 96.6518C9.234 98.1962 10.3717 99.6404 12.8478 101.285L15.3239 102.93L13.3665 115.293L14.5041 116.011C14.5041 116.011 13.1657 133.216 13.1657 143.618C13.1657 154.02 12.4463 172.978 11.9276 177.303C16.2608 178.338 24.9356 179.365 24.9356 179.365C24.9356 179.365 23.8983 199.233 25.6551 207.581C27.4118 215.921 29.6788 222.107 30.8164 226.331C31.9541 230.555 31.9541 231.482 32.0545 234.162C32.1549 236.841 31.9541 239.003 31.2263 241.884C30.5069 244.764 28.7502 248.479 27.8217 250.023C26.8931 251.567 26.1737 252.085 25.036 254.456C23.8983 256.827 23.5888 258.68 26.5836 258.68C29.5784 258.68 34.2211 256.927 34.2211 256.927C34.2211 256.927 33.7025 260.942 37.2159 262.795C40.7293 264.649 42.7872 264.24 44.8534 262.487C46.9196 260.733 46.6101 257.745 45.5728 254.556C44.4351 248.069 43.6153 245.081 44.0252 243.428C44.2093 242.702 45.1629 240.748 44.8534 238.486C44.5439 236.224 44.3347 234.671 45.4724 230.655C46.6101 226.64 51.462 214.685 51.1524 200.986C50.8429 187.287 50.8429 179.264 50.8429 179.264C50.8429 179.264 54.3563 178.029 57.8614 177.311C61.3748 176.593 62.5041 176.793 62.5041 176.793C62.5041 176.793 61.0569 159.279 60.8562 148.468C60.647 137.649 58.7899 116.637 58.7899 116.637H59.5094C59.5094 116.637 59.6097 113.34 58.5808 109.424C57.5519 105.509 57.4431 102.829 57.4431 102.829C57.4431 102.829 59.4006 102.212 60.0196 101.185C62.9057 99.1228 66.2099 96.8605 66.2099 96.8605C66.2099 96.8605 67.448 96.6518 68.4853 95.5248C69.5142 94.3895 70.1333 93.5713 70.4428 92.8451C70.7523 92.1271 71.89 90.4742 71.9904 87.903C72.0907 85.3318 71.4717 80.181 69.5142 76.5746L69.4975 76.5663ZM19.5735 89.5809C19.5735 89.5809 13.517 86.968 12.898 86.4922C12.279 86.008 12.6889 85.5989 12.7558 84.8476C12.8227 84.0879 13.0988 81.2746 13.241 76.9503C13.584 75.9903 14.6212 74.3373 14.7551 72.8263C14.7551 72.8263 15.441 74.3373 16.3361 76.7416C17.2312 79.1458 17.4403 80.1059 18.6031 83.1947C19.7743 86.2835 19.5651 89.5809 19.5651 89.5809H19.5735ZM57.6272 88.6209C56.18 88.8964 54.5989 89.3055 54.4651 89.5809C54.3312 89.8564 53.8461 85.6657 54.532 83.6788C55.218 81.6837 56.1883 81.0659 56.6652 78.3194C57.1503 75.5729 57.0081 70.6308 57.0081 70.6308L57.9032 71.1818C58.0371 73.5192 58.5223 79.3545 59.6265 81.2746C59.4173 83.5369 59.3504 85.7408 59.9025 86.6341L59.9694 87.2518C59.9694 87.2518 59.0744 88.3538 57.6272 88.6293V88.6209Z" fill="#F49B9B"/>
</svg>
