<svg width="90" height="261" viewBox="0 0 90 261" fill="none" xmlns="http://www.w3.org/2000/svg">
<path d="M86.2878 125.132C88.1416 124.67 89.9953 123.507 89.9953 123.507C89.9953 123.507 89.7646 118.746 89.4186 106.081C89.0725 93.4157 88.4876 82.0377 87.5648 71.3446C86.6339 60.6597 86.7492 52.7553 85.4804 46.1381C84.2034 39.5209 72.3726 39.752 72.3726 39.752C72.3726 39.752 70.1646 37.8955 69.3572 36.7321C68.5416 35.5688 68.0802 35.4533 66.8032 35.5688C67.0339 33.1265 65.2955 32.8955 65.2955 32.8955C65.2955 32.8955 65.2955 32.0786 65.1802 29.8757C65.6416 29.1826 66.0453 27.1446 66.1606 24.9416C66.9103 24.8261 67.3799 24.4218 67.726 23.1429C68.072 21.8641 68.1873 22.0373 68.3027 20.5274C68.418 19.0175 68.0143 18.2007 68.0143 18.2007C68.0143 18.2007 69.349 18.2584 70.7413 18.0274C71.6696 17.8734 72.2106 17.3701 72.3644 16.5175C72.5951 15.2386 73.0894 13.5142 73.2953 13.1511C73.8721 12.1033 74.3417 11.1792 72.7186 10.9481C71.0956 10.7171 67.4953 10.6016 67.4953 10.6016C67.4953 10.6016 67.6106 10.6016 67.0257 7.00423C65.9876 1.64941 60.1875 -0.240044 54.9724 0.0239844C48.1837 0.370521 45.4649 4.55372 44.8799 8.03559C44.5339 10.1231 44.2291 12.128 44.2291 12.128C44.2291 12.128 41.0984 12.2188 39.706 12.26C38.3137 12.3013 38.2725 12.3013 38.6597 13.3904C39.0551 14.4795 39.6154 16.2617 40.0932 17.7056C40.5711 19.1413 41.4444 18.836 45.0118 19.1C45.745 23.8938 46.2723 25.9812 48.0107 28.9433C50.1198 32.5324 52.4184 33.7041 52.4184 33.7041C52.4184 33.7041 52.3607 34.95 52.4513 36.2618C51.3638 36.9137 51.578 38.0028 51.578 38.0028C51.578 38.0028 48.9663 37.912 47.0962 38.0935C45.226 38.2668 45.5308 38.7041 44.2703 39.1827C43.0097 39.6612 42.9685 41.2289 43.0097 43.4484C40.8347 45.1068 41.6586 46.5837 41.6586 46.5837C41.6586 46.5837 39.7472 47.1943 37.6134 48.1926C35.4795 49.191 34.8287 50.0656 34.7875 51.8065C34.7463 53.5474 34.0954 53.8527 33.1315 55.6844C32.1758 57.5161 32.7443 58.5145 32.1758 60.1316C31.6073 61.7405 31.2201 63.0029 31.0471 66.361C29.0039 64.0095 25.2223 58.3494 24.868 57.5161C24.522 56.691 24.2584 56.691 24.2584 56.691C24.2584 56.691 22.693 53.1596 21.9927 51.724C21.3007 50.2883 22.1657 49.6283 21.0782 48.4566C19.9907 47.2768 17.9063 45.9731 16.4233 45.3213C14.9404 44.6695 15.0722 44.2322 13.202 43.4896C11.373 42.747 10.5491 43.6216 11.2412 44.7107C11.9332 45.7999 13.375 46.6744 13.6798 46.8477C13.9847 47.021 14.8992 47.6728 13.8116 47.4995C12.7241 47.3263 9.4204 46.7157 7.28656 45.8906C5.15273 45.0655 4.28766 43.8857 2.49985 42.6645C0.712047 41.4434 -0.111827 42.2685 0.2342 43.2338C-0.41666 43.8031 0.193007 44.587 2.19502 47.153C4.27942 49.9831 5.63057 50.8576 7.71498 52.1613C9.79938 53.4649 13.1525 54.4303 15.0227 54.9913C16.8929 55.5606 17.5438 57.0376 18.6725 60.0904C15.0639 63.3165 14.7591 66.1053 14.7591 66.1053C14.7591 66.1053 15.4512 67.7142 17.1483 69.9832C16.5387 70.8083 17.931 72.2027 18.4995 72.0294C18.1947 72.3347 18.6725 73.2505 19.1503 73.7291C19.6282 74.2076 20.3285 73.8611 20.3285 73.8611C20.3285 73.8611 24.1595 78.5641 25.9803 82.9206C27.8093 87.277 30.1161 89.5873 32.5877 90.1483C35.0676 90.7176 36.5423 88.6219 36.5423 88.6219C36.5423 88.6219 35.7596 96.9883 35.7596 97.1616C35.7596 97.3348 33.2798 105.874 32.6289 109.142C31.9781 112.409 32.5383 111.889 34.4991 111.889C33.7988 119.422 35.6278 136.939 36.5011 145.347C37.3744 153.754 38.8492 173.177 39.0222 177.187C39.9367 179.712 41.502 179.934 45.4566 180.231C46.5442 182.542 47.4175 187.814 47.9365 193.821C48.4555 199.835 48.851 207.278 50.4164 214.209C51.9817 221.131 54.0744 228.367 54.7252 232.113C55.3761 235.859 55.0713 241.742 53.7695 248.054C52.9869 249.753 50.0291 254.72 48.0683 257.682C46.1075 260.644 46.6348 261.082 48.505 260.991C50.3752 260.908 52.682 260.686 56.5954 259.597C60.5088 258.507 61.1185 256.981 61.6375 254.366C62.206 251.923 64.7271 247.526 64.7271 247.526C64.7271 247.526 64.6859 249.316 64.554 252.493C65.1637 252.757 65.8146 252.451 65.8146 252.451C65.8146 252.451 65.7239 250.405 65.9464 245.653C66.5561 243.738 68.8135 241.601 68.8135 241.601C68.8135 241.601 69.5055 245.479 69.901 249.184C70.2964 252.889 70.5107 254.671 72.4715 257.418C74.4323 260.166 75.215 261.164 76.6073 260.339C77.9997 259.514 80.1335 257.946 81.5258 255.983C82.9182 254.019 83.3054 251.535 82.2179 249.357C81.1304 247.179 80.0429 243.342 80.0429 243.342C79.6062 242.006 78.6835 239.91 78.3869 239.077C77.6701 237.063 77.4724 235.809 77.4724 235.809C77.4724 235.809 77.2582 235.29 77.1264 233.804C76.9945 232.327 76.4343 231.89 76.3025 229.316C76.1707 225.05 77.563 215.331 77.3488 203.309C77.1346 191.288 74.9101 189.67 73.9956 186.535C73.0811 183.4 73.4766 181.659 73.4766 181.659L74.0451 181.048C73.4354 177.088 74.3499 170.553 75.3056 165.149C76.2613 159.744 76.6979 143.763 76.6979 143.763C76.6979 143.763 77.044 143.853 78.0903 143.325C76.5249 144.373 76.871 146.023 77.5713 145.594C78.2715 145.157 80.6196 144.291 82.9676 142.632C81.1386 145.074 80.9656 146.898 81.7483 146.989C82.531 147.079 83.3137 145.685 84.2693 143.936C85.225 142.195 86.535 141.32 86.7904 138.886C87.054 136.444 87.7461 135.751 87.6637 134.183C87.5731 132.616 86.9717 129.423 86.2714 125.124L86.2878 125.132ZM68.3686 237.237C66.0453 233.813 64.4222 232.938 63.8455 228.639C63.2688 224.341 62.7992 217.369 62.9145 210.809C63.0299 204.25 61.5799 193.969 61.5799 193.969C62.6262 196.931 63.3759 204.885 64.9413 211.048C66.5066 217.204 67.7836 220.52 68.3027 225.685C68.8217 230.859 68.1873 235.562 68.3603 237.245L68.3686 237.237ZM76.286 104.398C76.7474 106.403 77.8267 113.721 77.6207 116.683C76.3766 111.634 76.286 104.398 76.286 104.398ZM80.4054 139.332C80.4054 139.332 78.5517 140 78.461 141.741C77.6784 141.683 77.1264 141.799 77.1264 141.799C77.1264 141.799 78.3127 135.668 78.3457 131.898C78.3786 128.119 77.9997 124.348 77.9997 124.348L79.6804 124.984C79.6804 124.984 79.2767 128.993 79.7133 130.817C80.15 132.649 80.4136 132.764 80.4383 135.289C80.4713 137.814 80.4054 139.324 80.4054 139.324V139.332Z" fill="#F49B9B"/>
</svg>
