<svg preserveAspectRatio="none" width="100%" height="100%" overflow="visible" style="display: block;" viewBox="0 0 35.1072 32.3597" fill="none" xmlns="http://www.w3.org/2000/svg">
<g id="Group">
<path id="Vector" d="M34.8266 21.0878L31.2074 18.3918V15.4459C31.2074 15.1009 30.9267 14.8222 30.5817 14.8222C30.2357 14.8222 29.956 15.1009 29.956 15.4459V17.4593L26.4965 14.882V12.8782C26.4965 12.5342 26.2169 12.2533 25.8708 12.2533C25.5248 12.2533 25.2452 12.5342 25.2452 12.8782V13.9495L20.0371 10.0701C20.0371 10.0701 20.0371 5.11725 20.0371 3.8515C20.0371 2.58576 18.6572 0 17.5536 0C16.4501 0 15.0701 2.5859 15.0701 3.85164C15.0701 5.11738 15.0701 10.0702 15.0701 10.0702L9.86213 13.9496V12.8783C9.86213 12.5344 9.58251 12.2534 9.23644 12.2534C8.89037 12.2534 8.61075 12.5343 8.61075 12.8783V14.8821L5.15124 17.4584V15.4461C5.15124 15.1011 4.87052 14.8223 4.52555 14.8223C4.18058 14.8223 3.89986 15.1011 3.89986 15.4461V18.392L0.280721 21.0878C0.10395 21.2202 0 21.4264 0 21.6453V23.3586C0 23.5957 0.119996 23.8147 0.319257 23.944C0.516393 24.0721 0.768178 24.0913 0.983553 23.9952L3.89986 22.6505V23.5915C3.89986 23.9354 4.18058 24.2142 4.52555 24.2142C4.87052 24.2142 5.15124 23.9354 5.15124 23.5915V22.0726L8.61075 20.4779V21.7565C8.61075 22.1015 8.89037 22.3802 9.23644 22.3802C9.58251 22.3802 9.86213 22.1015 9.86213 21.7565V19.9001L15.5416 17.28L16.0366 26.0289C16.0366 26.7307 15.7676 27.2786 15.1644 27.7037C13.9259 28.5785 11.7638 29.9906 11.7638 29.9906C11.4874 30.1871 11.3695 30.5406 11.4724 30.8632C11.5764 31.1868 11.8774 31.4059 12.2181 31.4059L16.6343 30.6817V31.4433C16.6343 31.9495 17.0458 32.3597 17.5536 32.3597C18.0614 32.3597 18.4728 31.9495 18.4728 31.4433V30.6817L22.8891 31.4059C23.2298 31.4059 23.5298 31.1869 23.6347 30.8632C23.7376 30.5406 23.6197 30.1871 23.3433 29.9906C23.3433 29.9906 21.1802 28.5785 19.9417 27.7037C19.3396 27.2786 19.0707 26.7307 19.0707 26.0289L19.5657 17.28L25.2451 19.9001V21.7565C25.2451 22.1015 25.5247 22.3802 25.8708 22.3802C26.2168 22.3802 26.4965 22.1015 26.4965 21.7565V20.4779L29.956 22.0726V23.5915C29.956 23.9354 30.2356 24.2142 30.5817 24.2142C30.9266 24.2142 31.2074 23.9354 31.2074 23.5915V22.6505L34.1226 23.9952C34.339 24.0913 34.5898 24.0721 34.788 23.944C34.9872 23.8147 35.1072 23.5957 35.1072 23.3586V21.6453C35.1073 21.4264 35.0033 21.2202 34.8266 21.0878ZM16.0815 3.74158C16.0815 2.93193 16.7404 2.27507 17.5536 2.27507C18.3658 2.27507 19.0257 2.93193 19.0257 3.74158H16.0815Z" fill="var(--fill-0, #F49B9B)"/>
</g>
</svg>
