<svg width="1440" height="386" viewBox="0 0 1440 386" fill="none" xmlns="http://www.w3.org/2000/svg">
<path d="M-84.7733 236.046C-84.6033 235.083 -84.1533 234.11 -83.8833 233.087C-83.6333 232.134 -84.1832 230.86 -83.8433 229.857C-83.5233 228.924 -82.0133 228.373 -81.6133 227.4C-81.2433 226.487 -80.0232 225.936 -79.5833 224.983C-79.1632 224.09 -79.4933 222.816 -79.0133 221.883C-78.5634 221.001 -78.5433 219.847 -78.0333 218.935C-77.5433 218.072 -76.4534 217.53 -75.9133 216.628C-75.4033 215.775 -74.6034 215.103 -74.0533 214.251C-73.5133 213.418 -74.1433 211.773 -73.5634 210.941C-72.9934 210.118 -72.6133 209.115 -72.0133 208.303C-71.4233 207.501 -69.5833 207.631 -68.9532 206.839C-68.3333 206.056 -68.6033 204.522 -67.9532 203.749C-67.3032 202.987 -65.9033 202.867 -65.2233 202.124C-64.9532 201.824 -64.6033 201.593 -64.2433 201.382C-64.3132 200.57 -64.0432 199.607 -64.3433 198.845C-64.7032 197.942 -65.9333 197.37 -66.2833 196.407C-66.6333 195.465 -68.5133 195.033 -68.8433 194.06C-69.1632 193.108 -69.4232 192.085 -69.7233 191.102C-70.0133 190.139 -70.4333 189.156 -70.6934 188.163C-70.9534 187.19 -69.4733 185.736 -69.7032 184.743C-69.9432 183.76 -71.4834 183.048 -71.6934 182.055C-71.9033 181.062 -70.6532 179.778 -70.8333 178.775C-71.0133 177.772 -71.9532 176.899 -72.0933 175.886C-72.2333 174.883 -72.6433 173.89 -72.7533 172.877C-72.8633 171.864 -73.4834 170.871 -73.5634 169.858C-73.6433 168.845 -71.3733 167.702 -71.4133 166.679C-71.4534 165.666 -71.7133 164.693 -71.7032 163.68C-71.7032 162.657 -73.7933 161.594 -73.7533 160.581C-73.7133 159.557 -71.0532 158.725 -70.9633 157.712C-70.8733 156.699 -72.1033 155.566 -71.9633 154.563C-71.8232 153.55 -72.1632 152.456 -71.9733 151.463C-71.7833 150.46 -70.6333 149.678 -70.3933 148.695C-70.1433 147.702 -70.0233 146.709 -69.7233 145.746C-69.4232 144.773 -70.2933 143.379 -69.9233 142.426C-69.5634 141.474 -68.3134 140.862 -67.8933 139.949C-67.5033 139.117 -66.4733 138.585 -65.9733 137.702C-65.5133 136.88 -64.4333 136.489 -63.8833 135.656C-63.3633 134.854 -64.2733 133.058 -63.6833 132.276C-63.1034 131.504 -62.0333 131.123 -61.3933 130.4C-60.7533 129.668 -59.5632 129.548 -58.8633 128.886C-58.1533 128.214 -57.7233 127.351 -56.9633 126.77C-56.5332 126.439 -56.2333 125.947 -55.9133 125.486C-56.6733 124.864 -56.8132 123.801 -57.3433 122.928C-57.8533 122.096 -57.8833 121.223 -58.1934 120.2C-58.4734 119.267 -59.9733 118.595 -60.1133 117.542C-60.2333 116.569 -59.9332 115.496 -59.9532 114.443C-59.9633 113.45 -60.4633 112.397 -60.3933 111.354C-60.3234 110.361 -59.5133 109.398 -59.3733 108.365C-59.2433 107.362 -60.6333 106.088 -60.4532 105.065C-60.2732 104.072 -57.7533 103.53 -57.5333 102.527C-57.3134 101.534 -59.2833 99.9797 -59.0233 99.0068C-58.7633 98.0139 -58.4033 97.0008 -58.1133 96.038C-57.8132 95.045 -57.5432 94.0119 -57.2233 93.0691C-56.8833 92.0762 -55.8032 91.354 -55.4532 90.4313C-55.0732 89.4383 -53.6533 88.9167 -53.2733 88.0241C-52.8433 87.0211 -52.2234 86.2187 -51.8134 85.3762C-51.3134 84.3431 -50.8032 83.5407 -50.3433 82.7884C-49.8333 81.9459 -49.5233 80.9931 -48.9333 80.1405C-48.3634 79.3281 -49.0133 77.5528 -48.3733 76.7504C-47.7533 75.9681 -46.4432 75.7073 -45.7533 74.945C-45.0833 74.2028 -45.2633 72.5479 -44.5433 71.8358C-43.8234 71.1236 -42.0433 71.4948 -41.2833 70.8328C-40.5233 70.1708 -40.5333 68.4858 -39.7333 67.874C-38.9332 67.2521 -37.6732 67.1518 -36.8433 66.6002C-35.9933 66.0385 -34.7032 66.1889 -33.8232 65.7075C-32.9332 65.216 -31.6533 65.6573 -30.7433 65.2561C-29.8033 64.8449 -28.9332 64.6544 -27.9833 64.3635C-27.0133 64.0626 -26.2133 63.7115 -25.2233 63.531C-24.2233 63.3505 -23.4532 61.0837 -22.4532 61.0536C-21.4432 61.0235 -20.3333 61.5651 -19.3333 61.6955C-18.3433 61.8259 -17.4733 62.7186 -16.4933 63.0195C-15.5533 63.3103 -14.0233 62.4779 -13.1033 62.9493C-12.2333 63.3906 -12.5033 65.8078 -11.6533 66.4196C-10.8633 66.9913 -9.3833 66.7004 -8.61328 67.4226C-7.91333 68.0946 -7.18335 69.569 -6.5033 70.3714C-6.48328 69.3584 -5.7533 67.8639 -5.64331 66.891C-5.53333 65.888 -6.60327 64.7246 -6.40332 63.7617C-6.19336 62.7788 -4.84338 62.1268 -4.55334 61.174C-4.26331 60.2211 -5.68335 58.6163 -5.31335 57.7036C-4.93335 56.7809 -2.59326 56.7708 -2.1333 55.8982C-1.67334 55.0156 -3.19336 52.9595 -2.65332 52.1169C-2.11328 51.2845 -0.593262 51.0538 0.0167236 50.2614C0.616699 49.4791 2.41663 49.7298 3.08667 48.9876C3.7467 48.2554 3.40674 46.6005 4.12671 45.9084C4.83667 45.2164 5.2467 44.1632 6.01672 43.5113C6.76672 42.8694 7.3667 41.9466 8.16675 41.3448C8.95679 40.753 11.1667 42.2174 12.0067 41.6658C12.8267 41.1241 13.2067 39.9506 14.0667 39.4492C14.9166 38.9477 15.4567 37.9045 16.3467 37.4532C17.2267 37.0019 17.8667 36.0289 18.7767 35.6077C19.6768 35.1965 21.2866 36.4903 22.2167 36.1192C23.1367 35.7481 23.6167 34.2938 24.5566 33.9628C25.4867 33.6318 26.3867 33.1805 27.3367 32.8896C28.2866 32.5987 29.4867 33.2707 30.4467 33.02C31.4066 32.7692 31.9368 30.693 32.9067 30.4824C33.8767 30.2718 35.0568 31.024 36.0367 30.8535C37.0167 30.683 38.1167 31.4052 39.0967 31.2748C40.0767 31.1444 40.9667 30.2818 41.9467 30.1915C42.9366 30.1013 43.8767 29.1484 44.8667 29.1083C45.8567 29.0581 46.8767 28.4564 47.8667 28.4463C48.8567 28.4463 49.8367 30.6529 50.8267 30.683C51.8267 30.7131 52.7467 31.1945 53.7267 31.2647C54.7167 31.345 55.8667 29.6599 56.8467 29.7803C57.8367 29.9007 58.5967 31.4954 59.5667 31.6559C60.5466 31.8264 61.8667 30.3019 62.8267 30.5225C63.7966 30.7432 64.5468 31.8966 65.4967 32.1674C66.4567 32.4382 67.6766 31.9468 68.6067 32.2677C69.5466 32.5987 69.9967 34.2135 70.9067 34.5947C71.8268 34.9858 73.2267 34.3038 74.1067 34.7451C74.9967 35.1965 76.1067 35.3469 76.9567 35.8484C77.8167 36.3599 78.5967 37.0921 79.4067 37.6638C80.2267 38.2355 81.4867 38.3559 82.2567 38.9978C83.0167 39.6397 83.5468 40.6929 84.2567 41.395C84.9667 42.097 85.9166 42.7089 86.5566 43.4711C87.1967 44.2334 87.4668 45.3969 88.0367 46.2193C88.5968 47.0318 87.8367 48.6867 88.3267 49.5593C88.8066 50.4219 89.5867 51.0839 89.9967 52.0066C90.3967 52.8993 90.8867 53.7518 91.2167 54.7047C91.5366 55.6274 92.2267 56.4599 92.4767 57.4428C92.7167 58.3957 92.9567 59.3786 93.1267 60.3816C93.2267 60.9633 93.5267 61.5451 93.7667 62.1368C94.0867 61.5551 94.4767 61.0035 94.7867 60.4819C95.3068 59.6093 95.6167 58.3756 96.3367 57.6936C97.0466 57.0115 98.5468 57.2222 99.4268 56.7006C100.267 56.2092 100.727 54.6445 101.687 54.2934C102.597 53.9625 103.967 54.9454 104.977 54.7247C105.927 54.5241 106.707 52.6586 107.717 52.5482C108.687 52.4379 109.857 54.133 110.867 54.1129C111.857 54.0828 112.897 52.4178 113.907 52.458C114.897 52.4981 115.947 52.8491 116.947 52.9394C117.937 53.0297 118.917 53.6415 119.907 53.7819C120.897 53.9223 121.767 54.8651 122.747 55.0457C123.737 55.2262 125.007 54.1129 125.967 54.3336C126.957 54.5542 127.567 56.3395 128.507 56.5903C129.497 56.8611 130.947 55.497 131.877 55.7879C132.867 56.0988 133.187 58.3355 134.087 58.6665C135.087 59.0276 135.687 60.0506 136.547 60.4117C137.567 60.853 139.617 58.9373 140.377 59.3585C141.237 59.84 141.527 61.3545 142.357 61.8861C143.187 62.4177 143.237 64.0425 144.037 64.6243C144.837 65.206 147.187 63.7316 147.957 64.3534C148.727 64.9753 148.317 67.0014 149.057 67.6633C149.787 68.3253 151.487 67.9542 152.197 68.6563C152.897 69.3484 152.057 71.5449 152.727 72.2671C153.397 72.9892 155.267 72.6181 155.907 73.3703C156.547 74.1226 155.717 76.0483 156.337 76.8307C156.947 77.603 157.677 78.2248 158.257 79.0272C158.837 79.8196 160.207 80.0302 160.767 80.8527C161.317 81.6651 161.387 82.7884 161.917 83.6209C162.447 84.4534 164.597 84.2929 165.097 85.1455C165.597 85.998 165.537 87.1916 166.017 88.0642C166.497 88.9268 166.967 89.8094 167.417 90.692C167.867 91.5747 167.347 92.9387 167.777 93.8214C168.207 94.714 169.797 95.0651 170.197 95.9577C170.607 96.8604 170.057 98.1844 170.437 99.0971C170.827 100.01 171.237 100.902 171.597 101.815C171.907 102.608 171.287 103.751 171.577 104.543C171.877 105.346 173.687 105.586 173.967 106.389C174.307 107.362 175.327 108.174 175.527 109.087C175.747 110.08 175.317 111.233 175.417 112.186C175.517 113.189 173.827 114.182 173.807 115.155C173.787 116.148 175.477 117.191 175.377 118.164C175.277 119.137 175.967 120.25 175.827 121.233C175.687 122.196 173.057 122.788 172.907 123.781C172.767 124.734 174.627 125.987 174.507 126.98C174.397 127.933 172.507 128.756 172.447 129.759C172.397 130.561 172.427 130.611 172.447 131.213C172.557 130.832 173.067 130.872 173.157 130.21C173.267 129.387 173.897 128.886 174.327 128.094C175.217 127.472 175.687 126.519 176.537 126.078C177.497 125.576 178.227 124.403 179.147 124.132C180.177 123.831 181.417 123.861 182.387 123.831C183.427 123.791 184.747 123.51 185.717 123.761C186.697 124.011 187.747 124.804 188.647 125.325C189.497 125.817 189.677 127.381 190.457 128.094C191.177 128.756 192.347 129.046 193.007 129.879C193.617 130.641 194.497 131.343 195.057 132.236C195.577 133.078 195.517 134.312 195.997 135.245C196.447 136.128 195.637 137.572 196.047 138.535C196.437 139.458 196.667 140.37 197.007 141.353C197.337 142.296 199.807 142.547 200.097 143.54C200.387 144.503 199.537 145.806 199.787 146.799C200.027 147.782 201.837 148.424 202.047 149.437C202.137 149.879 201.737 150.42 201.287 150.962C201.367 150.982 201.447 151.002 201.527 151.012C202.517 151.172 203.647 150.531 204.617 150.741C205.597 150.962 206.727 150.671 207.687 150.942C208.657 151.223 209.647 151.554 210.577 151.885C211.527 152.226 212.327 152.998 213.237 153.409C214.157 153.82 214.747 154.884 215.617 155.355C216.507 155.836 218.117 155.104 218.957 155.656C219.797 156.207 220.637 156.9 221.417 157.521C222.207 158.143 222.817 159.086 223.537 159.778C224.257 160.47 225.037 161.202 225.687 161.975C226.337 162.737 227.187 163.449 227.757 164.282C228.317 165.104 226.867 167.14 227.347 168.033C227.817 168.905 229.237 169.246 229.627 170.179C230.007 171.092 229.407 172.295 229.697 173.268C229.987 174.211 230.107 175.094 230.307 176.097C230.507 177.06 232.257 177.752 232.377 178.765C232.377 178.835 232.407 178.905 232.417 178.985C232.417 178.925 232.417 178.865 232.437 178.805C232.777 177.822 232.617 176.338 233.177 175.555C233.757 174.753 236.237 175.776 237.027 175.174C237.797 174.592 237.597 172.386 238.527 171.975C239.397 171.593 240.907 172.988 241.897 172.737C242.827 172.506 243.737 172.837 244.747 172.717C245.707 172.596 246.517 171.072 247.517 171.042C248.487 171.012 249.457 171.503 250.447 171.543C251.427 171.593 252.437 171.092 253.427 171.192C254.407 171.292 255.517 170.62 256.487 170.771C257.467 170.931 258.427 171.353 259.387 171.553C260.367 171.754 261.467 171.573 262.397 171.814C263.377 172.065 264.277 172.657 265.197 172.927C266.177 173.228 266.767 174.632 267.647 174.953C268.637 175.304 269.797 175.064 270.637 175.425C271.647 175.866 272.727 176.047 273.467 176.468C273.637 176.558 273.777 176.689 273.927 176.819C274.007 176.729 274.097 176.638 274.177 176.548C274.827 175.756 275.767 175.294 276.497 174.582C277.237 173.85 277.677 172.887 278.477 172.275C279.307 171.644 280.607 172.005 281.487 171.543C281.667 171.453 281.817 171.323 281.957 171.182C281.807 171.052 281.647 170.931 281.457 170.841C280.527 170.4 278.017 172.055 277.377 171.282C276.767 170.55 276.897 168.935 276.527 167.953C276.187 167.07 277.877 165.676 277.707 164.633C277.557 163.69 274.537 162.968 274.507 161.925C274.477 160.962 276.307 159.929 276.367 158.906C276.427 157.933 277.087 157.03 277.217 156.017C277.347 155.034 275.737 153.77 275.917 152.777C276.097 151.794 277.867 151.142 278.097 150.169C278.327 149.197 278.197 148.143 278.467 147.191C278.737 146.218 279.627 145.455 279.927 144.523C280.237 143.55 280.437 142.587 280.767 141.674C281.117 140.691 281.807 139.929 282.167 139.046C282.567 138.053 281.087 136.308 281.487 135.476C281.977 134.453 283.497 134.092 283.937 133.369C284.437 132.537 284.097 131.083 284.687 130.25C285.257 129.448 285.547 128.314 286.187 127.532C286.817 126.76 287.537 125.957 288.227 125.215C288.907 124.483 290.117 124.192 290.847 123.51C291.577 122.828 293.307 123.309 294.077 122.677C294.857 122.046 295.247 120.962 296.067 120.401C296.897 119.829 297.457 118.846 298.327 118.355C299.207 117.853 300.107 117.352 301.017 116.96C301.947 116.559 302.727 115.536 303.677 115.265C304.647 114.985 306.037 116.76 307.017 116.629C308.017 116.489 308.837 116.018 309.837 116.058C310.827 116.098 311.927 115.205 312.907 115.436C313.867 115.657 315.077 115.526 316.017 115.947C316.897 116.339 316.947 118.314 317.807 118.906C318.597 119.448 320.847 118.294 321.617 119.017C322.317 119.668 322.247 122.236 322.917 123.049C322.937 122.026 323.137 120.3 323.257 119.317C323.377 118.314 323.977 117.462 324.197 116.489C324.427 115.506 322.887 114.002 323.217 113.059C323.547 112.106 323.867 111.023 324.287 110.12C324.717 109.207 325.947 108.646 326.467 107.783C326.977 106.93 328.297 106.61 328.897 105.807C329.487 105.005 329.887 104.072 330.547 103.32C331.207 102.577 332.107 102.106 332.837 101.404C333.557 100.722 334.577 100.461 335.357 99.8193C336.127 99.1874 336.257 97.7731 337.087 97.1914C337.897 96.6197 339.297 96.9808 340.147 96.4492C340.997 95.9276 341.897 95.6468 342.787 95.1654C343.667 94.694 344.097 93.4101 345.007 92.9889C345.907 92.5676 346.237 90.7221 347.167 90.351C348.087 89.9799 349.677 91.3339 350.627 91.013C351.567 90.692 352.717 91.1735 353.687 90.9027C354.647 90.6319 355.347 89.5085 356.317 89.2778C357.287 89.0471 358.217 88.6961 359.197 88.5155C360.177 88.335 360.917 86.4795 361.907 86.339C362.897 86.1986 364.067 87.2919 365.057 87.2016C366.057 87.1113 367.017 86.1786 368.017 86.1284C369.017 86.0883 370.067 86.0983 371.067 86.0983C372.067 86.0983 373.097 86.5096 374.097 86.5697C375.097 86.6199 376.137 86.66 377.127 86.7603C378.127 86.8706 379.047 87.6329 380.037 87.7934C381.027 87.9539 382.197 87.332 383.167 87.5426C384.147 87.7633 384.867 89.0872 385.817 89.358C386.787 89.6389 387.377 90.8926 388.307 91.2336C389.257 91.5747 390.597 90.7723 391.507 91.1735C392.427 91.5847 393.877 90.9929 394.747 91.4643C395.637 91.9458 395.837 93.6308 396.667 94.1824C397.507 94.7341 398.817 94.6438 399.607 95.2657C400.397 95.8875 401.797 95.9477 402.517 96.6398C403.237 97.3318 402.517 99.4782 403.157 100.241C403.807 101.003 404.357 101.765 404.927 102.598C405.487 103.42 405.677 104.393 406.157 105.286C406.627 106.158 408.817 106.228 409.207 107.161C409.587 108.074 408.217 109.649 408.507 110.621C408.797 111.564 410.867 112.086 411.077 113.089C411.217 113.771 410.787 114.573 410.557 115.346C411.367 114.904 412.667 114.704 413.067 114.142C413.647 113.34 414.687 113.36 415.477 112.758C416.247 112.176 416.407 110.872 417.337 110.461C418.207 110.08 418.727 108.264 419.717 108.014C420.647 107.783 421.987 109.378 422.997 109.247C423.947 109.127 424.877 108.626 425.887 108.595C426.857 108.565 427.847 108.285 428.847 108.335C429.827 108.385 430.857 108.094 431.847 108.204C432.827 108.305 433.827 108.515 434.797 108.676C435.777 108.836 436.417 110.722 437.367 110.922C438.347 111.123 439.517 110.301 440.457 110.541C441.437 110.792 442.477 110.742 443.387 111.013C444.367 111.314 445.357 111.504 446.237 111.825C447.227 112.176 447.887 113.189 448.727 113.55C449.737 113.992 450.357 114.834 451.107 115.255C451.967 115.737 453.777 114.664 454.597 115.205C455.417 115.747 455.217 117.763 456.007 118.355C456.797 118.946 458.087 118.866 458.847 119.498C459.597 120.13 459.397 121.795 460.107 122.467C460.817 123.139 461.467 123.801 462.147 124.513C462.827 125.225 463.977 125.446 464.617 126.198C465.257 126.94 466.557 127.141 467.167 127.913C467.777 128.685 467.387 130.21 467.967 131.002C468.547 131.795 468.647 132.878 469.197 133.7C469.747 134.523 471.837 134.322 472.357 135.155C472.467 135.325 472.607 135.476 472.767 135.616C473.487 135.425 474.347 135.375 474.837 134.924C475.567 134.242 476.017 133.359 476.797 132.737C477.577 132.106 477.467 130.32 478.287 129.759C479.117 129.187 480.037 128.705 480.907 128.224C481.787 127.723 482.957 127.823 483.867 127.432C484.797 127.03 485.307 125.315 486.247 125.034C487.217 124.754 488.547 125.837 489.527 125.706C490.527 125.566 491.547 124.062 492.537 124.092C493.527 124.132 494.247 126.529 495.237 126.75C496.197 126.97 497.957 124.954 498.897 125.375C499.777 125.767 500.177 127.412 501.037 128.003C501.827 128.545 502.277 129.568 503.047 130.29C503.747 130.942 504.547 131.113 505.217 131.915C505.237 130.892 505.577 130.25 505.697 129.267C505.817 128.264 505.437 127.161 505.657 126.198C505.887 125.215 506.487 124.312 506.807 123.38C507.137 122.427 507.727 121.594 508.147 120.681C508.577 119.769 507.647 118.064 508.167 117.211C508.677 116.359 511.287 116.87 511.887 116.058C512.477 115.255 512.027 113.63 512.697 112.878C513.357 112.136 514.407 111.745 515.137 111.043C515.857 110.351 516.377 109.418 517.157 108.786C517.927 108.154 518.237 106.83 519.067 106.248C519.877 105.677 521.067 105.556 521.927 105.025C522.777 104.503 524.557 105.647 525.447 105.175C526.327 104.704 527.227 104.463 528.147 104.042C529.047 103.621 529.187 101.484 530.127 101.113C531.047 100.742 531.787 99.739 532.737 99.4181C533.677 99.0971 535.107 100.261 536.077 99.9797C537.037 99.7089 537.637 97.9738 538.607 97.7431C539.577 97.5124 540.627 97.382 541.607 97.2014C542.587 97.0209 543.777 97.9437 544.767 97.8133C545.757 97.6729 546.697 97.041 547.697 96.9507C548.697 96.8604 549.767 98.1643 550.767 98.1242C551.767 98.0841 552.727 96.8103 553.727 96.8203C554.727 96.8203 555.737 97.041 556.727 97.0911C557.727 97.1413 558.637 98.0841 559.627 98.1944C560.627 98.3047 561.857 96.6899 562.837 96.8504C563.827 97.0109 564.657 98.1443 565.627 98.3649C566.607 98.5856 567.837 97.9537 568.787 98.2245C569.757 98.5053 570.347 99.9998 571.277 100.331C572.227 100.672 573.777 99.5785 574.687 99.9797C575.607 100.391 576.047 101.905 576.917 102.377C577.807 102.858 578.277 103.972 579.117 104.523C579.957 105.075 580.467 105.958 581.247 106.579C582.037 107.201 583.617 106.84 584.347 107.542C585.067 108.234 585.557 109.177 586.207 109.939C586.857 110.702 586.377 112.236 586.947 113.069C587.507 113.891 587.837 114.694 588.317 115.576C588.787 116.449 589.217 117.191 589.607 118.134C589.987 119.047 592.887 119.067 593.187 120.04C593.477 120.982 592.717 122.286 592.927 123.289C593.127 124.252 592.407 125.365 592.517 126.389C592.627 127.361 593.217 128.294 593.257 129.327C593.277 129.929 593.217 130.952 593.157 131.895C593.277 130.962 593.477 129.959 593.527 129.397C593.627 128.344 592.347 126.92 592.647 126.048C592.987 125.065 593.897 124.042 594.457 123.269C595.037 122.467 595.797 121.354 596.587 120.752C597.357 120.17 599.337 121.524 600.267 121.113C601.137 120.732 601.527 118.846 602.517 118.595C603.447 118.365 604.517 118.204 605.517 118.084C606.477 117.963 607.527 118.104 608.537 118.084C609.507 118.054 610.547 117.753 611.547 117.793C612.527 117.843 613.497 118.525 614.477 118.635C615.457 118.736 616.457 118.776 617.437 118.926C617.807 118.986 618.167 119.077 618.527 119.157C618.087 118.465 617.417 117.733 617.487 117.061C617.587 116.098 618.327 115.135 618.507 114.152C618.677 113.189 618.797 112.166 619.027 111.203C619.247 110.24 621.187 109.729 621.457 108.796C621.727 107.833 619.937 106.238 620.237 105.326C620.557 104.363 621.867 103.741 622.207 102.868C622.587 101.885 623.177 101.053 623.547 100.23C624.017 99.1974 623.447 97.6929 623.867 96.9908C624.367 96.1583 624.957 95.1955 625.577 94.3529C626.167 93.5506 628.057 93.7311 628.727 92.9588C629.387 92.2065 629.907 91.3339 630.637 90.6218C631.357 89.9197 632.597 89.8595 633.377 89.2176C634.157 88.5757 634.397 87.2618 635.227 86.7102C636.077 86.1384 636.847 85.4564 637.737 84.995C638.647 84.5236 639.427 83.6109 640.357 83.2899C641.327 82.9489 642.487 83.1194 643.477 82.959C644.477 82.7985 645.467 84.1926 646.467 84.2428C647.467 84.2929 648.137 84.5437 649.117 84.8345C650.057 85.1154 651.317 84.2829 652.227 84.8045C653.067 85.2759 654.607 84.995 655.407 85.6971C656.127 86.329 656.187 87.9238 656.867 88.7462C656.887 87.7131 657.247 86.6399 657.387 85.657C657.537 84.644 657.817 83.7112 658.087 82.7483C658.367 81.7654 657.207 80.2108 657.607 79.288C658.007 78.3552 659.207 77.7033 659.717 76.8307C660.227 75.9581 661.627 75.6873 662.247 74.8748C662.857 74.0724 663.487 73.3503 664.187 72.6081C664.877 71.8759 664.387 69.8298 665.157 69.1678C665.917 68.5058 667.457 68.7365 668.287 68.1347C669.107 67.553 669.897 66.881 670.767 66.3494C671.627 65.8278 673.237 66.7305 674.147 66.2692C675.047 65.8178 675.407 64.3133 676.347 63.9121C677.277 63.521 678.277 63.3505 679.237 63.0094C680.187 62.6785 680.937 61.6654 681.917 61.3846C682.887 61.1138 683.707 60.0005 684.697 59.7798C685.687 59.5591 686.917 60.3515 687.917 60.191C688.917 60.0306 690.027 60.7527 691.027 60.6524C692.037 60.5521 692.957 59.2081 693.967 59.168C694.977 59.1279 696.037 59.3987 697.037 59.4087C698.057 59.4288 699.137 58.9072 700.137 58.9774C701.147 59.0577 701.957 61.0436 702.947 61.184C703.957 61.3344 705.367 59.3084 706.347 59.519C707.347 59.7397 708.417 60.0306 709.387 60.3214C710.367 60.6123 710.987 62.1067 711.927 62.4779C712.877 62.849 713.247 64.3936 714.147 64.8449C715.057 65.3063 717.207 63.6012 718.057 64.1428C718.917 64.6945 718.867 66.6202 719.657 67.2521C720.447 67.894 720.317 69.4085 721.017 70.1307C721.717 70.8528 723.397 70.6422 724.007 71.4546C724.607 72.257 726.217 72.5178 726.717 73.4105C727.207 74.2831 725.477 76.259 725.867 77.2118C726.237 78.1346 728.377 78.4455 728.657 79.4485C728.917 80.4013 727.627 81.7152 727.787 82.7483C727.877 83.3301 727.747 83.9018 727.647 84.4835C727.897 84.5236 728.147 84.664 728.407 84.8546C728.367 83.9419 728.187 82.9289 728.487 82.297C728.927 81.3843 730.177 80.5317 730.877 79.8798C731.577 79.2278 732.607 78.4455 733.517 78.0042C734.367 77.603 735.457 77.0012 736.447 76.7605C737.367 76.5398 738.497 76.1888 739.507 76.0985C740.457 76.0082 741.587 75.918 742.587 75.928C743.557 75.938 744.607 76.4395 745.597 76.5298C746.477 76.61 747.357 77.0212 748.237 77.2118C748.707 76.7404 749.237 76.3091 749.637 75.7775C750.227 74.9751 749.967 73.4807 750.637 72.7284C751.297 71.9862 753.287 72.568 754.017 71.8759C754.737 71.1838 755.327 70.4918 756.107 69.8499C756.877 69.218 756.397 66.9512 757.217 66.3695C758.027 65.7978 759.177 65.6473 760.037 65.1257C760.887 64.6042 761.687 63.9322 762.577 63.4508C763.457 62.9793 764.137 61.9964 765.047 61.5752C765.947 61.1539 767.727 62.7487 768.657 62.3776C769.577 62.0064 769.707 59.4288 770.657 59.0978C771.597 58.7768 773.237 60.6123 774.197 60.3415C775.157 60.0707 776.027 59.6093 777.007 59.3786C777.977 59.1479 778.737 57.9343 779.727 57.7538C780.707 57.5732 781.577 56.3997 782.567 56.2593C783.557 56.1189 784.627 56.0788 785.617 55.9885C786.617 55.8982 787.747 57.503 788.747 57.4529C789.747 57.4127 790.737 56.7508 791.727 56.7508C792.727 56.7508 793.717 57.2824 794.707 57.3425C795.707 57.3927 796.617 58.2252 797.607 58.3355C798.607 58.4458 799.687 57.7036 800.667 57.8641C801.657 58.0246 802.507 58.7768 803.477 58.9975C804.457 59.2181 805.977 57.3626 806.937 57.6434C807.907 57.9243 808.127 60.5621 809.057 60.8931C810.007 61.2341 811.367 60.4418 812.277 60.843C813.197 61.2542 813.387 63.0596 814.257 63.531C815.147 64.0124 816.677 63.2803 817.517 63.8219C818.357 64.3735 819.437 64.6443 820.217 65.2561C821.007 65.878 820.947 67.4627 821.667 68.1548C822.387 68.8469 824.637 68.1548 825.287 68.9171C825.937 69.6793 824.327 72.1768 824.897 73.0093C825.457 73.8317 826.567 74.1928 827.057 75.0855C827.527 75.9581 827.157 77.1215 827.547 78.0644C827.927 78.9771 828.967 79.5588 829.267 80.5317C829.557 81.4745 831.047 82.1265 831.257 83.1295C831.457 84.0923 831.397 85.1555 831.517 86.1786C831.547 86.4594 831.677 86.7503 831.827 87.0311C831.787 86.7904 831.787 86.5697 831.857 86.3491C832.187 85.3661 832.967 84.6941 833.527 83.9218C834.107 83.1194 834.047 81.5548 834.837 80.953C835.607 80.3712 837.207 81.0733 838.137 80.6721C839.007 80.291 839.967 80.4615 840.957 80.2108C841.887 79.9801 842.777 80.2108 843.787 80.0804C844.747 79.96 845.597 79.7393 846.597 79.7093C847.567 79.6792 848.547 77.8136 849.547 77.8537C850.527 77.9039 851.447 78.9269 852.427 79.0373C853.407 79.1376 854.337 79.4585 855.307 79.619C856.287 79.7795 857.377 79.2579 858.337 79.4585C859.317 79.6591 859.867 81.5447 860.797 81.7855C861.777 82.0362 862.947 81.3341 863.867 81.6149C864.847 81.9158 866.057 81.3843 866.937 81.7052C867.927 82.0563 868.707 82.8085 869.547 83.1696C870.567 83.6109 871.107 84.664 871.847 85.0853C872.707 85.5667 873.367 86.2588 874.187 86.8004C875.007 87.342 877.047 86.1585 877.827 86.7503C878.617 87.342 879.617 87.7733 880.377 88.4152C881.127 89.0471 881.897 89.7893 882.607 90.4613C883.317 91.1333 883.007 92.9086 883.687 93.6208C884.367 94.3329 884.997 95.0751 885.647 95.8273C886.287 96.5696 888.167 96.3288 888.777 97.1112C889.387 97.8835 888.357 99.9296 888.937 100.732C889.517 101.524 889.357 102.798 889.907 103.621C890.457 104.443 891.997 104.583 892.517 105.416C893.037 106.248 893.557 107.081 894.047 107.943C894.537 108.796 895.027 109.649 895.487 110.521C895.947 111.394 895.567 112.678 895.997 113.56C896.437 114.443 898.307 114.633 898.717 115.526C899.127 116.429 899.417 117.392 899.807 118.294C900.197 119.207 900.277 120.25 900.637 121.153C900.917 121.855 901.897 122.296 902.167 123.008C902.437 123.721 900.567 125.205 900.817 125.907C901.157 126.88 903.877 127.111 904.067 128.013C904.277 129.006 902.667 130.25 902.737 131.193C902.807 132.186 902.217 133.058 902.167 134.021C902.117 135.004 902.117 135.887 901.997 136.86C901.877 137.823 902.517 138.876 902.367 139.859C902.227 140.792 902.727 141.825 902.637 142.797C903.307 142.336 904.007 141.875 904.557 141.594C905.527 141.122 907.307 143.159 908.217 142.938C909.247 142.697 909.907 142.125 910.857 142.196C911.867 142.276 912.917 141.714 913.837 142.105C914.737 142.487 915.247 143.469 916.067 144.111C916.827 144.703 916.897 145.837 917.577 146.629C918.207 147.361 920.767 146.679 921.337 147.552C921.867 148.364 921.697 149.718 922.177 150.641C922.627 151.513 922.727 152.587 923.127 153.54C923.507 154.442 924.067 155.315 924.397 156.288C924.427 156.368 924.467 156.448 924.507 156.538H924.527C925.527 156.589 926.907 155.204 927.887 155.495C928.827 155.776 930.007 156.328 930.917 156.849C931.747 157.321 932.867 157.943 933.677 158.645C934.397 159.277 933.887 160.089 934.567 160.912C934.587 159.878 934.547 159.768 934.687 158.785C934.837 157.772 934.457 156.548 934.727 155.586C935.007 154.603 936.997 154.212 937.397 153.289C937.797 152.356 937.977 151.383 938.487 150.51C939.007 149.638 939.257 148.615 939.867 147.812C940.477 147.01 941.057 146.168 941.757 145.425C942.447 144.693 943.437 144.282 944.207 143.61C944.967 142.948 945.887 142.537 946.707 141.945C947.517 141.363 948.637 141.343 949.517 140.812C950.377 140.29 950.927 139.327 951.837 138.866C952.737 138.414 953.217 137.06 954.157 136.669C955.087 136.278 956.287 136.569 957.247 136.228C958.197 135.897 959.467 136.739 960.447 136.459C961.417 136.188 961.907 134.092 962.897 133.871C963.887 133.65 964.857 133.149 965.857 132.988C966.857 132.828 967.907 132.697 968.907 132.597C969.917 132.497 971.047 134.112 972.047 134.061C973.057 134.021 974.017 133.73 975.027 133.75C976.047 133.771 977.167 131.785 978.177 131.865C979.187 131.945 980.117 133.219 981.117 133.369C982.127 133.52 983.087 133.931 984.067 134.142C985.067 134.362 985.947 134.934 986.907 135.225C987.887 135.516 988.777 135.927 989.707 136.298C990.657 136.669 992.157 135.827 993.057 136.278C993.967 136.739 993.767 139.106 994.617 139.648C995.477 140.2 996.197 140.691 996.987 141.323C997.777 141.965 998.837 142.125 999.547 142.858C1000.25 143.58 1000.44 144.613 1001.05 145.425C1001.65 146.228 1001.86 147.1 1002.37 147.993C1002.86 148.866 1003.76 149.387 1004.15 150.34C1004.53 151.263 1004.6 152.175 1004.88 153.178C1005.14 154.131 1006.16 154.874 1006.32 155.907C1006.43 156.619 1006.32 157.351 1006.27 158.093C1006.7 157.381 1007.45 156.769 1007.75 156.157C1008.19 155.245 1008.69 154.332 1009.4 153.68C1010.1 153.028 1011.33 153.199 1012.24 152.757C1013.09 152.356 1013.49 150.36 1014.49 150.129C1015.41 149.909 1016.77 152.276 1017.78 152.185C1018.73 152.095 1019.6 149.738 1020.6 149.758C1021.57 149.768 1022.58 150.21 1023.57 150.3C1024.54 150.39 1025.26 152.376 1026.23 152.526C1027.2 152.677 1028.69 150.069 1029.64 150.28C1030.3 150.42 1030.93 150.761 1031.56 151.042C1031.62 151.002 1031.68 150.972 1031.73 150.932C1032.46 150.25 1033.31 149.788 1034.09 149.156C1034.87 148.525 1035.77 148.194 1036.59 147.622C1037.42 147.05 1037.79 145.887 1038.65 145.395C1039.53 144.894 1040.25 144.131 1041.15 143.74C1042.08 143.339 1042.73 142.025 1043.68 141.744C1044.65 141.463 1045.93 142.396 1046.91 142.266C1047.91 142.125 1048.92 140.611 1049.92 140.651C1050.91 140.691 1052.08 141.112 1053.06 141.343C1054.02 141.564 1054.78 142.747 1055.71 143.169C1056.59 143.56 1057.21 144.452 1058.07 145.034C1058.86 145.576 1059.07 146.729 1059.84 147.441C1060.54 148.093 1062.19 148.484 1062.86 149.287C1062.88 148.264 1062.08 146.659 1062.2 145.676C1062.32 144.673 1062.32 143.56 1062.55 142.597C1062.78 141.614 1063.91 140.842 1064.23 139.899C1064.56 138.946 1064.03 137.592 1064.46 136.679C1064.89 135.766 1066.12 135.225 1066.64 134.362C1067.15 133.51 1067.8 132.717 1068.4 131.905C1068.99 131.103 1069.56 130.25 1070.22 129.498C1070.88 128.756 1070.87 127.271 1071.6 126.569C1072.32 125.887 1073.65 125.787 1074.43 125.145C1075.2 124.513 1076.16 124.082 1076.98 123.5C1077.79 122.928 1078.17 121.594 1079.03 121.073C1079.88 120.551 1081.38 121.103 1082.27 120.631C1083.15 120.16 1084.41 120.531 1085.33 120.11C1086.23 119.689 1086.79 118.515 1087.72 118.144C1088.65 117.773 1089.4 116.92 1090.35 116.599C1091.29 116.278 1092.45 116.619 1093.42 116.349C1094.38 116.078 1095.41 116.138 1096.38 115.907C1097.35 115.677 1098.04 114.062 1099.02 113.881C1100 113.701 1100.99 113.259 1101.98 113.129C1102.97 112.989 1104.16 114.413 1105.15 114.323C1106.15 114.232 1107.07 112.979 1108.07 112.938C1109.07 112.898 1110.1 113.851 1111.1 113.861C1112.1 113.861 1113.06 114.473 1114.05 114.523C1115.05 114.573 1116.02 114.513 1117.01 114.613C1118.01 114.724 1119.12 113.881 1120.1 114.042C1121.09 114.202 1122.11 114.302 1123.08 114.523C1124.06 114.744 1125.33 114.032 1126.28 114.302C1127.25 114.583 1127.84 116.168 1128.77 116.499C1129.72 116.84 1130.34 117.913 1131.25 118.314C1132.17 118.726 1133.38 118.455 1134.26 118.926C1135.15 119.408 1136.72 118.816 1137.56 119.358C1138.4 119.909 1139.32 120.551 1140.1 121.173C1140.89 121.795 1141.06 123.249 1141.78 123.941C1142.5 124.633 1142.05 126.389 1142.7 127.151C1143.35 127.913 1144.51 128.174 1145.08 129.006C1145.64 129.829 1146.97 130.19 1147.45 131.083C1147.92 131.955 1147.21 133.389 1147.6 134.332C1147.98 135.245 1149.03 135.897 1149.33 136.87C1149.62 137.813 1150.64 138.625 1150.84 139.628C1151.04 140.591 1148.96 141.915 1149.08 142.928C1149.17 143.73 1150.72 144.422 1151.28 145.215C1151.42 144.462 1151.65 143.811 1151.89 143.118C1152.23 142.146 1153.16 141.835 1153.72 141.062C1154.3 140.26 1154.07 138.966 1154.86 138.364C1155.63 137.783 1155.87 136.027 1156.8 135.616C1157.67 135.235 1159.42 137.371 1160.41 137.121C1161.34 136.89 1161.83 134.162 1162.83 134.031C1163.79 133.911 1164.88 133.921 1165.89 133.891C1166.86 133.861 1167.88 134.864 1168.88 134.904C1169.86 134.944 1170.73 136.148 1171.71 136.258C1172.69 136.358 1173.57 136.79 1174.54 136.95C1175.52 137.111 1176.78 135.586 1177.74 135.787C1178.72 135.987 1179.69 136.228 1180.63 136.469C1181.61 136.719 1182.82 136.178 1183.74 136.459C1184.72 136.759 1185.64 137.291 1186.53 137.612C1187.52 137.963 1187.73 140.15 1188.57 140.511C1189.59 140.952 1190.98 140.29 1191.73 140.711C1192.59 141.193 1193.65 141.403 1194.47 141.945C1195.29 142.487 1195.12 144.422 1195.91 145.014C1196.7 145.606 1198.55 144.844 1199.3 145.475C1200.05 146.107 1200.57 147.06 1201.28 147.742C1201.99 148.414 1201.61 150.18 1202.29 150.892C1202.97 151.604 1205.13 150.952 1205.78 151.704C1206.42 152.446 1207.22 153.128 1207.83 153.901C1208.44 154.673 1208.73 155.736 1209.31 156.538C1209.89 157.331 1210.89 157.882 1211.44 158.695C1211.99 159.517 1211.11 161.273 1211.63 162.115C1212.15 162.958 1214.25 162.857 1214.74 163.72C1215.23 164.572 1215.76 165.455 1216.22 166.328C1216.68 167.2 1215.3 169.036 1215.74 169.918C1216.18 170.801 1218.57 170.761 1218.98 171.654C1219.39 172.556 1218.98 173.85 1219.36 174.753C1219.4 174.843 1219.41 174.933 1219.44 175.024C1219.93 174.221 1221.5 173.75 1221.79 172.907C1222.12 171.954 1221.17 170.51 1221.59 169.597C1222.02 168.685 1222.44 167.712 1222.96 166.859C1223.47 166.007 1225.38 166.097 1225.97 165.285C1226.56 164.482 1226.97 163.62 1227.64 162.867C1228.3 162.125 1227.94 160.39 1228.67 159.688C1229.39 158.996 1230.49 158.695 1231.27 158.053C1232.04 157.421 1233.71 158.043 1234.54 157.461C1235.35 156.89 1235.31 155.064 1236.17 154.543C1237.02 154.021 1238.48 154.623 1239.37 154.141C1240.25 153.67 1240.77 152.557 1241.68 152.135C1242.58 151.714 1242.83 149.668 1243.77 149.297C1244.69 148.926 1246.49 150.852 1247.44 150.531C1248.38 150.21 1249.31 149.979 1250.27 149.698C1251.23 149.427 1252.11 148.986 1253.08 148.755C1254.05 148.525 1254.79 147.221 1255.77 147.04C1256.75 146.86 1257.84 147.271 1258.83 147.13C1259.82 146.99 1260.81 146.89 1261.8 146.799C1262.8 146.709 1263.77 146.408 1264.77 146.368C1265.77 146.328 1266.78 144.834 1267.77 144.834C1268.77 144.834 1269.71 147.401 1270.7 147.451C1271.7 147.502 1272.74 146.649 1273.73 146.759C1274.73 146.87 1275.87 146.017 1276.85 146.178C1277.84 146.338 1278.84 146.689 1279.81 146.91C1280.79 147.13 1281.66 147.883 1282.61 148.163C1282.76 148.204 1282.91 148.264 1283.05 148.314C1282.78 147.732 1282.48 147.15 1282.56 146.609C1282.72 145.606 1282.12 144.462 1282.34 143.48C1282.56 142.497 1284.78 142.055 1285.06 141.092C1285.34 140.119 1285.15 139.086 1285.49 138.144C1285.84 137.201 1285.1 135.827 1285.51 134.914C1285.91 134.031 1285.98 132.858 1286.51 131.925C1287 131.062 1289.01 131.133 1289.61 130.27C1290.18 129.438 1290.85 128.766 1291.5 127.973C1292.15 127.181 1291.86 125.586 1292.59 124.874C1293.33 124.142 1293.72 122.938 1294.52 122.326C1294.98 121.975 1295.58 121.835 1296.18 121.695C1296.12 121.273 1296.04 120.892 1295.85 120.661C1295.24 119.929 1294.44 119.478 1294.07 118.495C1293.73 117.612 1293.69 116.69 1293.52 115.646C1293.37 114.704 1293.52 113.771 1293.49 112.738C1293.46 111.775 1291.49 110.722 1291.55 109.689C1291.61 108.716 1293.95 107.923 1294.08 106.91C1294.21 105.927 1294.55 105.035 1294.73 104.042C1294.91 103.059 1292.79 101.595 1293.01 100.622C1293.24 99.6487 1294.78 98.9868 1295.04 98.0239C1295.31 97.051 1296.3 96.3188 1296.59 95.386C1296.9 94.4131 1295.92 93.029 1296.25 92.1163C1296.6 91.1333 1297.07 90.2206 1297.43 89.338C1297.83 88.345 1298.44 87.5025 1298.84 86.67C1299.33 85.647 1298.67 84.0622 1299.11 83.3301C1299.61 82.4976 1301.22 82.2769 1301.81 81.4344C1302.38 80.632 1302.82 79.6792 1303.46 78.8868C1304.09 78.1145 1305.96 78.4656 1306.65 77.7233C1307.33 76.9912 1307.6 75.938 1308.34 75.2459C1309.07 74.5639 1310.07 74.2831 1310.85 73.6512C1311.63 73.0193 1311.31 70.923 1312.13 70.3614C1312.96 69.7897 1314.54 70.4215 1315.4 69.9301C1316.28 69.4286 1316.92 68.5359 1317.82 68.1448C1318.75 67.7436 1319.63 67.222 1320.57 66.9412C1321.54 66.6603 1322.63 67.1919 1323.61 67.0615C1324.61 66.9211 1325.51 66.3695 1326.5 66.4096C1327.49 66.4497 1328.3 67.222 1329.29 67.4527C1330.25 67.6733 1331.68 66.4998 1332.61 66.9211C1333.49 67.3123 1334.38 68.0244 1335.23 68.6061C1336.02 69.1478 1336.65 70.0605 1337.42 70.7726C1338.12 71.4245 1338.57 72.0464 1339.25 72.8488C1339.27 71.8257 1340 71.1738 1340.11 70.1909C1340.23 69.1879 1339.05 67.9442 1339.27 66.9713C1339.5 65.9883 1341.42 65.5069 1341.75 64.5641C1342.08 63.6112 1341.13 62.1669 1341.55 61.2542C1341.98 60.3415 1342.4 59.3686 1342.92 58.516C1343.43 57.6635 1345.34 57.7538 1345.93 56.9413C1346.52 56.1389 1346.93 55.2764 1347.6 54.5241C1348.26 53.7819 1347.9 52.0467 1348.63 51.3446C1349.35 50.6526 1350.45 50.3517 1351.23 49.7098C1352 49.0779 1353.67 49.6997 1354.5 49.118C1355.31 48.5463 1355.27 46.7208 1356.13 46.1993C1356.98 45.6777 1358.44 46.2795 1359.33 45.7981C1360.21 45.3267 1360.73 44.2134 1361.64 43.7921C1362.54 43.3708 1362.79 41.3247 1363.73 40.9536C1364.65 40.5825 1366.45 42.5083 1367.4 42.1873C1368.34 41.8664 1369.27 41.6357 1370.23 41.3548C1371.19 41.084 1372.07 40.6427 1373.04 40.412C1374.01 40.1813 1374.75 38.8774 1375.73 38.6969C1376.71 38.5164 1377.8 38.9276 1378.79 38.7872C1379.78 38.6468 1380.77 38.5465 1381.76 38.4562C1382.76 38.3659 1383.73 38.065 1384.73 38.0249C1385.73 37.9848 1386.74 36.4903 1387.73 36.4903C1388.73 36.4903 1389.67 39.058 1390.66 39.1081C1391.66 39.1583 1392.7 38.3057 1393.69 38.4161C1394.69 38.5264 1395.83 37.6739 1396.81 37.8343C1397.8 37.9948 1398.8 38.3459 1399.77 38.5665C1400.75 38.7872 1401.62 39.5394 1402.57 39.8203C1403.54 40.1011 1404.42 40.6327 1405.35 40.9637C1406.3 41.3047 1406.68 42.8994 1407.59 43.3006C1408.51 43.7119 1409.85 43.1 1410.72 43.5714C1411.61 44.0529 1412.43 44.5744 1413.26 45.1161C1414.1 45.6677 1414.25 47.0418 1415.04 47.6637C1415.83 48.2855 1416.96 48.3557 1417.68 49.0478C1418.4 49.7398 1419.11 50.3617 1419.76 51.124C1420.41 51.8863 1420.45 52.9996 1421.02 53.822C1421.58 54.6445 1422.41 55.1861 1422.89 56.0788C1423.36 56.9514 1425.37 57.1118 1425.76 58.0446C1426.14 58.9574 1424.86 60.4919 1425.16 61.4648C1425.45 62.4076 1427.45 62.9493 1427.65 63.9523C1427.72 64.3234 1427.83 64.7045 1427.93 65.0856C1428.1 64.7246 1428.27 64.3735 1428.48 64.0927C1429.06 63.2903 1429.73 62.0967 1430.52 61.4949C1430.95 61.1639 1431.84 61.5852 1432.7 61.9463C1432.42 61.6353 1432.25 61.3244 1432.29 61.0436C1432.44 60.0506 1435.32 59.519 1435.52 58.506C1435.72 57.513 1435.27 56.4098 1435.52 55.4168C1435.77 54.4339 1434.99 53.1701 1435.27 52.1872C1435.56 51.2042 1436.62 50.472 1436.94 49.5092C1437.26 48.5363 1437.96 47.7138 1438.3 46.771C1438.65 45.7981 1438.36 44.6045 1438.73 43.6717C1439.12 42.7089 1438.34 41.2545 1438.74 40.3418C1439.16 39.3789 1441.32 39.2385 1441.75 38.3559C1442.21 37.393 1441.65 35.9688 1442.1 35.1162C1442.61 34.1433 1443.98 33.7421 1444.45 32.9397C1445.04 31.9468 1444.35 30.2216 1444.87 29.5195C1445.47 28.7071 1446.53 28.1454 1447.22 27.3631C1447.89 26.5908 1449.54 26.7412 1450.28 26.0091C1451.01 25.2869 1451.17 23.9629 1451.95 23.2909C1452.74 22.629 1453.38 21.7263 1454.21 21.1345C1455.05 20.5327 1456.84 21.4755 1457.72 20.954C1458.62 20.4324 1459.41 20.0212 1460.34 19.5999C1461.29 19.1686 1462.03 18.6371 1463 18.3261C1463.99 18.0052 1464.49 15.7484 1465.5 15.5779C1466.52 15.4074 1467.71 16.942 1468.73 16.942C1469.76 16.942 1470.62 17.2128 1471.63 17.4034C1472.63 17.5939 1473.31 18.1857 1474.28 18.5769C1475.21 18.948 1476.33 18.6571 1477.22 19.2389C1478.05 19.7805 1479.4 19.6902 1480.2 20.4124C1480.93 21.0743 1481.7 21.8366 1482.39 22.6691C1483.02 23.4314 1483.69 24.2739 1484.28 25.1866C1484.82 26.0091 1485.76 26.7312 1486.27 27.6841C1486.73 28.5567 1486.4 30.7031 1486.83 31.696C1486.97 30.673 1486.49 28.7773 1486.7 27.8144C1486.91 26.8114 1486.66 25.6379 1486.94 24.6851C1487.23 23.7022 1490.05 23.6019 1490.4 22.6791C1490.77 21.7263 1490.01 20.3823 1490.45 19.4896C1490.9 18.5669 1492.06 18.1356 1492.58 17.283C1493.11 16.4104 1493.76 15.7685 1494.35 14.9761C1494.96 14.1637 1494.61 12.6392 1495.28 11.907C1495.96 11.1648 1496.95 10.7636 1497.7 10.1016C1498.45 9.42959 1498.74 8.18588 1499.55 7.59412C1500.36 7.00235 1500.67 5.48783 1501.54 4.96628C1502.4 4.45475 1503.57 4.27421 1504.48 3.83289C1505.38 3.40161 1506.39 2.96029 1507.33 2.60924C1508.27 2.2582 1509.66 3.19098 1510.64 2.91014C1511.6 2.63933 1512.57 2.43874 1513.56 2.23814C1514.54 2.03754 1515.6 2.56912 1516.6 2.43874C1517.59 2.30835 1518.53 2.30835 1519.54 2.23814C1520.54 2.17796 1521.48 1.74667 1522.49 1.7567C1523.49 1.7567 1524.57 -0.0587158 1525.58 0.00146378C1526.58 0.0616433 1527.43 1.91718 1528.43 2.04757C1529.42 2.16793 1530.6 1.14487 1531.59 1.33544C1532.57 1.51598 1533.16 3.54203 1534.14 3.78274C1535.11 4.01343 1536.25 3.47182 1537.22 3.75265C1538.18 4.03349 1539.38 3.58215 1540.33 3.91313C1541.27 4.24412 1541.73 5.82885 1542.66 6.20999C1543.59 6.59112 1544.75 6.37046 1545.66 6.81178C1546.56 7.24307 1547 8.53693 1547.88 9.01836C1548.76 9.4998 1550.47 8.51687 1551.33 9.03842C1552.18 9.55998 1552.37 11.1146 1553.2 11.6863C1554.03 12.258 1555.51 11.917 1556.3 12.5389C1557.09 13.1507 1557.28 14.5248 1558.04 15.1767C1558.8 15.8287 1559.94 16.0594 1560.67 16.7615C1561.39 17.4535 1561.95 18.3261 1562.64 19.0583C1563.32 19.7905 1564.26 20.3121 1564.91 21.0944C1565.55 21.8667 1565.98 22.8195 1566.58 23.632C1567.17 24.4444 1567.32 25.5477 1567.87 26.4002C1568.41 27.2427 1570.32 27.2929 1570.82 28.1655C1571.31 29.0381 1570.3 30.7331 1570.74 31.6459C1571.18 32.5486 1572.09 33.2206 1572.48 34.1534C1572.86 35.0761 1573.42 35.9487 1573.75 36.9116C1574.08 37.8544 1575.16 38.6066 1575.44 39.5896C1575.71 40.5524 1574.36 41.9366 1574.58 42.9295C1574.79 43.9024 1574.5 44.9355 1574.65 45.9385C1574.8 46.9214 1576.72 47.6837 1576.82 48.6967C1576.92 49.6897 1576.02 50.7729 1576.07 51.796C1576.11 52.7889 1576.03 53.7819 1576.02 54.805C1576.02 55.1259 1576.21 55.4669 1576.46 55.808C1576.69 55.4569 1576.91 55.1159 1577.09 54.825C1577.64 53.9223 1579.98 54.7348 1580.69 54.133C1581.46 53.481 1581.61 52.458 1582.54 52.1169C1583.44 51.786 1584.27 51.7659 1585.29 51.6957C1586.23 51.6255 1587.16 51.0437 1588.18 51.1641C1589.12 51.2744 1590.3 50.6225 1591.29 50.8833C1592.22 51.124 1592.56 53.3205 1593.51 53.6716C1594.42 54.0026 1595.73 53.2804 1596.65 53.6916C1597.54 54.0928 1597.97 55.4068 1598.86 55.8681C1599.73 56.3195 1601.76 54.7047 1602.62 55.2062C1603.47 55.7077 1603.45 57.6735 1604.28 58.2151C1605.12 58.7568 1606.23 58.8671 1607.03 59.4288C1607.85 60.0005 1607.68 61.8861 1608.45 62.4779C1609.25 63.0897 1611.37 61.9764 1612.12 62.5882C1612.91 63.2401 1613.42 64.203 1614.12 64.8449C1614.9 65.547 1615.13 66.7506 1615.78 67.4025C1616.55 68.1648 1618.08 68.1347 1618.65 68.8067C1619.29 69.559 1618.94 71.1236 1619.55 71.896C1620.16 72.6683 1622.3 72.2971 1622.88 73.0895C1623.47 73.8819 1622.85 75.5669 1623.4 76.3793C1623.96 77.1917 1624.79 77.8337 1625.32 78.6661C1625.85 79.4986 1626.42 80.3211 1626.91 81.1736C1627.4 82.0262 1626.6 83.5908 1627.06 84.4534C1627.52 85.326 1627.72 86.2789 1628.14 87.1615C1628.57 88.0542 1630.08 88.4052 1630.48 89.3079C1630.87 90.2106 1631.27 91.1133 1631.63 92.026C1631.99 92.9488 1632.48 93.8113 1632.8 94.7441C1633.12 95.6769 1634.08 96.4191 1634.36 97.372C1634.64 98.3148 1635.11 99.2476 1635.36 100.2C1635.6 101.153 1635.13 102.307 1635.33 103.27C1635.53 104.232 1635.08 105.316 1635.24 106.289C1635.4 107.261 1635.12 108.274 1635.24 109.247C1635.36 110.23 1637.47 111.013 1637.55 111.996C1637.63 112.979 1637.52 114.022 1637.55 115.005C1637.58 115.987 1635.13 117.001 1635.12 117.983C1635.12 118.966 1637.98 120.04 1637.93 121.033C1637.88 122.015 1637.32 123.018 1637.22 124.001C1637.13 124.984 1635.48 125.807 1635.34 126.79C1635.18 128.334 1636.57 128.324 1636.62 129.909C1636.67 131.464 1636.64 131.594 1636.5 133.149C1636.36 134.693 1636.41 134.703 1636.27 136.248C1636.13 137.793 1634.8 137.672 1634.67 139.217C1634.53 140.761 1635.54 140.852 1635.4 142.396C1635.26 143.941 1635.16 143.931 1635.02 145.475C1634.88 147.02 1633.33 146.88 1633.19 148.424C1633.05 149.969 1633.26 149.989 1633.12 151.534C1632.98 153.078 1634.89 153.249 1634.75 154.793C1634.61 156.338 1632.64 156.157 1632.5 157.702C1632.36 159.247 1632.49 159.257 1632.35 160.801C1632.21 162.346 1631.72 162.296 1631.58 163.84C1631.44 165.385 1632.73 165.505 1632.59 167.05C1632.45 168.594 1633.01 168.645 1632.87 170.189C1632.73 171.734 1630.3 171.854 1630.55 173.389C1631.45 174.001 1633.95 172.887 1634.77 173.188C1635.75 173.549 1636.1 175.816 1637.02 175.916C1638.01 176.027 1639.02 176.127 1639.98 176.167C1640.94 176.207 1641.88 175.726 1642.86 175.946C1643.74 176.147 1644.16 177.16 1645.1 177.692C1645.85 178.123 1648.24 177.441 1649.05 178.203C1648.76 179.226 1647.73 180.56 1647.7 181.573C1647.67 182.606 1647.46 183.639 1647.6 184.662C1647.75 185.675 1646.92 186.919 1647.13 187.932C1647.34 188.935 1649.72 189.517 1649.9 190.53C1650.09 191.543 1649.52 192.736 1649.58 193.77C1649.64 194.793 1650.67 196.056 1650.5 197.089C1650.34 198.092 1647.92 198.594 1647.65 199.517C1647.37 200.48 1648.67 201.984 1648.3 202.877C1647.92 203.799 1646.82 204.421 1646.38 205.294C1645.93 206.177 1645.15 206.879 1644.67 207.731C1644.19 208.594 1642.86 208.975 1642.38 209.837C1641.9 210.7 1641.14 211.472 1640.69 212.355C1640.23 213.258 1641.73 215.173 1641.25 216.036C1640.76 216.929 1640.14 217.751 1639.63 218.594C1639.11 219.466 1638.81 220.499 1638.26 221.322C1637.7 222.164 1637.05 222.997 1636.46 223.779C1635.85 224.592 1635.3 225.524 1634.65 226.256C1633.98 227.019 1631.6 226.076 1630.89 226.758C1630.16 227.45 1630.12 228.814 1629.33 229.416C1628.53 230.028 1627.4 229.988 1626.54 230.479C1625.68 230.981 1625.59 233.017 1624.66 233.398C1623.75 233.779 1622.79 234.481 1621.81 234.732C1620.87 234.982 1619.6 234.11 1618.59 234.23C1618.5 234.24 1618.42 234.26 1618.33 234.27C1618.33 234.722 1618.34 235.163 1618.46 235.584C1618.73 236.557 1618.54 237.58 1618.72 238.573C1618.91 239.566 1621.05 240.288 1621.16 241.291C1621.26 242.294 1621.16 243.408 1621.17 244.421C1621.18 245.424 1618.69 246.346 1618.62 247.359C1618.55 248.352 1621.32 249.676 1621.17 250.689C1621.02 251.672 1620.34 252.665 1620.11 253.658C1619.89 254.631 1618.13 255.243 1617.83 256.226C1617.45 257.73 1618.85 257.921 1618.67 259.496C1618.5 261.04 1617.58 260.96 1617.21 262.474C1616.85 263.979 1617.9 264.23 1617.54 265.744C1617.18 267.249 1614.99 266.727 1614.63 268.232C1614.27 269.736 1615.95 270.147 1615.59 271.652C1615.23 273.156 1614.52 272.986 1614.16 274.49C1613.8 275.995 1613.46 275.915 1613.1 277.419C1612.74 278.924 1611.81 278.703 1611.45 280.207C1611.09 281.712 1610.81 281.642 1610.45 283.156C1610.09 284.661 1612.24 285.182 1611.88 286.687C1611.52 288.191 1611.39 288.161 1611.03 289.666C1610.67 291.17 1610.5 290.919 1610.62 292.464C1611.61 292.885 1611.81 292.374 1612.74 292.534C1613.76 292.715 1614.61 292.594 1615.58 292.594C1616.55 292.594 1617.66 294.901 1618.64 294.851C1619.64 294.801 1620.56 293.758 1621.56 293.818C1622.53 293.878 1623.24 294.64 1624.24 294.951C1625.13 295.222 1627.08 294.44 1628.01 295.022C1627.54 295.954 1627.68 297.218 1627.59 298.111C1627.49 299.074 1626.46 299.896 1626.6 300.829C1626.74 301.772 1627.17 302.664 1627.35 303.597C1627.53 304.54 1628.39 305.523 1628.4 306.486C1628.41 307.409 1627.34 308.361 1627.02 309.324C1626.68 310.357 1627.09 311.822 1626.56 312.754C1626.04 313.687 1625.6 314.861 1624.96 315.733C1624.32 316.596 1622.39 316.476 1621.69 317.298C1620.99 318.121 1621.53 320.016 1620.83 320.829C1620.12 321.651 1617.94 321.21 1617.28 322.042C1616.63 322.855 1615.96 323.617 1615.3 324.399C1614.62 325.192 1614.03 326.024 1613.34 326.776C1612.63 327.539 1611.86 328.191 1611.13 328.913C1610.39 329.645 1610.53 331.33 1609.75 332.002C1608.97 332.684 1607.23 332.182 1606.41 332.814C1605.59 333.436 1605.39 334.931 1604.52 335.492C1603.66 336.054 1602.47 336.084 1601.55 336.576C1600.65 337.067 1599.61 337.207 1598.65 337.629C1597.71 338.04 1597.1 339.284 1596.11 339.615C1595.15 339.946 1594.06 339.956 1593.04 340.206C1592.06 340.447 1591.14 341.26 1590.1 341.43C1589.1 341.601 1587.99 341.039 1587 341.099C1585.99 341.159 1584.95 341.942 1583.96 341.901C1582.94 341.861 1581.88 341.601 1580.9 341.45C1579.89 341.29 1578.76 341.31 1577.81 341.029C1576.83 340.738 1576.41 338.943 1575.51 338.531C1574.58 338.11 1573.8 337.669 1572.97 337.117C1572.13 336.556 1571.24 336.215 1570.51 335.522C1569.78 334.83 1569.18 334.128 1568.58 333.306C1568 332.503 1566.27 332.293 1565.84 331.36C1565.37 330.367 1566.86 328.742 1566.64 327.759C1566.51 327.157 1566.46 326.636 1566.44 326.114C1565.69 326.656 1565.28 327.799 1564.46 328.211C1563.58 328.662 1562.83 329.364 1561.93 329.775C1561.03 330.186 1559.8 329.755 1558.88 330.116C1557.96 330.477 1557 330.608 1556.07 330.929C1555.14 331.25 1554.75 333.236 1553.8 333.516C1552.86 333.797 1551.88 334.068 1550.92 334.309C1549.96 334.549 1549.08 335.272 1548.11 335.472C1547.15 335.673 1545.97 334.901 1544.99 335.071C1544.02 335.232 1542.83 333.747 1541.85 333.878C1540.87 333.998 1540.09 335.773 1539.11 335.863C1538.13 335.944 1537.09 335.111 1536.1 335.161C1535.12 335.211 1534.16 335.673 1533.17 335.693C1532.37 335.703 1531.34 336.114 1530.14 336.114C1529.22 336.114 1528.19 335.914 1527.1 335.904C1526.13 335.884 1525.07 336.887 1524.02 336.836C1523.03 336.796 1521.97 336.897 1520.95 336.826C1519.94 336.756 1518.9 336.556 1517.89 336.455C1516.87 336.345 1515.92 335.532 1514.93 335.372C1513.9 335.212 1512.96 334.63 1512.01 334.419C1510.97 334.178 1510.31 332.985 1509.41 332.674C1508.37 332.303 1507.29 332.513 1506.51 332.032C1505.54 331.43 1505.34 330.638 1504.93 329.815C1504.59 329.143 1504.26 328.682 1504.28 327.97C1503.89 328.542 1503.35 329.043 1502.95 329.695C1502.45 330.497 1503.49 332.523 1502.83 333.306C1502.22 334.028 1500.97 334.359 1500.24 335.061C1499.55 335.723 1498.2 335.713 1497.42 336.355C1496.68 336.967 1495.27 336.656 1494.46 337.248C1493.68 337.809 1493.65 339.464 1492.81 340.006C1491.99 340.527 1490.85 340.517 1489.99 341.019C1489.15 341.51 1488.87 343.055 1488 343.516C1487.14 343.978 1485.32 342.523 1484.44 342.945C1483.56 343.366 1483.39 345.312 1482.49 345.703C1481.59 346.104 1480.62 346.325 1479.71 346.696C1478.79 347.067 1478.3 348.581 1477.38 348.912C1476.45 349.253 1475.03 348.18 1474.1 348.481C1473.15 348.792 1472.14 348.792 1471.21 349.053C1470.25 349.324 1469.38 349.835 1468.45 350.056C1467.47 350.286 1466.81 352.082 1465.88 352.262C1464.88 352.453 1463.61 350.938 1462.68 351.059C1461.65 351.189 1460.75 352.864 1459.83 352.894C1458.77 352.934 1457.74 351.49 1456.86 351.39C1455.94 351.289 1454.71 352.182 1453.65 351.931C1452.72 351.721 1451.98 350.417 1450.97 350.096C1450.04 349.805 1449.42 348.581 1448.45 348.21C1447.53 347.859 1446.49 347.829 1445.55 347.418C1444.64 347.017 1443.88 346.345 1442.97 345.883C1442.07 345.432 1440.72 345.853 1439.85 345.342C1438.97 344.83 1437.62 345.031 1436.79 344.469C1435.94 343.907 1435.56 342.624 1434.77 342.012C1433.96 341.39 1434.23 339.554 1433.51 338.892C1432.75 338.19 1431.35 338.281 1430.7 337.538C1430.01 336.756 1429.68 335.833 1429.15 335.011C1428.59 334.128 1427.29 333.687 1426.94 332.774C1426.57 331.811 1427.57 330.628 1427.48 329.635C1427.39 328.642 1426.77 327.779 1427 326.766C1427.19 325.914 1427.83 325.302 1428.33 324.5C1427.46 324.349 1426.51 323.687 1425.71 323.838C1424.71 324.028 1423.94 325.412 1422.96 325.593C1421.95 325.773 1420.74 324.67 1419.76 324.841C1418.75 325.011 1418.14 327.549 1417.16 327.709C1416.15 327.87 1414.87 326.134 1413.89 326.265C1412.87 326.405 1411.87 326.365 1410.89 326.475C1410.26 326.546 1409.68 327.097 1409.1 327.539C1408.95 328.04 1408.83 328.522 1408.78 328.943C1408.66 329.916 1409.01 330.658 1409.15 331.611C1409.29 332.554 1409.44 333.466 1409.62 334.409C1409.8 335.352 1410.13 336.455 1410.13 337.428C1410.13 338.351 1407.72 338.832 1407.38 339.805C1407.07 340.678 1407.65 341.811 1407.2 342.614C1406.75 343.416 1405.74 343.767 1405.19 344.519C1404.65 345.261 1405.48 347.077 1404.88 347.789C1404.29 348.491 1403.92 349.444 1403.3 350.126C1402.68 350.808 1401.24 350.748 1400.63 351.44C1400.01 352.132 1399.57 352.964 1398.98 353.667C1398.34 354.429 1398.22 355.663 1397.57 356.395C1396.91 357.137 1395.52 357.227 1394.84 357.939C1394.16 358.661 1394.14 360.076 1393.44 360.758C1392.73 361.45 1392.15 362.363 1391.41 363.014C1390.66 363.666 1388.88 363.095 1388.1 363.696C1387.32 364.298 1387.46 366.244 1386.65 366.796C1385.84 367.347 1383.95 366.244 1383.09 366.746C1382.24 367.237 1381.39 367.658 1380.5 368.1C1379.62 368.531 1378.8 369.012 1377.88 369.383C1376.98 369.745 1376.05 369.975 1375.1 370.276C1374.17 370.567 1373.58 372.122 1372.6 372.352C1371.66 372.583 1370.39 371.319 1369.4 371.49C1368.37 371.66 1367.49 372.874 1366.47 372.954C1365.42 373.034 1364.37 372.463 1363.35 372.443C1362.3 372.412 1361.34 372.011 1360.33 371.871C1359.29 371.73 1358.1 372.453 1357.12 372.192C1356.1 371.921 1355.18 371.309 1354.24 370.918C1353.27 370.517 1352.02 370.557 1351.15 370.025C1350.26 369.484 1349.78 368.28 1349.01 367.598C1348.24 366.906 1346.92 366.615 1346.29 365.783C1345.67 364.97 1345.18 363.887 1344.73 362.934C1344.39 362.222 1343.98 361.48 1343.69 360.758C1342.95 361.129 1342.19 361.49 1341.44 361.831C1340.56 362.232 1339.55 362.423 1338.66 362.784C1337.76 363.155 1337.1 364.218 1336.18 364.549C1335.27 364.88 1334.36 365.382 1333.44 365.682C1332.52 365.973 1330.82 363.666 1329.89 363.927C1328.96 364.188 1328.28 365.321 1327.33 365.542C1326.39 365.763 1325.51 366.274 1324.56 366.465C1323.61 366.655 1322.52 365.963 1321.56 366.114C1320.61 366.264 1319.65 366.184 1318.69 366.304C1317.73 366.425 1316.96 368.29 1315.99 368.37C1315.03 368.461 1314.04 368.531 1313.07 368.581C1312.11 368.631 1311.13 369.183 1310.16 369.203C1309.39 369.223 1308.38 368.27 1307.24 368.29C1306.36 368.3 1305.38 366.675 1304.34 366.665C1303.42 366.665 1302.43 368.33 1301.43 368.31C1300.49 368.29 1299.55 367.357 1298.56 367.307C1297.6 367.267 1296.61 367.648 1295.64 367.568C1294.67 367.498 1293.67 367.799 1292.71 367.698C1291.73 367.588 1290.79 367.267 1289.85 367.117C1288.86 366.956 1287.67 367.769 1286.76 367.558C1285.76 367.317 1284.65 367.157 1283.81 366.846C1282.81 366.475 1281.74 365.833 1281.02 365.341C1280.12 364.73 1279.7 363.265 1279.36 362.433C1279.2 362.042 1279.2 361.58 1279.28 361.099C1278.98 361.43 1278.67 361.761 1278.41 362.162C1277.87 362.974 1277.61 363.967 1276.89 364.76C1276.23 365.492 1275.83 366.515 1275.05 367.237C1274.32 367.909 1273.37 368.37 1272.54 369.012C1271.75 369.624 1270.68 369.855 1269.82 370.447C1268.99 371.018 1269.23 373.295 1268.34 373.837C1267.48 374.368 1266.21 374.318 1265.31 374.82C1264.42 375.311 1263.09 375 1262.17 375.472C1261.26 375.933 1259.88 375.381 1258.95 375.823C1258.02 376.254 1257.66 377.899 1256.72 378.3C1255.78 378.701 1254.61 378.531 1253.66 378.902C1252.7 379.273 1252.17 380.777 1251.21 381.118C1250.24 381.459 1248.61 379.784 1247.64 380.095C1246.65 380.406 1246.17 382.312 1245.21 382.593C1244.2 382.874 1243.17 382.974 1242.2 383.205C1241.18 383.445 1240.4 384.89 1239.43 385.07C1238.39 385.271 1237.11 383.977 1236.14 384.107C1235.07 384.248 1234.05 384.047 1233.09 384.087C1231.98 384.137 1230.99 384.388 1230.07 384.298C1229.13 384.208 1227.8 385.632 1226.72 385.411C1225.76 385.211 1225.12 383.315 1224.08 383.024C1223.12 382.753 1221.62 383.957 1220.62 383.606C1219.67 383.275 1219.17 381.58 1218.2 381.179C1217.26 380.787 1215.85 381.369 1214.91 380.918C1213.98 380.477 1213.51 379.052 1212.61 378.561C1211.7 378.069 1211.31 376.735 1210.44 376.194C1209.56 375.642 1208.54 375.401 1207.72 374.81C1206.87 374.198 1206.28 373.375 1205.52 372.723C1204.72 372.031 1203.3 372.082 1202.62 371.349C1201.9 370.567 1200.51 370.246 1199.95 369.414C1199.71 369.052 1199.59 368.611 1199.51 368.15C1199.36 367.949 1199.2 367.769 1199.02 367.608C1198.25 366.916 1196.93 366.625 1196.3 365.793C1195.68 364.98 1195.19 363.897 1194.74 362.944C1194.4 362.232 1193.99 361.49 1193.7 360.768C1192.96 361.139 1192.2 361.5 1191.45 361.841C1190.57 362.242 1189.56 362.433 1188.67 362.794C1187.77 363.165 1187.11 364.228 1186.19 364.559C1185.28 364.89 1184.37 365.392 1183.45 365.692C1182.53 365.983 1180.83 363.676 1179.9 363.937C1178.97 364.198 1178.29 365.331 1177.34 365.552C1176.4 365.773 1175.52 366.284 1174.57 366.475C1173.62 366.665 1172.53 365.973 1171.57 366.124C1170.62 366.274 1169.66 366.194 1168.7 366.314C1167.74 366.435 1166.97 368.3 1166 368.38C1165.04 368.471 1164.05 368.541 1163.08 368.591C1162.12 368.641 1161.14 369.193 1160.17 369.213C1159.4 369.233 1158.39 368.28 1157.25 368.3C1156.37 368.31 1155.39 366.685 1154.35 366.675C1153.43 366.675 1152.44 368.34 1151.44 368.32C1150.5 368.3 1149.56 367.367 1148.57 367.317C1147.61 367.277 1146.62 367.658 1145.65 367.578C1144.68 367.508 1143.68 367.809 1142.72 367.708C1141.74 367.598 1140.8 367.277 1139.86 367.127C1138.87 366.966 1137.68 367.779 1136.77 367.568C1135.77 367.327 1134.66 367.167 1133.82 366.856C1132.82 366.485 1131.75 365.843 1131.03 365.351C1130.13 364.74 1129.71 363.275 1129.37 362.443C1129.21 362.052 1129.21 361.59 1129.29 361.109C1128.99 361.44 1128.68 361.771 1128.42 362.172C1127.88 362.984 1127.62 363.977 1126.9 364.77C1126.24 365.502 1125.84 366.525 1125.06 367.247C1124.33 367.919 1123.38 368.38 1122.55 369.022C1121.76 369.634 1120.69 369.865 1119.83 370.457C1119 371.028 1119.24 373.305 1118.35 373.847C1117.49 374.378 1116.22 374.328 1115.32 374.83C1114.43 375.321 1113.1 375.01 1112.18 375.482C1111.27 375.943 1109.89 375.391 1108.96 375.833C1108.03 376.264 1107.67 377.909 1106.73 378.31C1105.79 378.711 1104.62 378.541 1103.67 378.912C1102.71 379.283 1102.18 380.787 1101.22 381.128C1100.25 381.47 1098.62 379.794 1097.65 380.105C1096.66 380.416 1096.18 382.322 1095.22 382.603C1094.21 382.884 1093.18 382.984 1092.21 383.215C1091.19 383.455 1090.41 384.9 1089.44 385.08C1088.4 385.281 1087.12 383.987 1086.15 384.117C1085.08 384.258 1084.06 384.057 1083.1 384.097C1081.99 384.147 1081 384.398 1080.08 384.308C1079.14 384.218 1077.81 385.642 1076.73 385.421C1075.77 385.221 1075.13 383.325 1074.09 383.034C1073.13 382.763 1071.63 383.967 1070.63 383.616C1069.68 383.285 1069.18 381.59 1068.21 381.189C1067.27 380.798 1065.86 381.379 1064.92 380.928C1063.99 380.487 1063.52 379.062 1062.62 378.571C1061.71 378.079 1061.32 376.745 1060.45 376.204C1059.57 375.652 1058.55 375.411 1057.73 374.82C1056.88 374.208 1056.29 373.385 1055.53 372.733C1054.73 372.041 1053.31 372.092 1052.63 371.359C1051.91 370.577 1050.52 370.256 1049.96 369.424C1049.36 368.541 1049.53 367.137 1049.16 366.204C1048.77 365.221 1050.07 364.027 1049.98 363.014C1049.89 362.001 1048.9 361.189 1049.15 360.146C1049.38 359.203 1049.98 358.481 1050.53 357.528C1050.61 357.388 1050.67 357.227 1050.73 357.067C1049.91 357.097 1049.06 356.916 1048.28 357.067C1047.29 357.267 1046.73 359.674 1045.76 359.855C1044.76 360.046 1043.49 358.661 1042.52 358.832C1041.52 359.013 1040.65 359.825 1039.67 359.975C1038.67 360.146 1037.49 359.023 1036.52 359.173C1035.51 359.323 1034.69 360.657 1033.72 360.788C1032.71 360.918 1031.58 359.735 1030.6 359.825C1029.59 359.925 1028.78 362.413 1027.8 362.473C1026.78 362.543 1025.68 360.688 1024.7 360.708C1023.68 360.728 1022.71 360.577 1021.74 360.557C1020.72 360.527 1019.64 361.791 1018.66 361.701C1017.64 361.61 1016.71 360.828 1015.74 360.657C1014.73 360.487 1013.87 359.845 1012.92 359.594C1011.94 359.323 1011.37 358.18 1010.46 357.809C1009.52 357.428 1007.44 359.454 1006.57 358.962C1005.7 358.471 1005.06 357.327 1004.27 356.716C1003.49 356.114 1002.22 355.793 1001.51 355.061C1000.83 354.359 1000.76 352.924 1000.15 352.102C999.567 351.32 999.307 350.236 998.787 349.344C998.297 348.501 997.317 347.839 996.887 346.886C996.487 346.004 996.597 344.83 996.247 343.857C995.917 342.945 994.597 342.273 994.307 341.27C994.037 340.337 995.517 338.892 995.287 337.889C995.227 337.599 995.087 337.328 994.937 337.057C994.217 336.375 993.817 334.409 992.997 334.158C992.037 333.857 990.357 335.472 989.437 335.061C988.517 334.65 987.307 334.489 986.437 333.968C985.577 333.456 985.397 331.761 984.597 331.139C983.817 330.518 984.047 328.873 983.337 328.14C982.887 327.679 981.587 327.92 980.567 327.93C979.827 328.642 978.487 329.364 978.397 330.156C978.277 331.169 979.217 332.343 979.007 333.406C978.797 334.429 979.547 335.723 979.277 336.756C979.007 337.779 978.527 338.792 978.217 339.785C977.887 340.818 975.597 341.139 975.247 342.102C974.857 343.155 976.907 345.121 976.517 346.014C976.047 347.127 974.297 347.548 973.887 348.321C973.417 349.213 974.127 350.918 973.567 351.711C972.987 352.523 971.877 353.095 971.207 353.807C970.537 354.539 970.067 355.673 969.327 356.314C968.577 356.956 967.537 357.438 966.737 357.999C965.937 358.571 964.127 357.628 963.277 358.14C962.437 358.651 961.777 359.454 960.907 359.915C960.037 360.377 959.787 362.092 958.897 362.533C958.007 362.964 957.217 363.646 956.327 364.068C955.437 364.489 954.087 363.937 953.197 364.358C952.357 364.76 950.737 363.546 949.827 363.957C948.967 364.348 949.157 367.267 948.247 367.638C947.367 367.999 946.447 368.471 945.537 368.812C944.637 369.153 943.377 368.621 942.457 368.922C941.537 369.223 940.037 367.548 939.107 367.809C938.167 368.07 937.687 370.025 936.747 370.236C935.787 370.447 934.827 370.758 933.887 370.888C932.907 371.028 931.917 371.771 930.977 371.811C929.977 371.851 928.857 371.781 927.927 371.68C926.927 371.58 926.417 369.303 925.517 369.022C924.517 368.711 922.497 370.447 921.637 369.875C920.787 369.303 920.397 367.879 919.637 367.157C918.897 366.445 917.497 366.274 916.797 365.522C916.087 364.76 917.007 362.463 916.297 361.741C915.557 360.988 913.857 361.36 913.057 360.758C912.217 360.126 911.767 358.982 910.807 358.641C909.667 358.25 908.567 359.023 907.617 358.952C906.487 358.872 905.347 357.307 904.347 357.538C903.327 357.769 902.527 358.912 901.477 359.253C900.527 359.574 899.447 359.574 898.347 359.835C897.387 360.066 896.347 359.504 895.197 359.594C894.277 359.664 893.327 360.698 892.207 360.637C891.247 360.587 890.117 361.169 889.057 361.018C888.077 360.878 886.957 360.958 885.927 360.738C884.947 360.527 884.527 357.949 883.517 357.668C882.537 357.398 881.347 357.989 880.367 357.668C879.397 357.337 878.297 357.398 877.347 357.007C876.397 356.615 874.837 357.468 873.927 357.007C872.997 356.545 873.137 354.108 872.267 353.586C871.377 353.045 870.467 352.694 869.657 352.092C868.817 351.46 867.797 351.159 867.087 350.467C866.337 349.725 865.267 349.273 864.697 348.461C864.087 347.608 862.817 346.936 862.447 346.004C862.067 345.051 863.427 343.596 863.337 342.563C863.277 341.871 862.517 341.099 862.147 340.327C861.407 340.126 860.647 339.835 860.107 340.066C859.157 340.477 858.527 341.57 857.607 341.962C856.657 342.363 855.467 342.122 854.547 342.493C853.587 342.874 853.087 344.409 852.157 344.75C851.187 345.111 849.637 343.717 848.697 344.028C847.717 344.359 846.867 344.88 845.917 345.151C844.917 345.442 844.467 347.739 843.497 347.97C842.487 348.2 841.337 347.849 840.357 348.01C839.327 348.17 838.227 347.398 837.237 347.468C836.207 347.538 835.257 347.117 834.267 347.077C833.237 347.037 832.327 347.077 831.337 346.906C830.337 346.736 828.967 348.03 828.007 347.719C827.047 347.408 825.857 347.257 824.947 346.786C824.057 346.335 823.667 344.86 822.807 344.258C821.997 343.687 820.967 343.316 820.187 342.604C819.467 341.942 820.107 339.956 819.407 339.163C818.857 338.541 817.447 338.642 816.637 338.17C816.347 338.17 816.077 338.19 815.817 338.281C814.867 338.622 814.507 340.648 813.547 340.939C812.587 341.229 811.247 340.076 810.267 340.307C809.287 340.547 808.287 340.307 807.297 340.487C806.297 340.668 805.527 341.901 804.527 342.022C803.517 342.142 802.537 342.122 801.547 342.172C800.537 342.222 799.537 343.055 798.547 343.025C797.537 342.995 796.507 342.824 795.517 342.714C794.507 342.604 793.307 343.326 792.337 343.125C791.347 342.924 790.857 340.728 789.897 340.427C788.937 340.126 787.317 341.53 786.397 341.129C785.477 340.718 784.267 340.537 783.407 340.026C782.547 339.514 782.297 337.9 781.507 337.268C780.727 336.646 780.417 335.502 779.707 334.77C779.167 334.219 778.267 333.968 777.597 333.506C777.257 334.369 775.847 335.252 775.737 336.215C775.617 337.228 776.397 338.391 776.187 339.464C775.977 340.487 776.667 341.771 776.397 342.804C776.127 343.827 774.427 344.459 774.107 345.452C773.777 346.485 775.137 348.1 774.787 349.063C774.397 350.116 771.907 350.286 771.517 351.179C771.047 352.292 771.557 353.707 771.147 354.479C770.677 355.372 770.667 356.615 770.107 357.408C769.527 358.22 768.617 358.882 767.957 359.604C767.287 360.336 767.087 361.721 766.337 362.362C765.587 363.004 763.517 362.021 762.707 362.583C761.907 363.155 761.587 364.459 760.737 364.97C759.897 365.472 758.647 365.261 757.777 365.733C756.907 366.194 755.617 365.773 754.727 366.204C753.837 366.635 753.847 368.922 752.957 369.343C752.067 369.765 750.387 368.531 749.497 368.952C748.657 369.353 748.657 371.67 747.747 372.081C746.887 372.473 745.747 372.312 744.827 372.693C743.947 373.054 742.817 372.844 741.897 373.195C740.997 373.536 740.407 374.82 739.487 375.121C738.567 375.421 737.537 375.492 736.617 375.752C735.677 376.013 734.547 375.532 733.617 375.732C732.657 375.943 731.727 376.184 730.787 376.314C729.807 376.455 728.887 377.437 727.947 377.468C726.947 377.508 726.067 375.682 725.137 375.582C724.137 375.482 722.917 376.886 722.027 376.605C721.027 376.294 720.197 375.431 719.337 374.86C718.487 374.288 717.527 373.777 716.777 373.054C716.037 372.342 715.997 370.938 715.297 370.176C714.587 369.414 714.297 368.22 713.587 367.498C712.847 366.746 711.317 366.786 710.517 366.184C709.677 365.552 709.117 364.017 708.147 363.686C707.007 363.295 705.637 363.977 704.687 363.917C703.557 363.837 702.427 363.717 701.427 363.947C700.407 364.178 699.427 364.659 698.387 365C697.437 365.321 696.307 365 695.207 365.271C694.257 365.502 693.427 366.555 692.277 366.645C691.357 366.715 690.277 367.628 689.167 367.568C688.207 367.518 687.047 367.849 685.977 367.698C684.997 367.558 684.137 366.224 683.097 366.013C682.117 365.803 680.997 365.943 679.997 365.672C679.017 365.402 678.047 364.97 677.067 364.639C676.097 364.308 675.107 363.947 674.157 363.556C673.207 363.165 672.247 362.704 671.337 362.252C670.407 361.791 670.017 360.377 669.147 359.855C668.257 359.313 667.597 358.581 666.797 357.979C665.957 357.348 664.467 357.568 663.757 356.866C663.007 356.124 663.337 354.579 662.757 353.767C662.147 352.914 661.557 352.302 661.187 351.37C660.807 350.417 658.697 349.815 658.597 348.782C658.517 347.949 658.757 346.906 658.957 345.964C658.277 345.883 657.567 345.743 657.037 345.964C656.087 346.375 656.067 348.922 655.147 349.304C654.197 349.705 652.317 347.799 651.397 348.17C650.437 348.551 650.317 351.079 649.387 351.43C648.417 351.791 646.907 350.587 645.967 350.898C644.987 351.229 644.407 352.814 643.447 353.085C642.447 353.376 641.037 351.931 640.067 352.152C639.057 352.383 638.077 352.262 637.097 352.423C636.067 352.583 635.277 354.238 634.287 354.308C633.257 354.379 632.167 355.422 631.167 355.382C630.137 355.342 629.037 354.75 628.047 354.579C627.047 354.409 625.837 354.439 624.877 354.118C623.917 353.807 623.837 351.34 622.917 350.868C622.027 350.417 619.927 351.931 619.077 351.33C618.267 350.758 618.957 348.25 618.187 347.538C617.617 347.017 616.257 347.267 615.357 347.007C614.577 347.468 613.607 347.608 612.837 348.11C611.977 348.662 611.277 349.354 610.347 349.825C609.437 350.286 608.487 350.477 607.517 350.848C606.567 351.209 605.887 352.323 604.877 352.583C603.907 352.834 602.977 353.576 601.937 353.737C600.887 353.897 599.727 352.222 598.687 352.242C597.627 352.262 596.597 353.436 595.567 353.305C594.517 353.175 593.727 352.092 592.717 351.811C591.697 351.53 590.947 350.999 589.997 350.567C589.037 350.126 587.487 350.878 586.627 350.276C585.767 349.675 584.677 349.213 583.927 348.461C583.197 347.719 581.797 347.267 581.197 346.385C580.617 345.532 580.067 344.349 579.627 343.366C579.197 342.393 581.087 340.658 580.867 339.715C580.797 339.394 580.687 339.103 580.577 338.822C580.317 338.862 580.067 338.923 579.857 339.043C578.977 339.554 577.777 339.344 576.877 339.795C575.967 340.257 575.297 341.049 574.367 341.45C573.437 341.851 573.107 343.757 572.157 344.108C571.207 344.459 570.347 345.261 569.377 345.562C568.407 345.853 566.857 344.028 565.867 344.269C564.887 344.509 564.167 345.913 563.167 346.094C562.177 346.274 561.187 346.626 560.177 346.756C559.177 346.886 557.997 345.221 556.987 345.302C555.977 345.382 555.077 346.766 554.057 346.796C553.047 346.826 552.047 346.154 551.027 346.134C550.247 346.124 549.197 346.726 547.977 346.696C547.047 346.666 545.947 347.98 544.857 347.919C543.887 347.869 542.817 347.919 541.767 347.819C540.767 347.739 539.957 345.522 538.937 345.392C537.927 345.261 536.827 345.783 535.837 345.602C534.817 345.422 533.507 346.425 532.557 346.184C531.527 345.923 530.937 344.218 530.037 343.877C529.017 343.486 527.787 343.617 527.007 343.095C526.067 342.473 525.587 341.42 525.147 340.588C524.917 340.166 524.707 339.705 524.577 339.223C524.557 339.665 524.507 340.106 524.297 340.487C523.837 341.32 522.187 341.29 521.557 342.102C520.967 342.854 521.537 344.579 520.827 345.312C520.157 346.004 519.017 346.214 518.257 346.876C517.527 347.508 517.297 348.812 516.487 349.414C515.707 349.996 514.147 349.464 513.317 350.016C512.497 350.557 512.247 351.992 511.387 352.493C510.537 352.984 509.137 352.463 508.267 352.924C507.397 353.386 507.317 355.462 506.427 355.883C505.527 356.304 504.377 356.214 503.477 356.585C502.557 356.966 501.877 358.02 500.967 358.361C500.027 358.712 498.317 356.746 497.397 357.037C496.437 357.337 495.517 357.468 494.587 357.719C493.607 357.979 493.047 359.775 492.117 359.965C491.117 360.166 490.287 361.56 489.347 361.68C488.307 361.811 487.127 359.444 486.197 359.464C485.127 359.484 484.347 359.263 483.467 359.133C482.557 358.992 481.137 360.758 480.067 360.447C479.137 360.176 478.787 358.06 477.777 357.668C476.857 357.307 475.477 357.999 474.517 357.548C473.607 357.127 473.027 356.034 472.107 355.532C471.217 355.051 469.757 355.532 468.877 354.98C468.007 354.439 466.737 354.399 465.907 353.797C465.067 353.195 464.877 351.681 464.087 351.039C463.287 350.377 462.027 350.186 461.307 349.474C460.557 348.742 460.597 347.267 459.947 346.495C459.277 345.693 459.497 344.359 458.967 343.516C458.397 342.624 458.147 341.851 457.767 340.929C457.367 339.956 455.997 339.454 455.847 338.451C455.697 337.438 455.377 336.415 455.517 335.382C455.637 334.479 455.437 333.336 455.737 332.393C455.087 332.594 454.447 332.824 453.797 332.945C452.777 333.135 451.707 332.864 450.727 333.025C449.707 333.195 448.617 332.674 447.627 332.824C446.607 332.975 445.847 334.79 444.857 334.911C443.827 335.041 442.777 334.79 441.787 334.88C440.757 334.971 439.817 336.505 438.827 336.556C437.787 336.606 436.707 335.974 435.707 335.964C434.667 335.964 433.547 336.666 432.557 336.596C431.677 336.535 430.767 336.255 429.907 336.064C429.527 336.897 429.647 338.11 429.137 338.832C428.537 339.685 427.717 340.357 427.107 341.169C426.477 342.002 425.097 342.162 424.447 342.945C423.777 343.737 423.557 344.85 422.857 345.592C422.147 346.345 421.727 347.338 420.977 348.03C420.217 348.732 419.397 349.314 418.587 349.945C417.777 350.577 416.707 350.758 415.847 351.31C414.987 351.861 414.977 353.947 414.057 354.409C413.147 354.87 411.537 353.787 410.567 354.148C409.617 354.509 408.637 354.519 407.627 354.78C406.657 355.031 406.077 357.358 405.037 357.518C403.987 357.679 402.747 356.355 401.707 356.375C400.647 356.395 399.667 356.034 398.627 355.913C397.577 355.783 396.667 355.432 395.667 355.151C394.647 354.87 393.487 355.171 392.537 354.73C391.577 354.288 390.177 354.499 389.307 353.897C388.447 353.295 387.687 352.363 386.947 351.61C386.217 350.868 385.867 349.705 385.267 348.822C384.687 347.97 383.377 347.388 382.937 346.395C382.627 345.703 382.307 344.93 382.057 344.198C381.517 344.178 380.987 344.168 380.587 344.369C379.677 344.83 378.937 345.703 378.007 346.114C377.077 346.515 375.807 346.114 374.857 346.465C373.907 346.816 372.747 346.465 371.777 346.766C370.807 347.057 369.847 347.217 368.867 347.448C367.887 347.689 367.297 349.825 366.297 350.006C365.297 350.186 364.307 350.838 363.307 350.969C362.307 351.099 361.187 350.818 360.177 350.898C359.167 350.979 358.107 351.32 357.097 351.36C356.087 351.39 355.027 349.955 354.007 349.935C353.227 349.925 352.177 350.286 350.957 350.246C350.027 350.216 349.067 348.842 347.967 348.782C346.997 348.732 345.977 348.973 344.927 348.882C343.927 348.802 342.907 348.922 341.887 348.792C340.877 348.662 339.797 349.053 338.797 348.872C337.777 348.692 336.997 347.598 336.037 347.348C335.007 347.087 333.837 347.568 332.937 347.227C331.917 346.836 330.547 347.077 329.777 346.565C328.837 345.944 329.777 343.917 329.337 343.085C329.187 342.794 328.757 342.533 328.277 342.273C327.577 342.543 326.847 342.804 326.587 343.255C326.127 344.088 325.327 344.569 324.697 345.382C324.107 346.134 324.827 348.04 324.117 348.772C323.447 349.464 322.227 349.645 321.457 350.296C320.727 350.928 319.537 350.979 318.727 351.58C317.947 352.162 317.447 353.115 316.607 353.667C315.787 354.208 315.427 355.522 314.567 356.024C313.717 356.515 312.087 355.602 311.217 356.064C310.347 356.525 310.067 358.17 309.177 358.581C308.277 359.002 307.497 359.745 306.597 360.116C305.677 360.497 304.827 361.149 303.917 361.48C302.977 361.831 301.487 360.547 300.567 360.838C299.607 361.139 298.677 361.37 297.747 361.61C296.767 361.871 295.757 361.68 294.827 361.871C293.827 362.072 293.097 363.586 292.167 363.707C291.127 363.837 290.137 364.669 289.207 364.689C288.137 364.71 287.347 362.192 286.457 362.052C285.547 361.911 284.447 362.663 283.377 362.342C282.447 362.072 280.957 363.185 279.957 362.794C279.037 362.433 278.647 360.667 277.687 360.216C276.777 359.795 275.967 359.173 275.057 358.671C274.167 358.19 273.157 357.929 272.277 357.388C271.407 356.846 270.387 356.545 269.557 355.943C268.717 355.342 267.407 355.332 266.617 354.68C265.817 354.018 265.447 352.824 264.727 352.122C263.977 351.39 264.347 349.725 263.707 348.952C263.037 348.15 262.317 347.588 261.777 346.746C261.207 345.853 260.357 345.292 259.977 344.369C259.577 343.396 257.447 342.814 257.297 341.821C257.147 340.808 258.457 339.564 258.597 338.541C258.727 337.558 259.927 336.977 260.367 335.994C260.467 335.763 260.487 335.432 260.467 335.051C260.217 335.161 259.967 335.262 259.707 335.302C258.697 335.492 257.667 335.482 256.687 335.663C255.667 335.853 254.847 337.027 253.857 337.197C252.837 337.368 251.857 337.719 250.877 337.869C249.857 338.02 248.797 337.809 247.807 337.93C246.777 338.06 245.707 337.569 244.717 337.659C243.887 337.739 243.067 337.328 242.257 337.187C241.457 337.619 240.727 338.18 239.907 338.572C239.017 338.993 237.397 337.889 236.507 338.311C235.667 338.712 235.017 339.585 234.107 339.996C233.247 340.387 232.687 341.54 231.777 341.922C230.897 342.283 230.137 343.075 229.227 343.416C228.327 343.757 227.097 343.215 226.177 343.526C225.257 343.837 224.307 343.998 223.377 344.258C222.437 344.519 221.447 344.459 220.517 344.66C219.557 344.87 218.547 344.329 217.607 344.459C216.627 344.6 215.867 346.646 214.927 346.676C213.927 346.716 212.877 346.646 211.947 346.545C210.947 346.445 210.457 344.409 209.567 344.128C208.567 343.817 207.097 344.85 206.237 344.279C205.387 343.707 205.737 341.771 204.987 341.049C204.247 340.337 203.347 339.885 202.647 339.123C201.937 338.361 201.107 337.679 200.397 336.947C199.657 336.194 198.857 335.322 198.057 334.72C197.217 334.088 196.087 333.356 195.117 333.025C193.977 332.634 192.717 331.932 191.767 331.862C190.637 331.781 189.207 332.042 188.207 332.263C187.187 332.493 186.317 333.617 185.277 333.968C184.327 334.289 183.407 334.72 182.297 334.981C181.337 335.211 180.437 336.114 179.287 336.204C178.367 336.275 177.267 336.816 176.157 336.756C175.197 336.706 174.397 334.479 173.337 334.329C172.357 334.188 171.257 334.86 170.217 334.64C169.237 334.429 168.227 334.339 167.217 334.058C166.237 333.787 164.987 334.349 164.007 334.018C163.037 333.687 162.687 331.751 161.737 331.36C160.787 330.969 158.857 332.734 157.947 332.283C157.017 331.821 155.977 331.36 155.107 330.838C154.217 330.297 153.737 328.983 152.937 328.381C152.097 327.749 150.647 327.669 149.937 326.967C149.187 326.225 149.457 324.459 148.887 323.647C148.277 322.794 147.047 322.173 146.677 321.24C146.297 320.287 147.107 318.953 147.007 317.92C146.957 317.368 146.907 316.827 146.897 316.275C145.937 315.944 144.727 315.051 144.057 315.342C143.107 315.753 142.747 317.479 141.817 317.87C140.867 318.271 140.167 319.284 139.237 319.655C138.277 320.036 136.747 318.893 135.817 319.244C134.847 319.605 133.837 319.735 132.897 320.056C131.917 320.387 130.767 319.966 129.807 320.237C128.807 320.528 128.387 322.885 127.417 323.105C126.407 323.336 125.007 321.34 124.027 321.491C122.997 321.651 122.257 323.757 121.267 323.818C120.597 323.868 119.937 323.095 119.287 322.544C118.577 322.915 117.377 322.764 116.667 323.156C116.477 323.366 116.287 323.577 116.097 323.767C115.707 324.53 115.637 325.683 114.997 326.185C113.837 327.168 114.557 328.06 113.377 329.013C112.197 329.966 110.707 328.17 109.567 329.173C108.427 330.166 109.457 331.36 108.317 332.353C107.177 333.346 107.667 333.918 106.527 334.911C105.387 335.904 104.977 335.432 103.837 336.425C102.697 337.418 101.997 336.606 100.857 337.599C99.7167 338.592 99.9467 338.852 98.8066 339.845C97.6666 340.838 96.8967 339.946 95.7567 340.949C94.6167 341.942 95.2667 342.694 94.1367 343.687C92.9967 344.68 93.4667 345.221 92.3267 346.214C91.1866 347.207 90.9067 346.876 89.7667 347.879C88.6267 348.872 89.4067 349.243 88.6567 350.557C89.1768 351.641 89.5967 351.039 90.2667 351.791C91.0267 352.644 91.5167 353.376 92.3567 354.028C93.2367 354.7 92.8468 356.916 93.6768 357.618C94.4868 358.3 94.9467 358.922 95.5967 359.865C96.1567 360.677 96.6467 360.647 96.9967 361.821C96.1067 362.302 95.4567 362.403 94.8567 363.075C94.2167 363.787 94.0767 365.091 93.6167 365.913C93.1667 366.736 94.6267 368.581 94.2067 369.424C93.7866 370.266 91.2068 369.845 90.6567 370.617C90.1167 371.369 90.7467 373.275 89.9567 373.867C89.1267 374.479 87.6567 374.077 86.7667 374.519C85.8567 374.97 84.9867 375.411 84.0367 375.742C83.0868 376.073 82.2167 376.655 81.2367 376.916C80.2667 377.177 79.2567 377.307 78.2767 377.558C77.2968 377.809 76.1766 377.568 75.2167 377.859C74.2167 378.16 73.4867 379.343 72.4967 379.604C71.4967 379.865 70.2067 378.852 69.2167 379.062C68.1967 379.273 67.3068 379.905 66.2968 380.065C65.2667 380.216 64.2267 379.664 63.2067 379.744C62.1766 379.825 61.2267 382.111 60.2067 382.101C59.1766 382.101 58.0668 381.72 57.0468 381.62C56.0267 381.52 55.2867 379.564 54.2667 379.363C53.2667 379.163 52.3767 378.922 51.3867 378.601C50.4268 378.3 49.7267 377.588 48.7667 377.167C47.8467 376.765 46.6167 377.147 45.6967 376.625C44.7666 376.103 43.2966 376.424 42.4567 375.803C41.6067 375.161 40.3867 374.78 39.6567 374.037C38.9268 373.295 39.9567 370.998 39.3367 370.156C38.7067 369.303 36.0466 369.704 35.5767 368.772C35.0967 367.829 37.1768 365.853 36.8667 364.84C36.5566 363.837 34.8367 363.235 34.7167 362.182C34.5967 361.149 35.3468 360.116 35.4268 359.053C35.4967 358.02 33.7067 356.595 33.9767 355.552C34.2267 354.579 34.7467 353.516 35.1467 352.654C34.7867 352.082 34.4266 351.55 33.9867 351.46C32.9867 351.259 32.0167 351.209 31.0367 350.958C30.0568 350.698 29.1367 350.397 28.1667 350.076C27.1968 349.755 26.3667 349.233 25.4268 348.862C24.4868 348.491 23.0468 349.344 22.1167 348.912C21.1967 348.491 20.8567 346.916 19.9467 346.445C19.0466 345.974 17.6367 346.465 16.7567 345.944C15.8867 345.422 14.3267 345.923 13.4767 345.362C12.6367 344.8 12.7766 342.764 11.9567 342.162C11.1466 341.56 10.4268 340.858 9.62671 340.216C9.01672 339.725 8.28662 338.983 7.34668 338.21C6.63672 337.619 5.80664 337.017 4.98669 336.295C4.25671 335.653 2.42676 336.124 1.65674 335.402C0.926758 334.72 0.206665 333.928 -0.513306 333.195C-1.23328 332.473 -1.68323 331.42 -2.35327 330.668C-3.04321 329.896 -2.21326 327.9 -2.82324 327.117C-3.47327 326.275 -5.64331 326.556 -6.1333 325.723C-6.69336 324.78 -6.69324 323.547 -6.98328 322.664C-7.33325 321.591 -7.67334 320.478 -7.51331 319.545C-7.34326 318.582 -6.01331 318.361 -5.14331 317.629C-4.66333 317.228 -4.07324 316.195 -3.35327 315.493C-4.18323 315.894 -5.26331 316.205 -5.83325 316.596C-6.62329 317.138 -7.26331 317.509 -8.20325 317.9C-9.08325 318.271 -9.41333 320.267 -10.4033 320.518C-11.3334 320.748 -12.5133 319.826 -13.5233 319.956C-14.4733 320.086 -15.3533 321.491 -16.3633 321.531C-17.3232 321.571 -18.3433 320.568 -19.3533 320.538C-20.3232 320.508 -21.2733 320.137 -22.2633 320.046C-23.2333 319.966 -24.1033 319.204 -25.0833 319.073C-26.0532 318.943 -27.3733 320.899 -28.3433 320.718C-29.3132 320.538 -30.3434 320.407 -31.3033 320.187C-32.2633 319.966 -33.1633 319.334 -34.1033 319.073C-35.0632 318.803 -35.5332 316.977 -36.4633 316.676C-37.4132 316.365 -38.8132 317.418 -39.7233 317.077C-40.6632 316.726 -41.4133 315.894 -42.2933 315.513C-43.2234 315.112 -43.5834 313.627 -44.4333 313.196C-45.3534 312.734 -47.0033 313.747 -47.8134 313.266C-48.7134 312.724 -49.3134 311.792 -50.0433 311.24C-50.9033 310.598 -52.5533 310.769 -53.1633 310.117C-53.7933 309.445 -52.6832 307.168 -53.3232 306.255C-53.8833 305.463 -54.8433 304.931 -55.3933 304.008C-55.8933 303.156 -57.3933 302.795 -57.8633 301.842C-58.3132 300.949 -57.4733 299.415 -57.8933 298.452C-58.2933 297.519 -59.1233 296.767 -59.4733 295.794C-59.8232 294.831 -60.3032 293.918 -60.5933 292.925C-60.8833 291.932 -61.2433 290.97 -61.4633 289.967C-61.6832 288.953 -62.4633 288.021 -62.6033 287.008C-62.7433 285.975 -60.8833 284.821 -60.9133 283.808C-60.9434 282.755 -62.8433 281.712 -62.7433 280.719C-62.6433 279.666 -61.7134 278.753 -61.4434 277.8C-61.1533 276.787 -61.1433 275.674 -60.6433 274.791C-60.1433 273.899 -59.8533 272.635 -59.1033 271.913C-58.6233 271.441 -57.6832 271.572 -56.8333 271.542C-57.4432 270.9 -57.8134 269.816 -58.5333 269.435C-59.4434 268.954 -61.0333 269.756 -61.9133 269.275C-62.8234 268.783 -63.5933 268.031 -64.4532 267.54C-65.3533 267.028 -65.7933 265.734 -66.6433 265.223C-67.5333 264.691 -68.1333 263.748 -68.9733 263.207C-69.8433 262.645 -70.2233 261.451 -71.0333 260.87C-71.8833 260.268 -73.0333 260.198 -73.8134 259.576C-74.6234 258.924 -76.2233 259.225 -76.9532 258.553C-77.7233 257.851 -78.6233 257.219 -79.3033 256.487C-80.0033 255.724 -80.0133 254.34 -80.6033 253.538C-81.2133 252.705 -82.6433 252.334 -83.1333 251.452C-83.6233 250.559 -83.3334 249.205 -83.6934 248.252C-84.0433 247.309 -84.2433 246.286 -84.4532 245.273C-84.6632 244.3 -84.8933 243.287 -84.9633 242.244C-85.0233 241.261 -86.0632 240.148 -85.9933 239.095C-85.9332 238.112 -85.0033 237.109 -84.8232 236.066L-84.7733 236.046ZM232.977 180.38C233.187 180.841 233.367 181.302 233.387 181.774C233.407 182.376 232.967 183.178 232.617 183.94C233.007 183.238 233.527 182.526 233.577 181.974C233.627 181.463 233.287 180.911 232.967 180.37L232.977 180.38ZM410.257 117.161C409.907 117.883 409.227 118.625 409.257 119.348C409.297 120.33 410.407 122.597 410.367 123.63C410.277 122.567 411.187 120.31 411.267 119.398C411.327 118.736 410.677 117.903 410.257 117.161ZM818.027 258.132C817.847 258.683 817.547 259.235 817.367 259.786C817.927 259.325 818.417 258.884 819.077 258.543C819.137 258.513 819.197 258.473 819.257 258.432C819.197 258.382 819.137 258.322 819.077 258.292C818.777 258.152 818.407 258.132 818.027 258.142V258.132ZM901.747 144.633C901.557 144.964 901.417 145.295 901.387 145.646C901.337 146.488 900.997 146.819 900.937 147.612C901.097 147.12 902.037 147.04 902.127 146.408C902.187 145.987 901.917 145.285 901.747 144.633ZM1220.17 177.962C1220.2 178.253 1220.16 178.564 1220.11 178.885C1220.15 178.755 1220.19 178.614 1220.2 178.464C1220.22 178.303 1220.2 178.133 1220.16 177.962H1220.17ZM1428.66 69.6292C1428.66 69.7696 1428.67 69.9201 1428.68 70.0605C1428.7 70.6422 1428.3 71.1638 1427.96 71.6954C1428.32 71.234 1428.77 70.8027 1428.82 70.2811C1428.84 70.0705 1428.77 69.8498 1428.66 69.6292ZM1574.89 60.6925C1574.8 61.535 1575.34 62.8791 1575.41 63.8921C1575.4 62.859 1575.24 61.525 1575.37 60.7527C1575.41 60.4819 1575.43 60.2111 1575.44 59.9303C1575.14 60.171 1574.92 60.4318 1574.89 60.7026V60.6925ZM1054.52 356.104C1054.83 356.174 1055.13 356.134 1055.43 356.074C1055.07 356.004 1054.72 355.963 1054.34 356.034C1054.4 356.054 1054.46 356.084 1054.52 356.104Z" fill="#F49B9B"/>
</svg>
