<svg width="80" height="238" viewBox="0 0 80 238" fill="none" xmlns="http://www.w3.org/2000/svg">
<g clip-path="url(#clip0_1_394)">
<path d="M77.6429 81.4743C77.2356 71.3606 75.5916 65.6137 74.8676 61.4656C74.1512 57.3176 74.8676 56.6765 74.664 52.4154C74.4604 48.1542 73.4347 44.2173 71.1723 42.8371C68.9098 41.457 64.4905 39.1114 61.7153 37.9424C58.94 36.7734 59.664 36.9846 58.5328 36.4491C57.4015 35.9137 53.8043 34.5335 53.8043 34.5335C53.8043 34.5335 53.9098 32.7234 54.0079 31.5544C54.1135 30.3854 53.3895 30.3854 53.3895 30.3854L53.4951 29.4276C53.4951 29.4276 54.8299 26.7653 56.7831 24.5329C59.2492 23.7863 59.664 20.7016 59.664 20.7016C59.664 20.7016 60.8932 18.8916 61.4136 15.377C61.8812 12.1944 62.5448 7.50329 57.8163 3.13653C53.0878 -1.23024 47.9521 -0.378004 45.486 1.64323C45.486 1.64323 40.5011 2.86502 38.2386 8.08402C36.7303 11.5608 37.9822 14.0421 37.9822 14.0421C37.9822 14.0421 37.1602 14.0949 36.7982 15.4223C36.489 16.5762 36.8359 17.1871 37.0018 18.4541C37.2583 20.3698 37.4619 22.3382 38.9023 21.4332C39.1587 23.6656 40.0335 25.8 40.0335 25.8V27.9268C40.0335 27.9268 39.6263 28.9902 38.2839 30.5363C36.9491 32.0824 37.2583 34.903 37.3563 36.3888C35.6067 37.3466 35.2522 38.2517 35.2522 38.2517C35.2522 38.2517 28.216 42.4525 26.0064 43.893C23.7967 45.3335 22.5147 45.967 22.0999 48.3126C21.6851 50.6505 20.1994 60.7115 19.8902 71.3531C19.581 81.9947 19.0682 95.4042 18.7062 101.845C18.3442 108.286 17.8314 118.181 17.8314 118.181L18.2914 118.286C18.2914 118.286 18.397 120.677 18.2914 121.801C18.216 122.6 18.6006 122.97 18.6006 122.97C18.6006 122.97 17.9294 125.843 18.4951 127.601C18.7892 128.513 19.1361 129.267 19.3774 129.991H10.9762C10.9762 129.991 10.0184 132.691 10.9762 134.962H11.5267L17.2809 174.557H3.5931L0.305011 190.741C0.305011 190.741 -0.381264 191.594 0.305011 198.834C0.991285 206.074 3.5931 218.556 4.14362 222.531C4.69415 226.505 5.10139 225.366 6.60969 225.51C8.11798 225.653 12.4996 225.653 12.4996 225.653L12.6353 226.505H14.8299C14.8299 226.505 14.9656 228.489 16.3382 228.489C17.7107 228.489 17.8465 227.35 17.8465 226.505C19.219 226.649 19.6263 226.362 19.6263 226.362V225.796L43.0878 226.445C42.4468 228.715 40.9988 230.103 39.4227 231.49C35.3125 232.984 33.3291 235.02 33.1859 235.586C32.756 237.373 33.8721 237.999 35.1014 237.999C38.035 237.999 40.5312 238.014 43.4573 237.856C46.3834 237.697 47.1376 237.486 48.3895 235.872C48.94 235.163 50.0335 233.316 50.0335 233.316L50.4106 237.29H52.0546L52.7711 232.184L53.5403 237.29H55.1843L55.0335 231.966C55.0335 231.966 56.0742 233.519 57.296 235.865C58.2537 237.712 60.6896 237.848 63.6006 237.848C66.5117 237.848 71.1346 237.705 63.2613 227.652C63.1934 227.335 63.0954 226.98 62.9898 226.603L63.1934 226.633L66.8887 206.059L62.2281 175.265L59.7696 175.228C58.8797 170.793 56.934 169.586 56.8887 165.868C56.8359 161.501 59.302 153.945 59.302 153.945L59.9732 153.356C59.9732 153.356 60.3804 152.662 61.2552 149.419C62.13 146.176 65.3126 136.274 66.851 131.643C68.3895 127.012 68.3895 123.981 68.3895 123.981L70.2899 119.991L70.3955 124.252C70.3955 124.252 69.9883 124.727 69.9355 127.073C69.8827 129.411 70.2447 130.534 70.2975 132.978C69.2718 133.619 69.0154 134.63 69.6338 134.841C68.8646 135.693 68.9475 136.312 70.4558 136.168C71.9641 136.025 73.0576 135.67 74.2266 134.962C75.388 134.253 76.21 133.898 76.9641 132.126C77.7183 130.353 77.9898 129.924 78.4046 128.649C78.8193 127.374 78.7439 123.822 78.7439 123.822H79.0908L79.1964 119.991L80.0184 119.78C80.0184 119.78 78.0652 91.5729 77.658 81.4668L77.6429 81.4743ZM20.0335 174.285L13.7288 135.406C13.7288 135.406 13.4573 134.132 14.1361 133.845L19.5433 133.906C19.5735 134.087 19.664 134.162 19.8374 134.162C19.8374 135.761 21.0667 135.603 21.8887 134.373C21.9415 135.867 23.118 136.025 24.1512 135.067C25.6368 135.972 26.4136 134.479 26.4136 134.479C26.4136 134.479 26.6172 138.257 27.5976 142.519C28.5705 146.772 29.2417 150.875 29.4981 156.034C29.762 156.071 30.0637 156.109 30.403 156.132L33.5931 174.428L20.0335 174.285ZM36.1346 174.564L32.7862 156.252C34.1436 156.298 35.3125 156.298 35.3125 156.298C35.3125 156.298 37.7786 165.076 38.035 167.897C38.2914 170.718 38.5177 171.691 38.6685 174.564C38.2386 174.564 36.1346 174.564 36.1346 174.564ZM64.5961 85.5243C63.6685 82.5453 64.5961 79.6718 64.5961 79.6718C65.2145 81.7986 64.9053 83.7143 64.5961 85.5243ZM73.2085 129.727C73.0878 130.761 72.7107 131.221 72.2658 131.59C72.4242 129.675 72.5071 127.601 72.5071 127.601C72.937 128.136 73.3291 128.702 73.2085 129.727Z" fill="#F49B9B"/>
</g>
<defs>
<clipPath id="clip0_1_394">
<rect width="80" height="238" fill="white"/>
</clipPath>
</defs>
</svg>
