<svg width="1440" height="386" viewBox="0 0 1440 386" fill="none" xmlns="http://www.w3.org/2000/svg">
<path d="M1472.29 236.046C1472.12 235.083 1471.67 234.11 1471.4 233.087C1471.15 232.134 1471.7 230.86 1471.36 229.857C1471.04 228.924 1469.53 228.373 1469.13 227.4C1468.76 226.487 1467.54 225.936 1467.1 224.983C1466.68 224.09 1467.01 222.816 1466.53 221.883C1466.08 221.001 1466.06 219.847 1465.55 218.935C1465.06 218.072 1463.97 217.53 1463.43 216.628C1462.92 215.775 1462.12 215.103 1461.57 214.251C1461.03 213.418 1461.66 211.773 1461.08 210.941C1460.51 210.118 1460.13 209.115 1459.53 208.303C1458.94 207.501 1457.1 207.631 1456.47 206.839C1455.85 206.056 1456.12 204.522 1455.47 203.749C1454.82 202.987 1453.42 202.867 1452.74 202.124C1452.47 201.824 1452.12 201.593 1451.76 201.382C1451.83 200.57 1451.56 199.607 1451.86 198.845C1452.22 197.942 1453.45 197.37 1453.8 196.407C1454.15 195.465 1456.03 195.033 1456.36 194.06C1456.68 193.108 1456.94 192.085 1457.24 191.102C1457.53 190.139 1457.95 189.156 1458.21 188.163C1458.47 187.19 1456.99 185.736 1457.22 184.743C1457.46 183.76 1459 183.048 1459.21 182.055C1459.42 181.062 1458.17 179.778 1458.35 178.775C1458.53 177.772 1459.47 176.899 1459.61 175.886C1459.75 174.883 1460.16 173.89 1460.27 172.877C1460.38 171.864 1461 170.871 1461.08 169.858C1461.16 168.845 1458.89 167.702 1458.93 166.679C1458.97 165.666 1459.23 164.693 1459.22 163.68C1459.22 162.657 1461.31 161.594 1461.27 160.581C1461.23 159.557 1458.57 158.725 1458.48 157.712C1458.39 156.699 1459.62 155.566 1459.48 154.563C1459.34 153.55 1459.68 152.456 1459.49 151.463C1459.3 150.46 1458.15 149.678 1457.91 148.695C1457.66 147.702 1457.54 146.709 1457.24 145.746C1456.94 144.773 1457.81 143.379 1457.44 142.426C1457.08 141.474 1455.83 140.862 1455.41 139.949C1455.02 139.117 1453.99 138.585 1453.49 137.702C1453.03 136.88 1451.95 136.489 1451.4 135.656C1450.88 134.854 1451.79 133.058 1451.2 132.276C1450.62 131.504 1449.55 131.123 1448.91 130.4C1448.27 129.668 1447.08 129.548 1446.38 128.886C1445.67 128.214 1445.24 127.351 1444.48 126.77C1444.05 126.439 1443.75 125.947 1443.43 125.486C1444.19 124.864 1444.33 123.801 1444.86 122.928C1445.37 122.096 1445.4 121.223 1445.71 120.2C1445.99 119.267 1447.49 118.595 1447.63 117.542C1447.75 116.569 1447.45 115.496 1447.47 114.443C1447.48 113.45 1447.98 112.397 1447.91 111.354C1447.84 110.361 1447.03 109.398 1446.89 108.365C1446.76 107.362 1448.15 106.088 1447.97 105.065C1447.79 104.072 1445.27 103.53 1445.05 102.527C1444.83 101.534 1446.8 99.9797 1446.54 99.0068C1446.28 98.0139 1445.92 97.0008 1445.63 96.038C1445.33 95.045 1445.06 94.0119 1444.74 93.0691C1444.4 92.0762 1443.32 91.354 1442.97 90.4313C1442.59 89.4383 1441.17 88.9167 1440.79 88.0241C1440.36 87.0211 1439.74 86.2187 1439.33 85.3762C1438.83 84.3431 1438.32 83.5407 1437.86 82.7884C1437.35 81.9459 1437.04 80.9931 1436.45 80.1405C1435.88 79.3281 1436.53 77.5528 1435.89 76.7504C1435.27 75.9681 1433.96 75.7073 1433.27 74.945C1432.6 74.2028 1432.78 72.5479 1432.06 71.8358C1431.34 71.1236 1429.56 71.4948 1428.8 70.8328C1428.04 70.1708 1428.05 68.4858 1427.25 67.874C1426.45 67.2521 1425.19 67.1518 1424.36 66.6002C1423.51 66.0385 1422.22 66.1889 1421.34 65.7075C1420.45 65.216 1419.17 65.6573 1418.26 65.2561C1417.32 64.8449 1416.45 64.6544 1415.5 64.3635C1414.53 64.0626 1413.73 63.7115 1412.74 63.531C1411.74 63.3505 1410.97 61.0837 1409.97 61.0536C1408.96 61.0235 1407.85 61.5651 1406.85 61.6955C1405.86 61.8259 1404.99 62.7186 1404.01 63.0195C1403.07 63.3103 1401.54 62.4779 1400.62 62.9493C1399.75 63.3906 1400.02 65.8078 1399.17 66.4196C1398.38 66.9913 1396.9 66.7004 1396.13 67.4226C1395.43 68.0946 1394.7 69.569 1394.02 70.3714C1394 69.3584 1393.27 67.8639 1393.16 66.891C1393.05 65.888 1394.12 64.7246 1393.92 63.7617C1393.71 62.7788 1392.36 62.1268 1392.07 61.174C1391.78 60.2211 1393.2 58.6163 1392.83 57.7036C1392.45 56.7809 1390.11 56.7708 1389.65 55.8982C1389.19 55.0156 1390.71 52.9595 1390.17 52.1169C1389.63 51.2845 1388.11 51.0538 1387.5 50.2614C1386.9 49.4791 1385.1 49.7298 1384.43 48.9876C1383.77 48.2554 1384.11 46.6005 1383.39 45.9084C1382.68 45.2164 1382.27 44.1632 1381.5 43.5113C1380.75 42.8694 1380.15 41.9466 1379.35 41.3448C1378.56 40.753 1376.35 42.2174 1375.51 41.6658C1374.69 41.1241 1374.31 39.9506 1373.45 39.4492C1372.6 38.9477 1372.06 37.9045 1371.17 37.4532C1370.29 37.0019 1369.65 36.0289 1368.74 35.6077C1367.84 35.1965 1366.23 36.4903 1365.3 36.1192C1364.38 35.7481 1363.9 34.2938 1362.96 33.9628C1362.03 33.6318 1361.13 33.1805 1360.18 32.8896C1359.23 32.5987 1358.03 33.2707 1357.07 33.02C1356.11 32.7692 1355.58 30.693 1354.61 30.4824C1353.64 30.2718 1352.46 31.024 1351.48 30.8535C1350.5 30.683 1349.4 31.4052 1348.42 31.2748C1347.44 31.1444 1346.55 30.2818 1345.57 30.1915C1344.58 30.1013 1343.64 29.1484 1342.65 29.1083C1341.66 29.0581 1340.64 28.4564 1339.65 28.4463C1338.66 28.4463 1337.68 30.6529 1336.69 30.683C1335.69 30.7131 1334.77 31.1945 1333.79 31.2647C1332.8 31.345 1331.65 29.6599 1330.67 29.7803C1329.68 29.9007 1328.92 31.4954 1327.95 31.6559C1326.97 31.8264 1325.65 30.3019 1324.69 30.5225C1323.72 30.7432 1322.97 31.8966 1322.02 32.1674C1321.06 32.4382 1319.84 31.9468 1318.91 32.2677C1317.97 32.5987 1317.52 34.2135 1316.61 34.5947C1315.69 34.9858 1314.29 34.3038 1313.41 34.7451C1312.52 35.1965 1311.41 35.3469 1310.56 35.8484C1309.7 36.3599 1308.92 37.0921 1308.11 37.6638C1307.29 38.2355 1306.03 38.3559 1305.26 38.9978C1304.5 39.6397 1303.97 40.6929 1303.26 41.395C1302.55 42.097 1301.6 42.7089 1300.96 43.4711C1300.32 44.2334 1300.05 45.3969 1299.48 46.2193C1298.92 47.0318 1299.68 48.6867 1299.19 49.5593C1298.71 50.4219 1297.93 51.0839 1297.52 52.0066C1297.12 52.8993 1296.63 53.7518 1296.3 54.7047C1295.98 55.6274 1295.29 56.4599 1295.04 57.4428C1294.8 58.3957 1294.56 59.3786 1294.39 60.3816C1294.29 60.9633 1293.99 61.5451 1293.75 62.1368C1293.43 61.5551 1293.04 61.0035 1292.73 60.4819C1292.21 59.6093 1291.9 58.3756 1291.18 57.6936C1290.47 57.0115 1288.97 57.2222 1288.09 56.7006C1287.25 56.2092 1286.79 54.6445 1285.83 54.2934C1284.92 53.9625 1283.55 54.9454 1282.54 54.7247C1281.59 54.5241 1280.81 52.6586 1279.8 52.5482C1278.83 52.4379 1277.66 54.133 1276.65 54.1129C1275.66 54.0828 1274.62 52.4178 1273.61 52.458C1272.62 52.4981 1271.57 52.8491 1270.57 52.9394C1269.58 53.0297 1268.6 53.6415 1267.61 53.7819C1266.62 53.9223 1265.75 54.8651 1264.77 55.0457C1263.78 55.2262 1262.51 54.1129 1261.55 54.3336C1260.56 54.5542 1259.95 56.3395 1259.01 56.5903C1258.02 56.8611 1256.57 55.497 1255.64 55.7879C1254.65 56.0988 1254.33 58.3355 1253.43 58.6665C1252.43 59.0276 1251.83 60.0506 1250.97 60.4117C1249.95 60.853 1247.9 58.9373 1247.14 59.3585C1246.28 59.84 1245.99 61.3545 1245.16 61.8861C1244.33 62.4177 1244.28 64.0425 1243.48 64.6243C1242.68 65.206 1240.33 63.7316 1239.56 64.3534C1238.79 64.9753 1239.2 67.0014 1238.46 67.6633C1237.73 68.3253 1236.03 67.9542 1235.32 68.6563C1234.62 69.3484 1235.46 71.5449 1234.79 72.2671C1234.12 72.9892 1232.25 72.6181 1231.61 73.3703C1230.97 74.1226 1231.8 76.0483 1231.18 76.8307C1230.57 77.603 1229.84 78.2248 1229.26 79.0272C1228.68 79.8196 1227.31 80.0302 1226.75 80.8527C1226.2 81.6651 1226.13 82.7884 1225.6 83.6209C1225.07 84.4534 1222.92 84.2929 1222.42 85.1455C1221.92 85.998 1221.98 87.1916 1221.5 88.0642C1221.02 88.9268 1220.55 89.8094 1220.1 90.692C1219.65 91.5747 1220.17 92.9387 1219.74 93.8214C1219.31 94.714 1217.72 95.0651 1217.32 95.9577C1216.91 96.8604 1217.46 98.1844 1217.08 99.0971C1216.69 100.01 1216.28 100.902 1215.92 101.815C1215.61 102.608 1216.23 103.751 1215.94 104.543C1215.64 105.346 1213.83 105.586 1213.55 106.389C1213.21 107.362 1212.19 108.174 1211.99 109.087C1211.77 110.08 1212.2 111.233 1212.1 112.186C1212 113.189 1213.69 114.182 1213.71 115.155C1213.73 116.148 1212.04 117.191 1212.14 118.164C1212.24 119.137 1211.55 120.25 1211.69 121.233C1211.83 122.196 1214.46 122.788 1214.61 123.781C1214.75 124.734 1212.89 125.987 1213.01 126.98C1213.12 127.933 1215.01 128.756 1215.07 129.759C1215.12 130.561 1215.09 130.611 1215.07 131.213C1214.96 130.832 1214.45 130.872 1214.36 130.21C1214.25 129.387 1213.62 128.886 1213.19 128.094C1212.3 127.472 1211.83 126.519 1210.98 126.078C1210.02 125.576 1209.29 124.403 1208.37 124.132C1207.34 123.831 1206.1 123.861 1205.13 123.831C1204.09 123.791 1202.77 123.51 1201.8 123.761C1200.82 124.011 1199.77 124.804 1198.87 125.325C1198.02 125.817 1197.84 127.381 1197.06 128.094C1196.34 128.756 1195.17 129.046 1194.51 129.879C1193.9 130.641 1193.02 131.343 1192.46 132.236C1191.94 133.078 1192 134.312 1191.52 135.245C1191.07 136.128 1191.88 137.572 1191.47 138.535C1191.08 139.458 1190.85 140.37 1190.51 141.353C1190.18 142.296 1187.71 142.547 1187.42 143.54C1187.13 144.503 1187.98 145.806 1187.73 146.799C1187.49 147.782 1185.68 148.424 1185.47 149.437C1185.38 149.879 1185.78 150.42 1186.23 150.962C1186.15 150.982 1186.07 151.002 1185.99 151.012C1185 151.172 1183.87 150.531 1182.9 150.741C1181.92 150.962 1180.79 150.671 1179.83 150.942C1178.86 151.223 1177.87 151.554 1176.94 151.885C1175.99 152.226 1175.19 152.998 1174.28 153.409C1173.36 153.82 1172.77 154.884 1171.9 155.355C1171.01 155.836 1169.4 155.104 1168.56 155.656C1167.72 156.207 1166.88 156.9 1166.1 157.521C1165.31 158.143 1164.7 159.086 1163.98 159.778C1163.26 160.47 1162.48 161.202 1161.83 161.975C1161.18 162.737 1160.33 163.449 1159.76 164.282C1159.2 165.104 1160.65 167.14 1160.17 168.033C1159.7 168.905 1158.28 169.246 1157.89 170.179C1157.51 171.092 1158.11 172.295 1157.82 173.268C1157.53 174.211 1157.41 175.094 1157.21 176.097C1157.01 177.06 1155.26 177.752 1155.14 178.765C1155.14 178.835 1155.11 178.905 1155.1 178.985C1155.1 178.925 1155.1 178.865 1155.08 178.805C1154.74 177.822 1154.9 176.338 1154.34 175.555C1153.76 174.753 1151.28 175.776 1150.49 175.174C1149.72 174.592 1149.92 172.386 1148.99 171.975C1148.12 171.593 1146.61 172.988 1145.62 172.737C1144.69 172.506 1143.78 172.837 1142.77 172.717C1141.81 172.596 1141 171.072 1140 171.042C1139.03 171.012 1138.06 171.503 1137.07 171.543C1136.09 171.593 1135.08 171.092 1134.09 171.192C1133.11 171.292 1132 170.62 1131.03 170.771C1130.05 170.931 1129.09 171.353 1128.13 171.553C1127.15 171.754 1126.05 171.573 1125.12 171.814C1124.14 172.065 1123.24 172.657 1122.32 172.927C1121.34 173.228 1120.75 174.632 1119.87 174.953C1118.88 175.304 1117.72 175.064 1116.88 175.425C1115.87 175.866 1114.79 176.047 1114.05 176.468C1113.88 176.558 1113.74 176.689 1113.59 176.819C1113.51 176.729 1113.42 176.638 1113.34 176.548C1112.69 175.756 1111.75 175.294 1111.02 174.582C1110.28 173.85 1109.84 172.887 1109.04 172.275C1108.21 171.644 1106.91 172.005 1106.03 171.543C1105.85 171.453 1105.7 171.323 1105.56 171.182C1105.71 171.052 1105.87 170.931 1106.06 170.841C1106.99 170.4 1109.5 172.055 1110.14 171.282C1110.75 170.55 1110.62 168.935 1110.99 167.953C1111.33 167.07 1109.64 165.676 1109.81 164.633C1109.96 163.69 1112.98 162.968 1113.01 161.925C1113.04 160.962 1111.21 159.929 1111.15 158.906C1111.09 157.933 1110.43 157.03 1110.3 156.017C1110.17 155.034 1111.78 153.77 1111.6 152.777C1111.42 151.794 1109.65 151.142 1109.42 150.169C1109.19 149.197 1109.32 148.143 1109.05 147.191C1108.78 146.218 1107.89 145.455 1107.59 144.523C1107.28 143.55 1107.08 142.587 1106.75 141.674C1106.4 140.691 1105.71 139.929 1105.35 139.046C1104.95 138.053 1106.43 136.308 1106.03 135.476C1105.54 134.453 1104.02 134.092 1103.58 133.369C1103.08 132.537 1103.42 131.083 1102.83 130.25C1102.26 129.448 1101.97 128.314 1101.33 127.532C1100.7 126.76 1099.98 125.957 1099.29 125.215C1098.61 124.483 1097.4 124.192 1096.67 123.51C1095.94 122.828 1094.21 123.309 1093.44 122.677C1092.66 122.046 1092.27 120.962 1091.45 120.401C1090.62 119.829 1090.06 118.846 1089.19 118.355C1088.31 117.853 1087.41 117.352 1086.5 116.96C1085.57 116.559 1084.79 115.536 1083.84 115.265C1082.87 114.985 1081.48 116.76 1080.5 116.629C1079.5 116.489 1078.68 116.018 1077.68 116.058C1076.69 116.098 1075.59 115.205 1074.61 115.436C1073.65 115.657 1072.44 115.526 1071.5 115.947C1070.62 116.339 1070.57 118.314 1069.71 118.906C1068.92 119.448 1066.67 118.294 1065.9 119.017C1065.2 119.668 1065.27 122.236 1064.6 123.049C1064.58 122.026 1064.38 120.3 1064.26 119.317C1064.14 118.314 1063.54 117.462 1063.32 116.489C1063.09 115.506 1064.63 114.002 1064.3 113.059C1063.97 112.106 1063.65 111.023 1063.23 110.12C1062.8 109.207 1061.57 108.646 1061.05 107.783C1060.54 106.93 1059.22 106.61 1058.62 105.807C1058.03 105.005 1057.63 104.072 1056.97 103.32C1056.31 102.577 1055.41 102.106 1054.68 101.404C1053.96 100.722 1052.94 100.461 1052.16 99.8193C1051.39 99.1874 1051.26 97.7731 1050.43 97.1914C1049.62 96.6197 1048.22 96.9808 1047.37 96.4492C1046.52 95.9276 1045.62 95.6468 1044.73 95.1654C1043.85 94.694 1043.42 93.4101 1042.51 92.9889C1041.61 92.5676 1041.28 90.7221 1040.35 90.351C1039.43 89.9799 1037.84 91.3339 1036.89 91.013C1035.95 90.692 1034.8 91.1735 1033.83 90.9027C1032.87 90.6319 1032.17 89.5085 1031.2 89.2778C1030.23 89.0471 1029.3 88.6961 1028.32 88.5155C1027.34 88.335 1026.6 86.4795 1025.61 86.339C1024.62 86.1986 1023.45 87.2919 1022.46 87.2016C1021.46 87.1113 1020.5 86.1786 1019.5 86.1284C1018.5 86.0883 1017.45 86.0983 1016.45 86.0983C1015.45 86.0983 1014.42 86.5096 1013.42 86.5697C1012.42 86.6199 1011.38 86.66 1010.39 86.7603C1009.39 86.8706 1008.47 87.6329 1007.48 87.7934C1006.49 87.9539 1005.32 87.332 1004.35 87.5426C1003.37 87.7633 1002.65 89.0872 1001.7 89.358C1000.73 89.6389 1000.14 90.8926 999.209 91.2336C998.259 91.5747 996.919 90.7723 996.009 91.1735C995.089 91.5847 993.639 90.9929 992.769 91.4643C991.879 91.9458 991.679 93.6308 990.849 94.1824C990.009 94.7341 988.699 94.6438 987.909 95.2657C987.119 95.8875 985.719 95.9477 984.999 96.6398C984.279 97.3318 984.999 99.4782 984.359 100.241C983.709 101.003 983.159 101.765 982.589 102.598C982.029 103.42 981.839 104.393 981.359 105.286C980.889 106.158 978.699 106.228 978.309 107.161C977.929 108.074 979.299 109.649 979.009 110.621C978.719 111.564 976.649 112.086 976.439 113.089C976.299 113.771 976.729 114.573 976.959 115.346C976.149 114.904 974.849 114.704 974.449 114.142C973.869 113.34 972.829 113.36 972.039 112.758C971.269 112.176 971.109 110.872 970.179 110.461C969.309 110.08 968.789 108.264 967.799 108.014C966.869 107.783 965.529 109.378 964.519 109.247C963.569 109.127 962.639 108.626 961.629 108.595C960.659 108.565 959.669 108.285 958.669 108.335C957.689 108.385 956.659 108.094 955.669 108.204C954.689 108.305 953.689 108.515 952.719 108.676C951.739 108.836 951.099 110.722 950.149 110.922C949.169 111.123 947.999 110.301 947.059 110.541C946.079 110.792 945.039 110.742 944.129 111.013C943.149 111.314 942.159 111.504 941.279 111.825C940.289 112.176 939.629 113.189 938.789 113.55C937.779 113.992 937.159 114.834 936.409 115.255C935.549 115.737 933.739 114.664 932.919 115.205C932.099 115.747 932.299 117.763 931.509 118.355C930.719 118.946 929.429 118.866 928.669 119.498C927.919 120.13 928.119 121.795 927.409 122.467C926.699 123.139 926.049 123.801 925.369 124.513C924.689 125.225 923.539 125.446 922.899 126.198C922.259 126.94 920.959 127.141 920.349 127.913C919.739 128.685 920.129 130.21 919.549 131.002C918.969 131.795 918.869 132.878 918.319 133.7C917.769 134.523 915.679 134.322 915.159 135.155C915.049 135.325 914.909 135.476 914.749 135.616C914.029 135.425 913.169 135.375 912.679 134.924C911.949 134.242 911.499 133.359 910.719 132.737C909.939 132.106 910.049 130.32 909.229 129.759C908.399 129.187 907.479 128.705 906.609 128.224C905.729 127.723 904.559 127.823 903.649 127.432C902.719 127.03 902.209 125.315 901.269 125.034C900.299 124.754 898.969 125.837 897.989 125.706C896.989 125.566 895.969 124.062 894.979 124.092C893.989 124.132 893.269 126.529 892.279 126.75C891.319 126.97 889.559 124.954 888.619 125.375C887.739 125.767 887.339 127.412 886.479 128.003C885.689 128.545 885.239 129.568 884.469 130.29C883.769 130.942 882.969 131.113 882.299 131.915C882.279 130.892 881.939 130.25 881.819 129.267C881.699 128.264 882.079 127.161 881.859 126.198C881.629 125.215 881.029 124.312 880.709 123.38C880.379 122.427 879.789 121.594 879.369 120.681C878.939 119.769 879.869 118.064 879.349 117.211C878.839 116.359 876.229 116.87 875.629 116.058C875.039 115.255 875.489 113.63 874.819 112.878C874.159 112.136 873.109 111.745 872.379 111.043C871.659 110.351 871.139 109.418 870.359 108.786C869.589 108.154 869.279 106.83 868.449 106.248C867.639 105.677 866.449 105.556 865.589 105.025C864.739 104.503 862.959 105.647 862.069 105.175C861.189 104.704 860.289 104.463 859.369 104.042C858.469 103.621 858.329 101.484 857.389 101.113C856.469 100.742 855.729 99.739 854.779 99.4181C853.839 99.0971 852.409 100.261 851.439 99.9797C850.479 99.7089 849.879 97.9738 848.909 97.7431C847.939 97.5124 846.889 97.382 845.909 97.2014C844.929 97.0209 843.739 97.9437 842.749 97.8133C841.759 97.6729 840.819 97.041 839.819 96.9507C838.819 96.8604 837.749 98.1643 836.749 98.1242C835.749 98.0841 834.789 96.8103 833.789 96.8203C832.789 96.8203 831.779 97.041 830.789 97.0911C829.789 97.1413 828.879 98.0841 827.889 98.1944C826.889 98.3047 825.659 96.6899 824.679 96.8504C823.689 97.0109 822.859 98.1443 821.889 98.3649C820.909 98.5856 819.679 97.9537 818.729 98.2245C817.759 98.5053 817.169 99.9998 816.239 100.331C815.289 100.672 813.739 99.5785 812.829 99.9797C811.909 100.391 811.469 101.905 810.599 102.377C809.709 102.858 809.239 103.972 808.399 104.523C807.559 105.075 807.049 105.958 806.269 106.579C805.479 107.201 803.899 106.84 803.169 107.542C802.449 108.234 801.959 109.177 801.309 109.939C800.659 110.702 801.139 112.236 800.569 113.069C800.009 113.891 799.679 114.694 799.199 115.576C798.729 116.449 798.299 117.191 797.909 118.134C797.529 119.047 794.629 119.067 794.329 120.04C794.039 120.982 794.799 122.286 794.589 123.289C794.389 124.252 795.109 125.365 794.999 126.389C794.889 127.361 794.299 128.294 794.259 129.327C794.239 129.929 794.299 130.952 794.359 131.895C794.239 130.962 794.039 129.959 793.989 129.397C793.889 128.344 795.169 126.92 794.869 126.048C794.529 125.065 793.619 124.042 793.059 123.269C792.479 122.467 791.719 121.354 790.929 120.752C790.159 120.17 788.179 121.524 787.249 121.113C786.379 120.732 785.989 118.846 784.999 118.595C784.069 118.365 782.999 118.204 781.999 118.084C781.039 117.963 779.989 118.104 778.979 118.084C778.009 118.054 776.969 117.753 775.969 117.793C774.989 117.843 774.019 118.525 773.039 118.635C772.059 118.736 771.059 118.776 770.079 118.926C769.709 118.986 769.349 119.077 768.989 119.157C769.429 118.465 770.099 117.733 770.029 117.061C769.929 116.098 769.189 115.135 769.009 114.152C768.839 113.189 768.719 112.166 768.489 111.203C768.269 110.24 766.329 109.729 766.059 108.796C765.789 107.833 767.579 106.238 767.279 105.326C766.959 104.363 765.649 103.741 765.309 102.868C764.929 101.885 764.339 101.053 763.969 100.23C763.499 99.1974 764.069 97.6929 763.649 96.9908C763.149 96.1583 762.559 95.1955 761.939 94.3529C761.349 93.5506 759.459 93.7311 758.789 92.9588C758.129 92.2065 757.609 91.3339 756.879 90.6218C756.159 89.9197 754.919 89.8595 754.139 89.2176C753.359 88.5757 753.119 87.2618 752.289 86.7102C751.439 86.1384 750.669 85.4564 749.779 84.995C748.869 84.5236 748.089 83.6109 747.159 83.2899C746.189 82.9489 745.029 83.1194 744.039 82.959C743.039 82.7985 742.049 84.1926 741.049 84.2428C740.049 84.2929 739.379 84.5437 738.399 84.8345C737.459 85.1154 736.199 84.2829 735.289 84.8045C734.449 85.2759 732.909 84.995 732.109 85.6971C731.389 86.329 731.329 87.9238 730.649 88.7462C730.629 87.7131 730.269 86.6399 730.129 85.657C729.979 84.644 729.699 83.7112 729.429 82.7483C729.149 81.7654 730.309 80.2108 729.909 79.288C729.509 78.3552 728.309 77.7033 727.799 76.8307C727.289 75.9581 725.889 75.6873 725.269 74.8748C724.659 74.0724 724.029 73.3503 723.329 72.6081C722.639 71.8759 723.129 69.8298 722.359 69.1678C721.599 68.5058 720.059 68.7365 719.229 68.1347C718.409 67.553 717.619 66.881 716.749 66.3494C715.889 65.8278 714.279 66.7305 713.369 66.2692C712.469 65.8178 712.109 64.3133 711.169 63.9121C710.239 63.521 709.239 63.3505 708.279 63.0094C707.329 62.6785 706.579 61.6654 705.599 61.3846C704.629 61.1138 703.809 60.0005 702.819 59.7798C701.829 59.5591 700.599 60.3515 699.599 60.191C698.599 60.0306 697.489 60.7527 696.489 60.6524C695.479 60.5521 694.559 59.2081 693.549 59.168C692.539 59.1279 691.479 59.3987 690.479 59.4087C689.459 59.4288 688.379 58.9072 687.379 58.9774C686.369 59.0577 685.559 61.0436 684.569 61.184C683.559 61.3344 682.149 59.3084 681.169 59.519C680.169 59.7397 679.099 60.0306 678.129 60.3214C677.149 60.6123 676.529 62.1067 675.589 62.4779C674.639 62.849 674.269 64.3936 673.369 64.8449C672.459 65.3063 670.309 63.6012 669.459 64.1428C668.599 64.6945 668.649 66.6202 667.859 67.2521C667.069 67.894 667.199 69.4085 666.499 70.1307C665.799 70.8528 664.119 70.6422 663.509 71.4546C662.909 72.257 661.299 72.5178 660.799 73.4105C660.309 74.2831 662.039 76.259 661.649 77.2118C661.279 78.1346 659.139 78.4455 658.859 79.4485C658.599 80.4013 659.889 81.7152 659.729 82.7483C659.639 83.3301 659.769 83.9018 659.869 84.4835C659.619 84.5236 659.369 84.664 659.109 84.8546C659.149 83.9419 659.329 82.9289 659.029 82.297C658.589 81.3843 657.339 80.5317 656.639 79.8798C655.939 79.2278 654.909 78.4455 653.999 78.0042C653.149 77.603 652.059 77.0012 651.069 76.7605C650.149 76.5398 649.019 76.1888 648.009 76.0985C647.059 76.0082 645.929 75.918 644.929 75.928C643.959 75.938 642.909 76.4395 641.919 76.5298C641.039 76.61 640.159 77.0212 639.279 77.2118C638.809 76.7404 638.279 76.3091 637.879 75.7775C637.289 74.9751 637.549 73.4807 636.879 72.7284C636.219 71.9862 634.229 72.568 633.499 71.8759C632.779 71.1838 632.189 70.4918 631.409 69.8499C630.639 69.218 631.119 66.9512 630.299 66.3695C629.489 65.7978 628.339 65.6473 627.479 65.1257C626.629 64.6042 625.829 63.9322 624.939 63.4508C624.059 62.9793 623.379 61.9964 622.469 61.5752C621.569 61.1539 619.789 62.7487 618.859 62.3776C617.939 62.0064 617.809 59.4288 616.859 59.0978C615.919 58.7768 614.279 60.6123 613.319 60.3415C612.359 60.0707 611.489 59.6093 610.509 59.3786C609.539 59.1479 608.779 57.9343 607.789 57.7538C606.809 57.5732 605.939 56.3997 604.949 56.2593C603.959 56.1189 602.889 56.0788 601.899 55.9885C600.899 55.8982 599.769 57.503 598.769 57.4529C597.769 57.4127 596.779 56.7508 595.789 56.7508C594.789 56.7508 593.799 57.2824 592.809 57.3425C591.809 57.3927 590.899 58.2252 589.909 58.3355C588.909 58.4458 587.829 57.7036 586.849 57.8641C585.859 58.0246 585.009 58.7768 584.039 58.9975C583.059 59.2181 581.539 57.3626 580.579 57.6434C579.609 57.9243 579.389 60.5621 578.459 60.8931C577.509 61.2341 576.149 60.4418 575.239 60.843C574.319 61.2542 574.129 63.0596 573.259 63.531C572.369 64.0124 570.839 63.2803 569.999 63.8219C569.159 64.3735 568.079 64.6443 567.299 65.2561C566.509 65.878 566.569 67.4627 565.849 68.1548C565.129 68.8469 562.879 68.1548 562.229 68.9171C561.579 69.6793 563.189 72.1768 562.619 73.0093C562.059 73.8317 560.949 74.1928 560.459 75.0855C559.989 75.9581 560.359 77.1215 559.969 78.0644C559.589 78.9771 558.549 79.5588 558.249 80.5317C557.959 81.4745 556.469 82.1265 556.259 83.1295C556.059 84.0923 556.119 85.1555 555.999 86.1786C555.969 86.4594 555.839 86.7503 555.689 87.0311C555.729 86.7904 555.729 86.5697 555.659 86.3491C555.329 85.3661 554.549 84.6941 553.989 83.9218C553.409 83.1194 553.469 81.5548 552.679 80.953C551.909 80.3712 550.309 81.0733 549.379 80.6721C548.509 80.291 547.549 80.4615 546.559 80.2108C545.629 79.9801 544.739 80.2108 543.729 80.0804C542.769 79.96 541.919 79.7393 540.919 79.7093C539.949 79.6792 538.969 77.8136 537.969 77.8537C536.989 77.9039 536.069 78.9269 535.089 79.0373C534.109 79.1376 533.179 79.4585 532.209 79.619C531.229 79.7795 530.139 79.2579 529.179 79.4585C528.199 79.6591 527.649 81.5447 526.719 81.7855C525.739 82.0362 524.569 81.3341 523.649 81.6149C522.669 81.9158 521.459 81.3843 520.579 81.7052C519.589 82.0563 518.809 82.8085 517.969 83.1696C516.949 83.6109 516.409 84.664 515.669 85.0853C514.809 85.5667 514.149 86.2588 513.329 86.8004C512.509 87.342 510.469 86.1585 509.689 86.7503C508.899 87.342 507.899 87.7733 507.139 88.4152C506.389 89.0471 505.619 89.7893 504.909 90.4613C504.199 91.1333 504.509 92.9086 503.829 93.6208C503.149 94.3329 502.519 95.0751 501.869 95.8273C501.229 96.5696 499.349 96.3288 498.739 97.1112C498.129 97.8835 499.159 99.9296 498.579 100.732C497.999 101.524 498.159 102.798 497.609 103.621C497.059 104.443 495.519 104.583 494.999 105.416C494.479 106.248 493.959 107.081 493.469 107.943C492.979 108.796 492.489 109.649 492.029 110.521C491.569 111.394 491.949 112.678 491.519 113.56C491.079 114.443 489.209 114.633 488.799 115.526C488.389 116.429 488.099 117.392 487.709 118.294C487.319 119.207 487.239 120.25 486.879 121.153C486.599 121.855 485.619 122.296 485.349 123.008C485.079 123.721 486.949 125.205 486.699 125.907C486.359 126.88 483.639 127.111 483.449 128.013C483.239 129.006 484.849 130.25 484.779 131.193C484.709 132.186 485.299 133.058 485.349 134.021C485.399 135.004 485.399 135.887 485.519 136.86C485.639 137.823 484.999 138.876 485.149 139.859C485.289 140.792 484.789 141.825 484.879 142.797C484.209 142.336 483.509 141.875 482.959 141.594C481.989 141.122 480.209 143.159 479.299 142.938C478.269 142.697 477.609 142.125 476.659 142.196C475.649 142.276 474.599 141.714 473.679 142.105C472.779 142.487 472.269 143.469 471.449 144.111C470.689 144.703 470.619 145.837 469.939 146.629C469.309 147.361 466.749 146.679 466.179 147.552C465.649 148.364 465.819 149.718 465.339 150.641C464.889 151.513 464.789 152.587 464.389 153.54C464.009 154.442 463.449 155.315 463.119 156.288C463.089 156.368 463.049 156.448 463.009 156.538H462.989C461.989 156.589 460.609 155.204 459.629 155.495C458.689 155.776 457.509 156.328 456.599 156.849C455.769 157.321 454.649 157.943 453.839 158.645C453.119 159.277 453.629 160.089 452.949 160.912C452.929 159.878 452.969 159.768 452.829 158.785C452.679 157.772 453.059 156.548 452.789 155.586C452.509 154.603 450.519 154.212 450.119 153.289C449.719 152.356 449.539 151.383 449.029 150.51C448.509 149.638 448.259 148.615 447.649 147.812C447.039 147.01 446.459 146.168 445.759 145.425C445.069 144.693 444.079 144.282 443.309 143.61C442.549 142.948 441.629 142.537 440.809 141.945C439.999 141.363 438.879 141.343 437.999 140.812C437.139 140.29 436.589 139.327 435.679 138.866C434.779 138.414 434.299 137.06 433.359 136.669C432.429 136.278 431.229 136.569 430.269 136.228C429.319 135.897 428.049 136.739 427.069 136.459C426.099 136.188 425.609 134.092 424.619 133.871C423.629 133.65 422.659 133.149 421.659 132.988C420.659 132.828 419.609 132.697 418.609 132.597C417.599 132.497 416.469 134.112 415.469 134.061C414.459 134.021 413.499 133.73 412.489 133.75C411.469 133.771 410.349 131.785 409.339 131.865C408.329 131.945 407.399 133.219 406.399 133.369C405.389 133.52 404.429 133.931 403.449 134.142C402.449 134.362 401.569 134.934 400.609 135.225C399.629 135.516 398.739 135.927 397.809 136.298C396.859 136.669 395.359 135.827 394.459 136.278C393.549 136.739 393.749 139.106 392.899 139.648C392.039 140.2 391.319 140.691 390.529 141.323C389.739 141.965 388.679 142.125 387.969 142.858C387.269 143.58 387.079 144.613 386.469 145.425C385.869 146.228 385.659 147.1 385.149 147.993C384.659 148.866 383.759 149.387 383.369 150.34C382.989 151.263 382.919 152.175 382.639 153.178C382.379 154.131 381.359 154.874 381.199 155.907C381.089 156.619 381.199 157.351 381.249 158.093C380.819 157.381 380.069 156.769 379.769 156.157C379.329 155.245 378.829 154.332 378.119 153.68C377.419 153.028 376.189 153.199 375.279 152.757C374.429 152.356 374.029 150.36 373.029 150.129C372.109 149.909 370.749 152.276 369.739 152.185C368.789 152.095 367.919 149.738 366.919 149.758C365.949 149.768 364.939 150.21 363.949 150.3C362.979 150.39 362.259 152.376 361.289 152.526C360.319 152.677 358.829 150.069 357.879 150.28C357.219 150.42 356.589 150.761 355.959 151.042C355.899 151.002 355.839 150.972 355.789 150.932C355.059 150.25 354.209 149.788 353.429 149.156C352.649 148.525 351.749 148.194 350.929 147.622C350.099 147.05 349.729 145.887 348.869 145.395C347.989 144.894 347.269 144.131 346.369 143.74C345.439 143.339 344.789 142.025 343.839 141.744C342.869 141.463 341.589 142.396 340.609 142.266C339.609 142.125 338.599 140.611 337.599 140.651C336.609 140.691 335.439 141.112 334.459 141.343C333.499 141.564 332.739 142.747 331.809 143.169C330.929 143.56 330.309 144.452 329.449 145.034C328.659 145.576 328.449 146.729 327.679 147.441C326.979 148.093 325.329 148.484 324.659 149.287C324.639 148.264 325.439 146.659 325.319 145.676C325.199 144.673 325.199 143.56 324.969 142.597C324.739 141.614 323.609 140.842 323.289 139.899C322.959 138.946 323.489 137.592 323.059 136.679C322.629 135.766 321.399 135.225 320.879 134.362C320.369 133.51 319.719 132.717 319.119 131.905C318.529 131.103 317.959 130.25 317.299 129.498C316.639 128.756 316.649 127.271 315.919 126.569C315.199 125.887 313.869 125.787 313.089 125.145C312.319 124.513 311.359 124.082 310.539 123.5C309.729 122.928 309.349 121.594 308.489 121.073C307.639 120.551 306.139 121.103 305.249 120.631C304.369 120.16 303.109 120.531 302.189 120.11C301.289 119.689 300.729 118.515 299.799 118.144C298.869 117.773 298.119 116.92 297.169 116.599C296.229 116.278 295.069 116.619 294.099 116.349C293.139 116.078 292.109 116.138 291.139 115.907C290.169 115.677 289.479 114.062 288.499 113.881C287.519 113.701 286.529 113.259 285.539 113.129C284.549 112.989 283.359 114.413 282.369 114.323C281.369 114.232 280.449 112.979 279.449 112.938C278.449 112.898 277.419 113.851 276.419 113.861C275.419 113.861 274.459 114.473 273.469 114.523C272.469 114.573 271.499 114.513 270.509 114.613C269.509 114.724 268.399 113.881 267.419 114.042C266.429 114.202 265.409 114.302 264.439 114.523C263.459 114.744 262.189 114.032 261.239 114.302C260.269 114.583 259.679 116.168 258.749 116.499C257.799 116.84 257.179 117.913 256.269 118.314C255.349 118.726 254.139 118.455 253.259 118.926C252.369 119.408 250.799 118.816 249.959 119.358C249.119 119.909 248.199 120.551 247.419 121.173C246.629 121.795 246.459 123.249 245.739 123.941C245.019 124.633 245.469 126.389 244.819 127.151C244.169 127.913 243.009 128.174 242.439 129.006C241.879 129.829 240.549 130.19 240.069 131.083C239.599 131.955 240.309 133.389 239.919 134.332C239.539 135.245 238.489 135.897 238.189 136.87C237.899 137.813 236.879 138.625 236.679 139.628C236.479 140.591 238.559 141.915 238.439 142.928C238.349 143.73 236.799 144.422 236.239 145.215C236.099 144.462 235.869 143.811 235.629 143.118C235.289 142.146 234.359 141.835 233.799 141.062C233.219 140.26 233.449 138.966 232.659 138.364C231.889 137.783 231.649 136.027 230.719 135.616C229.849 135.235 228.099 137.371 227.109 137.121C226.179 136.89 225.689 134.162 224.689 134.031C223.729 133.911 222.639 133.921 221.629 133.891C220.659 133.861 219.639 134.864 218.639 134.904C217.659 134.944 216.789 136.148 215.809 136.258C214.829 136.358 213.949 136.79 212.979 136.95C211.999 137.111 210.739 135.586 209.779 135.787C208.799 135.987 207.829 136.228 206.889 136.469C205.909 136.719 204.699 136.178 203.779 136.459C202.799 136.759 201.879 137.291 200.989 137.612C199.999 137.963 199.789 140.15 198.949 140.511C197.929 140.952 196.539 140.29 195.789 140.711C194.929 141.193 193.869 141.403 193.049 141.945C192.229 142.487 192.399 144.422 191.609 145.014C190.819 145.606 188.969 144.844 188.219 145.475C187.469 146.107 186.949 147.06 186.239 147.742C185.529 148.414 185.909 150.18 185.229 150.892C184.549 151.604 182.389 150.952 181.739 151.704C181.099 152.446 180.299 153.128 179.689 153.901C179.079 154.673 178.789 155.736 178.209 156.538C177.629 157.331 176.629 157.882 176.079 158.695C175.529 159.517 176.409 161.273 175.889 162.115C175.369 162.958 173.269 162.857 172.779 163.72C172.289 164.572 171.759 165.455 171.299 166.328C170.839 167.2 172.219 169.036 171.779 169.918C171.339 170.801 168.949 170.761 168.539 171.654C168.129 172.556 168.539 173.85 168.159 174.753C168.119 174.843 168.109 174.933 168.079 175.024C167.589 174.221 166.019 173.75 165.729 172.907C165.399 171.954 166.349 170.51 165.929 169.597C165.499 168.685 165.079 167.712 164.559 166.859C164.049 166.007 162.139 166.097 161.549 165.285C160.959 164.482 160.549 163.62 159.879 162.867C159.219 162.125 159.579 160.39 158.849 159.688C158.129 158.996 157.029 158.695 156.249 158.053C155.479 157.421 153.809 158.043 152.979 157.461C152.169 156.89 152.209 155.064 151.349 154.543C150.499 154.021 149.039 154.623 148.149 154.141C147.269 153.67 146.749 152.557 145.839 152.135C144.939 151.714 144.689 149.668 143.749 149.297C142.829 148.926 141.029 150.852 140.079 150.531C139.139 150.21 138.209 149.979 137.249 149.698C136.289 149.427 135.409 148.986 134.439 148.755C133.469 148.525 132.729 147.221 131.749 147.04C130.769 146.86 129.679 147.271 128.689 147.13C127.699 146.99 126.709 146.89 125.719 146.799C124.719 146.709 123.749 146.408 122.749 146.368C121.749 146.328 120.739 144.834 119.749 144.834C118.749 144.834 117.809 147.401 116.819 147.451C115.819 147.502 114.779 146.649 113.789 146.759C112.789 146.87 111.649 146.017 110.669 146.178C109.679 146.338 108.679 146.689 107.709 146.91C106.729 147.13 105.859 147.883 104.909 148.163C104.759 148.204 104.609 148.264 104.469 148.314C104.739 147.732 105.039 147.15 104.959 146.609C104.799 145.606 105.399 144.462 105.179 143.48C104.959 142.497 102.739 142.055 102.459 141.092C102.179 140.119 102.369 139.086 102.029 138.144C101.679 137.201 102.419 135.827 102.009 134.914C101.609 134.031 101.539 132.858 101.009 131.925C100.519 131.062 98.5089 131.133 97.9089 130.27C97.3389 129.438 96.6689 128.766 96.0189 127.973C95.3689 127.181 95.6589 125.586 94.9289 124.874C94.1889 124.142 93.7989 122.938 92.9989 122.326C92.5389 121.975 91.9389 121.835 91.3389 121.695C91.3989 121.273 91.4789 120.892 91.6689 120.661C92.2789 119.929 93.0789 119.478 93.4489 118.495C93.7889 117.612 93.8289 116.69 93.9989 115.646C94.1489 114.704 93.9989 113.771 94.0289 112.738C94.0589 111.775 96.0289 110.722 95.9689 109.689C95.9089 108.716 93.5689 107.923 93.4389 106.91C93.3089 105.927 92.9689 105.035 92.7889 104.042C92.6089 103.059 94.7289 101.595 94.5089 100.622C94.2789 99.6487 92.7389 98.9868 92.4789 98.0239C92.2089 97.051 91.2189 96.3188 90.9289 95.386C90.6189 94.4131 91.5989 93.029 91.2689 92.1163C90.9189 91.1333 90.4489 90.2206 90.0889 89.338C89.6889 88.345 89.0789 87.5025 88.6789 86.67C88.1889 85.647 88.8489 84.0622 88.4089 83.3301C87.9089 82.4976 86.2989 82.2769 85.7089 81.4344C85.1389 80.632 84.6989 79.6792 84.0589 78.8868C83.4289 78.1145 81.5589 78.4656 80.8689 77.7233C80.1889 76.9912 79.9189 75.938 79.1789 75.2459C78.4489 74.5639 77.4489 74.2831 76.6689 73.6512C75.8889 73.0193 76.2089 70.923 75.3889 70.3614C74.5589 69.7897 72.9789 70.4215 72.1189 69.9301C71.2389 69.4286 70.5989 68.5359 69.6989 68.1448C68.7689 67.7436 67.8889 67.222 66.9489 66.9412C65.9789 66.6603 64.8889 67.1919 63.9089 67.0615C62.9089 66.9211 62.0089 66.3695 61.0189 66.4096C60.0289 66.4497 59.2189 67.222 58.2289 67.4527C57.2689 67.6733 55.8389 66.4998 54.9089 66.9211C54.0289 67.3123 53.1389 68.0244 52.2889 68.6061C51.4989 69.1478 50.8689 70.0605 50.0989 70.7726C49.3989 71.4245 48.9489 72.0464 48.2689 72.8488C48.2489 71.8257 47.5189 71.1738 47.4089 70.1909C47.2889 69.1879 48.4689 67.9442 48.2489 66.9713C48.0189 65.9883 46.0989 65.5069 45.7689 64.5641C45.4389 63.6112 46.3889 62.1669 45.9689 61.2542C45.5389 60.3415 45.1189 59.3686 44.5989 58.516C44.0889 57.6635 42.1789 57.7538 41.5889 56.9413C40.9989 56.1389 40.5889 55.2764 39.9189 54.5241C39.2589 53.7819 39.6189 52.0467 38.8889 51.3446C38.1689 50.6526 37.0689 50.3517 36.2889 49.7098C35.519 49.0779 33.8489 49.6997 33.0189 49.118C32.2089 48.5463 32.2489 46.7208 31.3889 46.1993C30.5389 45.6777 29.0789 46.2795 28.1889 45.7981C27.3089 45.3267 26.7889 44.2134 25.8789 43.7921C24.9789 43.3708 24.7289 41.3247 23.7889 40.9536C22.8689 40.5825 21.0689 42.5083 20.1189 42.1873C19.1789 41.8664 18.2489 41.6357 17.2889 41.3548C16.3289 41.084 15.4489 40.6427 14.4789 40.412C13.5089 40.1813 12.769 38.8774 11.7889 38.6969C10.8089 38.5164 9.7189 38.9276 8.72891 38.7872C7.73892 38.6468 6.7489 38.5465 5.75891 38.4562C4.75891 38.3659 3.78894 38.065 2.78894 38.0249C1.78894 37.9848 0.778931 36.4903 -0.21106 36.4903C-1.21106 36.4903 -2.15109 39.058 -3.14108 39.1081C-4.14108 39.1583 -5.18109 38.3057 -6.17108 38.4161C-7.17108 38.5264 -8.31108 37.6739 -9.29108 37.8343C-10.2811 37.9948 -11.2811 38.3459 -12.2511 38.5665C-13.2311 38.7872 -14.1011 39.5394 -15.0511 39.8203C-16.0211 40.1011 -16.9011 40.6327 -17.8311 40.9637C-18.7811 41.3047 -19.1611 42.8994 -20.0711 43.3006C-20.9911 43.7119 -22.3311 43.1 -23.2011 43.5714C-24.0911 44.0529 -24.9111 44.5744 -25.7411 45.1161C-26.5811 45.6677 -26.7311 47.0418 -27.5211 47.6637C-28.3111 48.2855 -29.4411 48.3557 -30.1611 49.0478C-30.8811 49.7398 -31.5911 50.3617 -32.2411 51.124C-32.8911 51.8863 -32.9311 52.9996 -33.5011 53.822C-34.0611 54.6445 -34.8911 55.1861 -35.3711 56.0788C-35.8411 56.9514 -37.8511 57.1118 -38.2411 58.0446C-38.6211 58.9574 -37.3411 60.4919 -37.6411 61.4648C-37.9311 62.4076 -39.9311 62.9493 -40.1311 63.9523C-40.2011 64.3234 -40.3111 64.7045 -40.4111 65.0856C-40.5811 64.7246 -40.7511 64.3735 -40.9611 64.0927C-41.5411 63.2903 -42.2111 62.0967 -43.0011 61.4949C-43.4311 61.1639 -44.3211 61.5852 -45.1811 61.9463C-44.9011 61.6353 -44.7311 61.3244 -44.7711 61.0436C-44.9211 60.0506 -47.8011 59.519 -48.0011 58.506C-48.2011 57.513 -47.7511 56.4098 -48.0011 55.4168C-48.2511 54.4339 -47.4711 53.1701 -47.7511 52.1872C-48.0411 51.2042 -49.1011 50.472 -49.4211 49.5092C-49.7411 48.5363 -50.4411 47.7138 -50.7811 46.771C-51.1311 45.7981 -50.8411 44.6045 -51.2111 43.6717C-51.6011 42.7089 -50.8211 41.2545 -51.2211 40.3418C-51.6411 39.3789 -53.8011 39.2385 -54.2311 38.3559C-54.6911 37.393 -54.1311 35.9688 -54.5811 35.1162C-55.0911 34.1433 -56.4611 33.7421 -56.9311 32.9397C-57.5211 31.9468 -56.8311 30.2216 -57.3511 29.5195C-57.9511 28.7071 -59.0111 28.1454 -59.7011 27.3631C-60.3711 26.5908 -62.0211 26.7412 -62.7611 26.0091C-63.4911 25.2869 -63.6511 23.9629 -64.4311 23.2909C-65.2211 22.629 -65.8611 21.7263 -66.6911 21.1345C-67.5311 20.5327 -69.3211 21.4755 -70.2011 20.954C-71.1011 20.4324 -71.8911 20.0212 -72.8211 19.5999C-73.7711 19.1686 -74.5111 18.6371 -75.4811 18.3261C-76.4711 18.0052 -76.9711 15.7484 -77.9811 15.5779C-79.0011 15.4074 -80.1911 16.942 -81.2111 16.942C-82.2411 16.942 -83.1011 17.2128 -84.1111 17.4034C-85.1111 17.5939 -85.7911 18.1857 -86.7611 18.5769C-87.6911 18.948 -88.8111 18.6571 -89.7011 19.2389C-90.5311 19.7805 -91.8811 19.6902 -92.6811 20.4124C-93.4111 21.0743 -94.1811 21.8366 -94.8711 22.6691C-95.5011 23.4314 -96.1711 24.2739 -96.7611 25.1866C-97.3011 26.0091 -98.2411 26.7312 -98.7511 27.6841C-99.2111 28.5567 -98.8811 30.7031 -99.3111 31.696C-99.4511 30.673 -98.9711 28.7773 -99.1811 27.8144C-99.3911 26.8114 -99.1411 25.6379 -99.4211 24.6851C-99.7111 23.7022 -102.531 23.6019 -102.881 22.6791C-103.251 21.7263 -102.491 20.3823 -102.931 19.4896C-103.381 18.5669 -104.541 18.1356 -105.061 17.283C-105.591 16.4104 -106.241 15.7685 -106.831 14.9761C-107.441 14.1637 -107.091 12.6392 -107.761 11.907C-108.441 11.1648 -109.431 10.7636 -110.181 10.1016C-110.931 9.42959 -111.221 8.18588 -112.031 7.59412C-112.841 7.00235 -113.151 5.48783 -114.021 4.96628C-114.881 4.45475 -116.051 4.27421 -116.961 3.83289C-117.861 3.40161 -118.871 2.96029 -119.811 2.60924C-120.751 2.2582 -122.141 3.19098 -123.121 2.91014C-124.081 2.63933 -125.051 2.43874 -126.041 2.23814C-127.021 2.03754 -128.081 2.56912 -129.081 2.43874C-130.071 2.30835 -131.011 2.30835 -132.021 2.23814C-133.021 2.17796 -133.961 1.74667 -134.971 1.7567C-135.971 1.7567 -137.051 -0.0587158 -138.061 0.00146378C-139.061 0.0616433 -139.911 1.91718 -140.911 2.04757C-141.901 2.16793 -143.081 1.14487 -144.071 1.33544C-145.051 1.51598 -145.641 3.54203 -146.621 3.78274C-147.591 4.01343 -148.731 3.47182 -149.701 3.75265C-150.661 4.03349 -151.861 3.58215 -152.811 3.91313C-153.751 4.24412 -154.211 5.82885 -155.141 6.20999C-156.071 6.59112 -157.231 6.37046 -158.141 6.81178C-159.041 7.24307 -159.481 8.53693 -160.361 9.01836C-161.241 9.4998 -162.951 8.51687 -163.811 9.03842C-164.661 9.55998 -164.851 11.1146 -165.681 11.6863C-166.511 12.258 -167.991 11.917 -168.781 12.5389C-169.571 13.1507 -169.761 14.5248 -170.521 15.1767C-171.281 15.8287 -172.421 16.0594 -173.151 16.7615C-173.871 17.4535 -174.431 18.3261 -175.121 19.0583C-175.801 19.7905 -176.741 20.3121 -177.391 21.0944C-178.031 21.8667 -178.461 22.8195 -179.061 23.632C-179.651 24.4444 -179.801 25.5477 -180.351 26.4002C-180.891 27.2427 -182.801 27.2929 -183.301 28.1655C-183.791 29.0381 -182.781 30.7331 -183.221 31.6459C-183.661 32.5486 -184.571 33.2206 -184.961 34.1534C-185.341 35.0761 -185.901 35.9487 -186.231 36.9116C-186.561 37.8544 -187.641 38.6066 -187.921 39.5896C-188.191 40.5524 -186.841 41.9366 -187.061 42.9295C-187.271 43.9024 -186.981 44.9355 -187.131 45.9385C-187.281 46.9214 -189.201 47.6837 -189.301 48.6967C-189.401 49.6897 -188.501 50.7729 -188.551 51.796C-188.591 52.7889 -188.511 53.7819 -188.501 54.805C-188.501 55.1259 -188.691 55.4669 -188.941 55.808C-189.171 55.4569 -189.391 55.1159 -189.571 54.825C-190.121 53.9223 -192.461 54.7348 -193.171 54.133C-193.941 53.481 -194.091 52.458 -195.021 52.1169C-195.921 51.786 -196.751 51.7659 -197.771 51.6957C-198.711 51.6255 -199.641 51.0437 -200.661 51.1641C-201.601 51.2744 -202.781 50.6225 -203.771 50.8833C-204.701 51.124 -205.041 53.3205 -205.991 53.6716C-206.901 54.0026 -208.211 53.2804 -209.131 53.6916C-210.021 54.0928 -210.451 55.4068 -211.341 55.8681C-212.211 56.3195 -214.241 54.7047 -215.101 55.2062C-215.951 55.7077 -215.931 57.6735 -216.761 58.2151C-217.601 58.7568 -218.711 58.8671 -219.511 59.4288C-220.331 60.0005 -220.161 61.8861 -220.931 62.4779C-221.731 63.0897 -223.851 61.9764 -224.601 62.5882C-225.391 63.2401 -225.901 64.203 -226.601 64.8449C-227.381 65.547 -227.611 66.7506 -228.261 67.4025C-229.031 68.1648 -230.561 68.1347 -231.131 68.8067C-231.771 69.559 -231.421 71.1236 -232.031 71.896C-232.641 72.6683 -234.781 72.2971 -235.361 73.0895C-235.951 73.8819 -235.331 75.5669 -235.881 76.3793C-236.441 77.1917 -237.271 77.8337 -237.801 78.6661C-238.331 79.4986 -238.901 80.3211 -239.391 81.1736C-239.881 82.0262 -239.081 83.5908 -239.541 84.4534C-240.001 85.326 -240.201 86.2789 -240.621 87.1615C-241.051 88.0542 -242.561 88.4052 -242.961 89.3079C-243.351 90.2106 -243.751 91.1133 -244.111 92.026C-244.471 92.9488 -244.961 93.8113 -245.281 94.7441C-245.601 95.6769 -246.561 96.4191 -246.841 97.372C-247.121 98.3148 -247.591 99.2476 -247.841 100.2C-248.081 101.153 -247.611 102.307 -247.811 103.27C-248.011 104.232 -247.561 105.316 -247.721 106.289C-247.881 107.261 -247.601 108.274 -247.721 109.247C-247.841 110.23 -249.951 111.013 -250.031 111.996C-250.111 112.979 -250.001 114.022 -250.031 115.005C-250.061 115.987 -247.611 117.001 -247.601 117.983C-247.601 118.966 -250.461 120.04 -250.411 121.033C-250.361 122.015 -249.801 123.018 -249.701 124.001C-249.611 124.984 -247.961 125.807 -247.821 126.79C-247.661 128.334 -249.051 128.324 -249.101 129.909C-249.151 131.464 -249.121 131.594 -248.981 133.149C-248.841 134.693 -248.891 134.703 -248.751 136.248C-248.611 137.793 -247.281 137.672 -247.151 139.217C-247.011 140.761 -248.021 140.852 -247.881 142.396C-247.741 143.941 -247.641 143.931 -247.501 145.475C-247.361 147.02 -245.811 146.88 -245.671 148.424C-245.531 149.969 -245.741 149.989 -245.601 151.534C-245.461 153.078 -247.371 153.249 -247.231 154.793C-247.091 156.338 -245.121 156.157 -244.981 157.702C-244.841 159.247 -244.971 159.257 -244.831 160.801C-244.691 162.346 -244.201 162.296 -244.061 163.84C-243.921 165.385 -245.211 165.505 -245.071 167.05C-244.931 168.594 -245.491 168.645 -245.351 170.189C-245.211 171.734 -242.781 171.854 -243.031 173.389C-243.931 174.001 -246.431 172.887 -247.251 173.188C-248.231 173.549 -248.581 175.816 -249.501 175.916C-250.491 176.027 -251.501 176.127 -252.461 176.167C-253.421 176.207 -254.361 175.726 -255.341 175.946C-256.221 176.147 -256.641 177.16 -257.581 177.692C-258.331 178.123 -260.721 177.441 -261.531 178.203C-261.241 179.226 -260.211 180.56 -260.181 181.573C-260.151 182.606 -259.941 183.639 -260.081 184.662C-260.231 185.675 -259.401 186.919 -259.611 187.932C-259.821 188.935 -262.201 189.517 -262.381 190.53C-262.571 191.543 -262.001 192.736 -262.061 193.77C-262.121 194.793 -263.151 196.056 -262.981 197.089C-262.821 198.092 -260.401 198.594 -260.131 199.517C-259.851 200.48 -261.151 201.984 -260.781 202.877C-260.401 203.799 -259.301 204.421 -258.861 205.294C-258.411 206.177 -257.631 206.879 -257.151 207.731C-256.671 208.594 -255.341 208.975 -254.861 209.837C-254.381 210.7 -253.621 211.472 -253.171 212.355C-252.711 213.258 -254.211 215.173 -253.731 216.036C-253.241 216.929 -252.621 217.751 -252.111 218.594C-251.591 219.466 -251.291 220.499 -250.741 221.322C-250.181 222.164 -249.531 222.997 -248.941 223.779C-248.331 224.592 -247.781 225.524 -247.131 226.256C-246.461 227.019 -244.081 226.076 -243.371 226.758C-242.641 227.45 -242.601 228.814 -241.811 229.416C-241.011 230.028 -239.881 229.988 -239.021 230.479C-238.161 230.981 -238.071 233.017 -237.141 233.398C-236.231 233.779 -235.271 234.481 -234.291 234.732C-233.351 234.982 -232.081 234.11 -231.071 234.23C-230.981 234.24 -230.901 234.26 -230.811 234.27C-230.811 234.722 -230.821 235.163 -230.941 235.584C-231.211 236.557 -231.021 237.58 -231.201 238.573C-231.391 239.566 -233.531 240.288 -233.641 241.291C-233.741 242.294 -233.641 243.408 -233.651 244.421C-233.661 245.424 -231.171 246.346 -231.101 247.359C-231.031 248.352 -233.801 249.676 -233.651 250.689C-233.501 251.672 -232.821 252.665 -232.591 253.658C-232.371 254.631 -230.611 255.243 -230.311 256.226C-229.931 257.73 -231.331 257.921 -231.151 259.496C-230.981 261.04 -230.061 260.96 -229.691 262.474C-229.331 263.979 -230.381 264.23 -230.021 265.744C-229.661 267.249 -227.471 266.727 -227.111 268.232C-226.751 269.736 -228.431 270.147 -228.071 271.652C-227.711 273.156 -227.001 272.986 -226.641 274.49C-226.281 275.995 -225.941 275.915 -225.581 277.419C-225.221 278.924 -224.291 278.703 -223.931 280.207C-223.571 281.712 -223.291 281.642 -222.931 283.156C-222.571 284.661 -224.721 285.182 -224.361 286.687C-224.001 288.191 -223.871 288.161 -223.511 289.666C-223.151 291.17 -222.981 290.919 -223.101 292.464C-224.091 292.885 -224.291 292.374 -225.221 292.534C-226.241 292.715 -227.091 292.594 -228.061 292.594C-229.031 292.594 -230.141 294.901 -231.121 294.851C-232.121 294.801 -233.041 293.758 -234.041 293.818C-235.011 293.878 -235.721 294.64 -236.721 294.951C-237.611 295.222 -239.561 294.44 -240.491 295.022C-240.021 295.954 -240.161 297.218 -240.071 298.111C-239.971 299.074 -238.941 299.896 -239.081 300.829C-239.221 301.772 -239.651 302.664 -239.831 303.597C-240.011 304.54 -240.871 305.523 -240.881 306.486C-240.891 307.409 -239.821 308.361 -239.501 309.324C-239.161 310.357 -239.571 311.822 -239.041 312.754C-238.521 313.687 -238.081 314.861 -237.441 315.733C-236.801 316.596 -234.871 316.476 -234.171 317.298C-233.471 318.121 -234.011 320.016 -233.311 320.829C-232.601 321.651 -230.421 321.21 -229.761 322.042C-229.111 322.855 -228.441 323.617 -227.781 324.399C-227.101 325.192 -226.511 326.024 -225.821 326.776C-225.111 327.539 -224.341 328.191 -223.611 328.913C-222.871 329.645 -223.011 331.33 -222.231 332.002C-221.451 332.684 -219.711 332.182 -218.891 332.814C-218.071 333.436 -217.871 334.931 -217.001 335.492C-216.141 336.054 -214.951 336.084 -214.031 336.576C-213.131 337.067 -212.091 337.207 -211.131 337.629C-210.191 338.04 -209.581 339.284 -208.591 339.615C-207.631 339.946 -206.541 339.956 -205.521 340.206C-204.541 340.447 -203.621 341.26 -202.581 341.43C-201.581 341.601 -200.471 341.039 -199.481 341.099C-198.471 341.159 -197.431 341.942 -196.441 341.901C-195.421 341.861 -194.361 341.601 -193.381 341.45C-192.371 341.29 -191.241 341.31 -190.291 341.029C-189.311 340.738 -188.891 338.943 -187.991 338.531C-187.061 338.11 -186.281 337.669 -185.451 337.117C-184.611 336.556 -183.721 336.215 -182.991 335.522C-182.261 334.83 -181.661 334.128 -181.061 333.306C-180.481 332.503 -178.751 332.293 -178.321 331.36C-177.851 330.367 -179.341 328.742 -179.121 327.759C-178.991 327.157 -178.941 326.636 -178.921 326.114C-178.171 326.656 -177.761 327.799 -176.941 328.211C-176.061 328.662 -175.311 329.364 -174.411 329.775C-173.511 330.186 -172.281 329.755 -171.361 330.116C-170.441 330.477 -169.481 330.608 -168.551 330.929C-167.621 331.25 -167.231 333.236 -166.281 333.516C-165.341 333.797 -164.361 334.068 -163.401 334.309C-162.441 334.549 -161.561 335.272 -160.591 335.472C-159.631 335.673 -158.451 334.901 -157.471 335.071C-156.501 335.232 -155.311 333.747 -154.331 333.878C-153.351 333.998 -152.571 335.773 -151.591 335.863C-150.611 335.944 -149.571 335.111 -148.581 335.161C-147.601 335.211 -146.641 335.673 -145.651 335.693C-144.851 335.703 -143.821 336.114 -142.621 336.114C-141.701 336.114 -140.671 335.914 -139.581 335.904C-138.611 335.884 -137.551 336.887 -136.501 336.836C-135.511 336.796 -134.451 336.897 -133.431 336.826C-132.421 336.756 -131.381 336.556 -130.371 336.455C-129.351 336.345 -128.401 335.532 -127.411 335.372C-126.381 335.212 -125.441 334.63 -124.491 334.419C-123.451 334.178 -122.791 332.985 -121.891 332.674C-120.851 332.303 -119.771 332.513 -118.991 332.032C-118.021 331.43 -117.821 330.638 -117.411 329.815C-117.071 329.143 -116.741 328.682 -116.761 327.97C-116.371 328.542 -115.831 329.043 -115.431 329.695C-114.931 330.497 -115.971 332.523 -115.311 333.306C-114.701 334.028 -113.451 334.359 -112.721 335.061C-112.031 335.723 -110.681 335.713 -109.901 336.355C-109.161 336.967 -107.751 336.656 -106.941 337.248C-106.161 337.809 -106.131 339.464 -105.291 340.006C-104.471 340.527 -103.331 340.517 -102.471 341.019C-101.631 341.51 -101.351 343.055 -100.481 343.516C-99.6211 343.978 -97.8011 342.523 -96.9211 342.945C-96.0411 343.366 -95.8711 345.312 -94.9711 345.703C-94.0711 346.104 -93.1011 346.325 -92.1911 346.696C-91.2711 347.067 -90.7811 348.581 -89.8611 348.912C-88.9311 349.253 -87.5111 348.18 -86.5811 348.481C-85.6311 348.792 -84.6211 348.792 -83.6911 349.053C-82.7311 349.324 -81.8611 349.835 -80.9311 350.056C-79.9511 350.286 -79.2911 352.082 -78.3611 352.262C-77.3611 352.453 -76.0911 350.938 -75.1611 351.059C-74.1311 351.189 -73.2311 352.864 -72.3111 352.894C-71.2511 352.934 -70.2211 351.49 -69.3411 351.39C-68.4211 351.289 -67.1911 352.182 -66.1311 351.931C-65.2011 351.721 -64.4611 350.417 -63.4511 350.096C-62.5211 349.805 -61.9011 348.581 -60.9311 348.21C-60.0111 347.859 -58.9711 347.829 -58.0311 347.418C-57.1211 347.017 -56.3611 346.345 -55.4511 345.883C-54.5511 345.432 -53.2011 345.853 -52.3311 345.342C-51.4511 344.83 -50.1011 345.031 -49.2711 344.469C-48.4211 343.907 -48.0411 342.624 -47.2511 342.012C-46.4411 341.39 -46.7111 339.554 -45.9911 338.892C-45.2311 338.19 -43.8311 338.281 -43.1811 337.538C-42.4911 336.756 -42.1611 335.833 -41.6311 335.011C-41.0711 334.128 -39.7711 333.687 -39.4211 332.774C-39.0511 331.811 -40.0511 330.628 -39.9611 329.635C-39.8711 328.642 -39.2511 327.779 -39.4811 326.766C-39.6711 325.914 -40.3111 325.302 -40.8111 324.5C-39.9411 324.349 -38.9911 323.687 -38.1911 323.838C-37.1911 324.028 -36.4211 325.412 -35.4411 325.593C-34.4311 325.773 -33.2211 324.67 -32.2411 324.841C-31.2311 325.011 -30.6211 327.549 -29.6411 327.709C-28.6311 327.87 -27.3511 326.134 -26.3711 326.265C-25.3511 326.405 -24.3511 326.365 -23.3711 326.475C-22.7411 326.546 -22.1611 327.097 -21.5811 327.539C-21.4311 328.04 -21.3111 328.522 -21.2611 328.943C-21.1411 329.916 -21.4911 330.658 -21.6311 331.611C-21.7711 332.554 -21.9211 333.466 -22.1011 334.409C-22.2811 335.352 -22.6111 336.455 -22.6111 337.428C-22.6111 338.351 -20.2011 338.832 -19.8611 339.805C-19.5511 340.678 -20.1311 341.811 -19.6811 342.614C-19.2311 343.416 -18.2211 343.767 -17.6711 344.519C-17.1311 345.261 -17.9611 347.077 -17.3611 347.789C-16.7711 348.491 -16.4011 349.444 -15.7811 350.126C-15.1611 350.808 -13.7211 350.748 -13.1111 351.44C-12.4911 352.132 -12.0511 352.964 -11.4611 353.667C-10.8211 354.429 -10.7011 355.663 -10.0511 356.395C-9.39107 357.137 -8.00107 357.227 -7.32108 357.939C-6.64108 358.661 -6.62109 360.076 -5.92108 360.758C-5.21109 361.45 -4.63107 362.363 -3.89108 363.014C-3.14108 363.666 -1.36108 363.095 -0.581085 363.696C0.198914 364.298 0.0589294 366.244 0.868927 366.796C1.67892 367.347 3.56894 366.244 4.42892 366.746C5.27893 367.237 6.12891 367.658 7.01892 368.1C7.89893 368.531 8.7189 369.012 9.63892 369.383C10.5389 369.745 11.4689 369.975 12.4189 370.276C13.3489 370.567 13.9389 372.122 14.9189 372.352C15.8589 372.583 17.1289 371.319 18.1189 371.49C19.1489 371.66 20.0289 372.874 21.0489 372.954C22.0989 373.034 23.1489 372.463 24.1689 372.443C25.2189 372.412 26.1789 372.011 27.1889 371.871C28.2289 371.73 29.4189 372.453 30.3989 372.192C31.4189 371.921 32.3389 371.309 33.2789 370.918C34.2489 370.517 35.4989 370.557 36.3689 370.025C37.2589 369.484 37.7389 368.28 38.5089 367.598C39.2789 366.906 40.5989 366.615 41.2289 365.783C41.8489 364.97 42.3389 363.887 42.7889 362.934C43.1289 362.222 43.5389 361.48 43.8289 360.758C44.5689 361.129 45.3289 361.49 46.0789 361.831C46.9589 362.232 47.9689 362.423 48.8589 362.784C49.7589 363.155 50.4189 364.218 51.3389 364.549C52.2489 364.88 53.1589 365.382 54.0789 365.682C54.9989 365.973 56.6989 363.666 57.6289 363.927C58.5589 364.188 59.2389 365.321 60.1889 365.542C61.1289 365.763 62.0089 366.274 62.9589 366.465C63.9089 366.655 64.9989 365.963 65.9589 366.114C66.9089 366.264 67.8689 366.184 68.8289 366.304C69.7889 366.425 70.5589 368.29 71.5289 368.37C72.4889 368.461 73.4789 368.531 74.4489 368.581C75.4089 368.631 76.3889 369.183 77.3589 369.203C78.1289 369.223 79.1389 368.27 80.2789 368.29C81.1589 368.3 82.1389 366.675 83.1789 366.665C84.0989 366.665 85.0889 368.33 86.0889 368.31C87.0289 368.29 87.9689 367.357 88.9589 367.307C89.9189 367.267 90.9089 367.648 91.8789 367.568C92.8489 367.498 93.8489 367.799 94.8089 367.698C95.7889 367.588 96.7289 367.267 97.6689 367.117C98.6589 366.956 99.8489 367.769 100.759 367.558C101.759 367.317 102.869 367.157 103.709 366.846C104.709 366.475 105.779 365.833 106.499 365.341C107.399 364.73 107.819 363.265 108.159 362.433C108.319 362.042 108.319 361.58 108.239 361.099C108.539 361.43 108.849 361.761 109.109 362.162C109.649 362.974 109.909 363.967 110.629 364.76C111.289 365.492 111.689 366.515 112.469 367.237C113.199 367.909 114.149 368.37 114.979 369.012C115.769 369.624 116.839 369.855 117.699 370.447C118.529 371.018 118.289 373.295 119.179 373.837C120.039 374.368 121.309 374.318 122.209 374.82C123.099 375.311 124.429 375 125.349 375.472C126.259 375.933 127.639 375.381 128.569 375.823C129.499 376.254 129.859 377.899 130.799 378.3C131.739 378.701 132.909 378.531 133.859 378.902C134.819 379.273 135.349 380.777 136.309 381.118C137.279 381.459 138.909 379.784 139.879 380.095C140.869 380.406 141.349 382.312 142.309 382.593C143.319 382.874 144.349 382.974 145.319 383.205C146.339 383.445 147.119 384.89 148.089 385.07C149.129 385.271 150.409 383.977 151.379 384.107C152.449 384.248 153.469 384.047 154.429 384.087C155.539 384.137 156.529 384.388 157.449 384.298C158.389 384.208 159.719 385.632 160.799 385.411C161.759 385.211 162.399 383.315 163.439 383.024C164.399 382.753 165.899 383.957 166.899 383.606C167.849 383.275 168.349 381.58 169.319 381.179C170.259 380.787 171.669 381.369 172.609 380.918C173.539 380.477 174.009 379.052 174.909 378.561C175.819 378.069 176.209 376.735 177.079 376.194C177.959 375.642 178.979 375.401 179.799 374.81C180.649 374.198 181.239 373.375 181.999 372.723C182.799 372.031 184.219 372.082 184.899 371.349C185.619 370.567 187.009 370.246 187.569 369.414C187.809 369.052 187.929 368.611 188.009 368.15C188.159 367.949 188.319 367.769 188.499 367.608C189.269 366.916 190.589 366.625 191.219 365.793C191.839 364.98 192.329 363.897 192.779 362.944C193.119 362.232 193.529 361.49 193.819 360.768C194.559 361.139 195.319 361.5 196.069 361.841C196.949 362.242 197.959 362.433 198.849 362.794C199.749 363.165 200.409 364.228 201.329 364.559C202.239 364.89 203.149 365.392 204.069 365.692C204.989 365.983 206.689 363.676 207.619 363.937C208.549 364.198 209.229 365.331 210.179 365.552C211.119 365.773 211.999 366.284 212.949 366.475C213.899 366.665 214.989 365.973 215.949 366.124C216.899 366.274 217.859 366.194 218.819 366.314C219.779 366.435 220.549 368.3 221.519 368.38C222.479 368.471 223.469 368.541 224.439 368.591C225.399 368.641 226.379 369.193 227.349 369.213C228.119 369.233 229.129 368.28 230.269 368.3C231.149 368.31 232.129 366.685 233.169 366.675C234.089 366.675 235.079 368.34 236.079 368.32C237.019 368.3 237.959 367.367 238.949 367.317C239.909 367.277 240.899 367.658 241.869 367.578C242.839 367.508 243.839 367.809 244.799 367.708C245.779 367.598 246.719 367.277 247.659 367.127C248.649 366.966 249.839 367.779 250.749 367.568C251.749 367.327 252.859 367.167 253.699 366.856C254.699 366.485 255.769 365.843 256.489 365.351C257.389 364.74 257.809 363.275 258.149 362.443C258.309 362.052 258.309 361.59 258.229 361.109C258.529 361.44 258.839 361.771 259.099 362.172C259.639 362.984 259.899 363.977 260.619 364.77C261.279 365.502 261.679 366.525 262.459 367.247C263.189 367.919 264.139 368.38 264.969 369.022C265.759 369.634 266.829 369.865 267.689 370.457C268.519 371.028 268.279 373.305 269.169 373.847C270.029 374.378 271.299 374.328 272.199 374.83C273.089 375.321 274.419 375.01 275.339 375.482C276.249 375.943 277.629 375.391 278.559 375.833C279.489 376.264 279.849 377.909 280.789 378.31C281.729 378.711 282.899 378.541 283.849 378.912C284.809 379.283 285.339 380.787 286.299 381.128C287.269 381.47 288.899 379.794 289.869 380.105C290.859 380.416 291.339 382.322 292.299 382.603C293.309 382.884 294.339 382.984 295.309 383.215C296.329 383.455 297.109 384.9 298.079 385.08C299.119 385.281 300.399 383.987 301.369 384.117C302.439 384.258 303.459 384.057 304.419 384.097C305.529 384.147 306.519 384.398 307.439 384.308C308.379 384.218 309.709 385.642 310.789 385.421C311.749 385.221 312.389 383.325 313.429 383.034C314.389 382.763 315.889 383.967 316.889 383.616C317.839 383.285 318.339 381.59 319.309 381.189C320.249 380.798 321.659 381.379 322.599 380.928C323.529 380.487 323.999 379.062 324.899 378.571C325.809 378.079 326.199 376.745 327.069 376.204C327.949 375.652 328.969 375.411 329.789 374.82C330.639 374.208 331.229 373.385 331.989 372.733C332.789 372.041 334.209 372.092 334.889 371.359C335.609 370.577 336.999 370.256 337.559 369.424C338.159 368.541 337.989 367.137 338.359 366.204C338.749 365.221 337.449 364.027 337.539 363.014C337.629 362.001 338.619 361.189 338.369 360.146C338.139 359.203 337.539 358.481 336.989 357.528C336.909 357.388 336.849 357.227 336.789 357.067C337.609 357.097 338.459 356.916 339.239 357.067C340.229 357.267 340.789 359.674 341.759 359.855C342.759 360.046 344.029 358.661 344.999 358.832C345.999 359.013 346.869 359.825 347.849 359.975C348.849 360.146 350.029 359.023 350.999 359.173C352.009 359.323 352.829 360.657 353.799 360.788C354.809 360.918 355.939 359.735 356.919 359.825C357.929 359.925 358.739 362.413 359.719 362.473C360.739 362.543 361.839 360.688 362.819 360.708C363.839 360.728 364.809 360.577 365.779 360.557C366.799 360.527 367.879 361.791 368.859 361.701C369.879 361.61 370.809 360.828 371.779 360.657C372.789 360.487 373.649 359.845 374.599 359.594C375.579 359.323 376.149 358.18 377.059 357.809C377.999 357.428 380.079 359.454 380.949 358.962C381.819 358.471 382.459 357.327 383.249 356.716C384.029 356.114 385.299 355.793 386.009 355.061C386.689 354.359 386.759 352.924 387.369 352.102C387.949 351.32 388.209 350.236 388.729 349.344C389.219 348.501 390.199 347.839 390.629 346.886C391.029 346.004 390.919 344.83 391.269 343.857C391.599 342.945 392.919 342.273 393.209 341.27C393.479 340.337 391.999 338.892 392.229 337.889C392.289 337.599 392.429 337.328 392.579 337.057C393.299 336.375 393.699 334.409 394.519 334.158C395.479 333.857 397.159 335.472 398.079 335.061C398.999 334.65 400.209 334.489 401.079 333.968C401.939 333.456 402.119 331.761 402.919 331.139C403.699 330.518 403.469 328.873 404.179 328.14C404.629 327.679 405.929 327.92 406.949 327.93C407.689 328.642 409.029 329.364 409.119 330.156C409.239 331.169 408.299 332.343 408.509 333.406C408.719 334.429 407.969 335.723 408.239 336.756C408.509 337.779 408.989 338.792 409.299 339.785C409.629 340.818 411.919 341.139 412.269 342.102C412.659 343.155 410.609 345.121 410.999 346.014C411.469 347.127 413.219 347.548 413.629 348.321C414.099 349.213 413.389 350.918 413.949 351.711C414.529 352.523 415.639 353.095 416.309 353.807C416.979 354.539 417.449 355.673 418.189 356.314C418.939 356.956 419.979 357.438 420.779 357.999C421.579 358.571 423.389 357.628 424.239 358.14C425.079 358.651 425.739 359.454 426.609 359.915C427.479 360.377 427.729 362.092 428.619 362.533C429.509 362.964 430.299 363.646 431.189 364.068C432.079 364.489 433.429 363.937 434.319 364.358C435.159 364.76 436.779 363.546 437.689 363.957C438.549 364.348 438.359 367.267 439.269 367.638C440.149 367.999 441.069 368.471 441.979 368.812C442.879 369.153 444.139 368.621 445.059 368.922C445.979 369.223 447.479 367.548 448.409 367.809C449.349 368.07 449.829 370.025 450.769 370.236C451.729 370.447 452.689 370.758 453.629 370.888C454.609 371.028 455.599 371.771 456.539 371.811C457.539 371.851 458.659 371.781 459.589 371.68C460.589 371.58 461.099 369.303 461.999 369.022C462.999 368.711 465.019 370.447 465.879 369.875C466.729 369.303 467.119 367.879 467.879 367.157C468.619 366.445 470.019 366.274 470.719 365.522C471.429 364.76 470.509 362.463 471.219 361.741C471.959 360.988 473.659 361.36 474.459 360.758C475.299 360.126 475.749 358.982 476.709 358.641C477.849 358.25 478.949 359.023 479.899 358.952C481.029 358.872 482.169 357.307 483.169 357.538C484.189 357.769 484.989 358.912 486.039 359.253C486.989 359.574 488.069 359.574 489.169 359.835C490.129 360.066 491.169 359.504 492.319 359.594C493.239 359.664 494.189 360.698 495.309 360.637C496.269 360.587 497.399 361.169 498.459 361.018C499.439 360.878 500.559 360.958 501.589 360.738C502.569 360.527 502.989 357.949 503.999 357.668C504.979 357.398 506.169 357.989 507.149 357.668C508.119 357.337 509.219 357.398 510.169 357.007C511.119 356.615 512.679 357.468 513.589 357.007C514.519 356.545 514.379 354.108 515.249 353.586C516.139 353.045 517.049 352.694 517.859 352.092C518.699 351.46 519.719 351.159 520.429 350.467C521.179 349.725 522.249 349.273 522.819 348.461C523.429 347.608 524.699 346.936 525.069 346.004C525.449 345.051 524.089 343.596 524.179 342.563C524.239 341.871 524.999 341.099 525.369 340.327C526.109 340.126 526.869 339.835 527.409 340.066C528.359 340.477 528.989 341.57 529.909 341.962C530.859 342.363 532.049 342.122 532.969 342.493C533.929 342.874 534.429 344.409 535.359 344.75C536.329 345.111 537.879 343.717 538.819 344.028C539.799 344.359 540.649 344.88 541.599 345.151C542.599 345.442 543.049 347.739 544.019 347.97C545.029 348.2 546.179 347.849 547.159 348.01C548.189 348.17 549.289 347.398 550.279 347.468C551.309 347.538 552.259 347.117 553.249 347.077C554.279 347.037 555.189 347.077 556.179 346.906C557.179 346.736 558.549 348.03 559.509 347.719C560.469 347.408 561.659 347.257 562.569 346.786C563.459 346.335 563.849 344.86 564.709 344.258C565.519 343.687 566.549 343.316 567.329 342.604C568.049 341.942 567.409 339.956 568.109 339.163C568.659 338.541 570.069 338.642 570.879 338.17C571.169 338.17 571.439 338.19 571.699 338.281C572.649 338.622 573.009 340.648 573.969 340.939C574.929 341.229 576.269 340.076 577.249 340.307C578.229 340.547 579.229 340.307 580.219 340.487C581.219 340.668 581.989 341.901 582.989 342.022C583.999 342.142 584.979 342.122 585.969 342.172C586.979 342.222 587.979 343.055 588.969 343.025C589.979 342.995 591.009 342.824 591.999 342.714C593.009 342.604 594.209 343.326 595.179 343.125C596.169 342.924 596.659 340.728 597.619 340.427C598.579 340.126 600.199 341.53 601.119 341.129C602.039 340.718 603.249 340.537 604.109 340.026C604.969 339.514 605.219 337.9 606.009 337.268C606.789 336.646 607.099 335.502 607.809 334.77C608.349 334.219 609.249 333.968 609.919 333.506C610.259 334.369 611.669 335.252 611.779 336.215C611.899 337.228 611.119 338.391 611.329 339.464C611.539 340.487 610.849 341.771 611.119 342.804C611.389 343.827 613.089 344.459 613.409 345.452C613.739 346.485 612.379 348.1 612.729 349.063C613.119 350.116 615.609 350.286 615.999 351.179C616.469 352.292 615.959 353.707 616.369 354.479C616.839 355.372 616.849 356.615 617.409 357.408C617.989 358.22 618.899 358.882 619.559 359.604C620.229 360.336 620.429 361.721 621.179 362.362C621.929 363.004 623.999 362.021 624.809 362.583C625.609 363.155 625.929 364.459 626.779 364.97C627.619 365.472 628.869 365.261 629.739 365.733C630.609 366.194 631.899 365.773 632.789 366.204C633.679 366.635 633.669 368.922 634.559 369.343C635.449 369.765 637.129 368.531 638.019 368.952C638.859 369.353 638.859 371.67 639.769 372.081C640.629 372.473 641.769 372.312 642.689 372.693C643.569 373.054 644.699 372.844 645.619 373.195C646.519 373.536 647.109 374.82 648.029 375.121C648.949 375.421 649.979 375.492 650.899 375.752C651.839 376.013 652.969 375.532 653.899 375.732C654.859 375.943 655.789 376.184 656.729 376.314C657.709 376.455 658.629 377.437 659.569 377.468C660.569 377.508 661.449 375.682 662.379 375.582C663.379 375.482 664.599 376.886 665.489 376.605C666.489 376.294 667.319 375.431 668.179 374.86C669.029 374.288 669.989 373.777 670.739 373.054C671.479 372.342 671.519 370.938 672.219 370.176C672.929 369.414 673.219 368.22 673.929 367.498C674.669 366.746 676.199 366.786 676.999 366.184C677.839 365.552 678.399 364.017 679.369 363.686C680.509 363.295 681.879 363.977 682.829 363.917C683.959 363.837 685.089 363.717 686.089 363.947C687.109 364.178 688.089 364.659 689.129 365C690.079 365.321 691.209 365 692.309 365.271C693.259 365.502 694.089 366.555 695.239 366.645C696.159 366.715 697.239 367.628 698.349 367.568C699.309 367.518 700.469 367.849 701.539 367.698C702.519 367.558 703.379 366.224 704.419 366.013C705.399 365.803 706.519 365.943 707.519 365.672C708.499 365.402 709.469 364.97 710.449 364.639C711.419 364.308 712.409 363.947 713.359 363.556C714.309 363.165 715.269 362.704 716.179 362.252C717.109 361.791 717.499 360.377 718.369 359.855C719.259 359.313 719.919 358.581 720.719 357.979C721.559 357.348 723.049 357.568 723.759 356.866C724.509 356.124 724.179 354.579 724.759 353.767C725.369 352.914 725.959 352.302 726.329 351.37C726.709 350.417 728.819 349.815 728.919 348.782C728.999 347.949 728.759 346.906 728.559 345.964C729.239 345.883 729.949 345.743 730.479 345.964C731.429 346.375 731.449 348.922 732.369 349.304C733.319 349.705 735.199 347.799 736.119 348.17C737.079 348.551 737.199 351.079 738.129 351.43C739.099 351.791 740.609 350.587 741.549 350.898C742.529 351.229 743.109 352.814 744.069 353.085C745.069 353.376 746.479 351.931 747.449 352.152C748.459 352.383 749.439 352.262 750.419 352.423C751.449 352.583 752.239 354.238 753.229 354.308C754.259 354.379 755.349 355.422 756.349 355.382C757.379 355.342 758.479 354.75 759.469 354.579C760.469 354.409 761.679 354.439 762.639 354.118C763.599 353.807 763.679 351.34 764.599 350.868C765.489 350.417 767.589 351.931 768.439 351.33C769.249 350.758 768.559 348.25 769.329 347.538C769.899 347.017 771.259 347.267 772.159 347.007C772.939 347.468 773.909 347.608 774.679 348.11C775.539 348.662 776.239 349.354 777.169 349.825C778.079 350.286 779.029 350.477 779.999 350.848C780.949 351.209 781.629 352.323 782.639 352.583C783.609 352.834 784.539 353.576 785.579 353.737C786.629 353.897 787.789 352.222 788.829 352.242C789.889 352.262 790.919 353.436 791.949 353.305C792.999 353.175 793.789 352.092 794.799 351.811C795.819 351.53 796.569 350.999 797.519 350.567C798.479 350.126 800.029 350.878 800.889 350.276C801.749 349.675 802.839 349.213 803.589 348.461C804.319 347.719 805.719 347.267 806.319 346.385C806.899 345.532 807.449 344.349 807.889 343.366C808.319 342.393 806.429 340.658 806.649 339.715C806.719 339.394 806.829 339.103 806.939 338.822C807.199 338.862 807.449 338.923 807.659 339.043C808.539 339.554 809.739 339.344 810.639 339.795C811.549 340.257 812.219 341.049 813.149 341.45C814.079 341.851 814.409 343.757 815.359 344.108C816.309 344.459 817.169 345.261 818.139 345.562C819.109 345.853 820.659 344.028 821.649 344.269C822.629 344.509 823.349 345.913 824.349 346.094C825.339 346.274 826.329 346.626 827.339 346.756C828.339 346.886 829.519 345.221 830.529 345.302C831.539 345.382 832.439 346.766 833.459 346.796C834.469 346.826 835.469 346.154 836.489 346.134C837.269 346.124 838.319 346.726 839.539 346.696C840.469 346.666 841.569 347.98 842.659 347.919C843.629 347.869 844.699 347.919 845.749 347.819C846.749 347.739 847.559 345.522 848.579 345.392C849.589 345.261 850.689 345.783 851.679 345.602C852.699 345.422 854.009 346.425 854.959 346.184C855.989 345.923 856.579 344.218 857.479 343.877C858.499 343.486 859.729 343.617 860.509 343.095C861.449 342.473 861.929 341.42 862.369 340.588C862.599 340.166 862.809 339.705 862.939 339.223C862.959 339.665 863.009 340.106 863.219 340.487C863.679 341.32 865.329 341.29 865.959 342.102C866.549 342.854 865.979 344.579 866.689 345.312C867.359 346.004 868.499 346.214 869.259 346.876C869.989 347.508 870.219 348.812 871.029 349.414C871.809 349.996 873.369 349.464 874.199 350.016C875.019 350.557 875.269 351.992 876.129 352.493C876.979 352.984 878.379 352.463 879.249 352.924C880.119 353.386 880.199 355.462 881.089 355.883C881.989 356.304 883.139 356.214 884.039 356.585C884.959 356.966 885.639 358.02 886.549 358.361C887.489 358.712 889.199 356.746 890.119 357.037C891.079 357.337 891.999 357.468 892.929 357.719C893.909 357.979 894.469 359.775 895.399 359.965C896.399 360.166 897.229 361.56 898.169 361.68C899.209 361.811 900.389 359.444 901.319 359.464C902.389 359.484 903.169 359.263 904.049 359.133C904.959 358.992 906.379 360.758 907.449 360.447C908.379 360.176 908.729 358.06 909.739 357.668C910.659 357.307 912.039 357.999 912.999 357.548C913.909 357.127 914.489 356.034 915.409 355.532C916.299 355.051 917.759 355.532 918.639 354.98C919.509 354.439 920.779 354.399 921.609 353.797C922.449 353.195 922.639 351.681 923.429 351.039C924.229 350.377 925.489 350.186 926.209 349.474C926.959 348.742 926.919 347.267 927.569 346.495C928.239 345.693 928.019 344.359 928.549 343.516C929.119 342.624 929.369 341.851 929.749 340.929C930.149 339.956 931.519 339.454 931.669 338.451C931.819 337.438 932.139 336.415 931.999 335.382C931.879 334.479 932.079 333.336 931.779 332.393C932.429 332.594 933.069 332.824 933.719 332.945C934.739 333.135 935.809 332.864 936.789 333.025C937.809 333.195 938.899 332.674 939.889 332.824C940.909 332.975 941.669 334.79 942.659 334.911C943.689 335.041 944.739 334.79 945.729 334.88C946.759 334.971 947.699 336.505 948.689 336.556C949.729 336.606 950.809 335.974 951.809 335.964C952.849 335.964 953.969 336.666 954.959 336.596C955.839 336.535 956.749 336.255 957.609 336.064C957.989 336.897 957.869 338.11 958.379 338.832C958.979 339.685 959.799 340.357 960.409 341.169C961.039 342.002 962.419 342.162 963.069 342.945C963.739 343.737 963.959 344.85 964.659 345.592C965.369 346.345 965.789 347.338 966.539 348.03C967.299 348.732 968.119 349.314 968.929 349.945C969.739 350.577 970.809 350.758 971.669 351.31C972.529 351.861 972.539 353.947 973.459 354.409C974.369 354.87 975.979 353.787 976.949 354.148C977.899 354.509 978.879 354.519 979.889 354.78C980.859 355.031 981.439 357.358 982.479 357.518C983.529 357.679 984.769 356.355 985.809 356.375C986.869 356.395 987.849 356.034 988.889 355.913C989.939 355.783 990.849 355.432 991.849 355.151C992.869 354.87 994.029 355.171 994.979 354.73C995.939 354.288 997.339 354.499 998.209 353.897C999.069 353.295 999.829 352.363 1000.57 351.61C1001.3 350.868 1001.65 349.705 1002.25 348.822C1002.83 347.97 1004.14 347.388 1004.58 346.395C1004.89 345.703 1005.21 344.93 1005.46 344.198C1006 344.178 1006.53 344.168 1006.93 344.369C1007.84 344.83 1008.58 345.703 1009.51 346.114C1010.44 346.515 1011.71 346.114 1012.66 346.465C1013.61 346.816 1014.77 346.465 1015.74 346.766C1016.71 347.057 1017.67 347.217 1018.65 347.448C1019.63 347.689 1020.22 349.825 1021.22 350.006C1022.22 350.186 1023.21 350.838 1024.21 350.969C1025.21 351.099 1026.33 350.818 1027.34 350.898C1028.35 350.979 1029.41 351.32 1030.42 351.36C1031.43 351.39 1032.49 349.955 1033.51 349.935C1034.29 349.925 1035.34 350.286 1036.56 350.246C1037.49 350.216 1038.45 348.842 1039.55 348.782C1040.52 348.732 1041.54 348.973 1042.59 348.882C1043.59 348.802 1044.61 348.922 1045.63 348.792C1046.64 348.662 1047.72 349.053 1048.72 348.872C1049.74 348.692 1050.52 347.598 1051.48 347.348C1052.51 347.087 1053.68 347.568 1054.58 347.227C1055.6 346.836 1056.97 347.077 1057.74 346.565C1058.68 345.944 1057.74 343.917 1058.18 343.085C1058.33 342.794 1058.76 342.533 1059.24 342.273C1059.94 342.543 1060.67 342.804 1060.93 343.255C1061.39 344.088 1062.19 344.569 1062.82 345.382C1063.41 346.134 1062.69 348.04 1063.4 348.772C1064.07 349.464 1065.29 349.645 1066.06 350.296C1066.79 350.928 1067.98 350.979 1068.79 351.58C1069.57 352.162 1070.07 353.115 1070.91 353.667C1071.73 354.208 1072.09 355.522 1072.95 356.024C1073.8 356.515 1075.43 355.602 1076.3 356.064C1077.17 356.525 1077.45 358.17 1078.34 358.581C1079.24 359.002 1080.02 359.745 1080.92 360.116C1081.84 360.497 1082.69 361.149 1083.6 361.48C1084.54 361.831 1086.03 360.547 1086.95 360.838C1087.91 361.139 1088.84 361.37 1089.77 361.61C1090.75 361.871 1091.76 361.68 1092.69 361.871C1093.69 362.072 1094.42 363.586 1095.35 363.707C1096.39 363.837 1097.38 364.669 1098.31 364.689C1099.38 364.71 1100.17 362.192 1101.06 362.052C1101.97 361.911 1103.07 362.663 1104.14 362.342C1105.07 362.072 1106.56 363.185 1107.56 362.794C1108.48 362.433 1108.87 360.667 1109.83 360.216C1110.74 359.795 1111.55 359.173 1112.46 358.671C1113.35 358.19 1114.36 357.929 1115.24 357.388C1116.11 356.846 1117.13 356.545 1117.96 355.943C1118.8 355.342 1120.11 355.332 1120.9 354.68C1121.7 354.018 1122.07 352.824 1122.79 352.122C1123.54 351.39 1123.17 349.725 1123.81 348.952C1124.48 348.15 1125.2 347.588 1125.74 346.746C1126.31 345.853 1127.16 345.292 1127.54 344.369C1127.94 343.396 1130.07 342.814 1130.22 341.821C1130.37 340.808 1129.06 339.564 1128.92 338.541C1128.79 337.558 1127.59 336.977 1127.15 335.994C1127.05 335.763 1127.03 335.432 1127.05 335.051C1127.3 335.161 1127.55 335.262 1127.81 335.302C1128.82 335.492 1129.85 335.482 1130.83 335.663C1131.85 335.853 1132.67 337.027 1133.66 337.197C1134.68 337.368 1135.66 337.719 1136.64 337.869C1137.66 338.02 1138.72 337.809 1139.71 337.93C1140.74 338.06 1141.81 337.569 1142.8 337.659C1143.63 337.739 1144.45 337.328 1145.26 337.187C1146.06 337.619 1146.79 338.18 1147.61 338.572C1148.5 338.993 1150.12 337.889 1151.01 338.311C1151.85 338.712 1152.5 339.585 1153.41 339.996C1154.27 340.387 1154.83 341.54 1155.74 341.922C1156.62 342.283 1157.38 343.075 1158.29 343.416C1159.19 343.757 1160.42 343.215 1161.34 343.526C1162.26 343.837 1163.21 343.998 1164.14 344.258C1165.08 344.519 1166.07 344.459 1167 344.66C1167.96 344.87 1168.97 344.329 1169.91 344.459C1170.89 344.6 1171.65 346.646 1172.59 346.676C1173.59 346.716 1174.64 346.646 1175.57 346.545C1176.57 346.445 1177.06 344.409 1177.95 344.128C1178.95 343.817 1180.42 344.85 1181.28 344.279C1182.13 343.707 1181.78 341.771 1182.53 341.049C1183.27 340.337 1184.17 339.885 1184.87 339.123C1185.58 338.361 1186.41 337.679 1187.12 336.947C1187.86 336.194 1188.66 335.322 1189.46 334.72C1190.3 334.088 1191.43 333.356 1192.4 333.025C1193.54 332.634 1194.8 331.932 1195.75 331.862C1196.88 331.781 1198.31 332.042 1199.31 332.263C1200.33 332.493 1201.2 333.617 1202.24 333.968C1203.19 334.289 1204.11 334.72 1205.22 334.981C1206.18 335.211 1207.08 336.114 1208.23 336.204C1209.15 336.275 1210.25 336.816 1211.36 336.756C1212.32 336.706 1213.12 334.479 1214.18 334.329C1215.16 334.188 1216.26 334.86 1217.3 334.64C1218.28 334.429 1219.29 334.339 1220.3 334.058C1221.28 333.787 1222.53 334.349 1223.51 334.018C1224.48 333.687 1224.83 331.751 1225.78 331.36C1226.73 330.969 1228.66 332.734 1229.57 332.283C1230.5 331.821 1231.54 331.36 1232.41 330.838C1233.3 330.297 1233.78 328.983 1234.58 328.381C1235.42 327.749 1236.87 327.669 1237.58 326.967C1238.33 326.225 1238.06 324.459 1238.63 323.647C1239.24 322.794 1240.47 322.173 1240.84 321.24C1241.22 320.287 1240.41 318.953 1240.51 317.92C1240.56 317.368 1240.61 316.827 1240.62 316.275C1241.58 315.944 1242.79 315.051 1243.46 315.342C1244.41 315.753 1244.77 317.479 1245.7 317.87C1246.65 318.271 1247.35 319.284 1248.28 319.655C1249.24 320.036 1250.77 318.893 1251.7 319.244C1252.67 319.605 1253.68 319.735 1254.62 320.056C1255.6 320.387 1256.75 319.966 1257.71 320.237C1258.71 320.528 1259.13 322.885 1260.1 323.105C1261.11 323.336 1262.51 321.34 1263.49 321.491C1264.52 321.651 1265.26 323.757 1266.25 323.818C1266.92 323.868 1267.58 323.095 1268.23 322.544C1268.94 322.915 1270.14 322.764 1270.85 323.156C1271.04 323.366 1271.23 323.577 1271.42 323.767C1271.81 324.53 1271.88 325.683 1272.52 326.185C1273.68 327.168 1272.96 328.06 1274.14 329.013C1275.32 329.966 1276.81 328.17 1277.95 329.173C1279.09 330.166 1278.06 331.36 1279.2 332.353C1280.34 333.346 1279.85 333.918 1280.99 334.911C1282.13 335.904 1282.54 335.432 1283.68 336.425C1284.82 337.418 1285.52 336.606 1286.66 337.599C1287.8 338.592 1287.57 338.852 1288.71 339.845C1289.85 340.838 1290.62 339.946 1291.76 340.949C1292.9 341.942 1292.25 342.694 1293.38 343.687C1294.52 344.68 1294.05 345.221 1295.19 346.214C1296.33 347.207 1296.61 346.876 1297.75 347.879C1298.89 348.872 1298.11 349.243 1298.86 350.557C1298.34 351.641 1297.92 351.039 1297.25 351.791C1296.49 352.644 1296 353.376 1295.16 354.028C1294.28 354.7 1294.67 356.916 1293.84 357.618C1293.03 358.3 1292.57 358.922 1291.92 359.865C1291.36 360.677 1290.87 360.647 1290.52 361.821C1291.41 362.302 1292.06 362.403 1292.66 363.075C1293.3 363.787 1293.44 365.091 1293.9 365.913C1294.35 366.736 1292.89 368.581 1293.31 369.424C1293.73 370.266 1296.31 369.845 1296.86 370.617C1297.4 371.369 1296.77 373.275 1297.56 373.867C1298.39 374.479 1299.86 374.077 1300.75 374.519C1301.66 374.97 1302.53 375.411 1303.48 375.742C1304.43 376.073 1305.3 376.655 1306.28 376.916C1307.25 377.177 1308.26 377.307 1309.24 377.558C1310.22 377.809 1311.34 377.568 1312.3 377.859C1313.3 378.16 1314.03 379.343 1315.02 379.604C1316.02 379.865 1317.31 378.852 1318.3 379.062C1319.32 379.273 1320.21 379.905 1321.22 380.065C1322.25 380.216 1323.29 379.664 1324.31 379.744C1325.34 379.825 1326.29 382.111 1327.31 382.101C1328.34 382.101 1329.45 381.72 1330.47 381.62C1331.49 381.52 1332.23 379.564 1333.25 379.363C1334.25 379.163 1335.14 378.922 1336.13 378.601C1337.09 378.3 1337.79 377.588 1338.75 377.167C1339.67 376.765 1340.9 377.147 1341.82 376.625C1342.75 376.103 1344.22 376.424 1345.06 375.803C1345.91 375.161 1347.13 374.78 1347.86 374.037C1348.59 373.295 1347.56 370.998 1348.18 370.156C1348.81 369.303 1351.47 369.704 1351.94 368.772C1352.42 367.829 1350.34 365.853 1350.65 364.84C1350.96 363.837 1352.68 363.235 1352.8 362.182C1352.92 361.149 1352.17 360.116 1352.09 359.053C1352.02 358.02 1353.81 356.595 1353.54 355.552C1353.29 354.579 1352.77 353.516 1352.37 352.654C1352.73 352.082 1353.09 351.55 1353.53 351.46C1354.53 351.259 1355.5 351.209 1356.48 350.958C1357.46 350.698 1358.38 350.397 1359.35 350.076C1360.32 349.755 1361.15 349.233 1362.09 348.862C1363.03 348.491 1364.47 349.344 1365.4 348.912C1366.32 348.491 1366.66 346.916 1367.57 346.445C1368.47 345.974 1369.88 346.465 1370.76 345.944C1371.63 345.422 1373.19 345.923 1374.04 345.362C1374.88 344.8 1374.74 342.764 1375.56 342.162C1376.37 341.56 1377.09 340.858 1377.89 340.216C1378.5 339.725 1379.23 338.983 1380.17 338.21C1380.88 337.619 1381.71 337.017 1382.53 336.295C1383.26 335.653 1385.09 336.124 1385.86 335.402C1386.59 334.72 1387.31 333.928 1388.03 333.195C1388.75 332.473 1389.2 331.42 1389.87 330.668C1390.56 329.896 1389.73 327.9 1390.34 327.117C1390.99 326.275 1393.16 326.556 1393.65 325.723C1394.21 324.78 1394.21 323.547 1394.5 322.664C1394.85 321.591 1395.19 320.478 1395.03 319.545C1394.86 318.582 1393.53 318.361 1392.66 317.629C1392.18 317.228 1391.59 316.195 1390.87 315.493C1391.7 315.894 1392.78 316.205 1393.35 316.596C1394.14 317.138 1394.78 317.509 1395.72 317.9C1396.6 318.271 1396.93 320.267 1397.92 320.518C1398.85 320.748 1400.03 319.826 1401.04 319.956C1401.99 320.086 1402.87 321.491 1403.88 321.531C1404.84 321.571 1405.86 320.568 1406.87 320.538C1407.84 320.508 1408.79 320.137 1409.78 320.046C1410.75 319.966 1411.62 319.204 1412.6 319.073C1413.57 318.943 1414.89 320.899 1415.86 320.718C1416.83 320.538 1417.86 320.407 1418.82 320.187C1419.78 319.966 1420.68 319.334 1421.62 319.073C1422.58 318.803 1423.05 316.977 1423.98 316.676C1424.93 316.365 1426.33 317.418 1427.24 317.077C1428.18 316.726 1428.93 315.894 1429.81 315.513C1430.74 315.112 1431.1 313.627 1431.95 313.196C1432.87 312.734 1434.52 313.747 1435.33 313.266C1436.23 312.724 1436.83 311.792 1437.56 311.24C1438.42 310.598 1440.07 310.769 1440.68 310.117C1441.31 309.445 1440.2 307.168 1440.84 306.255C1441.4 305.463 1442.36 304.931 1442.91 304.008C1443.41 303.156 1444.91 302.795 1445.38 301.842C1445.83 300.949 1444.99 299.415 1445.41 298.452C1445.81 297.519 1446.64 296.767 1446.99 295.794C1447.34 294.831 1447.82 293.918 1448.11 292.925C1448.4 291.932 1448.76 290.97 1448.98 289.967C1449.2 288.953 1449.98 288.021 1450.12 287.008C1450.26 285.975 1448.4 284.821 1448.43 283.808C1448.46 282.755 1450.36 281.712 1450.26 280.719C1450.16 279.666 1449.23 278.753 1448.96 277.8C1448.67 276.787 1448.66 275.674 1448.16 274.791C1447.66 273.899 1447.37 272.635 1446.62 271.913C1446.14 271.441 1445.2 271.572 1444.35 271.542C1444.96 270.9 1445.33 269.816 1446.05 269.435C1446.96 268.954 1448.55 269.756 1449.43 269.275C1450.34 268.783 1451.11 268.031 1451.97 267.54C1452.87 267.028 1453.31 265.734 1454.16 265.223C1455.05 264.691 1455.65 263.748 1456.49 263.207C1457.36 262.645 1457.74 261.451 1458.55 260.87C1459.4 260.268 1460.55 260.198 1461.33 259.576C1462.14 258.924 1463.74 259.225 1464.47 258.553C1465.24 257.851 1466.14 257.219 1466.82 256.487C1467.52 255.724 1467.53 254.34 1468.12 253.538C1468.73 252.705 1470.16 252.334 1470.65 251.452C1471.14 250.559 1470.85 249.205 1471.21 248.252C1471.56 247.309 1471.76 246.286 1471.97 245.273C1472.18 244.3 1472.41 243.287 1472.48 242.244C1472.54 241.261 1473.58 240.148 1473.51 239.095C1473.45 238.112 1472.52 237.109 1472.34 236.066L1472.29 236.046ZM1154.54 180.38C1154.33 180.841 1154.15 181.302 1154.13 181.774C1154.11 182.376 1154.55 183.178 1154.9 183.94C1154.51 183.238 1153.99 182.526 1153.94 181.974C1153.89 181.463 1154.23 180.911 1154.55 180.37L1154.54 180.38ZM977.259 117.161C977.609 117.883 978.289 118.625 978.259 119.348C978.219 120.33 977.109 122.597 977.149 123.63C977.239 122.567 976.329 120.31 976.249 119.398C976.189 118.736 976.839 117.903 977.259 117.161ZM569.489 258.132C569.669 258.683 569.969 259.235 570.149 259.786C569.589 259.325 569.099 258.884 568.439 258.543C568.379 258.513 568.319 258.473 568.259 258.432C568.319 258.382 568.379 258.322 568.439 258.292C568.739 258.152 569.109 258.132 569.489 258.142V258.132ZM485.769 144.633C485.959 144.964 486.099 145.295 486.129 145.646C486.179 146.488 486.519 146.819 486.579 147.612C486.419 147.12 485.479 147.04 485.389 146.408C485.329 145.987 485.599 145.285 485.769 144.633ZM167.349 177.962C167.319 178.253 167.359 178.564 167.409 178.885C167.369 178.755 167.329 178.614 167.319 178.464C167.299 178.303 167.319 178.133 167.359 177.962H167.349ZM-41.1411 69.6292C-41.1411 69.7696 -41.1511 69.9201 -41.1611 70.0605C-41.1811 70.6422 -40.7811 71.1638 -40.4411 71.6954C-40.8011 71.234 -41.2511 70.8027 -41.3011 70.2811C-41.3211 70.0705 -41.2511 69.8498 -41.1411 69.6292ZM-187.371 60.6925C-187.281 61.535 -187.821 62.8791 -187.891 63.8921C-187.881 62.859 -187.721 61.525 -187.851 60.7527C-187.891 60.4819 -187.911 60.2111 -187.921 59.9303C-187.621 60.171 -187.401 60.4318 -187.371 60.7026V60.6925ZM332.999 356.104C332.689 356.174 332.389 356.134 332.089 356.074C332.449 356.004 332.799 355.963 333.179 356.034C333.119 356.054 333.059 356.084 332.999 356.104Z" fill="#FFDFDF"/>
</svg>
