<svg width="1440" height="386" viewBox="0 0 1440 386" fill="none" xmlns="http://www.w3.org/2000/svg">
<path d="M-156.773 236.046C-156.603 235.083 -156.153 234.11 -155.883 233.087C-155.633 232.134 -156.183 230.86 -155.843 229.857C-155.523 228.924 -154.013 228.373 -153.613 227.4C-153.243 226.487 -152.023 225.936 -151.583 224.983C-151.163 224.09 -151.493 222.816 -151.013 221.883C-150.563 221.001 -150.543 219.847 -150.033 218.935C-149.543 218.072 -148.453 217.53 -147.913 216.628C-147.403 215.775 -146.603 215.103 -146.053 214.251C-145.513 213.418 -146.143 211.773 -145.563 210.941C-144.993 210.118 -144.613 209.115 -144.013 208.303C-143.423 207.501 -141.583 207.631 -140.953 206.839C-140.333 206.056 -140.603 204.522 -139.953 203.749C-139.303 202.987 -137.903 202.867 -137.223 202.124C-136.953 201.824 -136.603 201.593 -136.243 201.382C-136.313 200.57 -136.043 199.607 -136.343 198.845C-136.703 197.942 -137.933 197.37 -138.283 196.407C-138.633 195.465 -140.513 195.033 -140.843 194.06C-141.163 193.108 -141.423 192.085 -141.723 191.102C-142.013 190.139 -142.433 189.156 -142.693 188.163C-142.953 187.19 -141.473 185.736 -141.703 184.743C-141.943 183.76 -143.483 183.048 -143.693 182.055C-143.903 181.062 -142.653 179.778 -142.833 178.775C-143.013 177.772 -143.953 176.899 -144.093 175.886C-144.233 174.883 -144.643 173.89 -144.753 172.877C-144.863 171.864 -145.483 170.871 -145.563 169.858C-145.643 168.845 -143.373 167.702 -143.413 166.679C-143.453 165.666 -143.713 164.693 -143.703 163.68C-143.703 162.657 -145.793 161.594 -145.753 160.581C-145.713 159.557 -143.053 158.725 -142.963 157.712C-142.873 156.699 -144.103 155.566 -143.963 154.563C-143.823 153.55 -144.163 152.456 -143.973 151.463C-143.783 150.46 -142.633 149.678 -142.393 148.695C-142.143 147.702 -142.023 146.709 -141.723 145.746C-141.423 144.773 -142.293 143.379 -141.923 142.426C-141.563 141.474 -140.313 140.862 -139.893 139.949C-139.503 139.117 -138.473 138.585 -137.973 137.702C-137.513 136.88 -136.433 136.489 -135.883 135.656C-135.363 134.854 -136.273 133.058 -135.683 132.276C-135.103 131.504 -134.033 131.123 -133.393 130.4C-132.753 129.668 -131.563 129.548 -130.863 128.886C-130.153 128.214 -129.723 127.351 -128.963 126.77C-128.533 126.439 -128.233 125.947 -127.913 125.486C-128.673 124.864 -128.813 123.801 -129.343 122.928C-129.853 122.096 -129.883 121.223 -130.193 120.2C-130.473 119.267 -131.973 118.595 -132.113 117.542C-132.233 116.569 -131.933 115.496 -131.953 114.443C-131.963 113.45 -132.463 112.397 -132.393 111.354C-132.323 110.361 -131.513 109.398 -131.373 108.365C-131.243 107.362 -132.633 106.088 -132.453 105.065C-132.273 104.072 -129.753 103.53 -129.533 102.527C-129.313 101.534 -131.283 99.9797 -131.023 99.0068C-130.763 98.0139 -130.403 97.0008 -130.113 96.038C-129.813 95.045 -129.543 94.0119 -129.223 93.0691C-128.883 92.0762 -127.803 91.354 -127.453 90.4313C-127.073 89.4383 -125.653 88.9167 -125.273 88.0241C-124.843 87.0211 -124.223 86.2187 -123.813 85.3762C-123.313 84.3431 -122.803 83.5407 -122.343 82.7884C-121.833 81.9459 -121.523 80.9931 -120.933 80.1405C-120.363 79.3281 -121.013 77.5528 -120.373 76.7504C-119.753 75.9681 -118.443 75.7073 -117.753 74.945C-117.083 74.2028 -117.263 72.5479 -116.543 71.8358C-115.823 71.1236 -114.043 71.4948 -113.283 70.8328C-112.523 70.1708 -112.533 68.4858 -111.733 67.874C-110.933 67.2521 -109.673 67.1518 -108.843 66.6002C-107.993 66.0385 -106.703 66.1889 -105.823 65.7075C-104.933 65.216 -103.653 65.6573 -102.743 65.2561C-101.803 64.8449 -100.933 64.6544 -99.9833 64.3635C-99.0133 64.0626 -98.2133 63.7115 -97.2233 63.531C-96.2233 63.3505 -95.4532 61.0837 -94.4532 61.0536C-93.4432 61.0235 -92.3333 61.5651 -91.3333 61.6955C-90.3433 61.8259 -89.4733 62.7186 -88.4933 63.0195C-87.5533 63.3103 -86.0233 62.4779 -85.1033 62.9493C-84.2333 63.3906 -84.5033 65.8078 -83.6533 66.4196C-82.8633 66.9913 -81.3833 66.7004 -80.6133 67.4226C-79.9133 68.0946 -79.1833 69.569 -78.5033 70.3714C-78.4833 69.3584 -77.7533 67.8639 -77.6433 66.891C-77.5333 65.888 -78.6033 64.7246 -78.4033 63.7617C-78.1934 62.7788 -76.8434 62.1268 -76.5533 61.174C-76.2633 60.2211 -77.6833 58.6163 -77.3134 57.7036C-76.9333 56.7809 -74.5933 56.7708 -74.1333 55.8982C-73.6733 55.0156 -75.1934 52.9595 -74.6533 52.1169C-74.1133 51.2845 -72.5933 51.0538 -71.9833 50.2614C-71.3833 49.4791 -69.5834 49.7298 -68.9133 48.9876C-68.2533 48.2554 -68.5933 46.6005 -67.8733 45.9084C-67.1633 45.2164 -66.7533 44.1632 -65.9833 43.5113C-65.2333 42.8694 -64.6333 41.9466 -63.8333 41.3448C-63.0432 40.753 -60.8333 42.2174 -59.9933 41.6658C-59.1733 41.1241 -58.7933 39.9506 -57.9333 39.4492C-57.0834 38.9477 -56.5433 37.9045 -55.6533 37.4532C-54.7733 37.0019 -54.1333 36.0289 -53.2233 35.6077C-52.3232 35.1965 -50.7134 36.4903 -49.7833 36.1192C-48.8633 35.7481 -48.3833 34.2938 -47.4434 33.9628C-46.5133 33.6318 -45.6133 33.1805 -44.6633 32.8896C-43.7134 32.5987 -42.5133 33.2707 -41.5533 33.02C-40.5934 32.7692 -40.0632 30.693 -39.0933 30.4824C-38.1233 30.2718 -36.9432 31.024 -35.9633 30.8535C-34.9833 30.683 -33.8833 31.4052 -32.9033 31.2748C-31.9233 31.1444 -31.0333 30.2818 -30.0533 30.1915C-29.0634 30.1013 -28.1233 29.1484 -27.1333 29.1083C-26.1433 29.0581 -25.1233 28.4564 -24.1333 28.4463C-23.1433 28.4463 -22.1633 30.6529 -21.1733 30.683C-20.1733 30.7131 -19.2533 31.1945 -18.2733 31.2647C-17.2833 31.345 -16.1333 29.6599 -15.1533 29.7803C-14.1633 29.9007 -13.4033 31.4954 -12.4333 31.6559C-11.4534 31.8264 -10.1333 30.3019 -9.17334 30.5225C-8.20337 30.7432 -7.45325 31.8966 -6.5033 32.1674C-5.54333 32.4382 -4.32336 31.9468 -3.39331 32.2677C-2.45337 32.5987 -2.0033 34.2135 -1.09326 34.5947C-0.173218 34.9858 1.22668 34.3038 2.10669 34.7451C2.9967 35.1965 4.10669 35.3469 4.95667 35.8484C5.81665 36.3599 6.59668 37.0921 7.40674 37.6638C8.22668 38.2355 9.48669 38.3559 10.2567 38.9978C11.0167 39.6397 11.5468 40.6929 12.2567 41.395C12.9667 42.097 13.9166 42.7089 14.5566 43.4711C15.1967 44.2334 15.4668 45.3969 16.0367 46.2193C16.5968 47.0318 15.8367 48.6867 16.3267 49.5593C16.8066 50.4219 17.5867 51.0839 17.9967 52.0066C18.3967 52.8993 18.8867 53.7518 19.2167 54.7047C19.5366 55.6274 20.2267 56.4599 20.4767 57.4428C20.7167 58.3957 20.9567 59.3786 21.1267 60.3816C21.2267 60.9633 21.5267 61.5451 21.7667 62.1368C22.0867 61.5551 22.4767 61.0035 22.7867 60.4819C23.3068 59.6093 23.6167 58.3756 24.3367 57.6936C25.0466 57.0115 26.5468 57.2222 27.4268 56.7006C28.2667 56.2092 28.7267 54.6445 29.6866 54.2934C30.5967 53.9625 31.9667 54.9454 32.9767 54.7247C33.9266 54.5241 34.7067 52.6586 35.7167 52.5482C36.6866 52.4379 37.8567 54.133 38.8667 54.1129C39.8567 54.0828 40.8967 52.4178 41.9067 52.458C42.8967 52.4981 43.9467 52.8491 44.9467 52.9394C45.9366 53.0297 46.9167 53.6415 47.9067 53.7819C48.8967 53.9223 49.7667 54.8651 50.7467 55.0457C51.7367 55.2262 53.0067 54.1129 53.9667 54.3336C54.9567 54.5542 55.5668 56.3395 56.5067 56.5903C57.4967 56.8611 58.9467 55.497 59.8767 55.7879C60.8667 56.0988 61.1866 58.3355 62.0867 58.6665C63.0867 59.0276 63.6868 60.0506 64.5468 60.4117C65.5668 60.853 67.6167 58.9373 68.3767 59.3585C69.2367 59.84 69.5267 61.3545 70.3567 61.8861C71.1866 62.4177 71.2367 64.0425 72.0367 64.6243C72.8368 65.206 75.1866 63.7316 75.9567 64.3534C76.7267 64.9753 76.3167 67.0014 77.0566 67.6633C77.7866 68.3253 79.4867 67.9542 80.1967 68.6563C80.8966 69.3484 80.0566 71.5449 80.7267 72.2671C81.3967 72.9892 83.2667 72.6181 83.9067 73.3703C84.5468 74.1226 83.7167 76.0483 84.3367 76.8307C84.9467 77.603 85.6768 78.2248 86.2567 79.0272C86.8367 79.8196 88.2067 80.0302 88.7667 80.8527C89.3168 81.6651 89.3867 82.7884 89.9167 83.6209C90.4468 84.4534 92.5967 84.2929 93.0967 85.1455C93.5967 85.998 93.5367 87.1916 94.0167 88.0642C94.4967 88.9268 94.9668 89.8094 95.4167 90.692C95.8667 91.5747 95.3467 92.9387 95.7767 93.8214C96.2068 94.714 97.7966 95.0651 98.1967 95.9577C98.6067 96.8604 98.0566 98.1844 98.4366 99.0971C98.8267 100.01 99.2367 100.902 99.5967 101.815C99.9067 102.608 99.2866 103.751 99.5767 104.543C99.8767 105.346 101.687 105.586 101.967 106.389C102.307 107.362 103.327 108.174 103.527 109.087C103.747 110.08 103.317 111.233 103.417 112.186C103.517 113.189 101.827 114.182 101.807 115.155C101.787 116.148 103.477 117.191 103.377 118.164C103.277 119.137 103.967 120.25 103.827 121.233C103.687 122.196 101.057 122.788 100.907 123.781C100.767 124.734 102.627 125.987 102.507 126.98C102.397 127.933 100.507 128.756 100.447 129.759C100.397 130.561 100.427 130.611 100.447 131.213C100.557 130.832 101.067 130.872 101.157 130.21C101.267 129.387 101.897 128.886 102.327 128.094C103.217 127.472 103.687 126.519 104.537 126.078C105.497 125.576 106.227 124.403 107.147 124.132C108.177 123.831 109.417 123.861 110.387 123.831C111.427 123.791 112.747 123.51 113.717 123.761C114.697 124.011 115.747 124.804 116.647 125.325C117.497 125.817 117.677 127.381 118.457 128.094C119.177 128.756 120.347 129.046 121.007 129.879C121.617 130.641 122.497 131.343 123.057 132.236C123.577 133.078 123.517 134.312 123.997 135.245C124.447 136.128 123.637 137.572 124.047 138.535C124.437 139.458 124.667 140.37 125.007 141.353C125.337 142.296 127.807 142.547 128.097 143.54C128.387 144.503 127.537 145.806 127.787 146.799C128.027 147.782 129.837 148.424 130.047 149.437C130.137 149.879 129.737 150.42 129.287 150.962C129.367 150.982 129.447 151.002 129.527 151.012C130.517 151.172 131.647 150.531 132.617 150.741C133.597 150.962 134.727 150.671 135.687 150.942C136.657 151.223 137.647 151.554 138.577 151.885C139.527 152.226 140.327 152.998 141.237 153.409C142.157 153.82 142.747 154.884 143.617 155.355C144.507 155.836 146.117 155.104 146.957 155.656C147.797 156.207 148.637 156.9 149.417 157.521C150.207 158.143 150.817 159.086 151.537 159.778C152.257 160.47 153.037 161.202 153.687 161.975C154.337 162.737 155.187 163.449 155.757 164.282C156.317 165.104 154.867 167.14 155.347 168.033C155.817 168.905 157.237 169.246 157.627 170.179C158.007 171.092 157.407 172.295 157.697 173.268C157.987 174.211 158.107 175.094 158.307 176.097C158.507 177.06 160.257 177.752 160.377 178.765C160.377 178.835 160.407 178.905 160.417 178.985C160.417 178.925 160.417 178.865 160.437 178.805C160.777 177.822 160.617 176.338 161.177 175.555C161.757 174.753 164.237 175.776 165.027 175.174C165.797 174.592 165.597 172.386 166.527 171.975C167.397 171.593 168.907 172.988 169.897 172.737C170.827 172.506 171.737 172.837 172.747 172.717C173.707 172.596 174.517 171.072 175.517 171.042C176.487 171.012 177.457 171.503 178.447 171.543C179.427 171.593 180.437 171.092 181.427 171.192C182.407 171.292 183.517 170.62 184.487 170.771C185.467 170.931 186.427 171.353 187.387 171.553C188.367 171.754 189.467 171.573 190.397 171.814C191.377 172.065 192.277 172.657 193.197 172.927C194.177 173.228 194.767 174.632 195.647 174.953C196.637 175.304 197.797 175.064 198.637 175.425C199.647 175.866 200.727 176.047 201.467 176.468C201.637 176.558 201.777 176.689 201.927 176.819C202.007 176.729 202.097 176.638 202.177 176.548C202.827 175.756 203.767 175.294 204.497 174.582C205.237 173.85 205.677 172.887 206.477 172.275C207.307 171.644 208.607 172.005 209.487 171.543C209.667 171.453 209.817 171.323 209.957 171.182C209.807 171.052 209.647 170.931 209.457 170.841C208.527 170.4 206.017 172.055 205.377 171.282C204.767 170.55 204.897 168.935 204.527 167.953C204.187 167.07 205.877 165.676 205.707 164.633C205.557 163.69 202.537 162.968 202.507 161.925C202.477 160.962 204.307 159.929 204.367 158.906C204.427 157.933 205.087 157.03 205.217 156.017C205.347 155.034 203.737 153.77 203.917 152.777C204.097 151.794 205.867 151.142 206.097 150.169C206.327 149.197 206.197 148.143 206.467 147.191C206.737 146.218 207.627 145.455 207.927 144.523C208.237 143.55 208.437 142.587 208.767 141.674C209.117 140.691 209.807 139.929 210.167 139.046C210.567 138.053 209.087 136.308 209.487 135.476C209.977 134.453 211.497 134.092 211.937 133.369C212.437 132.537 212.097 131.083 212.687 130.25C213.257 129.448 213.547 128.314 214.187 127.532C214.817 126.76 215.537 125.957 216.227 125.215C216.907 124.483 218.117 124.192 218.847 123.51C219.577 122.828 221.307 123.309 222.077 122.677C222.857 122.046 223.247 120.962 224.067 120.401C224.897 119.829 225.457 118.846 226.327 118.355C227.207 117.853 228.107 117.352 229.017 116.96C229.947 116.559 230.727 115.536 231.677 115.265C232.647 114.985 234.037 116.76 235.017 116.629C236.017 116.489 236.837 116.018 237.837 116.058C238.827 116.098 239.927 115.205 240.907 115.436C241.867 115.657 243.077 115.526 244.017 115.947C244.897 116.339 244.947 118.314 245.807 118.906C246.597 119.448 248.847 118.294 249.617 119.017C250.317 119.668 250.247 122.236 250.917 123.049C250.937 122.026 251.137 120.3 251.257 119.317C251.377 118.314 251.977 117.462 252.197 116.489C252.427 115.506 250.887 114.002 251.217 113.059C251.547 112.106 251.867 111.023 252.287 110.12C252.717 109.207 253.947 108.646 254.467 107.783C254.977 106.93 256.297 106.61 256.897 105.807C257.487 105.005 257.887 104.072 258.547 103.32C259.207 102.577 260.107 102.106 260.837 101.404C261.557 100.722 262.577 100.461 263.357 99.8193C264.127 99.1874 264.257 97.7731 265.087 97.1914C265.897 96.6197 267.297 96.9808 268.147 96.4492C268.997 95.9276 269.897 95.6468 270.787 95.1654C271.667 94.694 272.097 93.4101 273.007 92.9889C273.907 92.5676 274.237 90.7221 275.167 90.351C276.087 89.9799 277.677 91.3339 278.627 91.013C279.567 90.692 280.717 91.1735 281.687 90.9027C282.647 90.6319 283.347 89.5085 284.317 89.2778C285.287 89.0471 286.217 88.6961 287.197 88.5155C288.177 88.335 288.917 86.4795 289.907 86.339C290.897 86.1986 292.067 87.2919 293.057 87.2016C294.057 87.1113 295.017 86.1786 296.017 86.1284C297.017 86.0883 298.067 86.0983 299.067 86.0983C300.067 86.0983 301.097 86.5096 302.097 86.5697C303.097 86.6199 304.137 86.66 305.127 86.7603C306.127 86.8706 307.047 87.6329 308.037 87.7934C309.027 87.9539 310.197 87.332 311.167 87.5426C312.147 87.7633 312.867 89.0872 313.817 89.358C314.787 89.6389 315.377 90.8926 316.307 91.2336C317.257 91.5747 318.597 90.7723 319.507 91.1735C320.427 91.5847 321.877 90.9929 322.747 91.4643C323.637 91.9458 323.837 93.6308 324.667 94.1824C325.507 94.7341 326.817 94.6438 327.607 95.2657C328.397 95.8875 329.797 95.9477 330.517 96.6398C331.237 97.3318 330.517 99.4782 331.157 100.241C331.807 101.003 332.357 101.765 332.927 102.598C333.487 103.42 333.677 104.393 334.157 105.286C334.627 106.158 336.817 106.228 337.207 107.161C337.587 108.074 336.217 109.649 336.507 110.621C336.797 111.564 338.867 112.086 339.077 113.089C339.217 113.771 338.787 114.573 338.557 115.346C339.367 114.904 340.667 114.704 341.067 114.142C341.647 113.34 342.687 113.36 343.477 112.758C344.247 112.176 344.407 110.872 345.337 110.461C346.207 110.08 346.727 108.264 347.717 108.014C348.647 107.783 349.987 109.378 350.997 109.247C351.947 109.127 352.877 108.626 353.887 108.595C354.857 108.565 355.847 108.285 356.847 108.335C357.827 108.385 358.857 108.094 359.847 108.204C360.827 108.305 361.827 108.515 362.797 108.676C363.777 108.836 364.417 110.722 365.367 110.922C366.347 111.123 367.517 110.301 368.457 110.541C369.437 110.792 370.477 110.742 371.387 111.013C372.367 111.314 373.357 111.504 374.237 111.825C375.227 112.176 375.887 113.189 376.727 113.55C377.737 113.992 378.357 114.834 379.107 115.255C379.967 115.737 381.777 114.664 382.597 115.205C383.417 115.747 383.217 117.763 384.007 118.355C384.797 118.946 386.087 118.866 386.847 119.498C387.597 120.13 387.397 121.795 388.107 122.467C388.817 123.139 389.467 123.801 390.147 124.513C390.827 125.225 391.977 125.446 392.617 126.198C393.257 126.94 394.557 127.141 395.167 127.913C395.777 128.685 395.387 130.21 395.967 131.002C396.547 131.795 396.647 132.878 397.197 133.7C397.747 134.523 399.837 134.322 400.357 135.155C400.467 135.325 400.607 135.476 400.767 135.616C401.487 135.425 402.347 135.375 402.837 134.924C403.567 134.242 404.017 133.359 404.797 132.737C405.577 132.106 405.467 130.32 406.287 129.759C407.117 129.187 408.037 128.705 408.907 128.224C409.787 127.723 410.957 127.823 411.867 127.432C412.797 127.03 413.307 125.315 414.247 125.034C415.217 124.754 416.547 125.837 417.527 125.706C418.527 125.566 419.547 124.062 420.537 124.092C421.527 124.132 422.247 126.529 423.237 126.75C424.197 126.97 425.957 124.954 426.897 125.375C427.777 125.767 428.177 127.412 429.037 128.003C429.827 128.545 430.277 129.568 431.047 130.29C431.747 130.942 432.547 131.113 433.217 131.915C433.237 130.892 433.577 130.25 433.697 129.267C433.817 128.264 433.437 127.161 433.657 126.198C433.887 125.215 434.487 124.312 434.807 123.38C435.137 122.427 435.727 121.594 436.147 120.681C436.577 119.769 435.647 118.064 436.167 117.211C436.677 116.359 439.287 116.87 439.887 116.058C440.477 115.255 440.027 113.63 440.697 112.878C441.357 112.136 442.407 111.745 443.137 111.043C443.857 110.351 444.377 109.418 445.157 108.786C445.927 108.154 446.237 106.83 447.067 106.248C447.877 105.677 449.067 105.556 449.927 105.025C450.777 104.503 452.557 105.647 453.447 105.175C454.327 104.704 455.227 104.463 456.147 104.042C457.047 103.621 457.187 101.484 458.127 101.113C459.047 100.742 459.787 99.739 460.737 99.4181C461.677 99.0971 463.107 100.261 464.077 99.9797C465.037 99.7089 465.637 97.9738 466.607 97.7431C467.577 97.5124 468.627 97.382 469.607 97.2014C470.587 97.0209 471.777 97.9437 472.767 97.8133C473.757 97.6729 474.697 97.041 475.697 96.9507C476.697 96.8604 477.767 98.1643 478.767 98.1242C479.767 98.0841 480.727 96.8103 481.727 96.8203C482.727 96.8203 483.737 97.041 484.727 97.0911C485.727 97.1413 486.637 98.0841 487.627 98.1944C488.627 98.3047 489.857 96.6899 490.837 96.8504C491.827 97.0109 492.657 98.1443 493.627 98.3649C494.607 98.5856 495.837 97.9537 496.787 98.2245C497.757 98.5053 498.347 99.9998 499.277 100.331C500.227 100.672 501.777 99.5785 502.687 99.9797C503.607 100.391 504.047 101.905 504.917 102.377C505.807 102.858 506.277 103.972 507.117 104.523C507.957 105.075 508.467 105.958 509.247 106.579C510.037 107.201 511.617 106.84 512.347 107.542C513.067 108.234 513.557 109.177 514.207 109.939C514.857 110.702 514.377 112.236 514.947 113.069C515.507 113.891 515.837 114.694 516.317 115.576C516.787 116.449 517.217 117.191 517.607 118.134C517.987 119.047 520.887 119.067 521.187 120.04C521.477 120.982 520.717 122.286 520.927 123.289C521.127 124.252 520.407 125.365 520.517 126.389C520.627 127.361 521.217 128.294 521.257 129.327C521.277 129.929 521.217 130.952 521.157 131.895C521.277 130.962 521.477 129.959 521.527 129.397C521.627 128.344 520.347 126.92 520.647 126.048C520.987 125.065 521.897 124.042 522.457 123.269C523.037 122.467 523.797 121.354 524.587 120.752C525.357 120.17 527.337 121.524 528.267 121.113C529.137 120.732 529.527 118.846 530.517 118.595C531.447 118.365 532.517 118.204 533.517 118.084C534.477 117.963 535.527 118.104 536.537 118.084C537.507 118.054 538.547 117.753 539.547 117.793C540.527 117.843 541.497 118.525 542.477 118.635C543.457 118.736 544.457 118.776 545.437 118.926C545.807 118.986 546.167 119.077 546.527 119.157C546.087 118.465 545.417 117.733 545.487 117.061C545.587 116.098 546.327 115.135 546.507 114.152C546.677 113.189 546.797 112.166 547.027 111.203C547.247 110.24 549.187 109.729 549.457 108.796C549.727 107.833 547.937 106.238 548.237 105.326C548.557 104.363 549.867 103.741 550.207 102.868C550.587 101.885 551.177 101.053 551.547 100.23C552.017 99.1974 551.447 97.6929 551.867 96.9908C552.367 96.1583 552.957 95.1955 553.577 94.3529C554.167 93.5506 556.057 93.7311 556.727 92.9588C557.387 92.2065 557.907 91.3339 558.637 90.6218C559.357 89.9197 560.597 89.8595 561.377 89.2176C562.157 88.5757 562.397 87.2618 563.227 86.7102C564.077 86.1384 564.847 85.4564 565.737 84.995C566.647 84.5236 567.427 83.6109 568.357 83.2899C569.327 82.9489 570.487 83.1194 571.477 82.959C572.477 82.7985 573.467 84.1926 574.467 84.2428C575.467 84.2929 576.137 84.5437 577.117 84.8345C578.057 85.1154 579.317 84.2829 580.227 84.8045C581.067 85.2759 582.607 84.995 583.407 85.6971C584.127 86.329 584.187 87.9238 584.867 88.7462C584.887 87.7131 585.247 86.6399 585.387 85.657C585.537 84.644 585.817 83.7112 586.087 82.7483C586.367 81.7654 585.207 80.2108 585.607 79.288C586.007 78.3552 587.207 77.7033 587.717 76.8307C588.227 75.9581 589.627 75.6873 590.247 74.8748C590.857 74.0724 591.487 73.3503 592.187 72.6081C592.877 71.8759 592.387 69.8298 593.157 69.1678C593.917 68.5058 595.457 68.7365 596.287 68.1347C597.107 67.553 597.897 66.881 598.767 66.3494C599.627 65.8278 601.237 66.7305 602.147 66.2692C603.047 65.8178 603.407 64.3133 604.347 63.9121C605.277 63.521 606.277 63.3505 607.237 63.0094C608.187 62.6785 608.937 61.6654 609.917 61.3846C610.887 61.1138 611.707 60.0005 612.697 59.7798C613.687 59.5591 614.917 60.3515 615.917 60.191C616.917 60.0306 618.027 60.7527 619.027 60.6524C620.037 60.5521 620.957 59.2081 621.967 59.168C622.977 59.1279 624.037 59.3987 625.037 59.4087C626.057 59.4288 627.137 58.9072 628.137 58.9774C629.147 59.0577 629.957 61.0436 630.947 61.184C631.957 61.3344 633.367 59.3084 634.347 59.519C635.347 59.7397 636.417 60.0306 637.387 60.3214C638.367 60.6123 638.987 62.1067 639.927 62.4779C640.877 62.849 641.247 64.3936 642.147 64.8449C643.057 65.3063 645.207 63.6012 646.057 64.1428C646.917 64.6945 646.867 66.6202 647.657 67.2521C648.447 67.894 648.317 69.4085 649.017 70.1307C649.717 70.8528 651.397 70.6422 652.007 71.4546C652.607 72.257 654.217 72.5178 654.717 73.4105C655.207 74.2831 653.477 76.259 653.867 77.2118C654.237 78.1346 656.377 78.4455 656.657 79.4485C656.917 80.4013 655.627 81.7152 655.787 82.7483C655.877 83.3301 655.747 83.9018 655.647 84.4835C655.897 84.5236 656.147 84.664 656.407 84.8546C656.367 83.9419 656.187 82.9289 656.487 82.297C656.927 81.3843 658.177 80.5317 658.877 79.8798C659.577 79.2278 660.607 78.4455 661.517 78.0042C662.367 77.603 663.457 77.0012 664.447 76.7605C665.367 76.5398 666.497 76.1888 667.507 76.0985C668.457 76.0082 669.587 75.918 670.587 75.928C671.557 75.938 672.607 76.4395 673.597 76.5298C674.477 76.61 675.357 77.0212 676.237 77.2118C676.707 76.7404 677.237 76.3091 677.637 75.7775C678.227 74.9751 677.967 73.4807 678.637 72.7284C679.297 71.9862 681.287 72.568 682.017 71.8759C682.737 71.1838 683.327 70.4918 684.107 69.8499C684.877 69.218 684.397 66.9512 685.217 66.3695C686.027 65.7978 687.177 65.6473 688.037 65.1257C688.887 64.6042 689.687 63.9322 690.577 63.4508C691.457 62.9793 692.137 61.9964 693.047 61.5752C693.947 61.1539 695.727 62.7487 696.657 62.3776C697.577 62.0064 697.707 59.4288 698.657 59.0978C699.597 58.7768 701.237 60.6123 702.197 60.3415C703.157 60.0707 704.027 59.6093 705.007 59.3786C705.977 59.1479 706.737 57.9343 707.727 57.7538C708.707 57.5732 709.577 56.3997 710.567 56.2593C711.557 56.1189 712.627 56.0788 713.617 55.9885C714.617 55.8982 715.747 57.503 716.747 57.4529C717.747 57.4127 718.737 56.7508 719.727 56.7508C720.727 56.7508 721.717 57.2824 722.707 57.3425C723.707 57.3927 724.617 58.2252 725.607 58.3355C726.607 58.4458 727.687 57.7036 728.667 57.8641C729.657 58.0246 730.507 58.7768 731.477 58.9975C732.457 59.2181 733.977 57.3626 734.937 57.6434C735.907 57.9243 736.127 60.5621 737.057 60.8931C738.007 61.2341 739.367 60.4418 740.277 60.843C741.197 61.2542 741.387 63.0596 742.257 63.531C743.147 64.0124 744.677 63.2803 745.517 63.8219C746.357 64.3735 747.437 64.6443 748.217 65.2561C749.007 65.878 748.947 67.4627 749.667 68.1548C750.387 68.8469 752.637 68.1548 753.287 68.9171C753.937 69.6793 752.327 72.1768 752.897 73.0093C753.457 73.8317 754.567 74.1928 755.057 75.0855C755.527 75.9581 755.157 77.1215 755.547 78.0644C755.927 78.9771 756.967 79.5588 757.267 80.5317C757.557 81.4745 759.047 82.1265 759.257 83.1295C759.457 84.0923 759.397 85.1555 759.517 86.1786C759.547 86.4594 759.677 86.7503 759.827 87.0311C759.787 86.7904 759.787 86.5697 759.857 86.3491C760.187 85.3661 760.967 84.6941 761.527 83.9218C762.107 83.1194 762.047 81.5548 762.837 80.953C763.607 80.3712 765.207 81.0733 766.137 80.6721C767.007 80.291 767.967 80.4615 768.957 80.2108C769.887 79.9801 770.777 80.2108 771.787 80.0804C772.747 79.96 773.597 79.7393 774.597 79.7093C775.567 79.6792 776.547 77.8136 777.547 77.8537C778.527 77.9039 779.447 78.9269 780.427 79.0373C781.407 79.1376 782.337 79.4585 783.307 79.619C784.287 79.7795 785.377 79.2579 786.337 79.4585C787.317 79.6591 787.867 81.5447 788.797 81.7855C789.777 82.0362 790.947 81.3341 791.867 81.6149C792.847 81.9158 794.057 81.3843 794.937 81.7052C795.927 82.0563 796.707 82.8085 797.547 83.1696C798.567 83.6109 799.107 84.664 799.847 85.0853C800.707 85.5667 801.367 86.2588 802.187 86.8004C803.007 87.342 805.047 86.1585 805.827 86.7503C806.617 87.342 807.617 87.7733 808.377 88.4152C809.127 89.0471 809.897 89.7893 810.607 90.4613C811.317 91.1333 811.007 92.9086 811.687 93.6208C812.367 94.3329 812.997 95.0751 813.647 95.8273C814.287 96.5696 816.167 96.3288 816.777 97.1112C817.387 97.8835 816.357 99.9296 816.937 100.732C817.517 101.524 817.357 102.798 817.907 103.621C818.457 104.443 819.997 104.583 820.517 105.416C821.037 106.248 821.557 107.081 822.047 107.943C822.537 108.796 823.027 109.649 823.487 110.521C823.947 111.394 823.567 112.678 823.997 113.56C824.437 114.443 826.307 114.633 826.717 115.526C827.127 116.429 827.417 117.392 827.807 118.294C828.197 119.207 828.277 120.25 828.637 121.153C828.917 121.855 829.897 122.296 830.167 123.008C830.437 123.721 828.567 125.205 828.817 125.907C829.157 126.88 831.877 127.111 832.067 128.013C832.277 129.006 830.667 130.25 830.737 131.193C830.807 132.186 830.217 133.058 830.167 134.021C830.117 135.004 830.117 135.887 829.997 136.86C829.877 137.823 830.517 138.876 830.367 139.859C830.227 140.792 830.727 141.825 830.637 142.797C831.307 142.336 832.007 141.875 832.557 141.594C833.527 141.122 835.307 143.159 836.217 142.938C837.247 142.697 837.907 142.125 838.857 142.196C839.867 142.276 840.917 141.714 841.837 142.105C842.737 142.487 843.247 143.469 844.067 144.111C844.827 144.703 844.897 145.837 845.577 146.629C846.207 147.361 848.767 146.679 849.337 147.552C849.867 148.364 849.697 149.718 850.177 150.641C850.627 151.513 850.727 152.587 851.127 153.54C851.507 154.442 852.067 155.315 852.397 156.288C852.427 156.368 852.467 156.448 852.507 156.538H852.527C853.527 156.589 854.907 155.204 855.887 155.495C856.827 155.776 858.007 156.328 858.917 156.849C859.747 157.321 860.867 157.943 861.677 158.645C862.397 159.277 861.887 160.089 862.567 160.912C862.587 159.878 862.547 159.768 862.687 158.785C862.837 157.772 862.457 156.548 862.727 155.586C863.007 154.603 864.997 154.212 865.397 153.289C865.797 152.356 865.977 151.383 866.487 150.51C867.007 149.638 867.257 148.615 867.867 147.812C868.477 147.01 869.057 146.168 869.757 145.425C870.447 144.693 871.437 144.282 872.207 143.61C872.967 142.948 873.887 142.537 874.707 141.945C875.517 141.363 876.637 141.343 877.517 140.812C878.377 140.29 878.927 139.327 879.837 138.866C880.737 138.414 881.217 137.06 882.157 136.669C883.087 136.278 884.287 136.569 885.247 136.228C886.197 135.897 887.467 136.739 888.447 136.459C889.417 136.188 889.907 134.092 890.897 133.871C891.887 133.65 892.857 133.149 893.857 132.988C894.857 132.828 895.907 132.697 896.907 132.597C897.917 132.497 899.047 134.112 900.047 134.061C901.057 134.021 902.017 133.73 903.027 133.75C904.047 133.771 905.167 131.785 906.177 131.865C907.187 131.945 908.117 133.219 909.117 133.369C910.127 133.52 911.087 133.931 912.067 134.142C913.067 134.362 913.947 134.934 914.907 135.225C915.887 135.516 916.777 135.927 917.707 136.298C918.657 136.669 920.157 135.827 921.057 136.278C921.967 136.739 921.767 139.106 922.617 139.648C923.477 140.2 924.197 140.691 924.987 141.323C925.777 141.965 926.837 142.125 927.547 142.858C928.247 143.58 928.437 144.613 929.047 145.425C929.647 146.228 929.857 147.1 930.367 147.993C930.857 148.866 931.757 149.387 932.147 150.34C932.527 151.263 932.597 152.175 932.877 153.178C933.137 154.131 934.157 154.874 934.317 155.907C934.427 156.619 934.317 157.351 934.267 158.093C934.697 157.381 935.447 156.769 935.747 156.157C936.187 155.245 936.687 154.332 937.397 153.68C938.097 153.028 939.327 153.199 940.237 152.757C941.087 152.356 941.487 150.36 942.487 150.129C943.407 149.909 944.767 152.276 945.777 152.185C946.727 152.095 947.597 149.738 948.597 149.758C949.567 149.768 950.577 150.21 951.567 150.3C952.537 150.39 953.257 152.376 954.227 152.526C955.197 152.677 956.687 150.069 957.637 150.28C958.297 150.42 958.927 150.761 959.557 151.042C959.617 151.002 959.677 150.972 959.727 150.932C960.457 150.25 961.307 149.788 962.087 149.156C962.867 148.525 963.767 148.194 964.587 147.622C965.417 147.05 965.787 145.887 966.647 145.395C967.527 144.894 968.247 144.131 969.147 143.74C970.077 143.339 970.727 142.025 971.677 141.744C972.647 141.463 973.927 142.396 974.907 142.266C975.907 142.125 976.917 140.611 977.917 140.651C978.907 140.691 980.077 141.112 981.057 141.343C982.017 141.564 982.777 142.747 983.707 143.169C984.587 143.56 985.207 144.452 986.067 145.034C986.857 145.576 987.067 146.729 987.837 147.441C988.537 148.093 990.187 148.484 990.857 149.287C990.877 148.264 990.077 146.659 990.197 145.676C990.317 144.673 990.317 143.56 990.547 142.597C990.777 141.614 991.907 140.842 992.227 139.899C992.557 138.946 992.027 137.592 992.457 136.679C992.887 135.766 994.117 135.225 994.637 134.362C995.147 133.51 995.797 132.717 996.397 131.905C996.987 131.103 997.557 130.25 998.217 129.498C998.877 128.756 998.867 127.271 999.597 126.569C1000.32 125.887 1001.65 125.787 1002.43 125.145C1003.2 124.513 1004.16 124.082 1004.98 123.5C1005.79 122.928 1006.17 121.594 1007.03 121.073C1007.88 120.551 1009.38 121.103 1010.27 120.631C1011.15 120.16 1012.41 120.531 1013.33 120.11C1014.23 119.689 1014.79 118.515 1015.72 118.144C1016.65 117.773 1017.4 116.92 1018.35 116.599C1019.29 116.278 1020.45 116.619 1021.42 116.349C1022.38 116.078 1023.41 116.138 1024.38 115.907C1025.35 115.677 1026.04 114.062 1027.02 113.881C1028 113.701 1028.99 113.259 1029.98 113.129C1030.97 112.989 1032.16 114.413 1033.15 114.323C1034.15 114.232 1035.07 112.979 1036.07 112.938C1037.07 112.898 1038.1 113.851 1039.1 113.861C1040.1 113.861 1041.06 114.473 1042.05 114.523C1043.05 114.573 1044.02 114.513 1045.01 114.613C1046.01 114.724 1047.12 113.881 1048.1 114.042C1049.09 114.202 1050.11 114.302 1051.08 114.523C1052.06 114.744 1053.33 114.032 1054.28 114.302C1055.25 114.583 1055.84 116.168 1056.77 116.499C1057.72 116.84 1058.34 117.913 1059.25 118.314C1060.17 118.726 1061.38 118.455 1062.26 118.926C1063.15 119.408 1064.72 118.816 1065.56 119.358C1066.4 119.909 1067.32 120.551 1068.1 121.173C1068.89 121.795 1069.06 123.249 1069.78 123.941C1070.5 124.633 1070.05 126.389 1070.7 127.151C1071.35 127.913 1072.51 128.174 1073.08 129.006C1073.64 129.829 1074.97 130.19 1075.45 131.083C1075.92 131.955 1075.21 133.389 1075.6 134.332C1075.98 135.245 1077.03 135.897 1077.33 136.87C1077.62 137.813 1078.64 138.625 1078.84 139.628C1079.04 140.591 1076.96 141.915 1077.08 142.928C1077.17 143.73 1078.72 144.422 1079.28 145.215C1079.42 144.462 1079.65 143.811 1079.89 143.118C1080.23 142.146 1081.16 141.835 1081.72 141.062C1082.3 140.26 1082.07 138.966 1082.86 138.364C1083.63 137.783 1083.87 136.027 1084.8 135.616C1085.67 135.235 1087.42 137.371 1088.41 137.121C1089.34 136.89 1089.83 134.162 1090.83 134.031C1091.79 133.911 1092.88 133.921 1093.89 133.891C1094.86 133.861 1095.88 134.864 1096.88 134.904C1097.86 134.944 1098.73 136.148 1099.71 136.258C1100.69 136.358 1101.57 136.79 1102.54 136.95C1103.52 137.111 1104.78 135.586 1105.74 135.787C1106.72 135.987 1107.69 136.228 1108.63 136.469C1109.61 136.719 1110.82 136.178 1111.74 136.459C1112.72 136.759 1113.64 137.291 1114.53 137.612C1115.52 137.963 1115.73 140.15 1116.57 140.511C1117.59 140.952 1118.98 140.29 1119.73 140.711C1120.59 141.193 1121.65 141.403 1122.47 141.945C1123.29 142.487 1123.12 144.422 1123.91 145.014C1124.7 145.606 1126.55 144.844 1127.3 145.475C1128.05 146.107 1128.57 147.06 1129.28 147.742C1129.99 148.414 1129.61 150.18 1130.29 150.892C1130.97 151.604 1133.13 150.952 1133.78 151.704C1134.42 152.446 1135.22 153.128 1135.83 153.901C1136.44 154.673 1136.73 155.736 1137.31 156.538C1137.89 157.331 1138.89 157.882 1139.44 158.695C1139.99 159.517 1139.11 161.273 1139.63 162.115C1140.15 162.958 1142.25 162.857 1142.74 163.72C1143.23 164.572 1143.76 165.455 1144.22 166.328C1144.68 167.2 1143.3 169.036 1143.74 169.918C1144.18 170.801 1146.57 170.761 1146.98 171.654C1147.39 172.556 1146.98 173.85 1147.36 174.753C1147.4 174.843 1147.41 174.933 1147.44 175.024C1147.93 174.221 1149.5 173.75 1149.79 172.907C1150.12 171.954 1149.17 170.51 1149.59 169.597C1150.02 168.685 1150.44 167.712 1150.96 166.859C1151.47 166.007 1153.38 166.097 1153.97 165.285C1154.56 164.482 1154.97 163.62 1155.64 162.867C1156.3 162.125 1155.94 160.39 1156.67 159.688C1157.39 158.996 1158.49 158.695 1159.27 158.053C1160.04 157.421 1161.71 158.043 1162.54 157.461C1163.35 156.89 1163.31 155.064 1164.17 154.543C1165.02 154.021 1166.48 154.623 1167.37 154.141C1168.25 153.67 1168.77 152.557 1169.68 152.135C1170.58 151.714 1170.83 149.668 1171.77 149.297C1172.69 148.926 1174.49 150.852 1175.44 150.531C1176.38 150.21 1177.31 149.979 1178.27 149.698C1179.23 149.427 1180.11 148.986 1181.08 148.755C1182.05 148.525 1182.79 147.221 1183.77 147.04C1184.75 146.86 1185.84 147.271 1186.83 147.13C1187.82 146.99 1188.81 146.89 1189.8 146.799C1190.8 146.709 1191.77 146.408 1192.77 146.368C1193.77 146.328 1194.78 144.834 1195.77 144.834C1196.77 144.834 1197.71 147.401 1198.7 147.451C1199.7 147.502 1200.74 146.649 1201.73 146.759C1202.73 146.87 1203.87 146.017 1204.85 146.178C1205.84 146.338 1206.84 146.689 1207.81 146.91C1208.79 147.13 1209.66 147.883 1210.61 148.163C1210.76 148.204 1210.91 148.264 1211.05 148.314C1210.78 147.732 1210.48 147.15 1210.56 146.609C1210.72 145.606 1210.12 144.462 1210.34 143.48C1210.56 142.497 1212.78 142.055 1213.06 141.092C1213.34 140.119 1213.15 139.086 1213.49 138.144C1213.84 137.201 1213.1 135.827 1213.51 134.914C1213.91 134.031 1213.98 132.858 1214.51 131.925C1215 131.062 1217.01 131.133 1217.61 130.27C1218.18 129.438 1218.85 128.766 1219.5 127.973C1220.15 127.181 1219.86 125.586 1220.59 124.874C1221.33 124.142 1221.72 122.938 1222.52 122.326C1222.98 121.975 1223.58 121.835 1224.18 121.695C1224.12 121.273 1224.04 120.892 1223.85 120.661C1223.24 119.929 1222.44 119.478 1222.07 118.495C1221.73 117.612 1221.69 116.69 1221.52 115.646C1221.37 114.704 1221.52 113.771 1221.49 112.738C1221.46 111.775 1219.49 110.722 1219.55 109.689C1219.61 108.716 1221.95 107.923 1222.08 106.91C1222.21 105.927 1222.55 105.035 1222.73 104.042C1222.91 103.059 1220.79 101.595 1221.01 100.622C1221.24 99.6487 1222.78 98.9868 1223.04 98.0239C1223.31 97.051 1224.3 96.3188 1224.59 95.386C1224.9 94.4131 1223.92 93.029 1224.25 92.1163C1224.6 91.1333 1225.07 90.2206 1225.43 89.338C1225.83 88.345 1226.44 87.5025 1226.84 86.67C1227.33 85.647 1226.67 84.0622 1227.11 83.3301C1227.61 82.4976 1229.22 82.2769 1229.81 81.4344C1230.38 80.632 1230.82 79.6792 1231.46 78.8868C1232.09 78.1145 1233.96 78.4656 1234.65 77.7233C1235.33 76.9912 1235.6 75.938 1236.34 75.2459C1237.07 74.5639 1238.07 74.2831 1238.85 73.6512C1239.63 73.0193 1239.31 70.923 1240.13 70.3614C1240.96 69.7897 1242.54 70.4215 1243.4 69.9301C1244.28 69.4286 1244.92 68.5359 1245.82 68.1448C1246.75 67.7436 1247.63 67.222 1248.57 66.9412C1249.54 66.6603 1250.63 67.1919 1251.61 67.0615C1252.61 66.9211 1253.51 66.3695 1254.5 66.4096C1255.49 66.4497 1256.3 67.222 1257.29 67.4527C1258.25 67.6733 1259.68 66.4998 1260.61 66.9211C1261.49 67.3123 1262.38 68.0244 1263.23 68.6061C1264.02 69.1478 1264.65 70.0605 1265.42 70.7726C1266.12 71.4245 1266.57 72.0464 1267.25 72.8488C1267.27 71.8257 1268 71.1738 1268.11 70.1909C1268.23 69.1879 1267.05 67.9442 1267.27 66.9713C1267.5 65.9883 1269.42 65.5069 1269.75 64.5641C1270.08 63.6112 1269.13 62.1669 1269.55 61.2542C1269.98 60.3415 1270.4 59.3686 1270.92 58.516C1271.43 57.6635 1273.34 57.7538 1273.93 56.9413C1274.52 56.1389 1274.93 55.2764 1275.6 54.5241C1276.26 53.7819 1275.9 52.0467 1276.63 51.3446C1277.35 50.6526 1278.45 50.3517 1279.23 49.7098C1280 49.0779 1281.67 49.6997 1282.5 49.118C1283.31 48.5463 1283.27 46.7208 1284.13 46.1993C1284.98 45.6777 1286.44 46.2795 1287.33 45.7981C1288.21 45.3267 1288.73 44.2134 1289.64 43.7921C1290.54 43.3708 1290.79 41.3247 1291.73 40.9536C1292.65 40.5825 1294.45 42.5083 1295.4 42.1873C1296.34 41.8664 1297.27 41.6357 1298.23 41.3548C1299.19 41.084 1300.07 40.6427 1301.04 40.412C1302.01 40.1813 1302.75 38.8774 1303.73 38.6969C1304.71 38.5164 1305.8 38.9276 1306.79 38.7872C1307.78 38.6468 1308.77 38.5465 1309.76 38.4562C1310.76 38.3659 1311.73 38.065 1312.73 38.0249C1313.73 37.9848 1314.74 36.4903 1315.73 36.4903C1316.73 36.4903 1317.67 39.058 1318.66 39.1081C1319.66 39.1583 1320.7 38.3057 1321.69 38.4161C1322.69 38.5264 1323.83 37.6739 1324.81 37.8343C1325.8 37.9948 1326.8 38.3459 1327.77 38.5665C1328.75 38.7872 1329.62 39.5394 1330.57 39.8203C1331.54 40.1011 1332.42 40.6327 1333.35 40.9637C1334.3 41.3047 1334.68 42.8994 1335.59 43.3006C1336.51 43.7119 1337.85 43.1 1338.72 43.5714C1339.61 44.0529 1340.43 44.5744 1341.26 45.1161C1342.1 45.6677 1342.25 47.0418 1343.04 47.6637C1343.83 48.2855 1344.96 48.3557 1345.68 49.0478C1346.4 49.7398 1347.11 50.3617 1347.76 51.124C1348.41 51.8863 1348.45 52.9996 1349.02 53.822C1349.58 54.6445 1350.41 55.1861 1350.89 56.0788C1351.36 56.9514 1353.37 57.1118 1353.76 58.0446C1354.14 58.9574 1352.86 60.4919 1353.16 61.4648C1353.45 62.4076 1355.45 62.9493 1355.65 63.9523C1355.72 64.3234 1355.83 64.7045 1355.93 65.0856C1356.1 64.7246 1356.27 64.3735 1356.48 64.0927C1357.06 63.2903 1357.73 62.0967 1358.52 61.4949C1358.95 61.1639 1359.84 61.5852 1360.7 61.9463C1360.42 61.6353 1360.25 61.3244 1360.29 61.0436C1360.44 60.0506 1363.32 59.519 1363.52 58.506C1363.72 57.513 1363.27 56.4098 1363.52 55.4168C1363.77 54.4339 1362.99 53.1701 1363.27 52.1872C1363.56 51.2042 1364.62 50.472 1364.94 49.5092C1365.26 48.5363 1365.96 47.7138 1366.3 46.771C1366.65 45.7981 1366.36 44.6045 1366.73 43.6717C1367.12 42.7089 1366.34 41.2545 1366.74 40.3418C1367.16 39.3789 1369.32 39.2385 1369.75 38.3559C1370.21 37.393 1369.65 35.9688 1370.1 35.1162C1370.61 34.1433 1371.98 33.7421 1372.45 32.9397C1373.04 31.9468 1372.35 30.2216 1372.87 29.5195C1373.47 28.7071 1374.53 28.1454 1375.22 27.3631C1375.89 26.5908 1377.54 26.7412 1378.28 26.0091C1379.01 25.2869 1379.17 23.9629 1379.95 23.2909C1380.74 22.629 1381.38 21.7263 1382.21 21.1345C1383.05 20.5327 1384.84 21.4755 1385.72 20.954C1386.62 20.4324 1387.41 20.0212 1388.34 19.5999C1389.29 19.1686 1390.03 18.6371 1391 18.3261C1391.99 18.0052 1392.49 15.7484 1393.5 15.5779C1394.52 15.4074 1395.71 16.942 1396.73 16.942C1397.76 16.942 1398.62 17.2128 1399.63 17.4034C1400.63 17.5939 1401.31 18.1857 1402.28 18.5769C1403.21 18.948 1404.33 18.6571 1405.22 19.2389C1406.05 19.7805 1407.4 19.6902 1408.2 20.4124C1408.93 21.0743 1409.7 21.8366 1410.39 22.6691C1411.02 23.4314 1411.69 24.2739 1412.28 25.1866C1412.82 26.0091 1413.76 26.7312 1414.27 27.6841C1414.73 28.5567 1414.4 30.7031 1414.83 31.696C1414.97 30.673 1414.49 28.7773 1414.7 27.8144C1414.91 26.8114 1414.66 25.6379 1414.94 24.6851C1415.23 23.7022 1418.05 23.6019 1418.4 22.6791C1418.77 21.7263 1418.01 20.3823 1418.45 19.4896C1418.9 18.5669 1420.06 18.1356 1420.58 17.283C1421.11 16.4104 1421.76 15.7685 1422.35 14.9761C1422.96 14.1637 1422.61 12.6392 1423.28 11.907C1423.96 11.1648 1424.95 10.7636 1425.7 10.1016C1426.45 9.42959 1426.74 8.18588 1427.55 7.59412C1428.36 7.00235 1428.67 5.48783 1429.54 4.96628C1430.4 4.45475 1431.57 4.27421 1432.48 3.83289C1433.38 3.40161 1434.39 2.96029 1435.33 2.60924C1436.27 2.2582 1437.66 3.19098 1438.64 2.91014C1439.6 2.63933 1440.57 2.43874 1441.56 2.23814C1442.54 2.03754 1443.6 2.56912 1444.6 2.43874C1445.59 2.30835 1446.53 2.30835 1447.54 2.23814C1448.54 2.17796 1449.48 1.74667 1450.49 1.7567C1451.49 1.7567 1452.57 -0.0587158 1453.58 0.00146378C1454.58 0.0616433 1455.43 1.91718 1456.43 2.04757C1457.42 2.16793 1458.6 1.14487 1459.59 1.33544C1460.57 1.51598 1461.16 3.54203 1462.14 3.78274C1463.11 4.01343 1464.25 3.47182 1465.22 3.75265C1466.18 4.03349 1467.38 3.58215 1468.33 3.91313C1469.27 4.24412 1469.73 5.82885 1470.66 6.20999C1471.59 6.59112 1472.75 6.37046 1473.66 6.81178C1474.56 7.24307 1475 8.53693 1475.88 9.01836C1476.76 9.4998 1478.47 8.51687 1479.33 9.03842C1480.18 9.55998 1480.37 11.1146 1481.2 11.6863C1482.03 12.258 1483.51 11.917 1484.3 12.5389C1485.09 13.1507 1485.28 14.5248 1486.04 15.1767C1486.8 15.8287 1487.94 16.0594 1488.67 16.7615C1489.39 17.4535 1489.95 18.3261 1490.64 19.0583C1491.32 19.7905 1492.26 20.3121 1492.91 21.0944C1493.55 21.8667 1493.98 22.8195 1494.58 23.632C1495.17 24.4444 1495.32 25.5477 1495.87 26.4002C1496.41 27.2427 1498.32 27.2929 1498.82 28.1655C1499.31 29.0381 1498.3 30.7331 1498.74 31.6459C1499.18 32.5486 1500.09 33.2206 1500.48 34.1534C1500.86 35.0761 1501.42 35.9487 1501.75 36.9116C1502.08 37.8544 1503.16 38.6066 1503.44 39.5896C1503.71 40.5524 1502.36 41.9366 1502.58 42.9295C1502.79 43.9024 1502.5 44.9355 1502.65 45.9385C1502.8 46.9214 1504.72 47.6837 1504.82 48.6967C1504.92 49.6897 1504.02 50.7729 1504.07 51.796C1504.11 52.7889 1504.03 53.7819 1504.02 54.805C1504.02 55.1259 1504.21 55.4669 1504.46 55.808C1504.69 55.4569 1504.91 55.1159 1505.09 54.825C1505.64 53.9223 1507.98 54.7348 1508.69 54.133C1509.46 53.481 1509.61 52.458 1510.54 52.1169C1511.44 51.786 1512.27 51.7659 1513.29 51.6957C1514.23 51.6255 1515.16 51.0437 1516.18 51.1641C1517.12 51.2744 1518.3 50.6225 1519.29 50.8833C1520.22 51.124 1520.56 53.3205 1521.51 53.6716C1522.42 54.0026 1523.73 53.2804 1524.65 53.6916C1525.54 54.0928 1525.97 55.4068 1526.86 55.8681C1527.73 56.3195 1529.76 54.7047 1530.62 55.2062C1531.47 55.7077 1531.45 57.6735 1532.28 58.2151C1533.12 58.7568 1534.23 58.8671 1535.03 59.4288C1535.85 60.0005 1535.68 61.8861 1536.45 62.4779C1537.25 63.0897 1539.37 61.9764 1540.12 62.5882C1540.91 63.2401 1541.42 64.203 1542.12 64.8449C1542.9 65.547 1543.13 66.7506 1543.78 67.4025C1544.55 68.1648 1546.08 68.1347 1546.65 68.8067C1547.29 69.559 1546.94 71.1236 1547.55 71.896C1548.16 72.6683 1550.3 72.2971 1550.88 73.0895C1551.47 73.8819 1550.85 75.5669 1551.4 76.3793C1551.96 77.1917 1552.79 77.8337 1553.32 78.6661C1553.85 79.4986 1554.42 80.3211 1554.91 81.1736C1555.4 82.0262 1554.6 83.5908 1555.06 84.4534C1555.52 85.326 1555.72 86.2789 1556.14 87.1615C1556.57 88.0542 1558.08 88.4052 1558.48 89.3079C1558.87 90.2106 1559.27 91.1133 1559.63 92.026C1559.99 92.9488 1560.48 93.8113 1560.8 94.7441C1561.12 95.6769 1562.08 96.4191 1562.36 97.372C1562.64 98.3148 1563.11 99.2476 1563.36 100.2C1563.6 101.153 1563.13 102.307 1563.33 103.27C1563.53 104.232 1563.08 105.316 1563.24 106.289C1563.4 107.261 1563.12 108.274 1563.24 109.247C1563.36 110.23 1565.47 111.013 1565.55 111.996C1565.63 112.979 1565.52 114.022 1565.55 115.005C1565.58 115.987 1563.13 117.001 1563.12 117.983C1563.12 118.966 1565.98 120.04 1565.93 121.033C1565.88 122.015 1565.32 123.018 1565.22 124.001C1565.13 124.984 1563.48 125.807 1563.34 126.79C1563.18 128.334 1564.57 128.324 1564.62 129.909C1564.67 131.464 1564.64 131.594 1564.5 133.149C1564.36 134.693 1564.41 134.703 1564.27 136.248C1564.13 137.793 1562.8 137.672 1562.67 139.217C1562.53 140.761 1563.54 140.852 1563.4 142.396C1563.26 143.941 1563.16 143.931 1563.02 145.475C1562.88 147.02 1561.33 146.88 1561.19 148.424C1561.05 149.969 1561.26 149.989 1561.12 151.534C1560.98 153.078 1562.89 153.249 1562.75 154.793C1562.61 156.338 1560.64 156.157 1560.5 157.702C1560.36 159.247 1560.49 159.257 1560.35 160.801C1560.21 162.346 1559.72 162.296 1559.58 163.84C1559.44 165.385 1560.73 165.505 1560.59 167.05C1560.45 168.594 1561.01 168.645 1560.87 170.189C1560.73 171.734 1558.3 171.854 1558.55 173.389C1559.45 174.001 1561.95 172.887 1562.77 173.188C1563.75 173.549 1564.1 175.816 1565.02 175.916C1566.01 176.027 1567.02 176.127 1567.98 176.167C1568.94 176.207 1569.88 175.726 1570.86 175.946C1571.74 176.147 1572.16 177.16 1573.1 177.692C1573.85 178.123 1576.24 177.441 1577.05 178.203C1576.76 179.226 1575.73 180.56 1575.7 181.573C1575.67 182.606 1575.46 183.639 1575.6 184.662C1575.75 185.675 1574.92 186.919 1575.13 187.932C1575.34 188.935 1577.72 189.517 1577.9 190.53C1578.09 191.543 1577.52 192.736 1577.58 193.77C1577.64 194.793 1578.67 196.056 1578.5 197.089C1578.34 198.092 1575.92 198.594 1575.65 199.517C1575.37 200.48 1576.67 201.984 1576.3 202.877C1575.92 203.799 1574.82 204.421 1574.38 205.294C1573.93 206.177 1573.15 206.879 1572.67 207.731C1572.19 208.594 1570.86 208.975 1570.38 209.837C1569.9 210.7 1569.14 211.472 1568.69 212.355C1568.23 213.258 1569.73 215.173 1569.25 216.036C1568.76 216.929 1568.14 217.751 1567.63 218.594C1567.11 219.466 1566.81 220.499 1566.26 221.322C1565.7 222.164 1565.05 222.997 1564.46 223.779C1563.85 224.592 1563.3 225.524 1562.65 226.256C1561.98 227.019 1559.6 226.076 1558.89 226.758C1558.16 227.45 1558.12 228.814 1557.33 229.416C1556.53 230.028 1555.4 229.988 1554.54 230.479C1553.68 230.981 1553.59 233.017 1552.66 233.398C1551.75 233.779 1550.79 234.481 1549.81 234.732C1548.87 234.982 1547.6 234.11 1546.59 234.23C1546.5 234.24 1546.42 234.26 1546.33 234.27C1546.33 234.722 1546.34 235.163 1546.46 235.584C1546.73 236.557 1546.54 237.58 1546.72 238.573C1546.91 239.566 1549.05 240.288 1549.16 241.291C1549.26 242.294 1549.16 243.408 1549.17 244.421C1549.18 245.424 1546.69 246.346 1546.62 247.359C1546.55 248.352 1549.32 249.676 1549.17 250.689C1549.02 251.672 1548.34 252.665 1548.11 253.658C1547.89 254.631 1546.13 255.243 1545.83 256.226C1545.45 257.73 1546.85 257.921 1546.67 259.496C1546.5 261.04 1545.58 260.96 1545.21 262.474C1544.85 263.979 1545.9 264.23 1545.54 265.744C1545.18 267.249 1542.99 266.727 1542.63 268.232C1542.27 269.736 1543.95 270.147 1543.59 271.652C1543.23 273.156 1542.52 272.986 1542.16 274.49C1541.8 275.995 1541.46 275.915 1541.1 277.419C1540.74 278.924 1539.81 278.703 1539.45 280.207C1539.09 281.712 1538.81 281.642 1538.45 283.156C1538.09 284.661 1540.24 285.182 1539.88 286.687C1539.52 288.191 1539.39 288.161 1539.03 289.666C1538.67 291.17 1538.5 290.919 1538.62 292.464C1539.61 292.885 1539.81 292.374 1540.74 292.534C1541.76 292.715 1542.61 292.594 1543.58 292.594C1544.55 292.594 1545.66 294.901 1546.64 294.851C1547.64 294.801 1548.56 293.758 1549.56 293.818C1550.53 293.878 1551.24 294.64 1552.24 294.951C1553.13 295.222 1555.08 294.44 1556.01 295.022C1555.54 295.954 1555.68 297.218 1555.59 298.111C1555.49 299.074 1554.46 299.896 1554.6 300.829C1554.74 301.772 1555.17 302.664 1555.35 303.597C1555.53 304.54 1556.39 305.523 1556.4 306.486C1556.41 307.409 1555.34 308.361 1555.02 309.324C1554.68 310.357 1555.09 311.822 1554.56 312.754C1554.04 313.687 1553.6 314.861 1552.96 315.733C1552.32 316.596 1550.39 316.476 1549.69 317.298C1548.99 318.121 1549.53 320.016 1548.83 320.829C1548.12 321.651 1545.94 321.21 1545.28 322.042C1544.63 322.855 1543.96 323.617 1543.3 324.399C1542.62 325.192 1542.03 326.024 1541.34 326.776C1540.63 327.539 1539.86 328.191 1539.13 328.913C1538.39 329.645 1538.53 331.33 1537.75 332.002C1536.97 332.684 1535.23 332.182 1534.41 332.814C1533.59 333.436 1533.39 334.931 1532.52 335.492C1531.66 336.054 1530.47 336.084 1529.55 336.576C1528.65 337.067 1527.61 337.207 1526.65 337.629C1525.71 338.04 1525.1 339.284 1524.11 339.615C1523.15 339.946 1522.06 339.956 1521.04 340.206C1520.06 340.447 1519.14 341.26 1518.1 341.43C1517.1 341.601 1515.99 341.039 1515 341.099C1513.99 341.159 1512.95 341.942 1511.96 341.901C1510.94 341.861 1509.88 341.601 1508.9 341.45C1507.89 341.29 1506.76 341.31 1505.81 341.029C1504.83 340.738 1504.41 338.943 1503.51 338.531C1502.58 338.11 1501.8 337.669 1500.97 337.117C1500.13 336.556 1499.24 336.215 1498.51 335.522C1497.78 334.83 1497.18 334.128 1496.58 333.306C1496 332.503 1494.27 332.293 1493.84 331.36C1493.37 330.367 1494.86 328.742 1494.64 327.759C1494.51 327.157 1494.46 326.636 1494.44 326.114C1493.69 326.656 1493.28 327.799 1492.46 328.211C1491.58 328.662 1490.83 329.364 1489.93 329.775C1489.03 330.186 1487.8 329.755 1486.88 330.116C1485.96 330.477 1485 330.608 1484.07 330.929C1483.14 331.25 1482.75 333.236 1481.8 333.516C1480.86 333.797 1479.88 334.068 1478.92 334.309C1477.96 334.549 1477.08 335.272 1476.11 335.472C1475.15 335.673 1473.97 334.901 1472.99 335.071C1472.02 335.232 1470.83 333.747 1469.85 333.878C1468.87 333.998 1468.09 335.773 1467.11 335.863C1466.13 335.944 1465.09 335.111 1464.1 335.161C1463.12 335.211 1462.16 335.673 1461.17 335.693C1460.37 335.703 1459.34 336.114 1458.14 336.114C1457.22 336.114 1456.19 335.914 1455.1 335.904C1454.13 335.884 1453.07 336.887 1452.02 336.836C1451.03 336.796 1449.97 336.897 1448.95 336.826C1447.94 336.756 1446.9 336.556 1445.89 336.455C1444.87 336.345 1443.92 335.532 1442.93 335.372C1441.9 335.212 1440.96 334.63 1440.01 334.419C1438.97 334.178 1438.31 332.985 1437.41 332.674C1436.37 332.303 1435.29 332.513 1434.51 332.032C1433.54 331.43 1433.34 330.638 1432.93 329.815C1432.59 329.143 1432.26 328.682 1432.28 327.97C1431.89 328.542 1431.35 329.043 1430.95 329.695C1430.45 330.497 1431.49 332.523 1430.83 333.306C1430.22 334.028 1428.97 334.359 1428.24 335.061C1427.55 335.723 1426.2 335.713 1425.42 336.355C1424.68 336.967 1423.27 336.656 1422.46 337.248C1421.68 337.809 1421.65 339.464 1420.81 340.006C1419.99 340.527 1418.85 340.517 1417.99 341.019C1417.15 341.51 1416.87 343.055 1416 343.516C1415.14 343.978 1413.32 342.523 1412.44 342.945C1411.56 343.366 1411.39 345.312 1410.49 345.703C1409.59 346.104 1408.62 346.325 1407.71 346.696C1406.79 347.067 1406.3 348.581 1405.38 348.912C1404.45 349.253 1403.03 348.18 1402.1 348.481C1401.15 348.792 1400.14 348.792 1399.21 349.053C1398.25 349.324 1397.38 349.835 1396.45 350.056C1395.47 350.286 1394.81 352.082 1393.88 352.262C1392.88 352.453 1391.61 350.938 1390.68 351.059C1389.65 351.189 1388.75 352.864 1387.83 352.894C1386.77 352.934 1385.74 351.49 1384.86 351.39C1383.94 351.289 1382.71 352.182 1381.65 351.931C1380.72 351.721 1379.98 350.417 1378.97 350.096C1378.04 349.805 1377.42 348.581 1376.45 348.21C1375.53 347.859 1374.49 347.829 1373.55 347.418C1372.64 347.017 1371.88 346.345 1370.97 345.883C1370.07 345.432 1368.72 345.853 1367.85 345.342C1366.97 344.83 1365.62 345.031 1364.79 344.469C1363.94 343.907 1363.56 342.624 1362.77 342.012C1361.96 341.39 1362.23 339.554 1361.51 338.892C1360.75 338.19 1359.35 338.281 1358.7 337.538C1358.01 336.756 1357.68 335.833 1357.15 335.011C1356.59 334.128 1355.29 333.687 1354.94 332.774C1354.57 331.811 1355.57 330.628 1355.48 329.635C1355.39 328.642 1354.77 327.779 1355 326.766C1355.19 325.914 1355.83 325.302 1356.33 324.5C1355.46 324.349 1354.51 323.687 1353.71 323.838C1352.71 324.028 1351.94 325.412 1350.96 325.593C1349.95 325.773 1348.74 324.67 1347.76 324.841C1346.75 325.011 1346.14 327.549 1345.16 327.709C1344.15 327.87 1342.87 326.134 1341.89 326.265C1340.87 326.405 1339.87 326.365 1338.89 326.475C1338.26 326.546 1337.68 327.097 1337.1 327.539C1336.95 328.04 1336.83 328.522 1336.78 328.943C1336.66 329.916 1337.01 330.658 1337.15 331.611C1337.29 332.554 1337.44 333.466 1337.62 334.409C1337.8 335.352 1338.13 336.455 1338.13 337.428C1338.13 338.351 1335.72 338.832 1335.38 339.805C1335.07 340.678 1335.65 341.811 1335.2 342.614C1334.75 343.416 1333.74 343.767 1333.19 344.519C1332.65 345.261 1333.48 347.077 1332.88 347.789C1332.29 348.491 1331.92 349.444 1331.3 350.126C1330.68 350.808 1329.24 350.748 1328.63 351.44C1328.01 352.132 1327.57 352.964 1326.98 353.667C1326.34 354.429 1326.22 355.663 1325.57 356.395C1324.91 357.137 1323.52 357.227 1322.84 357.939C1322.16 358.661 1322.14 360.076 1321.44 360.758C1320.73 361.45 1320.15 362.363 1319.41 363.014C1318.66 363.666 1316.88 363.095 1316.1 363.696C1315.32 364.298 1315.46 366.244 1314.65 366.796C1313.84 367.347 1311.95 366.244 1311.09 366.746C1310.24 367.237 1309.39 367.658 1308.5 368.1C1307.62 368.531 1306.8 369.012 1305.88 369.383C1304.98 369.745 1304.05 369.975 1303.1 370.276C1302.17 370.567 1301.58 372.122 1300.6 372.352C1299.66 372.583 1298.39 371.319 1297.4 371.49C1296.37 371.66 1295.49 372.874 1294.47 372.954C1293.42 373.034 1292.37 372.463 1291.35 372.443C1290.3 372.412 1289.34 372.011 1288.33 371.871C1287.29 371.73 1286.1 372.453 1285.12 372.192C1284.1 371.921 1283.18 371.309 1282.24 370.918C1281.27 370.517 1280.02 370.557 1279.15 370.025C1278.26 369.484 1277.78 368.28 1277.01 367.598C1276.24 366.906 1274.92 366.615 1274.29 365.783C1273.67 364.97 1273.18 363.887 1272.73 362.934C1272.39 362.222 1271.98 361.48 1271.69 360.758C1270.95 361.129 1270.19 361.49 1269.44 361.831C1268.56 362.232 1267.55 362.423 1266.66 362.784C1265.76 363.155 1265.1 364.218 1264.18 364.549C1263.27 364.88 1262.36 365.382 1261.44 365.682C1260.52 365.973 1258.82 363.666 1257.89 363.927C1256.96 364.188 1256.28 365.321 1255.33 365.542C1254.39 365.763 1253.51 366.274 1252.56 366.465C1251.61 366.655 1250.52 365.963 1249.56 366.114C1248.61 366.264 1247.65 366.184 1246.69 366.304C1245.73 366.425 1244.96 368.29 1243.99 368.37C1243.03 368.461 1242.04 368.531 1241.07 368.581C1240.11 368.631 1239.13 369.183 1238.16 369.203C1237.39 369.223 1236.38 368.27 1235.24 368.29C1234.36 368.3 1233.38 366.675 1232.34 366.665C1231.42 366.665 1230.43 368.33 1229.43 368.31C1228.49 368.29 1227.55 367.357 1226.56 367.307C1225.6 367.267 1224.61 367.648 1223.64 367.568C1222.67 367.498 1221.67 367.799 1220.71 367.698C1219.73 367.588 1218.79 367.267 1217.85 367.117C1216.86 366.956 1215.67 367.769 1214.76 367.558C1213.76 367.317 1212.65 367.157 1211.81 366.846C1210.81 366.475 1209.74 365.833 1209.02 365.341C1208.12 364.73 1207.7 363.265 1207.36 362.433C1207.2 362.042 1207.2 361.58 1207.28 361.099C1206.98 361.43 1206.67 361.761 1206.41 362.162C1205.87 362.974 1205.61 363.967 1204.89 364.76C1204.23 365.492 1203.83 366.515 1203.05 367.237C1202.32 367.909 1201.37 368.37 1200.54 369.012C1199.75 369.624 1198.68 369.855 1197.82 370.447C1196.99 371.018 1197.23 373.295 1196.34 373.837C1195.48 374.368 1194.21 374.318 1193.31 374.82C1192.42 375.311 1191.09 375 1190.17 375.472C1189.26 375.933 1187.88 375.381 1186.95 375.823C1186.02 376.254 1185.66 377.899 1184.72 378.3C1183.78 378.701 1182.61 378.531 1181.66 378.902C1180.7 379.273 1180.17 380.777 1179.21 381.118C1178.24 381.459 1176.61 379.784 1175.64 380.095C1174.65 380.406 1174.17 382.312 1173.21 382.593C1172.2 382.874 1171.17 382.974 1170.2 383.205C1169.18 383.445 1168.4 384.89 1167.43 385.07C1166.39 385.271 1165.11 383.977 1164.14 384.107C1163.07 384.248 1162.05 384.047 1161.09 384.087C1159.98 384.137 1158.99 384.388 1158.07 384.298C1157.13 384.208 1155.8 385.632 1154.72 385.411C1153.76 385.211 1153.12 383.315 1152.08 383.024C1151.12 382.753 1149.62 383.957 1148.62 383.606C1147.67 383.275 1147.17 381.58 1146.2 381.179C1145.26 380.787 1143.85 381.369 1142.91 380.918C1141.98 380.477 1141.51 379.052 1140.61 378.561C1139.7 378.069 1139.31 376.735 1138.44 376.194C1137.56 375.642 1136.54 375.401 1135.72 374.81C1134.87 374.198 1134.28 373.375 1133.52 372.723C1132.72 372.031 1131.3 372.082 1130.62 371.349C1129.9 370.567 1128.51 370.246 1127.95 369.414C1127.71 369.052 1127.59 368.611 1127.51 368.15C1127.36 367.949 1127.2 367.769 1127.02 367.608C1126.25 366.916 1124.93 366.625 1124.3 365.793C1123.68 364.98 1123.19 363.897 1122.74 362.944C1122.4 362.232 1121.99 361.49 1121.7 360.768C1120.96 361.139 1120.2 361.5 1119.45 361.841C1118.57 362.242 1117.56 362.433 1116.67 362.794C1115.77 363.165 1115.11 364.228 1114.19 364.559C1113.28 364.89 1112.37 365.392 1111.45 365.692C1110.53 365.983 1108.83 363.676 1107.9 363.937C1106.97 364.198 1106.29 365.331 1105.34 365.552C1104.4 365.773 1103.52 366.284 1102.57 366.475C1101.62 366.665 1100.53 365.973 1099.57 366.124C1098.62 366.274 1097.66 366.194 1096.7 366.314C1095.74 366.435 1094.97 368.3 1094 368.38C1093.04 368.471 1092.05 368.541 1091.08 368.591C1090.12 368.641 1089.14 369.193 1088.17 369.213C1087.4 369.233 1086.39 368.28 1085.25 368.3C1084.37 368.31 1083.39 366.685 1082.35 366.675C1081.43 366.675 1080.44 368.34 1079.44 368.32C1078.5 368.3 1077.56 367.367 1076.57 367.317C1075.61 367.277 1074.62 367.658 1073.65 367.578C1072.68 367.508 1071.68 367.809 1070.72 367.708C1069.74 367.598 1068.8 367.277 1067.86 367.127C1066.87 366.966 1065.68 367.779 1064.77 367.568C1063.77 367.327 1062.66 367.167 1061.82 366.856C1060.82 366.485 1059.75 365.843 1059.03 365.351C1058.13 364.74 1057.71 363.275 1057.37 362.443C1057.21 362.052 1057.21 361.59 1057.29 361.109C1056.99 361.44 1056.68 361.771 1056.42 362.172C1055.88 362.984 1055.62 363.977 1054.9 364.77C1054.24 365.502 1053.84 366.525 1053.06 367.247C1052.33 367.919 1051.38 368.38 1050.55 369.022C1049.76 369.634 1048.69 369.865 1047.83 370.457C1047 371.028 1047.24 373.305 1046.35 373.847C1045.49 374.378 1044.22 374.328 1043.32 374.83C1042.43 375.321 1041.1 375.01 1040.18 375.482C1039.27 375.943 1037.89 375.391 1036.96 375.833C1036.03 376.264 1035.67 377.909 1034.73 378.31C1033.79 378.711 1032.62 378.541 1031.67 378.912C1030.71 379.283 1030.18 380.787 1029.22 381.128C1028.25 381.47 1026.62 379.794 1025.65 380.105C1024.66 380.416 1024.18 382.322 1023.22 382.603C1022.21 382.884 1021.18 382.984 1020.21 383.215C1019.19 383.455 1018.41 384.9 1017.44 385.08C1016.4 385.281 1015.12 383.987 1014.15 384.117C1013.08 384.258 1012.06 384.057 1011.1 384.097C1009.99 384.147 1009 384.398 1008.08 384.308C1007.14 384.218 1005.81 385.642 1004.73 385.421C1003.77 385.221 1003.13 383.325 1002.09 383.034C1001.13 382.763 999.627 383.967 998.627 383.616C997.677 383.285 997.177 381.59 996.207 381.189C995.267 380.798 993.857 381.379 992.917 380.928C991.987 380.487 991.517 379.062 990.617 378.571C989.707 378.079 989.317 376.745 988.447 376.204C987.567 375.652 986.547 375.411 985.727 374.82C984.877 374.208 984.287 373.385 983.527 372.733C982.727 372.041 981.307 372.092 980.627 371.359C979.907 370.577 978.517 370.256 977.957 369.424C977.357 368.541 977.527 367.137 977.157 366.204C976.767 365.221 978.067 364.027 977.977 363.014C977.887 362.001 976.897 361.189 977.147 360.146C977.377 359.203 977.977 358.481 978.527 357.528C978.607 357.388 978.667 357.227 978.727 357.067C977.907 357.097 977.057 356.916 976.277 357.067C975.287 357.267 974.727 359.674 973.757 359.855C972.757 360.046 971.487 358.661 970.517 358.832C969.517 359.013 968.647 359.825 967.667 359.975C966.667 360.146 965.487 359.023 964.517 359.173C963.507 359.323 962.687 360.657 961.717 360.788C960.707 360.918 959.577 359.735 958.597 359.825C957.587 359.925 956.777 362.413 955.797 362.473C954.777 362.543 953.677 360.688 952.697 360.708C951.677 360.728 950.707 360.577 949.737 360.557C948.717 360.527 947.637 361.791 946.657 361.701C945.637 361.61 944.707 360.828 943.737 360.657C942.727 360.487 941.867 359.845 940.917 359.594C939.937 359.323 939.367 358.18 938.457 357.809C937.517 357.428 935.437 359.454 934.567 358.962C933.697 358.471 933.057 357.327 932.267 356.716C931.487 356.114 930.217 355.793 929.507 355.061C928.827 354.359 928.757 352.924 928.147 352.102C927.567 351.32 927.307 350.236 926.787 349.344C926.297 348.501 925.317 347.839 924.887 346.886C924.487 346.004 924.597 344.83 924.247 343.857C923.917 342.945 922.597 342.273 922.307 341.27C922.037 340.337 923.517 338.892 923.287 337.889C923.227 337.599 923.087 337.328 922.937 337.057C922.217 336.375 921.817 334.409 920.997 334.158C920.037 333.857 918.357 335.472 917.437 335.061C916.517 334.65 915.307 334.489 914.437 333.968C913.577 333.456 913.397 331.761 912.597 331.139C911.817 330.518 912.047 328.873 911.337 328.14C910.887 327.679 909.587 327.92 908.567 327.93C907.827 328.642 906.487 329.364 906.397 330.156C906.277 331.169 907.217 332.343 907.007 333.406C906.797 334.429 907.547 335.723 907.277 336.756C907.007 337.779 906.527 338.792 906.217 339.785C905.887 340.818 903.597 341.139 903.247 342.102C902.857 343.155 904.907 345.121 904.517 346.014C904.047 347.127 902.297 347.548 901.887 348.321C901.417 349.213 902.127 350.918 901.567 351.711C900.987 352.523 899.877 353.095 899.207 353.807C898.537 354.539 898.067 355.673 897.327 356.314C896.577 356.956 895.537 357.438 894.737 357.999C893.937 358.571 892.127 357.628 891.277 358.14C890.437 358.651 889.777 359.454 888.907 359.915C888.037 360.377 887.787 362.092 886.897 362.533C886.007 362.964 885.217 363.646 884.327 364.068C883.437 364.489 882.087 363.937 881.197 364.358C880.357 364.76 878.737 363.546 877.827 363.957C876.967 364.348 877.157 367.267 876.247 367.638C875.367 367.999 874.447 368.471 873.537 368.812C872.637 369.153 871.377 368.621 870.457 368.922C869.537 369.223 868.037 367.548 867.107 367.809C866.167 368.07 865.687 370.025 864.747 370.236C863.787 370.447 862.827 370.758 861.887 370.888C860.907 371.028 859.917 371.771 858.977 371.811C857.977 371.851 856.857 371.781 855.927 371.68C854.927 371.58 854.417 369.303 853.517 369.022C852.517 368.711 850.497 370.447 849.637 369.875C848.787 369.303 848.397 367.879 847.637 367.157C846.897 366.445 845.497 366.274 844.797 365.522C844.087 364.76 845.007 362.463 844.297 361.741C843.557 360.988 841.857 361.36 841.057 360.758C840.217 360.126 839.767 358.982 838.807 358.641C837.667 358.25 836.567 359.023 835.617 358.952C834.487 358.872 833.347 357.307 832.347 357.538C831.327 357.769 830.527 358.912 829.477 359.253C828.527 359.574 827.447 359.574 826.347 359.835C825.387 360.066 824.347 359.504 823.197 359.594C822.277 359.664 821.327 360.698 820.207 360.637C819.247 360.587 818.117 361.169 817.057 361.018C816.077 360.878 814.957 360.958 813.927 360.738C812.947 360.527 812.527 357.949 811.517 357.668C810.537 357.398 809.347 357.989 808.367 357.668C807.397 357.337 806.297 357.398 805.347 357.007C804.397 356.615 802.837 357.468 801.927 357.007C800.997 356.545 801.137 354.108 800.267 353.586C799.377 353.045 798.467 352.694 797.657 352.092C796.817 351.46 795.797 351.159 795.087 350.467C794.337 349.725 793.267 349.273 792.697 348.461C792.087 347.608 790.817 346.936 790.447 346.004C790.067 345.051 791.427 343.596 791.337 342.563C791.277 341.871 790.517 341.099 790.147 340.327C789.407 340.126 788.647 339.835 788.107 340.066C787.157 340.477 786.527 341.57 785.607 341.962C784.657 342.363 783.467 342.122 782.547 342.493C781.587 342.874 781.087 344.409 780.157 344.75C779.187 345.111 777.637 343.717 776.697 344.028C775.717 344.359 774.867 344.88 773.917 345.151C772.917 345.442 772.467 347.739 771.497 347.97C770.487 348.2 769.337 347.849 768.357 348.01C767.327 348.17 766.227 347.398 765.237 347.468C764.207 347.538 763.257 347.117 762.267 347.077C761.237 347.037 760.327 347.077 759.337 346.906C758.337 346.736 756.967 348.03 756.007 347.719C755.047 347.408 753.857 347.257 752.947 346.786C752.057 346.335 751.667 344.86 750.807 344.258C749.997 343.687 748.967 343.316 748.187 342.604C747.467 341.942 748.107 339.956 747.407 339.163C746.857 338.541 745.447 338.642 744.637 338.17C744.347 338.17 744.077 338.19 743.817 338.281C742.867 338.622 742.507 340.648 741.547 340.939C740.587 341.229 739.247 340.076 738.267 340.307C737.287 340.547 736.287 340.307 735.297 340.487C734.297 340.668 733.527 341.901 732.527 342.022C731.517 342.142 730.537 342.122 729.547 342.172C728.537 342.222 727.537 343.055 726.547 343.025C725.537 342.995 724.507 342.824 723.517 342.714C722.507 342.604 721.307 343.326 720.337 343.125C719.347 342.924 718.857 340.728 717.897 340.427C716.937 340.126 715.317 341.53 714.397 341.129C713.477 340.718 712.267 340.537 711.407 340.026C710.547 339.514 710.297 337.9 709.507 337.268C708.727 336.646 708.417 335.502 707.707 334.77C707.167 334.219 706.267 333.968 705.597 333.506C705.257 334.369 703.847 335.252 703.737 336.215C703.617 337.228 704.397 338.391 704.187 339.464C703.977 340.487 704.667 341.771 704.397 342.804C704.127 343.827 702.427 344.459 702.107 345.452C701.777 346.485 703.137 348.1 702.787 349.063C702.397 350.116 699.907 350.286 699.517 351.179C699.047 352.292 699.557 353.707 699.147 354.479C698.677 355.372 698.667 356.615 698.107 357.408C697.527 358.22 696.617 358.882 695.957 359.604C695.287 360.336 695.087 361.721 694.337 362.362C693.587 363.004 691.517 362.021 690.707 362.583C689.907 363.155 689.587 364.459 688.737 364.97C687.897 365.472 686.647 365.261 685.777 365.733C684.907 366.194 683.617 365.773 682.727 366.204C681.837 366.635 681.847 368.922 680.957 369.343C680.067 369.765 678.387 368.531 677.497 368.952C676.657 369.353 676.657 371.67 675.747 372.081C674.887 372.473 673.747 372.312 672.827 372.693C671.947 373.054 670.817 372.844 669.897 373.195C668.997 373.536 668.407 374.82 667.487 375.121C666.567 375.421 665.537 375.492 664.617 375.752C663.677 376.013 662.547 375.532 661.617 375.732C660.657 375.943 659.727 376.184 658.787 376.314C657.807 376.455 656.887 377.437 655.947 377.468C654.947 377.508 654.067 375.682 653.137 375.582C652.137 375.482 650.917 376.886 650.027 376.605C649.027 376.294 648.197 375.431 647.337 374.86C646.487 374.288 645.527 373.777 644.777 373.054C644.037 372.342 643.997 370.938 643.297 370.176C642.587 369.414 642.297 368.22 641.587 367.498C640.847 366.746 639.317 366.786 638.517 366.184C637.677 365.552 637.117 364.017 636.147 363.686C635.007 363.295 633.637 363.977 632.687 363.917C631.557 363.837 630.427 363.717 629.427 363.947C628.407 364.178 627.427 364.659 626.387 365C625.437 365.321 624.307 365 623.207 365.271C622.257 365.502 621.427 366.555 620.277 366.645C619.357 366.715 618.277 367.628 617.167 367.568C616.207 367.518 615.047 367.849 613.977 367.698C612.997 367.558 612.137 366.224 611.097 366.013C610.117 365.803 608.997 365.943 607.997 365.672C607.017 365.402 606.047 364.97 605.067 364.639C604.097 364.308 603.107 363.947 602.157 363.556C601.207 363.165 600.247 362.704 599.337 362.252C598.407 361.791 598.017 360.377 597.147 359.855C596.257 359.313 595.597 358.581 594.797 357.979C593.957 357.348 592.467 357.568 591.757 356.866C591.007 356.124 591.337 354.579 590.757 353.767C590.147 352.914 589.557 352.302 589.187 351.37C588.807 350.417 586.697 349.815 586.597 348.782C586.517 347.949 586.757 346.906 586.957 345.964C586.277 345.883 585.567 345.743 585.037 345.964C584.087 346.375 584.067 348.922 583.147 349.304C582.197 349.705 580.317 347.799 579.397 348.17C578.437 348.551 578.317 351.079 577.387 351.43C576.417 351.791 574.907 350.587 573.967 350.898C572.987 351.229 572.407 352.814 571.447 353.085C570.447 353.376 569.037 351.931 568.067 352.152C567.057 352.383 566.077 352.262 565.097 352.423C564.067 352.583 563.277 354.238 562.287 354.308C561.257 354.379 560.167 355.422 559.167 355.382C558.137 355.342 557.037 354.75 556.047 354.579C555.047 354.409 553.837 354.439 552.877 354.118C551.917 353.807 551.837 351.34 550.917 350.868C550.027 350.417 547.927 351.931 547.077 351.33C546.267 350.758 546.957 348.25 546.187 347.538C545.617 347.017 544.257 347.267 543.357 347.007C542.577 347.468 541.607 347.608 540.837 348.11C539.977 348.662 539.277 349.354 538.347 349.825C537.437 350.286 536.487 350.477 535.517 350.848C534.567 351.209 533.887 352.323 532.877 352.583C531.907 352.834 530.977 353.576 529.937 353.737C528.887 353.897 527.727 352.222 526.687 352.242C525.627 352.262 524.597 353.436 523.567 353.305C522.517 353.175 521.727 352.092 520.717 351.811C519.697 351.53 518.947 350.999 517.997 350.567C517.037 350.126 515.487 350.878 514.627 350.276C513.767 349.675 512.677 349.213 511.927 348.461C511.197 347.719 509.797 347.267 509.197 346.385C508.617 345.532 508.067 344.349 507.627 343.366C507.197 342.393 509.087 340.658 508.867 339.715C508.797 339.394 508.687 339.103 508.577 338.822C508.317 338.862 508.067 338.923 507.857 339.043C506.977 339.554 505.777 339.344 504.877 339.795C503.967 340.257 503.297 341.049 502.367 341.45C501.437 341.851 501.107 343.757 500.157 344.108C499.207 344.459 498.347 345.261 497.377 345.562C496.407 345.853 494.857 344.028 493.867 344.269C492.887 344.509 492.167 345.913 491.167 346.094C490.177 346.274 489.187 346.626 488.177 346.756C487.177 346.886 485.997 345.221 484.987 345.302C483.977 345.382 483.077 346.766 482.057 346.796C481.047 346.826 480.047 346.154 479.027 346.134C478.247 346.124 477.197 346.726 475.977 346.696C475.047 346.666 473.947 347.98 472.857 347.919C471.887 347.869 470.817 347.919 469.767 347.819C468.767 347.739 467.957 345.522 466.937 345.392C465.927 345.261 464.827 345.783 463.837 345.602C462.817 345.422 461.507 346.425 460.557 346.184C459.527 345.923 458.937 344.218 458.037 343.877C457.017 343.486 455.787 343.617 455.007 343.095C454.067 342.473 453.587 341.42 453.147 340.588C452.917 340.166 452.707 339.705 452.577 339.223C452.557 339.665 452.507 340.106 452.297 340.487C451.837 341.32 450.187 341.29 449.557 342.102C448.967 342.854 449.537 344.579 448.827 345.312C448.157 346.004 447.017 346.214 446.257 346.876C445.527 347.508 445.297 348.812 444.487 349.414C443.707 349.996 442.147 349.464 441.317 350.016C440.497 350.557 440.247 351.992 439.387 352.493C438.537 352.984 437.137 352.463 436.267 352.924C435.397 353.386 435.317 355.462 434.427 355.883C433.527 356.304 432.377 356.214 431.477 356.585C430.557 356.966 429.877 358.02 428.967 358.361C428.027 358.712 426.317 356.746 425.397 357.037C424.437 357.337 423.517 357.468 422.587 357.719C421.607 357.979 421.047 359.775 420.117 359.965C419.117 360.166 418.287 361.56 417.347 361.68C416.307 361.811 415.127 359.444 414.197 359.464C413.127 359.484 412.347 359.263 411.467 359.133C410.557 358.992 409.137 360.758 408.067 360.447C407.137 360.176 406.787 358.06 405.777 357.668C404.857 357.307 403.477 357.999 402.517 357.548C401.607 357.127 401.027 356.034 400.107 355.532C399.217 355.051 397.757 355.532 396.877 354.98C396.007 354.439 394.737 354.399 393.907 353.797C393.067 353.195 392.877 351.681 392.087 351.039C391.287 350.377 390.027 350.186 389.307 349.474C388.557 348.742 388.597 347.267 387.947 346.495C387.277 345.693 387.497 344.359 386.967 343.516C386.397 342.624 386.147 341.851 385.767 340.929C385.367 339.956 383.997 339.454 383.847 338.451C383.697 337.438 383.377 336.415 383.517 335.382C383.637 334.479 383.437 333.336 383.737 332.393C383.087 332.594 382.447 332.824 381.797 332.945C380.777 333.135 379.707 332.864 378.727 333.025C377.707 333.195 376.617 332.674 375.627 332.824C374.607 332.975 373.847 334.79 372.857 334.911C371.827 335.041 370.777 334.79 369.787 334.88C368.757 334.971 367.817 336.505 366.827 336.556C365.787 336.606 364.707 335.974 363.707 335.964C362.667 335.964 361.547 336.666 360.557 336.596C359.677 336.535 358.767 336.255 357.907 336.064C357.527 336.897 357.647 338.11 357.137 338.832C356.537 339.685 355.717 340.357 355.107 341.169C354.477 342.002 353.097 342.162 352.447 342.945C351.777 343.737 351.557 344.85 350.857 345.592C350.147 346.345 349.727 347.338 348.977 348.03C348.217 348.732 347.397 349.314 346.587 349.945C345.777 350.577 344.707 350.758 343.847 351.31C342.987 351.861 342.977 353.947 342.057 354.409C341.147 354.87 339.537 353.787 338.567 354.148C337.617 354.509 336.637 354.519 335.627 354.78C334.657 355.031 334.077 357.358 333.037 357.518C331.987 357.679 330.747 356.355 329.707 356.375C328.647 356.395 327.667 356.034 326.627 355.913C325.577 355.783 324.667 355.432 323.667 355.151C322.647 354.87 321.487 355.171 320.537 354.73C319.577 354.288 318.177 354.499 317.307 353.897C316.447 353.295 315.687 352.363 314.947 351.61C314.217 350.868 313.867 349.705 313.267 348.822C312.687 347.97 311.377 347.388 310.937 346.395C310.627 345.703 310.307 344.93 310.057 344.198C309.517 344.178 308.987 344.168 308.587 344.369C307.677 344.83 306.937 345.703 306.007 346.114C305.077 346.515 303.807 346.114 302.857 346.465C301.907 346.816 300.747 346.465 299.777 346.766C298.807 347.057 297.847 347.217 296.867 347.448C295.887 347.689 295.297 349.825 294.297 350.006C293.297 350.186 292.307 350.838 291.307 350.969C290.307 351.099 289.187 350.818 288.177 350.898C287.167 350.979 286.107 351.32 285.097 351.36C284.087 351.39 283.027 349.955 282.007 349.935C281.227 349.925 280.177 350.286 278.957 350.246C278.027 350.216 277.067 348.842 275.967 348.782C274.997 348.732 273.977 348.973 272.927 348.882C271.927 348.802 270.907 348.922 269.887 348.792C268.877 348.662 267.797 349.053 266.797 348.872C265.777 348.692 264.997 347.598 264.037 347.348C263.007 347.087 261.837 347.568 260.937 347.227C259.917 346.836 258.547 347.077 257.777 346.565C256.837 345.944 257.777 343.917 257.337 343.085C257.187 342.794 256.757 342.533 256.277 342.273C255.577 342.543 254.847 342.804 254.587 343.255C254.127 344.088 253.327 344.569 252.697 345.382C252.107 346.134 252.827 348.04 252.117 348.772C251.447 349.464 250.227 349.645 249.457 350.296C248.727 350.928 247.537 350.979 246.727 351.58C245.947 352.162 245.447 353.115 244.607 353.667C243.787 354.208 243.427 355.522 242.567 356.024C241.717 356.515 240.087 355.602 239.217 356.064C238.347 356.525 238.067 358.17 237.177 358.581C236.277 359.002 235.497 359.745 234.597 360.116C233.677 360.497 232.827 361.149 231.917 361.48C230.977 361.831 229.487 360.547 228.567 360.838C227.607 361.139 226.677 361.37 225.747 361.61C224.767 361.871 223.757 361.68 222.827 361.871C221.827 362.072 221.097 363.586 220.167 363.707C219.127 363.837 218.137 364.669 217.207 364.689C216.137 364.71 215.347 362.192 214.457 362.052C213.547 361.911 212.447 362.663 211.377 362.342C210.447 362.072 208.957 363.185 207.957 362.794C207.037 362.433 206.647 360.667 205.687 360.216C204.777 359.795 203.967 359.173 203.057 358.671C202.167 358.19 201.157 357.929 200.277 357.388C199.407 356.846 198.387 356.545 197.557 355.943C196.717 355.342 195.407 355.332 194.617 354.68C193.817 354.018 193.447 352.824 192.727 352.122C191.977 351.39 192.347 349.725 191.707 348.952C191.037 348.15 190.317 347.588 189.777 346.746C189.207 345.853 188.357 345.292 187.977 344.369C187.577 343.396 185.447 342.814 185.297 341.821C185.147 340.808 186.457 339.564 186.597 338.541C186.727 337.558 187.927 336.977 188.367 335.994C188.467 335.763 188.487 335.432 188.467 335.051C188.217 335.161 187.967 335.262 187.707 335.302C186.697 335.492 185.667 335.482 184.687 335.663C183.667 335.853 182.847 337.027 181.857 337.197C180.837 337.368 179.857 337.719 178.877 337.869C177.857 338.02 176.797 337.809 175.807 337.93C174.777 338.06 173.707 337.569 172.717 337.659C171.887 337.739 171.067 337.328 170.257 337.187C169.457 337.619 168.727 338.18 167.907 338.572C167.017 338.993 165.397 337.889 164.507 338.311C163.667 338.712 163.017 339.585 162.107 339.996C161.247 340.387 160.687 341.54 159.777 341.922C158.897 342.283 158.137 343.075 157.227 343.416C156.327 343.757 155.097 343.215 154.177 343.526C153.257 343.837 152.307 343.998 151.377 344.258C150.437 344.519 149.447 344.459 148.517 344.66C147.557 344.87 146.547 344.329 145.607 344.459C144.627 344.6 143.867 346.646 142.927 346.676C141.927 346.716 140.877 346.646 139.947 346.545C138.947 346.445 138.457 344.409 137.567 344.128C136.567 343.817 135.097 344.85 134.237 344.279C133.387 343.707 133.737 341.771 132.987 341.049C132.247 340.337 131.347 339.885 130.647 339.123C129.937 338.361 129.107 337.679 128.397 336.947C127.657 336.194 126.857 335.322 126.057 334.72C125.217 334.088 124.087 333.356 123.117 333.025C121.977 332.634 120.717 331.932 119.767 331.862C118.637 331.781 117.207 332.042 116.207 332.263C115.187 332.493 114.317 333.617 113.277 333.968C112.327 334.289 111.407 334.72 110.297 334.981C109.337 335.211 108.437 336.114 107.287 336.204C106.367 336.275 105.267 336.816 104.157 336.756C103.197 336.706 102.397 334.479 101.337 334.329C100.357 334.188 99.2567 334.86 98.2167 334.64C97.2367 334.429 96.2267 334.339 95.2167 334.058C94.2367 333.787 92.9867 334.349 92.0067 334.018C91.0367 333.687 90.6866 331.751 89.7367 331.36C88.7867 330.969 86.8567 332.734 85.9467 332.283C85.0166 331.821 83.9767 331.36 83.1067 330.838C82.2167 330.297 81.7367 328.983 80.9366 328.381C80.0967 327.749 78.6466 327.669 77.9366 326.967C77.1866 326.225 77.4567 324.459 76.8867 323.647C76.2767 322.794 75.0468 322.173 74.6768 321.24C74.2968 320.287 75.1067 318.953 75.0067 317.92C74.9567 317.368 74.9067 316.827 74.8967 316.275C73.9368 315.944 72.7267 315.051 72.0566 315.342C71.1067 315.753 70.7467 317.479 69.8167 317.87C68.8667 318.271 68.1667 319.284 67.2367 319.655C66.2767 320.036 64.7467 318.893 63.8167 319.244C62.8467 319.605 61.8367 319.735 60.8967 320.056C59.9167 320.387 58.7666 319.966 57.8066 320.237C56.8066 320.528 56.3867 322.885 55.4167 323.105C54.4067 323.336 53.0067 321.34 52.0267 321.491C50.9967 321.651 50.2567 323.757 49.2667 323.818C48.5967 323.868 47.9368 323.095 47.2867 322.544C46.5768 322.915 45.3767 322.764 44.6667 323.156C44.4768 323.366 44.2866 323.577 44.0967 323.767C43.7067 324.53 43.6367 325.683 42.9967 326.185C41.8367 327.168 42.5568 328.06 41.3767 329.013C40.1967 329.966 38.7067 328.17 37.5667 329.173C36.4266 330.166 37.4567 331.36 36.3167 332.353C35.1766 333.346 35.6667 333.918 34.5267 334.911C33.3867 335.904 32.9767 335.432 31.8367 336.425C30.6967 337.418 29.9967 336.606 28.8567 337.599C27.7167 338.592 27.9467 338.852 26.8066 339.845C25.6666 340.838 24.8967 339.946 23.7567 340.949C22.6167 341.942 23.2667 342.694 22.1367 343.687C20.9967 344.68 21.4667 345.221 20.3267 346.214C19.1866 347.207 18.9067 346.876 17.7667 347.879C16.6267 348.872 17.4067 349.243 16.6567 350.557C17.1768 351.641 17.5967 351.039 18.2667 351.791C19.0267 352.644 19.5167 353.376 20.3567 354.028C21.2367 354.7 20.8468 356.916 21.6768 357.618C22.4868 358.3 22.9467 358.922 23.5967 359.865C24.1567 360.677 24.6467 360.647 24.9967 361.821C24.1067 362.302 23.4567 362.403 22.8567 363.075C22.2167 363.787 22.0767 365.091 21.6167 365.913C21.1667 366.736 22.6267 368.581 22.2067 369.424C21.7866 370.266 19.2068 369.845 18.6567 370.617C18.1167 371.369 18.7467 373.275 17.9567 373.867C17.1267 374.479 15.6567 374.077 14.7667 374.519C13.8567 374.97 12.9867 375.411 12.0367 375.742C11.0868 376.073 10.2167 376.655 9.23669 376.916C8.26672 377.177 7.25671 377.307 6.27673 377.558C5.29675 377.809 4.17664 377.568 3.21667 377.859C2.21667 378.16 1.48669 379.343 0.496704 379.604C-0.503296 379.865 -1.79333 378.852 -2.78333 379.062C-3.80334 379.273 -4.69324 379.905 -5.70325 380.065C-6.73328 380.216 -7.77332 379.664 -8.79333 379.744C-9.82336 379.825 -10.7733 382.111 -11.7933 382.101C-12.8234 382.101 -13.9332 381.72 -14.9532 381.62C-15.9733 381.52 -16.7133 379.564 -17.7333 379.363C-18.7333 379.163 -19.6233 378.922 -20.6133 378.601C-21.5732 378.3 -22.2733 377.588 -23.2333 377.167C-24.1533 376.765 -25.3833 377.147 -26.3033 376.625C-27.2334 376.103 -28.7034 376.424 -29.5433 375.803C-30.3933 375.161 -31.6133 374.78 -32.3433 374.037C-33.0732 373.295 -32.0433 370.998 -32.6633 370.156C-33.2933 369.303 -35.9534 369.704 -36.4233 368.772C-36.9033 367.829 -34.8232 365.853 -35.1333 364.84C-35.4434 363.837 -37.1633 363.235 -37.2833 362.182C-37.4033 361.149 -36.6532 360.116 -36.5732 359.053C-36.5033 358.02 -38.2933 356.595 -38.0233 355.552C-37.7733 354.579 -37.2533 353.516 -36.8533 352.654C-37.2133 352.082 -37.5734 351.55 -38.0133 351.46C-39.0133 351.259 -39.9833 351.209 -40.9633 350.958C-41.9432 350.698 -42.8633 350.397 -43.8333 350.076C-44.8032 349.755 -45.6333 349.233 -46.5732 348.862C-47.5132 348.491 -48.9532 349.344 -49.8833 348.912C-50.8033 348.491 -51.1433 346.916 -52.0533 346.445C-52.9534 345.974 -54.3633 346.465 -55.2433 345.944C-56.1133 345.422 -57.6733 345.923 -58.5233 345.362C-59.3633 344.8 -59.2234 342.764 -60.0433 342.162C-60.8534 341.56 -61.5732 340.858 -62.3733 340.216C-62.9833 339.725 -63.7134 338.983 -64.6533 338.21C-65.3633 337.619 -66.1934 337.017 -67.0133 336.295C-67.7433 335.653 -69.5732 336.124 -70.3433 335.402C-71.0732 334.72 -71.7933 333.928 -72.5133 333.195C-73.2333 332.473 -73.6832 331.42 -74.3533 330.668C-75.0432 329.896 -74.2133 327.9 -74.8232 327.117C-75.4733 326.275 -77.6433 326.556 -78.1333 325.723C-78.6934 324.78 -78.6932 323.547 -78.9833 322.664C-79.3333 321.591 -79.6733 320.478 -79.5133 319.545C-79.3433 318.582 -78.0133 318.361 -77.1433 317.629C-76.6633 317.228 -76.0732 316.195 -75.3533 315.493C-76.1832 315.894 -77.2633 316.205 -77.8333 316.596C-78.6233 317.138 -79.2633 317.509 -80.2032 317.9C-81.0833 318.271 -81.4133 320.267 -82.4033 320.518C-83.3334 320.748 -84.5133 319.826 -85.5233 319.956C-86.4733 320.086 -87.3533 321.491 -88.3633 321.531C-89.3232 321.571 -90.3433 320.568 -91.3533 320.538C-92.3232 320.508 -93.2733 320.137 -94.2633 320.046C-95.2333 319.966 -96.1033 319.204 -97.0833 319.073C-98.0532 318.943 -99.3733 320.899 -100.343 320.718C-101.313 320.538 -102.343 320.407 -103.303 320.187C-104.263 319.966 -105.163 319.334 -106.103 319.073C-107.063 318.803 -107.533 316.977 -108.463 316.676C-109.413 316.365 -110.813 317.418 -111.723 317.077C-112.663 316.726 -113.413 315.894 -114.293 315.513C-115.223 315.112 -115.583 313.627 -116.433 313.196C-117.353 312.734 -119.003 313.747 -119.813 313.266C-120.713 312.724 -121.313 311.792 -122.043 311.24C-122.903 310.598 -124.553 310.769 -125.163 310.117C-125.793 309.445 -124.683 307.168 -125.323 306.255C-125.883 305.463 -126.843 304.931 -127.393 304.008C-127.893 303.156 -129.393 302.795 -129.863 301.842C-130.313 300.949 -129.473 299.415 -129.893 298.452C-130.293 297.519 -131.123 296.767 -131.473 295.794C-131.823 294.831 -132.303 293.918 -132.593 292.925C-132.883 291.932 -133.243 290.97 -133.463 289.967C-133.683 288.953 -134.463 288.021 -134.603 287.008C-134.743 285.975 -132.883 284.821 -132.913 283.808C-132.943 282.755 -134.843 281.712 -134.743 280.719C-134.643 279.666 -133.713 278.753 -133.443 277.8C-133.153 276.787 -133.143 275.674 -132.643 274.791C-132.143 273.899 -131.853 272.635 -131.103 271.913C-130.623 271.441 -129.683 271.572 -128.833 271.542C-129.443 270.9 -129.813 269.816 -130.533 269.435C-131.443 268.954 -133.033 269.756 -133.913 269.275C-134.823 268.783 -135.593 268.031 -136.453 267.54C-137.353 267.028 -137.793 265.734 -138.643 265.223C-139.533 264.691 -140.133 263.748 -140.973 263.207C-141.843 262.645 -142.223 261.451 -143.033 260.87C-143.883 260.268 -145.033 260.198 -145.813 259.576C-146.623 258.924 -148.223 259.225 -148.953 258.553C-149.723 257.851 -150.623 257.219 -151.303 256.487C-152.003 255.724 -152.013 254.34 -152.603 253.538C-153.213 252.705 -154.643 252.334 -155.133 251.452C-155.623 250.559 -155.333 249.205 -155.693 248.252C-156.043 247.309 -156.243 246.286 -156.453 245.273C-156.663 244.3 -156.893 243.287 -156.963 242.244C-157.023 241.261 -158.063 240.148 -157.993 239.095C-157.933 238.112 -157.003 237.109 -156.823 236.066L-156.773 236.046ZM160.977 180.38C161.187 180.841 161.367 181.302 161.387 181.774C161.407 182.376 160.967 183.178 160.617 183.94C161.007 183.238 161.527 182.526 161.577 181.974C161.627 181.463 161.287 180.911 160.967 180.37L160.977 180.38ZM338.257 117.161C337.907 117.883 337.227 118.625 337.257 119.348C337.297 120.33 338.407 122.597 338.367 123.63C338.277 122.567 339.187 120.31 339.267 119.398C339.327 118.736 338.677 117.903 338.257 117.161ZM746.027 258.132C745.847 258.683 745.547 259.235 745.367 259.786C745.927 259.325 746.417 258.884 747.077 258.543C747.137 258.513 747.197 258.473 747.257 258.432C747.197 258.382 747.137 258.322 747.077 258.292C746.777 258.152 746.407 258.132 746.027 258.142V258.132ZM829.747 144.633C829.557 144.964 829.417 145.295 829.387 145.646C829.337 146.488 828.997 146.819 828.937 147.612C829.097 147.12 830.037 147.04 830.127 146.408C830.187 145.987 829.917 145.285 829.747 144.633ZM1148.17 177.962C1148.2 178.253 1148.16 178.564 1148.11 178.885C1148.15 178.755 1148.19 178.614 1148.2 178.464C1148.22 178.303 1148.2 178.133 1148.16 177.962H1148.17ZM1356.66 69.6292C1356.66 69.7696 1356.67 69.9201 1356.68 70.0605C1356.7 70.6422 1356.3 71.1638 1355.96 71.6954C1356.32 71.234 1356.77 70.8027 1356.82 70.2811C1356.84 70.0705 1356.77 69.8498 1356.66 69.6292ZM1502.89 60.6925C1502.8 61.535 1503.34 62.8791 1503.41 63.8921C1503.4 62.859 1503.24 61.525 1503.37 60.7527C1503.41 60.4819 1503.43 60.2111 1503.44 59.9303C1503.14 60.171 1502.92 60.4318 1502.89 60.7026V60.6925ZM982.517 356.104C982.827 356.174 983.127 356.134 983.427 356.074C983.067 356.004 982.717 355.963 982.337 356.034C982.397 356.054 982.457 356.084 982.517 356.104Z" fill="#FDFDFD"/>
</svg>
