<svg preserveAspectRatio="none" width="100%" height="100%" overflow="visible" style="display: block;" viewBox="0 0 484 77" fill="none" xmlns="http://www.w3.org/2000/svg">
<path id="Vector" d="M483.659 47.1547C483.612 46.9624 483.486 46.768 483.411 46.5636C483.341 46.3733 483.495 46.1188 483.4 45.9184C483.311 45.7321 482.89 45.6219 482.778 45.4275C482.675 45.2452 482.335 45.135 482.212 44.9447C482.095 44.7663 482.187 44.5119 482.054 44.3255C481.928 44.1492 481.923 43.9188 481.78 43.7364C481.644 43.5641 481.34 43.4559 481.19 43.2756C481.047 43.1053 480.824 42.971 480.671 42.8007C480.521 42.6344 480.696 42.3058 480.535 42.1395C480.376 41.9752 480.27 41.7749 480.103 41.6126C479.938 41.4523 479.425 41.4783 479.25 41.32C479.077 41.1637 479.152 40.8572 478.971 40.7029C478.79 40.5506 478.4 40.5266 478.21 40.3783C478.135 40.3182 478.037 40.2721 477.937 40.23C477.956 40.0677 477.881 39.8754 477.965 39.7231C478.065 39.5428 478.408 39.4286 478.505 39.2362C478.603 39.0479 479.127 38.9617 479.219 38.7673C479.308 38.577 479.381 38.3726 479.464 38.1763C479.545 37.9839 479.662 37.7875 479.735 37.5892C479.807 37.3948 479.395 37.1043 479.459 36.9059C479.526 36.7096 479.955 36.5673 480.013 36.3689C480.072 36.1706 479.723 35.9141 479.774 35.7137C479.824 35.5134 480.086 35.3391 480.125 35.1367C480.164 34.9363 480.278 34.738 480.309 34.5356C480.339 34.3332 480.512 34.1348 480.535 33.9325C480.557 33.7301 479.924 33.5017 479.935 33.2973C479.946 33.0949 480.019 32.9006 480.016 32.6982C480.016 32.4938 480.599 32.2815 480.587 32.0791C480.576 31.8747 479.835 31.7084 479.81 31.506C479.785 31.3037 480.128 31.0772 480.089 30.8769C480.05 30.6745 480.144 30.4561 480.091 30.2577C480.038 30.0574 479.718 29.9011 479.651 29.7047C479.581 29.5064 479.548 29.308 479.464 29.1157C479.381 28.9213 479.623 28.6428 479.52 28.4524C479.42 28.2621 479.071 28.1399 478.954 27.9575C478.846 27.7912 478.558 27.685 478.419 27.5087C478.291 27.3444 477.99 27.2663 477.837 27.1C477.692 26.9397 477.945 26.581 477.781 26.4247C477.619 26.2704 477.321 26.1943 477.143 26.05C476.964 25.9038 476.632 25.8797 476.437 25.7475C476.239 25.6132 476.12 25.4409 475.908 25.3247C475.788 25.2586 475.704 25.1604 475.615 25.0682C475.827 24.944 475.866 24.7316 476.014 24.5573C476.156 24.391 476.164 24.2167 476.251 24.0123C476.329 23.826 476.747 23.6917 476.786 23.4813C476.819 23.287 476.736 23.0726 476.741 22.8622C476.744 22.6638 476.883 22.4534 476.864 22.2451C476.844 22.0467 476.619 21.8543 476.58 21.648C476.543 21.4476 476.931 21.1931 476.881 20.9888C476.83 20.7904 476.128 20.6822 476.067 20.4818C476.005 20.2835 476.554 19.9729 476.482 19.7785C476.409 19.5802 476.309 19.3778 476.228 19.1855C476.145 18.9871 476.069 18.7807 475.98 18.5924C475.885 18.394 475.584 18.2497 475.487 18.0654C475.381 17.867 474.985 17.7628 474.879 17.5845C474.759 17.3842 474.587 17.2239 474.472 17.0555C474.333 16.8492 474.191 16.6889 474.063 16.5386C473.921 16.3703 473.834 16.1799 473.67 16.0096C473.511 15.8473 473.692 15.4927 473.514 15.3324C473.341 15.1761 472.976 15.124 472.783 14.9717C472.597 14.8235 472.647 14.4929 472.446 14.3506C472.245 14.2083 471.749 14.2825 471.537 14.1502C471.326 14.018 471.328 13.6814 471.105 13.5591C470.882 13.4349 470.531 13.4149 470.3 13.3047C470.063 13.1925 469.703 13.2225 469.458 13.1263C469.21 13.0282 468.853 13.1163 468.6 13.0362C468.338 12.954 468.095 12.916 467.83 12.8579C467.56 12.7977 467.337 12.7276 467.061 12.6916C466.783 12.6555 466.568 12.2027 466.289 12.1966C466.008 12.1906 465.698 12.2988 465.42 12.3249C465.144 12.3509 464.901 12.5293 464.628 12.5894C464.366 12.6475 463.94 12.4812 463.683 12.5753C463.441 12.6635 463.516 13.1464 463.279 13.2686C463.059 13.3828 462.646 13.3247 462.432 13.469C462.237 13.6032 462.033 13.8978 461.844 14.0581C461.838 13.8557 461.635 13.5571 461.604 13.3628C461.573 13.1624 461.871 12.93 461.816 12.7376C461.757 12.5413 461.381 12.411 461.3 12.2207C461.219 12.0303 461.615 11.7098 461.512 11.5274C461.406 11.3431 460.754 11.3411 460.626 11.1668C460.497 10.9904 460.921 10.5797 460.771 10.4114C460.62 10.2451 460.196 10.199 460.026 10.0407C459.859 9.88441 459.357 9.9345 459.171 9.78623C458.987 9.63996 459.081 9.30935 458.881 9.1711C458.683 9.03285 458.569 8.82246 458.354 8.69222C458.145 8.56399 457.978 8.37965 457.755 8.25943C457.535 8.14121 456.919 8.43375 456.685 8.32355C456.456 8.21535 456.35 7.98092 456.11 7.88073C455.873 7.78055 455.723 7.57217 455.475 7.482C455.23 7.39184 455.051 7.19748 454.798 7.11333C454.547 7.03118 454.098 7.28965 453.839 7.21552C453.582 7.14138 453.449 6.85085 453.187 6.78473C452.927 6.71861 452.677 6.62844 452.412 6.57033C452.147 6.51223 451.813 6.64647 451.545 6.59638C451.277 6.54629 451.13 6.13153 450.859 6.08945C450.589 6.04737 450.26 6.19765 449.987 6.16359C449.714 6.12953 449.407 6.27379 449.134 6.24774C448.861 6.22169 448.613 6.04938 448.34 6.03135C448.064 6.01331 447.802 5.82296 447.526 5.81495C447.25 5.80493 446.966 5.68471 446.69 5.68271C446.414 5.68271 446.141 6.12351 445.865 6.12953C445.586 6.13554 445.329 6.23171 445.056 6.24574C444.78 6.26177 444.46 5.92515 444.187 5.94919C443.911 5.97324 443.699 6.29182 443.429 6.32388C443.155 6.35794 442.788 6.05339 442.52 6.09747C442.25 6.14155 442.041 6.37197 441.776 6.42607C441.508 6.48017 441.168 6.38199 440.909 6.44611C440.647 6.51223 440.522 6.83482 440.268 6.91096C440.011 6.9891 439.621 6.85285 439.376 6.94101C439.128 7.03118 438.819 7.06123 438.582 7.16142C438.342 7.2636 438.125 7.40987 437.899 7.52408C437.67 7.63829 437.319 7.66234 437.104 7.79057C436.893 7.91881 436.745 8.12919 436.547 8.26945C436.349 8.4097 436.084 8.53193 435.906 8.68421C435.728 8.83649 435.652 9.06891 435.493 9.23321C435.337 9.39551 435.549 9.72612 435.413 9.90044C435.279 10.0728 435.061 10.205 434.947 10.3893C434.836 10.5677 434.699 10.738 434.607 10.9283C434.518 11.1127 434.326 11.279 434.256 11.4753C434.189 11.6657 434.122 11.862 434.075 12.0624C434.047 12.1786 433.963 12.2948 433.896 12.413C433.807 12.2968 433.698 12.1866 433.612 12.0824C433.467 11.9081 433.381 11.6617 433.18 11.5254C432.982 11.3892 432.564 11.4312 432.319 11.3271C432.085 11.2289 431.957 10.9163 431.689 10.8462C431.435 10.78 431.053 10.9764 430.772 10.9323C430.507 10.8923 430.29 10.5196 430.008 10.4975C429.738 10.4755 429.412 10.8141 429.13 10.8101C428.854 10.8041 428.564 10.4715 428.283 10.4795C428.007 10.4875 427.714 10.5576 427.436 10.5757C427.16 10.5937 426.887 10.7159 426.611 10.744C426.335 10.772 426.092 10.9604 425.819 10.9964C425.543 11.0325 425.189 10.8101 424.922 10.8542C424.646 10.8983 424.476 11.2549 424.214 11.305C423.938 11.3591 423.534 11.0866 423.274 11.1447C422.998 11.2068 422.909 11.6536 422.658 11.7198C422.38 11.7919 422.212 11.9963 421.973 12.0684C421.688 12.1566 421.117 11.7739 420.905 11.858C420.666 11.9542 420.585 12.2568 420.353 12.3629C420.122 12.4691 420.108 12.7937 419.885 12.91C419.662 13.0262 419.007 12.7316 418.793 12.8559C418.578 12.9801 418.692 13.3848 418.486 13.5171C418.283 13.6493 417.809 13.5752 417.611 13.7154C417.416 13.8537 417.65 14.2925 417.463 14.4368C417.276 14.581 416.755 14.5069 416.577 14.6572C416.398 14.8074 416.63 15.1921 416.457 15.3484C416.287 15.5027 416.083 15.6269 415.922 15.7872C415.76 15.9455 415.378 15.9876 415.222 16.1519C415.069 16.3142 415.049 16.5386 414.902 16.7049C414.754 16.8712 414.155 16.8392 414.015 17.0095C413.876 17.1798 413.893 17.4182 413.759 17.5925C413.625 17.7648 413.494 17.9412 413.369 18.1175C413.243 18.2938 413.388 18.5663 413.268 18.7426C413.149 18.921 412.705 18.9911 412.594 19.1694C412.48 19.3498 412.633 19.6142 412.527 19.7966C412.418 19.9789 412.304 20.1572 412.204 20.3396C412.117 20.4979 412.29 20.7263 412.209 20.8846C412.126 21.0449 411.621 21.0929 411.543 21.2532C411.448 21.4476 411.164 21.6099 411.108 21.7922C411.047 21.9906 411.167 22.221 411.139 22.4114C411.111 22.6117 411.582 22.8101 411.588 23.0045C411.593 23.2028 411.122 23.4112 411.15 23.6056C411.178 23.7999 410.986 24.0223 411.025 24.2187C411.064 24.411 411.797 24.5292 411.839 24.7276C411.878 24.918 411.359 25.1684 411.393 25.3668C411.423 25.5571 411.95 25.7214 411.967 25.9218C411.981 26.0821 411.972 26.0921 411.967 26.2123C411.936 26.1362 411.794 26.1442 411.769 26.012C411.738 25.8477 411.563 25.7475 411.443 25.5892C411.195 25.465 411.064 25.2746 410.827 25.1865C410.559 25.0863 410.356 24.8518 410.099 24.7977C409.812 24.7376 409.467 24.7436 409.196 24.7376C408.906 24.7296 408.538 24.6735 408.268 24.7236C407.995 24.7737 407.702 24.932 407.451 25.0362C407.215 25.1344 407.164 25.4469 406.947 25.5892C406.746 25.7214 406.42 25.7795 406.236 25.9458C406.066 26.0981 405.821 26.2384 405.665 26.4167C405.52 26.585 405.537 26.8315 405.403 27.0178C405.277 27.1941 405.503 27.4827 405.389 27.675C405.28 27.8593 405.216 28.0417 405.121 28.238C405.029 28.4264 404.341 28.4765 404.26 28.6748C404.179 28.8672 404.416 29.1277 404.347 29.326C404.28 29.5224 403.775 29.6506 403.717 29.853C403.692 29.9412 403.803 30.0494 403.928 30.1576C403.906 30.1616 403.884 30.1656 403.862 30.1676C403.586 30.1996 403.271 30.0714 403 30.1135C402.727 30.1576 402.412 30.0995 402.145 30.1536C401.874 30.2097 401.598 30.2758 401.339 30.3419C401.074 30.41 400.851 30.5643 400.598 30.6465C400.341 30.7286 400.177 30.941 399.934 31.0352C399.686 31.1313 399.238 30.9851 399.004 31.0953C398.769 31.2055 398.535 31.3437 398.318 31.468C398.098 31.5922 397.928 31.7805 397.727 31.9188C397.526 32.057 397.309 32.2033 397.128 32.3576C396.947 32.5099 396.71 32.6521 396.551 32.8184C396.395 32.9827 396.799 33.3895 396.665 33.5678C396.534 33.7421 396.138 33.8103 396.03 33.9966C395.924 34.1789 396.091 34.4194 396.01 34.6137C395.929 34.8021 395.896 34.9784 395.84 35.1788C395.784 35.3711 395.297 35.5094 395.263 35.7117C395.263 35.7258 395.255 35.7398 395.252 35.7558C395.252 35.7438 395.252 35.7318 395.246 35.7198C395.152 35.5234 395.196 35.2269 395.04 35.0706C394.878 34.9103 394.187 35.1146 393.967 34.9944C393.752 34.8782 393.808 34.4374 393.549 34.3553C393.306 34.2791 392.886 34.5576 392.61 34.5075C392.35 34.4615 392.097 34.5276 391.815 34.5035C391.548 34.4795 391.322 34.1749 391.043 34.1689C390.773 34.1629 390.503 34.2611 390.227 34.2691C389.953 34.2791 389.672 34.1789 389.396 34.199C389.123 34.219 388.814 34.0848 388.543 34.1148C388.27 34.1469 388.002 34.231 387.735 34.2711C387.462 34.3112 387.155 34.2751 386.896 34.3232C386.623 34.3733 386.372 34.4915 386.116 34.5456C385.842 34.6057 385.678 34.8862 385.433 34.9503C385.157 35.0205 384.833 34.9724 384.599 35.0445C384.318 35.1327 384.017 35.1687 383.81 35.2529C383.763 35.2709 383.724 35.297 383.682 35.323C383.66 35.305 383.635 35.287 383.613 35.2689C383.431 35.1106 383.169 35.0185 382.966 34.8762C382.76 34.7299 382.637 34.5376 382.414 34.4154C382.183 34.2891 381.82 34.3613 381.575 34.2691C381.525 34.2511 381.483 34.225 381.444 34.197C381.486 34.1709 381.531 34.1469 381.584 34.1288C381.843 34.0407 382.542 34.3713 382.721 34.217C382.891 34.0707 382.854 33.7481 382.958 33.5518C383.052 33.3755 382.581 33.0969 382.629 32.8886C382.671 32.7002 383.512 32.556 383.521 32.3476C383.529 32.1552 383.019 31.9488 383.002 31.7445C382.985 31.5501 382.802 31.3698 382.765 31.1674C382.729 30.9711 383.178 30.7186 383.128 30.5202C383.077 30.3239 382.584 30.1936 382.52 29.9993C382.456 29.8049 382.492 29.5945 382.417 29.4042C382.342 29.2098 382.094 29.0575 382.01 28.8712C381.924 28.6768 381.868 28.4845 381.776 28.3022C381.678 28.1058 381.486 27.9535 381.386 27.7772C381.274 27.5788 381.687 27.2302 381.575 27.0639C381.439 26.8595 381.015 26.7874 380.892 26.6431C380.753 26.4768 380.848 26.1863 380.683 26.02C380.524 25.8597 380.444 25.6333 380.265 25.477C380.09 25.3227 379.889 25.1624 379.697 25.0141C379.507 24.8679 379.17 24.8098 378.966 24.6735C378.763 24.5373 378.281 24.6334 378.066 24.5072C377.849 24.381 377.74 24.1646 377.511 24.0524C377.28 23.9382 377.124 23.7418 376.882 23.6436C376.636 23.5434 376.385 23.4433 376.132 23.3651C375.873 23.285 375.655 23.0806 375.39 23.0265C375.12 22.9704 374.733 23.325 374.459 23.299C374.181 23.2709 373.952 23.1768 373.673 23.1848C373.398 23.1928 373.091 23.0145 372.818 23.0606C372.55 23.1046 372.213 23.0786 371.951 23.1627C371.706 23.2409 371.692 23.6356 371.452 23.7538C371.232 23.862 370.605 23.6316 370.39 23.7759C370.195 23.9061 370.215 24.419 370.028 24.5813C370.022 24.377 369.966 24.0323 369.933 23.836C369.9 23.6356 369.732 23.4653 369.671 23.2709C369.607 23.0746 370.036 22.774 369.944 22.5857C369.852 22.3953 369.763 22.1789 369.646 21.9986C369.526 21.8163 369.183 21.7041 369.038 21.5318C368.896 21.3614 368.528 21.2973 368.361 21.137C368.197 20.9767 368.085 20.7904 367.901 20.6401C367.717 20.4918 367.466 20.3977 367.263 20.2574C367.062 20.1212 366.778 20.0691 366.561 19.9408C366.346 19.8146 366.31 19.5321 366.078 19.4159C365.853 19.3017 365.462 19.3738 365.225 19.2676C364.989 19.1634 364.738 19.1073 364.49 19.0111C364.244 18.917 364.125 18.6605 363.871 18.5763C363.62 18.4922 363.528 18.1235 363.269 18.0494C363.012 17.9752 362.569 18.2457 362.304 18.1816C362.042 18.1175 361.722 18.2137 361.452 18.1596C361.184 18.1055 360.989 17.8811 360.719 17.835C360.448 17.7889 360.189 17.7188 359.916 17.6827C359.643 17.6466 359.436 17.276 359.161 17.2479C358.885 17.2199 358.559 17.4383 358.283 17.4202C358.004 17.4022 357.736 17.2158 357.458 17.2058C357.179 17.1978 356.886 17.1998 356.607 17.1998C356.329 17.1998 356.042 17.282 355.763 17.294C355.484 17.304 355.194 17.312 354.918 17.3321C354.64 17.3541 354.383 17.5064 354.107 17.5384C353.831 17.5705 353.505 17.4463 353.235 17.4883C352.962 17.5324 352.761 17.7969 352.496 17.851C352.226 17.9071 352.062 18.1576 351.802 18.2257C351.538 18.2938 351.164 18.1335 350.91 18.2137C350.654 18.2958 350.25 18.1776 350.007 18.2718C349.759 18.368 349.704 18.7046 349.472 18.8148C349.238 18.925 348.873 18.9069 348.653 19.0312C348.433 19.1554 348.042 19.1674 347.842 19.3057C347.641 19.4439 347.842 19.8727 347.663 20.025C347.482 20.1773 347.329 20.3295 347.17 20.4959C347.014 20.6602 346.961 20.8545 346.827 21.0328C346.696 21.2072 346.086 21.2212 345.977 21.4075C345.871 21.5899 346.253 21.9044 346.172 22.0988C346.091 22.2871 345.514 22.3913 345.456 22.5917C345.417 22.7279 345.537 22.8882 345.601 23.0425C345.375 22.9544 345.013 22.9143 344.901 22.8021C344.74 22.6418 344.45 22.6458 344.23 22.5256C344.015 22.4094 343.97 22.1489 343.711 22.0667C343.469 21.9906 343.324 21.6279 343.048 21.5778C342.789 21.5318 342.415 21.8503 342.134 21.8243C341.869 21.8002 341.61 21.7001 341.328 21.6941C341.058 21.688 340.782 21.6319 340.503 21.642C340.23 21.652 339.943 21.5939 339.667 21.6159C339.394 21.6359 339.115 21.678 338.845 21.7101C338.572 21.7421 338.393 22.1188 338.128 22.1589C337.855 22.199 337.529 22.0347 337.267 22.0828C336.994 22.1329 336.704 22.1228 336.45 22.1769C336.177 22.237 335.901 22.2751 335.656 22.3392C335.38 22.4094 335.196 22.6117 334.962 22.6839C334.681 22.772 334.508 22.9403 334.299 23.0245C334.059 23.1207 333.555 22.9063 333.326 23.0145C333.097 23.1227 333.153 23.5254 332.933 23.6436C332.713 23.7618 332.353 23.7458 332.141 23.872C331.932 23.9983 331.988 24.3309 331.79 24.4651C331.592 24.5994 331.411 24.7316 331.222 24.8739C331.032 25.0161 330.712 25.0602 330.533 25.2105C330.355 25.3588 329.993 25.3988 329.822 25.5531C329.652 25.7074 329.761 26.012 329.6 26.1703C329.438 26.3285 329.41 26.5449 329.257 26.7092C329.103 26.8735 328.521 26.8335 328.376 26.9998C328.345 27.0338 328.306 27.0639 328.262 27.0919C328.061 27.0539 327.821 27.0439 327.685 26.9537C327.481 26.8174 327.356 26.6411 327.138 26.5169C326.921 26.3907 326.952 26.034 326.723 25.9218C326.492 25.8076 326.235 25.7114 325.993 25.6152C325.748 25.5151 325.422 25.5351 325.168 25.4569C324.909 25.3768 324.767 25.0342 324.505 24.9781C324.234 24.922 323.863 25.1384 323.59 25.1123C323.312 25.0843 323.027 24.7837 322.751 24.7897C322.475 24.7977 322.275 25.2766 321.999 25.3207C321.731 25.3648 321.241 24.962 320.979 25.0462C320.733 25.1243 320.622 25.4529 320.382 25.5712C320.162 25.6794 320.037 25.8837 319.822 26.028C319.627 26.1582 319.404 26.1923 319.217 26.3526C319.212 26.1482 319.117 26.02 319.083 25.8236C319.05 25.6233 319.156 25.4028 319.095 25.2105C319.03 25.0141 318.863 24.8338 318.774 24.6475C318.682 24.4571 318.518 24.2908 318.401 24.1085C318.281 23.9261 318.54 23.5855 318.395 23.4152C318.253 23.2449 317.525 23.3471 317.358 23.1848C317.194 23.0245 317.319 22.6999 317.132 22.5496C316.948 22.4013 316.656 22.3232 316.452 22.1829C316.252 22.0447 316.107 21.8584 315.889 21.7321C315.675 21.6059 315.588 21.3414 315.357 21.2252C315.131 21.111 314.8 21.0869 314.56 20.9807C314.323 20.8766 313.827 21.105 313.579 21.0108C313.333 20.9166 313.083 20.8685 312.826 20.7844C312.575 20.7002 312.536 20.2734 312.274 20.1993C312.018 20.1252 311.812 19.9248 311.547 19.8607C311.285 19.7966 310.886 20.029 310.616 19.9729C310.348 19.9188 310.181 19.5722 309.911 19.5261C309.64 19.48 309.348 19.4539 309.075 19.4179C308.801 19.3818 308.47 19.5662 308.194 19.5401C307.918 19.5121 307.656 19.3858 307.377 19.3678C307.099 19.3498 306.8 19.6102 306.522 19.6022C306.243 19.5942 305.975 19.3397 305.697 19.3417C305.418 19.3417 305.136 19.3858 304.86 19.3958C304.582 19.4059 304.328 19.5942 304.052 19.6162C303.773 19.6383 303.431 19.3157 303.157 19.3478C302.881 19.3798 302.65 19.6062 302.38 19.6503C302.107 19.6944 301.764 19.5682 301.499 19.6223C301.229 19.6784 301.064 19.9769 300.805 20.043C300.54 20.1112 300.108 19.8927 299.855 19.9729C299.598 20.055 299.476 20.3576 299.233 20.4518C298.985 20.5479 298.854 20.7704 298.62 20.8806C298.386 20.9908 298.244 21.1671 298.026 21.2913C297.806 21.4155 297.366 21.3434 297.162 21.4837C296.961 21.6219 296.825 21.8103 296.644 21.9625C296.463 22.1148 296.596 22.4214 296.437 22.5877C296.281 22.752 296.189 22.9123 296.056 23.0886C295.925 23.2629 295.805 23.4112 295.696 23.5995C295.59 23.7819 294.782 23.7859 294.698 23.9802C294.617 24.1686 294.829 24.4291 294.771 24.6294C294.715 24.8218 294.916 25.0442 294.885 25.2486C294.854 25.4429 294.69 25.6293 294.679 25.8356C294.673 25.9559 294.69 26.1602 294.707 26.3486C294.673 26.1622 294.617 25.9619 294.603 25.8497C294.576 25.6393 294.932 25.3548 294.849 25.1804C294.754 24.9841 294.5 24.7797 294.344 24.6254C294.183 24.4651 293.971 24.2427 293.751 24.1225C293.536 24.0063 292.984 24.2768 292.725 24.1946C292.482 24.1185 292.374 23.7418 292.098 23.6917C291.839 23.6456 291.54 23.6136 291.262 23.5895C290.994 23.5655 290.701 23.5935 290.42 23.5895C290.15 23.5835 289.86 23.5234 289.581 23.5314C289.308 23.5414 289.037 23.6777 288.764 23.6997C288.491 23.7198 288.212 23.7278 287.939 23.7578C287.836 23.7699 287.736 23.7879 287.636 23.8039C287.758 23.6657 287.945 23.5194 287.925 23.3852C287.898 23.1928 287.691 23.0004 287.641 22.8041C287.594 22.6117 287.56 22.4074 287.496 22.215C287.435 22.0227 286.894 21.9205 286.819 21.7341C286.744 21.5418 287.243 21.2232 287.159 21.0409C287.07 20.8485 286.705 20.7243 286.61 20.55C286.504 20.3536 286.339 20.1873 286.236 20.023C286.105 19.8166 286.264 19.5161 286.147 19.3758C286.008 19.2095 285.843 19.0171 285.671 18.8488C285.506 18.6885 284.979 18.7246 284.793 18.5703C284.609 18.42 284.464 18.2457 284.26 18.1035C284.06 17.9632 283.714 17.9512 283.497 17.823C283.279 17.6947 283.212 17.4322 282.981 17.322C282.744 17.2078 282.529 17.0716 282.281 16.9794C282.028 16.8852 281.81 16.7029 281.551 16.6388C281.281 16.5707 280.957 16.6047 280.681 16.5727C280.403 16.5406 280.127 16.8191 279.848 16.8291C279.569 16.8392 279.383 16.8892 279.109 16.9474C278.847 17.0035 278.496 16.8371 278.243 16.9413C278.009 17.0355 277.579 16.9794 277.356 17.1197C277.156 17.2459 277.139 17.5645 276.949 17.7288C276.944 17.5224 276.843 17.308 276.804 17.1117C276.763 16.9093 276.685 16.7229 276.609 16.5306C276.531 16.3342 276.855 16.0237 276.743 15.8393C276.632 15.653 276.297 15.5227 276.155 15.3484C276.013 15.1741 275.623 15.12 275.45 14.9577C275.28 14.7974 275.104 14.6531 274.909 14.5049C274.717 14.3586 274.853 13.9499 274.639 13.8176C274.427 13.6854 273.998 13.7315 273.766 13.6112C273.538 13.495 273.318 13.3608 273.075 13.2546C272.835 13.1504 272.387 13.3307 272.133 13.2386C271.882 13.1484 271.782 12.8478 271.52 12.7677C271.261 12.6895 270.982 12.6555 270.714 12.5874C270.45 12.5212 270.241 12.3189 269.967 12.2628C269.697 12.2087 269.469 11.9863 269.193 11.9422C268.917 11.8981 268.574 12.0564 268.295 12.0243C268.016 11.9923 267.707 12.1365 267.428 12.1165C267.147 12.0965 266.89 11.828 266.609 11.82C266.327 11.8119 266.032 11.866 265.753 11.868C265.469 11.872 265.168 11.7679 264.889 11.7819C264.608 11.7979 264.382 12.1946 264.106 12.2227C263.824 12.2527 263.432 11.848 263.158 11.8901C262.88 11.9342 262.581 11.9923 262.311 12.0504C262.038 12.1085 261.865 12.407 261.603 12.4812C261.338 12.5553 261.235 12.8639 260.984 12.954C260.731 13.0462 260.131 12.7056 259.895 12.8138C259.655 12.924 259.669 13.3087 259.449 13.4349C259.228 13.5631 259.265 13.8657 259.07 14.01C258.874 14.1542 258.406 14.1122 258.236 14.2745C258.069 14.4347 257.62 14.4868 257.481 14.6652C257.344 14.8395 257.826 15.2342 257.718 15.4246C257.615 15.6089 257.018 15.671 256.94 15.8714C256.868 16.0617 257.227 16.3242 257.183 16.5306C257.158 16.6468 257.194 16.761 257.222 16.8772C257.152 16.8852 257.082 16.9133 257.01 16.9514C257.021 16.769 257.071 16.5667 256.988 16.4404C256.865 16.2581 256.516 16.0878 256.321 15.9575C256.126 15.8273 255.839 15.671 255.586 15.5829C255.349 15.5027 255.045 15.3825 254.769 15.3344C254.512 15.2903 254.198 15.2202 253.916 15.2022C253.651 15.1841 253.336 15.1661 253.058 15.1681C252.787 15.1701 252.495 15.2703 252.219 15.2883C251.973 15.3043 251.728 15.3865 251.483 15.4246C251.352 15.3304 251.204 15.2442 251.093 15.138C250.928 14.9777 251.001 14.6792 250.814 14.5289C250.63 14.3806 250.075 14.4969 249.872 14.3586C249.671 14.2204 249.507 14.0821 249.289 13.9539C249.075 13.8276 249.208 13.3748 248.98 13.2586C248.754 13.1444 248.434 13.1143 248.194 13.0101C247.957 12.9059 247.734 12.7717 247.486 12.6755C247.241 12.5813 247.051 12.385 246.798 12.3008C246.547 12.2167 246.051 12.5353 245.791 12.4611C245.535 12.387 245.499 11.872 245.234 11.8059C244.972 11.7418 244.515 12.1085 244.247 12.0544C243.98 12.0003 243.737 11.9081 243.464 11.862C243.194 11.8159 242.982 11.5735 242.706 11.5374C242.433 11.5014 242.19 11.2669 241.914 11.2389C241.638 11.2108 241.34 11.2028 241.064 11.1848C240.786 11.1668 240.471 11.4873 240.192 11.4773C239.913 11.4693 239.637 11.3371 239.361 11.3371C239.083 11.3371 238.807 11.4433 238.531 11.4553C238.252 11.4653 237.998 11.6316 237.722 11.6536C237.444 11.6757 237.143 11.5274 236.87 11.5595C236.594 11.5915 236.357 11.7418 236.086 11.7859C235.813 11.83 235.39 11.4593 235.122 11.5154C234.852 11.5715 234.79 12.0985 234.531 12.1646C234.266 12.2327 233.887 12.0744 233.634 12.1546C233.377 12.2367 233.324 12.5974 233.082 12.6916C232.834 12.7877 232.407 12.6415 232.173 12.7497C231.939 12.8599 231.638 12.914 231.421 13.0362C231.2 13.1604 231.217 13.477 231.016 13.6152C230.816 13.7535 230.189 13.6152 230.007 13.7675C229.826 13.9198 230.275 14.4187 230.116 14.585C229.96 14.7493 229.651 14.8215 229.514 14.9998C229.383 15.1741 229.486 15.4065 229.378 15.5949C229.272 15.7772 228.982 15.8934 228.898 16.0878C228.817 16.2761 228.402 16.4064 228.343 16.6067C228.288 16.7991 228.304 17.0115 228.271 17.2158C228.263 17.2719 228.226 17.3301 228.185 17.3862C228.196 17.3381 228.196 17.294 228.176 17.2499C228.084 17.0535 227.867 16.9193 227.711 16.765C227.549 16.6047 227.566 16.2922 227.346 16.1719C227.131 16.0557 226.685 16.196 226.426 16.1158C226.183 16.0397 225.916 16.0737 225.64 16.0237C225.381 15.9776 225.133 16.0237 224.851 15.9976C224.584 15.9736 224.347 15.9295 224.068 15.9235C223.798 15.9175 223.524 15.5448 223.246 15.5528C222.973 15.5628 222.716 15.7672 222.443 15.7892C222.17 15.8093 221.911 15.8734 221.64 15.9054C221.367 15.9375 221.063 15.8333 220.796 15.8734C220.523 15.9135 220.369 16.2901 220.11 16.3382C219.837 16.3883 219.511 16.2481 219.254 16.3042C218.981 16.3643 218.644 16.2581 218.399 16.3222C218.123 16.3923 217.905 16.5426 217.671 16.6147C217.387 16.7029 217.237 16.9133 217.03 16.9974C216.791 17.0936 216.607 17.2319 216.378 17.3401C216.15 17.4483 215.581 17.2118 215.364 17.3301C215.143 17.4483 214.865 17.5344 214.653 17.6627C214.444 17.7889 214.229 17.9372 214.031 18.0714C213.833 18.2057 213.92 18.5603 213.73 18.7026C213.541 18.8448 213.365 18.9931 213.184 19.1434C213.006 19.2916 212.482 19.2436 212.312 19.3998C212.142 19.5541 212.429 19.9629 212.267 20.1232C212.105 20.2815 212.15 20.5359 211.997 20.7002C211.843 20.8645 211.414 20.8926 211.269 21.0589C211.124 21.2252 210.979 21.3915 210.843 21.5638C210.706 21.7341 210.57 21.9044 210.441 22.0788C210.313 22.2531 210.419 22.5095 210.299 22.6859C210.177 22.8622 209.655 22.9003 209.541 23.0786C209.427 23.2589 209.346 23.4513 209.237 23.6316C209.129 23.8139 209.106 24.0223 209.006 24.2026C208.928 24.3429 208.655 24.4311 208.579 24.5733C208.504 24.7156 209.025 25.0121 208.956 25.1524C208.861 25.3467 208.103 25.3928 208.05 25.5732C207.991 25.7715 208.44 26.02 208.421 26.2083C208.401 26.4067 208.566 26.581 208.579 26.7734C208.593 26.9697 208.593 27.146 208.627 27.3404C208.66 27.5328 208.482 27.7431 208.524 27.9395C208.563 28.1258 208.423 28.3322 208.448 28.5266C208.262 28.4344 208.067 28.3422 207.913 28.2861C207.643 28.192 207.147 28.5987 206.893 28.5546C206.606 28.5065 206.422 28.3923 206.157 28.4064C205.876 28.4224 205.583 28.3102 205.327 28.3883C205.076 28.4645 204.934 28.6608 204.705 28.7891C204.493 28.9073 204.474 29.1337 204.284 29.292C204.109 29.4382 203.395 29.302 203.236 29.4763C203.089 29.6386 203.136 29.9091 203.002 30.0934C202.877 30.2678 202.849 30.4822 202.738 30.6725C202.632 30.8528 202.476 31.0272 202.384 31.2215C202.375 31.2375 202.364 31.2536 202.353 31.2716H202.347C202.069 31.2816 201.684 31.0051 201.411 31.0632C201.149 31.1193 200.82 31.2295 200.566 31.3337C200.335 31.4279 200.023 31.5521 199.797 31.6924C199.596 31.8186 199.739 31.9809 199.549 32.1452C199.543 31.9388 199.555 31.9168 199.516 31.7204C199.474 31.5181 199.58 31.2736 199.504 31.0813C199.426 30.8849 198.872 30.8068 198.76 30.6224C198.649 30.4361 198.599 30.2417 198.456 30.0674C198.311 29.8931 198.242 29.6887 198.072 29.5284C197.902 29.3681 197.74 29.1998 197.545 29.0515C197.353 28.9053 197.077 28.8231 196.862 28.6889C196.65 28.5566 196.394 28.4745 196.165 28.3563C195.94 28.24 195.627 28.236 195.382 28.1298C195.142 28.0257 194.989 27.8333 194.736 27.7411C194.485 27.651 194.351 27.3805 194.089 27.3023C193.83 27.2242 193.495 27.2823 193.228 27.2142C192.963 27.148 192.609 27.3164 192.336 27.2603C192.065 27.2062 191.929 26.7874 191.653 26.7433C191.377 26.6992 191.107 26.599 190.828 26.567C190.549 26.5349 190.256 26.5089 189.978 26.4888C189.696 26.4688 189.381 26.7914 189.103 26.7814C188.821 26.7734 188.554 26.7153 188.272 26.7193C187.988 26.7233 187.676 26.3265 187.394 26.3426C187.113 26.3586 186.853 26.6131 186.575 26.6431C186.293 26.6732 186.026 26.7553 185.752 26.7974C185.474 26.8415 185.228 26.9557 184.961 27.0138C184.688 27.0719 184.44 27.1541 184.18 27.2282C183.916 27.3023 183.498 27.134 183.247 27.2242C182.993 27.3164 183.049 27.7892 182.812 27.8974C182.572 28.0076 182.371 28.1058 182.151 28.232C181.931 28.3603 181.636 28.3923 181.438 28.5386C181.243 28.6829 181.19 28.8892 181.02 29.0515C180.852 29.2118 180.794 29.3861 180.652 29.5645C180.515 29.7388 180.264 29.843 180.156 30.0333C180.05 30.2177 180.03 30.4 179.952 30.6004C179.88 30.7907 179.595 30.939 179.551 31.1454C179.52 31.2876 179.551 31.4339 179.565 31.5822C179.445 31.4399 179.236 31.3177 179.152 31.1955C179.03 31.0131 178.89 30.8308 178.692 30.7006C178.497 30.5703 178.154 30.6044 177.901 30.5162C177.664 30.4361 177.552 30.0373 177.274 29.9913C177.017 29.9472 176.638 30.42 176.357 30.402C176.092 30.384 175.849 29.9131 175.571 29.9171C175.3 29.9191 175.019 30.0073 174.743 30.0253C174.473 30.0434 174.272 30.4401 174.002 30.4701C173.731 30.5002 173.316 29.9792 173.051 30.0213C172.867 30.0494 172.692 30.1175 172.516 30.1736C172.499 30.1656 172.483 30.1596 172.469 30.1516C172.265 30.0153 172.028 29.9231 171.811 29.7969C171.593 29.6707 171.343 29.6045 171.114 29.4903C170.883 29.3761 170.78 29.1437 170.54 29.0455C170.295 28.9453 170.094 28.7931 169.843 28.7149C169.584 28.6348 169.403 28.3723 169.138 28.3162C168.868 28.2601 168.511 28.4464 168.238 28.4204C167.959 28.3923 167.677 28.0898 167.399 28.0978C167.123 28.1058 166.797 28.19 166.523 28.236C166.256 28.2801 166.044 28.5166 165.785 28.6007C165.54 28.6789 165.367 28.8572 165.127 28.9734C164.907 29.0816 164.848 29.312 164.634 29.4543C164.439 29.5845 163.979 29.6627 163.792 29.8229C163.786 29.6186 164.009 29.298 163.976 29.1016C163.943 28.9013 163.943 28.6789 163.878 28.4865C163.814 28.2901 163.499 28.1359 163.41 27.9475C163.318 27.7572 163.466 27.4867 163.346 27.3043C163.226 27.122 162.883 27.0138 162.738 26.8415C162.596 26.6712 162.415 26.5129 162.248 26.3506C162.083 26.1903 161.925 26.02 161.741 25.8697C161.557 25.7214 161.56 25.4249 161.356 25.2846C161.155 25.1484 160.785 25.1283 160.567 25.0001C160.353 24.8739 160.085 24.7877 159.857 24.6715C159.631 24.5573 159.525 24.2908 159.285 24.1866C159.048 24.0824 158.63 24.1926 158.382 24.0985C158.137 24.0043 157.786 24.0784 157.529 23.9943C157.278 23.9101 157.122 23.6757 156.863 23.6015C156.604 23.5274 156.395 23.3571 156.13 23.293C155.868 23.2289 155.545 23.297 155.274 23.2429C155.007 23.1888 154.72 23.2008 154.449 23.1547C154.179 23.1086 153.987 22.7861 153.714 22.75C153.44 22.7139 153.164 22.6258 152.889 22.5997C152.613 22.5717 152.281 22.8562 152.005 22.8381C151.726 22.8201 151.47 22.5697 151.191 22.5616C150.912 22.5536 150.625 22.744 150.347 22.746C150.068 22.746 149.8 22.8682 149.524 22.8782C149.246 22.8882 148.975 22.8762 148.699 22.8963C148.421 22.9183 148.111 22.75 147.838 22.782C147.562 22.8141 147.278 22.8341 147.008 22.8782C146.734 22.9223 146.38 22.78 146.116 22.8341C145.845 22.8902 145.681 23.2068 145.422 23.2729C145.157 23.3411 144.984 23.5555 144.73 23.6356C144.474 23.7178 144.137 23.6637 143.891 23.7578C143.643 23.854 143.206 23.7358 142.972 23.844C142.738 23.9542 142.481 24.0824 142.264 24.2067C142.044 24.3309 141.996 24.6214 141.795 24.7597C141.595 24.8979 141.72 25.2486 141.539 25.4008C141.358 25.5531 141.035 25.6052 140.876 25.7715C140.72 25.9358 140.349 26.008 140.215 26.1863C140.084 26.3606 140.282 26.6471 140.173 26.8355C140.067 27.0178 139.775 27.148 139.691 27.3424C139.61 27.5307 139.326 27.693 139.27 27.8934C139.215 28.0858 139.794 28.3503 139.761 28.5526C139.736 28.7129 139.304 28.8512 139.148 29.0095C139.109 28.8592 139.045 28.7289 138.978 28.5907C138.883 28.3963 138.624 28.3342 138.468 28.1799C138.306 28.0196 138.37 27.7612 138.15 27.6409C137.935 27.5247 137.868 27.1741 137.609 27.0919C137.367 27.0158 136.879 27.4426 136.603 27.3925C136.344 27.3464 136.207 26.8014 135.928 26.7754C135.661 26.7513 135.357 26.7533 135.076 26.7473C134.805 26.7413 134.521 26.9417 134.242 26.9497C133.969 26.9577 133.727 27.1981 133.453 27.2202C133.18 27.2402 132.935 27.3264 132.665 27.3584C132.391 27.3905 132.04 27.0859 131.773 27.126C131.5 27.1661 131.229 27.2142 130.967 27.2623C130.694 27.3123 130.357 27.2042 130.1 27.2603C129.827 27.3204 129.571 27.4266 129.323 27.4907C129.047 27.5608 128.988 27.9976 128.754 28.0697C128.47 28.1579 128.082 28.0257 127.873 28.1098C127.634 28.206 127.338 28.2481 127.11 28.3563C126.881 28.4645 126.929 28.8512 126.708 28.9694C126.488 29.0876 125.973 28.9353 125.764 29.0616C125.555 29.1878 125.41 29.3781 125.212 29.5144C125.014 29.6486 125.12 30.0013 124.93 30.1435C124.741 30.2858 124.139 30.1556 123.957 30.3058C123.779 30.4541 123.556 30.5904 123.386 30.7446C123.216 30.8989 123.135 31.1113 122.974 31.2716C122.812 31.4299 122.533 31.5401 122.38 31.7024C122.227 31.8667 122.472 32.2173 122.327 32.3856C122.182 32.554 121.597 32.5339 121.46 32.7062C121.324 32.8765 121.176 33.0529 121.048 33.2272C120.919 33.4015 121.304 33.7682 121.181 33.9445C121.059 34.1208 120.393 34.1128 120.278 34.2911C120.164 34.4715 120.278 34.7299 120.172 34.9103C120.161 34.9283 120.158 34.9463 120.15 34.9644C120.014 34.8041 119.576 34.7099 119.495 34.5416C119.403 34.3512 119.668 34.0627 119.551 33.8804C119.431 33.6981 119.314 33.5037 119.169 33.3334C119.027 33.1631 118.495 33.1811 118.33 33.0188C118.166 32.8585 118.051 32.6862 117.865 32.5359C117.681 32.3876 117.781 32.041 117.578 31.9008C117.377 31.7625 117.07 31.7024 116.853 31.5742C116.638 31.4479 116.173 31.5722 115.941 31.4559C115.716 31.3417 115.727 30.9771 115.487 30.8729C115.25 30.7687 114.843 30.8889 114.595 30.7927C114.35 30.6986 114.205 30.4761 113.951 30.392C113.701 30.3078 113.631 29.8991 113.369 29.825C113.112 29.7508 112.611 30.1355 112.346 30.0714C112.084 30.0073 111.825 29.9612 111.557 29.9051C111.29 29.851 111.044 29.7628 110.774 29.7168C110.504 29.6707 110.297 29.4102 110.024 29.3741C109.751 29.3381 109.447 29.4202 109.171 29.3922C108.895 29.3641 108.62 29.3441 108.344 29.326C108.065 29.308 107.794 29.2479 107.516 29.2399C107.237 29.2319 106.956 28.9333 106.68 28.9333C106.401 28.9333 106.139 29.4463 105.863 29.4563C105.584 29.4663 105.294 29.296 105.018 29.318C104.74 29.3401 104.422 29.1698 104.149 29.2018C103.873 29.2339 103.594 29.304 103.324 29.3481C103.051 29.3922 102.808 29.5424 102.543 29.5985C102.502 29.6066 102.46 29.6186 102.421 29.6286C102.496 29.5124 102.58 29.3962 102.557 29.288C102.513 29.0876 102.68 28.8592 102.619 28.6628C102.557 28.4665 101.939 28.3783 101.861 28.1859C101.783 27.9916 101.835 27.7852 101.741 27.5969C101.643 27.4085 101.849 27.134 101.735 26.9517C101.624 26.7754 101.604 26.5409 101.456 26.3546C101.32 26.1823 100.76 26.1963 100.592 26.024C100.434 25.8577 100.247 25.7234 100.066 25.5651C99.8844 25.4069 99.9653 25.0883 99.7618 24.946C99.5555 24.7997 99.4468 24.5593 99.2239 24.4371C99.0957 24.367 98.9284 24.3389 98.7612 24.3108C98.7779 24.2267 98.8002 24.1506 98.8532 24.1045C99.0232 23.9582 99.2462 23.868 99.3493 23.6717C99.4441 23.4954 99.4552 23.311 99.5026 23.1026C99.5444 22.9143 99.5026 22.7279 99.511 22.5216C99.5193 22.3292 100.068 22.1188 100.052 21.9125C100.035 21.7181 99.3827 21.5598 99.3465 21.3574C99.3103 21.1611 99.2155 20.9827 99.1653 20.7844C99.1152 20.588 99.706 20.2955 99.6447 20.1011C99.5806 19.9068 99.1514 19.7745 99.0789 19.5822C99.0037 19.3878 98.7277 19.2416 98.6469 19.0552C98.5605 18.8609 98.8337 18.5844 98.7417 18.402C98.6441 18.2057 98.5131 18.0233 98.4128 17.847C98.3013 17.6486 98.1313 17.4803 98.0198 17.314C97.8832 17.1096 98.0672 16.7931 97.9445 16.6468C97.8052 16.4805 97.3564 16.4364 97.192 16.2681C97.0331 16.1078 96.9105 15.9175 96.7321 15.7592C96.5565 15.6049 96.0353 15.675 95.843 15.5267C95.6535 15.3805 95.5782 15.1701 95.372 15.0318C95.1685 14.8956 94.8898 14.8395 94.6724 14.7133C94.455 14.587 94.5442 14.1683 94.3156 14.0561C94.0843 13.9418 93.6439 14.0681 93.4042 13.9699C93.1589 13.8697 92.9805 13.6914 92.7297 13.6132C92.4705 13.5331 92.2252 13.4289 91.9632 13.3728C91.6929 13.3167 91.3891 13.4229 91.1159 13.3968C90.8372 13.3688 90.5863 13.2586 90.3104 13.2666C90.0345 13.2746 89.8087 13.4289 89.5328 13.475C89.2652 13.5191 88.8667 13.2846 88.6074 13.3688C88.3622 13.4469 88.1141 13.5892 87.8772 13.7054C87.657 13.8136 87.4814 13.9959 87.2668 14.1382C87.0717 14.2684 86.9463 14.3927 86.7567 14.553C86.7512 14.3486 86.5477 14.2184 86.517 14.022C86.4836 13.8216 86.8125 13.5732 86.7512 13.3788C86.6871 13.1825 86.1519 13.0863 86.0599 12.8979C85.968 12.7076 86.2328 12.4191 86.1157 12.2367C85.9958 12.0544 85.8788 11.86 85.7338 11.6897C85.5917 11.5194 85.0593 11.5374 84.8949 11.3751C84.7305 11.2148 84.6162 11.0425 84.4294 10.8923C84.2455 10.744 84.3458 10.3973 84.1424 10.2571C83.9417 10.1188 83.6351 10.0587 83.4177 9.93049C83.2031 9.80426 82.7376 9.92849 82.5063 9.81228C82.2805 9.69807 82.2917 9.3334 82.052 9.22921C81.815 9.12502 81.4081 9.24524 81.1601 9.14906C80.9148 9.05489 80.7698 8.83248 80.5162 8.74833C80.2654 8.66417 80.1957 8.25542 79.9337 8.18129C79.6773 8.10715 79.1756 8.49186 78.9108 8.42774C78.6488 8.36362 78.3896 8.31754 78.122 8.26143C77.8544 8.20733 77.6092 8.11917 77.3388 8.07309C77.0684 8.027 76.8622 7.76653 76.5891 7.73046C76.3159 7.69439 76.0121 7.77654 75.7362 7.74849C75.4602 7.72044 75.1843 7.7004 74.9084 7.68237C74.6296 7.66434 74.3593 7.60423 74.0806 7.59621C73.8019 7.5882 73.5204 7.28965 73.2444 7.28965C72.9657 7.28965 72.7037 7.80259 72.4278 7.81261C72.149 7.82263 71.8592 7.65232 71.5832 7.67436C71.3045 7.6964 70.9868 7.52609 70.7136 7.55814C70.4377 7.5902 70.159 7.66033 69.8886 7.70441C69.6155 7.74849 69.373 7.89877 69.1082 7.95487C68.8379 8.01097 68.5926 8.11717 68.3334 8.18329C68.0686 8.25141 67.9627 8.57 67.709 8.65014C67.4526 8.7323 67.0791 8.61007 66.8367 8.70424C66.5886 8.80042 66.36 8.90461 66.1287 9.01281C65.8946 9.12301 65.8528 9.39752 65.6326 9.52174C65.4124 9.64597 65.0974 9.66 64.8968 9.79825C64.6961 9.9365 64.4982 10.0607 64.317 10.213C64.1359 10.3653 64.1247 10.5877 63.9658 10.752C63.8098 10.9163 63.5784 11.0245 63.4446 11.2028C63.3136 11.3771 62.7534 11.4092 62.6447 11.5955C62.5388 11.7779 62.8956 12.0844 62.8119 12.2788C62.7311 12.4671 62.1737 12.5753 62.1179 12.7757C62.0984 12.8498 62.0678 12.926 62.0399 13.0021C61.9925 12.93 61.9451 12.8599 61.8866 12.8038C61.7249 12.6435 61.5382 12.405 61.318 12.2848C61.1982 12.2187 60.9501 12.3028 60.7104 12.375C60.7884 12.3129 60.8358 12.2507 60.8247 12.1946C60.7829 11.9963 59.9802 11.8901 59.9244 11.6877C59.8687 11.4893 59.9941 11.2689 59.9244 11.0706C59.8547 10.8742 60.0721 10.6218 59.9941 10.4254C59.9133 10.229 59.6178 10.0828 59.5286 9.89042C59.4394 9.69606 59.2443 9.53176 59.1496 9.34342C59.052 9.14906 59.1328 8.91062 59.0297 8.72428C58.921 8.53193 59.1384 8.2414 59.0269 8.05906C58.9099 7.86671 58.3078 7.83866 58.188 7.66233C58.0598 7.46998 58.2159 7.18546 58.0904 7.01515C57.9483 6.82079 57.5664 6.74065 57.4354 6.58035C57.271 6.38199 57.4633 6.03736 57.3184 5.8971C57.1511 5.7348 56.8557 5.6226 56.6634 5.46631C56.4766 5.31203 56.0168 5.34208 55.8105 5.19581C55.607 5.05155 55.5624 4.78706 55.345 4.65282C55.1249 4.52058 54.9465 4.34025 54.7151 4.22203C54.481 4.10181 53.9821 4.29015 53.7368 4.18596C53.486 4.08177 53.2658 3.99962 53.0066 3.91547C52.7418 3.82931 52.5356 3.72312 52.2652 3.661C51.9893 3.59688 51.8499 3.14606 51.5684 3.112C51.2841 3.07793 50.9524 3.38449 50.6681 3.38449C50.3811 3.38449 50.1414 3.43859 49.8598 3.47666C49.5811 3.51473 49.3916 3.63295 49.1212 3.71109C48.862 3.78523 48.5499 3.72712 48.3018 3.84334C48.0705 3.95153 47.6942 3.9335 47.4712 4.07777C47.2678 4.21001 47.0531 4.36229 46.8608 4.52859C46.6852 4.68087 46.4985 4.84918 46.334 5.03151C46.1835 5.19581 45.9215 5.34008 45.7794 5.53043C45.6512 5.70475 45.7432 6.13353 45.6233 6.3319C45.5843 6.12752 45.7181 5.74883 45.6595 5.55648C45.601 5.35611 45.6707 5.12168 45.5926 4.93133C45.5118 4.73497 44.7258 4.71493 44.6283 4.53059C44.5252 4.34025 44.737 4.07175 44.6143 3.89343C44.4889 3.70909 44.1656 3.62293 44.0207 3.45262C43.8729 3.2783 43.6918 3.15007 43.5273 2.99177C43.3573 2.82948 43.4549 2.52492 43.2681 2.37865C43.0786 2.23038 42.8027 2.15023 42.5936 2.01799C42.3846 1.88374 42.3038 1.63529 42.078 1.51707C41.8522 1.39886 41.7658 1.0963 41.5233 0.99211C41.2836 0.889923 40.9575 0.853857 40.7039 0.765695C40.4531 0.679537 40.1716 0.591376 39.9096 0.521247C39.6476 0.451119 39.2601 0.63746 38.987 0.581357C38.7194 0.527258 38.4491 0.487185 38.1731 0.447111C37.9 0.407038 37.6045 0.513232 37.3258 0.487185C37.0499 0.461137 36.7879 0.461137 36.5064 0.447111C36.2277 0.435089 35.9657 0.348931 35.6842 0.350935C35.4054 0.350935 35.1044 -0.0117296 34.8229 0.000292419C34.5442 0.0123145 34.3073 0.382994 34.0286 0.409042C33.7526 0.433086 33.4237 0.228711 33.1478 0.266781C32.8747 0.302847 32.7102 0.707589 32.4371 0.755677C32.1667 0.801761 31.849 0.693563 31.5786 0.749666C31.3111 0.805769 30.9766 0.715603 30.7118 0.781725C30.4498 0.847846 30.3216 1.16443 30.0624 1.24057C29.8032 1.31671 29.4799 1.27262 29.2262 1.36079C28.9754 1.44694 28.8527 1.70542 28.6075 1.80159C28.3622 1.89777 27.8856 1.70141 27.6459 1.8056C27.409 1.90979 27.356 2.22036 27.1247 2.33457C26.8933 2.44878 26.4808 2.38066 26.2607 2.50488C26.0405 2.62711 25.9875 2.90161 25.7757 3.03185C25.5639 3.16209 25.2461 3.20817 25.0427 3.34843C24.842 3.48668 24.6859 3.661 24.4936 3.80727C24.304 3.95354 24.042 4.05773 23.8609 4.21401C23.6825 4.3683 23.5627 4.55865 23.3954 4.72094C23.231 4.88324 23.1892 5.10365 23.0359 5.27396C22.8854 5.44227 22.353 5.45228 22.2136 5.6266C22.0771 5.80092 22.3586 6.13954 22.2359 6.32188C22.1133 6.50221 21.8597 6.63645 21.751 6.8228C21.6451 7.00713 21.489 7.18145 21.397 7.37381C21.305 7.56215 21.004 7.71243 20.926 7.90879C20.8507 8.10114 21.227 8.37765 21.1657 8.57601C21.1071 8.77037 21.188 8.97674 21.1462 9.17711C21.1043 9.37347 20.5692 9.52575 20.5413 9.72812C20.5135 9.92648 20.7643 10.1429 20.7504 10.3473C20.7392 10.5456 20.7615 10.744 20.7643 10.9484C20.7643 11.0125 20.7114 11.0806 20.6417 11.1487C20.5776 11.0786 20.5162 11.0105 20.4661 10.9524C20.3128 10.772 19.6606 10.9343 19.4627 10.8141C19.2481 10.6839 19.2063 10.4795 18.9471 10.4114C18.6962 10.3453 18.4649 10.3412 18.1806 10.3272C17.9186 10.3132 17.6594 10.197 17.3751 10.221C17.1131 10.2431 16.7842 10.1128 16.5083 10.1649C16.2491 10.213 16.1543 10.6518 15.8895 10.7219C15.6359 10.7881 15.2707 10.6438 15.0143 10.7259C14.7663 10.8061 14.6464 11.0686 14.3984 11.1607C14.1559 11.2509 13.5901 10.9283 13.3504 11.0285C13.1135 11.1287 13.119 11.5214 12.8877 11.6296C12.6536 11.7378 12.3442 11.7598 12.1212 11.8721C11.8927 11.9863 11.94 12.3629 11.7254 12.4812C11.5025 12.6034 10.9116 12.381 10.7025 12.5032C10.4823 12.6334 10.3402 12.8258 10.1451 12.954C9.92769 13.0943 9.86358 13.3347 9.68242 13.465C9.4678 13.6172 9.04136 13.6112 8.88249 13.7455C8.70411 13.8958 8.80166 14.2083 8.63164 14.3626C8.46162 14.5169 7.86516 14.4428 7.70351 14.6011C7.53906 14.7593 7.71187 15.096 7.55857 15.2583C7.40249 15.4206 7.17115 15.5488 7.02343 15.7151C6.87571 15.8814 6.71684 16.0457 6.58027 16.216C6.44369 16.3863 6.66667 16.6989 6.53846 16.8712C6.41025 17.0455 6.3545 17.2359 6.23744 17.4122C6.11759 17.5905 5.69673 17.6607 5.58524 17.841C5.47654 18.0213 5.36505 18.2016 5.26471 18.384C5.16437 18.5683 5.0278 18.7406 4.93861 18.927C4.84942 19.1133 4.58185 19.2616 4.50381 19.4519C4.42577 19.6403 4.29477 19.8266 4.22509 20.017C4.15819 20.2073 4.28919 20.4377 4.23345 20.6301C4.17771 20.8225 4.30313 21.0388 4.25853 21.2332C4.21394 21.4276 4.29198 21.6299 4.25853 21.8243C4.22509 22.0206 3.63699 22.1769 3.61469 22.3733C3.59239 22.5697 3.62305 22.778 3.61469 22.9744C3.60633 23.1708 4.28919 23.3731 4.29198 23.5695C4.29198 23.7658 3.49484 23.9802 3.50878 24.1786C3.52271 24.375 3.6788 24.5753 3.70667 24.7717C3.73175 24.9681 4.19164 25.1324 4.23066 25.3287C4.27526 25.6373 3.88784 25.6353 3.8739 25.9519C3.85996 26.2624 3.86833 26.2885 3.90735 26.599C3.94637 26.9076 3.93243 26.9096 3.97145 27.2182C4.01047 27.5267 4.38117 27.5027 4.4174 27.8113C4.45642 28.1198 4.17492 28.1379 4.21394 28.4464C4.25296 28.755 4.28083 28.753 4.31985 29.0616C4.35887 29.3701 4.79089 29.3421 4.82991 29.6506C4.86893 29.9592 4.8104 29.9632 4.84942 30.2718C4.88844 30.5803 4.35609 30.6144 4.39511 30.923C4.43413 31.2315 4.9832 31.1955 5.02223 31.504C5.06125 31.8126 5.02501 31.8146 5.06403 32.1232C5.10305 32.4317 5.23963 32.4217 5.27865 32.7303C5.31767 33.0388 4.95812 33.0629 4.99714 33.3715C5.03616 33.68 4.88008 33.69 4.9191 33.9986C4.95812 34.3072 5.63541 34.3312 5.56573 34.6378C5.31488 34.76 4.61808 34.5376 4.38953 34.5977C4.11639 34.6698 4.01884 35.1227 3.76241 35.1427C3.48648 35.1647 3.20497 35.1848 2.9374 35.1928C2.66983 35.2008 2.40784 35.1046 2.13469 35.1487C1.88942 35.1888 1.77236 35.3912 1.51036 35.4973C1.30132 35.5835 0.635179 35.4473 0.409416 35.5995C0.490245 35.8039 0.777326 36.0704 0.785688 36.2728C0.79405 36.4791 0.852581 36.6855 0.81356 36.8899C0.771752 37.0923 1.00309 37.3407 0.944558 37.5431C0.886027 37.7435 0.222674 37.8597 0.172505 38.062C0.119548 38.2644 0.278418 38.5029 0.261695 38.7092C0.244972 38.9136 -0.0421092 39.1661 0.00527309 39.3725C0.0498682 39.5728 0.72437 39.673 0.799624 39.8573C0.877665 40.0497 0.51533 40.3502 0.618456 40.5286C0.72437 40.7129 1.03096 40.8371 1.1536 41.0115C1.27902 41.1878 1.49642 41.328 1.63021 41.4983C1.76399 41.6707 2.13469 41.7468 2.26848 41.9191C2.40226 42.0914 2.61409 42.2457 2.73951 42.422C2.86772 42.6024 2.44964 42.9851 2.58343 43.1574C2.72 43.3357 2.89281 43.5 3.03495 43.6683C3.17989 43.8426 3.2635 44.049 3.4168 44.2133C3.57288 44.3816 3.75405 44.5479 3.9185 44.7042C4.08851 44.8665 4.24181 45.0529 4.42298 45.1991C4.60972 45.3514 5.27307 45.1631 5.47096 45.2993C5.67443 45.4376 5.68558 45.7101 5.90577 45.8303C6.12874 45.9525 6.44369 45.9445 6.68339 46.0427C6.92309 46.1429 6.94818 46.5496 7.20739 46.6257C7.46102 46.7019 7.72859 46.8421 8.00174 46.8922C8.26373 46.9423 8.61771 46.768 8.89921 46.792C8.9243 46.7941 8.9466 46.7981 8.97168 46.8001C8.97168 46.8902 8.96889 46.9784 8.93545 47.0625C8.86019 47.2569 8.91315 47.4613 8.86298 47.6596C8.81002 47.858 8.21356 48.0023 8.1829 48.2026C8.15503 48.403 8.18291 48.6254 8.18012 48.8278C8.17733 49.0281 8.87134 49.2125 8.89085 49.4149C8.91036 49.6132 8.13831 49.8777 8.18012 50.0801C8.22193 50.2764 8.41146 50.4748 8.47556 50.6732C8.53688 50.8675 9.02743 50.9897 9.11104 51.1861C9.21696 51.4867 8.82675 51.5247 8.87692 51.8393C8.9243 52.1479 9.18072 52.1318 9.28385 52.4344C9.38419 52.7349 9.09153 52.785 9.19187 53.0876C9.29221 53.3881 9.90261 53.2839 10.0029 53.5845C10.1033 53.885 9.63503 53.9672 9.73537 54.2677C9.83571 54.5683 10.0336 54.5342 10.1339 54.8348C10.2343 55.1353 10.329 55.1193 10.4294 55.4199C10.5297 55.7204 10.7889 55.6763 10.8893 55.9769C10.9896 56.2774 11.0677 56.2634 11.168 56.566C11.2683 56.8665 10.6691 56.9707 10.7694 57.2713C10.8698 57.5718 10.906 57.5658 11.0063 57.8663C11.1067 58.1669 11.1541 58.1168 11.1206 58.4254C10.8447 58.5095 10.7889 58.4073 10.5297 58.4394C10.2454 58.4755 10.0085 58.4514 9.73816 58.4514C9.4678 58.4514 9.15842 58.9123 8.88528 58.9022C8.60656 58.8922 8.35014 58.6838 8.07142 58.6959C7.80106 58.7079 7.60317 58.8602 7.32445 58.9223C7.07639 58.9764 6.53289 58.8201 6.27368 58.9363C6.40467 59.1226 6.36565 59.3751 6.39074 59.5534C6.41861 59.7458 6.70569 59.9101 6.66667 60.0964C6.62765 60.2848 6.5078 60.4631 6.45763 60.6494C6.40746 60.8378 6.16776 61.0341 6.16498 61.2265C6.16219 61.4108 6.46042 61.6012 6.54961 61.7935C6.64437 61.9999 6.5301 62.2925 6.67782 62.4788C6.82275 62.6651 6.94539 62.8996 7.12377 63.0739C7.30215 63.2462 7.84008 63.2222 8.03518 63.3865C8.23029 63.5508 8.07978 63.9295 8.27488 64.0918C8.47277 64.2561 9.08038 64.1679 9.26434 64.3342C9.4455 64.4965 9.63225 64.6488 9.8162 64.8051C10.0057 64.9633 10.1702 65.1297 10.3625 65.2799C10.5604 65.4322 10.775 65.5624 10.9785 65.7067C11.1847 65.853 11.1457 66.1896 11.3631 66.3238C11.5805 66.4601 12.0655 66.3599 12.294 66.4861C12.5226 66.6104 12.5783 66.9089 12.8208 67.0211C13.0605 67.1333 13.3922 67.1393 13.6486 67.2375C13.8994 67.3357 14.1893 67.3637 14.4569 67.4479C14.7189 67.5301 14.8889 67.7785 15.1648 67.8446C15.4324 67.9107 15.7362 67.9128 16.0205 67.9628C16.2936 68.0109 16.5501 68.1732 16.8399 68.2073C17.1187 68.2414 17.428 68.1292 17.704 68.1412C17.9855 68.1532 18.2753 68.3095 18.5513 68.3015C18.8356 68.2934 19.131 68.2414 19.4042 68.2113C19.6857 68.1792 20.0006 68.1832 20.2654 68.1271C20.5385 68.069 20.6556 67.7104 20.9065 67.6282C21.1657 67.5441 21.3831 67.4559 21.6144 67.3457C21.8485 67.2335 22.0966 67.1654 22.3001 67.0271C22.5035 66.8889 22.6707 66.7486 22.838 66.5843C22.9996 66.424 23.4818 66.3819 23.6017 66.1956C23.7327 65.9972 23.3174 65.6726 23.3787 65.4763C23.4149 65.3561 23.4289 65.2519 23.4344 65.1477C23.6435 65.2559 23.7578 65.4843 23.9863 65.5665C24.2316 65.6566 24.4406 65.7969 24.6915 65.879C24.9423 65.9612 25.2851 65.875 25.5416 65.9471C25.798 66.0193 26.0656 66.0453 26.3248 66.1094C26.584 66.1736 26.6927 66.5703 26.9575 66.6264C27.2195 66.6825 27.4926 66.7366 27.7602 66.7847C28.0277 66.8328 28.273 66.977 28.5434 67.0171C28.8109 67.0572 29.1398 66.9029 29.413 66.937C29.6833 66.969 30.015 66.6725 30.2882 66.6985C30.5613 66.7226 30.7787 67.0772 31.0518 67.0953C31.325 67.1113 31.6149 66.945 31.8908 66.955C32.1639 66.965 32.4315 67.0572 32.7074 67.0612C32.9304 67.0632 33.2175 67.1453 33.552 67.1453C33.8084 67.1453 34.0955 67.1053 34.3993 67.1033C34.6696 67.0993 34.9651 67.2996 35.2577 67.2896C35.5337 67.2816 35.8291 67.3016 36.1134 67.2876C36.3949 67.2736 36.6848 67.2335 36.9663 67.2135C37.2506 67.1914 37.5154 67.0291 37.7913 66.9971C38.0784 66.965 38.3404 66.8488 38.6051 66.8067C38.895 66.7586 39.079 66.5202 39.3298 66.4581C39.6197 66.384 39.9207 66.426 40.1381 66.3299C40.4085 66.2096 40.4642 66.0513 40.5785 65.887C40.6732 65.7528 40.7652 65.6606 40.7597 65.5184C40.8684 65.6326 41.0189 65.7328 41.1303 65.863C41.2697 66.0233 40.9798 66.428 41.1638 66.5843C41.3338 66.7286 41.6822 66.7947 41.8857 66.935C42.078 67.0672 42.4543 67.0652 42.6717 67.1934C42.8779 67.3157 43.2709 67.2535 43.4967 67.3718C43.7141 67.484 43.7224 67.8146 43.9566 67.9228C44.1851 68.027 44.5029 68.025 44.7426 68.1251C44.9767 68.2233 45.0547 68.5319 45.2972 68.6241C45.5369 68.7162 46.0442 68.4257 46.2894 68.5098C46.5347 68.594 46.5821 68.9827 46.833 69.0609C47.0838 69.141 47.3542 69.1851 47.6078 69.2592C47.8642 69.3334 48.0008 69.6359 48.2572 69.702C48.5164 69.7702 48.9122 69.5558 49.1714 69.6159C49.4362 69.678 49.7177 69.678 49.9769 69.7301C50.2445 69.7842 50.487 69.8864 50.7462 69.9305C51.0193 69.9765 51.2033 70.3352 51.4625 70.3713C51.7412 70.4093 52.0952 70.1068 52.3544 70.1308C52.6415 70.1569 52.8923 70.4915 53.1487 70.4975C53.4442 70.5055 53.7313 70.217 53.9765 70.1969C54.233 70.1769 54.5758 70.3552 54.8712 70.3051C55.1304 70.2631 55.3367 70.0026 55.6182 69.9385C55.8774 69.8804 56.0502 69.6359 56.3206 69.5618C56.577 69.4916 56.8669 69.4856 57.1289 69.4035C57.3825 69.3233 57.5943 69.1891 57.8479 69.0969C58.0988 69.0068 58.4751 69.0909 58.7176 68.9887C58.9628 68.8865 59.3391 68.9266 59.5704 68.8144C59.8073 68.7022 59.9133 68.4457 60.1335 68.3235C60.3592 68.1993 60.284 67.8326 60.4846 67.7004C60.6965 67.5601 61.0867 67.5781 61.2678 67.4299C61.4602 67.2736 61.5521 67.0892 61.6999 66.9249C61.8559 66.7486 62.2183 66.6605 62.3158 66.4781C62.4189 66.2858 62.1402 66.0493 62.1653 65.851C62.1904 65.6526 62.3632 65.4803 62.2991 65.2779C62.2461 65.1076 62.0678 64.9854 61.9284 64.8251C62.1709 64.795 62.4357 64.6628 62.6586 64.6929C62.9374 64.7309 63.152 65.0074 63.4251 65.0435C63.7066 65.0796 64.0439 64.8592 64.317 64.8932C64.5985 64.9273 64.7686 65.4342 65.0417 65.4663C65.3232 65.4983 65.68 65.1517 65.9531 65.1777C66.2374 65.2058 66.5161 65.1978 66.7893 65.2198C66.9649 65.2338 67.1265 65.344 67.2882 65.4322C67.33 65.5324 67.3634 65.6286 67.3774 65.7127C67.4108 65.9071 67.3133 66.0554 67.2742 66.2457C67.2352 66.434 67.1934 66.6164 67.1432 66.8047C67.0931 66.9931 67.0011 67.2135 67.0011 67.4078C67.0011 67.5922 67.6728 67.6883 67.7676 67.8827C67.854 68.057 67.6923 68.2834 67.8177 68.4437C67.9432 68.604 68.2247 68.6741 68.378 68.8244C68.5285 68.9727 68.2971 69.3354 68.4644 69.4776C68.6288 69.6179 68.7319 69.8082 68.9048 69.9445C69.0776 70.0807 69.4789 70.0687 69.6489 70.207C69.8217 70.3452 69.9444 70.5115 70.1088 70.6518C70.2872 70.8041 70.3207 71.0505 70.5018 71.1968C70.6858 71.345 71.0732 71.3631 71.2627 71.5053C71.4523 71.6496 71.4578 71.9321 71.6529 72.0684C71.8508 72.2066 72.0125 72.389 72.2187 72.5192C72.4278 72.6494 72.9239 72.5352 73.1413 72.6554C73.3587 72.7757 73.3197 73.1644 73.5454 73.2746C73.7712 73.3848 74.298 73.1644 74.5377 73.2646C74.7746 73.3627 75.0115 73.4469 75.2596 73.5351C75.5048 73.6212 75.7334 73.7174 75.9898 73.7915C76.2407 73.8637 76.4999 73.9097 76.7646 73.9699C77.0239 74.028 77.1883 74.3385 77.4614 74.3846C77.7234 74.4307 78.0774 74.1782 78.3533 74.2123C78.6404 74.2464 78.8857 74.4888 79.17 74.5048C79.4626 74.5209 79.7553 74.4067 80.0396 74.4026C80.3323 74.3966 80.5998 74.3165 80.8813 74.2884C81.1712 74.2604 81.5029 74.4047 81.776 74.3526C82.0603 74.2985 82.3167 74.1762 82.5787 74.0981C82.8491 74.0179 83.1975 74.026 83.44 73.9198C83.688 73.8116 83.8218 73.5711 84.0364 73.4349C84.251 73.2966 84.619 73.2385 84.7946 73.0722C84.9674 72.9099 85.1039 72.6935 85.2294 72.5032C85.3241 72.3609 85.4384 72.2126 85.5192 72.0684C85.7255 72.1425 85.9373 72.2146 86.1463 72.2828C86.3916 72.3629 86.6731 72.401 86.9212 72.4731C87.172 72.5472 87.356 72.7596 87.6124 72.8258C87.866 72.8919 88.1197 72.9921 88.3761 73.0522C88.6325 73.1103 89.1064 72.6494 89.3656 72.7015C89.6248 72.7536 89.8143 72.98 90.0791 73.0241C90.3411 73.0682 90.5863 73.1704 90.8511 73.2085C91.1159 73.2465 91.4197 73.1083 91.6873 73.1383C91.9521 73.1684 92.2196 73.1524 92.4872 73.1764C92.7548 73.2004 92.9694 73.5731 93.2398 73.5892C93.5073 73.6072 93.7833 73.6212 94.0536 73.6312C94.3212 73.6413 94.5943 73.7515 94.8647 73.7555C95.0793 73.7595 95.3608 73.5691 95.6786 73.5731C95.9238 73.5751 96.197 73.2505 96.4868 73.2485C96.7433 73.2485 97.0192 73.5811 97.2979 73.5771C97.5599 73.5731 97.8219 73.3868 98.0978 73.3768C98.3654 73.3688 98.6413 73.4449 98.9117 73.4289C99.1821 73.4148 99.4608 73.4749 99.7284 73.4549C100.001 73.4329 100.263 73.3688 100.525 73.3387C100.801 73.3066 101.133 73.4689 101.387 73.4269C101.665 73.3788 101.975 73.3467 102.209 73.2846C102.488 73.2105 102.786 73.0822 102.987 72.984C103.237 72.8618 103.354 72.5693 103.449 72.403C103.494 72.3248 103.494 72.2327 103.472 72.1365C103.555 72.2026 103.642 72.2687 103.714 72.3489C103.865 72.5112 103.937 72.7095 104.138 72.8678C104.322 73.0141 104.433 73.2185 104.651 73.3627C104.854 73.497 105.119 73.5892 105.35 73.7174C105.57 73.8396 105.869 73.8857 106.108 74.0039C106.34 74.1181 106.273 74.573 106.521 74.6812C106.76 74.7873 107.114 74.7773 107.365 74.8775C107.613 74.9757 107.984 74.9136 108.24 75.0078C108.494 75.0999 108.879 74.9897 109.138 75.0779C109.397 75.164 109.497 75.4926 109.759 75.5728C110.021 75.6529 110.348 75.6189 110.612 75.693C110.88 75.7671 111.028 76.0677 111.295 76.1358C111.566 76.2039 112.02 75.8693 112.29 75.9315C112.566 75.9936 112.7 76.3743 112.968 76.4304C113.249 76.4865 113.536 76.5065 113.806 76.5526C114.091 76.6007 114.308 76.8892 114.579 76.9253C114.868 76.9653 115.225 76.7069 115.496 76.7329C115.794 76.761 116.078 76.7209 116.346 76.7289C116.655 76.7389 116.931 76.789 117.187 76.771C117.449 76.753 117.82 77.0375 118.121 76.9934C118.389 76.9533 118.567 76.5746 118.857 76.5165C119.124 76.4624 119.543 76.7029 119.821 76.6327C120.086 76.5666 120.225 76.228 120.496 76.1478C120.758 76.0697 121.151 76.1859 121.413 76.0957C121.672 76.0076 121.803 75.7231 122.054 75.6249C122.307 75.5267 122.416 75.2602 122.659 75.152C122.904 75.0418 123.188 74.9937 123.417 74.8755C123.654 74.7533 123.818 74.589 124.03 74.4588C124.253 74.3205 124.649 74.3305 124.838 74.1842C125.039 74.028 125.426 73.9638 125.582 73.7975C125.649 73.7254 125.683 73.6372 125.705 73.5451C125.747 73.505 125.791 73.4689 125.842 73.4369C126.056 73.2986 126.424 73.2405 126.6 73.0742C126.773 72.9119 126.909 72.6955 127.035 72.5052C127.129 72.3629 127.244 72.2146 127.324 72.0704C127.531 72.1445 127.742 72.2166 127.951 72.2848C128.197 72.3649 128.478 72.403 128.726 72.4751C128.977 72.5493 129.161 72.7616 129.418 72.8278C129.671 72.8939 129.925 72.9941 130.181 73.0542C130.438 73.1123 130.911 72.6514 131.171 72.7035C131.43 72.7556 131.619 72.982 131.884 73.0261C132.146 73.0702 132.391 73.1724 132.656 73.2105C132.921 73.2485 133.225 73.1103 133.492 73.1403C133.757 73.1704 134.025 73.1544 134.292 73.1784C134.56 73.2024 134.775 73.5751 135.045 73.5912C135.312 73.6092 135.588 73.6232 135.859 73.6332C136.126 73.6433 136.399 73.7535 136.67 73.7575C136.884 73.7615 137.166 73.5711 137.484 73.5751C137.729 73.5771 138.002 73.2525 138.292 73.2505C138.548 73.2505 138.824 73.5831 139.103 73.5791C139.365 73.5751 139.627 73.3888 139.903 73.3788C140.171 73.3708 140.446 73.4469 140.717 73.4309C140.987 73.4168 141.266 73.477 141.533 73.4569C141.807 73.4349 142.069 73.3708 142.331 73.3407C142.607 73.3086 142.938 73.4709 143.192 73.4289C143.471 73.3808 143.78 73.3487 144.014 73.2866C144.293 73.2125 144.591 73.0842 144.792 72.9861C145.043 72.8638 145.16 72.5713 145.254 72.405C145.299 72.3268 145.299 72.2347 145.277 72.1385C145.36 72.2046 145.447 72.2707 145.519 72.3509C145.67 72.5132 145.742 72.7115 145.943 72.8698C146.127 73.0161 146.238 73.2205 146.456 73.3647C146.659 73.499 146.924 73.5912 147.155 73.7194C147.375 73.8416 147.674 73.8877 147.913 74.0059C148.145 74.1201 148.078 74.575 148.326 74.6832C148.566 74.7894 148.92 74.7793 149.17 74.8795C149.418 74.9777 149.789 74.9156 150.046 75.0098C150.299 75.1019 150.684 74.9917 150.943 75.0799C151.202 75.166 151.303 75.4947 151.565 75.5748C151.827 75.6549 152.153 75.6209 152.418 75.695C152.685 75.7691 152.833 76.0697 153.1 76.1378C153.371 76.206 153.825 75.8713 154.095 75.9335C154.371 75.9956 154.505 76.3763 154.773 76.4324C155.054 76.4885 155.341 76.5085 155.612 76.5546C155.896 76.6027 156.113 76.8912 156.384 76.9273C156.674 76.9673 157.03 76.7089 157.301 76.7349C157.599 76.763 157.883 76.7229 158.151 76.7309C158.46 76.7409 158.736 76.791 158.992 76.773C159.254 76.755 159.625 77.0395 159.926 76.9954C160.194 76.9553 160.372 76.5766 160.662 76.5185C160.93 76.4644 161.348 76.7049 161.626 76.6347C161.891 76.5686 162.031 76.23 162.301 76.1499C162.563 76.0717 162.956 76.1879 163.218 76.0978C163.477 76.0096 163.608 75.7251 163.859 75.6269C164.113 75.5287 164.221 75.2622 164.464 75.154C164.709 75.0438 164.993 74.9957 165.222 74.8775C165.459 74.7553 165.623 74.591 165.835 74.4608C166.058 74.3225 166.454 74.3325 166.643 74.1862C166.844 74.03 167.231 73.9658 167.388 73.7995C167.555 73.6232 167.507 73.3427 167.611 73.1564C167.719 72.96 167.357 72.7216 167.382 72.5192C167.407 72.3168 167.683 72.1545 167.613 71.9461C167.549 71.7578 167.382 71.6135 167.229 71.4232C167.206 71.3951 167.19 71.3631 167.173 71.331C167.401 71.337 167.638 71.301 167.856 71.331C168.132 71.3711 168.288 71.852 168.558 71.888C168.837 71.9261 169.191 71.6496 169.461 71.6837C169.74 71.7197 169.982 71.882 170.256 71.9121C170.534 71.9461 170.863 71.7217 171.134 71.7518C171.415 71.7818 171.644 72.0483 171.914 72.0744C172.195 72.1004 172.51 71.864 172.784 71.882C173.065 71.9021 173.291 72.399 173.564 72.411C173.848 72.425 174.155 72.0543 174.428 72.0583C174.712 72.0624 174.983 72.0323 175.253 72.0283C175.537 72.0223 175.838 72.2747 176.111 72.2567C176.396 72.2387 176.655 72.0824 176.925 72.0483C177.207 72.0143 177.447 71.886 177.711 71.8359C177.984 71.7818 178.143 71.5534 178.397 71.4793C178.659 71.4032 179.239 71.8079 179.481 71.7097C179.724 71.6115 179.902 71.3831 180.122 71.2609C180.34 71.1407 180.694 71.0765 180.891 70.9303C181.081 70.79 181.101 70.5035 181.271 70.3392C181.432 70.1829 181.505 69.9665 181.65 69.7882C181.786 69.6199 182.059 69.4876 182.179 69.2973C182.291 69.121 182.26 68.8865 182.358 68.6922C182.45 68.5098 182.817 68.3756 182.898 68.1752C182.974 67.9889 182.561 67.7004 182.625 67.5C182.642 67.4419 182.681 67.3878 182.723 67.3337C182.923 67.1974 183.035 66.8047 183.263 66.7546C183.531 66.6945 183.999 67.0171 184.256 66.935C184.512 66.8528 184.849 66.8207 185.092 66.7166C185.331 66.6144 185.382 66.2758 185.605 66.1515C185.822 66.0273 185.758 65.6987 185.956 65.5524C186.081 65.4603 186.444 65.5083 186.728 65.5103C186.934 65.6526 187.308 65.7969 187.333 65.9552C187.366 66.1575 187.104 66.392 187.163 66.6044C187.221 66.8087 187.012 67.0672 187.087 67.2736C187.163 67.478 187.296 67.6803 187.383 67.8787C187.475 68.0851 188.113 68.1492 188.211 68.3415C188.319 68.5519 187.748 68.9446 187.857 69.123C187.988 69.3454 188.475 69.4295 188.59 69.5838C188.721 69.7621 188.523 70.1028 188.679 70.2611C188.841 70.4234 189.15 70.5376 189.337 70.6798C189.523 70.8261 189.654 71.0525 189.861 71.1807C190.07 71.309 190.36 71.4052 190.583 71.5174C190.806 71.6316 191.31 71.4432 191.547 71.5454C191.781 71.6476 191.965 71.8079 192.208 71.9001C192.45 71.9922 192.52 72.3349 192.768 72.423C193.016 72.5092 193.236 72.6454 193.484 72.7296C193.732 72.8137 194.108 72.7035 194.356 72.7877C194.591 72.8678 195.042 72.6254 195.296 72.7075C195.535 72.7857 195.482 73.3688 195.736 73.4429C195.981 73.515 196.238 73.6092 196.491 73.6773C196.742 73.7454 197.093 73.6392 197.35 73.6994C197.606 73.7595 198.024 73.4249 198.284 73.477C198.546 73.529 198.679 73.9198 198.941 73.9618C199.209 74.0039 199.477 74.066 199.739 74.0921C200.012 74.1201 200.288 74.2684 200.55 74.2764C200.828 74.2844 201.14 74.2704 201.4 74.2504C201.678 74.2303 201.821 73.7755 202.071 73.7194C202.35 73.6573 202.913 74.0039 203.153 73.8897C203.39 73.7755 203.498 73.491 203.71 73.3467C203.917 73.2044 204.307 73.1704 204.502 73.0201C204.7 72.8678 204.443 72.409 204.641 72.2647C204.847 72.1145 205.321 72.1886 205.544 72.0684C205.778 71.9421 205.904 71.7137 206.171 71.6456C206.489 71.5674 206.796 71.7217 207.06 71.7077C207.375 71.6917 207.693 71.3791 207.972 71.4252C208.256 71.4713 208.479 71.6997 208.772 71.7678C209.037 71.8319 209.338 71.8319 209.644 71.884C209.912 71.9301 210.202 71.8179 210.522 71.8359C210.779 71.85 211.043 72.0563 211.356 72.0443C211.623 72.0343 211.938 72.1505 212.234 72.1205C212.507 72.0924 212.819 72.1084 213.106 72.0644C213.379 72.0223 213.496 71.5073 213.778 71.4512C214.051 71.3971 214.382 71.5154 214.656 71.4512C214.926 71.3851 215.233 71.3971 215.497 71.319C215.762 71.2409 216.197 71.4112 216.451 71.319C216.71 71.2268 216.671 70.7399 216.913 70.6357C217.161 70.5275 217.415 70.4574 217.641 70.3372C217.875 70.211 218.159 70.1509 218.357 70.0126C218.566 69.8643 218.864 69.7742 219.023 69.6119C219.193 69.4416 219.547 69.3073 219.65 69.121C219.756 68.9306 219.377 68.6401 219.402 68.4337C219.419 68.2955 219.631 68.1412 219.734 67.9869C219.94 67.9468 220.152 67.8887 220.302 67.9348C220.567 68.0169 220.743 68.2353 220.999 68.3135C221.264 68.3936 221.596 68.3455 221.852 68.4197C222.12 68.4958 222.259 68.8024 222.518 68.8705C222.789 68.9426 223.221 68.6641 223.483 68.7262C223.756 68.7924 223.993 68.8966 224.257 68.9507C224.536 69.0088 224.662 69.4676 224.932 69.5137C225.213 69.5598 225.534 69.4896 225.807 69.5217C226.094 69.5538 226.401 69.3995 226.677 69.4135C226.964 69.4275 227.229 69.3434 227.505 69.3354C227.792 69.3273 228.045 69.3354 228.321 69.3013C228.6 69.2672 228.982 69.5257 229.249 69.4636C229.517 69.4015 229.849 69.3714 230.102 69.2773C230.35 69.1871 230.459 68.8925 230.699 68.7723C230.924 68.6581 231.212 68.584 231.429 68.4417C231.63 68.3095 231.451 67.9128 231.646 67.7545C231.8 67.6302 232.193 67.6503 232.418 67.5561C232.499 67.5561 232.574 67.5601 232.647 67.5781C232.912 67.6463 233.012 68.051 233.28 68.1091C233.547 68.1672 233.921 67.9368 234.194 67.9829C234.467 68.031 234.746 67.9829 235.022 68.0189C235.3 68.055 235.515 68.3015 235.794 68.3255C236.075 68.3496 236.348 68.3455 236.624 68.3556C236.906 68.3656 237.184 68.5319 237.46 68.5259C237.742 68.5199 238.029 68.4858 238.305 68.4638C238.586 68.4417 238.921 68.586 239.191 68.5459C239.467 68.5058 239.604 68.067 239.871 68.0069C240.139 67.9468 240.59 68.2273 240.847 68.1472C241.103 68.065 241.441 68.029 241.68 67.9268C241.92 67.8246 241.99 67.502 242.21 67.3758C242.427 67.2515 242.514 67.0231 242.711 66.8769C242.862 66.7667 243.113 66.7166 243.3 66.6244C243.394 66.7967 243.787 66.973 243.818 67.1654C243.851 67.3678 243.634 67.6002 243.693 67.8146C243.751 68.0189 243.559 68.2754 243.634 68.4818C243.709 68.6862 244.183 68.8124 244.272 69.0108C244.364 69.2171 243.985 69.5397 244.083 69.7321C244.191 69.9425 244.885 69.9765 244.994 70.1549C245.125 70.3773 244.983 70.6598 245.097 70.8141C245.228 70.9924 245.231 71.2408 245.387 71.3991C245.549 71.5614 245.802 71.6937 245.986 71.8379C246.173 71.9842 246.229 72.2607 246.438 72.389C246.647 72.5172 247.224 72.3208 247.45 72.433C247.673 72.5472 247.762 72.8077 247.999 72.9099C248.233 73.0101 248.581 72.968 248.824 73.0622C249.066 73.1544 249.426 73.0702 249.674 73.1564C249.922 73.2425 249.919 73.6994 250.167 73.7835C250.415 73.8677 250.884 73.6212 251.132 73.7054C251.366 73.7855 251.366 74.2484 251.619 74.3305C251.859 74.4087 252.177 74.3766 252.433 74.4527C252.678 74.5249 252.993 74.4828 253.25 74.5529C253.501 74.621 253.665 74.8775 253.922 74.9376C254.178 74.9977 254.465 75.0118 254.722 75.0639C254.984 75.116 255.298 75.0198 255.558 75.0599C255.825 75.1019 256.084 75.15 256.346 75.1761C256.62 75.2041 256.876 75.4005 257.138 75.4065C257.417 75.4145 257.662 75.0498 257.921 75.0298C258.2 75.0098 258.54 75.2903 258.788 75.2342C259.067 75.1721 259.298 74.9997 259.538 74.8855C259.775 74.7713 260.042 74.6691 260.251 74.5249C260.458 74.3826 260.469 74.1021 260.664 73.9498C260.862 73.7975 260.943 73.5591 261.14 73.4148C261.347 73.2646 261.773 73.2726 261.996 73.1524C262.23 73.0261 262.386 72.7196 262.657 72.6534C262.974 72.5753 263.356 72.7115 263.621 72.6995C263.936 72.6835 264.251 72.6595 264.53 72.7055C264.814 72.7516 265.087 72.8478 265.377 72.9159C265.642 72.98 265.957 72.9159 266.263 72.97C266.528 73.0161 266.759 73.2265 267.08 73.2445C267.336 73.2586 267.637 73.4409 267.947 73.4289C268.214 73.4188 268.538 73.485 268.836 73.4549C269.109 73.4269 269.349 73.1604 269.639 73.1183C269.912 73.0762 270.224 73.1043 270.503 73.0502C270.776 72.9961 271.046 72.9099 271.319 72.8438C271.59 72.7777 271.866 72.7055 272.13 72.6274C272.395 72.5492 272.663 72.4571 272.916 72.3669C273.176 72.2747 273.284 71.9922 273.527 71.888C273.775 71.7798 273.959 71.6336 274.182 71.5133C274.416 71.3871 274.831 71.4312 275.029 71.2909C275.238 71.1427 275.146 70.8341 275.308 70.6718C275.478 70.5015 275.642 70.3793 275.745 70.1929C275.851 70.0026 276.439 69.8824 276.467 69.676C276.49 69.5097 276.423 69.3013 276.367 69.113C276.556 69.0969 276.754 69.0689 276.902 69.113C277.167 69.1951 277.172 69.704 277.429 69.7802C277.694 69.8603 278.218 69.4796 278.474 69.5538C278.742 69.6299 278.775 70.1348 279.034 70.205C279.305 70.2771 279.725 70.0366 279.987 70.0988C280.261 70.1649 280.422 70.4815 280.69 70.5356C280.969 70.5937 281.362 70.3051 281.632 70.3492C281.913 70.3953 282.187 70.3713 282.46 70.4033C282.747 70.4354 282.967 70.766 283.243 70.78C283.53 70.794 283.834 71.0024 284.113 70.9944C284.4 70.9864 284.706 70.8682 284.982 70.8341C285.261 70.8 285.598 70.8061 285.866 70.7419C286.133 70.6798 286.155 70.1869 286.412 70.0927C286.66 70.0026 287.245 70.3051 287.482 70.1849C287.708 70.0707 287.516 69.5698 287.73 69.4275C287.889 69.3233 288.268 69.3734 288.519 69.3213C288.736 69.4135 289.007 69.4416 289.221 69.5417C289.461 69.6519 289.656 69.7902 289.915 69.8844C290.169 69.9765 290.434 70.0146 290.704 70.0887C290.969 70.1609 291.159 70.3833 291.44 70.4354C291.71 70.4855 291.97 70.6337 292.259 70.6658C292.552 70.6979 292.875 70.3632 293.165 70.3672C293.461 70.3713 293.748 70.6057 294.035 70.5796C294.328 70.5536 294.548 70.3372 294.829 70.2811C295.114 70.225 295.323 70.1188 295.587 70.0326C295.855 69.9445 296.287 70.0948 296.527 69.9745C296.766 69.8543 297.07 69.7621 297.279 69.6119C297.483 69.4636 297.873 69.3734 298.04 69.1971C298.202 69.0268 298.355 68.7904 298.478 68.594C298.598 68.3996 298.071 68.053 298.132 67.8647C298.152 67.8005 298.182 67.7424 298.213 67.6863C298.285 67.6943 298.355 67.7064 298.414 67.7304C298.659 67.8326 298.993 67.7905 299.244 67.8807C299.498 67.9729 299.685 68.1312 299.944 68.2113C300.203 68.2914 300.295 68.6721 300.56 68.7423C300.825 68.8124 301.064 68.9727 301.335 69.0328C301.605 69.0909 302.037 68.7262 302.313 68.7743C302.586 68.8224 302.787 69.1029 303.065 69.139C303.341 69.1751 303.617 69.2452 303.899 69.2712C304.178 69.2973 304.506 68.9647 304.788 68.9807C305.069 68.9967 305.32 69.2732 305.605 69.2793C305.886 69.2853 306.165 69.151 306.449 69.147C306.666 69.145 306.959 69.2652 307.299 69.2592C307.558 69.2532 307.865 69.5157 308.169 69.5037C308.439 69.4936 308.737 69.5037 309.03 69.4836C309.309 69.4676 309.535 69.0248 309.819 68.9987C310.1 68.9727 310.407 69.0769 310.683 69.0408C310.967 69.0048 311.332 69.2051 311.597 69.157C311.884 69.1049 312.049 68.7643 312.299 68.6962C312.584 68.618 312.927 68.6441 313.144 68.5399C313.406 68.4157 313.54 68.2053 313.662 68.039C313.726 67.9548 313.785 67.8627 313.821 67.7665C313.827 67.8546 313.841 67.9428 313.899 68.0189C314.027 68.1852 314.487 68.1792 314.663 68.3415C314.827 68.4918 314.669 68.8364 314.866 68.9827C315.053 69.121 315.371 69.163 315.583 69.2953C315.786 69.4215 315.85 69.682 316.076 69.8022C316.293 69.9184 316.728 69.8122 316.96 69.9224C317.188 70.0306 317.258 70.3172 317.498 70.4173C317.734 70.5155 318.125 70.4113 318.367 70.5035C318.61 70.5957 318.632 71.0104 318.88 71.0946C319.131 71.1787 319.451 71.1607 319.702 71.2348C319.959 71.311 320.148 71.5214 320.402 71.5895C320.664 71.6596 321.14 71.2669 321.397 71.325C321.664 71.3851 321.921 71.4112 322.18 71.4613C322.453 71.5134 322.609 71.872 322.868 71.9101C323.147 71.9502 323.379 72.2287 323.641 72.2527C323.93 72.2788 324.259 71.8059 324.518 71.8099C324.817 71.8139 325.034 71.7698 325.279 71.7438C325.533 71.7157 325.929 72.0684 326.227 72.0063C326.486 71.9522 326.584 71.5294 326.865 71.4512C327.122 71.3791 327.506 71.5174 327.774 71.4272C328.028 71.343 328.189 71.1246 328.446 71.0245C328.694 70.9283 329.101 71.0245 329.346 70.9143C329.588 70.8061 329.942 70.798 330.174 70.6778C330.408 70.5576 330.461 70.255 330.681 70.1268C330.904 69.9946 331.255 69.9565 331.456 69.8142C331.665 69.668 331.654 69.3734 331.835 69.2191C332.022 69.0589 331.96 68.7924 332.108 68.6241C332.267 68.4457 332.337 68.2914 332.442 68.1071C332.554 67.9128 332.936 67.8126 332.978 67.6122C333.019 67.4098 333.109 67.2055 333.07 66.9991C333.036 66.8187 333.092 66.5903 333.008 66.402C333.189 66.4421 333.368 66.4881 333.549 66.5122C333.833 66.5503 334.132 66.4962 334.405 66.5282C334.689 66.5623 334.993 66.4581 335.269 66.4881C335.553 66.5182 335.765 66.8809 336.041 66.9049C336.328 66.931 336.62 66.8809 336.896 66.8989C337.183 66.9169 337.445 67.2235 337.721 67.2335C338.011 67.2435 338.312 67.1173 338.591 67.1153C338.881 67.1153 339.193 67.2555 339.469 67.2415C339.714 67.2295 339.968 67.1734 340.208 67.1353C340.314 67.3016 340.28 67.5441 340.422 67.6883C340.589 67.8587 340.818 67.9929 340.988 68.1552C341.164 68.3215 341.548 68.3536 341.729 68.5098C341.916 68.6681 341.977 68.8905 342.173 69.0388C342.37 69.1891 342.488 69.3875 342.697 69.5257C342.908 69.666 343.137 69.7822 343.363 69.9084C343.588 70.0346 343.887 70.0707 344.126 70.1809C344.366 70.2911 344.369 70.7079 344.625 70.8C344.879 70.8922 345.328 70.6758 345.598 70.7479C345.863 70.8201 346.136 70.8221 346.417 70.8742C346.688 70.9243 346.849 71.3891 347.139 71.4212C347.432 71.4532 347.778 71.1888 348.068 71.1928C348.363 71.1968 348.636 71.1246 348.926 71.1006C349.219 71.0745 349.472 71.0044 349.751 70.9483C350.035 70.8922 350.359 70.9523 350.623 70.8642C350.891 70.776 351.281 70.8181 351.524 70.6979C351.763 70.5776 351.975 70.3913 352.181 70.241C352.385 70.0927 352.482 69.8603 352.65 69.684C352.811 69.5137 353.176 69.3975 353.299 69.1991C353.385 69.0609 353.475 68.9066 353.544 68.7603C353.695 68.7563 353.843 68.7543 353.954 68.7944C354.208 68.8865 354.414 69.0609 354.673 69.143C354.932 69.2232 355.286 69.143 355.551 69.2131C355.816 69.2833 356.139 69.2131 356.41 69.2732C356.68 69.3314 356.947 69.3634 357.221 69.4095C357.494 69.4576 357.658 69.8844 357.937 69.9204C358.216 69.9565 358.492 70.0867 358.77 70.1128C359.049 70.1388 359.361 70.0827 359.643 70.0988C359.924 70.1148 360.22 70.1829 360.501 70.1909C360.783 70.1969 361.078 69.9104 361.362 69.9064C361.58 69.9044 361.872 69.9765 362.213 69.9685C362.472 69.9625 362.739 69.688 363.046 69.676C363.316 69.666 363.601 69.7141 363.893 69.696C364.172 69.68 364.456 69.704 364.74 69.678C365.022 69.6519 365.323 69.7301 365.602 69.694C365.886 69.658 366.103 69.4395 366.371 69.3895C366.658 69.3374 366.984 69.4335 367.235 69.3654C367.519 69.2873 367.901 69.3354 368.116 69.2332C368.378 69.1089 368.116 68.7042 368.238 68.5379C368.28 68.4798 368.4 68.4277 368.534 68.3756C368.729 68.4297 368.932 68.4818 369.005 68.572C369.133 68.7383 369.356 68.8344 369.532 68.9967C369.696 69.147 369.495 69.5277 369.693 69.674C369.88 69.8122 370.22 69.8483 370.435 69.9785C370.638 70.1048 370.97 70.1148 371.196 70.235C371.413 70.3512 371.552 70.5416 371.787 70.6518C372.015 70.76 372.115 71.0225 372.355 71.1226C372.592 71.2208 373.046 71.0385 373.289 71.1306C373.531 71.2228 373.609 71.5514 373.857 71.6336C374.108 71.7177 374.326 71.866 374.577 71.9401C374.833 72.0163 375.07 72.1465 375.323 72.2126C375.585 72.2828 376.001 72.0263 376.257 72.0844C376.525 72.1445 376.784 72.1906 377.043 72.2387C377.316 72.2908 377.598 72.2527 377.857 72.2908C378.136 72.3308 378.339 72.6334 378.598 72.6575C378.888 72.6835 379.164 72.8498 379.423 72.8538C379.722 72.8578 379.942 72.3549 380.19 72.3268C380.444 72.2988 380.75 72.4491 381.048 72.3849C381.308 72.3308 381.723 72.5533 382.002 72.4751C382.258 72.403 382.367 72.0503 382.634 71.9602C382.888 71.876 383.114 71.7518 383.367 71.6516C383.615 71.5554 383.897 71.5033 384.142 71.3951C384.385 71.2869 384.669 71.2268 384.9 71.1066C385.134 70.9864 385.5 70.9844 385.72 70.8541C385.943 70.7219 386.046 70.4835 386.247 70.3432C386.456 70.1969 386.352 69.8643 386.531 69.71C386.718 69.5498 386.918 69.4375 387.069 69.2692C387.228 69.0909 387.465 68.9787 387.57 68.7944C387.682 68.6 388.276 68.4838 388.317 68.2854C388.359 68.0831 387.994 67.8346 387.955 67.6302C387.919 67.4339 387.584 67.3177 387.462 67.1213C387.434 67.0752 387.428 67.0091 387.434 66.933C387.504 66.955 387.573 66.975 387.646 66.9831C387.927 67.0211 388.214 67.0191 388.487 67.0552C388.772 67.0932 389 67.3277 389.276 67.3617C389.56 67.3958 389.834 67.4659 390.107 67.496C390.391 67.526 390.687 67.484 390.962 67.508C391.25 67.5341 391.548 67.4359 391.824 67.4539C392.055 67.4699 392.284 67.3878 392.509 67.3597C392.732 67.4459 392.936 67.5581 393.164 67.6362C393.412 67.7204 393.864 67.5 394.112 67.5842C394.346 67.6643 394.527 67.8386 394.781 67.9208C395.021 67.9989 395.177 68.2293 395.43 68.3055C395.676 68.3776 395.887 68.5359 396.141 68.604C396.392 68.6721 396.735 68.5639 396.991 68.6261C397.248 68.6882 397.512 68.7202 397.772 68.7723C398.034 68.8244 398.309 68.8124 398.569 68.8525C398.836 68.8946 399.118 68.7864 399.38 68.8124C399.653 68.8405 399.865 69.2492 400.127 69.2552C400.405 69.2632 400.698 69.2492 400.957 69.2292C401.236 69.2091 401.373 68.8024 401.621 68.7463C401.899 68.6842 402.309 68.8905 402.549 68.7763C402.786 68.6621 402.688 68.2754 402.897 68.1312C403.103 67.9889 403.354 67.8987 403.549 67.7464C403.747 67.5942 403.979 67.4579 404.177 67.3116C404.383 67.1614 404.606 66.9871 404.829 66.8668C405.063 66.7406 405.378 66.5943 405.648 66.5282C405.966 66.4501 406.317 66.3098 406.582 66.2958C406.897 66.2798 407.295 66.3319 407.574 66.3759C407.858 66.422 408.101 66.6464 408.391 66.7166C408.656 66.7807 408.912 66.8668 409.221 66.9189C409.489 66.965 409.74 67.1453 410.06 67.1634C410.317 67.1774 410.623 67.2856 410.933 67.2736C411.2 67.2636 411.423 66.8187 411.719 66.7887C411.992 66.7606 412.298 66.8949 412.588 66.8508C412.861 66.8087 413.143 66.7907 413.424 66.7346C413.698 66.6805 414.046 66.7927 414.319 66.7266C414.589 66.6605 414.687 66.2738 414.952 66.1956C415.217 66.1175 415.755 66.4701 416.008 66.3799C416.267 66.2878 416.557 66.1956 416.8 66.0914C417.048 65.9832 417.182 65.7207 417.405 65.6005C417.639 65.4743 418.043 65.4583 418.241 65.318C418.45 65.1697 418.374 64.8171 418.533 64.6548C418.703 64.4845 419.046 64.3602 419.149 64.1739C419.255 63.9835 419.029 63.7171 419.057 63.5107C419.071 63.4005 419.085 63.2923 419.088 63.1821C419.356 63.116 419.693 62.9376 419.88 62.9957C420.144 63.0779 420.245 63.4225 420.504 63.5007C420.769 63.5808 420.964 63.7832 421.223 63.8573C421.491 63.9335 421.917 63.705 422.176 63.7752C422.447 63.8473 422.728 63.8733 422.99 63.9375C423.263 64.0036 423.584 63.9194 423.851 63.9735C424.13 64.0316 424.247 64.5025 424.517 64.5466C424.799 64.5927 425.189 64.1939 425.462 64.224C425.749 64.256 425.956 64.6768 426.232 64.6888C426.418 64.6989 426.602 64.5446 426.783 64.4344C426.981 64.5085 427.316 64.4785 427.514 64.5566C427.567 64.5987 427.62 64.6408 427.673 64.6788C427.781 64.8311 427.801 65.0615 427.979 65.1617C428.302 65.3581 428.102 65.5364 428.431 65.7267C428.76 65.9171 429.175 65.5584 429.493 65.7588C429.81 65.9572 429.523 66.1956 429.841 66.394C430.159 66.5923 430.022 66.7065 430.34 66.9049C430.658 67.1033 430.772 67.0091 431.09 67.2075C431.407 67.4058 431.603 67.2435 431.92 67.4419C432.238 67.6403 432.174 67.6923 432.492 67.8907C432.809 68.0891 433.024 67.9108 433.342 68.1111C433.659 68.3095 433.478 68.4598 433.793 68.6581C434.111 68.8565 433.98 68.9647 434.298 69.163C434.616 69.3614 434.694 69.2953 435.011 69.4957C435.329 69.694 435.112 69.7682 435.321 70.0306C435.176 70.247 435.059 70.1268 434.872 70.2771C434.66 70.4474 434.524 70.5937 434.289 70.7239C434.044 70.8581 434.153 71.301 433.921 71.4412C433.696 71.5775 433.568 71.7017 433.386 71.89C433.23 72.0523 433.094 72.0463 432.996 72.2808C433.244 72.3769 433.425 72.397 433.593 72.5312C433.771 72.6735 433.81 72.934 433.938 73.0983C434.064 73.2626 433.657 73.6312 433.774 73.7995C433.891 73.9678 434.61 73.8837 434.763 74.038C434.914 74.1883 434.738 74.5689 434.958 74.6872C435.19 74.8094 435.599 74.7292 435.847 74.8174C436.101 74.9076 436.344 74.9957 436.608 75.0619C436.873 75.128 437.116 75.2442 437.389 75.2963C437.659 75.3484 437.941 75.3744 438.214 75.4245C438.487 75.4746 438.799 75.4265 439.067 75.4846C439.345 75.5447 439.549 75.7812 439.825 75.8333C440.103 75.8854 440.463 75.683 440.739 75.7251C441.023 75.7671 441.271 75.8934 441.553 75.9254C441.84 75.9555 442.13 75.8453 442.414 75.8613C442.701 75.8774 442.966 76.3342 443.25 76.3322C443.537 76.3322 443.847 76.256 444.131 76.236C444.415 76.216 444.622 75.8253 444.906 75.7852C445.185 75.7451 445.433 75.697 445.709 75.6329C445.976 75.5728 446.171 75.4305 446.439 75.3464C446.695 75.2662 447.038 75.3424 447.294 75.2382C447.554 75.134 447.963 75.1981 448.198 75.0739C448.434 74.9456 448.774 74.8695 448.978 74.7212C449.181 74.573 448.894 74.1141 449.067 73.9458C449.243 73.7755 449.984 73.8556 450.115 73.6693C450.249 73.481 449.669 73.0862 449.756 72.8839C449.842 72.6835 450.321 72.5633 450.355 72.3529C450.388 72.1465 450.179 71.9401 450.157 71.7277C450.137 71.5214 450.636 71.2368 450.561 71.0285C450.491 70.8341 450.346 70.6217 450.235 70.4494C450.335 70.3352 450.436 70.229 450.558 70.211C450.837 70.1709 451.107 70.1609 451.38 70.1108C451.654 70.0587 451.91 69.9986 452.18 69.9345C452.451 69.8703 452.682 69.7661 452.944 69.692C453.206 69.6179 453.607 69.7882 453.867 69.702C454.123 69.6179 454.218 69.3033 454.471 69.2091C454.722 69.115 455.115 69.2131 455.361 69.1089C455.603 69.0048 456.038 69.1049 456.275 68.9927C456.509 68.8805 456.47 68.4738 456.698 68.3536C456.924 68.2333 457.125 68.0931 457.348 67.9648C457.518 67.8667 457.721 67.7184 457.983 67.5641C458.181 67.4459 458.413 67.3257 458.641 67.1814C458.845 67.0532 459.355 67.1474 459.569 67.0031C459.773 66.8668 459.973 66.7085 460.174 66.5623C460.375 66.418 460.5 66.2076 460.687 66.0574C460.879 65.9031 460.648 65.5043 460.818 65.3481C460.999 65.1797 461.604 65.2358 461.74 65.0695C461.897 64.8812 461.897 64.6347 461.977 64.4584C462.075 64.244 462.17 64.0216 462.125 63.8353C462.078 63.6429 461.707 63.5988 461.465 63.4526C461.331 63.3724 461.166 63.1661 460.966 63.0258C461.197 63.1059 461.498 63.1681 461.657 63.2462C461.877 63.3544 462.055 63.4285 462.317 63.5067C462.563 63.5808 462.655 63.9795 462.931 64.0296C463.19 64.0757 463.519 63.8914 463.8 63.9174C464.065 63.9435 464.31 64.224 464.592 64.232C464.859 64.24 465.144 64.0397 465.425 64.0336C465.696 64.0276 465.96 63.9535 466.236 63.9355C466.507 63.9194 466.749 63.7672 467.022 63.7411C467.293 63.7151 467.66 64.1058 467.931 64.0697C468.201 64.0336 468.488 64.0076 468.756 63.9635C469.023 63.9194 469.274 63.7932 469.536 63.7411C469.804 63.687 469.935 63.3223 470.194 63.2622C470.459 63.2001 470.849 63.4105 471.103 63.3424C471.365 63.2722 471.574 63.1059 471.819 63.0298C472.078 62.9497 472.179 62.6531 472.415 62.567C472.672 62.4748 473.132 62.6772 473.358 62.581C473.608 62.4728 473.776 62.2864 473.979 62.1762C474.219 62.048 474.679 62.0821 474.849 61.9518C475.024 61.8176 474.715 61.3627 474.893 61.1804C475.049 61.0221 475.317 60.9159 475.47 60.7316C475.61 60.5613 476.028 60.4891 476.159 60.2988C476.284 60.1205 476.05 59.8139 476.167 59.6216C476.278 59.4352 476.51 59.2849 476.607 59.0906C476.705 58.8982 476.839 58.7159 476.92 58.5175C477 58.3192 477.101 58.1268 477.162 57.9264C477.223 57.7241 477.441 57.5377 477.48 57.3354C477.519 57.129 477 56.8986 477.009 56.6962C477.017 56.4858 477.547 56.2774 477.519 56.0791C477.491 55.8687 477.232 55.6863 477.156 55.496C477.076 55.2936 477.073 55.0712 476.933 54.8949C476.794 54.7166 476.713 54.4641 476.504 54.3198C476.37 54.2257 476.108 54.2517 475.872 54.2457C476.042 54.1175 476.145 53.9011 476.345 53.8249C476.599 53.7288 477.042 53.889 477.287 53.7929C477.541 53.6947 477.756 53.5444 477.995 53.4462C478.246 53.3441 478.369 53.0856 478.606 52.9834C478.854 52.8772 479.021 52.6889 479.255 52.5807C479.498 52.4684 479.604 52.23 479.829 52.1138C480.066 51.9936 480.387 51.9796 480.604 51.8553C480.83 51.7251 481.276 51.7852 481.479 51.6509C481.694 51.5107 481.945 51.3845 482.134 51.2382C482.33 51.0859 482.332 50.8094 482.497 50.6491C482.667 50.4828 483.065 50.4087 483.202 50.2324C483.338 50.054 483.258 49.7835 483.358 49.5932C483.456 49.4048 483.511 49.2005 483.57 48.9981C483.628 48.8037 483.692 48.6014 483.712 48.393C483.729 48.1966 484.019 47.9742 483.999 47.7638C483.982 47.5675 483.723 47.3671 483.673 47.1587L483.659 47.1547ZM395.096 36.0343C395.037 36.1265 394.987 36.2187 394.982 36.3128C394.976 36.4331 395.099 36.5934 395.196 36.7456C395.087 36.6054 394.943 36.4631 394.929 36.3529C394.915 36.2507 395.009 36.1405 395.099 36.0323L395.096 36.0343ZM345.684 23.4052C345.782 23.5495 345.972 23.6977 345.963 23.842C345.952 24.0383 345.643 24.4912 345.654 24.6976C345.679 24.4852 345.425 24.0343 345.403 23.852C345.386 23.7198 345.567 23.5535 345.684 23.4052ZM232.031 51.5668C232.081 51.677 232.165 51.7872 232.215 51.8974C232.059 51.8052 231.922 51.7171 231.738 51.6489C231.722 51.6429 231.705 51.6349 231.688 51.6269C231.705 51.6169 231.722 51.6049 231.738 51.5989C231.822 51.5708 231.925 51.5668 232.031 51.5688V51.5668ZM208.697 28.8932C208.75 28.9594 208.789 29.0255 208.797 29.0956C208.811 29.2639 208.906 29.33 208.922 29.4883C208.878 29.3902 208.616 29.3741 208.591 29.2479C208.574 29.1637 208.649 29.0235 208.697 28.8932ZM119.947 35.5514C119.938 35.6096 119.949 35.6717 119.963 35.7358C119.952 35.7097 119.941 35.6817 119.938 35.6516C119.933 35.6196 119.938 35.5855 119.949 35.5514H119.947ZM61.8364 13.9098C61.8364 13.9378 61.8336 13.9679 61.8309 13.9959C61.8253 14.1122 61.9368 14.2163 62.0315 14.3225C61.9312 14.2304 61.8058 14.1442 61.7918 14.04C61.7863 13.9979 61.8058 13.9539 61.8364 13.9098ZM21.0793 12.1245C21.1043 12.2928 20.9538 12.5613 20.9343 12.7637C20.9371 12.5573 20.9817 12.2908 20.9455 12.1365C20.9343 12.0824 20.9288 12.0283 20.926 11.9722C21.0096 12.0203 21.0709 12.0724 21.0793 12.1265V12.1245ZM166.117 71.1387C166.03 71.1527 165.947 71.1447 165.863 71.1327C165.963 71.1186 166.061 71.1106 166.167 71.1246C166.15 71.1286 166.133 71.1347 166.117 71.1387Z" fill="var(--fill-0, #FFDFDF)"/>
</svg>
